<?xml version="1.0" standalone="no"?><!DOCTYPE svg PUBLIC "-//W3C//DTD SVG 1.1//EN" "http://www.w3.org/Graphics/SVG/1.1/DTD/svg11.dtd" ><svg xmlns="http://www.w3.org/2000/svg"><metadata></metadata><defs><font id="Linotype GmbH:Avenir Next Cyr Medium:2012" horiz-adv-x="1089"><font-face font-family="Avenir Next Cyr Medium" font-weight="450" font-stretch="normal" units-per-em="1000" panose-1="2 11 6 3 2 2 2 2 2 4" ascent="971" descent="-254" x-height="4" bbox="-210 -250 1054 951" underline-thickness="50" underline-position="-175" unicode-range="U+0000-fb04" /><missing-glyph horiz-adv-x="512" d="M278 117 l-56 0 l0 67 l56 0 l0 -67 ZM271 234 l-46 0 l-2 17 q0 56 13 81 q15 28 46 59 q31 29 40.5 46 q9.5 17 9.5 37 q0 36 -22.5 60.5 q-22.5 24.5 -53.5 24.5 q-71 0 -82 -95 l-50 8 q7 69 43 103 q36 34 92 34 q54 0 89 -36 q35 -36 35 -95 q0 -34 -13 -60 q-13 -26 -50 -60 q-37 -33 -43 -52 q-6 -20 -6 -72 ZM50 50 l412 0 l0 617 l-412 0 l0 -617 ZM0 718 l512 0 l0 -718 l-512 0 l0 718 Z" /><glyph glyph-name=".null" unicode="" d="" /><glyph glyph-name="nonmarkingreturn" unicode="" d="" /><glyph glyph-name="space" unicode=" " d="" /><glyph glyph-name="exclam" unicode="!" d="M216 708 l0 -501 l-99 0 l0 501 l99 0 ZM214.5 106 q19.5 -19 19.5 -46 q0 -27 -19.5 -46.5 q-19.5 -19.5 -47.5 -19.5 q-28 0 -47.5 19.5 q-19.5 19.5 -19.5 45.5 q0 27 19.5 46.5 q19.5 19.5 47.5 19.5 q28 0 47.5 -19 Z" /><glyph glyph-name="quotedbl" unicode="&quot;" d="M90 458 l0 250 l82 0 l0 -250 l-82 0 ZM251 458 l0 250 l82 0 l0 -250 l-82 0 Z" /><glyph glyph-name="numbersign" unicode="#" d="M107 0 l30 211 l-96 0 l0 73 l106 0 l19 141 l-98 0 l0 73 l109 0 l29 210 l75 0 l-30 -210 l118 0 l29 210 l75 0 l-30 -210 l90 0 l0 -73 l-100 0 l-20 -141 l93 0 l0 -73 l-102 0 l-30 -211 l-75 0 l30 211 l-118 0 l-30 -211 l-74 0 ZM241 425 l-20 -141 l118 0 l19 141 l-117 0 Z" /><glyph glyph-name="dollar" unicode="$" d="M264 69 l0 254 q-44 13 -76 27.5 q-32 14.5 -62.5 37.5 q-30.5 23 -46.5 57.5 q-16 34.5 -16 79.5 q0 84 58.5 136.5 q58.5 52.5 142.5 57.5 l0 70 l51 0 l0 -69 q54 -1 107.5 -20.5 q53.5 -19.5 89.5 -55.5 l-68 -63 q-46 58 -129 60 l0 -238 q46 -15 77 -30 q31 -15 64 -39 q33 -24 50 -60.5 q17 -36.5 17 -83.5 q0 -91 -60 -145 q-60 -54 -148 -56 l0 -72 l-51 0 l0 72 q-137 3 -223 99 l73 62 q26 -36 69 -58 q43 -22 81 -23 ZM315 309 l0 -240 q47 2 79.5 33 q32.5 31 32.5 87 q0 83 -112 120 ZM264 418 l0 223 q-45 -3 -75.5 -32.5 q-30.5 -29.5 -30.5 -77.5 q0 -82 106 -113 Z" /><glyph glyph-name="percent" unicode="%" d="M526.5 40 q-51.5 52 -51.5 125 q0 73 51.5 125 q51.5 52 125.5 52 q74 0 125.5 -52 q51.5 -52 51.5 -125 q0 -73 -51.5 -125 q-51.5 -52 -125.5 -52 q-74 0 -125.5 52 ZM718.5 98.5 q27.5 27.5 27.5 66.5 q0 39 -27.5 66.5 q-27.5 27.5 -66.5 27.5 q-39 0 -66.5 -27.5 q-27.5 -27.5 -27.5 -66.5 q0 -39 27.5 -66.5 q27.5 -27.5 66.5 -27.5 q39 0 66.5 27.5 ZM92.5 418 q-51.5 52 -51.5 125 q0 73 51.5 125 q51.5 52 125.5 52 q74 0 125.5 -52 q51.5 -52 51.5 -125 q0 -73 -51.5 -125 q-51.5 -52 -125.5 -52 q-74 0 -125.5 52 ZM284.5 476.5 q27.5 27.5 27.5 66.5 q0 39 -27.5 66.5 q-27.5 27.5 -66.5 27.5 q-39 0 -66.5 -27.5 q-27.5 -27.5 -27.5 -66.5 q0 -39 27.5 -66.5 q27.5 -27.5 66.5 -27.5 q39 0 66.5 27.5 ZM686 707 l-433 -739 l-68 33 l434 739 l67 -33 Z" /><glyph glyph-name="ampersand" unicode="&amp;" d="M686 378 l-136 -211 l162 -167 l-131 0 l-88 93 q-84 -106 -215 -106 q-97 0 -163.5 53.5 q-66.5 53.5 -66.5 147.5 q0 132 159 205 q-81 85 -81 162 q0 81 55 126 q55 45 134 45 q78 0 130.5 -44 q52.5 -44 52.5 -122 q0 -115 -152 -187 l141 -145 l89 150 l110 0 ZM407 558 q0 38 -25.5 64 q-25.5 26 -65.5 26 q-41 0 -68 -26 q-27 -26 -27 -68 q0 -61 70 -123 q116 51 116 127 ZM430 156 l-168 176 q-114 -48 -114 -142 q0 -54 39.5 -88.5 q39.5 -34.5 92.5 -34.5 q90 0 150 89 Z" /><glyph glyph-name="quotesingle" unicode="&#39;" d="M90 458 l0 250 l82 0 l0 -250 l-82 0 Z" /><glyph glyph-name="parenleft" unicode="(" d="M153.5 500 q-34.5 -105 -34.5 -212 q0 -107 34.5 -212 q34.5 -105 94.5 -189 l-68 -44 q-68 91 -107 207 q-39 116 -39 238 q0 122 39 238 q39 116 107 207 l68 -44 q-60 -84 -94.5 -189 Z" /><glyph glyph-name="parenright" unicode=")" d="M161.5 76 q34.5 105 34.5 212 q0 107 -34.5 212 q-34.5 105 -94.5 189 l68 44 q68 -91 107 -207 q39 -116 39 -238 q0 -122 -39 -238 q-39 -116 -107 -207 l-68 44 q60 84 94.5 189 Z" /><glyph glyph-name="asterisk" unicode="*" d="M262 579 l127 41 l27 -76 l-127 -41 l81 -109 l-64 -48 l-84 113 l-84 -113 l-64 48 l81 109 l-127 41 l27 76 l127 -41 l0 129 l80 0 l0 -129 Z" /><glyph glyph-name="plus" unicode="+" d="M374 566 l0 -222 l222 0 l0 -82 l-222 0 l0 -222 l-82 0 l0 222 l-222 0 l0 82 l222 0 l0 222 l82 0 Z" /><glyph glyph-name="comma" unicode="," d="M197 117 l-83 -250 l-80 0 l69 250 l94 0 Z" /><glyph glyph-name="hyphen" unicode="-" d="M276 284 l0 -80 l-232 0 l0 80 l232 0 Z" /><glyph glyph-name="period" unicode="." d="M177.5 106 q19.5 -19 19.5 -46 q0 -27 -19.5 -46.5 q-19.5 -19.5 -47.5 -19.5 q-28 0 -47.5 19.5 q-19.5 19.5 -19.5 45.5 q0 27 19.5 46.5 q19.5 19.5 47.5 19.5 q28 0 47.5 -19 Z" /><glyph glyph-name="slash" unicode="/" d="M376 716 l-307 -749 l-71 24 l307 751 l71 -26 Z" /><glyph glyph-name="zero" unicode="0" d="M161 675 q56 51 137 51 q81 0 136.5 -51 q55.5 -51 80 -132.5 q24.5 -81.5 24.5 -188.5 q0 -165 -60.5 -268.5 q-60.5 -103.5 -180.5 -103.5 q-121 0 -181.5 103.5 q-60.5 103.5 -60.5 268.5 q0 107 24.5 188.5 q24.5 81.5 80.5 132.5 ZM298 645 q-42 0 -71.5 -28 q-29.5 -28 -44 -74 q-14.5 -46 -21 -92.5 q-6.5 -46.5 -6.5 -96.5 q0 -51 6.5 -97 q6.5 -46 21 -92 q14.5 -46 44 -73.5 q29.5 -27.5 71.5 -27.5 q41 0 70.5 27.5 q29.5 27.5 44 73.5 q14.5 46 21 92.5 q6.5 46.5 6.5 96.5 q0 50 -6.5 96.5 q-6.5 46.5 -21 92.5 q-14.5 46 -44 74 q-29.5 28 -70.5 28 Z" /><glyph glyph-name="one" unicode="1" d="M379 708 l0 -708 l-97 0 l0 590 l-134 -112 l-57 67 l201 163 l87 0 Z" /><glyph glyph-name="two" unicode="2" d="M522 87 l0 -87 l-462 0 l0 93 l282 280 q78 80 78 150 q0 54 -36 88 q-36 34 -90 34 q-53 0 -88.5 -34 q-35.5 -34 -44.5 -89 l-95 16 q13 82 76 135 q63 53 153 53 q94 0 159 -53 q65 -53 65 -148 q0 -62 -29 -110.5 q-29 -48.5 -85 -103.5 l-230 -224 l347 0 Z" /><glyph glyph-name="three" unicode="3" d="M213 330 l0 80 l31 0 q69 0 113.5 27.5 q44.5 27.5 44.5 90.5 q0 52 -36.5 84.5 q-36.5 32.5 -88.5 32.5 q-90 0 -124 -87 l-88 31 q26 64 83.5 100.5 q57.5 36.5 132.5 36.5 q93 0 155.5 -51 q62.5 -51 62.5 -141 q0 -59 -35 -103 q-35 -44 -90 -58 l0 -2 q64 -13 104 -59.5 q40 -46.5 40 -113.5 q0 -101 -70 -158.5 q-70 -57.5 -167 -57.5 q-86 0 -149 39 q-63 39 -92 117 l90 30 q16 -47 55.5 -75.5 q39.5 -28.5 93.5 -28.5 q58 0 100 35.5 q42 35.5 42 99.5 q0 68 -52.5 99.5 q-52.5 31.5 -125.5 31.5 l-30 0 Z" /><glyph glyph-name="four" unicode="4" d="M451 708 l0 -466 l102 0 l0 -83 l-102 0 l0 -159 l-94 0 l0 159 l-326 0 l0 88 l301 461 l119 0 ZM357 242 l0 355 l-2 0 l-224 -355 l226 0 Z" /><glyph glyph-name="five" unicode="5" d="M490 708 l0 -86 l-292 0 l-6 -186 q38 13 91 13 q104 0 170.5 -61 q66.5 -61 66.5 -162 q0 -109 -70 -176.5 q-70 -67.5 -177 -67.5 q-81 0 -139 38 q-58 38 -87 104 l88 35 q17 -43 54 -69 q37 -26 84 -26 q63 0 105.5 42.5 q42.5 42.5 42.5 109.5 q0 76 -47.5 115.5 q-47.5 39.5 -118.5 39.5 q-82 0 -157 -39 l10 376 l382 0 Z" /><glyph glyph-name="six" unicode="6" d="M421 708 l-190 -285 l1 -2 q32 19 88 19 q94 0 157.5 -63 q63.5 -63 63.5 -159 q0 -105 -69.5 -170.5 q-69.5 -65.5 -174.5 -65.5 q-106 0 -175.5 66 q-69.5 66 -69.5 167 q0 92 69 201 l185 292 l115 0 ZM150 214 q0 -63 41 -106.5 q41 -43.5 106 -43.5 q65 0 105.5 42.5 q40.5 42.5 40.5 108.5 q0 65 -40 106.5 q-40 41.5 -105 41.5 q-66 0 -107 -41.5 q-41 -41.5 -41 -107.5 Z" /><glyph glyph-name="seven" unicode="7" d="M515 708 l0 -88 l-284 -620 l-111 0 l295 622 l-351 0 l0 86 l451 0 Z" /><glyph glyph-name="eight" unicode="8" d="M401 373 q58 -15 96 -64 q38 -49 38 -116 q0 -96 -68.5 -153.5 q-68.5 -57.5 -168.5 -57.5 q-101 0 -169.5 57 q-68.5 57 -68.5 154 q0 68 38 116 q38 48 96 64 l0 2 q-49 17 -79 59 q-30 42 -30 99 q0 86 61.5 139.5 q61.5 53.5 151.5 53.5 q90 0 151 -52.5 q61 -52.5 61 -138.5 q0 -57 -30 -100.5 q-30 -43.5 -79 -59.5 l0 -2 ZM182 530 q0 -49 33 -82 q33 -33 83 -33 q48 0 82 33.5 q34 33.5 34 81.5 q0 50 -34 83 q-34 33 -82 33 q-50 0 -83 -32.5 q-33 -32.5 -33 -83.5 ZM159 198 q0 -60 38.5 -97.5 q38.5 -37.5 100.5 -37.5 q60 0 99 37.5 q39 37.5 39 97.5 q0 58 -39 96 q-39 38 -99 38 q-61 0 -100 -37.5 q-39 -37.5 -39 -96.5 Z" /><glyph glyph-name="nine" unicode="9" d="M175 0 l190 286 l-1 1 q-15 -9 -41 -14 q-27 -5 -48 -5 q-94 0 -157.5 63 q-63.5 63 -63.5 159 q0 105 69.5 170.5 q69.5 65.5 175.5 65.5 q105 0 174.5 -66.5 q69.5 -66.5 69.5 -166.5 q0 -91 -68 -201 l-185 -292 l-115 0 ZM446 494 q0 64 -41 107.5 q-41 43.5 -106 43.5 q-65 0 -106 -43 q-41 -43 -41 -109 q0 -65 40.5 -106.5 q40.5 -41.5 105.5 -41.5 q66 0 107 41.5 q41 41.5 41 107.5 Z" /><glyph glyph-name="colon" unicode=":" d="M197.5 461 q19.5 -19 19.5 -46 q0 -27 -19.5 -46.5 q-19.5 -19.5 -47.5 -19.5 q-28 0 -47.5 19 q-19.5 19 -19.5 46 q0 27 19.5 46.5 q19.5 19.5 47.5 19.5 q28 0 47.5 -19 ZM197.5 106 q19.5 -19 19.5 -46 q0 -27 -19.5 -46.5 q-19.5 -19.5 -47.5 -19.5 q-28 0 -47.5 19.5 q-19.5 19.5 -19.5 45.5 q0 27 19.5 46.5 q19.5 19.5 47.5 19.5 q28 0 47.5 -19 Z" /><glyph glyph-name="semicolon" unicode=";" d="M197.5 461 q19.5 -19 19.5 -46 q0 -27 -19.5 -46.5 q-19.5 -19.5 -47.5 -19.5 q-28 0 -47.5 19 q-19.5 19 -19.5 46 q0 27 19.5 46.5 q19.5 19.5 47.5 19.5 q28 0 47.5 -19 ZM206 117 l-83 -250 l-80 0 l69 250 l94 0 Z" /><glyph glyph-name="less" unicode="&lt;" d="M589 564 l0 -85 l-385 -176 l383 -176 l0 -85 l-508 231 l0 60 l510 231 Z" /><glyph glyph-name="equal" unicode="=" d="M70 426 l526 0 l0 -81 l-526 0 l0 81 ZM70 261 l526 0 l0 -81 l-526 0 l0 81 Z" /><glyph glyph-name="greater" unicode="&gt;" d="M79 479 l0 85 l508 -231 l0 -60 l-508 -231 l0 85 l383 176 l-383 176 Z" /><glyph glyph-name="question" unicode="?" d="M301 236 l0 -35 l-94 0 l0 48 q0 49 17.5 81.5 q17.5 32.5 55.5 67.5 l37 35 q51 44 51 99 q0 48 -30.5 76.5 q-30.5 28.5 -78.5 28.5 q-48 0 -79 -31.5 q-31 -31.5 -36 -78.5 l-96 11 q13 85 72 135 q59 50 145 50 q87 0 145 -49 q58 -49 58 -136 q0 -58 -22.5 -93 q-22.5 -35 -73.5 -78 q-43 -37 -57 -60.5 q-14 -23.5 -14 -70.5 ZM306.5 106 q19.5 -19 19.5 -46 q0 -27 -19.5 -46.5 q-19.5 -19.5 -47.5 -19.5 q-28 0 -47.5 19.5 q-19.5 19.5 -19.5 45.5 q0 27 19.5 46.5 q19.5 19.5 47.5 19.5 q28 0 47.5 -19 Z" /><glyph glyph-name="at" unicode="@" d="M412 478 q-50 0 -80 -49.5 q-30 -49.5 -30 -108.5 q0 -34 16.5 -61.5 q16.5 -27.5 55.5 -27.5 q38 0 65 26.5 q27 26.5 37 59 q10 32.5 10 65.5 q0 96 -74 96 ZM682 155 l46 -53 q-114 -120 -313 -120 q-171 0 -276.5 103.5 q-105.5 103.5 -105.5 267.5 q0 159 111.5 266 q111.5 107 270.5 107 q70 0 132.5 -20.5 q62.5 -20.5 112.5 -59 q50 -38.5 79.5 -101 q29.5 -62.5 29.5 -140.5 q0 -115 -57 -180 q-57 -65 -139 -65 q-40 0 -63.5 20 q-23.5 20 -23.5 50 l-5 0 q-14 -27 -47 -48.5 q-33 -21.5 -76 -21.5 q-67 0 -105.5 45 q-38.5 45 -38.5 118 q0 89 56 157.5 q56 68.5 142 68.5 q37 0 64.5 -16 q27.5 -16 36.5 -41 l2 0 l9 42 l76 0 l-39 -188 q-10 -45 -10 -71 q0 -45 40 -45 q44 0 72 47 q28 47 28 120 q0 122 -76.5 189.5 q-76.5 67.5 -200.5 67.5 q-130 0 -212 -86 q-82 -86 -82 -217 q0 -135 84 -216 q84 -81 219 -81 q152 0 259 101 Z" /><glyph glyph-name="A" unicode="a" d="M186 174 l-71 -174 l-110 0 l307 708 l90 0 l304 -708 l-112 0 l-72 174 l-336 0 ZM354 593 l-133 -332 l265 0 l-132 332 Z" /><glyph glyph-name="B" unicode="b" d="M86 0 l0 708 l244 0 q92 0 157 -43 q65 -43 65 -136 q0 -57 -33.5 -98 q-33.5 -41 -90.5 -56 l0 -2 q70 -8 113.5 -54 q43.5 -46 43.5 -118 q0 -98 -74.5 -149.5 q-74.5 -51.5 -191.5 -51.5 l-233 0 ZM185 625 l0 -216 l129 0 q61 0 100 27.5 q39 27.5 39 82.5 q0 106 -155 106 l-113 0 ZM185 325 l0 -241 l124 0 q47 0 84 10 q37 10 64.5 38.5 q27.5 28.5 27.5 73.5 q0 119 -167 119 l-133 0 Z" /><glyph glyph-name="C" unicode="c" d="M614 164 l79 -54 q-94 -128 -270 -128 q-163 0 -268 105 q-105 105 -105 268 q0 164 107 267.5 q107 103.5 270 103.5 q76 0 146 -29 q70 -29 108 -81 l-78 -60 q-26 37 -74 60 q-48 23 -102 23 q-120 0 -194.5 -82 q-74.5 -82 -74.5 -202 q0 -122 73 -203.5 q73 -81.5 193 -81.5 q125 0 190 94 Z" /><glyph glyph-name="D" unicode="d" d="M86 0 l0 708 l243 0 q71 0 136.5 -20.5 q65.5 -20.5 121.5 -61.5 q56 -41 90 -111.5 q34 -70.5 34 -160.5 q0 -87 -34 -157 q-34 -70 -89.5 -111.5 q-55.5 -41.5 -122 -63.5 q-66.5 -22 -136.5 -22 l-243 0 ZM185 622 l0 -535 l124 0 q131 0 213.5 71.5 q82.5 71.5 82.5 195.5 q0 128 -82 198 q-82 70 -214 70 l-124 0 Z" /><glyph glyph-name="E" unicode="e" d="M185 324 l0 -236 l370 0 l0 -88 l-469 0 l0 708 l454 0 l0 -87 l-355 0 l0 -212 l334 0 l0 -85 l-334 0 Z" /><glyph glyph-name="F" unicode="f" d="M185 316 l0 -316 l-99 0 l0 708 l442 0 l0 -87 l-343 0 l0 -220 l321 0 l0 -85 l-321 0 Z" /><glyph glyph-name="G" unicode="g" d="M689 634 l-69 -72 q-70 77 -192 77 q-121 0 -195.5 -82 q-74.5 -82 -74.5 -202 q0 -122 74.5 -203 q74.5 -81 198.5 -81 q100 0 165 35 l0 197 l-157 0 l0 84 l255 0 l0 -343 q-115 -62 -266 -62 q-166 0 -272 104.5 q-106 104.5 -106 268.5 q0 164 107 267.5 q107 103.5 270 103.5 q167 0 262 -92 Z" /><glyph glyph-name="H" unicode="h" d="M86 0 l0 708 l99 0 l0 -296 l358 0 l0 296 l100 0 l0 -708 l-100 0 l0 324 l-358 0 l0 -324 l-99 0 Z" /><glyph glyph-name="I" unicode="i" d="M185 708 l0 -708 l-99 0 l0 708 l99 0 Z" /><glyph glyph-name="J" unicode="j" d="M15 132 l92 26 q8 -39 35.5 -63.5 q27.5 -24.5 66.5 -24.5 q107 0 107 151 l0 487 l99 0 l0 -491 q0 -32 -5 -62 q-5 -30 -18.5 -62.5 q-13.5 -32.5 -35 -56 q-21.5 -23.5 -58 -39 q-36.5 -15.5 -84.5 -15.5 q-79 0 -131 41 q-52 41 -68 109 Z" /><glyph glyph-name="K" unicode="k" d="M185 708 l0 -312 l2 0 l316 312 l137 0 l-344 -324 l365 -384 l-142 0 l-332 366 l-2 0 l0 -366 l-99 0 l0 708 l99 0 Z" /><glyph glyph-name="L" unicode="l" d="M185 708 l0 -620 l316 0 l0 -88 l-415 0 l0 708 l99 0 Z" /><glyph glyph-name="M" unicode="m" d="M240 708 l212 -544 l2 0 l209 544 l154 0 l0 -708 l-99 0 l0 592 l-2 0 l-235 -592 l-63 0 l-234 592 l-2 0 l0 -592 l-96 0 l0 708 l154 0 Z" /><glyph glyph-name="N" unicode="n" d="M215 708 l370 -566 l2 0 l0 566 l99 0 l0 -708 l-125 0 l-374 578 l-2 0 l0 -578 l-99 0 l0 708 l129 0 Z" /><glyph glyph-name="O" unicode="o" d="M800 355 q0 -163 -106.5 -268 q-106.5 -105 -269.5 -105 q-162 0 -268 105 q-106 105 -106 268 q0 164 105.5 267.5 q105.5 103.5 268.5 103.5 q163 0 269.5 -103.5 q106.5 -103.5 106.5 -267.5 ZM693 355 q0 120 -74 202 q-74 82 -195 82 q-119 0 -193 -82 q-74 -82 -74 -202 q0 -121 74 -202.5 q74 -81.5 193 -81.5 q121 0 195 81.5 q74 81.5 74 202.5 Z" /><glyph glyph-name="P" unicode="p" d="M86 0 l0 708 l216 0 q119 0 186 -48.5 q67 -48.5 67 -148.5 q0 -102 -70.5 -151 q-70.5 -49 -187.5 -49 l-112 0 l0 -311 l-99 0 ZM185 624 l0 -229 l105 0 q165 0 165 116 q0 113 -163 113 l-107 0 Z" /><glyph glyph-name="Q" unicode="q" d="M834 83 l0 -83 l-416 0 q-163 0 -265.5 99.5 q-102.5 99.5 -102.5 263.5 q0 159 104.5 261 q104.5 102 264.5 102 q158 0 262 -102 q104 -102 104 -261 q0 -92 -39.5 -164 q-39.5 -72 -106.5 -114 l0 -2 l195 0 ZM157 363 q0 -119 72 -197.5 q72 -78.5 189 -78.5 q115 0 188 79 q73 79 73 197 q0 117 -71.5 196.5 q-71.5 79.5 -188.5 79.5 q-117 0 -189.5 -80 q-72.5 -80 -72.5 -196 Z" /><glyph glyph-name="R" unicode="r" d="M185 315 l0 -315 l-99 0 l0 708 l227 0 q112 0 182 -47 q70 -47 70 -149 q0 -76 -47 -125 q-47 -49 -125 -62 l198 -325 l-120 0 l-180 315 l-106 0 ZM185 624 l0 -226 l114 0 q166 0 166 114 q0 112 -159 112 l-121 0 Z" /><glyph glyph-name="S" unicode="s" d="M508 645 l-70 -68 q-22 30 -58.5 48 q-36.5 18 -79.5 18 q-54 0 -96 -29.5 q-42 -29.5 -42 -85.5 q0 -28 10 -47.5 q10 -19.5 34 -34 q24 -14.5 43 -22 q19 -7.5 58 -20.5 q39 -12 59.5 -19.5 q20.5 -7.5 53.5 -25.5 q33 -18 50.5 -37.5 q17.5 -19.5 31 -51.5 q13.5 -32 13.5 -73 q0 -104 -71.5 -159.5 q-71.5 -55.5 -173.5 -55.5 q-69 0 -131.5 26.5 q-62.5 26.5 -101.5 76.5 l77 65 q25 -37 67.5 -60 q42.5 -23 90.5 -23 q56 0 99 31.5 q43 31.5 43 89.5 q0 25 -10 45 q-10 20 -22 32 q-12 12 -39 24.5 q-27 12.5 -43.5 18.5 q-16.5 6 -53.5 17 q-40 13 -67.5 25.5 q-27.5 12.5 -57 35 q-29.5 22.5 -44.5 57.5 q-15 35 -15 81 q0 67 37 114.5 q37 47.5 90.5 67.5 q53.5 20 115.5 20 q61 0 115.5 -22 q54.5 -22 87.5 -59 Z" /><glyph glyph-name="T" unicode="t" d="M334 621 l0 -621 l-99 0 l0 621 l-227 0 l0 87 l553 0 l0 -87 l-227 0 Z" /><glyph glyph-name="U" unicode="u" d="M560 63.5 q-71 -81.5 -204 -81.5 q-133 0 -204 81.5 q-71 81.5 -71 198.5 l0 446 l99 0 l0 -440 q0 -83 42.5 -140 q42.5 -57 133.5 -57 q91 0 133.5 57 q42.5 57 42.5 140 l0 440 l99 0 l0 -446 q0 -117 -71 -198.5 Z" /><glyph glyph-name="V" unicode="v" d="M108 708 l213 -580 l3 0 l213 580 l107 0 l-278 -708 l-92 0 l-276 708 l110 0 Z" /><glyph glyph-name="W" unicode="w" d="M117 708 l156 -564 l2 0 l166 564 l109 0 l165 -564 l2 0 l156 564 l105 0 l-208 -708 l-103 0 l-172 569 l-2 0 l-172 -569 l-103 0 l-208 708 l107 0 Z" /><glyph glyph-name="X" unicode="x" d="M164 708 l170 -264 l168 264 l116 0 l-226 -335 l257 -373 l-125 0 l-194 298 l-190 -298 l-122 0 l253 375 l-228 333 l121 0 Z" /><glyph glyph-name="Y" unicode="y" d="M362 306 l0 -306 l-100 0 l0 306 l-265 402 l122 0 l196 -320 l197 320 l115 0 l-265 -402 Z" /><glyph glyph-name="Z" unicode="z" d="M553 708 l0 -87 l-400 -533 l406 0 l0 -88 l-526 0 l0 87 l399 534 l-391 0 l0 87 l512 0 Z" /><glyph glyph-name="bracketleft" unicode="[" d="M236 732 l0 -66 l-93 0 l0 -756 l93 0 l0 -66 l-177 0 l0 888 l177 0 Z" /><glyph glyph-name="backslash" unicode="\" d="M311 -33 l-307 749 l70 26 l308 -751 l-71 -24 Z" /><glyph glyph-name="bracketright" unicode="]" d="M79 -156 l0 66 l93 0 l0 756 l-93 0 l0 66 l177 0 l0 -888 l-177 0 Z" /><glyph glyph-name="asciicircum" unicode="^" d="M74 309 l226 399 l66 0 l226 -399 l-91 0 l-169 300 l-167 -300 l-91 0 Z" /><glyph glyph-name="underscore" unicode="_" d="M0 -138 l0 63 l500 0 l0 -63 l-500 0 Z" /><glyph glyph-name="grave" unicode="`" d="M102 564 l-136 144 l113 0 l100 -144 l-77 0 Z" /><glyph glyph-name="a" unicode="a" d="M376 294 l0 13 q0 51 -31.5 77.5 q-31.5 26.5 -85.5 26.5 q-80 0 -135 -55 l-50 60 q74 71 194 71 q98 0 148 -51.5 q50 -51.5 50 -134.5 l0 -207 q0 -62 7 -94 l-85 0 q-8 34 -8 68 l-3 0 q-53 -80 -159 -80 q-30 0 -59 8 q-29 8 -55 24 q-26 16 -42 45.5 q-16 29.5 -16 68.5 q0 41 19.5 71.5 q19.5 30.5 49.5 47 q30 16.5 76.5 26 q46.5 9.5 88 12.5 q41.5 3 96.5 3 ZM376 226 l-23 0 q-211 0 -211 -90 q0 -39 28 -56.5 q28 -17.5 69 -17.5 q64 0 100.5 38.5 q36.5 38.5 36.5 100.5 l0 25 Z" /><glyph glyph-name="b" unicode="b" d="M176 75 l-2 0 l0 -75 l-91 0 l0 756 l94 0 l0 -353 l3 0 q26 37 70 60.5 q44 23.5 99 23.5 q104 0 170.5 -71.5 q66.5 -71.5 66.5 -177.5 q0 -107 -66 -179 q-66 -72 -173 -72 q-51 0 -97.5 23 q-46.5 23 -73.5 65 ZM447 116.5 q42 50.5 42 121.5 q0 71 -42 121 q-42 50 -116 50 q-70 0 -115 -51 q-45 -51 -45 -121 q0 -70 45 -120.5 q45 -50.5 115 -50.5 q74 0 116 50.5 Z" /><glyph glyph-name="c" unicode="c" d="M481 409 l-68 -55 q-15 24 -45.5 39 q-30.5 15 -63.5 15 q-71 0 -113 -50 q-42 -50 -42 -121 q0 -71 42.5 -121 q42.5 -50 113.5 -50 q73 0 114 52 l63 -57 q-64 -74 -177 -74 q-111 0 -183 69 q-72 69 -72 181 q0 111 71.5 180.5 q71.5 69.5 181.5 69.5 q52 0 101 -20.5 q49 -20.5 77 -57.5 Z" /><glyph glyph-name="d" unicode="d" d="M459 75 q-26 -42 -72.5 -65 q-46.5 -23 -98.5 -23 q-107 0 -173 72 q-66 72 -66 179 q0 107 66.5 178 q66.5 71 171.5 71 q55 0 98.5 -23.5 q43.5 -23.5 70.5 -60.5 l2 0 l0 353 l94 0 l0 -756 l-91 0 l0 75 l-2 0 ZM188.5 359 q-41.5 -50 -41.5 -121 q0 -71 41.5 -121.5 q41.5 -50.5 115.5 -50.5 q70 0 115 50.5 q45 50.5 45 120.5 q0 70 -45 121 q-45 51 -115 51 q-74 0 -115.5 -50 Z" /><glyph glyph-name="e" unicode="e" d="M146 279 l282 0 q-2 59 -36 96.5 q-34 37.5 -97 37.5 q-60 0 -102 -39 q-42 -39 -47 -95 ZM523 241 q0 -21 -1 -32 l-376 0 q2 -61 47 -102.5 q45 -41.5 107 -41.5 q89 0 138 72 l66 -53 q-75 -97 -204 -97 q-109 0 -179.5 69 q-70.5 69 -70.5 180 q0 110 70 180.5 q70 70.5 175 70.5 q105 0 166.5 -66.5 q61.5 -66.5 61.5 -179.5 Z" /><glyph glyph-name="f" unicode="f" d="M304 474 l0 -77 l-110 0 l0 -397 l-94 0 l0 397 l-94 0 l0 77 l94 0 l0 99 q0 89 43 142 q43 53 134 53 q34 0 59 -7 l-11 -81 q-24 7 -47 7 q-84 0 -84 -114 l0 -99 l110 0 Z" /><glyph glyph-name="g" unicode="g" d="M58 -154 l60 73 q31 -35 78 -56 q47 -21 95 -21 q167 0 167 175 l0 61 l-2 0 q-26 -39 -71 -60.5 q-45 -21.5 -96 -21.5 q-107 0 -173 70 q-66 70 -66 174 q0 105 66 176 q66 71 172 71 q53 0 99 -23 q46 -23 72 -66 l2 0 l0 76 l91 0 l0 -450 q0 -54 -13.5 -99.5 q-13.5 -45.5 -43 -83.5 q-29.5 -38 -82 -59.5 q-52.5 -21.5 -123.5 -21.5 q-62 0 -125 23 q-63 23 -107 63 ZM147 242 q0 -69 43 -118 q43 -49 114 -49 q72 0 116.5 47.5 q44.5 47.5 44.5 119.5 q0 69 -45.5 118 q-45.5 49 -115.5 49 q-72 0 -114.5 -48 q-42.5 -48 -42.5 -119 Z" /><glyph glyph-name="h" unicode="h" d="M177 402 l2 0 q17 36 58.5 60.5 q41.5 24.5 91.5 24.5 q87 0 132 -54 q45 -54 45 -139 l0 -294 l-94 0 l0 262 q0 145 -107 145 q-56 0 -92 -43 q-36 -43 -36 -113 l0 -251 l-94 0 l0 756 l94 0 l0 -354 Z" /><glyph glyph-name="i" unicode="i" d="M176 474 l0 -474 l-94 0 l0 474 l94 0 ZM192 645 q0 -25 -18.5 -42.5 q-18.5 -17.5 -44.5 -17.5 q-26 0 -44 17.5 q-18 17.5 -18 42.5 q0 25 18 43 q18 18 44 18 q26 0 44.5 -17.5 q18.5 -17.5 18.5 -43.5 Z" /><glyph glyph-name="j" unicode="j" d="M-31 -234 l10 80 q20 -5 38 -5 q39 0 52.5 26 q13.5 26 13.5 75 l0 532 l94 0 l0 -535 q0 -179 -154 -179 q-24 0 -54 6 ZM193 645 q0 -25 -18.5 -42.5 q-18.5 -17.5 -44.5 -17.5 q-26 0 -44.5 17.5 q-18.5 17.5 -18.5 42.5 q0 25 18.5 43 q18.5 18 44.5 18 q26 0 44.5 -17.5 q18.5 -17.5 18.5 -43.5 Z" /><glyph glyph-name="k" unicode="k" d="M177 756 l0 -488 l3 0 l199 206 l126 0 l-222 -215 l241 -259 l-130 0 l-214 246 l-3 0 l0 -246 l-94 0 l0 756 l94 0 Z" /><glyph glyph-name="l" unicode="l" d="M177 756 l0 -756 l-94 0 l0 756 l94 0 Z" /><glyph glyph-name="m" unicode="m" d="M173 396 q19 40 59 65.5 q40 25.5 92 25.5 q106 0 147 -95 q24 45 67 70 q43 25 94 25 q87 0 132 -54 q45 -54 45 -139 l0 -294 l-94 0 l0 263 q0 145 -105 145 q-60 0 -90 -45 q-30 -45 -30 -107 l0 -256 l-94 0 l0 282 q0 126 -100 126 q-52 0 -86.5 -43 q-34.5 -43 -34.5 -113 l0 -252 l-94 0 l0 372 q0 61 -4 102 l89 0 q4 -48 4 -78 l3 0 Z" /><glyph glyph-name="n" unicode="n" d="M77 474 l89 0 q4 -48 4 -78 l3 0 q18 39 61 65 q43 26 93 26 q87 0 132 -54 q45 -54 45 -139 l0 -294 l-94 0 l0 263 q0 145 -108 145 q-56 0 -91.5 -43 q-35.5 -43 -35.5 -113 l0 -252 l-94 0 l0 372 q0 61 -4 102 Z" /><glyph glyph-name="o" unicode="o" d="M488 417 q73 -70 73 -179 q0 -109 -73.5 -180 q-73.5 -71 -182.5 -71 q-109 0 -182 71 q-73 71 -73 180 q0 109 72.5 179 q72.5 70 182.5 70 q110 0 183 -70 ZM420.5 116.5 q42.5 50.5 42.5 121.5 q0 71 -42.5 121 q-42.5 50 -115.5 50 q-73 0 -115.5 -50 q-42.5 -50 -42.5 -121 q0 -71 42.5 -121.5 q42.5 -50.5 115.5 -50.5 q73 0 115.5 50.5 Z" /><glyph glyph-name="p" unicode="p" d="M175 71 l0 -311 l-94 0 l0 714 l92 0 l0 -74 l3 0 q24 39 69 63 q45 24 102 24 q104 0 170.5 -71.5 q66.5 -71.5 66.5 -177.5 q0 -107 -66 -179 q-66 -72 -173 -72 q-51 0 -96 22.5 q-45 22.5 -71 61.5 l-3 0 ZM445 116.5 q42 50.5 42 121.5 q0 71 -42 121 q-42 50 -116 50 q-70 0 -115 -51 q-45 -51 -45 -121 q0 -70 45 -120.5 q45 -50.5 115 -50.5 q74 0 116 50.5 Z" /><glyph glyph-name="q" unicode="q" d="M458 71 l-2 0 q-26 -39 -71.5 -61.5 q-45.5 -22.5 -96.5 -22.5 q-107 0 -173 72 q-66 72 -66 179 q0 107 66.5 178 q66.5 71 171.5 71 q56 0 101 -24 q45 -24 70 -63 l3 0 l0 74 l91 0 l0 -714 l-94 0 l0 311 ZM188.5 359 q-41.5 -50 -41.5 -121 q0 -71 41.5 -121.5 q41.5 -50.5 115.5 -50.5 q70 0 115 50.5 q45 50.5 45 120.5 q0 70 -45 121 q-45 51 -115 51 q-74 0 -115.5 -50 Z" /><glyph glyph-name="r" unicode="r" d="M81 372 q0 61 -4 102 l89 0 q4 -48 4 -80 l3 0 q20 42 59 67.5 q39 25.5 86 25.5 q22 0 37 -4 l-4 -87 q-20 5 -43 5 q-64 0 -98.5 -44 q-34.5 -44 -34.5 -108 l0 -249 l-94 0 l0 372 Z" /><glyph glyph-name="s" unicode="s" d="M402 409 l-65 -55 q-16 26 -45.5 42.5 q-29.5 16.5 -64.5 16.5 q-36 0 -62 -15.5 q-26 -15.5 -26 -46.5 q0 -28 25 -43 q25 -15 83 -28 q159 -35 159 -140 q0 -78 -54.5 -115.5 q-54.5 -37.5 -134.5 -37.5 q-56 0 -107 22 q-51 22 -84 63 l67 57 q19 -29 53.5 -47.5 q34.5 -18.5 72.5 -18.5 q40 0 67 16.5 q27 16.5 27 52.5 q0 31 -28.5 47 q-28.5 16 -95.5 32 q-28 7 -49 15 q-21 8 -43 22.5 q-22 14.5 -34 38 q-12 23.5 -12 55.5 q0 72 52.5 108.5 q52.5 36.5 126.5 36.5 q52 0 99.5 -20.5 q47.5 -20.5 72.5 -57.5 Z" /><glyph glyph-name="t" unicode="t" d="M313 474 l0 -77 l-126 0 l0 -247 q0 -43 16 -61.5 q16 -18.5 51 -18.5 q31 0 55 12 l3 -77 q-36 -13 -80 -13 q-67 0 -102.5 37.5 q-35.5 37.5 -35.5 110.5 l0 257 l-91 0 l0 77 l91 0 l0 136 l93 0 l0 -136 l126 0 Z" /><glyph glyph-name="u" unicode="u" d="M504 0 l-89 0 q-4 48 -4 78 l-2 0 q-19 -39 -62 -65 q-43 -26 -93 -26 q-87 0 -132 54 q-45 54 -45 139 l0 294 l94 0 l0 -262 q0 -146 108 -146 q57 0 92 43 q35 43 35 113 l0 252 l94 0 l0 -372 q0 -61 4 -102 Z" /><glyph glyph-name="v" unicode="v" d="M494 474 l-190 -474 l-102 0 l-193 474 l104 0 l139 -373 l2 0 l140 373 l100 0 Z" /><glyph glyph-name="w" unicode="w" d="M14 474 l102 0 l107 -362 l2 0 l113 362 l99 0 l115 -362 l2 0 l107 362 l99 0 l-157 -474 l-98 0 l-117 356 l-2 0 l-116 -356 l-98 0 l-158 474 Z" /><glyph glyph-name="x" unicode="x" d="M7 0 l190 249 l-173 225 l116 0 l116 -163 l117 163 l110 0 l-171 -224 l191 -250 l-117 0 l-132 185 l-134 -185 l-113 0 Z" /><glyph glyph-name="y" unicode="y" d="M114 474 l147 -372 l2 0 l131 372 l100 0 l-230 -586 q-25 -65 -61.5 -96.5 q-36.5 -31.5 -102.5 -31.5 q-33 0 -62 7 l9 83 q24 -8 47 -8 q34 0 53 18.5 q19 18.5 35 60.5 l30 79 l-203 474 l105 0 Z" /><glyph glyph-name="z" unicode="z" d="M419 474 l0 -77 l-270 -318 l281 0 l0 -79 l-397 0 l0 77 l268 320 l-255 0 l0 77 l373 0 Z" /><glyph glyph-name="braceleft" unicode="{" d="M5 251 l0 74 q32 0 53 22.5 q21 22.5 21 67.5 l0 188 q0 65 33.5 97 q33.5 32 84.5 32 l68 0 l0 -69 l-51 0 q-51 0 -51 -72 l0 -183 q0 -57 -31 -85.5 q-31 -28.5 -62 -33.5 l0 -2 q13 -1 26.5 -7 q13.5 -6 29.5 -19 q16 -13 26.5 -38 q10.5 -25 10.5 -58 l0 -180 q0 -72 51 -72 l51 0 l0 -69 l-68 0 q-51 0 -84.5 32 q-33.5 32 -33.5 97 l0 184 q0 47 -21 70.5 q-21 23.5 -53 23.5 Z" /><glyph glyph-name="bar" unicode="|" d="M70 750 l82 0 l0 -1000 l-82 0 l0 1000 Z" /><glyph glyph-name="braceright" unicode="}" d="M310 251 q-32 0 -53 -23.5 q-21 -23.5 -21 -70.5 l0 -184 q0 -65 -33.5 -97 q-33.5 -32 -84.5 -32 l-68 0 l0 69 l52 0 q50 0 50 72 l0 180 q0 62 31 90.5 q31 28.5 63 31.5 l0 2 q-32 5 -63 33.5 q-31 28.5 -31 85.5 l0 183 q0 72 -50 72 l-52 0 l0 69 l68 0 q51 0 84.5 -32 q33.5 -32 33.5 -97 l0 -188 q0 -45 21 -67.5 q21 -22.5 53 -22.5 l0 -74 Z" /><glyph glyph-name="asciitilde" unicode="~" d="M340 346 q38 -24 57.5 -31.5 q19.5 -7.5 41.5 -7.5 q50 0 87 68 l59 -55 q-58 -97 -144 -97 q-54 0 -116 38 q-37 23 -56.5 30.5 q-19.5 7.5 -41.5 7.5 q-50 0 -87 -68 l-59 55 q59 98 144 98 q56 0 115 -38 Z" /><glyph glyph-name="nonbreakingspace" unicode=" " d="" /><glyph glyph-name="exclamdown" unicode="¡" d="M216 -221 l-99 0 l0 501 l99 0 l0 -501 ZM214.5 473.5 q19.5 -19.5 19.5 -46.5 q0 -27 -19.5 -46 q-19.5 -19 -47.5 -19 q-28 0 -47.5 19.5 q-19.5 19.5 -19.5 46.5 q0 26 19.5 45.5 q19.5 19.5 47.5 19.5 q28 0 47.5 -19.5 Z" /><glyph glyph-name="cent" unicode="¢" d="M299 71 l0 332 q-58 -11 -90.5 -56.5 q-32.5 -45.5 -32.5 -109.5 q0 -63 33 -108.5 q33 -45.5 90 -57.5 ZM350 404 l0 -334 q63 1 102 53 l64 -60 q-61 -70 -166 -75 l0 -66 l-51 0 l0 67 q-99 10 -157.5 79 q-58.5 69 -58.5 170 q0 101 58 168 q58 67 158 79 l0 65 l51 0 l0 -64 q107 -5 166 -75 l-66 -60 q-40 50 -100 53 Z" /><glyph glyph-name="sterling" unicode="£" d="M434 397 l0 -72 l-166 0 l0 -241 l263 0 l0 -84 l-461 0 l0 84 l100 0 l0 241 l-97 0 l0 72 l97 0 l0 88 q0 34 7 66.5 q7 32.5 24 64.5 q17 32 42.5 56 q25.5 24 65.5 39 q40 15 90 15 q102 0 165 -60 l-59 -67 q-41 46 -108 46 q-38 0 -65 -16 q-27 -16 -40 -43 q-13 -27 -18.5 -53 q-5.5 -26 -5.5 -54 l0 -82 l166 0 Z" /><glyph glyph-name="currency" unicode="¤" d="M661 465 q48 -63 48 -156 q0 -95 -51 -161 l93 -93 q-27 -29 -56 -56 q-32 30 -96 94 q-64 -47 -153 -47 q-86 0 -154 49 l-98 -96 l-56 56 l95 96 q-49 65 -49 158 q0 87 46 154 l-92 92 l57 56 l93 -92 q67 50 158 50 q91 0 157 -49 q13 14 28.5 29 q15.5 15 34 33.5 q18.5 18.5 28.5 28.5 l57 -56 l-90 -90 ZM446 478 q-72 0 -117.5 -49 q-45.5 -49 -45.5 -120 q0 -72 45 -121.5 q45 -49.5 118 -49.5 q73 0 118.5 49.5 q45.5 49.5 45.5 121.5 q0 71 -45.5 120 q-45.5 49 -118.5 49 Z" /><glyph glyph-name="yen" unicode="¥" d="M80 228 l170 0 l0 91 l-170 0 l0 66 l145 0 l-212 323 l115 0 l174 -294 l170 294 l110 0 l-208 -323 l141 0 l0 -66 l-170 0 l0 -91 l170 0 l0 -66 l-170 0 l0 -162 l-95 0 l0 162 l-170 0 l0 66 Z" /><glyph glyph-name="brokenbar" unicode="¦" d="M70 675 l82 0 l0 -350 l-82 0 l0 350 ZM70 175 l82 0 l0 -350 l-82 0 l0 350 Z" /><glyph glyph-name="section" unicode="§" d="M502 636 l-71 -52 q-15 28 -44.5 46 q-29.5 18 -66.5 18 q-41 0 -70 -20.5 q-29 -20.5 -29 -57.5 q0 -38 29.5 -62 q29.5 -24 98.5 -52 q82 -34 124 -72 q42 -38 42 -101 q0 -43 -24 -78.5 q-24 -35.5 -61 -51.5 q61 -41 61 -120 q0 -83 -60 -127.5 q-60 -44.5 -143 -44.5 q-68 0 -125.5 29 q-57.5 29 -87.5 85 l83 46 q16 -38 52 -58 q36 -20 78 -20 q40 0 72.5 20.5 q32.5 20.5 32.5 63.5 q0 40 -29 61.5 q-29 21.5 -115 58.5 q-40 18 -62 29.5 q-22 11.5 -47 30.5 q-25 19 -36 44 q-11 25 -11 57 q0 49 28 85 q28 36 72 54 q-69 44 -69 117 q0 77 58 119.5 q58 42.5 137 42.5 q61 0 109.5 -24 q48.5 -24 73.5 -66 ZM334 369 l-75 33 q-74 -20 -74 -80 q0 -18 6.5 -32 q6.5 -14 23.5 -26 q17 -12 27.5 -17.5 q10.5 -5.5 37.5 -18.5 l84 -36 q24 8 41.5 29 q17.5 21 17.5 49 q0 20 -7 35.5 q-7 15.5 -21.5 27.5 q-14.5 12 -27 19 q-12.5 7 -33.5 17 Z" /><glyph glyph-name="dieresis" unicode="¨" d="M-34 645 q0 25 18 43 q18 18 44 18 q26 0 44 -17.5 q18 -17.5 18 -43.5 q0 -25 -18 -42.5 q-18 -17.5 -44 -17.5 q-26 0 -44 18 q-18 18 -18 42 ZM160 645 q0 25 18 43 q18 18 44 18 q26 0 44 -17.5 q18 -17.5 18 -43.5 q0 -25 -18 -42.5 q-18 -17.5 -44 -17.5 q-26 0 -44 18 q-18 18 -18 42 Z" /><glyph glyph-name="copyright" unicode="©" d="M20 353 q0 157 111.5 267 q111.5 110 269.5 110 q157 0 268 -110 q111 -110 111 -267 q0 -156 -111 -265.5 q-111 -109.5 -268 -109.5 q-158 0 -269.5 109.5 q-111.5 109.5 -111.5 265.5 ZM80 353 q0 -132 94 -225.5 q94 -93.5 227 -93.5 q132 0 225.5 93.5 q93.5 93.5 93.5 225.5 q0 133 -93.5 227 q-93.5 94 -225.5 94 q-133 0 -227 -94 q-94 -94 -94 -227 ZM573 519 l-58 -46 q-33 44 -98 44 q-66 0 -107.5 -44.5 q-41.5 -44.5 -41.5 -112.5 q0 -71 40 -115 q40 -44 106 -44 q68 0 105 50 l61 -43 q-60 -76 -167 -76 q-101 0 -165.5 63.5 q-64.5 63.5 -64.5 164.5 q0 102 66 163.5 q66 61.5 168 61.5 q45 0 88.5 -17 q43.5 -17 67.5 -49 Z" /><glyph glyph-name="ordfeminine" unicode="ª" d="M247 431 l0 37 l-1 0 q-26 -44 -89 -44 q-41 0 -73.5 21 q-32.5 21 -32.5 67 q0 96 195 96 l0 7 q0 25 -18.5 38.5 q-18.5 13.5 -46.5 13.5 q-44 0 -78 -32 l-36 43 q48 45 120 45 q70 0 98.5 -34.5 q28.5 -34.5 28.5 -85.5 l0 -172 l-67 0 ZM246 550 l0 10 l-16 0 q-108 0 -108 -47 q0 -36 50 -36 q36 0 55 19.5 q19 19.5 19 53.5 Z" /><glyph glyph-name="guillemotleft" unicode="«" d="M247 419 l-115 -175 l116 -175 l-62 -43 l-146 218 l146 217 l61 -42 ZM450 419 l-115 -175 l115 -175 l-61 -43 l-146 218 l146 217 l61 -42 Z" /><glyph glyph-name="logicalnot" unicode="¬" d="M596 426 l0 -287 l-81 0 l0 206 l-445 0 l0 81 l526 0 Z" /><glyph glyph-name="uni00AD" unicode="­" d="M276 284 l0 -80 l-232 0 l0 80 l232 0 Z" /><glyph glyph-name="registered" unicode="®" d="M264 511 l47 0 q14 0 25.5 9.5 q11.5 9.5 11.5 23.5 q0 14 -12 22 q-12 8 -25 8 l-47 0 l0 -63 ZM427 368 l-72 0 l-55 99 l-36 0 l0 -99 l-61 0 l0 256 l110 0 q41 0 69 -19 q28 -19 28 -61 q0 -50 -51 -68 l68 -108 ZM138.5 333.5 q-66.5 65.5 -66.5 159.5 q0 94 66.5 160.5 q66.5 66.5 161.5 66.5 q95 0 161.5 -66.5 q66.5 -66.5 66.5 -160.5 q0 -94 -66.5 -159.5 q-66.5 -65.5 -161.5 -65.5 q-95 0 -161.5 65.5 ZM164 628.5 q-56 -56.5 -56 -135.5 q0 -79 56.5 -135.5 q56.5 -56.5 135.5 -56.5 q79 0 135.5 56.5 q56.5 56.5 56.5 135.5 q0 79 -56 135.5 q-56 56.5 -136 56.5 q-80 0 -136 -56.5 Z" /><glyph glyph-name="macron" unicode="¯" d="M273 664 l0 -67 l-296 0 l0 67 l296 0 Z" /><glyph glyph-name="degree" unicode="°" d="M310 675 q45 -45 45 -110 q0 -65 -45 -109.5 q-45 -44.5 -110 -44.5 q-65 0 -110 44.5 q-45 44.5 -45 109.5 q0 65 45 110 q45 45 110 45 q65 0 110 -45 ZM291 565 q0 38 -26.5 65 q-26.5 27 -64.5 27 q-38 0 -64.5 -27 q-26.5 -27 -26.5 -65 q0 -37 26.5 -64 q26.5 -27 64.5 -27 q38 0 64.5 27 q26.5 27 26.5 64 Z" /><glyph glyph-name="plusminus" unicode="±" d="M70 338 l0 81 l223 0 l0 150 l81 0 l0 -150 l222 0 l0 -81 l-222 0 l0 -147 l-81 0 l0 147 l-223 0 ZM70 40 l0 81 l526 0 l0 -81 l-526 0 Z" /><glyph glyph-name="twosuperior" unicode="²" d="M333 519 l0 -69 l-283 0 l0 67 l164 165 q40 42 40 78 q0 25 -17 40 q-17 15 -43 15 q-27 0 -45 -18.5 q-18 -18.5 -23 -49.5 l-74 10 q8 55 47.5 90.5 q39.5 35.5 94.5 35.5 q58 0 98 -32 q40 -32 40 -91 q0 -38 -18 -67 q-18 -29 -52 -62 l-114 -112 l185 0 Z" /><glyph glyph-name="threesuperior" unicode="³" d="M143 639 l0 62 l27 0 q80 0 80 63 q0 23 -18 38 q-18 15 -43 15 q-46 0 -66 -51 l-68 23 q18 44 54.5 69 q36.5 25 81.5 25 q59 0 97 -30 q38 -30 38 -86 q0 -32 -17.5 -56.5 q-17.5 -24.5 -44.5 -36.5 q32 -10 52.5 -37.5 q20.5 -27.5 20.5 -63.5 q0 -62 -43 -96 q-43 -34 -103 -34 q-114 0 -151 105 l71 22 q20 -60 78 -60 q30 0 51.5 16.5 q21.5 16.5 21.5 48.5 q0 34 -27 49 q-27 15 -65 15 l-27 0 Z" /><glyph glyph-name="acute" unicode="´" d="M284 708 l-136 -144 l-77 0 l100 144 l113 0 Z" /><glyph glyph-name="mu" unicode="µ" d="M562 73 l6 -75 q-30 -6 -58 -6 q-90 0 -95 86 l-2 0 q-19 -39 -56.5 -65 q-37.5 -26 -82.5 -26 q-74 0 -97 40 l-2 0 l0 -267 l-94 0 l0 714 l94 0 l0 -262 q0 -146 108 -146 q57 0 92 43 q35 43 35 113 l0 252 l94 0 l0 -369 q0 -35 32 -35 q12 0 26 3 Z" /><glyph glyph-name="paragraph" unicode="¶" d="M523 708 l0 -834 l-78 0 l0 771 l-115 0 l0 -771 l-79 0 l0 453 q-93 0 -152.5 52.5 q-59.5 52.5 -59.5 131.5 q0 97 61.5 147 q61.5 50 169.5 50 l253 0 Z" /><glyph glyph-name="periodcentered" unicode="·" d="M178.5 349.5 q19.5 -19.5 19.5 -46.5 q0 -27 -19.5 -46.5 q-19.5 -19.5 -47.5 -19.5 q-28 0 -48 19.5 q-20 19.5 -20 45.5 q0 27 19.5 47 q19.5 20 48.5 20 q28 0 47.5 -19.5 Z" /><glyph glyph-name="cedilla" unicode="¸" d="M167 0 l-46 -69 q9 2 27 2 q39 0 66.5 -18.5 q27.5 -18.5 27.5 -59.5 q0 -48 -38 -69 q-38 -21 -89 -21 q-57 0 -103 23 l20 42 q37 -17 77 -17 q22 0 41.5 9.5 q19.5 9.5 19.5 32.5 q0 38 -54 38 q-18 0 -41 -7 l-20 20 l62 94 l50 0 Z" /><glyph glyph-name="onesuperior" unicode="¹" d="M247 876 l0 -426 l-78 0 l0 332 l-68 -59 l-46 51 l125 102 l67 0 Z" /><glyph glyph-name="ordmasculine" unicode="º" d="M342 574 q0 -64 -43 -106 q-43 -42 -109 -42 q-66 0 -109 42 q-43 42 -43 106 q0 65 43 106.5 q43 41.5 109 41.5 q66 0 109 -41.5 q43 -41.5 43 -106.5 ZM267 574 q0 35 -20.5 58.5 q-20.5 23.5 -56.5 23.5 q-36 0 -56 -23.5 q-20 -23.5 -20 -58.5 q0 -34 20 -58 q20 -24 56 -24 q36 0 56.5 24 q20.5 24 20.5 58 Z" /><glyph glyph-name="guillemotright" unicode="»" d="M253 419 l61 42 l146 -217 l-146 -218 l-62 43 l116 175 l-115 175 ZM50 419 l61 42 l146 -217 l-146 -218 l-61 43 l115 175 l-115 175 Z" /><glyph glyph-name="onequarter" unicode="¼" d="M746 426 l0 -268 l59 0 l0 -67 l-59 0 l0 -91 l-71 0 l0 91 l-189 0 l0 64 l177 271 l83 0 ZM675 332 l-3 0 l-109 -174 l112 0 l0 174 ZM247 708 l0 -426 l-78 0 l0 332 l-68 -59 l-46 51 l125 102 l67 0 ZM677 708 l-450 -743 l-58 31 l451 743 l57 -31 Z" /><glyph glyph-name="onehalf" unicode="½" d="M247 708 l0 -426 l-78 0 l0 332 l-68 -59 l-46 51 l125 102 l67 0 ZM811 69 l0 -69 l-283 0 l0 67 l164 165 q40 42 40 78 q0 25 -17 40 q-17 15 -43 15 q-27 0 -45 -18.5 q-18 -18.5 -23 -49.5 l-74 10 q8 55 47.5 90.5 q39.5 35.5 94.5 35.5 q58 0 98 -32 q40 -32 40 -91 q0 -38 -18 -67 q-18 -29 -52 -62 l-114 -112 l185 0 ZM677 708 l-450 -743 l-58 31 l451 743 l57 -31 Z" /><glyph glyph-name="threequarters" unicode="¾" d="M746 426 l0 -268 l59 0 l0 -67 l-59 0 l0 -91 l-71 0 l0 91 l-189 0 l0 64 l177 271 l83 0 ZM675 332 l-3 0 l-109 -174 l112 0 l0 174 ZM677 708 l-450 -743 l-58 31 l451 743 l57 -31 ZM143 476 l0 62 l27 0 q80 0 80 63 q0 23 -18 38 q-18 15 -43 15 q-46 0 -66 -51 l-68 23 q18 44 54.5 69 q36.5 25 81.5 25 q59 0 97 -30 q38 -30 38 -86 q0 -32 -17.5 -56.5 q-17.5 -24.5 -44.5 -36.5 q32 -10 52.5 -37.5 q20.5 -27.5 20.5 -63.5 q0 -62 -43 -96 q-43 -34 -103 -34 q-114 0 -151 105 l71 22 q20 -60 78 -60 q30 0 51.5 16.5 q21.5 16.5 21.5 48.5 q0 34 -27 49 q-27 15 -65 15 l-27 0 Z" /><glyph glyph-name="questiondown" unicode="¿" d="M205 251 l0 35 l94 0 l0 -48 q0 -49 -17.5 -81.5 q-17.5 -32.5 -55.5 -67.5 l-37 -35 q-51 -44 -51 -99 q0 -48 30.5 -76.5 q30.5 -28.5 78.5 -28.5 q48 0 79 31.5 q31 31.5 36 78.5 l96 -11 q-13 -85 -72 -135 q-59 -50 -145 -50 q-87 0 -145 49 q-58 49 -58 136 q0 58 22.5 93 q22.5 35 73.5 78 q43 37 57 60.5 q14 23.5 14 70.5 ZM199.5 381 q-19.5 19 -19.5 46 q0 27 19.5 46.5 q19.5 19.5 47.5 19.5 q28 0 47.5 -19.5 q19.5 -19.5 19.5 -45.5 q0 -27 -19.5 -46.5 q-19.5 -19.5 -47.5 -19.5 q-28 0 -47.5 19 Z" /><glyph glyph-name="Agrave" unicode="à" d="M186 174 l-71 -174 l-110 0 l307 708 l90 0 l304 -708 l-112 0 l-72 174 l-336 0 ZM354 593 l-133 -332 l265 0 l-132 332 ZM320 764 l-137 144 l114 0 l100 -144 l-77 0 Z" /><glyph glyph-name="Aacute" unicode="á" d="M186 174 l-71 -174 l-110 0 l307 708 l90 0 l304 -708 l-112 0 l-72 174 l-336 0 ZM354 593 l-133 -332 l265 0 l-132 332 ZM535 908 l-137 -144 l-76 0 l99 144 l114 0 Z" /><glyph glyph-name="Acircumflex" unicode="â" d="M186 174 l-71 -174 l-110 0 l307 708 l90 0 l304 -708 l-112 0 l-72 174 l-336 0 ZM354 593 l-133 -332 l265 0 l-132 332 ZM413 908 l112 -144 l-91 0 l-75 99 l-76 -99 l-90 0 l112 144 l108 0 Z" /><glyph glyph-name="Atilde" unicode="ã" d="M186 174 l-71 -174 l-110 0 l307 708 l90 0 l304 -708 l-112 0 l-72 174 l-336 0 ZM354 593 l-133 -332 l265 0 l-132 332 ZM240 772 l-55 0 q20 116 102 116 q33 0 75 -20 q48 -22 67 -22 q34 0 48 46 l54 0 q-20 -116 -102 -116 q-31 0 -77 21 q-42 21 -65 21 q-35 0 -47 -46 Z" /><glyph glyph-name="Adieresis" unicode="ä" d="M186 174 l-71 -174 l-110 0 l307 708 l90 0 l304 -708 l-112 0 l-72 174 l-336 0 ZM354 593 l-133 -332 l265 0 l-132 332 ZM198 845 q0 25 18 43 q18 18 44 18 q26 0 44 -17.5 q18 -17.5 18 -43.5 q0 -25 -18 -42.5 q-18 -17.5 -44 -17.5 q-26 0 -44 18 q-18 18 -18 42 ZM392 845 q0 25 18 43 q18 18 44 18 q26 0 44 -17.5 q18 -17.5 18 -43.5 q0 -25 -18 -42.5 q-18 -17.5 -44 -17.5 q-26 0 -44 18 q-18 18 -18 42 Z" /><glyph glyph-name="Aring" unicode="å" d="M186 174 l-71 -174 l-110 0 l307 708 l90 0 l304 -708 l-112 0 l-72 174 l-336 0 ZM354 593 l-133 -332 l265 0 l-132 332 ZM429.5 923 q29.5 -28 29.5 -70 q0 -42 -29.5 -70.5 q-29.5 -28.5 -71.5 -28.5 q-42 0 -71 28 q-29 28 -29 70 q0 42 29 70.5 q29 28.5 71 28.5 q42 0 71.5 -28 ZM400.5 811.5 q17.5 16.5 17.5 41.5 q0 25 -17.5 41.5 q-17.5 16.5 -42.5 16.5 q-25 0 -42 -17 q-17 -17 -17 -42 q0 -24 17 -40.5 q17 -16.5 42 -16.5 q25 0 42.5 16.5 Z" /><glyph glyph-name="AE" unicode="æ" d="M623 324 l0 -236 l346 0 l0 -88 l-445 0 l0 192 l-283 0 l-121 -192 l-118 0 l457 708 l495 0 l0 -87 l-331 0 l0 -212 l310 0 l0 -85 l-310 0 ZM293 278 l231 0 l0 343 l-14 0 l-217 -343 Z" /><glyph glyph-name="Ccedilla" unicode="ç" d="M614 164 l79 -54 q-89 -121 -256 -127 l-34 -52 q9 2 27 2 q39 0 66.5 -18.5 q27.5 -18.5 27.5 -59.5 q0 -48 -38 -69 q-38 -21 -89 -21 q-57 0 -103 23 l20 42 q37 -17 77 -17 q22 0 41.5 9.5 q19.5 9.5 19.5 32.5 q0 38 -54 38 q-18 0 -41 -7 l-20 20 l51 78 q-150 12 -244 114.5 q-94 102.5 -94 256.5 q0 164 107 267.5 q107 103.5 270 103.5 q76 0 146 -29 q70 -29 108 -81 l-78 -60 q-26 37 -74 60 q-48 23 -102 23 q-120 0 -194.5 -82 q-74.5 -82 -74.5 -202 q0 -122 73 -203.5 q73 -81.5 193 -81.5 q125 0 190 94 Z" /><glyph glyph-name="Egrave" unicode="è" d="M185 324 l0 -236 l370 0 l0 -88 l-469 0 l0 708 l454 0 l0 -87 l-355 0 l0 -212 l334 0 l0 -85 l-334 0 ZM313 764 l-137 144 l114 0 l100 -144 l-77 0 Z" /><glyph glyph-name="Eacute" unicode="é" d="M185 324 l0 -236 l370 0 l0 -88 l-469 0 l0 708 l454 0 l0 -87 l-355 0 l0 -212 l334 0 l0 -85 l-334 0 ZM475 908 l-137 -144 l-76 0 l99 144 l114 0 Z" /><glyph glyph-name="Ecircumflex" unicode="ê" d="M185 324 l0 -236 l370 0 l0 -88 l-469 0 l0 708 l454 0 l0 -87 l-355 0 l0 -212 l334 0 l0 -85 l-334 0 ZM372 908 l112 -144 l-91 0 l-75 99 l-76 -99 l-90 0 l112 144 l108 0 Z" /><glyph glyph-name="Edieresis" unicode="ë" d="M185 324 l0 -236 l370 0 l0 -88 l-469 0 l0 708 l454 0 l0 -87 l-355 0 l0 -212 l334 0 l0 -85 l-334 0 ZM158 845 q0 25 18 43 q18 18 44 18 q26 0 44 -17.5 q18 -17.5 18 -43.5 q0 -25 -18 -42.5 q-18 -17.5 -44 -17.5 q-26 0 -44 18 q-18 18 -18 42 ZM352 845 q0 25 18 43 q18 18 44 18 q26 0 44 -17.5 q18 -17.5 18 -43.5 q0 -25 -18 -42.5 q-18 -17.5 -44 -17.5 q-26 0 -44 18 q-18 18 -18 42 Z" /><glyph glyph-name="Igrave" unicode="ì" d="M185 708 l0 -708 l-99 0 l0 708 l99 0 ZM109 764 l-137 144 l114 0 l100 -144 l-77 0 Z" /><glyph glyph-name="Iacute" unicode="í" d="M185 708 l0 -708 l-99 0 l0 708 l99 0 ZM298 908 l-137 -144 l-76 0 l99 144 l114 0 Z" /><glyph glyph-name="Icircumflex" unicode="î" d="M185 708 l0 -708 l-99 0 l0 708 l99 0 ZM188 908 l112 -144 l-91 0 l-75 99 l-76 -99 l-90 0 l112 144 l108 0 Z" /><glyph glyph-name="Idieresis" unicode="ï" d="M185 708 l0 -708 l-99 0 l0 708 l99 0 ZM-23 845 q0 25 18 43 q18 18 44 18 q26 0 44 -17.5 q18 -17.5 18 -43.5 q0 -25 -18 -42.5 q-18 -17.5 -44 -17.5 q-26 0 -44 18 q-18 18 -18 42 ZM171 845 q0 25 18 43 q18 18 44 18 q26 0 44 -17.5 q18 -17.5 18 -43.5 q0 -25 -18 -42.5 q-18 -17.5 -44 -17.5 q-26 0 -44 18 q-18 18 -18 42 Z" /><glyph glyph-name="Eth" unicode="ð" d="M82 0 l0 335 l-69 0 l0 70 l69 0 l0 303 l258 0 q69 0 133.5 -22.5 q64.5 -22.5 117 -65 q52.5 -42.5 84 -111.5 q31.5 -69 31.5 -155 q0 -86 -33.5 -155.5 q-33.5 -69.5 -88.5 -111.5 q-55 -42 -120 -64.5 q-65 -22.5 -132 -22.5 l-250 0 ZM182 335 l0 -245 l117 0 q139 0 220 72 q81 72 81 192 q0 121 -77 192.5 q-77 71.5 -214 71.5 l-127 0 l0 -213 l237 0 l0 -70 l-237 0 Z" /><glyph glyph-name="Ntilde" unicode="ñ" d="M215 708 l370 -566 l2 0 l0 566 l99 0 l0 -708 l-125 0 l-374 578 l-2 0 l0 -578 l-99 0 l0 708 l129 0 ZM266 772 l-55 0 q20 116 102 116 q33 0 75 -20 q48 -22 67 -22 q34 0 48 46 l54 0 q-20 -116 -102 -116 q-31 0 -77 21 q-42 21 -65 21 q-35 0 -47 -46 Z" /><glyph glyph-name="Ograve" unicode="ò" d="M800 355 q0 -163 -106.5 -268 q-106.5 -105 -269.5 -105 q-162 0 -268 105 q-106 105 -106 268 q0 164 105.5 267.5 q105.5 103.5 268.5 103.5 q163 0 269.5 -103.5 q106.5 -103.5 106.5 -267.5 ZM693 355 q0 120 -74 202 q-74 82 -195 82 q-119 0 -193 -82 q-74 -82 -74 -202 q0 -121 74 -202.5 q74 -81.5 193 -81.5 q121 0 195 81.5 q74 81.5 74 202.5 ZM409 764 l-137 144 l114 0 l100 -144 l-77 0 Z" /><glyph glyph-name="Oacute" unicode="ó" d="M800 355 q0 -163 -106.5 -268 q-106.5 -105 -269.5 -105 q-162 0 -268 105 q-106 105 -106 268 q0 164 105.5 267.5 q105.5 103.5 268.5 103.5 q163 0 269.5 -103.5 q106.5 -103.5 106.5 -267.5 ZM693 355 q0 120 -74 202 q-74 82 -195 82 q-119 0 -193 -82 q-74 -82 -74 -202 q0 -121 74 -202.5 q74 -81.5 193 -81.5 q121 0 195 81.5 q74 81.5 74 202.5 ZM584 908 l-137 -144 l-76 0 l99 144 l114 0 Z" /><glyph glyph-name="Ocircumflex" unicode="ô" d="M800 355 q0 -163 -106.5 -268 q-106.5 -105 -269.5 -105 q-162 0 -268 105 q-106 105 -106 268 q0 164 105.5 267.5 q105.5 103.5 268.5 103.5 q163 0 269.5 -103.5 q106.5 -103.5 106.5 -267.5 ZM693 355 q0 120 -74 202 q-74 82 -195 82 q-119 0 -193 -82 q-74 -82 -74 -202 q0 -121 74 -202.5 q74 -81.5 193 -81.5 q121 0 195 81.5 q74 81.5 74 202.5 ZM478 908 l112 -144 l-91 0 l-75 99 l-76 -99 l-90 0 l112 144 l108 0 Z" /><glyph glyph-name="Otilde" unicode="õ" d="M800 355 q0 -163 -106.5 -268 q-106.5 -105 -269.5 -105 q-162 0 -268 105 q-106 105 -106 268 q0 164 105.5 267.5 q105.5 103.5 268.5 103.5 q163 0 269.5 -103.5 q106.5 -103.5 106.5 -267.5 ZM693 355 q0 120 -74 202 q-74 82 -195 82 q-119 0 -193 -82 q-74 -82 -74 -202 q0 -121 74 -202.5 q74 -81.5 193 -81.5 q121 0 195 81.5 q74 81.5 74 202.5 ZM306 772 l-55 0 q20 116 102 116 q33 0 75 -20 q48 -22 67 -22 q34 0 48 46 l54 0 q-20 -116 -102 -116 q-31 0 -77 21 q-42 21 -65 21 q-35 0 -47 -46 Z" /><glyph glyph-name="Odieresis" unicode="ö" d="M800 355 q0 -163 -106.5 -268 q-106.5 -105 -269.5 -105 q-162 0 -268 105 q-106 105 -106 268 q0 164 105.5 267.5 q105.5 103.5 268.5 103.5 q163 0 269.5 -103.5 q106.5 -103.5 106.5 -267.5 ZM693 355 q0 120 -74 202 q-74 82 -195 82 q-119 0 -193 -82 q-74 -82 -74 -202 q0 -121 74 -202.5 q74 -81.5 193 -81.5 q121 0 195 81.5 q74 81.5 74 202.5 ZM265 845 q0 25 18 43 q18 18 44 18 q26 0 44 -17.5 q18 -17.5 18 -43.5 q0 -25 -18 -42.5 q-18 -17.5 -44 -17.5 q-26 0 -44 18 q-18 18 -18 42 ZM459 845 q0 25 18 43 q18 18 44 18 q26 0 44 -17.5 q18 -17.5 18 -43.5 q0 -25 -18 -42.5 q-18 -17.5 -44 -17.5 q-26 0 -44 18 q-18 18 -18 42 Z" /><glyph glyph-name="multiply" unicode="×" d="M162 531 l171 -171 l170 171 l57 -56 l-170 -171 l172 -173 l-59 -58 l-171 170 l-170 -170 l-58 58 l172 170 l-171 174 l57 56 Z" /><glyph glyph-name="Oslash" unicode="ø" d="M778 703 l-79 -86 q101 -103 101 -262 q0 -162 -106.5 -266.5 q-106.5 -104.5 -269.5 -106.5 q-140 0 -238 79 l-81 -87 l-43 39 l81 88 q-93 99 -93 254 q0 164 105.5 267.5 q105.5 103.5 268.5 103.5 q134 0 230 -71 l81 87 l43 -39 ZM211 174 l381 411 q-64 55 -168 55 q-122 0 -196 -82 q-74 -82 -74 -203 q0 -109 57 -181 ZM634 544 l-383 -414 q69 -61 173 -61 q122 0 197 82 q75 82 75 204 q0 113 -62 189 Z" /><glyph glyph-name="Ugrave" unicode="ù" d="M560 63.5 q-71 -81.5 -204 -81.5 q-133 0 -204 81.5 q-71 81.5 -71 198.5 l0 446 l99 0 l0 -440 q0 -83 42.5 -140 q42.5 -57 133.5 -57 q91 0 133.5 57 q42.5 57 42.5 140 l0 440 l99 0 l0 -446 q0 -117 -71 -198.5 ZM323 764 l-137 144 l114 0 l100 -144 l-77 0 Z" /><glyph glyph-name="Uacute" unicode="ú" d="M560 63.5 q-71 -81.5 -204 -81.5 q-133 0 -204 81.5 q-71 81.5 -71 198.5 l0 446 l99 0 l0 -440 q0 -83 42.5 -140 q42.5 -57 133.5 -57 q91 0 133.5 57 q42.5 57 42.5 140 l0 440 l99 0 l0 -446 q0 -117 -71 -198.5 ZM508 908 l-137 -144 l-76 0 l99 144 l114 0 Z" /><glyph glyph-name="Ucircumflex" unicode="û" d="M560 63.5 q-71 -81.5 -204 -81.5 q-133 0 -204 81.5 q-71 81.5 -71 198.5 l0 446 l99 0 l0 -440 q0 -83 42.5 -140 q42.5 -57 133.5 -57 q91 0 133.5 57 q42.5 57 42.5 140 l0 440 l99 0 l0 -446 q0 -117 -71 -198.5 ZM408 908 l112 -144 l-91 0 l-75 99 l-76 -99 l-90 0 l112 144 l108 0 Z" /><glyph glyph-name="Udieresis" unicode="ü" d="M560 63.5 q-71 -81.5 -204 -81.5 q-133 0 -204 81.5 q-71 81.5 -71 198.5 l0 446 l99 0 l0 -440 q0 -83 42.5 -140 q42.5 -57 133.5 -57 q91 0 133.5 57 q42.5 57 42.5 140 l0 440 l99 0 l0 -446 q0 -117 -71 -198.5 ZM197 845 q0 25 18 43 q18 18 44 18 q26 0 44 -17.5 q18 -17.5 18 -43.5 q0 -25 -18 -42.5 q-18 -17.5 -44 -17.5 q-26 0 -44 18 q-18 18 -18 42 ZM391 845 q0 25 18 43 q18 18 44 18 q26 0 44 -17.5 q18 -17.5 18 -43.5 q0 -25 -18 -42.5 q-18 -17.5 -44 -17.5 q-26 0 -44 18 q-18 18 -18 42 Z" /><glyph glyph-name="Yacute" unicode="ý" d="M362 306 l0 -306 l-100 0 l0 306 l-265 402 l122 0 l196 -320 l197 320 l115 0 l-265 -402 ZM482 908 l-137 -144 l-76 0 l99 144 l114 0 Z" /><glyph glyph-name="Thorn" unicode="þ" d="M86 0 l0 708 l99 0 l0 -146 l117 0 q118 0 185.5 -50 q67.5 -50 67.5 -147 q0 -103 -70 -151.5 q-70 -48.5 -188 -48.5 l-112 0 l0 -165 l-99 0 ZM185 477 l0 -227 l102 0 q165 0 165 114 q0 113 -163 113 l-104 0 Z" /><glyph glyph-name="germandbls" unicode="ß" d="M174 521 l0 -521 l-94 0 l0 525 q0 48 12 89.5 q12 41.5 37.5 77 q25.5 35.5 71 56 q45.5 20.5 106.5 20.5 q87 0 145 -52 q58 -52 58 -134 q0 -55 -29.5 -96 q-29.5 -41 -81.5 -58 l0 -2 q76 -11 121.5 -66.5 q45.5 -55.5 45.5 -137.5 q0 -105 -66 -169.5 q-66 -64.5 -177 -64.5 q-34 0 -71 8 l0 79 q26 -7 59 -7 q72 0 115 42.5 q43 42.5 43 115.5 q0 76 -47.5 115.5 q-47.5 39.5 -125.5 39.5 l-11 0 l0 82 l11 0 q54 0 87 28.5 q33 28.5 33 81.5 q0 49 -31 80.5 q-31 31.5 -82 31.5 q-38 0 -64.5 -15 q-26.5 -15 -40 -41 q-13.5 -26 -19 -52 q-5.5 -26 -5.5 -56 Z" /><glyph glyph-name="agrave" unicode="à" d="M376 294 l0 13 q0 51 -31.5 77.5 q-31.5 26.5 -85.5 26.5 q-80 0 -135 -55 l-50 60 q74 71 194 71 q98 0 148 -51.5 q50 -51.5 50 -134.5 l0 -207 q0 -62 7 -94 l-85 0 q-8 34 -8 68 l-3 0 q-53 -80 -159 -80 q-30 0 -59 8 q-29 8 -55 24 q-26 16 -42 45.5 q-16 29.5 -16 68.5 q0 41 19.5 71.5 q19.5 30.5 49.5 47 q30 16.5 76.5 26 q46.5 9.5 88 12.5 q41.5 3 96.5 3 ZM376 226 l-23 0 q-211 0 -211 -90 q0 -39 28 -56.5 q28 -17.5 69 -17.5 q64 0 100.5 38.5 q36.5 38.5 36.5 100.5 l0 25 ZM256 564 l-136 144 l113 0 l100 -144 l-77 0 Z" /><glyph glyph-name="aacute" unicode="á" d="M376 294 l0 13 q0 51 -31.5 77.5 q-31.5 26.5 -85.5 26.5 q-80 0 -135 -55 l-50 60 q74 71 194 71 q98 0 148 -51.5 q50 -51.5 50 -134.5 l0 -207 q0 -62 7 -94 l-85 0 q-8 34 -8 68 l-3 0 q-53 -80 -159 -80 q-30 0 -59 8 q-29 8 -55 24 q-26 16 -42 45.5 q-16 29.5 -16 68.5 q0 41 19.5 71.5 q19.5 30.5 49.5 47 q30 16.5 76.5 26 q46.5 9.5 88 12.5 q41.5 3 96.5 3 ZM376 226 l-23 0 q-211 0 -211 -90 q0 -39 28 -56.5 q28 -17.5 69 -17.5 q64 0 100.5 38.5 q36.5 38.5 36.5 100.5 l0 25 ZM440 708 l-136 -144 l-77 0 l100 144 l113 0 Z" /><glyph glyph-name="acircumflex" unicode="â" d="M376 294 l0 13 q0 51 -31.5 77.5 q-31.5 26.5 -85.5 26.5 q-80 0 -135 -55 l-50 60 q74 71 194 71 q98 0 148 -51.5 q50 -51.5 50 -134.5 l0 -207 q0 -62 7 -94 l-85 0 q-8 34 -8 68 l-3 0 q-53 -80 -159 -80 q-30 0 -59 8 q-29 8 -55 24 q-26 16 -42 45.5 q-16 29.5 -16 68.5 q0 41 19.5 71.5 q19.5 30.5 49.5 47 q30 16.5 76.5 26 q46.5 9.5 88 12.5 q41.5 3 96.5 3 ZM376 226 l-23 0 q-211 0 -211 -90 q0 -39 28 -56.5 q28 -17.5 69 -17.5 q64 0 100.5 38.5 q36.5 38.5 36.5 100.5 l0 25 ZM322 708 l112 -144 l-91 0 l-75 99 l-76 -99 l-90 0 l112 144 l108 0 Z" /><glyph glyph-name="atilde" unicode="ã" d="M376 294 l0 13 q0 51 -31.5 77.5 q-31.5 26.5 -85.5 26.5 q-80 0 -135 -55 l-50 60 q74 71 194 71 q98 0 148 -51.5 q50 -51.5 50 -134.5 l0 -207 q0 -62 7 -94 l-85 0 q-8 34 -8 68 l-3 0 q-53 -80 -159 -80 q-30 0 -59 8 q-29 8 -55 24 q-26 16 -42 45.5 q-16 29.5 -16 68.5 q0 41 19.5 71.5 q19.5 30.5 49.5 47 q30 16.5 76.5 26 q46.5 9.5 88 12.5 q41.5 3 96.5 3 ZM376 226 l-23 0 q-211 0 -211 -90 q0 -39 28 -56.5 q28 -17.5 69 -17.5 q64 0 100.5 38.5 q36.5 38.5 36.5 100.5 l0 25 ZM150 572 l-55 0 q20 116 102 116 q33 0 75 -20 q48 -22 67 -22 q34 0 48 46 l54 0 q-20 -116 -102 -116 q-31 0 -77 21 q-42 21 -65 21 q-35 0 -47 -46 Z" /><glyph glyph-name="adieresis" unicode="ä" d="M376 294 l0 13 q0 51 -31.5 77.5 q-31.5 26.5 -85.5 26.5 q-80 0 -135 -55 l-50 60 q74 71 194 71 q98 0 148 -51.5 q50 -51.5 50 -134.5 l0 -207 q0 -62 7 -94 l-85 0 q-8 34 -8 68 l-3 0 q-53 -80 -159 -80 q-30 0 -59 8 q-29 8 -55 24 q-26 16 -42 45.5 q-16 29.5 -16 68.5 q0 41 19.5 71.5 q19.5 30.5 49.5 47 q30 16.5 76.5 26 q46.5 9.5 88 12.5 q41.5 3 96.5 3 ZM376 226 l-23 0 q-211 0 -211 -90 q0 -39 28 -56.5 q28 -17.5 69 -17.5 q64 0 100.5 38.5 q36.5 38.5 36.5 100.5 l0 25 ZM110 645 q0 25 18 43 q18 18 44 18 q26 0 44 -17.5 q18 -17.5 18 -43.5 q0 -25 -18 -42.5 q-18 -17.5 -44 -17.5 q-26 0 -44 18 q-18 18 -18 42 ZM304 645 q0 25 18 43 q18 18 44 18 q26 0 44 -17.5 q18 -17.5 18 -43.5 q0 -25 -18 -42.5 q-18 -17.5 -44 -17.5 q-26 0 -44 18 q-18 18 -18 42 Z" /><glyph glyph-name="aring" unicode="å" d="M376 294 l0 13 q0 51 -31.5 77.5 q-31.5 26.5 -85.5 26.5 q-80 0 -135 -55 l-50 60 q74 71 194 71 q98 0 148 -51.5 q50 -51.5 50 -134.5 l0 -207 q0 -62 7 -94 l-85 0 q-8 34 -8 68 l-3 0 q-53 -80 -159 -80 q-30 0 -59 8 q-29 8 -55 24 q-26 16 -42 45.5 q-16 29.5 -16 68.5 q0 41 19.5 71.5 q19.5 30.5 49.5 47 q30 16.5 76.5 26 q46.5 9.5 88 12.5 q41.5 3 96.5 3 ZM376 226 l-23 0 q-211 0 -211 -90 q0 -39 28 -56.5 q28 -17.5 69 -17.5 q64 0 100.5 38.5 q36.5 38.5 36.5 100.5 l0 25 ZM339.5 723 q29.5 -28 29.5 -70 q0 -42 -29.5 -70.5 q-29.5 -28.5 -71.5 -28.5 q-42 0 -71 28 q-29 28 -29 70 q0 42 29 70.5 q29 28.5 71 28.5 q42 0 71.5 -28 ZM309.5 612.5 q17.5 16.5 17.5 40.5 q0 24 -17.5 40 q-17.5 16 -41.5 16 q-24 0 -41 -16 q-17 -16 -17 -40 q0 -24 17 -40.5 q17 -16.5 41 -16.5 q24 0 41.5 16.5 Z" /><glyph glyph-name="ae" unicode="æ" d="M374 209 l-24 0 q-49 0 -82.5 -2.5 q-33.5 -2.5 -64.5 -10 q-31 -7.5 -46 -23.5 q-15 -16 -15 -40 q0 -72 98 -72 q65 0 99.5 33 q34.5 33 34.5 90 l0 25 ZM462 279 l272 0 q0 58 -34 96 q-34 38 -94 38 q-57 0 -99 -39 q-42 -39 -45 -95 ZM419 85 q-52 -97 -201 -97 q-68 0 -120 31.5 q-52 31.5 -52 101.5 q0 41 16.5 70 q16.5 29 42.5 46 q26 17 71 26.5 q45 9.5 90 12.5 q45 3 110 3 l0 11 q0 121 -117 121 q-80 0 -135 -55 l-50 60 q74 71 194 71 q128 0 166 -88 q63 88 173 88 q102 0 161.5 -66.5 q59.5 -66.5 59.5 -179.5 q0 -21 -1 -32 l-364 0 q2 -61 45.5 -102.5 q43.5 -41.5 103.5 -41.5 q85 0 134 72 l63 -53 q-72 -97 -197 -97 q-63 0 -114 26 q-51 26 -79 72 Z" /><glyph glyph-name="ccedilla" unicode="ç" d="M481 409 l-68 -55 q-15 24 -45.5 39 q-30.5 15 -63.5 15 q-71 0 -113 -50 q-42 -50 -42 -121 q0 -71 42.5 -121 q42.5 -50 113.5 -50 q73 0 114 52 l63 -57 q-60 -70 -165 -74 l-37 -56 q9 2 27 2 q39 0 66.5 -18.5 q27.5 -18.5 27.5 -59.5 q0 -48 -38 -69 q-38 -21 -89 -21 q-57 0 -103 23 l20 42 q37 -17 77 -17 q22 0 41.5 9.5 q19.5 9.5 19.5 32.5 q0 38 -54 38 q-18 0 -41 -7 l-20 20 l55 83 q-97 11 -158 78.5 q-61 67.5 -61 169.5 q0 111 71.5 180.5 q71.5 69.5 181.5 69.5 q52 0 101 -20.5 q49 -20.5 77 -57.5 Z" /><glyph glyph-name="egrave" unicode="è" d="M146 279 l282 0 q-2 59 -36 96.5 q-34 37.5 -97 37.5 q-60 0 -102 -39 q-42 -39 -47 -95 ZM523 241 q0 -21 -1 -32 l-376 0 q2 -61 47 -102.5 q45 -41.5 107 -41.5 q89 0 138 72 l66 -53 q-75 -97 -204 -97 q-109 0 -179.5 69 q-70.5 69 -70.5 180 q0 110 70 180.5 q70 70.5 175 70.5 q105 0 166.5 -66.5 q61.5 -66.5 61.5 -179.5 ZM270 564 l-136 144 l113 0 l100 -144 l-77 0 Z" /><glyph glyph-name="eacute" unicode="é" d="M146 279 l282 0 q-2 59 -36 96.5 q-34 37.5 -97 37.5 q-60 0 -102 -39 q-42 -39 -47 -95 ZM523 241 q0 -21 -1 -32 l-376 0 q2 -61 47 -102.5 q45 -41.5 107 -41.5 q89 0 138 72 l66 -53 q-75 -97 -204 -97 q-109 0 -179.5 69 q-70.5 69 -70.5 180 q0 110 70 180.5 q70 70.5 175 70.5 q105 0 166.5 -66.5 q61.5 -66.5 61.5 -179.5 ZM458 708 l-136 -144 l-77 0 l100 144 l113 0 Z" /><glyph glyph-name="ecircumflex" unicode="ê" d="M146 279 l282 0 q-2 59 -36 96.5 q-34 37.5 -97 37.5 q-60 0 -102 -39 q-42 -39 -47 -95 ZM523 241 q0 -21 -1 -32 l-376 0 q2 -61 47 -102.5 q45 -41.5 107 -41.5 q89 0 138 72 l66 -53 q-75 -97 -204 -97 q-109 0 -179.5 69 q-70.5 69 -70.5 180 q0 110 70 180.5 q70 70.5 175 70.5 q105 0 166.5 -66.5 q61.5 -66.5 61.5 -179.5 ZM355 708 l112 -144 l-91 0 l-75 99 l-76 -99 l-90 0 l112 144 l108 0 Z" /><glyph glyph-name="edieresis" unicode="ë" d="M146 279 l282 0 q-2 59 -36 96.5 q-34 37.5 -97 37.5 q-60 0 -102 -39 q-42 -39 -47 -95 ZM523 241 q0 -21 -1 -32 l-376 0 q2 -61 47 -102.5 q45 -41.5 107 -41.5 q89 0 138 72 l66 -53 q-75 -97 -204 -97 q-109 0 -179.5 69 q-70.5 69 -70.5 180 q0 110 70 180.5 q70 70.5 175 70.5 q105 0 166.5 -66.5 q61.5 -66.5 61.5 -179.5 ZM141 645 q0 25 18 43 q18 18 44 18 q26 0 44 -17.5 q18 -17.5 18 -43.5 q0 -25 -18 -42.5 q-18 -17.5 -44 -17.5 q-26 0 -44 18 q-18 18 -18 42 ZM335 645 q0 25 18 43 q18 18 44 18 q26 0 44 -17.5 q18 -17.5 18 -43.5 q0 -25 -18 -42.5 q-18 -17.5 -44 -17.5 q-26 0 -44 18 q-18 18 -18 42 Z" /><glyph glyph-name="igrave" unicode="ì" d="M176 474 l0 -474 l-94 0 l0 474 l94 0 ZM100 564 l-136 144 l113 0 l100 -144 l-77 0 Z" /><glyph glyph-name="iacute" unicode="í" d="M176 474 l0 -474 l-94 0 l0 474 l94 0 ZM295 708 l-136 -144 l-77 0 l100 144 l113 0 Z" /><glyph glyph-name="icircumflex" unicode="î" d="M176 474 l0 -474 l-94 0 l0 474 l94 0 ZM184 708 l112 -144 l-91 0 l-75 99 l-76 -99 l-90 0 l112 144 l108 0 Z" /><glyph glyph-name="idieresis" unicode="ï" d="M176 474 l0 -474 l-94 0 l0 474 l94 0 ZM-29 645 q0 25 18 43 q18 18 44 18 q26 0 44 -17.5 q18 -17.5 18 -43.5 q0 -25 -18 -42.5 q-18 -17.5 -44 -17.5 q-26 0 -44 18 q-18 18 -18 42 ZM165 645 q0 25 18 43 q18 18 44 18 q26 0 44 -17.5 q18 -17.5 18 -43.5 q0 -25 -18 -42.5 q-18 -17.5 -44 -17.5 q-26 0 -44 18 q-18 18 -18 42 Z" /><glyph glyph-name="eth" unicode="ð" d="M481 713 l-110 -54 q83 -84 134 -186 q51 -102 51 -211 q0 -116 -65 -195.5 q-65 -79.5 -190 -79.5 q-111 0 -183 70.5 q-72 70.5 -72 179.5 q0 109 72 179.5 q72 70.5 179 70.5 q75 0 130 -49 l2 2 q-59 111 -141 180 l-110 -53 l-48 47 l110 53 q-26 25 -89 70 l77 47 q59 -45 93 -78 l108 53 l52 -46 ZM185 357.5 q-43 -49.5 -43 -120.5 q0 -71 43 -120.5 q43 -49.5 116 -49.5 q73 0 115.5 49.5 q42.5 49.5 42.5 120.5 q0 71 -42.5 120.5 q-42.5 49.5 -115.5 49.5 q-73 0 -116 -49.5 Z" /><glyph glyph-name="ntilde" unicode="ñ" d="M77 474 l89 0 q4 -48 4 -78 l3 0 q18 39 61 65 q43 26 93 26 q87 0 132 -54 q45 -54 45 -139 l0 -294 l-94 0 l0 263 q0 145 -108 145 q-56 0 -91.5 -43 q-35.5 -43 -35.5 -113 l0 -252 l-94 0 l0 372 q0 61 -4 102 ZM176 572 l-55 0 q20 116 102 116 q33 0 75 -20 q48 -22 67 -22 q34 0 48 46 l54 0 q-20 -116 -102 -116 q-31 0 -77 21 q-42 21 -65 21 q-35 0 -47 -46 Z" /><glyph glyph-name="ograve" unicode="ò" d="M488 417 q73 -70 73 -179 q0 -109 -73.5 -180 q-73.5 -71 -182.5 -71 q-109 0 -182 71 q-73 71 -73 180 q0 109 72.5 179 q72.5 70 182.5 70 q110 0 183 -70 ZM420.5 116.5 q42.5 50.5 42.5 121.5 q0 71 -42.5 121 q-42.5 50 -115.5 50 q-73 0 -115.5 -50 q-42.5 -50 -42.5 -121 q0 -71 42.5 -121.5 q42.5 -50.5 115.5 -50.5 q73 0 115.5 50.5 ZM283 564 l-136 144 l113 0 l100 -144 l-77 0 Z" /><glyph glyph-name="oacute" unicode="ó" d="M488 417 q73 -70 73 -179 q0 -109 -73.5 -180 q-73.5 -71 -182.5 -71 q-109 0 -182 71 q-73 71 -73 180 q0 109 72.5 179 q72.5 70 182.5 70 q110 0 183 -70 ZM420.5 116.5 q42.5 50.5 42.5 121.5 q0 71 -42.5 121 q-42.5 50 -115.5 50 q-73 0 -115.5 -50 q-42.5 -50 -42.5 -121 q0 -71 42.5 -121.5 q42.5 -50.5 115.5 -50.5 q73 0 115.5 50.5 ZM461 708 l-136 -144 l-77 0 l100 144 l113 0 Z" /><glyph glyph-name="ocircumflex" unicode="ô" d="M488 417 q73 -70 73 -179 q0 -109 -73.5 -180 q-73.5 -71 -182.5 -71 q-109 0 -182 71 q-73 71 -73 180 q0 109 72.5 179 q72.5 70 182.5 70 q110 0 183 -70 ZM420.5 116.5 q42.5 50.5 42.5 121.5 q0 71 -42.5 121 q-42.5 50 -115.5 50 q-73 0 -115.5 -50 q-42.5 -50 -42.5 -121 q0 -71 42.5 -121.5 q42.5 -50.5 115.5 -50.5 q73 0 115.5 50.5 ZM360 708 l112 -144 l-91 0 l-75 99 l-76 -99 l-90 0 l112 144 l108 0 Z" /><glyph glyph-name="otilde" unicode="õ" d="M488 417 q73 -70 73 -179 q0 -109 -73.5 -180 q-73.5 -71 -182.5 -71 q-109 0 -182 71 q-73 71 -73 180 q0 109 72.5 179 q72.5 70 182.5 70 q110 0 183 -70 ZM420.5 116.5 q42.5 50.5 42.5 121.5 q0 71 -42.5 121 q-42.5 50 -115.5 50 q-73 0 -115.5 -50 q-42.5 -50 -42.5 -121 q0 -71 42.5 -121.5 q42.5 -50.5 115.5 -50.5 q73 0 115.5 50.5 ZM188 572 l-55 0 q20 116 102 116 q33 0 75 -20 q48 -22 67 -22 q34 0 48 46 l54 0 q-20 -116 -102 -116 q-31 0 -77 21 q-42 21 -65 21 q-35 0 -47 -46 Z" /><glyph glyph-name="odieresis" unicode="ö" d="M488 417 q73 -70 73 -179 q0 -109 -73.5 -180 q-73.5 -71 -182.5 -71 q-109 0 -182 71 q-73 71 -73 180 q0 109 72.5 179 q72.5 70 182.5 70 q110 0 183 -70 ZM420.5 116.5 q42.5 50.5 42.5 121.5 q0 71 -42.5 121 q-42.5 50 -115.5 50 q-73 0 -115.5 -50 q-42.5 -50 -42.5 -121 q0 -71 42.5 -121.5 q42.5 -50.5 115.5 -50.5 q73 0 115.5 50.5 ZM147 645 q0 25 18 43 q18 18 44 18 q26 0 44 -17.5 q18 -17.5 18 -43.5 q0 -25 -18 -42.5 q-18 -17.5 -44 -17.5 q-26 0 -44 18 q-18 18 -18 42 ZM341 645 q0 25 18 43 q18 18 44 18 q26 0 44 -17.5 q18 -17.5 18 -43.5 q0 -25 -18 -42.5 q-18 -17.5 -44 -17.5 q-26 0 -44 18 q-18 18 -18 42 Z" /><glyph glyph-name="divide" unicode="÷" d="M596 344 l0 -82 l-526 0 l0 82 l526 0 ZM398 132 q0 -27 -19 -46 q-19 -19 -46 -19 q-27 0 -46 19 q-19 19 -19 46 q0 26 19 45.5 q19 19.5 46 19.5 q27 0 46 -19.5 q19 -19.5 19 -45.5 ZM398 469 q0 -27 -19 -46 q-19 -19 -46 -19 q-27 0 -46 19 q-19 19 -19 46 q0 26 19 45.5 q19 19.5 46 19.5 q27 0 46 -19.5 q19 -19.5 19 -45.5 Z" /><glyph glyph-name="oslash" unicode="ø" d="M568 471 l-67 -70 q60 -68 60 -164 q0 -109 -73 -179.5 q-73 -70.5 -183 -70.5 q-92 0 -159 51 l-68 -69 l-36 36 l66 68 q-58 67 -58 164 q0 109 73 179.5 q73 70.5 182 70.5 q93 0 158 -51 l68 70 l37 -35 ZM172 136 l234 241 q-38 35 -101 35 q-74 0 -117.5 -51.5 q-43.5 -51.5 -43.5 -123.5 q0 -64 28 -101 ZM438 338 l-235 -240 q41 -35 101 -35 q76 0 119.5 51.5 q43.5 51.5 43.5 123.5 q0 62 -29 100 Z" /><glyph glyph-name="ugrave" unicode="ù" d="M504 0 l-89 0 q-4 48 -4 78 l-2 0 q-19 -39 -62 -65 q-43 -26 -93 -26 q-87 0 -132 54 q-45 54 -45 139 l0 294 l94 0 l0 -262 q0 -146 108 -146 q57 0 92 43 q35 43 35 113 l0 252 l94 0 l0 -372 q0 -61 4 -102 ZM267 564 l-136 144 l113 0 l100 -144 l-77 0 Z" /><glyph glyph-name="uacute" unicode="ú" d="M504 0 l-89 0 q-4 48 -4 78 l-2 0 q-19 -39 -62 -65 q-43 -26 -93 -26 q-87 0 -132 54 q-45 54 -45 139 l0 294 l94 0 l0 -262 q0 -146 108 -146 q57 0 92 43 q35 43 35 113 l0 252 l94 0 l0 -372 q0 -61 4 -102 ZM452 708 l-136 -144 l-77 0 l100 144 l113 0 Z" /><glyph glyph-name="ucircumflex" unicode="û" d="M504 0 l-89 0 q-4 48 -4 78 l-2 0 q-19 -39 -62 -65 q-43 -26 -93 -26 q-87 0 -132 54 q-45 54 -45 139 l0 294 l94 0 l0 -262 q0 -146 108 -146 q57 0 92 43 q35 43 35 113 l0 252 l94 0 l0 -372 q0 -61 4 -102 ZM345 708 l112 -144 l-91 0 l-75 99 l-76 -99 l-90 0 l112 144 l108 0 Z" /><glyph glyph-name="udieresis" unicode="ü" d="M504 0 l-89 0 q-4 48 -4 78 l-2 0 q-19 -39 -62 -65 q-43 -26 -93 -26 q-87 0 -132 54 q-45 54 -45 139 l0 294 l94 0 l0 -262 q0 -146 108 -146 q57 0 92 43 q35 43 35 113 l0 252 l94 0 l0 -372 q0 -61 4 -102 ZM131 645 q0 25 18 43 q18 18 44 18 q26 0 44 -17.5 q18 -17.5 18 -43.5 q0 -25 -18 -42.5 q-18 -17.5 -44 -17.5 q-26 0 -44 18 q-18 18 -18 42 ZM325 645 q0 25 18 43 q18 18 44 18 q26 0 44 -17.5 q18 -17.5 18 -43.5 q0 -25 -18 -42.5 q-18 -17.5 -44 -17.5 q-26 0 -44 18 q-18 18 -18 42 Z" /><glyph glyph-name="yacute" unicode="ý" d="M114 474 l147 -372 l2 0 l131 372 l100 0 l-230 -586 q-25 -65 -61.5 -96.5 q-36.5 -31.5 -102.5 -31.5 q-33 0 -62 7 l9 83 q24 -8 47 -8 q34 0 53 18.5 q19 18.5 35 60.5 l30 79 l-203 474 l105 0 ZM422 708 l-136 -144 l-77 0 l100 144 l113 0 Z" /><glyph glyph-name="thorn" unicode="þ" d="M175 71 l0 -311 l-93 0 l0 996 l93 0 l0 -356 l3 0 q23 39 67.5 63 q44.5 24 101.5 24 q104 0 170.5 -71.5 q66.5 -71.5 66.5 -177.5 q0 -107 -66 -179 q-66 -72 -173 -72 q-51 0 -96 22.5 q-45 22.5 -71 61.5 l-3 0 ZM445 116.5 q42 50.5 42 121.5 q0 71 -42 121 q-42 50 -116 50 q-70 0 -115 -51 q-45 -51 -45 -121 q0 -70 45 -120.5 q45 -50.5 115 -50.5 q74 0 116 50.5 Z" /><glyph glyph-name="ydieresis" unicode="ÿ" d="M114 474 l147 -372 l2 0 l131 372 l100 0 l-230 -586 q-25 -65 -61.5 -96.5 q-36.5 -31.5 -102.5 -31.5 q-33 0 -62 7 l9 83 q24 -8 47 -8 q34 0 53 18.5 q19 18.5 35 60.5 l30 79 l-203 474 l105 0 ZM101 645 q0 25 18 43 q18 18 44 18 q26 0 44 -17.5 q18 -17.5 18 -43.5 q0 -25 -18 -42.5 q-18 -17.5 -44 -17.5 q-26 0 -44 18 q-18 18 -18 42 ZM295 645 q0 25 18 43 q18 18 44 18 q26 0 44 -17.5 q18 -17.5 18 -43.5 q0 -25 -18 -42.5 q-18 -17.5 -44 -17.5 q-26 0 -44 18 q-18 18 -18 42 Z" /><glyph glyph-name="Amacron" unicode="&#x100;" d="M186 174 l-71 -174 l-110 0 l307 708 l90 0 l304 -708 l-112 0 l-72 174 l-336 0 ZM354 593 l-133 -332 l265 0 l-132 332 ZM502 864 l0 -67 l-296 0 l0 67 l296 0 Z" /><glyph glyph-name="amacron" unicode="&#x101;" d="M376 294 l0 13 q0 51 -31.5 77.5 q-31.5 26.5 -85.5 26.5 q-80 0 -135 -55 l-50 60 q74 71 194 71 q98 0 148 -51.5 q50 -51.5 50 -134.5 l0 -207 q0 -62 7 -94 l-85 0 q-8 34 -8 68 l-3 0 q-53 -80 -159 -80 q-30 0 -59 8 q-29 8 -55 24 q-26 16 -42 45.5 q-16 29.5 -16 68.5 q0 41 19.5 71.5 q19.5 30.5 49.5 47 q30 16.5 76.5 26 q46.5 9.5 88 12.5 q41.5 3 96.5 3 ZM376 226 l-23 0 q-211 0 -211 -90 q0 -39 28 -56.5 q28 -17.5 69 -17.5 q64 0 100.5 38.5 q36.5 38.5 36.5 100.5 l0 25 ZM418 664 l0 -67 l-296 0 l0 67 l296 0 Z" /><glyph glyph-name="Abreve" unicode="&#x102;" d="M186 174 l-71 -174 l-110 0 l307 708 l90 0 l304 -708 l-112 0 l-72 174 l-336 0 ZM354 593 l-133 -332 l265 0 l-132 332 ZM458 908 l55 0 q-6 -67 -48.5 -102.5 q-42.5 -35.5 -110.5 -35.5 q-69 0 -112 35.5 q-43 35.5 -47 102.5 l56 0 q6 -36 34.5 -54 q28.5 -18 68.5 -18 q88 0 104 72 Z" /><glyph glyph-name="abreve" unicode="&#x103;" d="M376 294 l0 13 q0 51 -31.5 77.5 q-31.5 26.5 -85.5 26.5 q-80 0 -135 -55 l-50 60 q74 71 194 71 q98 0 148 -51.5 q50 -51.5 50 -134.5 l0 -207 q0 -62 7 -94 l-85 0 q-8 34 -8 68 l-3 0 q-53 -80 -159 -80 q-30 0 -59 8 q-29 8 -55 24 q-26 16 -42 45.5 q-16 29.5 -16 68.5 q0 41 19.5 71.5 q19.5 30.5 49.5 47 q30 16.5 76.5 26 q46.5 9.5 88 12.5 q41.5 3 96.5 3 ZM376 226 l-23 0 q-211 0 -211 -90 q0 -39 28 -56.5 q28 -17.5 69 -17.5 q64 0 100.5 38.5 q36.5 38.5 36.5 100.5 l0 25 ZM373 708 l55 0 q-6 -67 -48.5 -102.5 q-42.5 -35.5 -110.5 -35.5 q-69 0 -112 35.5 q-43 35.5 -47 102.5 l56 0 q6 -36 34.5 -54 q28.5 -18 68.5 -18 q88 0 104 72 Z" /><glyph glyph-name="Aogonek" unicode="&#x104;" d="M671 -144 l22 -45 q-44 -37 -95 -37 q-39 0 -68 24 q-29 24 -29 63 q0 71 91 142 l-70 171 l-336 0 l-71 -174 l-110 0 l307 708 l90 0 l304 -708 l-63 0 q-73 -71 -73 -119 q0 -19 14 -33 q14 -14 34 -14 q29 0 53 22 ZM354 593 l-133 -332 l265 0 l-132 332 Z" /><glyph glyph-name="aogonek" unicode="&#x105;" d="M465 -144 l22 -45 q-44 -37 -95 -37 q-39 0 -68 24 q-29 24 -29 63 q0 72 92 142 q-7 28 -7 65 l-3 0 q-53 -80 -159 -80 q-30 0 -59 8 q-29 8 -55 24 q-26 16 -42 45.5 q-16 29.5 -16 68.5 q0 41 19.5 71.5 q19.5 30.5 49.5 47 q30 16.5 76.5 26 q46.5 9.5 88 12.5 q41.5 3 96.5 3 l0 13 q0 51 -31.5 77.5 q-31.5 26.5 -85.5 26.5 q-80 0 -135 -55 l-50 60 q74 71 194 71 q98 0 148 -51.5 q50 -51.5 50 -134.5 l0 -207 q0 -62 7 -94 l-36 0 q-73 -71 -73 -119 q0 -19 14 -33 q14 -14 34 -14 q29 0 53 22 ZM376 226 l-23 0 q-211 0 -211 -90 q0 -39 28 -56.5 q28 -17.5 69 -17.5 q64 0 100.5 38.5 q36.5 38.5 36.5 100.5 l0 25 Z" /><glyph glyph-name="Cacute" unicode="&#x106;" d="M614 164 l79 -54 q-94 -128 -270 -128 q-163 0 -268 105 q-105 105 -105 268 q0 164 107 267.5 q107 103.5 270 103.5 q76 0 146 -29 q70 -29 108 -81 l-78 -60 q-26 37 -74 60 q-48 23 -102 23 q-120 0 -194.5 -82 q-74.5 -82 -74.5 -202 q0 -122 73 -203.5 q73 -81.5 193 -81.5 q125 0 190 94 ZM568 908 l-137 -144 l-76 0 l99 144 l114 0 Z" /><glyph glyph-name="cacute" unicode="&#x107;" d="M481 409 l-68 -55 q-15 24 -45.5 39 q-30.5 15 -63.5 15 q-71 0 -113 -50 q-42 -50 -42 -121 q0 -71 42.5 -121 q42.5 -50 113.5 -50 q73 0 114 52 l63 -57 q-64 -74 -177 -74 q-111 0 -183 69 q-72 69 -72 181 q0 111 71.5 180.5 q71.5 69.5 181.5 69.5 q52 0 101 -20.5 q49 -20.5 77 -57.5 ZM456 708 l-136 -144 l-77 0 l100 144 l113 0 Z" /><glyph glyph-name="Ccircumflex" unicode="&#x108;" d="M614 164 l79 -54 q-94 -128 -270 -128 q-163 0 -268 105 q-105 105 -105 268 q0 164 107 267.5 q107 103.5 270 103.5 q76 0 146 -29 q70 -29 108 -81 l-78 -60 q-26 37 -74 60 q-48 23 -102 23 q-120 0 -194.5 -82 q-74.5 -82 -74.5 -202 q0 -122 73 -203.5 q73 -81.5 193 -81.5 q125 0 190 94 ZM477 908 l112 -144 l-91 0 l-75 99 l-76 -99 l-90 0 l112 144 l108 0 Z" /><glyph glyph-name="ccircumflex" unicode="&#x109;" d="M481 409 l-68 -55 q-15 24 -45.5 39 q-30.5 15 -63.5 15 q-71 0 -113 -50 q-42 -50 -42 -121 q0 -71 42.5 -121 q42.5 -50 113.5 -50 q73 0 114 52 l63 -57 q-64 -74 -177 -74 q-111 0 -183 69 q-72 69 -72 181 q0 111 71.5 180.5 q71.5 69.5 181.5 69.5 q52 0 101 -20.5 q49 -20.5 77 -57.5 ZM357 708 l112 -144 l-91 0 l-75 99 l-76 -99 l-90 0 l112 144 l108 0 Z" /><glyph glyph-name="Cdotaccent" unicode="&#x10a;" d="M614 164 l79 -54 q-94 -128 -270 -128 q-163 0 -268 105 q-105 105 -105 268 q0 164 107 267.5 q107 103.5 270 103.5 q76 0 146 -29 q70 -29 108 -81 l-78 -60 q-26 37 -74 60 q-48 23 -102 23 q-120 0 -194.5 -82 q-74.5 -82 -74.5 -202 q0 -122 73 -203.5 q73 -81.5 193 -81.5 q125 0 190 94 ZM486 845 q0 -25 -18.5 -42.5 q-18.5 -17.5 -44.5 -17.5 q-26 0 -44 17.5 q-18 17.5 -18 42.5 q0 25 18 43 q18 18 44 18 q26 0 44.5 -17.5 q18.5 -17.5 18.5 -43.5 Z" /><glyph glyph-name="cdotaccent" unicode="&#x10b;" d="M481 409 l-68 -55 q-15 24 -45.5 39 q-30.5 15 -63.5 15 q-71 0 -113 -50 q-42 -50 -42 -121 q0 -71 42.5 -121 q42.5 -50 113.5 -50 q73 0 114 52 l63 -57 q-64 -74 -177 -74 q-111 0 -183 69 q-72 69 -72 181 q0 111 71.5 180.5 q71.5 69.5 181.5 69.5 q52 0 101 -20.5 q49 -20.5 77 -57.5 ZM363 645 q0 -25 -18.5 -42.5 q-18.5 -17.5 -44.5 -17.5 q-26 0 -44 17.5 q-18 17.5 -18 42.5 q0 25 18 43 q18 18 44 18 q26 0 44.5 -17.5 q18.5 -17.5 18.5 -43.5 Z" /><glyph glyph-name="Ccaron" unicode="&#x10c;" d="M614 164 l79 -54 q-94 -128 -270 -128 q-163 0 -268 105 q-105 105 -105 268 q0 164 107 267.5 q107 103.5 270 103.5 q76 0 146 -29 q70 -29 108 -81 l-78 -60 q-26 37 -74 60 q-48 23 -102 23 q-120 0 -194.5 -82 q-74.5 -82 -74.5 -202 q0 -122 73 -203.5 q73 -81.5 193 -81.5 q125 0 190 94 ZM588 908 l-112 -144 l-107 0 l-111 144 l90 0 l76 -99 l76 99 l88 0 Z" /><glyph glyph-name="ccaron" unicode="&#x10d;" d="M481 409 l-68 -55 q-15 24 -45.5 39 q-30.5 15 -63.5 15 q-71 0 -113 -50 q-42 -50 -42 -121 q0 -71 42.5 -121 q42.5 -50 113.5 -50 q73 0 114 52 l63 -57 q-64 -74 -177 -74 q-111 0 -183 69 q-72 69 -72 181 q0 111 71.5 180.5 q71.5 69.5 181.5 69.5 q52 0 101 -20.5 q49 -20.5 77 -57.5 ZM469 708 l-112 -144 l-107 0 l-111 144 l90 0 l76 -99 l76 99 l88 0 Z" /><glyph glyph-name="Dcaron" unicode="&#x10e;" d="M86 0 l0 708 l243 0 q71 0 136.5 -20.5 q65.5 -20.5 121.5 -61.5 q56 -41 90 -111.5 q34 -70.5 34 -160.5 q0 -87 -34 -157 q-34 -70 -89.5 -111.5 q-55.5 -41.5 -122 -63.5 q-66.5 -22 -136.5 -22 l-243 0 ZM185 622 l0 -535 l124 0 q131 0 213.5 71.5 q82.5 71.5 82.5 195.5 q0 128 -82 198 q-82 70 -214 70 l-124 0 ZM509 908 l-112 -144 l-107 0 l-111 144 l90 0 l76 -99 l76 99 l88 0 Z" /><glyph glyph-name="dcaron" unicode="&#x10f;" d="M459 75 q-26 -42 -72.5 -65 q-46.5 -23 -98.5 -23 q-107 0 -173 72 q-66 72 -66 179 q0 107 66.5 178 q66.5 71 171.5 71 q55 0 98.5 -23.5 q43.5 -23.5 70.5 -60.5 l2 0 l0 353 l94 0 l0 -756 l-91 0 l0 75 l-2 0 ZM188.5 359 q-41.5 -50 -41.5 -121 q0 -71 41.5 -121.5 q41.5 -50.5 115.5 -50.5 q70 0 115 50.5 q45 50.5 45 120.5 q0 70 -45 121 q-45 51 -115 51 q-74 0 -115.5 -50 ZM743 708 l-78 -190 l-79 0 l64 190 l93 0 Z" /><glyph glyph-name="Dcroat" unicode="&#x110;" d="M82 0 l0 335 l-69 0 l0 70 l69 0 l0 303 l258 0 q69 0 133.5 -22.5 q64.5 -22.5 117 -65 q52.5 -42.5 84 -111.5 q31.5 -69 31.5 -155 q0 -86 -33.5 -155.5 q-33.5 -69.5 -88.5 -111.5 q-55 -42 -120 -64.5 q-65 -22.5 -132 -22.5 l-250 0 ZM182 335 l0 -245 l117 0 q139 0 220 72 q81 72 81 192 q0 121 -77 192.5 q-77 71.5 -214 71.5 l-127 0 l0 -213 l237 0 l0 -70 l-237 0 Z" /><glyph glyph-name="dcroat" unicode="&#x111;" d="M295 633 l163 0 l0 123 l94 0 l0 -123 l56 0 l0 -63 l-56 0 l0 -570 l-91 0 l0 75 l-2 0 q-26 -42 -72.5 -65 q-46.5 -23 -98.5 -23 q-107 0 -173 72 q-66 72 -66 179 q0 107 66.5 178 q66.5 71 171.5 71 q55 0 98.5 -23.5 q43.5 -23.5 70.5 -60.5 l2 0 l0 167 l-163 0 l0 63 ZM188.5 359 q-41.5 -50 -41.5 -121 q0 -71 41.5 -121.5 q41.5 -50.5 115.5 -50.5 q70 0 115 50.5 q45 50.5 45 120.5 q0 70 -45 121 q-45 51 -115 51 q-74 0 -115.5 -50 Z" /><glyph glyph-name="Emacron" unicode="&#x112;" d="M185 324 l0 -236 l370 0 l0 -88 l-469 0 l0 708 l454 0 l0 -87 l-355 0 l0 -212 l334 0 l0 -85 l-334 0 ZM462 864 l0 -67 l-296 0 l0 67 l296 0 Z" /><glyph glyph-name="emacron" unicode="&#x113;" d="M146 279 l282 0 q-2 59 -36 96.5 q-34 37.5 -97 37.5 q-60 0 -102 -39 q-42 -39 -47 -95 ZM523 241 q0 -21 -1 -32 l-376 0 q2 -61 47 -102.5 q45 -41.5 107 -41.5 q89 0 138 72 l66 -53 q-75 -97 -204 -97 q-109 0 -179.5 69 q-70.5 69 -70.5 180 q0 110 70 180.5 q70 70.5 175 70.5 q105 0 166.5 -66.5 q61.5 -66.5 61.5 -179.5 ZM444 664 l0 -67 l-296 0 l0 67 l296 0 Z" /><glyph glyph-name="Ebreve" unicode="&#x114;" d="M185 324 l0 -236 l370 0 l0 -88 l-469 0 l0 708 l454 0 l0 -87 l-355 0 l0 -212 l334 0 l0 -85 l-334 0 ZM421 908 l55 0 q-6 -67 -48.5 -102.5 q-42.5 -35.5 -110.5 -35.5 q-69 0 -112 35.5 q-43 35.5 -47 102.5 l56 0 q6 -36 34.5 -54 q28.5 -18 68.5 -18 q88 0 104 72 Z" /><glyph glyph-name="ebreve" unicode="&#x115;" d="M146 279 l282 0 q-2 59 -36 96.5 q-34 37.5 -97 37.5 q-60 0 -102 -39 q-42 -39 -47 -95 ZM523 241 q0 -21 -1 -32 l-376 0 q2 -61 47 -102.5 q45 -41.5 107 -41.5 q89 0 138 72 l66 -53 q-75 -97 -204 -97 q-109 0 -179.5 69 q-70.5 69 -70.5 180 q0 110 70 180.5 q70 70.5 175 70.5 q105 0 166.5 -66.5 q61.5 -66.5 61.5 -179.5 ZM403 708 l55 0 q-6 -67 -48.5 -102.5 q-42.5 -35.5 -110.5 -35.5 q-69 0 -112 35.5 q-43 35.5 -47 102.5 l56 0 q6 -36 34.5 -54 q28.5 -18 68.5 -18 q88 0 104 72 Z" /><glyph glyph-name="Edotaccent" unicode="&#x116;" d="M185 324 l0 -236 l370 0 l0 -88 l-469 0 l0 708 l454 0 l0 -87 l-355 0 l0 -212 l334 0 l0 -85 l-334 0 ZM377 845 q0 -25 -18.5 -42.5 q-18.5 -17.5 -44.5 -17.5 q-26 0 -44 17.5 q-18 17.5 -18 42.5 q0 25 18 43 q18 18 44 18 q26 0 44.5 -17.5 q18.5 -17.5 18.5 -43.5 Z" /><glyph glyph-name="edotaccent" unicode="&#x117;" d="M146 279 l282 0 q-2 59 -36 96.5 q-34 37.5 -97 37.5 q-60 0 -102 -39 q-42 -39 -47 -95 ZM523 241 q0 -21 -1 -32 l-376 0 q2 -61 47 -102.5 q45 -41.5 107 -41.5 q89 0 138 72 l66 -53 q-75 -97 -204 -97 q-109 0 -179.5 69 q-70.5 69 -70.5 180 q0 110 70 180.5 q70 70.5 175 70.5 q105 0 166.5 -66.5 q61.5 -66.5 61.5 -179.5 ZM359 645 q0 -25 -18.5 -42.5 q-18.5 -17.5 -44.5 -17.5 q-26 0 -44 17.5 q-18 17.5 -18 42.5 q0 25 18 43 q18 18 44 18 q26 0 44.5 -17.5 q18.5 -17.5 18.5 -43.5 Z" /><glyph glyph-name="Eogonek" unicode="&#x118;" d="M568 -144 l22 -45 q-44 -37 -95 -37 q-39 0 -68 24 q-29 24 -29 63 q0 67 87 139 l-399 0 l0 708 l454 0 l0 -87 l-355 0 l0 -212 l334 0 l0 -85 l-334 0 l0 -236 l370 0 l0 -88 l-15 0 q-73 -71 -73 -119 q0 -19 14 -33 q14 -14 34 -14 q29 0 53 22 Z" /><glyph glyph-name="eogonek" unicode="&#x119;" d="M378 -144 l22 -45 q-44 -37 -95 -37 q-39 0 -68 24 q-29 24 -29 63 q0 62 73 127 q-102 6 -166.5 74 q-64.5 68 -64.5 174 q0 110 70 180.5 q70 70.5 175 70.5 q105 0 166.5 -66.5 q61.5 -66.5 61.5 -179.5 q0 -21 -1 -32 l-376 0 q2 -61 47 -102.5 q45 -41.5 107 -41.5 q89 0 138 72 l66 -53 q-64 -82 -164 -94 q-63 -65 -63 -109 q0 -19 14 -33 q14 -14 34 -14 q29 0 53 22 ZM146 279 l282 0 q-2 59 -36 96.5 q-34 37.5 -97 37.5 q-60 0 -102 -39 q-42 -39 -47 -95 Z" /><glyph glyph-name="Ecaron" unicode="&#x11a;" d="M185 324 l0 -236 l370 0 l0 -88 l-469 0 l0 708 l454 0 l0 -87 l-355 0 l0 -212 l334 0 l0 -85 l-334 0 ZM482 908 l-112 -144 l-107 0 l-111 144 l90 0 l76 -99 l76 99 l88 0 Z" /><glyph glyph-name="ecaron" unicode="&#x11b;" d="M146 279 l282 0 q-2 59 -36 96.5 q-34 37.5 -97 37.5 q-60 0 -102 -39 q-42 -39 -47 -95 ZM523 241 q0 -21 -1 -32 l-376 0 q2 -61 47 -102.5 q45 -41.5 107 -41.5 q89 0 138 72 l66 -53 q-75 -97 -204 -97 q-109 0 -179.5 69 q-70.5 69 -70.5 180 q0 110 70 180.5 q70 70.5 175 70.5 q105 0 166.5 -66.5 q61.5 -66.5 61.5 -179.5 ZM461 708 l-112 -144 l-107 0 l-111 144 l90 0 l76 -99 l76 99 l88 0 Z" /><glyph glyph-name="Gcircumflex" unicode="&#x11c;" d="M689 634 l-69 -72 q-70 77 -192 77 q-121 0 -195.5 -82 q-74.5 -82 -74.5 -202 q0 -122 74.5 -203 q74.5 -81 198.5 -81 q100 0 165 35 l0 197 l-157 0 l0 84 l255 0 l0 -343 q-115 -62 -266 -62 q-166 0 -272 104.5 q-106 104.5 -106 268.5 q0 164 107 267.5 q107 103.5 270 103.5 q167 0 262 -92 ZM481 908 l112 -144 l-91 0 l-75 99 l-76 -99 l-90 0 l112 144 l108 0 Z" /><glyph glyph-name="gcircumflex" unicode="&#x11d;" d="M58 -154 l60 73 q31 -35 78 -56 q47 -21 95 -21 q167 0 167 175 l0 61 l-2 0 q-26 -39 -71 -60.5 q-45 -21.5 -96 -21.5 q-107 0 -173 70 q-66 70 -66 174 q0 105 66 176 q66 71 172 71 q53 0 99 -23 q46 -23 72 -66 l2 0 l0 76 l91 0 l0 -450 q0 -54 -13.5 -99.5 q-13.5 -45.5 -43 -83.5 q-29.5 -38 -82 -59.5 q-52.5 -21.5 -123.5 -21.5 q-62 0 -125 23 q-63 23 -107 63 ZM147 242 q0 -69 43 -118 q43 -49 114 -49 q72 0 116.5 47.5 q44.5 47.5 44.5 119.5 q0 69 -45.5 118 q-45.5 49 -115.5 49 q-72 0 -114.5 -48 q-42.5 -48 -42.5 -119 ZM364 708 l112 -144 l-91 0 l-75 99 l-76 -99 l-90 0 l112 144 l108 0 Z" /><glyph glyph-name="Gbreve" unicode="&#x11e;" d="M689 634 l-69 -72 q-70 77 -192 77 q-121 0 -195.5 -82 q-74.5 -82 -74.5 -202 q0 -122 74.5 -203 q74.5 -81 198.5 -81 q100 0 165 35 l0 197 l-157 0 l0 84 l255 0 l0 -343 q-115 -62 -266 -62 q-166 0 -272 104.5 q-106 104.5 -106 268.5 q0 164 107 267.5 q107 103.5 270 103.5 q167 0 262 -92 ZM531 908 l55 0 q-6 -67 -48.5 -102.5 q-42.5 -35.5 -110.5 -35.5 q-69 0 -112 35.5 q-43 35.5 -47 102.5 l56 0 q6 -36 34.5 -54 q28.5 -18 68.5 -18 q88 0 104 72 Z" /><glyph glyph-name="gbreve" unicode="&#x11f;" d="M58 -154 l60 73 q31 -35 78 -56 q47 -21 95 -21 q167 0 167 175 l0 61 l-2 0 q-26 -39 -71 -60.5 q-45 -21.5 -96 -21.5 q-107 0 -173 70 q-66 70 -66 174 q0 105 66 176 q66 71 172 71 q53 0 99 -23 q46 -23 72 -66 l2 0 l0 76 l91 0 l0 -450 q0 -54 -13.5 -99.5 q-13.5 -45.5 -43 -83.5 q-29.5 -38 -82 -59.5 q-52.5 -21.5 -123.5 -21.5 q-62 0 -125 23 q-63 23 -107 63 ZM147 242 q0 -69 43 -118 q43 -49 114 -49 q72 0 116.5 47.5 q44.5 47.5 44.5 119.5 q0 69 -45.5 118 q-45.5 49 -115.5 49 q-72 0 -114.5 -48 q-42.5 -48 -42.5 -119 ZM410 708 l55 0 q-6 -67 -48.5 -102.5 q-42.5 -35.5 -110.5 -35.5 q-69 0 -112 35.5 q-43 35.5 -47 102.5 l56 0 q6 -36 34.5 -54 q28.5 -18 68.5 -18 q88 0 104 72 Z" /><glyph glyph-name="Gdotaccent" unicode="&#x120;" d="M689 634 l-69 -72 q-70 77 -192 77 q-121 0 -195.5 -82 q-74.5 -82 -74.5 -202 q0 -122 74.5 -203 q74.5 -81 198.5 -81 q100 0 165 35 l0 197 l-157 0 l0 84 l255 0 l0 -343 q-115 -62 -266 -62 q-166 0 -272 104.5 q-106 104.5 -106 268.5 q0 164 107 267.5 q107 103.5 270 103.5 q167 0 262 -92 ZM489 845 q0 -25 -18.5 -42.5 q-18.5 -17.5 -44.5 -17.5 q-26 0 -44 17.5 q-18 17.5 -18 42.5 q0 25 18 43 q18 18 44 18 q26 0 44.5 -17.5 q18.5 -17.5 18.5 -43.5 Z" /><glyph glyph-name="gdotaccent" unicode="&#x121;" d="M58 -154 l60 73 q31 -35 78 -56 q47 -21 95 -21 q167 0 167 175 l0 61 l-2 0 q-26 -39 -71 -60.5 q-45 -21.5 -96 -21.5 q-107 0 -173 70 q-66 70 -66 174 q0 105 66 176 q66 71 172 71 q53 0 99 -23 q46 -23 72 -66 l2 0 l0 76 l91 0 l0 -450 q0 -54 -13.5 -99.5 q-13.5 -45.5 -43 -83.5 q-29.5 -38 -82 -59.5 q-52.5 -21.5 -123.5 -21.5 q-62 0 -125 23 q-63 23 -107 63 ZM147 242 q0 -69 43 -118 q43 -49 114 -49 q72 0 116.5 47.5 q44.5 47.5 44.5 119.5 q0 69 -45.5 118 q-45.5 49 -115.5 49 q-72 0 -114.5 -48 q-42.5 -48 -42.5 -119 ZM380 645 q0 -25 -18.5 -42.5 q-18.5 -17.5 -44.5 -17.5 q-26 0 -44 17.5 q-18 17.5 -18 42.5 q0 25 18 43 q18 18 44 18 q26 0 44.5 -17.5 q18.5 -17.5 18.5 -43.5 Z" /><glyph glyph-name="Gcommaaccent" unicode="&#x122;" d="M689 634 l-69 -72 q-70 77 -192 77 q-121 0 -195.5 -82 q-74.5 -82 -74.5 -202 q0 -122 74.5 -203 q74.5 -81 198.5 -81 q100 0 165 35 l0 197 l-157 0 l0 84 l255 0 l0 -343 q-115 -62 -266 -62 q-166 0 -272 104.5 q-106 104.5 -106 268.5 q0 164 107 267.5 q107 103.5 270 103.5 q167 0 262 -92 ZM490 -45 l-78 -190 l-79 0 l64 190 l93 0 Z" /><glyph glyph-name="gcommaaccent" unicode="&#x123;" d="M58 -154 l60 73 q31 -35 78 -56 q47 -21 95 -21 q167 0 167 175 l0 61 l-2 0 q-26 -39 -71 -60.5 q-45 -21.5 -96 -21.5 q-107 0 -173 70 q-66 70 -66 174 q0 105 66 176 q66 71 172 71 q53 0 99 -23 q46 -23 72 -66 l2 0 l0 76 l91 0 l0 -450 q0 -54 -13.5 -99.5 q-13.5 -45.5 -43 -83.5 q-29.5 -38 -82 -59.5 q-52.5 -21.5 -123.5 -21.5 q-62 0 -125 23 q-63 23 -107 63 ZM147 242 q0 -69 43 -118 q43 -49 114 -49 q72 0 116.5 47.5 q44.5 47.5 44.5 119.5 q0 69 -45.5 118 q-45.5 49 -115.5 49 q-72 0 -114.5 -48 q-42.5 -48 -42.5 -119 ZM272 564 l78 190 l79 0 l-64 -190 l-93 0 Z" /><glyph glyph-name="Hcircumflex" unicode="&#x124;" d="M86 0 l0 708 l99 0 l0 -296 l358 0 l0 296 l100 0 l0 -708 l-100 0 l0 324 l-358 0 l0 -324 l-99 0 ZM418 908 l112 -144 l-91 0 l-75 99 l-76 -99 l-90 0 l112 144 l108 0 Z" /><glyph glyph-name="hcircumflex" unicode="&#x125;" d="M177 402 l2 0 q17 36 58.5 60.5 q41.5 24.5 91.5 24.5 q87 0 132 -54 q45 -54 45 -139 l0 -294 l-94 0 l0 262 q0 145 -107 145 q-56 0 -92 -43 q-36 -43 -36 -113 l0 -251 l-94 0 l0 756 l94 0 l0 -354 ZM349 940 l112 -144 l-91 0 l-75 99 l-76 -99 l-90 0 l112 144 l108 0 Z" /><glyph glyph-name="Hbar" unicode="&#x126;" d="M86 0 l0 708 l99 0 l0 -145 l358 0 l0 145 l100 0 l0 -708 l-100 0 l0 324 l-358 0 l0 -324 l-99 0 ZM185 412 l358 0 l0 88 l-358 0 l0 -88 Z" /><glyph glyph-name="hbar" unicode="&#x127;" d="M29 633 l54 0 l0 123 l94 0 l0 -123 l164 0 l0 -63 l-164 0 l0 -168 l2 0 q17 36 58.5 60.5 q41.5 24.5 91.5 24.5 q87 0 132.5 -54.5 q45.5 -54.5 45.5 -138.5 l0 -294 l-95 0 l0 262 q0 145 -107 145 q-56 0 -92 -43 q-36 -43 -36 -113 l0 -251 l-94 0 l0 570 l-54 0 l0 63 Z" /><glyph glyph-name="Itilde" unicode="&#x128;" d="M185 708 l0 -708 l-99 0 l0 708 l99 0 ZM17 772 l-55 0 q20 116 102 116 q33 0 75 -20 q48 -22 67 -22 q34 0 48 46 l54 0 q-20 -116 -102 -116 q-31 0 -77 21 q-42 21 -65 21 q-35 0 -47 -46 Z" /><glyph glyph-name="itilde" unicode="&#x129;" d="M176 474 l0 -474 l-94 0 l0 474 l94 0 ZM13 572 l-55 0 q20 116 102 116 q33 0 75 -20 q48 -22 67 -22 q34 0 48 46 l54 0 q-20 -116 -102 -116 q-31 0 -77 21 q-42 21 -65 21 q-35 0 -47 -46 Z" /><glyph glyph-name="Imacron" unicode="&#x12a;" d="M185 708 l0 -708 l-99 0 l0 708 l99 0 ZM282 864 l0 -67 l-296 0 l0 67 l296 0 Z" /><glyph glyph-name="imacron" unicode="&#x12b;" d="M176 474 l0 -474 l-94 0 l0 474 l94 0 ZM278 664 l0 -67 l-296 0 l0 67 l296 0 Z" /><glyph glyph-name="Ibreve" unicode="&#x12c;" d="M185 708 l0 -708 l-99 0 l0 708 l99 0 ZM239 908 l55 0 q-6 -67 -48.5 -102.5 q-42.5 -35.5 -110.5 -35.5 q-69 0 -112 35.5 q-43 35.5 -47 102.5 l56 0 q6 -36 34.5 -54 q28.5 -18 68.5 -18 q88 0 104 72 Z" /><glyph glyph-name="ibreve" unicode="&#x12d;" d="M176 474 l0 -474 l-94 0 l0 474 l94 0 ZM233 708 l55 0 q-6 -67 -48.5 -102.5 q-42.5 -35.5 -110.5 -35.5 q-69 0 -112 35.5 q-43 35.5 -47 102.5 l56 0 q6 -36 34.5 -54 q28.5 -18 68.5 -18 q88 0 104 72 Z" /><glyph glyph-name="Iogonek" unicode="&#x12e;" d="M205 -144 l22 -45 q-44 -37 -95 -37 q-39 0 -68 24 q-29 24 -29 63 q0 67 87 139 l-36 0 l0 708 l99 0 l0 -708 l-8 0 q-73 -71 -73 -119 q0 -19 14 -33 q14 -14 34 -14 q29 0 53 22 Z" /><glyph glyph-name="iogonek" unicode="&#x12f;" d="M193 -144 l22 -45 q-44 -37 -95 -37 q-39 0 -68 24 q-29 24 -29 63 q0 67 87 139 l-28 0 l0 474 l94 0 l0 -474 l-11 0 q-73 -71 -73 -119 q0 -19 14 -33 q14 -14 34 -14 q29 0 53 22 ZM192 645 q0 -25 -18.5 -42.5 q-18.5 -17.5 -44.5 -17.5 q-26 0 -44 17.5 q-18 17.5 -18 42.5 q0 25 18 43 q18 18 44 18 q26 0 44.5 -17.5 q18.5 -17.5 18.5 -43.5 Z" /><glyph glyph-name="Idotaccent" unicode="&#x130;" d="M185 708 l0 -708 l-99 0 l0 708 l99 0 ZM200 845 q0 -25 -18.5 -42.5 q-18.5 -17.5 -44.5 -17.5 q-26 0 -44 17.5 q-18 17.5 -18 42.5 q0 25 18 43 q18 18 44 18 q26 0 44.5 -17.5 q18.5 -17.5 18.5 -43.5 Z" /><glyph glyph-name="dotlessi" unicode="&#x131;" d="M176 474 l0 -474 l-94 0 l0 474 l94 0 Z" /><glyph glyph-name="IJ" unicode="&#x132;" d="M185 708 l0 -708 l-99 0 l0 708 l99 0 ZM278 132 l92 26 q8 -39 35.5 -63.5 q27.5 -24.5 66.5 -24.5 q107 0 107 151 l0 487 l99 0 l0 -491 q0 -32 -5 -62 q-5 -30 -18.5 -62.5 q-13.5 -32.5 -35 -56 q-21.5 -23.5 -58 -39 q-36.5 -15.5 -84.5 -15.5 q-79 0 -131 41 q-52 41 -68 109 Z" /><glyph glyph-name="ij" unicode="&#x133;" d="M176 474 l0 -474 l-94 0 l0 474 l94 0 ZM192 645 q0 -25 -18.5 -42.5 q-18.5 -17.5 -44.5 -17.5 q-26 0 -44 17.5 q-18 17.5 -18 42.5 q0 25 18 43 q18 18 44 18 q26 0 44.5 -17.5 q18.5 -17.5 18.5 -43.5 ZM224 -234 l10 80 q20 -5 38 -5 q39 0 52.5 26 q13.5 26 13.5 75 l0 532 l94 0 l0 -535 q0 -179 -154 -179 q-24 0 -54 6 ZM448 645 q0 -25 -18.5 -42.5 q-18.5 -17.5 -44.5 -17.5 q-26 0 -44.5 17.5 q-18.5 17.5 -18.5 42.5 q0 25 18.5 43 q18.5 18 44.5 18 q26 0 44.5 -17.5 q18.5 -17.5 18.5 -43.5 Z" /><glyph glyph-name="Jcircumflex" unicode="&#x134;" d="M15 132 l92 26 q8 -39 35.5 -63.5 q27.5 -24.5 66.5 -24.5 q107 0 107 151 l0 487 l99 0 l0 -491 q0 -32 -5 -62 q-5 -30 -18.5 -62.5 q-13.5 -32.5 -35 -56 q-21.5 -23.5 -58 -39 q-36.5 -15.5 -84.5 -15.5 q-79 0 -131 41 q-52 41 -68 109 ZM419 908 l112 -144 l-91 0 l-75 99 l-76 -99 l-90 0 l112 144 l108 0 Z" /><glyph glyph-name="jcircumflex" unicode="&#x135;" d="M-31 -234 l10 80 q20 -5 38 -5 q39 0 52.5 26 q13.5 26 13.5 75 l0 532 l94 0 l0 -535 q0 -179 -154 -179 q-24 0 -54 6 ZM182 708 l112 -144 l-91 0 l-75 99 l-76 -99 l-90 0 l112 144 l108 0 Z" /><glyph glyph-name="Kcommaaccent" unicode="&#x136;" d="M185 708 l0 -312 l2 0 l316 312 l137 0 l-344 -324 l365 -384 l-142 0 l-332 366 l-2 0 l0 -366 l-99 0 l0 708 l99 0 ZM400 -45 l-78 -190 l-79 0 l64 190 l93 0 Z" /><glyph glyph-name="kcommaaccent" unicode="&#x137;" d="M177 756 l0 -488 l3 0 l199 206 l126 0 l-222 -215 l241 -259 l-130 0 l-214 246 l-3 0 l0 -246 l-94 0 l0 756 l94 0 ZM333 -45 l-78 -190 l-79 0 l64 190 l93 0 Z" /><glyph glyph-name="kgreenlandic" unicode="&#x138;" d="M177 474 l0 -206 l3 0 l199 206 l126 0 l-222 -215 l241 -259 l-130 0 l-214 246 l-3 0 l0 -246 l-94 0 l0 474 l94 0 Z" /><glyph glyph-name="Lacute" unicode="&#x139;" d="M185 708 l0 -620 l316 0 l0 -88 l-415 0 l0 708 l99 0 ZM303 908 l-137 -144 l-76 0 l99 144 l114 0 Z" /><glyph glyph-name="lacute" unicode="&#x13a;" d="M177 756 l0 -756 l-94 0 l0 756 l94 0 ZM296 936 l-136 -144 l-77 0 l100 144 l113 0 Z" /><glyph glyph-name="Lcommaaccent" unicode="&#x13b;" d="M185 708 l0 -620 l316 0 l0 -88 l-415 0 l0 708 l99 0 ZM355 -45 l-78 -190 l-79 0 l64 190 l93 0 Z" /><glyph glyph-name="lcommaaccent" unicode="&#x13c;" d="M177 756 l0 -756 l-94 0 l0 756 l94 0 ZM193 -45 l-78 -190 l-79 0 l64 190 l93 0 Z" /><glyph glyph-name="Lcaron" unicode="&#x13d;" d="M185 708 l0 -620 l316 0 l0 -88 l-415 0 l0 708 l99 0 ZM386 708 l-78 -190 l-79 0 l64 190 l93 0 Z" /><glyph glyph-name="lcaron" unicode="&#x13e;" d="M177 756 l0 -756 l-94 0 l0 756 l94 0 ZM369 708 l-78 -190 l-79 0 l64 190 l93 0 Z" /><glyph glyph-name="Ldot" unicode="&#x13f;" d="M185 708 l0 -620 l316 0 l0 -88 l-415 0 l0 708 l99 0 ZM411 425 q0 -25 -18.5 -42.5 q-18.5 -17.5 -44.5 -17.5 q-26 0 -44 17.5 q-18 17.5 -18 42.5 q0 25 18 43 q18 18 44 18 q26 0 44.5 -17.5 q18.5 -17.5 18.5 -43.5 Z" /><glyph glyph-name="ldot" unicode="&#x140;" d="M177 756 l0 -756 l-94 0 l0 756 l94 0 ZM350 455 q0 -25 -18.5 -42.5 q-18.5 -17.5 -44.5 -17.5 q-26 0 -44 17.5 q-18 17.5 -18 42.5 q0 25 18 43 q18 18 44 18 q26 0 44.5 -17.5 q18.5 -17.5 18.5 -43.5 Z" /><glyph glyph-name="Lslash" unicode="&#x141;" d="M185 708 l0 -323 l211 184 l0 -90 l-211 -184 l0 -207 l316 0 l0 -88 l-415 0 l0 221 l-76 -66 l0 91 l76 65 l0 397 l99 0 Z" /><glyph glyph-name="lslash" unicode="&#x142;" d="M176 756 l0 -276 l75 76 l0 -90 l-75 -75 l0 -391 l-93 0 l0 314 l-75 -76 l0 92 l75 75 l0 351 l93 0 Z" /><glyph glyph-name="Nacute" unicode="&#x143;" d="M215 708 l370 -566 l2 0 l0 566 l99 0 l0 -708 l-125 0 l-374 578 l-2 0 l0 -578 l-99 0 l0 708 l129 0 ZM528 908 l-137 -144 l-76 0 l99 144 l114 0 Z" /><glyph glyph-name="nacute" unicode="&#x144;" d="M77 474 l89 0 q4 -48 4 -78 l3 0 q18 39 61 65 q43 26 93 26 q87 0 132 -54 q45 -54 45 -139 l0 -294 l-94 0 l0 263 q0 145 -108 145 q-56 0 -91.5 -43 q-35.5 -43 -35.5 -113 l0 -252 l-94 0 l0 372 q0 61 -4 102 ZM446 708 l-136 -144 l-77 0 l100 144 l113 0 Z" /><glyph glyph-name="Ncommaaccent" unicode="&#x145;" d="M215 708 l370 -566 l2 0 l0 566 l99 0 l0 -708 l-125 0 l-374 578 l-2 0 l0 -578 l-99 0 l0 708 l129 0 ZM455 -45 l-78 -190 l-79 0 l64 190 l93 0 Z" /><glyph glyph-name="ncommaaccent" unicode="&#x146;" d="M77 474 l89 0 q4 -48 4 -78 l3 0 q18 39 61 65 q43 26 93 26 q87 0 132 -54 q45 -54 45 -139 l0 -294 l-94 0 l0 263 q0 145 -108 145 q-56 0 -91.5 -43 q-35.5 -43 -35.5 -113 l0 -252 l-94 0 l0 372 q0 61 -4 102 ZM355 -45 l-78 -190 l-79 0 l64 190 l93 0 Z" /><glyph glyph-name="Ncaron" unicode="&#x147;" d="M215 708 l370 -566 l2 0 l0 566 l99 0 l0 -708 l-125 0 l-374 578 l-2 0 l0 -578 l-99 0 l0 708 l129 0 ZM554 908 l-112 -144 l-107 0 l-111 144 l90 0 l76 -99 l76 99 l88 0 Z" /><glyph glyph-name="ncaron" unicode="&#x148;" d="M77 474 l89 0 q4 -48 4 -78 l3 0 q18 39 61 65 q43 26 93 26 q87 0 132 -54 q45 -54 45 -139 l0 -294 l-94 0 l0 263 q0 145 -108 145 q-56 0 -91.5 -43 q-35.5 -43 -35.5 -113 l0 -252 l-94 0 l0 372 q0 61 -4 102 ZM457 708 l-112 -144 l-107 0 l-111 144 l90 0 l76 -99 l76 99 l88 0 Z" /><glyph glyph-name="napostrophe" unicode="&#x149;" d="M97 474 l89 0 q4 -48 4 -78 l3 0 q18 39 61 65 q43 26 93 26 q87 0 132 -54 q45 -54 45 -139 l0 -294 l-94 0 l0 263 q0 145 -108 145 q-56 0 -91.5 -43 q-35.5 -43 -35.5 -113 l0 -252 l-94 0 l0 372 q0 61 -4 102 ZM145 708 l-78 -190 l-79 0 l64 190 l93 0 Z" /><glyph glyph-name="Eng" unicode="&#x14a;" d="M478 -234 l10 80 q20 -5 38 -5 q39 0 52.5 26 q13.5 26 13.5 75 l0 48 l-405 588 l-2 0 l0 -578 l-99 0 l0 708 l129 0 l370 -537 l2 0 l0 537 l99 0 l0 -769 q0 -179 -154 -179 q-24 0 -54 6 Z" /><glyph glyph-name="eng" unicode="&#x14b;" d="M296 -234 l10 80 q20 -5 38 -5 q39 0 52.5 26 q13.5 26 13.5 75 l0 321 q0 145 -108 145 q-56 0 -91.5 -43 q-35.5 -43 -35.5 -113 l0 -252 l-94 0 l0 372 q0 61 -4 102 l89 0 q4 -48 4 -78 l3 0 q18 39 61 65 q43 26 93 26 q87 0 132 -54 q45 -54 45 -139 l0 -355 q0 -179 -154 -179 q-24 0 -54 6 Z" /><glyph glyph-name="Omacron" unicode="&#x14c;" d="M800 355 q0 -163 -106.5 -268 q-106.5 -105 -269.5 -105 q-162 0 -268 105 q-106 105 -106 268 q0 164 105.5 267.5 q105.5 103.5 268.5 103.5 q163 0 269.5 -103.5 q106.5 -103.5 106.5 -267.5 ZM693 355 q0 120 -74 202 q-74 82 -195 82 q-119 0 -193 -82 q-74 -82 -74 -202 q0 -121 74 -202.5 q74 -81.5 193 -81.5 q121 0 195 81.5 q74 81.5 74 202.5 ZM573 864 l0 -67 l-296 0 l0 67 l296 0 Z" /><glyph glyph-name="omacron" unicode="&#x14d;" d="M488 417 q73 -70 73 -179 q0 -109 -73.5 -180 q-73.5 -71 -182.5 -71 q-109 0 -182 71 q-73 71 -73 180 q0 109 72.5 179 q72.5 70 182.5 70 q110 0 183 -70 ZM420.5 116.5 q42.5 50.5 42.5 121.5 q0 71 -42.5 121 q-42.5 50 -115.5 50 q-73 0 -115.5 -50 q-42.5 -50 -42.5 -121 q0 -71 42.5 -121.5 q42.5 -50.5 115.5 -50.5 q73 0 115.5 50.5 ZM454 664 l0 -67 l-296 0 l0 67 l296 0 Z" /><glyph glyph-name="Obreve" unicode="&#x14e;" d="M800 355 q0 -163 -106.5 -268 q-106.5 -105 -269.5 -105 q-162 0 -268 105 q-106 105 -106 268 q0 164 105.5 267.5 q105.5 103.5 268.5 103.5 q163 0 269.5 -103.5 q106.5 -103.5 106.5 -267.5 ZM693 355 q0 120 -74 202 q-74 82 -195 82 q-119 0 -193 -82 q-74 -82 -74 -202 q0 -121 74 -202.5 q74 -81.5 193 -81.5 q121 0 195 81.5 q74 81.5 74 202.5 ZM528 908 l55 0 q-6 -67 -48.5 -102.5 q-42.5 -35.5 -110.5 -35.5 q-69 0 -112 35.5 q-43 35.5 -47 102.5 l56 0 q6 -36 34.5 -54 q28.5 -18 68.5 -18 q88 0 104 72 Z" /><glyph glyph-name="obreve" unicode="&#x14f;" d="M488 417 q73 -70 73 -179 q0 -109 -73.5 -180 q-73.5 -71 -182.5 -71 q-109 0 -182 71 q-73 71 -73 180 q0 109 72.5 179 q72.5 70 182.5 70 q110 0 183 -70 ZM420.5 116.5 q42.5 50.5 42.5 121.5 q0 71 -42.5 121 q-42.5 50 -115.5 50 q-73 0 -115.5 -50 q-42.5 -50 -42.5 -121 q0 -71 42.5 -121.5 q42.5 -50.5 115.5 -50.5 q73 0 115.5 50.5 ZM410 708 l55 0 q-6 -67 -48.5 -102.5 q-42.5 -35.5 -110.5 -35.5 q-69 0 -112 35.5 q-43 35.5 -47 102.5 l56 0 q6 -36 34.5 -54 q28.5 -18 68.5 -18 q88 0 104 72 Z" /><glyph glyph-name="Ohungarumlaut" unicode="&#x150;" d="M800 355 q0 -163 -106.5 -268 q-106.5 -105 -269.5 -105 q-162 0 -268 105 q-106 105 -106 268 q0 164 105.5 267.5 q105.5 103.5 268.5 103.5 q163 0 269.5 -103.5 q106.5 -103.5 106.5 -267.5 ZM693 355 q0 120 -74 202 q-74 82 -195 82 q-119 0 -193 -82 q-74 -82 -74 -202 q0 -121 74 -202.5 q74 -81.5 193 -81.5 q121 0 195 81.5 q74 81.5 74 202.5 ZM500 908 l-137 -144 l-77 0 l100 144 l114 0 ZM682 908 l-136 -144 l-77 0 l100 144 l113 0 Z" /><glyph glyph-name="ohungarumlaut" unicode="&#x151;" d="M488 417 q73 -70 73 -179 q0 -109 -73.5 -180 q-73.5 -71 -182.5 -71 q-109 0 -182 71 q-73 71 -73 180 q0 109 72.5 179 q72.5 70 182.5 70 q110 0 183 -70 ZM420.5 116.5 q42.5 50.5 42.5 121.5 q0 71 -42.5 121 q-42.5 50 -115.5 50 q-73 0 -115.5 -50 q-42.5 -50 -42.5 -121 q0 -71 42.5 -121.5 q42.5 -50.5 115.5 -50.5 q73 0 115.5 50.5 ZM386 708 l-137 -144 l-77 0 l100 144 l114 0 ZM568 708 l-136 -144 l-77 0 l100 144 l113 0 Z" /><glyph glyph-name="OE" unicode="&#x152;" d="M432 708 l510 0 l0 -87 l-331 0 l0 -212 l310 0 l0 -85 l-310 0 l0 -236 l346 0 l0 -88 l-525 0 q-70 0 -136.5 22 q-66.5 22 -122 63.5 q-55.5 41.5 -89.5 111.5 q-34 70 -34 157 q0 90 34 160.5 q34 70.5 90 111.5 q56 41 121.5 61.5 q65.5 20.5 136.5 20.5 ZM452 621 q-133 0 -214.5 -69.5 q-81.5 -69.5 -81.5 -197.5 q0 -124 82.5 -195 q82.5 -71 213.5 -71 l60 0 l0 533 l-60 0 Z" /><glyph glyph-name="oe" unicode="&#x153;" d="M698 487 q106 0 167 -66.5 q61 -66.5 61 -179.5 q0 -21 -1 -32 l-377 0 q4 -61 48.5 -102.5 q44.5 -41.5 106.5 -41.5 q91 0 138 72 l65 -53 q-75 -97 -204 -97 q-65 0 -116.5 27 q-51.5 27 -82.5 75 q-31 -47 -83.5 -74.5 q-52.5 -27.5 -117.5 -27.5 q-109 0 -180.5 71 q-71.5 71 -71.5 180 q0 109 71.5 179 q71.5 70 180.5 70 q65 0 118 -27.5 q53 -27.5 84 -75.5 q32 47 82 75 q50 28 112 28 ZM420.5 116.5 q42.5 50.5 42.5 121.5 q0 71 -42.5 121 q-42.5 50 -115.5 50 q-73 0 -116 -50 q-43 -50 -43 -121 q0 -71 43 -121.5 q43 -50.5 116 -50.5 q73 0 115.5 50.5 ZM549 279 l283 0 q-2 59 -36.5 96.5 q-34.5 37.5 -97.5 37.5 q-60 0 -102 -39 q-42 -39 -47 -95 Z" /><glyph glyph-name="Racute" unicode="&#x154;" d="M185 315 l0 -315 l-99 0 l0 708 l227 0 q112 0 182 -47 q70 -47 70 -149 q0 -76 -47 -125 q-47 -49 -125 -62 l198 -325 l-120 0 l-180 315 l-106 0 ZM185 624 l0 -226 l114 0 q166 0 166 114 q0 112 -159 112 l-121 0 ZM435 908 l-137 -144 l-76 0 l99 144 l114 0 Z" /><glyph glyph-name="racute" unicode="&#x155;" d="M81 372 q0 61 -4 102 l89 0 q4 -48 4 -80 l3 0 q20 42 59 67.5 q39 25.5 86 25.5 q22 0 37 -4 l-4 -87 q-20 5 -43 5 q-64 0 -98.5 -44 q-34.5 -44 -34.5 -108 l0 -249 l-94 0 l0 372 ZM317 708 l-136 -144 l-77 0 l100 144 l113 0 Z" /><glyph glyph-name="Rcommaaccent" unicode="&#x156;" d="M185 315 l0 -315 l-99 0 l0 708 l227 0 q112 0 182 -47 q70 -47 70 -149 q0 -76 -47 -125 q-47 -49 -125 -62 l198 -325 l-120 0 l-180 315 l-106 0 ZM185 624 l0 -226 l114 0 q166 0 166 114 q0 112 -159 112 l-121 0 ZM379 -45 l-78 -190 l-79 0 l64 190 l93 0 Z" /><glyph glyph-name="rcommaaccent" unicode="&#x157;" d="M81 372 q0 61 -4 102 l89 0 q4 -48 4 -80 l3 0 q20 42 59 67.5 q39 25.5 86 25.5 q22 0 37 -4 l-4 -87 q-20 5 -43 5 q-64 0 -98.5 -44 q-34.5 -44 -34.5 -108 l0 -249 l-94 0 l0 372 ZM192 -45 l-78 -190 l-79 0 l64 190 l93 0 Z" /><glyph glyph-name="Rcaron" unicode="&#x158;" d="M185 315 l0 -315 l-99 0 l0 708 l227 0 q112 0 182 -47 q70 -47 70 -149 q0 -76 -47 -125 q-47 -49 -125 -62 l198 -325 l-120 0 l-180 315 l-106 0 ZM185 624 l0 -226 l114 0 q166 0 166 114 q0 112 -159 112 l-121 0 ZM459 908 l-112 -144 l-107 0 l-111 144 l90 0 l76 -99 l76 99 l88 0 Z" /><glyph glyph-name="rcaron" unicode="&#x159;" d="M81 372 q0 61 -4 102 l89 0 q4 -48 4 -80 l3 0 q20 42 59 67.5 q39 25.5 86 25.5 q22 0 37 -4 l-4 -87 q-20 5 -43 5 q-64 0 -98.5 -44 q-34.5 -44 -34.5 -108 l0 -249 l-94 0 l0 372 ZM378 708 l-112 -144 l-107 0 l-111 144 l90 0 l76 -99 l76 99 l88 0 Z" /><glyph glyph-name="Sacute" unicode="&#x15a;" d="M508 645 l-70 -68 q-22 30 -58.5 48 q-36.5 18 -79.5 18 q-54 0 -96 -29.5 q-42 -29.5 -42 -85.5 q0 -28 10 -47.5 q10 -19.5 34 -34 q24 -14.5 43 -22 q19 -7.5 58 -20.5 q39 -12 59.5 -19.5 q20.5 -7.5 53.5 -25.5 q33 -18 50.5 -37.5 q17.5 -19.5 31 -51.5 q13.5 -32 13.5 -73 q0 -104 -71.5 -159.5 q-71.5 -55.5 -173.5 -55.5 q-69 0 -131.5 26.5 q-62.5 26.5 -101.5 76.5 l77 65 q25 -37 67.5 -60 q42.5 -23 90.5 -23 q56 0 99 31.5 q43 31.5 43 89.5 q0 25 -10 45 q-10 20 -22 32 q-12 12 -39 24.5 q-27 12.5 -43.5 18.5 q-16.5 6 -53.5 17 q-40 13 -67.5 25.5 q-27.5 12.5 -57 35 q-29.5 22.5 -44.5 57.5 q-15 35 -15 81 q0 67 37 114.5 q37 47.5 90.5 67.5 q53.5 20 115.5 20 q61 0 115.5 -22 q54.5 -22 87.5 -59 ZM443 908 l-137 -144 l-76 0 l99 144 l114 0 Z" /><glyph glyph-name="sacute" unicode="&#x15b;" d="M402 409 l-65 -55 q-16 26 -45.5 42.5 q-29.5 16.5 -64.5 16.5 q-36 0 -62 -15.5 q-26 -15.5 -26 -46.5 q0 -28 25 -43 q25 -15 83 -28 q159 -35 159 -140 q0 -78 -54.5 -115.5 q-54.5 -37.5 -134.5 -37.5 q-56 0 -107 22 q-51 22 -84 63 l67 57 q19 -29 53.5 -47.5 q34.5 -18.5 72.5 -18.5 q40 0 67 16.5 q27 16.5 27 52.5 q0 31 -28.5 47 q-28.5 16 -95.5 32 q-28 7 -49 15 q-21 8 -43 22.5 q-22 14.5 -34 38 q-12 23.5 -12 55.5 q0 72 52.5 108.5 q52.5 36.5 126.5 36.5 q52 0 99.5 -20.5 q47.5 -20.5 72.5 -57.5 ZM372 708 l-136 -144 l-77 0 l100 144 l113 0 Z" /><glyph glyph-name="Scircumflex" unicode="&#x15c;" d="M508 645 l-70 -68 q-22 30 -58.5 48 q-36.5 18 -79.5 18 q-54 0 -96 -29.5 q-42 -29.5 -42 -85.5 q0 -28 10 -47.5 q10 -19.5 34 -34 q24 -14.5 43 -22 q19 -7.5 58 -20.5 q39 -12 59.5 -19.5 q20.5 -7.5 53.5 -25.5 q33 -18 50.5 -37.5 q17.5 -19.5 31 -51.5 q13.5 -32 13.5 -73 q0 -104 -71.5 -159.5 q-71.5 -55.5 -173.5 -55.5 q-69 0 -131.5 26.5 q-62.5 26.5 -101.5 76.5 l77 65 q25 -37 67.5 -60 q42.5 -23 90.5 -23 q56 0 99 31.5 q43 31.5 43 89.5 q0 25 -10 45 q-10 20 -22 32 q-12 12 -39 24.5 q-27 12.5 -43.5 18.5 q-16.5 6 -53.5 17 q-40 13 -67.5 25.5 q-27.5 12.5 -57 35 q-29.5 22.5 -44.5 57.5 q-15 35 -15 81 q0 67 37 114.5 q37 47.5 90.5 67.5 q53.5 20 115.5 20 q61 0 115.5 -22 q54.5 -22 87.5 -59 ZM357 908 l112 -144 l-91 0 l-75 99 l-76 -99 l-90 0 l112 144 l108 0 Z" /><glyph glyph-name="scircumflex" unicode="&#x15d;" d="M402 409 l-65 -55 q-16 26 -45.5 42.5 q-29.5 16.5 -64.5 16.5 q-36 0 -62 -15.5 q-26 -15.5 -26 -46.5 q0 -28 25 -43 q25 -15 83 -28 q159 -35 159 -140 q0 -78 -54.5 -115.5 q-54.5 -37.5 -134.5 -37.5 q-56 0 -107 22 q-51 22 -84 63 l67 57 q19 -29 53.5 -47.5 q34.5 -18.5 72.5 -18.5 q40 0 67 16.5 q27 16.5 27 52.5 q0 31 -28.5 47 q-28.5 16 -95.5 32 q-28 7 -49 15 q-21 8 -43 22.5 q-22 14.5 -34 38 q-12 23.5 -12 55.5 q0 72 52.5 108.5 q52.5 36.5 126.5 36.5 q52 0 99.5 -20.5 q47.5 -20.5 72.5 -57.5 ZM287 708 l112 -144 l-91 0 l-75 99 l-76 -99 l-90 0 l112 144 l108 0 Z" /><glyph glyph-name="Scedilla" unicode="&#x15e;" d="M508 645 l-70 -68 q-22 30 -58.5 48 q-36.5 18 -79.5 18 q-54 0 -96 -29.5 q-42 -29.5 -42 -85.5 q0 -28 10 -47.5 q10 -19.5 34 -34 q24 -14.5 43 -22 q19 -7.5 58 -20.5 q39 -12 59.5 -19.5 q20.5 -7.5 53.5 -25.5 q33 -18 50.5 -37.5 q17.5 -19.5 31 -51.5 q13.5 -32 13.5 -73 q0 -94 -58 -148.5 q-58 -54.5 -148 -64.5 l-35 -53 q9 2 27 2 q39 0 66.5 -18.5 q27.5 -18.5 27.5 -59.5 q0 -48 -38 -69 q-38 -21 -89 -21 q-57 0 -103 23 l20 42 q37 -17 77 -17 q22 0 41.5 9.5 q19.5 9.5 19.5 32.5 q0 38 -54 38 q-18 0 -41 -7 l-20 20 l50 76 q-66 2 -125 29 q-59 27 -96 74 l77 65 q25 -37 67.5 -60 q42.5 -23 90.5 -23 q56 0 99 31.5 q43 31.5 43 89.5 q0 25 -10 45 q-10 20 -22 32 q-12 12 -39 24.5 q-27 12.5 -43.5 18.5 q-16.5 6 -53.5 17 q-40 13 -67.5 25.5 q-27.5 12.5 -57 35 q-29.5 22.5 -44.5 57.5 q-15 35 -15 81 q0 67 37 114.5 q37 47.5 90.5 67.5 q53.5 20 115.5 20 q61 0 115.5 -22 q54.5 -22 87.5 -59 Z" /><glyph glyph-name="scedilla" unicode="&#x15f;" d="M402 409 l-65 -55 q-16 26 -45.5 42.5 q-29.5 16.5 -64.5 16.5 q-36 0 -62 -15.5 q-26 -15.5 -26 -46.5 q0 -28 25 -43 q25 -15 83 -28 q159 -35 159 -140 q0 -72 -46.5 -109 q-46.5 -37 -117.5 -43 l-38 -57 q9 2 27 2 q39 0 66.5 -18.5 q27.5 -18.5 27.5 -59.5 q0 -48 -38 -69 q-38 -21 -89 -21 q-57 0 -103 23 l20 42 q37 -17 77 -17 q22 0 41.5 9.5 q19.5 9.5 19.5 32.5 q0 38 -54 38 q-18 0 -41 -7 l-20 20 l54 83 q-107 8 -166 83 l67 57 q19 -29 53.5 -47.5 q34.5 -18.5 72.5 -18.5 q40 0 67 16.5 q27 16.5 27 52.5 q0 31 -28.5 47 q-28.5 16 -95.5 32 q-28 7 -49 15 q-21 8 -43 22.5 q-22 14.5 -34 38 q-12 23.5 -12 55.5 q0 72 52.5 108.5 q52.5 36.5 126.5 36.5 q52 0 99.5 -20.5 q47.5 -20.5 72.5 -57.5 Z" /><glyph glyph-name="Scaron" unicode="&#x160;" d="M508 645 l-70 -68 q-22 30 -58.5 48 q-36.5 18 -79.5 18 q-54 0 -96 -29.5 q-42 -29.5 -42 -85.5 q0 -28 10 -47.5 q10 -19.5 34 -34 q24 -14.5 43 -22 q19 -7.5 58 -20.5 q39 -12 59.5 -19.5 q20.5 -7.5 53.5 -25.5 q33 -18 50.5 -37.5 q17.5 -19.5 31 -51.5 q13.5 -32 13.5 -73 q0 -104 -71.5 -159.5 q-71.5 -55.5 -173.5 -55.5 q-69 0 -131.5 26.5 q-62.5 26.5 -101.5 76.5 l77 65 q25 -37 67.5 -60 q42.5 -23 90.5 -23 q56 0 99 31.5 q43 31.5 43 89.5 q0 25 -10 45 q-10 20 -22 32 q-12 12 -39 24.5 q-27 12.5 -43.5 18.5 q-16.5 6 -53.5 17 q-40 13 -67.5 25.5 q-27.5 12.5 -57 35 q-29.5 22.5 -44.5 57.5 q-15 35 -15 81 q0 67 37 114.5 q37 47.5 90.5 67.5 q53.5 20 115.5 20 q61 0 115.5 -22 q54.5 -22 87.5 -59 ZM463 908 l-112 -144 l-107 0 l-111 144 l90 0 l76 -99 l76 99 l88 0 Z" /><glyph glyph-name="scaron" unicode="&#x161;" d="M402 409 l-65 -55 q-16 26 -45.5 42.5 q-29.5 16.5 -64.5 16.5 q-36 0 -62 -15.5 q-26 -15.5 -26 -46.5 q0 -28 25 -43 q25 -15 83 -28 q159 -35 159 -140 q0 -78 -54.5 -115.5 q-54.5 -37.5 -134.5 -37.5 q-56 0 -107 22 q-51 22 -84 63 l67 57 q19 -29 53.5 -47.5 q34.5 -18.5 72.5 -18.5 q40 0 67 16.5 q27 16.5 27 52.5 q0 31 -28.5 47 q-28.5 16 -95.5 32 q-28 7 -49 15 q-21 8 -43 22.5 q-22 14.5 -34 38 q-12 23.5 -12 55.5 q0 72 52.5 108.5 q52.5 36.5 126.5 36.5 q52 0 99.5 -20.5 q47.5 -20.5 72.5 -57.5 ZM396 708 l-112 -144 l-107 0 l-111 144 l90 0 l76 -99 l76 99 l88 0 Z" /><glyph glyph-name="uni0162" unicode="&#x162;" d="M334 621 l0 -621 l-99 0 l0 621 l-227 0 l0 87 l553 0 l0 -87 l-227 0 ZM347 -45 l-78 -190 l-79 0 l64 190 l93 0 Z" /><glyph glyph-name="uni0163" unicode="&#x163;" d="M313 474 l0 -77 l-126 0 l0 -247 q0 -43 16 -61.5 q16 -18.5 51 -18.5 q31 0 55 12 l3 -77 q-36 -13 -80 -13 q-67 0 -102.5 37.5 q-35.5 37.5 -35.5 110.5 l0 257 l-91 0 l0 77 l91 0 l0 136 l93 0 l0 -136 l126 0 ZM261 -45 l-78 -190 l-79 0 l64 190 l93 0 Z" /><glyph glyph-name="Tcaron" unicode="&#x164;" d="M334 621 l0 -621 l-99 0 l0 621 l-227 0 l0 87 l553 0 l0 -87 l-227 0 ZM448 908 l-112 -144 l-107 0 l-111 144 l90 0 l76 -99 l76 99 l88 0 Z" /><glyph glyph-name="tcaron" unicode="&#x165;" d="M313 474 l0 -77 l-126 0 l0 -247 q0 -43 16 -61.5 q16 -18.5 51 -18.5 q31 0 55 12 l3 -77 q-36 -13 -80 -13 q-67 0 -102.5 37.5 q-35.5 37.5 -35.5 110.5 l0 257 l-91 0 l0 77 l91 0 l0 136 l93 0 l0 -136 l126 0 ZM375 731 l-78 -190 l-79 0 l64 190 l93 0 Z" /><glyph glyph-name="Tbar" unicode="&#x166;" d="M72 525 l163 0 l0 96 l-227 0 l0 87 l553 0 l0 -87 l-227 0 l0 -96 l163 0 l0 -63 l-163 0 l0 -462 l-99 0 l0 462 l-163 0 l0 63 Z" /><glyph glyph-name="tbar" unicode="&#x167;" d="M12 304 l82 0 l0 93 l-91 0 l0 77 l91 0 l0 136 l93 0 l0 -136 l126 0 l0 -77 l-126 0 l0 -93 l112 0 l0 -63 l-112 0 l0 -91 q0 -43 16 -61.5 q16 -18.5 51 -18.5 q31 0 55 12 l3 -77 q-36 -13 -80 -13 q-67 0 -102.5 37.5 q-35.5 37.5 -35.5 110.5 l0 101 l-82 0 l0 63 Z" /><glyph glyph-name="Utilde" unicode="&#x168;" d="M560 63.5 q-71 -81.5 -204 -81.5 q-133 0 -204 81.5 q-71 81.5 -71 198.5 l0 446 l99 0 l0 -440 q0 -83 42.5 -140 q42.5 -57 133.5 -57 q91 0 133.5 57 q42.5 57 42.5 140 l0 440 l99 0 l0 -446 q0 -117 -71 -198.5 ZM234 772 l-55 0 q20 116 102 116 q33 0 75 -20 q48 -22 67 -22 q34 0 48 46 l54 0 q-20 -116 -102 -116 q-31 0 -77 21 q-42 21 -65 21 q-35 0 -47 -46 Z" /><glyph glyph-name="utilde" unicode="&#x169;" d="M504 0 l-89 0 q-4 48 -4 78 l-2 0 q-19 -39 -62 -65 q-43 -26 -93 -26 q-87 0 -132 54 q-45 54 -45 139 l0 294 l94 0 l0 -262 q0 -146 108 -146 q57 0 92 43 q35 43 35 113 l0 252 l94 0 l0 -372 q0 -61 4 -102 ZM171 572 l-55 0 q20 116 102 116 q33 0 75 -20 q48 -22 67 -22 q34 0 48 46 l54 0 q-20 -116 -102 -116 q-31 0 -77 21 q-42 21 -65 21 q-35 0 -47 -46 Z" /><glyph glyph-name="Umacron" unicode="&#x16a;" d="M560 63.5 q-71 -81.5 -204 -81.5 q-133 0 -204 81.5 q-71 81.5 -71 198.5 l0 446 l99 0 l0 -440 q0 -83 42.5 -140 q42.5 -57 133.5 -57 q91 0 133.5 57 q42.5 57 42.5 140 l0 440 l99 0 l0 -446 q0 -117 -71 -198.5 ZM500 864 l0 -67 l-296 0 l0 67 l296 0 Z" /><glyph glyph-name="umacron" unicode="&#x16b;" d="M504 0 l-89 0 q-4 48 -4 78 l-2 0 q-19 -39 -62 -65 q-43 -26 -93 -26 q-87 0 -132 54 q-45 54 -45 139 l0 294 l94 0 l0 -262 q0 -146 108 -146 q57 0 92 43 q35 43 35 113 l0 252 l94 0 l0 -372 q0 -61 4 -102 ZM437 664 l0 -67 l-296 0 l0 67 l296 0 Z" /><glyph glyph-name="Ubreve" unicode="&#x16c;" d="M560 63.5 q-71 -81.5 -204 -81.5 q-133 0 -204 81.5 q-71 81.5 -71 198.5 l0 446 l99 0 l0 -440 q0 -83 42.5 -140 q42.5 -57 133.5 -57 q91 0 133.5 57 q42.5 57 42.5 140 l0 440 l99 0 l0 -446 q0 -117 -71 -198.5 ZM461 908 l55 0 q-6 -67 -48.5 -102.5 q-42.5 -35.5 -110.5 -35.5 q-69 0 -112 35.5 q-43 35.5 -47 102.5 l56 0 q6 -36 34.5 -54 q28.5 -18 68.5 -18 q88 0 104 72 Z" /><glyph glyph-name="ubreve" unicode="&#x16d;" d="M504 0 l-89 0 q-4 48 -4 78 l-2 0 q-19 -39 -62 -65 q-43 -26 -93 -26 q-87 0 -132 54 q-45 54 -45 139 l0 294 l94 0 l0 -262 q0 -146 108 -146 q57 0 92 43 q35 43 35 113 l0 252 l94 0 l0 -372 q0 -61 4 -102 ZM394 708 l55 0 q-6 -67 -48.5 -102.5 q-42.5 -35.5 -110.5 -35.5 q-69 0 -112 35.5 q-43 35.5 -47 102.5 l56 0 q6 -36 34.5 -54 q28.5 -18 68.5 -18 q88 0 104 72 Z" /><glyph glyph-name="Uring" unicode="&#x16e;" d="M560 63.5 q-71 -81.5 -204 -81.5 q-133 0 -204 81.5 q-71 81.5 -71 198.5 l0 446 l99 0 l0 -440 q0 -83 42.5 -140 q42.5 -57 133.5 -57 q91 0 133.5 57 q42.5 57 42.5 140 l0 440 l99 0 l0 -446 q0 -117 -71 -198.5 ZM423.5 923 q29.5 -28 29.5 -70 q0 -42 -29.5 -70.5 q-29.5 -28.5 -71.5 -28.5 q-42 0 -71 28 q-29 28 -29 70 q0 42 29 70.5 q29 28.5 71 28.5 q42 0 71.5 -28 ZM394.5 811.5 q17.5 16.5 17.5 41.5 q0 25 -17.5 41.5 q-17.5 16.5 -42.5 16.5 q-25 0 -42 -17 q-17 -17 -17 -42 q0 -24 17 -40.5 q17 -16.5 42 -16.5 q25 0 42.5 16.5 Z" /><glyph glyph-name="uring" unicode="&#x16f;" d="M504 0 l-89 0 q-4 48 -4 78 l-2 0 q-19 -39 -62 -65 q-43 -26 -93 -26 q-87 0 -132 54 q-45 54 -45 139 l0 294 l94 0 l0 -262 q0 -146 108 -146 q57 0 92 43 q35 43 35 113 l0 252 l94 0 l0 -372 q0 -61 4 -102 ZM359.5 723 q29.5 -28 29.5 -70 q0 -42 -29.5 -70.5 q-29.5 -28.5 -71.5 -28.5 q-42 0 -71 28 q-29 28 -29 70 q0 42 29 70.5 q29 28.5 71 28.5 q42 0 71.5 -28 ZM329.5 612.5 q17.5 16.5 17.5 40.5 q0 24 -17.5 40 q-17.5 16 -41.5 16 q-24 0 -41 -16 q-17 -16 -17 -40 q0 -24 17 -40.5 q17 -16.5 41 -16.5 q24 0 41.5 16.5 Z" /><glyph glyph-name="Uhungarumlaut" unicode="&#x170;" d="M560 63.5 q-71 -81.5 -204 -81.5 q-133 0 -204 81.5 q-71 81.5 -71 198.5 l0 446 l99 0 l0 -440 q0 -83 42.5 -140 q42.5 -57 133.5 -57 q91 0 133.5 57 q42.5 57 42.5 140 l0 440 l99 0 l0 -446 q0 -117 -71 -198.5 ZM428 908 l-137 -144 l-77 0 l100 144 l114 0 ZM610 908 l-136 -144 l-77 0 l100 144 l113 0 Z" /><glyph glyph-name="uhungarumlaut" unicode="&#x171;" d="M504 0 l-89 0 q-4 48 -4 78 l-2 0 q-19 -39 -62 -65 q-43 -26 -93 -26 q-87 0 -132 54 q-45 54 -45 139 l0 294 l94 0 l0 -262 q0 -146 108 -146 q57 0 92 43 q35 43 35 113 l0 252 l94 0 l0 -372 q0 -61 4 -102 ZM368 708 l-137 -144 l-77 0 l100 144 l114 0 ZM550 708 l-136 -144 l-77 0 l100 144 l113 0 Z" /><glyph glyph-name="Uogonek" unicode="&#x172;" d="M448 -144 l22 -45 q-44 -37 -95 -37 q-39 0 -68 24 q-29 24 -29 63 q0 57 67 122 q-128 4 -196 84 q-68 80 -68 195 l0 446 l99 0 l0 -440 q0 -83 42.5 -140 q42.5 -57 133.5 -57 q91 0 133.5 57 q42.5 57 42.5 140 l0 440 l99 0 l0 -446 q0 -105 -58 -183 q-58 -78 -167 -93 q-59 -63 -59 -105 q0 -19 14 -33 q14 -14 34 -14 q29 0 53 22 Z" /><glyph glyph-name="uogonek" unicode="&#x173;" d="M489 -144 l22 -45 q-44 -37 -95 -37 q-39 0 -68 24 q-29 24 -29 63 q0 70 95 145 q-3 35 -3 72 l-2 0 q-19 -39 -62 -65 q-43 -26 -93 -26 q-87 0 -132 54 q-45 54 -45 139 l0 294 l94 0 l0 -262 q0 -146 108 -146 q57 0 92 43 q35 43 35 113 l0 252 l94 0 l0 -372 q0 -61 4 -102 l-43 0 q-73 -71 -73 -119 q0 -19 14 -33 q14 -14 34 -14 q29 0 53 22 Z" /><glyph glyph-name="Wcircumflex" unicode="&#x174;" d="M117 708 l156 -564 l2 0 l166 564 l109 0 l165 -564 l2 0 l156 564 l105 0 l-208 -708 l-103 0 l-172 569 l-2 0 l-172 -569 l-103 0 l-208 708 l107 0 ZM550 908 l112 -144 l-91 0 l-75 99 l-76 -99 l-90 0 l112 144 l108 0 Z" /><glyph glyph-name="wcircumflex" unicode="&#x175;" d="M14 474 l102 0 l107 -362 l2 0 l113 362 l99 0 l115 -362 l2 0 l107 362 l99 0 l-157 -474 l-98 0 l-117 356 l-2 0 l-116 -356 l-98 0 l-158 474 ZM440 708 l112 -144 l-91 0 l-75 99 l-76 -99 l-90 0 l112 144 l108 0 Z" /><glyph glyph-name="Ycircumflex" unicode="&#x176;" d="M362 306 l0 -306 l-100 0 l0 306 l-265 402 l122 0 l196 -320 l197 320 l115 0 l-265 -402 ZM368 908 l112 -144 l-91 0 l-75 99 l-76 -99 l-90 0 l112 144 l108 0 Z" /><glyph glyph-name="ycircumflex" unicode="&#x177;" d="M114 474 l147 -372 l2 0 l131 372 l100 0 l-230 -586 q-25 -65 -61.5 -96.5 q-36.5 -31.5 -102.5 -31.5 q-33 0 -62 7 l9 83 q24 -8 47 -8 q34 0 53 18.5 q19 18.5 35 60.5 l30 79 l-203 474 l105 0 ZM314 708 l112 -144 l-91 0 l-75 99 l-76 -99 l-90 0 l112 144 l108 0 Z" /><glyph glyph-name="Ydieresis" unicode="&#x178;" d="M362 306 l0 -306 l-100 0 l0 306 l-265 402 l122 0 l196 -320 l197 320 l115 0 l-265 -402 ZM156 845 q0 25 18 43 q18 18 44 18 q26 0 44 -17.5 q18 -17.5 18 -43.5 q0 -25 -18 -42.5 q-18 -17.5 -44 -17.5 q-26 0 -44 18 q-18 18 -18 42 ZM350 845 q0 25 18 43 q18 18 44 18 q26 0 44 -17.5 q18 -17.5 18 -43.5 q0 -25 -18 -42.5 q-18 -17.5 -44 -17.5 q-26 0 -44 18 q-18 18 -18 42 Z" /><glyph glyph-name="Zacute" unicode="&#x179;" d="M553 708 l0 -87 l-400 -533 l406 0 l0 -88 l-526 0 l0 87 l399 534 l-391 0 l0 87 l512 0 ZM439 908 l-137 -144 l-76 0 l99 144 l114 0 Z" /><glyph glyph-name="zacute" unicode="&#x17a;" d="M419 474 l0 -77 l-270 -318 l281 0 l0 -79 l-397 0 l0 77 l268 320 l-255 0 l0 77 l373 0 ZM377 708 l-136 -144 l-77 0 l100 144 l113 0 Z" /><glyph glyph-name="Zdotaccent" unicode="&#x17b;" d="M553 708 l0 -87 l-400 -533 l406 0 l0 -88 l-526 0 l0 87 l399 534 l-391 0 l0 87 l512 0 ZM359 845 q0 -25 -18.5 -42.5 q-18.5 -17.5 -44.5 -17.5 q-26 0 -44 17.5 q-18 17.5 -18 42.5 q0 25 18 43 q18 18 44 18 q26 0 44.5 -17.5 q18.5 -17.5 18.5 -43.5 Z" /><glyph glyph-name="zdotaccent" unicode="&#x17c;" d="M419 474 l0 -77 l-270 -318 l281 0 l0 -79 l-397 0 l0 77 l268 320 l-255 0 l0 77 l373 0 ZM301 645 q0 -25 -18.5 -42.5 q-18.5 -17.5 -44.5 -17.5 q-26 0 -44 17.5 q-18 17.5 -18 42.5 q0 25 18 43 q18 18 44 18 q26 0 44.5 -17.5 q18.5 -17.5 18.5 -43.5 Z" /><glyph glyph-name="Zcaron" unicode="&#x17d;" d="M553 708 l0 -87 l-400 -533 l406 0 l0 -88 l-526 0 l0 87 l399 534 l-391 0 l0 87 l512 0 ZM463 908 l-112 -144 l-107 0 l-111 144 l90 0 l76 -99 l76 99 l88 0 Z" /><glyph glyph-name="zcaron" unicode="&#x17e;" d="M419 474 l0 -77 l-270 -318 l281 0 l0 -79 l-397 0 l0 77 l268 320 l-255 0 l0 77 l373 0 ZM402 708 l-112 -144 l-107 0 l-111 144 l90 0 l76 -99 l76 99 l88 0 Z" /><glyph glyph-name="florin" unicode="&#x192;" d="M472 423 l0 -73 l-129 0 l-62 -319 q-32 -170 -171 -170 q-52 0 -92 24 l38 71 q22 -14 50 -14 q39 0 56 27 q17 27 27 78 l58 303 l-111 0 l0 73 l125 0 l25 127 q32 170 166 170 q55 0 106 -30 l-40 -71 q-29 17 -56 17 q-29 0 -48 -20 q-19 -20 -25.5 -39.5 q-6.5 -19.5 -11.5 -49.5 l-20 -104 l115 0 Z" /><glyph glyph-name="Scommaaccent" unicode="&#x218;" d="M508 645 l-70 -68 q-22 30 -58.5 48 q-36.5 18 -79.5 18 q-54 0 -96 -29.5 q-42 -29.5 -42 -85.5 q0 -28 10 -47.5 q10 -19.5 34 -34 q24 -14.5 43 -22 q19 -7.5 58 -20.5 q39 -12 59.5 -19.5 q20.5 -7.5 53.5 -25.5 q33 -18 50.5 -37.5 q17.5 -19.5 31 -51.5 q13.5 -32 13.5 -73 q0 -104 -71.5 -159.5 q-71.5 -55.5 -173.5 -55.5 q-69 0 -131.5 26.5 q-62.5 26.5 -101.5 76.5 l77 65 q25 -37 67.5 -60 q42.5 -23 90.5 -23 q56 0 99 31.5 q43 31.5 43 89.5 q0 25 -10 45 q-10 20 -22 32 q-12 12 -39 24.5 q-27 12.5 -43.5 18.5 q-16.5 6 -53.5 17 q-40 13 -67.5 25.5 q-27.5 12.5 -57 35 q-29.5 22.5 -44.5 57.5 q-15 35 -15 81 q0 67 37 114.5 q37 47.5 90.5 67.5 q53.5 20 115.5 20 q61 0 115.5 -22 q54.5 -22 87.5 -59 ZM345 -45 l-78 -190 l-79 0 l64 190 l93 0 Z" /><glyph glyph-name="scommaaccent" unicode="&#x219;" d="M402 409 l-65 -55 q-16 26 -45.5 42.5 q-29.5 16.5 -64.5 16.5 q-36 0 -62 -15.5 q-26 -15.5 -26 -46.5 q0 -28 25 -43 q25 -15 83 -28 q159 -35 159 -140 q0 -78 -54.5 -115.5 q-54.5 -37.5 -134.5 -37.5 q-56 0 -107 22 q-51 22 -84 63 l67 57 q19 -29 53.5 -47.5 q34.5 -18.5 72.5 -18.5 q40 0 67 16.5 q27 16.5 27 52.5 q0 31 -28.5 47 q-28.5 16 -95.5 32 q-28 7 -49 15 q-21 8 -43 22.5 q-22 14.5 -34 38 q-12 23.5 -12 55.5 q0 72 52.5 108.5 q52.5 36.5 126.5 36.5 q52 0 99.5 -20.5 q47.5 -20.5 72.5 -57.5 ZM282 -45 l-78 -190 l-79 0 l64 190 l93 0 Z" /><glyph glyph-name="uni021A" unicode="&#x21a;" d="M334 621 l0 -621 l-99 0 l0 621 l-227 0 l0 87 l553 0 l0 -87 l-227 0 ZM347 -45 l-78 -190 l-79 0 l64 190 l93 0 Z" /><glyph glyph-name="uni021B" unicode="&#x21b;" d="M313 474 l0 -77 l-126 0 l0 -247 q0 -43 16 -61.5 q16 -18.5 51 -18.5 q31 0 55 12 l3 -77 q-36 -13 -80 -13 q-67 0 -102.5 37.5 q-35.5 37.5 -35.5 110.5 l0 257 l-91 0 l0 77 l91 0 l0 136 l93 0 l0 -136 l126 0 ZM261 -45 l-78 -190 l-79 0 l64 190 l93 0 Z" /><glyph glyph-name="dotlessj" unicode="&#x237;" d="M-31 -234 l10 80 q20 -5 38 -5 q39 0 52.5 26 q13.5 26 13.5 75 l0 532 l94 0 l0 -535 q0 -179 -154 -179 q-24 0 -54 6 Z" /><glyph glyph-name="circumflex" unicode="&#x2c6;" d="M179 708 l112 -144 l-91 0 l-75 99 l-76 -99 l-90 0 l112 144 l108 0 Z" /><glyph glyph-name="caron" unicode="&#x2c7;" d="M290 708 l-112 -144 l-107 0 l-111 144 l90 0 l76 -99 l76 99 l88 0 Z" /><glyph glyph-name="uni02C9" unicode="&#x2c9;" d="M273 864 l0 -67 l-296 0 l0 67 l296 0 Z" /><glyph glyph-name="breve" unicode="&#x2d8;" d="M229 708 l55 0 q-6 -67 -48.5 -102.5 q-42.5 -35.5 -110.5 -35.5 q-69 0 -112 35.5 q-43 35.5 -47 102.5 l56 0 q6 -36 34.5 -54 q28.5 -18 68.5 -18 q88 0 104 72 Z" /><glyph glyph-name="dotaccent" unicode="&#x2d9;" d="M188 645 q0 -25 -18.5 -42.5 q-18.5 -17.5 -44.5 -17.5 q-26 0 -44 17.5 q-18 17.5 -18 42.5 q0 25 18 43 q18 18 44 18 q26 0 44.5 -17.5 q18.5 -17.5 18.5 -43.5 Z" /><glyph glyph-name="ring" unicode="&#x2da;" d="M196.5 723 q29.5 -28 29.5 -70 q0 -42 -29.5 -70.5 q-29.5 -28.5 -71.5 -28.5 q-42 0 -71 28 q-29 28 -29 70 q0 42 29 70.5 q29 28.5 71 28.5 q42 0 71.5 -28 ZM166.5 612.5 q17.5 16.5 17.5 40.5 q0 24 -17.5 40 q-17.5 16 -41.5 16 q-24 0 -41 -16 q-17 -16 -17 -40 q0 -24 17 -40.5 q17 -16.5 41 -16.5 q24 0 41.5 16.5 Z" /><glyph glyph-name="ogonek" unicode="&#x2db;" d="M184 -144 l22 -45 q-44 -37 -95 -37 q-39 0 -68 24 q-29 24 -29 63 q0 70 95 145 l54 0 q-80 -78 -80 -125 q0 -19 14 -33 q14 -14 34 -14 q29 0 53 22 Z" /><glyph glyph-name="tilde" unicode="&#x2dc;" d="M7 572 l-55 0 q20 116 102 116 q33 0 75 -20 q48 -22 67 -22 q34 0 48 46 l54 0 q-20 -116 -102 -116 q-31 0 -77 21 q-42 21 -65 21 q-35 0 -47 -46 Z" /><glyph glyph-name="hungarumlaut" unicode="&#x2dd;" d="M176 708 l-137 -144 l-77 0 l100 144 l114 0 ZM358 708 l-136 -144 l-77 0 l100 144 l113 0 Z" /><glyph glyph-name="uni0394" unicode="&#x394;" d="M681 0 l-656 0 l0 65 l284 643 l90 0 l282 -643 l0 -65 ZM560 88 l-209 505 l-208 -505 l417 0 Z" /><glyph glyph-name="uni03A9" unicode="&#x3a9;" d="M713 0 l-275 0 l0 172 q85 21 131 80.5 q46 59.5 46 153.5 q0 41 -12 80 q-12 39 -37.5 74 q-25.5 35 -71.5 56.5 q-46 21.5 -107 21.5 q-113 0 -170.5 -69 q-57.5 -69 -57.5 -163 q0 -97 47 -155.5 q47 -58.5 130 -78.5 l0 -172 l-275 0 l0 82 l198 0 l0 25 q-102 34 -153 114 q-51 80 -51 183 q0 146 96 233.5 q96 87.5 236 87.5 q145 0 238.5 -89.5 q93.5 -89.5 93.5 -230.5 q0 -108 -52.5 -186.5 q-52.5 -78.5 -151.5 -111.5 l0 -25 l198 0 l0 -82 Z" /><glyph glyph-name="uni03BC" unicode="&#x3bc;" d="M562 73 l6 -75 q-30 -6 -58 -6 q-90 0 -95 86 l-2 0 q-19 -39 -56.5 -65 q-37.5 -26 -82.5 -26 q-74 0 -97 40 l-2 0 l0 -267 l-94 0 l0 714 l94 0 l0 -262 q0 -146 108 -146 q57 0 92 43 q35 43 35 113 l0 252 l94 0 l0 -369 q0 -35 32 -35 q12 0 26 3 Z" /><glyph glyph-name="pi" unicode="&#x3c0;" d="M391 131 l0 262 l-156 0 l-59 -393 l-87 0 l63 393 l-117 0 l0 81 l557 0 l0 -81 l-111 0 l0 -275 q0 -48 45 -48 q19 0 31 3 l6 -75 q-27 -6 -52 -6 q-66 0 -93 31 q-27 31 -27 108 Z" /><glyph glyph-name="uni0400" unicode="&#x400;" d="M86 0 l0 708 l454 0 l0 -87 l-355 0 l0 -212 l334 0 l0 -85 l-334 0 l0 -236 l370 0 l0 -88 l-469 0 ZM300 764 l-137 144 l114 0 l100 -144 l-77 0 Z" /><glyph glyph-name="uni0401" unicode="&#x401;" d="M86 0 l0 708 l454 0 l0 -87 l-355 0 l0 -212 l334 0 l0 -85 l-334 0 l0 -236 l370 0 l0 -88 l-469 0 ZM158 845 q0 25 18 43 q18 18 44 18 q26 0 44 -17.5 q18 -17.5 18 -43.5 q0 -25 -18 -42.5 q-18 -17.5 -44 -17.5 q-26 0 -44 18 q-18 18 -18 42 ZM352 845 q0 25 18 43 q18 18 44 18 q26 0 44 -17.5 q18 -17.5 18 -43.5 q0 -25 -18 -42.5 q-18 -17.5 -44 -17.5 q-26 0 -44 18 q-18 18 -18 42 Z" /><glyph glyph-name="uni0402" unicode="&#x402;" d="M508 -10 q-46 0 -89 9 l12 83 q30 -7 62 -7 q164 0 164 127 q0 65 -44 99.5 q-44 34.5 -131 34.5 q-88 0 -148 -24 l0 -312 l-99 0 l0 621 l-227 0 l0 87 l552 0 l0 -87 l-226 0 l0 -225 q77 22 165 22 q122 0 190.5 -56 q68.5 -56 68.5 -161 q0 -103 -68.5 -157 q-68.5 -54 -181.5 -54 Z" /><glyph glyph-name="uni0403" unicode="&#x403;" d="M445 908 l-137 -144 l-76 0 l99 144 l114 0 ZM86 0 l0 708 l413 0 l0 -87 l-314 0 l0 -621 l-99 0 Z" /><glyph glyph-name="uni0404" unicode="&#x404;" d="M422 -18 q-161 0 -266.5 105 q-105.5 105 -105.5 267 q0 165 105.5 268.5 q105.5 103.5 266.5 103.5 q80 0 149.5 -29 q69.5 -29 108.5 -79 l-73 -62 q-24 35 -74 59 q-50 24 -111 24 q-106 0 -176.5 -65.5 q-70.5 -65.5 -85.5 -164.5 l329 0 l0 -85 l-331 0 q6 -109 78.5 -181.5 q72.5 -72.5 185.5 -72.5 q128 0 195 94 l76 -54 q-39 -57 -110 -92.5 q-71 -35.5 -161 -35.5 Z" /><glyph glyph-name="uni0405" unicode="&#x405;" d="M270 -18 q-69 0 -131.5 26.5 q-62.5 26.5 -101.5 76.5 l77 65 q25 -37 67.5 -60 q42.5 -23 90.5 -23 q56 0 99 31.5 q43 31.5 43 89.5 q0 25 -10 45 q-10 20 -22 32 q-12 12 -39 24.5 q-27 12.5 -43.5 18.5 q-16.5 6 -53.5 17 q-40 13 -67.5 25.5 q-27.5 12.5 -57 35 q-29.5 22.5 -44.5 57.5 q-15 35 -15 81 q0 67 37 114.5 q37 47.5 90.5 67.5 q53.5 20 115.5 20 q61 0 115.5 -22 q54.5 -22 87.5 -59 l-70 -68 q-22 30 -58.5 48 q-36.5 18 -79.5 18 q-54 0 -96 -29.5 q-42 -29.5 -42 -85.5 q0 -28 10 -47.5 q10 -19.5 34 -34 q24 -14.5 43 -22 q19 -7.5 58 -20.5 q39 -12 59.5 -19.5 q20.5 -7.5 53.5 -25.5 q33 -18 50.5 -37.5 q17.5 -19.5 31 -51.5 q13.5 -32 13.5 -73 q0 -104 -71.5 -159.5 q-71.5 -55.5 -173.5 -55.5 Z" /><glyph glyph-name="uni0406" unicode="&#x406;" d="M86 0 l0 708 l99 0 l0 -708 l-99 0 Z" /><glyph glyph-name="uni0407" unicode="&#x407;" d="M86 0 l0 708 l99 0 l0 -708 l-99 0 ZM-24 845 q0 25 18 43 q18 18 44 18 q26 0 44 -17.5 q18 -17.5 18 -43.5 q0 -25 -18 -42.5 q-18 -17.5 -44 -17.5 q-26 0 -44 18 q-18 18 -18 42 ZM170 845 q0 25 18 43 q18 18 44 18 q26 0 44 -17.5 q18 -17.5 18 -43.5 q0 -25 -18 -42.5 q-18 -17.5 -44 -17.5 q-26 0 -44 18 q-18 18 -18 42 Z" /><glyph glyph-name="uni0408" unicode="&#x408;" d="M214 -18 q-79 0 -131 41 q-52 41 -68 109 l92 26 q8 -39 35.5 -63.5 q27.5 -24.5 66.5 -24.5 q107 0 107 151 l0 487 l99 0 l0 -491 q0 -32 -5 -62 q-5 -30 -18.5 -62.5 q-13.5 -32.5 -35 -56 q-21.5 -23.5 -58 -39 q-36.5 -15.5 -84.5 -15.5 Z" /><glyph glyph-name="uni0409" unicode="&#x409;" d="M85 -7 q-40 0 -76 9 l13 88 q21 -7 43 -7 q82 0 117.5 101 q35.5 101 35.5 346 l0 178 l456 0 l0 -294 l114 0 q119 0 190 -52 q71 -52 71 -155 q0 -102 -70.5 -154.5 q-70.5 -52.5 -188.5 -52.5 l-215 0 l0 621 l-261 0 l0 -117 q0 -266 -52 -388.5 q-52 -122.5 -177 -122.5 ZM674 84 l106 0 q169 0 169 122 q0 60 -44 92 q-44 32 -125 32 l-106 0 l0 -246 Z" /><glyph glyph-name="uni040A" unicode="&#x40a;" d="M86 0 l0 708 l99 0 l0 -296 l358 0 l0 296 l99 0 l0 -296 l118 0 q118 0 188.5 -52 q70.5 -52 70.5 -154 q0 -102 -70 -154 q-70 -52 -187 -52 l-219 0 l0 329 l-358 0 l0 -329 l-99 0 ZM642 84 l109 0 q168 0 168 121 q0 60 -43.5 92 q-43.5 32 -124.5 32 l-109 0 l0 -245 Z" /><glyph glyph-name="uni040B" unicode="&#x40b;" d="M235 0 l0 621 l-227 0 l0 87 l552 0 l0 -87 l-226 0 l0 -224 q77 22 163 22 q118 0 174 -47.5 q56 -47.5 56 -147.5 l0 -224 l-99 0 l0 205 q0 127 -142 127 q-104 0 -152 -21 l0 -311 l-99 0 Z" /><glyph glyph-name="uni040C" unicode="&#x40c;" d="M498 908 l-137 -144 l-76 0 l99 144 l114 0 ZM86 0 l0 708 l99 0 l0 -312 l2 0 l316 312 l137 0 l-344 -324 l365 -384 l-142 0 l-332 366 l-2 0 l0 -366 l-99 0 Z" /><glyph glyph-name="uni040D" unicode="&#x40d;" d="M86 0 l0 708 l99 0 l0 -561 l2 0 l357 561 l109 0 l0 -708 l-99 0 l0 561 l-2 0 l-357 -561 l-109 0 ZM341 764 l-137 144 l114 0 l100 -144 l-77 0 Z" /><glyph glyph-name="uni040E" unicode="&#x40e;" d="M137 -9 q-42 0 -77 7 l14 90 q24 -8 55 -8 q37 0 60 19 q23 19 46 62 l35 64 l-274 483 l115 0 l214 -388 l206 388 l110 0 l-312 -570 q-41 -75 -82 -111 q-41 -36 -110 -36 ZM430 805.5 q-42 -35.5 -105 -35.5 q-63 0 -105 35.5 q-42 35.5 -49 97.5 l57 11 q6 -36 32.5 -57 q26.5 -21 64.5 -21 q38 0 64.5 21 q26.5 21 32.5 57 l57 -11 q-7 -62 -49 -97.5 Z" /><glyph glyph-name="uni040F" unicode="&#x40f;" d="M317 -168 l0 168 l-231 0 l0 708 l99 0 l0 -620 l355 0 l0 620 l99 0 l0 -708 l-231 0 l0 -168 l-91 0 Z" /><glyph glyph-name="uni0410" unicode="&#x410;" d="M5 0 l307 708 l90 0 l304 -708 l-112 0 l-72 174 l-336 0 l-71 -174 l-110 0 ZM221 261 l265 0 l-132 332 l-133 -332 Z" /><glyph glyph-name="uni0411" unicode="&#x411;" d="M86 0 l0 708 l442 0 l0 -85 l-343 0 l0 -213 l133 0 q118 0 188 -51.5 q70 -51.5 70 -153.5 q0 -102 -69.5 -153.5 q-69.5 -51.5 -187.5 -51.5 l-233 0 ZM185 84 l123 0 q168 0 168 120 q0 60 -43.5 91 q-43.5 31 -124.5 31 l-123 0 l0 -242 Z" /><glyph glyph-name="uni0412" unicode="&#x412;" d="M86 0 l0 708 l244 0 q92 0 157 -43 q65 -43 65 -136 q0 -57 -33.5 -98 q-33.5 -41 -90.5 -56 l0 -2 q70 -8 113.5 -54 q43.5 -46 43.5 -118 q0 -98 -74.5 -149.5 q-74.5 -51.5 -191.5 -51.5 l-233 0 ZM185 84 l124 0 q47 0 84 10 q37 10 64.5 38.5 q27.5 28.5 27.5 73.5 q0 119 -167 119 l-133 0 l0 -241 ZM185 409 l129 0 q61 0 100 27.5 q39 27.5 39 82.5 q0 106 -155 106 l-113 0 l0 -216 Z" /><glyph glyph-name="uni0413" unicode="&#x413;" d="M86 0 l0 708 l413 0 l0 -87 l-314 0 l0 -621 l-99 0 Z" /><glyph glyph-name="uni0414" unicode="&#x414;" d="M15 -168 l0 256 l58 0 q116 125 116 433 l0 187 l465 0 l0 -620 l80 0 l0 -256 l-90 0 l0 168 l-539 0 l0 -168 l-90 0 ZM190 88 l365 0 l0 533 l-270 0 l0 -107 q0 -293 -95 -426 Z" /><glyph glyph-name="uni0415" unicode="&#x415;" d="M86 0 l0 708 l454 0 l0 -87 l-355 0 l0 -212 l334 0 l0 -85 l-334 0 l0 -236 l370 0 l0 -88 l-469 0 Z" /><glyph glyph-name="uni0416" unicode="&#x416;" d="M-2 0 l341 386 l-323 322 l132 0 l300 -312 l1 0 l0 312 l99 0 l0 -312 l1 0 l299 312 l133 0 l-323 -322 l341 -386 l-136 0 l-314 364 l-1 0 l0 -364 l-99 0 l0 364 l-1 0 l-314 -364 l-136 0 Z" /><glyph glyph-name="uni0417" unicode="&#x417;" d="M279 -18 q-160 0 -247 104 l73 65 q60 -85 171 -85 q69 0 114 36.5 q45 36.5 45 98.5 q0 124 -181 124 l-46 0 l0 84 l47 0 q160 0 160 121 q0 50 -37 81.5 q-37 31.5 -99 31.5 q-100 0 -153 -69 l-67 61 q73 91 219 91 q107 0 170 -50.5 q63 -50.5 63 -140.5 q0 -61 -35 -104 q-35 -43 -90 -58 l0 -2 q66 -14 108.5 -60 q42.5 -46 42.5 -114 q0 -99 -75.5 -157 q-75.5 -58 -182.5 -58 Z" /><glyph glyph-name="uni0418" unicode="&#x418;" d="M86 0 l0 708 l99 0 l0 -561 l2 0 l357 561 l109 0 l0 -708 l-99 0 l0 561 l-2 0 l-357 -561 l-109 0 Z" /><glyph glyph-name="uni0419" unicode="&#x419;" d="M86 0 l0 708 l99 0 l0 -561 l2 0 l357 561 l109 0 l0 -708 l-99 0 l0 561 l-2 0 l-357 -561 l-109 0 ZM472 805.5 q-42 -35.5 -105 -35.5 q-63 0 -105 35.5 q-42 35.5 -49 97.5 l57 11 q6 -36 32.5 -57 q26.5 -21 64.5 -21 q38 0 64.5 21 q26.5 21 32.5 57 l57 -11 q-7 -62 -49 -97.5 Z" /><glyph glyph-name="uni041A" unicode="&#x41a;" d="M86 0 l0 708 l99 0 l0 -312 l2 0 l316 312 l137 0 l-344 -324 l365 -384 l-142 0 l-332 366 l-2 0 l0 -366 l-99 0 Z" /><glyph glyph-name="uni041B" unicode="&#x41b;" d="M85 -7 q-46 0 -76 9 l13 88 q21 -7 43 -7 q55 0 88 41.5 q33 41.5 49 139.5 q16 98 16 266 l0 178 l456 0 l0 -708 l-99 0 l0 621 l-261 0 l0 -117 q0 -266 -52 -388.5 q-52 -122.5 -177 -122.5 Z" /><glyph glyph-name="uni041C" unicode="&#x41c;" d="M86 0 l0 708 l154 0 l212 -544 l2 0 l209 544 l154 0 l0 -708 l-99 0 l0 592 l-2 0 l-235 -592 l-63 0 l-234 592 l-2 0 l0 -592 l-96 0 Z" /><glyph glyph-name="uni041D" unicode="&#x41d;" d="M86 0 l0 708 l99 0 l0 -296 l359 0 l0 296 l99 0 l0 -708 l-99 0 l0 324 l-359 0 l0 -324 l-99 0 Z" /><glyph glyph-name="uni041E" unicode="&#x41e;" d="M424 -18 q-162 0 -268 105 q-106 105 -106 268 q0 164 105.5 267.5 q105.5 103.5 268.5 103.5 q163 0 269.5 -103.5 q106.5 -103.5 106.5 -267.5 q0 -163 -106.5 -268 q-106.5 -105 -269.5 -105 ZM424 71 q121 0 195 81.5 q74 81.5 74 202.5 q0 120 -74 202 q-74 82 -195 82 q-119 0 -193 -82 q-74 -82 -74 -202 q0 -121 74 -202.5 q74 -81.5 193 -81.5 Z" /><glyph glyph-name="uni041F" unicode="&#x41f;" d="M86 0 l0 708 l553 0 l0 -708 l-99 0 l0 621 l-355 0 l0 -621 l-99 0 Z" /><glyph glyph-name="uni0420" unicode="&#x420;" d="M86 0 l0 708 l216 0 q119 0 186 -48.5 q67 -48.5 67 -148.5 q0 -102 -70.5 -151 q-70.5 -49 -187.5 -49 l-112 0 l0 -311 l-99 0 ZM185 395 l105 0 q165 0 165 116 q0 113 -163 113 l-107 0 l0 -229 Z" /><glyph glyph-name="uni0421" unicode="&#x421;" d="M423 -18 q-163 0 -268 105 q-105 105 -105 268 q0 164 107 267.5 q107 103.5 270 103.5 q76 0 146 -29 q70 -29 108 -81 l-78 -60 q-26 37 -74 60 q-48 23 -102 23 q-120 0 -194.5 -82 q-74.5 -82 -74.5 -202 q0 -122 73 -203.5 q73 -81.5 193 -81.5 q125 0 190 94 l79 -54 q-94 -128 -270 -128 Z" /><glyph glyph-name="uni0422" unicode="&#x422;" d="M235 0 l0 621 l-227 0 l0 87 l553 0 l0 -87 l-227 0 l0 -621 l-99 0 Z" /><glyph glyph-name="uni0423" unicode="&#x423;" d="M137 -9 q-42 0 -77 7 l14 90 q24 -8 55 -8 q37 0 60 19 q23 19 46 62 l35 64 l-274 483 l115 0 l214 -388 l206 388 l110 0 l-312 -570 q-41 -75 -82 -111 q-41 -36 -110 -36 Z" /><glyph glyph-name="uni0424" unicode="&#x424;" d="M376 -18 l0 85 q-147 2 -239 84.5 q-92 82.5 -92 213.5 q0 137 90.5 215 q90.5 78 240.5 82 l0 64 l101 0 l0 -64 q151 -4 241.5 -82 q90.5 -78 90.5 -215 q0 -131 -92 -213.5 q-92 -82.5 -240 -84.5 l0 -85 l-101 0 ZM376 154 l0 422 q-109 -6 -167 -63.5 q-58 -57.5 -58 -148.5 q0 -93 57 -147.5 q57 -54.5 168 -62.5 ZM477 154 q112 8 169 62.5 q57 54.5 57 147.5 q0 91 -58 148.5 q-58 57.5 -168 63.5 l0 -422 Z" /><glyph glyph-name="uni0425" unicode="&#x425;" d="M18 0 l253 375 l-228 333 l121 0 l170 -264 l168 264 l116 0 l-226 -335 l257 -373 l-125 0 l-194 298 l-190 -298 l-122 0 Z" /><glyph glyph-name="uni0426" unicode="&#x426;" d="M628 -168 l0 168 l-542 0 l0 708 l99 0 l0 -620 l355 0 l0 620 l99 0 l0 -620 l79 0 l0 -256 l-90 0 Z" /><glyph glyph-name="uni0427" unicode="&#x427;" d="M465 0 l0 286 q-77 -22 -162 -22 q-118 0 -174.5 47.5 q-56.5 47.5 -56.5 147.5 l0 249 l99 0 l0 -231 q0 -127 143 -127 q100 0 151 21 l0 337 l99 0 l0 -708 l-99 0 Z" /><glyph glyph-name="uni0428" unicode="&#x428;" d="M86 0 l0 708 l99 0 l0 -620 l296 0 l0 620 l99 0 l0 -620 l296 0 l0 620 l99 0 l0 -708 l-889 0 Z" /><glyph glyph-name="uni0429" unicode="&#x429;" d="M964 -168 l0 168 l-878 0 l0 708 l99 0 l0 -620 l296 0 l0 620 l99 0 l0 -620 l296 0 l0 620 l99 0 l0 -620 l79 0 l0 -256 l-90 0 Z" /><glyph glyph-name="uni042A" unicode="&#x42a;" d="M182 0 l0 621 l-172 0 l0 87 l271 0 l0 -294 l115 0 q119 0 190 -52 q71 -52 71 -155 q0 -102 -70.5 -154.5 q-70.5 -52.5 -188.5 -52.5 l-216 0 ZM281 84 l107 0 q169 0 169 122 q0 60 -44 92 q-44 32 -125 32 l-107 0 l0 -246 Z" /><glyph glyph-name="uni042B" unicode="&#x42b;" d="M86 0 l0 708 l99 0 l0 -294 l114 0 q119 0 190 -52 q71 -52 71 -155 q0 -102 -70.5 -154.5 q-70.5 -52.5 -188.5 -52.5 l-215 0 ZM185 84 l106 0 q169 0 169 122 q0 60 -44 92 q-44 32 -125 32 l-106 0 l0 -246 ZM663 0 l0 708 l99 0 l0 -708 l-99 0 Z" /><glyph glyph-name="uni042C" unicode="&#x42c;" d="M86 0 l0 708 l99 0 l0 -294 l114 0 q119 0 190 -52 q71 -52 71 -155 q0 -102 -70.5 -154.5 q-70.5 -52.5 -188.5 -52.5 l-215 0 ZM185 84 l106 0 q169 0 169 122 q0 60 -44 92 q-44 32 -125 32 l-106 0 l0 -246 Z" /><glyph glyph-name="uni042D" unicode="&#x42d;" d="M286 -18 q-91 0 -161.5 35 q-70.5 35 -109.5 93 l75 54 q67 -94 196 -94 q113 0 185.5 73 q72.5 73 77.5 181 l-331 0 l0 85 l329 0 q-14 99 -85 164.5 q-71 65.5 -176 65.5 q-62 0 -111.5 -24 q-49.5 -24 -73.5 -59 l-73 62 q38 50 108 79 q70 29 150 29 q159 0 265.5 -105 q106.5 -105 106.5 -267 q0 -162 -105.5 -267 q-105.5 -105 -266.5 -105 Z" /><glyph glyph-name="uni042E" unicode="&#x42e;" d="M673 -19 q-148 0 -243.5 96 q-95.5 96 -104.5 247 l-140 0 l0 -324 l-99 0 l0 708 l99 0 l0 -296 l142 0 q16 138 111 226 q95 88 235 88 q154 0 251.5 -106 q97.5 -106 97.5 -266 q0 -159 -97.5 -266 q-97.5 -107 -251.5 -107 ZM673 71 q111 0 176.5 83 q65.5 83 65.5 200 q0 118 -65.5 201 q-65.5 83 -176.5 83 q-112 0 -177.5 -83 q-65.5 -83 -65.5 -201 q0 -118 65.5 -200.5 q65.5 -82.5 177.5 -82.5 Z" /><glyph glyph-name="uni042F" unicode="&#x42f;" d="M29 0 l191 306 q-79 18 -122.5 68 q-43.5 50 -43.5 129 q0 103 69 154 q69 51 191 51 l215 0 l0 -708 l-99 0 l0 295 l-107 0 l-174 -295 l-120 0 ZM324 377 l106 0 l0 247 l-108 0 q-169 0 -169 -122 q0 -61 45 -93 q45 -32 126 -32 Z" /><glyph glyph-name="uni0430" unicode="&#x430;" d="M218 -12 q-30 0 -59 8 q-29 8 -55 24 q-26 16 -42 45.5 q-16 29.5 -16 68.5 q0 41 19.5 71.5 q19.5 30.5 49.5 47 q30 16.5 76.5 26 q46.5 9.5 88 12.5 q41.5 3 96.5 3 l0 13 q0 51 -31.5 77.5 q-31.5 26.5 -85.5 26.5 q-80 0 -135 -55 l-50 60 q74 71 194 71 q98 0 148 -51.5 q50 -51.5 50 -134.5 l0 -207 q0 -62 7 -94 l-85 0 q-8 34 -8 68 l-3 0 q-53 -80 -159 -80 ZM239 62 q64 0 100.5 38.5 q36.5 38.5 36.5 100.5 l0 25 l-23 0 q-211 0 -211 -90 q0 -39 28 -56.5 q28 -17.5 69 -17.5 Z" /><glyph glyph-name="uni0431" unicode="&#x431;" d="M315 -13 q-132 0 -202 90 q-55 71 -55 230 q0 74 4.5 126.5 q4.5 52.5 17.5 104 q13 51.5 37 84 q24 32.5 64 55.5 q40 23 97 30 l133 16 q39 5 59 15 q20 10 26 32 l68 -20 q-12 -49 -40 -72 q-28 -23 -83 -31 l-131 -17 q-65 -8 -101 -30 q-36 -22 -57 -76.5 q-21 -54.5 -23 -152.5 l3 0 q58 114 203 114 q101 0 167.5 -69.5 q66.5 -69.5 66.5 -178.5 q0 -110 -72 -180 q-72 -70 -182 -70 ZM199 115.5 q43 -49.5 115 -49.5 q72 0 115.5 49.5 q43.5 49.5 43.5 122.5 q0 73 -43.5 122.5 q-43.5 49.5 -116.5 49.5 q-71 0 -114 -49.5 q-43 -49.5 -43 -122.5 q0 -73 43 -122.5 Z" /><glyph glyph-name="uni0432" unicode="&#x432;" d="M81 0 l0 474 l233 0 q24 0 45.5 -3.5 q21.5 -3.5 43 -12 q21.5 -8.5 37 -22 q15.5 -13.5 25 -35.5 q9.5 -22 9.5 -50 q0 -37 -22.5 -64.5 q-22.5 -27.5 -59.5 -35.5 l0 -2 q46 -6 75 -36.5 q29 -30.5 29 -79.5 q0 -62 -48.5 -97.5 q-48.5 -35.5 -129.5 -35.5 l-237 0 ZM175 75 l128 0 q97 0 97 66 q0 67 -92 67 l-133 0 l0 -133 ZM175 279 l131 0 q32 0 54 15 q22 15 22 46 q0 61 -86 61 l-121 0 l0 -122 Z" /><glyph glyph-name="uni0433" unicode="&#x433;" d="M81 0 l0 474 l323 0 l0 -77 l-229 0 l0 -397 l-94 0 Z" /><glyph glyph-name="uni0434" unicode="&#x434;" d="M18 -145 l0 223 l52 0 q71 91 71 272 l0 124 l365 0 l0 -396 l73 0 l0 -223 l-82 0 l0 145 l-397 0 l0 -145 l-82 0 ZM172 78 l241 0 l0 319 l-182 0 l0 -72 q0 -143 -59 -247 Z" /><glyph glyph-name="uni0435" unicode="&#x435;" d="M300 -13 q-109 0 -179.5 69 q-70.5 69 -70.5 180 q0 110 70 180.5 q70 70.5 175 70.5 q105 0 166.5 -66.5 q61.5 -66.5 61.5 -179.5 q0 -21 -1 -32 l-376 0 q2 -61 47 -102.5 q45 -41.5 107 -41.5 q89 0 138 72 l66 -53 q-75 -97 -204 -97 ZM146 279 l282 0 q-2 59 -36 96.5 q-34 37.5 -97 37.5 q-60 0 -102 -39 q-42 -39 -47 -95 Z" /><glyph glyph-name="uni0436" unicode="&#x436;" d="M2 0 l226 248 l-206 226 l123 0 l187 -220 l3 0 l0 220 l94 0 l0 -220 l3 0 l187 220 l123 0 l-207 -226 l227 -248 l-124 0 l-206 234 l-3 0 l0 -234 l-94 0 l0 234 l-3 0 l-206 -234 l-124 0 Z" /><glyph glyph-name="uni0437" unicode="&#x437;" d="M227 -14 q-135 0 -205 89 l64 55 q19 -29 56.5 -49 q37.5 -20 79.5 -20 q105 0 105 74 q0 74 -125 74 l-35 0 l0 70 l34 0 q112 0 112 72 q0 62 -95 62 q-34 0 -66 -16.5 q-32 -16.5 -51 -43.5 l-60 51 q26 39 75.5 61 q49.5 22 109.5 22 q81 0 131.5 -34.5 q50.5 -34.5 50.5 -94.5 q0 -40 -27.5 -70 q-27.5 -30 -69.5 -39 l0 -2 q50 -9 80.5 -39.5 q30.5 -30.5 30.5 -76.5 q0 -68 -55 -106.5 q-55 -38.5 -140 -38.5 Z" /><glyph glyph-name="uni0438" unicode="&#x438;" d="M81 0 l0 474 l94 0 l0 -342 l1 0 l243 342 l103 0 l0 -474 l-94 0 l0 343 l-2 0 l-242 -343 l-103 0 Z" /><glyph glyph-name="uni0439" unicode="&#x439;" d="M400.5 605 q-39.5 -35 -103.5 -35 q-64 0 -103.5 36 q-39.5 36 -47.5 98 l55 8 q6 -36 32 -56 q26 -20 64 -20 q38 0 64 20 q26 20 32 56 l55 -11 q-8 -61 -47.5 -96 ZM81 0 l0 474 l94 0 l0 -342 l1 0 l243 342 l103 0 l0 -474 l-94 0 l0 343 l-2 0 l-242 -343 l-103 0 Z" /><glyph glyph-name="uni043A" unicode="&#x43a;" d="M82 0 l0 474 l94 0 l0 -217 l3 0 l200 217 l125 0 l-220 -225 l240 -249 l-127 0 l-218 232 l-3 0 l0 -232 l-94 0 Z" /><glyph glyph-name="uni043B" unicode="&#x43b;" d="M73 -6 q-35 0 -61 7 l8 79 q15 -5 32 -5 q51 0 76 52.5 q25 52.5 25 181.5 l0 165 l364 0 l0 -474 l-94 0 l0 397 l-179 0 l0 -113 q0 -144 -40.5 -217 q-40.5 -73 -130.5 -73 Z" /><glyph glyph-name="uni043C" unicode="&#x43c;" d="M81 0 l0 474 l133 0 l156 -346 l1 0 l154 346 l134 0 l0 -474 l-93 0 l0 363 l-2 0 l-167 -363 l-57 0 l-165 364 l-1 0 l0 -364 l-93 0 Z" /><glyph glyph-name="uni043D" unicode="&#x43d;" d="M81 0 l0 474 l94 0 l0 -188 l235 0 l0 188 l94 0 l0 -474 l-94 0 l0 209 l-235 0 l0 -209 l-94 0 Z" /><glyph glyph-name="uni043E" unicode="&#x43e;" d="M487.5 58 q-73.5 -71 -182.5 -71 q-109 0 -182 71 q-73 71 -73 180 q0 109 72.5 179 q72.5 70 182.5 70 q110 0 183 -70 q73 -70 73 -179 q0 -109 -73.5 -180 ZM189.5 116.5 q42.5 -50.5 115.5 -50.5 q73 0 115.5 50.5 q42.5 50.5 42.5 121.5 q0 71 -42.5 121 q-42.5 50 -115.5 50 q-73 0 -115.5 -50 q-42.5 -50 -42.5 -121 q0 -71 42.5 -121.5 Z" /><glyph glyph-name="uni043F" unicode="&#x43f;" d="M81 0 l0 474 l420 0 l0 -474 l-94 0 l0 397 l-232 0 l0 -397 l-94 0 Z" /><glyph glyph-name="uni0440" unicode="&#x440;" d="M81 -240 l0 714 l92 0 l0 -74 l3 0 q24 39 69 63 q45 24 102 24 q104 0 170.5 -71.5 q66.5 -71.5 66.5 -177.5 q0 -107 -66 -179 q-66 -72 -173 -72 q-51 0 -96 22.5 q-45 22.5 -71 61.5 l-3 0 l0 -311 l-94 0 ZM329 66 q74 0 116 50.5 q42 50.5 42 121.5 q0 71 -42 121 q-42 50 -116 50 q-70 0 -115 -51 q-45 -51 -45 -121 q0 -70 45 -120.5 q45 -50.5 115 -50.5 Z" /><glyph glyph-name="uni0441" unicode="&#x441;" d="M305 -13 q-111 0 -183 69 q-72 69 -72 181 q0 111 71.5 180.5 q71.5 69.5 181.5 69.5 q52 0 101 -20.5 q49 -20.5 77 -57.5 l-68 -55 q-15 24 -45.5 39 q-30.5 15 -63.5 15 q-71 0 -113 -50 q-42 -50 -42 -121 q0 -71 42.5 -121 q42.5 -50 113.5 -50 q73 0 114 52 l63 -57 q-64 -74 -177 -74 Z" /><glyph glyph-name="uni0442" unicode="&#x442;" d="M181 0 l0 397 l-161 0 l0 77 l416 0 l0 -77 l-161 0 l0 -397 l-94 0 Z" /><glyph glyph-name="uni0443" unicode="&#x443;" d="M100 -240 q-33 0 -62 7 l9 83 q24 -8 47 -8 q34 0 53 18.5 q19 18.5 35 60.5 l30 79 l-203 474 l105 0 l147 -372 l2 0 l131 372 l100 0 l-230 -586 q-25 -65 -61.5 -96.5 q-36.5 -31.5 -102.5 -31.5 Z" /><glyph glyph-name="uni0444" unicode="&#x444;" d="M324 -240 l0 225 q-129 1 -202.5 68.5 q-73.5 67.5 -73.5 181.5 q0 115 73.5 181.5 q73.5 66.5 202.5 67.5 l0 272 l94 0 l0 -272 q129 -1 203 -67.5 q74 -66.5 74 -181.5 q0 -114 -74 -181.5 q-74 -67.5 -203 -68.5 l0 -225 l-94 0 ZM324 63 l0 343 q-86 -1 -132 -46 q-46 -45 -46 -124 q0 -81 46 -126.5 q46 -45.5 132 -46.5 ZM418 63 q87 1 133 46.5 q46 45.5 46 126.5 q0 79 -46.5 124 q-46.5 45 -132.5 46 l0 -343 Z" /><glyph glyph-name="uni0445" unicode="&#x445;" d="M7 0 l190 249 l-173 225 l116 0 l116 -163 l117 163 l110 0 l-171 -224 l191 -250 l-117 0 l-132 185 l-134 -185 l-113 0 Z" /><glyph glyph-name="uni0446" unicode="&#x446;" d="M492 -145 l0 145 l-411 0 l0 474 l94 0 l0 -395 l232 0 l0 395 l94 0 l0 -395 l72 0 l0 -224 l-81 0 Z" /><glyph glyph-name="uni0447" unicode="&#x447;" d="M358 0 l0 185 q-58 -16 -132 -16 q-162 0 -162 150 l0 155 l92 0 l0 -134 q0 -55 24 -75 q24 -20 74 -20 q50 0 104 15 l0 214 l94 0 l0 -474 l-94 0 Z" /><glyph glyph-name="uni0448" unicode="&#x448;" d="M81 0 l0 474 l94 0 l0 -395 l203 0 l0 395 l94 0 l0 -395 l202 0 l0 395 l94 0 l0 -474 l-687 0 Z" /><glyph glyph-name="uni0449" unicode="&#x449;" d="M759 -144 l0 144 l-678 0 l0 474 l94 0 l0 -395 l203 0 l0 395 l94 0 l0 -395 l202 0 l0 395 l94 0 l0 -395 l73 0 l0 -223 l-82 0 Z" /><glyph glyph-name="uni044A" unicode="&#x44a;" d="M154 0 l0 397 l-134 0 l0 77 l228 0 l0 -172 l109 0 q88 0 138.5 -38.5 q50.5 -38.5 50.5 -112.5 q0 -73 -50.5 -112 q-50.5 -39 -138.5 -39 l-203 0 ZM248 75 l97 0 q106 0 106 75 q0 78 -106 78 l-97 0 l0 -153 Z" /><glyph glyph-name="uni044B" unicode="&#x44b;" d="M81 0 l0 474 l94 0 l0 -172 l108 0 q88 0 138.5 -38.5 q50.5 -38.5 50.5 -112.5 q0 -73 -50 -112 q-50 -39 -138 -39 l-203 0 ZM175 75 l97 0 q105 0 105 75 q0 78 -105 78 l-97 0 l0 -153 ZM561 0 l0 474 l94 0 l0 -474 l-94 0 Z" /><glyph glyph-name="uni044C" unicode="&#x44c;" d="M81 0 l0 474 l94 0 l0 -172 l108 0 q88 0 138.5 -38.5 q50.5 -38.5 50.5 -112.5 q0 -73 -50 -112 q-50 -39 -138 -39 l-203 0 ZM175 75 l97 0 q105 0 105 75 q0 78 -105 78 l-97 0 l0 -153 Z" /><glyph glyph-name="uni044D" unicode="&#x44d;" d="M195 -13 q-118 0 -183 75 l59 57 q47 -54 122 -54 q67 0 109.5 39 q42.5 39 49.5 104 l-207 0 l0 77 l204 0 q-8 53 -50.5 89 q-42.5 36 -98.5 36 q-79 0 -125 -54 q-11 11 -32 31 q-21 20 -28 27 q29 34 78 53.5 q49 19.5 103 19.5 q114 0 184 -69.5 q70 -69.5 70 -181.5 q0 -112 -70 -180.5 q-70 -68.5 -185 -68.5 Z" /><glyph glyph-name="uni044E" unicode="&#x44e;" d="M516 -14 q-99 0 -167 62 q-68 62 -78 161 l-96 0 l0 -209 l-94 0 l0 474 l94 0 l0 -188 l98 0 q15 90 82 145.5 q67 55.5 161 55.5 q107 0 177.5 -70.5 q70.5 -70.5 70.5 -179.5 q0 -110 -70.5 -180.5 q-70.5 -70.5 -177.5 -70.5 ZM516 66 q69 0 110 48.5 q41 48.5 41 122.5 q0 74 -41 122.5 q-41 48.5 -110 48.5 q-69 0 -110 -48.5 q-41 -48.5 -41 -122.5 q0 -74 41.5 -122.5 q41.5 -48.5 109.5 -48.5 Z" /><glyph glyph-name="uni044F" unicode="&#x44f;" d="M48 0 l123 186 q-111 28 -111 139 q0 73 50.5 111 q50.5 38 134.5 38 l221 0 l0 -474 l-94 0 l0 177 l-101 0 l-108 -177 l-115 0 ZM261 250 l111 0 l0 150 l-111 0 q-109 0 -109 -75 q0 -75 109 -75 Z" /><glyph glyph-name="uni0450" unicode="&#x450;" d="M260 564 l-136 144 l113 0 l100 -144 l-77 0 ZM300 -13 q-109 0 -179.5 69 q-70.5 69 -70.5 180 q0 110 70 180.5 q70 70.5 175 70.5 q105 0 166.5 -66.5 q61.5 -66.5 61.5 -179.5 q0 -21 -1 -32 l-376 0 q2 -61 47 -102.5 q45 -41.5 107 -41.5 q89 0 138 72 l66 -53 q-75 -97 -204 -97 ZM146 279 l282 0 q-2 59 -36 96.5 q-34 37.5 -97 37.5 q-60 0 -102 -39 q-42 -39 -47 -95 Z" /><glyph glyph-name="uni0451" unicode="&#x451;" d="M140 645 q0 25 18 43 q18 18 44 18 q26 0 44 -17.5 q18 -17.5 18 -43.5 q0 -25 -18 -42.5 q-18 -17.5 -44 -17.5 q-26 0 -44 18 q-18 18 -18 42 ZM334 645 q0 25 18 43 q18 18 44 18 q26 0 44 -17.5 q18 -17.5 18 -43.5 q0 -25 -18 -42.5 q-18 -17.5 -44 -17.5 q-26 0 -44 18 q-18 18 -18 42 ZM300 -13 q-109 0 -179.5 69 q-70.5 69 -70.5 180 q0 110 70 180.5 q70 70.5 175 70.5 q105 0 166.5 -66.5 q61.5 -66.5 61.5 -179.5 q0 -21 -1 -32 l-376 0 q2 -61 47 -102.5 q45 -41.5 107 -41.5 q89 0 138 72 l66 -53 q-75 -97 -204 -97 ZM146 279 l282 0 q-2 59 -36 96.5 q-34 37.5 -97 37.5 q-60 0 -102 -39 q-42 -39 -47 -95 Z" /><glyph glyph-name="uni0452" unicode="&#x452;" d="M337 -240 q-36 0 -65 8 l12 78 q26 -6 44 -6 q48 0 66 29 q18 29 18 83 l0 306 q0 145 -107 145 q-56 0 -92 -43 q-36 -43 -36 -113 l0 -247 l-94 0 l0 564 l-79 0 l0 72 l79 0 l0 120 l94 0 l0 -120 l151 0 l0 -72 l-151 0 l0 -166 l2 0 q17 36 58.5 60.5 q41.5 24.5 91.5 24.5 q87 0 132 -54 q45 -54 45 -139 l0 -345 q0 -87 -42.5 -136 q-42.5 -49 -126.5 -49 Z" /><glyph glyph-name="uni0453" unicode="&#x453;" d="M388 708 l-136 -144 l-77 0 l100 144 l113 0 ZM81 0 l0 474 l323 0 l0 -77 l-229 0 l0 -397 l-94 0 Z" /><glyph glyph-name="uni0454" unicode="&#x454;" d="M305 -13 q-115 0 -185 68.5 q-70 68.5 -70 180.5 q0 112 70 181.5 q70 69.5 184 69.5 q54 0 103 -19.5 q49 -19.5 78 -53.5 q-7 -7 -28 -27 q-21 -20 -32 -31 q-46 54 -125 54 q-56 0 -98.5 -36 q-42.5 -36 -50.5 -89 l204 0 l0 -77 l-207 0 q7 -65 49.5 -104 q42.5 -39 109.5 -39 q75 0 122 54 l59 -57 q-65 -75 -183 -75 Z" /><glyph glyph-name="uni0455" unicode="&#x455;" d="M217 -13 q-56 0 -107 22 q-51 22 -84 63 l67 57 q19 -29 53.5 -47.5 q34.5 -18.5 72.5 -18.5 q40 0 67 16.5 q27 16.5 27 52.5 q0 31 -28.5 47 q-28.5 16 -95.5 32 q-28 7 -49 15 q-21 8 -43 22.5 q-22 14.5 -34 38 q-12 23.5 -12 55.5 q0 72 52.5 108.5 q52.5 36.5 126.5 36.5 q52 0 99.5 -20.5 q47.5 -20.5 72.5 -57.5 l-65 -55 q-16 26 -45.5 42.5 q-29.5 16.5 -64.5 16.5 q-36 0 -62 -15.5 q-26 -15.5 -26 -46.5 q0 -28 25 -43 q25 -15 83 -28 q159 -35 159 -140 q0 -78 -54.5 -115.5 q-54.5 -37.5 -134.5 -37.5 Z" /><glyph glyph-name="uni0456" unicode="&#x456;" d="M82 0 l0 474 l94 0 l0 -474 l-94 0 ZM173.5 602.5 q-18.5 -17.5 -44.5 -17.5 q-26 0 -44 17.5 q-18 17.5 -18 42.5 q0 25 18 43 q18 18 44 18 q26 0 44.5 -17.5 q18.5 -17.5 18.5 -43.5 q0 -25 -18.5 -42.5 Z" /><glyph glyph-name="uni0457" unicode="&#x457;" d="M-30 645 q0 25 18 43 q18 18 44 18 q26 0 44 -17.5 q18 -17.5 18 -43.5 q0 -25 -18 -42.5 q-18 -17.5 -44 -17.5 q-26 0 -44 18 q-18 18 -18 42 ZM164 645 q0 25 18 43 q18 18 44 18 q26 0 44 -17.5 q18 -17.5 18 -43.5 q0 -25 -18 -42.5 q-18 -17.5 -44 -17.5 q-26 0 -44 18 q-18 18 -18 42 ZM176 474 l0 -474 l-94 0 l0 474 l94 0 Z" /><glyph glyph-name="uni0458" unicode="&#x458;" d="M23 -240 q-24 0 -54 6 l10 80 q20 -5 38 -5 q39 0 52.5 26 q13.5 26 13.5 75 l0 532 l94 0 l0 -535 q0 -179 -154 -179 ZM174.5 602.5 q-18.5 -17.5 -44.5 -17.5 q-26 0 -44.5 17.5 q-18.5 17.5 -18.5 42.5 q0 25 18.5 43 q18.5 18 44.5 18 q26 0 44.5 -17.5 q18.5 -17.5 18.5 -43.5 q0 -25 -18.5 -42.5 Z" /><glyph glyph-name="uni0459" unicode="&#x459;" d="M73 -6 q-35 0 -61 7 l8 79 q15 -5 32 -5 q51 0 76 52.5 q25 52.5 25 181.5 l0 165 l364 0 l0 -172 l109 0 q88 0 138.5 -38.5 q50.5 -38.5 50.5 -112.5 q0 -73 -50.5 -112 q-50.5 -39 -138.5 -39 l-203 0 l0 397 l-179 0 l0 -113 q0 -144 -40.5 -217 q-40.5 -73 -130.5 -73 ZM517 75 l97 0 q106 0 106 75 q0 78 -106 78 l-97 0 l0 -153 Z" /><glyph glyph-name="uni045A" unicode="&#x45a;" d="M81 0 l0 474 l94 0 l0 -182 l235 0 l0 182 l94 0 l0 -182 l110 0 q89 0 139.5 -36.5 q50.5 -36.5 50.5 -110.5 q0 -72 -50 -108.5 q-50 -36.5 -139 -36.5 l-205 0 l0 219 l-235 0 l0 -219 l-94 0 ZM504 74 l106 0 q98 0 98 71 q0 74 -98 74 l-106 0 l0 -145 Z" /><glyph glyph-name="uni045B" unicode="&#x45b;" d="M83 0 l0 564 l-79 0 l0 72 l79 0 l0 120 l94 0 l0 -120 l151 0 l0 -72 l-151 0 l0 -166 l2 0 q17 36 58.5 60.5 q41.5 24.5 91.5 24.5 q87 0 132 -54 q45 -54 45 -139 l0 -290 l-94 0 l0 258 q0 145 -107 145 q-56 0 -92 -43 q-36 -43 -36 -113 l0 -247 l-94 0 Z" /><glyph glyph-name="uni045C" unicode="&#x45c;" d="M452 708 l-136 -144 l-77 0 l100 144 l113 0 ZM82 0 l0 474 l94 0 l0 -217 l3 0 l200 217 l125 0 l-220 -225 l240 -249 l-127 0 l-218 232 l-3 0 l0 -232 l-94 0 Z" /><glyph glyph-name="uni045D" unicode="&#x45d;" d="M271 564 l-136 144 l113 0 l100 -144 l-77 0 ZM81 0 l0 474 l94 0 l0 -342 l1 0 l243 342 l103 0 l0 -474 l-94 0 l0 343 l-2 0 l-242 -343 l-103 0 Z" /><glyph glyph-name="uni045E" unicode="&#x45e;" d="M363.5 605 q-39.5 -35 -103.5 -35 q-64 0 -103.5 36 q-39.5 36 -47.5 98 l55 8 q6 -36 32 -56 q26 -20 64 -20 q38 0 64 20 q26 20 32 56 l55 -11 q-8 -61 -47.5 -96 ZM100 -240 q-33 0 -62 7 l9 83 q24 -8 47 -8 q34 0 53 18.5 q19 18.5 35 60.5 l30 79 l-203 474 l105 0 l147 -372 l2 0 l131 372 l100 0 l-230 -586 q-25 -65 -61.5 -96.5 q-36.5 -31.5 -102.5 -31.5 Z" /><glyph glyph-name="uni045F" unicode="&#x45f;" d="M249 -145 l0 145 l-168 0 l0 474 l94 0 l0 -395 l232 0 l0 395 l94 0 l0 -474 l-170 0 l0 -145 l-82 0 Z" /><glyph glyph-name="uni0490" unicode="&#x490;" d="M86 0 l0 708 l326 0 l0 140 l87 0 l0 -227 l-314 0 l0 -621 l-99 0 Z" /><glyph glyph-name="uni0491" unicode="&#x491;" d="M81 0 l0 474 l244 0 l0 121 l79 0 l0 -198 l-229 0 l0 -397 l-94 0 Z" /><glyph glyph-name="Wgrave" unicode="&#x1e80;" d="M117 708 l156 -564 l2 0 l166 564 l109 0 l165 -564 l2 0 l156 564 l105 0 l-208 -708 l-103 0 l-172 569 l-2 0 l-172 -569 l-103 0 l-208 708 l107 0 ZM465 764 l-137 144 l114 0 l100 -144 l-77 0 Z" /><glyph glyph-name="wgrave" unicode="&#x1e81;" d="M14 474 l102 0 l107 -362 l2 0 l113 362 l99 0 l115 -362 l2 0 l107 362 l99 0 l-157 -474 l-98 0 l-117 356 l-2 0 l-116 -356 l-98 0 l-158 474 ZM352 564 l-136 144 l113 0 l100 -144 l-77 0 Z" /><glyph glyph-name="Wacute" unicode="&#x1e82;" d="M117 708 l156 -564 l2 0 l166 564 l109 0 l165 -564 l2 0 l156 564 l105 0 l-208 -708 l-103 0 l-172 569 l-2 0 l-172 -569 l-103 0 l-208 708 l107 0 ZM662 908 l-137 -144 l-76 0 l99 144 l114 0 Z" /><glyph glyph-name="wacute" unicode="&#x1e83;" d="M14 474 l102 0 l107 -362 l2 0 l113 362 l99 0 l115 -362 l2 0 l107 362 l99 0 l-157 -474 l-98 0 l-117 356 l-2 0 l-116 -356 l-98 0 l-158 474 ZM559 708 l-136 -144 l-77 0 l100 144 l113 0 Z" /><glyph glyph-name="Wdieresis" unicode="&#x1e84;" d="M117 708 l156 -564 l2 0 l166 564 l109 0 l165 -564 l2 0 l156 564 l105 0 l-208 -708 l-103 0 l-172 569 l-2 0 l-172 -569 l-103 0 l-208 708 l107 0 ZM335 845 q0 25 18 43 q18 18 44 18 q26 0 44 -17.5 q18 -17.5 18 -43.5 q0 -25 -18 -42.5 q-18 -17.5 -44 -17.5 q-26 0 -44 18 q-18 18 -18 42 ZM529 845 q0 25 18 43 q18 18 44 18 q26 0 44 -17.5 q18 -17.5 18 -43.5 q0 -25 -18 -42.5 q-18 -17.5 -44 -17.5 q-26 0 -44 18 q-18 18 -18 42 Z" /><glyph glyph-name="wdieresis" unicode="&#x1e85;" d="M14 474 l102 0 l107 -362 l2 0 l113 362 l99 0 l115 -362 l2 0 l107 362 l99 0 l-157 -474 l-98 0 l-117 356 l-2 0 l-116 -356 l-98 0 l-158 474 ZM228 645 q0 25 18 43 q18 18 44 18 q26 0 44 -17.5 q18 -17.5 18 -43.5 q0 -25 -18 -42.5 q-18 -17.5 -44 -17.5 q-26 0 -44 18 q-18 18 -18 42 ZM422 645 q0 25 18 43 q18 18 44 18 q26 0 44 -17.5 q18 -17.5 18 -43.5 q0 -25 -18 -42.5 q-18 -17.5 -44 -17.5 q-26 0 -44 18 q-18 18 -18 42 Z" /><glyph glyph-name="Ygrave" unicode="&#x1ef2;" d="M362 306 l0 -306 l-100 0 l0 306 l-265 402 l122 0 l196 -320 l197 320 l115 0 l-265 -402 ZM288 764 l-137 144 l114 0 l100 -144 l-77 0 Z" /><glyph glyph-name="ygrave" unicode="&#x1ef3;" d="M114 474 l147 -372 l2 0 l131 372 l100 0 l-230 -586 q-25 -65 -61.5 -96.5 q-36.5 -31.5 -102.5 -31.5 q-33 0 -62 7 l9 83 q24 -8 47 -8 q34 0 53 18.5 q19 18.5 35 60.5 l30 79 l-203 474 l105 0 ZM228 564 l-136 144 l113 0 l100 -144 l-77 0 Z" /><glyph glyph-name="uni2010" unicode="&#x2010;" d="M276 284 l0 -80 l-232 0 l0 80 l232 0 Z" /><glyph glyph-name="endash" unicode="&#x2013;" d="M370 282 l0 -75 l-340 0 l0 75 l340 0 Z" /><glyph glyph-name="emdash" unicode="&#x2014;" d="M570 282 l0 -75 l-540 0 l0 75 l540 0 Z" /><glyph glyph-name="quoteleft" unicode="&#x2018;" d="M42 458 l83 250 l79 0 l-68 -250 l-94 0 Z" /><glyph glyph-name="quoteright" unicode="&#x2019;" d="M204 708 l-83 -250 l-79 0 l69 250 l93 0 Z" /><glyph glyph-name="quotesinglbase" unicode="&#x201a;" d="M204 117 l-83 -250 l-79 0 l69 250 l93 0 Z" /><glyph glyph-name="quotedblleft" unicode="&#x201c;" d="M42 458 l83 250 l79 0 l-68 -250 l-94 0 ZM222 458 l83 250 l79 0 l-68 -250 l-94 0 Z" /><glyph glyph-name="quotedblright" unicode="&#x201d;" d="M384 708 l-83 -250 l-79 0 l69 250 l93 0 ZM204 708 l-83 -250 l-79 0 l69 250 l93 0 Z" /><glyph glyph-name="quotedblbase" unicode="&#x201e;" d="M384 117 l-83 -250 l-79 0 l69 250 l93 0 ZM204 117 l-83 -250 l-79 0 l69 250 l93 0 Z" /><glyph glyph-name="dagger" unicode="&#x2020;" d="M332 708 l0 -203 l202 0 l0 -79 l-202 0 l0 -552 l-90 0 l0 552 l-201 0 l0 79 l201 0 l0 203 l90 0 Z" /><glyph glyph-name="daggerdbl" unicode="&#x2021;" d="M332 708 l0 -188 l194 0 l0 -79 l-194 0 l0 -300 l194 0 l0 -78 l-194 0 l0 -189 l-90 0 l0 189 l-194 0 l0 78 l194 0 l0 300 l-194 0 l0 79 l194 0 l0 188 l90 0 Z" /><glyph glyph-name="bullet" unicode="&#x2022;" d="M124.5 228.5 q-51.5 51.5 -51.5 125.5 q0 74 51.5 125.5 q51.5 51.5 125.5 51.5 q74 0 125.5 -51.5 q51.5 -51.5 51.5 -125.5 q0 -74 -51.5 -125.5 q-51.5 -51.5 -125.5 -51.5 q-74 0 -125.5 51.5 Z" /><glyph glyph-name="ellipsis" unicode="&#x2026;" d="M111 16 q-24 22 -24 54 q0 32 23.5 55 q23.5 23 56.5 23 q33 0 56.5 -22 q23.5 -22 23.5 -54 q0 -32 -23.5 -55 q-23.5 -23 -56.5 -23 q-32 0 -56 22 ZM444 16 q-24 22 -24 54 q0 32 23.5 55 q23.5 23 56.5 23 q33 0 56.5 -22 q23.5 -22 23.5 -54 q0 -32 -23.5 -55 q-23.5 -23 -56.5 -23 q-32 0 -56 22 ZM777 16 q-24 22 -24 54 q0 32 23.5 55 q23.5 23 56.5 23 q33 0 56.5 -22 q23.5 -22 23.5 -54 q0 -32 -23.5 -55 q-23.5 -23 -56.5 -23 q-32 0 -56 22 Z" /><glyph glyph-name="perthousand" unicode="&#x2030;" d="M85.5 450.5 q-46.5 46.5 -46.5 112.5 q0 66 46.5 112.5 q46.5 46.5 112.5 46.5 q67 0 113.5 -46.5 q46.5 -46.5 46.5 -112.5 q0 -66 -46.5 -112.5 q-46.5 -46.5 -113.5 -46.5 q-66 0 -112.5 46.5 ZM258 503 q25 25 25 60 q0 35 -25 59.5 q-25 24.5 -60 24.5 q-35 0 -59.5 -24.5 q-24.5 -24.5 -24.5 -59.5 q0 -35 24.5 -60 q24.5 -25 59.5 -25 q35 0 60 25 ZM390.5 35.5 q-46.5 46.5 -46.5 112.5 q0 66 46.5 112.5 q46.5 46.5 112.5 46.5 q67 0 113.5 -46.5 q46.5 -46.5 46.5 -112.5 q0 -66 -46.5 -112.5 q-46.5 -46.5 -113.5 -46.5 q-66 0 -112.5 46.5 ZM563 88 q25 25 25 60 q0 35 -25 59.5 q-25 24.5 -60 24.5 q-35 0 -59.5 -24.5 q-24.5 -24.5 -24.5 -59.5 q0 -35 24.5 -60 q24.5 -25 59.5 -25 q35 0 60 25 ZM742.5 35.5 q-46.5 46.5 -46.5 112.5 q0 66 46.5 112.5 q46.5 46.5 112.5 46.5 q67 0 113.5 -46.5 q46.5 -46.5 46.5 -112.5 q0 -66 -46.5 -112.5 q-46.5 -46.5 -113.5 -46.5 q-66 0 -112.5 46.5 ZM915 88 q25 25 25 60 q0 35 -25 59.5 q-25 24.5 -60 24.5 q-35 0 -59.5 -24.5 q-24.5 -24.5 -24.5 -59.5 q0 -35 24.5 -60 q24.5 -25 59.5 -25 q35 0 60 25 ZM612 707 l-469 -739 l-56 32 l470 739 l55 -32 Z" /><glyph glyph-name="guilsinglleft" unicode="&#x2039;" d="M133 244 l115 -175 l-62 -43 l-146 218 l146 217 l62 -42 l-115 -175 Z" /><glyph glyph-name="guilsinglright" unicode="&#x203a;" d="M166 243 l-116 176 l62 42 l146 -218 l-146 -217 l-61 43 l115 174 Z" /><glyph glyph-name="interrobang" unicode="&#x203d;" d="M300 200 l-90 0 l-1 323 l88 0 l-4 -142 l1 0 q6 8 20.5 24.5 q14.5 16.5 21.5 24.5 q41 48 41 101 q0 50 -32 80 q-32 30 -85 30 q-52 0 -84.5 -31.5 q-32.5 -31.5 -37.5 -82.5 l-90 11 q13 86 71.5 135.5 q58.5 49.5 144.5 49.5 q87 0 145.5 -49.5 q58.5 -49.5 58.5 -135.5 q0 -56 -23 -94.5 q-23 -38.5 -71 -82.5 q-43 -39 -58.5 -63.5 q-15.5 -24.5 -15.5 -65.5 l0 -32 ZM305.5 106 q19.5 -19 19.5 -46 q0 -27 -19.5 -46.5 q-19.5 -19.5 -47.5 -19.5 q-28 0 -47.5 19 q-19.5 19 -19.5 46 q0 27 19.5 46.5 q19.5 19.5 47.5 19.5 q28 0 47.5 -19 Z" /><glyph glyph-name="fraction" unicode="&#x2044;" d="M288 707 l-432 -739 l-66 33 l434 739 l64 -33 Z" /><glyph glyph-name="zero.superior" unicode="&#x2070;" d="M342 664 q0 -99 -36.5 -160 q-36.5 -61 -112.5 -61 q-77 0 -114 61 q-37 61 -37 160 q0 98 37.5 158.5 q37.5 60.5 113.5 60.5 q75 0 112 -60.5 q37 -60.5 37 -158.5 ZM265 664 q0 62 -17 107 q-17 45 -55 45 q-27 0 -44.5 -24.5 q-17.5 -24.5 -23.5 -56.5 q-6 -32 -6 -71 q0 -40 6 -72.5 q6 -32.5 23.5 -57 q17.5 -24.5 44.5 -24.5 q38 0 55 45 q17 45 17 109 Z" /><glyph glyph-name="four.superior" unicode="&#x2074;" d="M291 876 l0 -268 l59 0 l0 -67 l-59 0 l0 -91 l-71 0 l0 91 l-189 0 l0 64 l177 271 l83 0 ZM220 782 l-3 0 l-109 -174 l112 0 l0 174 Z" /><glyph glyph-name="five.superior" unicode="&#x2075;" d="M335 592 q0 -67 -42.5 -108 q-42.5 -41 -107.5 -41 q-106 0 -143 96 l68 25 q24 -54 75 -54 q33 0 54 21 q21 21 21 56 q0 37 -23.5 57.5 q-23.5 20.5 -61.5 20.5 q-47 0 -100 -30 l5 241 l239 0 l0 -68 l-166 0 l-3 -85 q20 6 42 6 q64 0 103.5 -37.5 q39.5 -37.5 39.5 -99.5 Z" /><glyph glyph-name="six.superior" unicode="&#x2076;" d="M342 588 q0 -64 -42.5 -104.5 q-42.5 -40.5 -106.5 -40.5 q-64 0 -107 41 q-43 41 -43 103 q0 56 40 119 l108 170 l91 0 l-104 -155 l1 -1 q12 4 29 4 q56 0 95 -38.5 q39 -38.5 39 -97.5 ZM267 586 q0 32 -20.5 53.5 q-20.5 21.5 -53.5 21.5 q-33 0 -54 -21 q-21 -21 -21 -54 q0 -31 21 -53.5 q21 -22.5 53 -22.5 q33 0 54 21.5 q21 21.5 21 54.5 Z" /><glyph glyph-name="seven.superior" unicode="&#x2077;" d="M167 450 l-86 0 l169 358 l-193 0 l0 68 l277 0 l0 -60 l-167 -366 Z" /><glyph glyph-name="eight.superior" unicode="&#x2078;" d="M337 572 q0 -59 -42 -94 q-42 -35 -103 -35 q-61 0 -103 35 q-42 35 -42 94 q0 71 64 102 l0 1 q-52 28 -52 90 q0 53 38.5 85.5 q38.5 32.5 94.5 32.5 q56 0 94.5 -32 q38.5 -32 38.5 -85 q0 -60 -51 -91 l0 -1 q29 -13 46 -40 q17 -27 17 -62 ZM232.5 802 q-16.5 16 -40.5 16 q-24 0 -40.5 -16 q-16.5 -16 -16.5 -40 q0 -24 16.5 -40.5 q16.5 -16.5 40.5 -16.5 q23 0 40 16.5 q17 16.5 17 40.5 q0 24 -16.5 40 ZM242 623 q-20 19 -50 19 q-30 0 -50 -19 q-20 -19 -20 -48 q0 -29 20 -47.5 q20 -18.5 50 -18.5 q30 0 50 18.5 q20 18.5 20 47.5 q0 29 -20 48 Z" /><glyph glyph-name="nine.superior" unicode="&#x2079;" d="M43 738 q0 64 42.5 104.5 q42.5 40.5 106.5 40.5 q64 0 107 -41 q43 -41 43 -103 q0 -56 -40 -119 l-108 -170 l-91 0 l104 155 l-1 1 q-12 -4 -29 -4 q-56 0 -95 38.5 q-39 38.5 -39 97.5 ZM118 740 q0 -32 20.5 -53 q20.5 -21 53.5 -21 q34 0 54.5 21 q20.5 21 20.5 53 q0 31 -21 53.5 q-21 22.5 -53 22.5 q-33 0 -54 -21.5 q-21 -21.5 -21 -54.5 Z" /><glyph glyph-name="zero.inferior" unicode="&#x2080;" d="M342 74 q0 -99 -36.5 -160 q-36.5 -61 -112.5 -61 q-77 0 -114 61 q-37 61 -37 160 q0 98 37.5 158.5 q37.5 60.5 113.5 60.5 q75 0 112 -60.5 q37 -60.5 37 -158.5 ZM265 74 q0 62 -17 107 q-17 45 -55 45 q-27 0 -44.5 -24.5 q-17.5 -24.5 -23.5 -56.5 q-6 -32 -6 -71 q0 -40 6 -72.5 q6 -32.5 23.5 -57 q17.5 -24.5 44.5 -24.5 q38 0 55 45 q17 45 17 109 Z" /><glyph glyph-name="one.inferior" unicode="&#x2081;" d="M247 286 l0 -426 l-78 0 l0 332 l-68 -59 l-46 51 l125 102 l67 0 Z" /><glyph glyph-name="two.inferior" unicode="&#x2082;" d="M333 -71 l0 -69 l-283 0 l0 67 l164 165 q40 42 40 78 q0 25 -17 40 q-17 15 -43 15 q-27 0 -45 -18.5 q-18 -18.5 -23 -49.5 l-74 10 q8 55 47.5 90.5 q39.5 35.5 94.5 35.5 q58 0 98 -32 q40 -32 40 -91 q0 -38 -18 -67 q-18 -29 -52 -62 l-114 -112 l185 0 Z" /><glyph glyph-name="three.inferior" unicode="&#x2083;" d="M143 49 l0 62 l27 0 q80 0 80 63 q0 23 -18 38 q-18 15 -43 15 q-46 0 -66 -51 l-68 23 q18 44 54.5 69 q36.5 25 81.5 25 q59 0 97 -30 q38 -30 38 -86 q0 -32 -17.5 -56.5 q-17.5 -24.5 -44.5 -36.5 q32 -10 52.5 -37.5 q20.5 -27.5 20.5 -63.5 q0 -62 -43 -96 q-43 -34 -103 -34 q-114 0 -151 105 l71 22 q20 -60 78 -60 q30 0 51.5 16.5 q21.5 16.5 21.5 48.5 q0 34 -27 49 q-27 15 -65 15 l-27 0 Z" /><glyph glyph-name="four.inferior" unicode="&#x2084;" d="M291 286 l0 -268 l59 0 l0 -67 l-59 0 l0 -91 l-71 0 l0 91 l-189 0 l0 64 l177 271 l83 0 ZM220 192 l-3 0 l-109 -174 l112 0 l0 174 Z" /><glyph glyph-name="five.inferior" unicode="&#x2085;" d="M335 2 q0 -67 -42.5 -108 q-42.5 -41 -107.5 -41 q-106 0 -143 96 l68 25 q24 -54 75 -54 q33 0 54 21 q21 21 21 56 q0 37 -23.5 57.5 q-23.5 20.5 -61.5 20.5 q-47 0 -100 -30 l5 241 l239 0 l0 -68 l-166 0 l-3 -85 q20 6 42 6 q64 0 103.5 -37.5 q39.5 -37.5 39.5 -99.5 Z" /><glyph glyph-name="six.inferior" unicode="&#x2086;" d="M342 -2 q0 -64 -42.5 -104.5 q-42.5 -40.5 -106.5 -40.5 q-64 0 -107 41 q-43 41 -43 103 q0 56 40 119 l108 170 l91 0 l-104 -155 l1 -1 q12 4 29 4 q56 0 95 -38.5 q39 -38.5 39 -97.5 ZM267 -4 q0 32 -20.5 53.5 q-20.5 21.5 -53.5 21.5 q-33 0 -54 -21 q-21 -21 -21 -54 q0 -31 21 -53.5 q21 -22.5 53 -22.5 q33 0 54 21.5 q21 21.5 21 54.5 Z" /><glyph glyph-name="seven.inferior" unicode="&#x2087;" d="M167 -140 l-86 0 l169 358 l-193 0 l0 68 l277 0 l0 -60 l-167 -366 Z" /><glyph glyph-name="eight.inferior" unicode="&#x2088;" d="M337 -18 q0 -59 -42 -94 q-42 -35 -103 -35 q-61 0 -103 35 q-42 35 -42 94 q0 71 64 102 l0 1 q-52 28 -52 90 q0 53 38.5 85.5 q38.5 32.5 94.5 32.5 q56 0 94.5 -32 q38.5 -32 38.5 -85 q0 -60 -51 -91 l0 -1 q29 -13 46 -40 q17 -27 17 -62 ZM232.5 212 q-16.5 16 -40.5 16 q-24 0 -40.5 -16 q-16.5 -16 -16.5 -40 q0 -24 16.5 -40.5 q16.5 -16.5 40.5 -16.5 q23 0 40 16.5 q17 16.5 17 40.5 q0 24 -16.5 40 ZM242 33 q-20 19 -50 19 q-30 0 -50 -19 q-20 -19 -20 -48 q0 -29 20 -47.5 q20 -18.5 50 -18.5 q30 0 50 18.5 q20 18.5 20 47.5 q0 29 -20 48 Z" /><glyph glyph-name="nine.inferior" unicode="&#x2089;" d="M43 148 q0 64 42.5 104.5 q42.5 40.5 106.5 40.5 q64 0 107 -41 q43 -41 43 -103 q0 -56 -40 -119 l-108 -170 l-91 0 l104 155 l-1 1 q-12 -4 -29 -4 q-56 0 -95 38.5 q-39 38.5 -39 97.5 ZM118 150 q0 -32 20.5 -53 q20.5 -21 53.5 -21 q34 0 54.5 21 q20.5 21 20.5 53 q0 31 -21 53.5 q-21 22.5 -53 22.5 q-33 0 -54 -21.5 q-21 -21.5 -21 -54.5 Z" /><glyph glyph-name="Euro" unicode="&#x20ac;" d="M527 613 q-50 29 -128 29 q-74 0 -129.5 -44 q-55.5 -44 -75.5 -120 l294 0 l-23 -71 l-285 0 q-4 -23 -4 -57 q0 -28 3 -50 l256 0 l-23 -71 l-222 0 q14 -72 71.5 -117 q57.5 -45 136.5 -45 q78 0 134 36 l35 -76 q-67 -45 -175 -45 q-122 0 -199 70.5 q-77 70.5 -99 176.5 l-80 0 l24 71 l47 0 q-2 28 -2 50 q0 34 3 57 l-70 0 l25 71 l56 0 q28 115 110.5 181.5 q82.5 66.5 196.5 66.5 q93 0 154 -33 l-31 -80 Z" /><glyph glyph-name="afii61248" unicode="&#x2105;" d="M690 707 l-433 -739 l-68 33 l434 739 l67 -33 ZM842 166 q0 -78 -52 -128 q-52 -50 -131 -50 q-78 0 -130 50.5 q-52 50.5 -52 127.5 q0 77 52 126.5 q52 49.5 130 49.5 q79 0 131 -49.5 q52 -49.5 52 -126.5 ZM752 166 q0 42 -25 71.5 q-25 29.5 -68 29.5 q-42 0 -67 -29.5 q-25 -29.5 -25 -71.5 q0 -42 25 -72.5 q25 -30.5 67 -30.5 q43 0 68 30 q25 30 25 73 ZM359 662 l-65 -53 q-27 37 -70 37 q-42 0 -66.5 -29.5 q-24.5 -29.5 -24.5 -72.5 q0 -42 25 -72 q25 -30 66 -30 q41 0 76 40 l60 -53 q-55 -62 -136 -62 q-79 0 -131 49 q-52 49 -52 128 q0 78 51.5 127.5 q51.5 49.5 130.5 49.5 q90 0 136 -59 Z" /><glyph glyph-name="afii61289" unicode="&#x2113;" d="M428 44 q-65 -58 -143 -58 q-63 0 -100.5 35 q-37.5 35 -37.5 99 l0 91 l-58 -57 l-2 0 l-33 48 l92 85 l0 253 q0 82 41 131.5 q41 49.5 104 49.5 q55 0 88.5 -36.5 q33.5 -36.5 33.5 -98.5 q0 -143 -177 -314 l0 -138 q0 -44 20.5 -62.5 q20.5 -18.5 49.5 -18.5 q43 0 88 38 l2 0 l32 -47 ZM339 580 q0 35 -14 57.5 q-14 22.5 -35 22.5 q-23 0 -38.5 -27.5 q-15.5 -27.5 -15.5 -77.5 l0 -205 q103 118 103 230 Z" /><glyph glyph-name="uni2116" unicode="&#x2116;" d="M86 0 l0 708 l119 0 l311 -556 l3 0 l0 556 l97 0 l0 -708 l-119 0 l-311 557 l-2 0 l0 -557 l-98 0 ZM720 297 l0 65 l285 0 l0 -65 l-285 0 ZM971 462 q-43 -42 -109 -42 q-66 0 -109 42 q-43 42 -43 106 q0 65 43 106.5 q43 41.5 109 41.5 q66 0 109 -41.5 q43 -41.5 43 -106.5 q0 -64 -43 -106 ZM806 510 q20 -24 56 -24 q36 0 56.5 24 q20.5 24 20.5 58 q0 35 -20.5 58.5 q-20.5 23.5 -56.5 23.5 q-36 0 -56 -23.5 q-20 -23.5 -20 -58.5 q0 -34 20 -58 Z" /><glyph glyph-name="published" unicode="&#x2117;" d="M20 353 q0 157 111.5 267 q111.5 110 269.5 110 q157 0 268 -110 q111 -110 111 -267 q0 -156 -111 -265.5 q-111 -109.5 -268 -109.5 q-158 0 -269.5 109.5 q-111.5 109.5 -111.5 265.5 ZM80 353 q0 -132 94 -225.5 q94 -93.5 227 -93.5 q132 0 225.5 93.5 q93.5 93.5 93.5 225.5 q0 133 -93.5 227 q-93.5 94 -225.5 94 q-133 0 -227 -94 q-94 -94 -94 -227 ZM272 129 l0 438 l163 0 q78 0 122.5 -37 q44.5 -37 44.5 -103 q0 -66 -46 -103.5 q-46 -37.5 -122 -37.5 l-81 0 l0 -157 l-81 0 ZM353 354 l81 0 q87 0 87 73 q0 72 -86 72 l-82 0 l0 -145 Z" /><glyph glyph-name="trademark" unicode="&#x2122;" d="M393 708 l0 -72 l-127 0 l0 -340 l-81 0 l0 340 l-129 0 l0 72 l337 0 ZM937 708 l0 -412 l-82 0 l0 307 l-2 0 l-119 -307 l-55 0 l-120 307 l-2 0 l0 -307 l-81 0 l0 412 l118 0 l113 -292 l113 292 l117 0 Z" /><glyph glyph-name="Omega" unicode="&#x2126;" d="M713 0 l-275 0 l0 172 q85 21 131 80.5 q46 59.5 46 153.5 q0 41 -12 80 q-12 39 -37.5 74 q-25.5 35 -71.5 56.5 q-46 21.5 -107 21.5 q-113 0 -170.5 -69 q-57.5 -69 -57.5 -163 q0 -97 47 -155.5 q47 -58.5 130 -78.5 l0 -172 l-275 0 l0 82 l198 0 l0 25 q-102 34 -153 114 q-51 80 -51 183 q0 146 96 233.5 q96 87.5 236 87.5 q145 0 238.5 -89.5 q93.5 -89.5 93.5 -230.5 q0 -108 -52.5 -186.5 q-52.5 -78.5 -151.5 -111.5 l0 -25 l198 0 l0 -82 Z" /><glyph glyph-name="estimated" unicode="&#x212e;" d="M561 259 l-404 0 l0 -181 q59 -59 145 -59 q122 0 193 120 l35 -21 q-46 -72 -98 -103.5 q-52 -31.5 -130 -31.5 q-115 0 -186.5 79 q-71.5 79 -71.5 197 q0 119 71 197.5 q71 78.5 187 78.5 q115 0 186.5 -77 q71.5 -77 72.5 -199 ZM157 295 l291 0 l0 145 q-63 60 -147 60 q-84 0 -144 -60 l0 -145 Z" /><glyph glyph-name="partialdiff" unicode="&#x2202;" d="M481 360 q0 -52 -5.5 -99.5 q-5.5 -47.5 -21 -99 q-15.5 -51.5 -41 -88.5 q-25.5 -37 -69.5 -61 q-44 -24 -101 -24 q-94 0 -151 65 q-57 65 -57 160 q0 93 55.5 154.5 q55.5 61.5 147.5 61.5 q89 0 156 -70 q0 6 0.5 20 q0.5 14 0.5 21 q0 43 -8 84 q-8 41 -26 80 q-18 39 -52.5 63 q-34.5 24 -80.5 24 q-57 0 -116 -47 l-47 55 q78 62 159 62 q71 0 123.5 -32.5 q52.5 -32.5 80 -87 q27.5 -54.5 40.5 -114.5 q13 -60 13 -127 ZM391 271 q-23 42 -60.5 66 q-37.5 24 -81.5 24 q-62 0 -96.5 -44 q-34.5 -44 -34.5 -108 q0 -62 33 -108.5 q33 -46.5 94 -46.5 q49 0 83.5 37.5 q34.5 37.5 48 84 q13.5 46.5 14.5 95.5 Z" /><glyph glyph-name="Delta" unicode="&#x2206;" d="M681 0 l-656 0 l0 65 l284 643 l90 0 l282 -643 l0 -65 ZM560 88 l-209 505 l-208 -505 l417 0 Z" /><glyph glyph-name="product" unicode="&#x220f;" d="M660 -214 l-90 0 l0 917 l-413 0 l0 -917 l-91 0 l0 1000 l594 0 l0 -1000 Z" /><glyph glyph-name="summation" unicode="&#x2211;" d="M601 -214 l-576 0 l0 72 l316 433 l-303 422 l0 73 l551 0 l0 -83 l-432 0 l292 -412 l-311 -423 l463 0 l0 -82 Z" /><glyph glyph-name="minus" unicode="&#x2212;" d="M596 344 l0 -82 l-526 0 l0 82 l526 0 Z" /><glyph glyph-name="fraction" unicode="&#x2215;" d="M288 707 l-432 -739 l-66 33 l434 739 l64 -33 Z" /><glyph glyph-name="periodcentered" unicode="&#x2219;" d="M178.5 349.5 q19.5 -19.5 19.5 -46.5 q0 -27 -19.5 -46.5 q-19.5 -19.5 -47.5 -19.5 q-28 0 -48 19.5 q-20 19.5 -20 45.5 q0 27 19.5 47 q19.5 20 48.5 20 q28 0 47.5 -19.5 Z" /><glyph glyph-name="radical" unicode="&#x221a;" d="M526 786 l-211 -1000 l-86 0 l-158 328 l-48 -23 l-33 70 l124 58 l144 -302 l178 869 l90 0 Z" /><glyph glyph-name="infinity" unicode="&#x221e;" d="M681 260 q0 38 -22 63.5 q-22 25.5 -60 25.5 q-25 0 -54.5 -17 q-29.5 -17 -45.5 -31.5 q-16 -14.5 -43 -41.5 q26 -25 43.5 -40 q17.5 -15 46.5 -29.5 q29 -14.5 56 -14.5 q37 0 58 24 q21 24 21 61 ZM361 259 q-28 26 -44.5 40.5 q-16.5 14.5 -47 31.5 q-30.5 17 -55.5 17 q-35 0 -56.5 -26 q-21.5 -26 -21.5 -62 q0 -38 22 -61.5 q22 -23.5 60 -23.5 q61 0 143 84 ZM754 263 q0 -75 -43.5 -124.5 q-43.5 -49.5 -117.5 -49.5 q-54 0 -96.5 28 q-42.5 28 -88.5 79 q-33 -35 -53.5 -54 q-20.5 -19 -55.5 -35.5 q-35 -16.5 -74 -16.5 q-74 0 -119 48.5 q-45 48.5 -45 123.5 q0 73 43.5 122 q43.5 49 116.5 49 q56 0 98.5 -29.5 q42.5 -29.5 88.5 -84.5 q30 36 52.5 57 q22.5 21 58.5 39.5 q36 18.5 75 18.5 q72 0 116 -49 q44 -49 44 -122 Z" /><glyph glyph-name="integral" unicode="&#x222b;" d="M442 723 q0 -19 -12.5 -30.5 q-12.5 -11.5 -31.5 -11.5 q-16 0 -26.5 8.5 q-10.5 8.5 -14.5 19 q-4 10.5 -9.5 19 q-5.5 8.5 -12.5 8.5 q-26 0 -26 -86 q0 -19 1 -48.5 q1 -29.5 1 -37.5 l0 -568 q0 -41 -5 -73 q-5 -32 -18 -65.5 q-13 -33.5 -40.5 -52 q-27.5 -18.5 -68.5 -18.5 q-32 0 -57.5 14.5 q-25.5 14.5 -25.5 45.5 q0 17 12.5 29 q12.5 12 29.5 12 q16 0 26 -8.5 q10 -8.5 13.5 -18.5 q3.5 -10 9 -18.5 q5.5 -8.5 12.5 -8.5 q25 0 25 89 q0 15 -1 37 q-1 22 -1 28 q0 2 0.5 6 q0.5 4 0.5 6 l0 499 q0 10 -0.5 35.5 q-0.5 25.5 -0.5 39.5 q0 34 2 60 q2 26 10 56.5 q8 30.5 22 50 q14 19.5 39 32.5 q25 13 59 13 q29 0 58.5 -16.5 q29.5 -16.5 29.5 -46.5 Z" /><glyph glyph-name="approxequal" unicode="&#x2248;" d="M599 440 q-7 -67 -40.5 -111 q-33.5 -44 -96.5 -44 q-44 0 -140 36 q-99 35 -125 35 q-29 0 -47.5 -22 q-18.5 -22 -23.5 -52 l-59 0 q8 66 41 111 q33 45 95 45 q47 0 136 -35 q97 -35 132 -35 q57 0 70 72 l58 0 ZM599 240 q-7 -67 -40.5 -111 q-33.5 -44 -96.5 -44 q-44 0 -140 36 q-99 35 -125 35 q-29 0 -47.5 -22 q-18.5 -22 -23.5 -52 l-59 0 q8 66 41 111 q33 45 95 45 q47 0 136 -35 q97 -35 132 -35 q57 0 70 72 l58 0 Z" /><glyph glyph-name="notequal" unicode="&#x2260;" d="M552 108 l-286 0 l-77 -149 l-73 38 l58 111 l-134 0 l0 84 l177 0 l63 123 l-240 0 l0 84 l284 0 l77 149 l74 -37 l-59 -112 l136 0 l0 -84 l-179 0 l-64 -123 l243 0 l0 -84 Z" /><glyph glyph-name="lessequal" unicode="&#x2264;" d="M589 130 l-512 179 l0 86 l512 183 l0 -89 l-397 -137 l397 -134 l0 -88 ZM589 8 l-512 0 l0 84 l512 0 l0 -84 Z" /><glyph glyph-name="greaterequal" unicode="&#x2265;" d="M589 309 l-512 -179 l0 88 l397 134 l-397 137 l0 89 l512 -183 l0 -86 ZM589 8 l-512 0 l0 84 l512 0 l0 -84 Z" /><glyph glyph-name="lozenge" unicode="&#x25ca;" d="M511 356 l-174 -391 l-82 0 l-173 391 l173 391 l82 0 l174 -391 ZM424 356 l-128 305 l-127 -305 l127 -305 l128 305 Z" /><glyph glyph-name="fi" unicode="&#xf001;" d="M304 474 l0 -77 l-110 0 l0 -397 l-94 0 l0 397 l-94 0 l0 77 l94 0 l0 99 q0 89 43 142 q43 53 134 53 q34 0 59 -7 l-11 -81 q-24 7 -47 7 q-84 0 -84 -114 l0 -99 l110 0 ZM491 474 l0 -474 l-94 0 l0 474 l94 0 ZM507 645 q0 -25 -18.5 -42.5 q-18.5 -17.5 -44.5 -17.5 q-26 0 -44 17.5 q-18 17.5 -18 42.5 q0 25 18 43 q18 18 44 18 q26 0 44.5 -17.5 q18.5 -17.5 18.5 -43.5 Z" /><glyph glyph-name="fl" unicode="&#xf002;" d="M304 474 l0 -77 l-110 0 l0 -397 l-94 0 l0 397 l-94 0 l0 77 l94 0 l0 99 q0 89 43 142 q43 53 134 53 q34 0 59 -7 l-11 -81 q-24 7 -47 7 q-84 0 -84 -114 l0 -99 l110 0 ZM491 756 l0 -756 l-94 0 l0 756 l94 0 Z" /><glyph glyph-name="uniF8FF" unicode="&#xf8ff;" d="M278 117 l-56 0 l0 67 l56 0 l0 -67 ZM271 234 l-46 0 l-2 17 q0 56 13 81 q15 28 46 59 q31 29 40.5 46 q9.5 17 9.5 37 q0 36 -22.5 60.5 q-22.5 24.5 -53.5 24.5 q-71 0 -82 -95 l-50 8 q7 69 43 103 q36 34 92 34 q54 0 89 -36 q35 -36 35 -95 q0 -34 -13 -60 q-13 -26 -50 -60 q-37 -33 -43 -52 q-6 -20 -6 -72 ZM50 50 l412 0 l0 617 l-412 0 l0 -617 ZM0 718 l512 0 l0 -718 l-512 0 l0 718 Z" /><glyph glyph-name="f_f" unicode="&#xfb00;" d="M593 474 l0 -77 l-110 0 l0 -397 l-94 0 l0 397 l-195 0 l0 -397 l-94 0 l0 397 l-94 0 l0 77 l94 0 l0 99 q0 89 43 142 q43 53 134 53 q34 0 59 -7 l-11 -81 q-24 7 -47 7 q-84 0 -84 -114 l0 -99 l195 0 l0 99 q0 89 43 142 q43 53 134 53 q34 0 59 -7 l-11 -81 q-24 7 -47 7 q-84 0 -84 -114 l0 -99 l110 0 Z" /><glyph glyph-name="fi" unicode="&#xfb01;" d="M304 474 l0 -77 l-110 0 l0 -397 l-94 0 l0 397 l-94 0 l0 77 l94 0 l0 99 q0 89 43 142 q43 53 134 53 q34 0 59 -7 l-11 -81 q-24 7 -47 7 q-84 0 -84 -114 l0 -99 l110 0 ZM491 474 l0 -474 l-94 0 l0 474 l94 0 ZM507 645 q0 -25 -18.5 -42.5 q-18.5 -17.5 -44.5 -17.5 q-26 0 -44 17.5 q-18 17.5 -18 42.5 q0 25 18 43 q18 18 44 18 q26 0 44.5 -17.5 q18.5 -17.5 18.5 -43.5 Z" /><glyph glyph-name="fl" unicode="&#xfb02;" d="M491 756 l0 -756 l-94 0 l0 756 l94 0 ZM304 474 l0 -77 l-110 0 l0 -397 l-94 0 l0 397 l-94 0 l0 77 l94 0 l0 99 q0 89 43 142 q43 53 134 53 q34 0 59 -7 l-11 -81 q-24 7 -47 7 q-84 0 -84 -114 l0 -99 l110 0 Z" /><glyph glyph-name="f_f_i" unicode="&#xfb03;" d="M593 474 l0 -77 l-110 0 l0 -397 l-94 0 l0 397 l-195 0 l0 -397 l-94 0 l0 397 l-94 0 l0 77 l94 0 l0 99 q0 89 43 142 q43 53 134 53 q34 0 59 -7 l-11 -81 q-24 7 -47 7 q-84 0 -84 -114 l0 -99 l195 0 l0 99 q0 89 43 142 q43 53 134 53 q34 0 59 -7 l-11 -81 q-24 7 -47 7 q-84 0 -84 -114 l0 -99 l110 0 ZM780 474 l0 -474 l-94 0 l0 474 l94 0 ZM796 645 q0 -25 -18.5 -42.5 q-18.5 -17.5 -44.5 -17.5 q-26 0 -44 17.5 q-18 17.5 -18 42.5 q0 25 18 43 q18 18 44 18 q26 0 44.5 -17.5 q18.5 -17.5 18.5 -43.5 Z" /><glyph glyph-name="f_f_l" unicode="&#xfb04;" d="M780 756 l0 -756 l-94 0 l0 756 l94 0 ZM593 474 l0 -77 l-110 0 l0 -397 l-94 0 l0 397 l-195 0 l0 -397 l-94 0 l0 397 l-94 0 l0 77 l94 0 l0 99 q0 89 43 142 q43 53 134 53 q34 0 59 -7 l-11 -81 q-24 7 -47 7 q-84 0 -84 -114 l0 -99 l195 0 l0 99 q0 89 43 142 q43 53 134 53 q34 0 59 -7 l-11 -81 q-24 7 -47 7 q-84 0 -84 -114 l0 -99 l110 0 Z" /></font>
</defs>
</svg>
