<?xml version="1.0" standalone="no"?><!DOCTYPE svg PUBLIC "-//W3C//DTD SVG 1.1//EN" "http://www.w3.org/Graphics/SVG/1.1/DTD/svg11.dtd" ><svg xmlns="http://www.w3.org/2000/svg"><metadata></metadata><defs><font id="TheHoeflerTypeFoundry,Inc: Gotham Pro Medium: 2007" horiz-adv-x="1228"><font-face font-family="Gotham Pro Medium" font-weight="400" font-stretch="normal" units-per-em="1000" panose-1="2 0 6 3 3 0 0 2 0 4" ascent="730" descent="-160" x-height="4" bbox="-70 -170 1180 922" underline-thickness="20" underline-position="-163" unicode-range="U+0020-fb04" /><missing-glyph horiz-adv-x="500" d="M0 0 l0 700 l500 0 l0 -700 l-500 0 ZM81 49 l339 0 l-170 255 l-169 -255 ZM49 96 l171 254 l-171 254 l0 -508 ZM450 96 l0 508 l-171 -254 l171 -254 ZM250 395 l170 255 l-339 0 l169 -255 Z" /><glyph glyph-name="space" unicode=" " d="" /><glyph glyph-name="exclam" unicode="!" d="M118 221 l-38 444 l0 35 l142 0 l0 -35 l-37 -444 l-67 0 ZM85 0 l0 137 l133 0 l0 -137 l-133 0 Z" /><glyph glyph-name="quotedbl" unicode="&quot;" d="M279 401 l24 299 l137 0 l0 -5 l-98 -294 l-63 0 ZM60 401 l23 299 l137 0 l0 -5 l-97 -294 l-63 0 Z" /><glyph glyph-name="numbersign" unicode="#" d="M101 0 l28 161 l-90 0 l0 104 l108 0 l29 174 l-100 0 l0 104 l118 0 l27 157 l107 0 l-27 -157 l164 0 l26 157 l107 0 l-27 -157 l89 0 l0 -104 l-107 0 l-29 -174 l100 0 l0 -104 l-118 0 l-28 -161 l-107 0 l28 161 l-164 0 l-27 -161 l-107 0 ZM253 265 l164 0 l30 174 l-164 0 l-30 -174 Z" /><glyph glyph-name="dollar" unicode="$" d="M288 -98 l0 100 q-134 15 -239 99 l64 91 q90 -73 176 -86 l0 196 q-113 29 -163.5 76.5 q-50.5 47.5 -50.5 130.5 q0 80 59 131.5 q59 51.5 154 59.5 l0 58 l81 0 l0 -60 q107 -13 191 -76 l-56 -94 q-65 49 -136 64 l0 -190 q114 -29 165.5 -78 q51.5 -49 51.5 -130 q0 -81 -59.5 -133 q-59.5 -52 -156.5 -60 l0 -99 l-81 0 ZM289 423 l0 176 q-46 -4 -71 -27 q-25 -23 -25 -58 q0 -33 20.5 -54 q20.5 -21 75.5 -37 ZM368 102 q47 4 73 26.5 q26 22.5 26 60.5 q0 34 -21.5 55.5 q-21.5 21.5 -77.5 38.5 l0 -181 Z" /><glyph glyph-name="percent" unicode="%" d="M212 350 q-72 0 -118 52 q-46 52 -46 127 q0 74 46.5 126.5 q46.5 52.5 119.5 52.5 q72 0 118 -52 q46 -52 46 -127 q0 -74 -46.5 -126.5 q-46.5 -52.5 -119.5 -52.5 ZM119 0 l512 700 l99 0 l-512 -700 l-99 0 ZM635 -8 q-72 0 -118 52 q-46 52 -46 127 q0 74 46.5 126.5 q46.5 52.5 119.5 52.5 q72 0 118 -52 q46 -52 46 -127 q0 -74 -46.5 -126.5 q-46.5 -52.5 -119.5 -52.5 ZM214 427 q34 0 54.5 29.5 q20.5 29.5 20.5 72.5 q0 43 -22 72.5 q-22 29.5 -55 29.5 q-34 0 -54.5 -29.5 q-20.5 -29.5 -20.5 -72.5 q0 -43 22 -72.5 q22 -29.5 55 -29.5 ZM637 69 q34 0 54.5 29.5 q20.5 29.5 20.5 72.5 q0 43 -22 72.5 q-22 29.5 -55 29.5 q-34 0 -54.5 -29.5 q-20.5 -29.5 -20.5 -72.5 q0 -43 22 -72.5 q22 -29.5 55 -29.5 Z" /><glyph glyph-name="ampersand" unicode="&amp;" d="M575 -14 l-93 95 q-98 -91 -215 -91 q-99 0 -163.5 55.5 q-64.5 55.5 -64.5 146.5 q0 132 149 196 q-58 74 -58 148 q0 73 55 124.5 q55 51.5 146 51.5 q82 0 134 -49 q52 -49 52 -122 q0 -124 -154 -182 l120 -122 q38 57 75 135 l93 -49 q-48 -96 -95 -160 l110 -112 l-91 -65 ZM298 425 q56 20 83 46.5 q27 26.5 27 64.5 q0 35 -22.5 57 q-22.5 22 -57.5 22 q-37 0 -60 -24 q-23 -24 -23 -62 q0 -46 53 -104 ZM280 92 q68 0 132 61 l-156 159 q-93 -40 -93 -118 q0 -44 33 -73 q33 -29 84 -29 Z" /><glyph glyph-name="quotesingle" unicode="&#39;" d="M60 401 l23 299 l139 0 l0 -5 l-98 -294 l-64 0 Z" /><glyph glyph-name="parenleft" unicode="(" d="M340 -141 q-277 152 -277 428 q0 276 277 428 l53 -81 q-108 -71 -158.5 -154 q-50.5 -83 -50.5 -193 q0 -110 50.5 -193 q50.5 -83 158.5 -154 l-53 -81 Z" /><glyph glyph-name="parenright" unicode=")" d="M101 -141 l-53 81 q108 71 158.5 154 q50.5 83 50.5 193 q0 110 -50.5 193 q-50.5 83 -158.5 154 l53 81 q277 -153 277 -428 q0 -275 -277 -428 Z" /><glyph glyph-name="asterisk" unicode="*" d="M180 382 l14 122 l-100 -73 l-36 61 l114 50 l-114 50 l36 61 l100 -73 l-14 122 l70 0 l-14 -122 l100 73 l36 -61 l-114 -50 l114 -50 l-36 -61 l-100 73 l14 -122 l-70 0 Z" /><glyph glyph-name="plus" unicode="+" d="M263 106 l0 191 l-192 0 l0 110 l192 0 l0 191 l114 0 l0 -191 l192 0 l0 -110 l-192 0 l0 -191 l-114 0 Z" /><glyph glyph-name="comma" unicode="," d="M47 -145 l-13 51 q86 17 86 83 q0 2 -0.5 5.5 q-0.5 3.5 -0.5 5.5 l-51 0 l0 137 l133 0 l0 -116 q0 -81 -38 -120.5 q-38 -39.5 -116 -45.5 Z" /><glyph glyph-name="hyphen" unicode="-" d="M56 247 l0 119 l296 0 l0 -119 l-296 0 Z" /><glyph glyph-name="period" unicode="." d="M68 0 l0 137 l133 0 l0 -137 l-133 0 Z" /><glyph glyph-name="slash" unicode="/" d="M-25 -128 l452 926 l105 0 l-452 -926 l-105 0 Z" /><glyph glyph-name="zero" unicode="0" d="M361 -12 q-136 0 -220 103.5 q-84 103.5 -84 258.5 q0 153 85.5 257.5 q85.5 104.5 220.5 104.5 q135 0 219.5 -104 q84.5 -104 84.5 -258 q0 -153 -85.5 -257.5 q-85.5 -104.5 -220.5 -104.5 ZM233.5 171.5 q49.5 -72.5 129.5 -72.5 q80 0 128.5 71.5 q48.5 71.5 48.5 179.5 q0 106 -50 178.5 q-50 72.5 -129 72.5 q-80 0 -128.5 -71.5 q-48.5 -71.5 -48.5 -179.5 q0 -106 49.5 -178.5 Z" /><glyph glyph-name="one" unicode="1" d="M178 0 l0 580 l-126 -35 l-26 100 l188 60 l86 0 l0 -705 l-122 0 Z" /><glyph glyph-name="two" unicode="2" d="M49 0 l0 97 l241 205 q74 62 102.5 102.5 q28.5 40.5 28.5 86.5 q0 50 -32 79.5 q-32 29.5 -81 29.5 q-46 0 -82.5 -25 q-36.5 -25 -79.5 -80 l-87 68 q54 76 111.5 111.5 q57.5 35.5 146.5 35.5 q103 0 167 -58 q64 -58 64 -153 q0 -41 -10 -73.5 q-10 -32.5 -35.5 -66 q-25.5 -33.5 -55 -61 q-29.5 -27.5 -81.5 -70.5 l-144 -120 l333 0 l0 -108 l-506 0 Z" /><glyph glyph-name="three" unicode="3" d="M311 -12 q-167 0 -268 123 l86 80 q78 -92 184 -92 q53 0 87 29.5 q34 29.5 34 78.5 q0 51 -43.5 79.5 q-43.5 28.5 -117.5 28.5 l-57 0 l-20 77 l189 201 l-303 0 l0 107 l463 0 l0 -92 l-195 -200 q92 -13 149 -61.5 q57 -48.5 57 -137.5 q0 -97 -68.5 -159 q-68.5 -62 -176.5 -62 Z" /><glyph glyph-name="four" unicode="4" d="M412 0 l0 157 l-353 0 l-23 88 l389 460 l105 0 l0 -447 l100 0 l0 -101 l-100 0 l0 -157 l-118 0 ZM182 258 l230 0 l0 277 l-230 -277 Z" /><glyph glyph-name="five" unicode="5" d="M304 -12 q-147 0 -257 107 l76 89 q90 -84 180 -84 q63 0 101 33.5 q38 33.5 38 89.5 q0 53 -40.5 84.5 q-40.5 31.5 -104.5 31.5 q-63 0 -129 -31 l-74 49 l20 343 l418 0 l0 -109 l-312 0 l-11 -164 q55 20 111 20 q107 0 175 -57 q68 -57 68 -165 q0 -107 -71.5 -172 q-71.5 -65 -187.5 -65 Z" /><glyph glyph-name="six" unicode="6" d="M337 -12 q-121 0 -194 73 q-43 43 -64.5 105.5 q-21.5 62.5 -21.5 164.5 q0 167 78.5 274 q78.5 107 221.5 107 q117 0 214 -78 l-66 -95 q-79 61 -152 61 q-76 0 -119.5 -61.5 q-43.5 -61.5 -48.5 -160.5 q72 70 167 70 q106 0 175.5 -59.5 q69.5 -59.5 69.5 -162.5 q0 -103 -74.5 -170.5 q-74.5 -67.5 -185.5 -67.5 ZM334 94 q64 0 102 36 q38 36 38 93 q0 53 -39.5 87.5 q-39.5 34.5 -103.5 34.5 q-64 0 -103 -36 q-39 -36 -39 -89 q0 -54 40 -90 q40 -36 105 -36 Z" /><glyph glyph-name="seven" unicode="7" d="M106 0 l314 592 l-352 0 l0 108 l492 0 l0 -93 l-316 -607 l-138 0 Z" /><glyph glyph-name="eight" unicode="8" d="M315 -10 q-116 0 -191.5 56 q-75.5 56 -75.5 146 q0 118 126 171 q-102 54 -102 158 q0 81 69 135 q69 54 174 54 q105 0 174 -54 q69 -54 69 -137 q0 -102 -102 -156 q126 -58 126 -170 q0 -92 -75 -147.5 q-75 -55.5 -192 -55.5 ZM225.5 433 q35.5 -29 89.5 -29 q54 0 89.5 29.5 q35.5 29.5 35.5 75.5 q0 41 -35 69.5 q-35 28.5 -90 28.5 q-55 0 -90 -28.5 q-35 -28.5 -35 -70.5 q0 -46 35.5 -75 ZM208 123.5 q40 -30.5 107 -30.5 q67 0 107 30.5 q40 30.5 40 76.5 q0 47 -42 76.5 q-42 29.5 -105 29.5 q-63 0 -105 -29.5 q-42 -29.5 -42 -78.5 q0 -44 40 -74.5 Z" /><glyph glyph-name="nine" unicode="9" d="M299 -12 q-123 0 -224 84 l67 94 q78 -66 160 -66 q76 0 121 60.5 q45 60.5 48 159.5 q-62 -74 -164 -74 q-112 0 -180 61 q-68 61 -68 163 q0 104 73 173 q73 69 188 69 q120 0 194 -74 q85 -85 85 -269 q0 -171 -80.5 -276 q-80.5 -105 -219.5 -105 ZM221 384 q39 -35 104 -35 q65 0 103.5 37 q38.5 37 38.5 91 q0 56 -40 92.5 q-40 36.5 -106 36.5 q-64 0 -101.5 -37.5 q-37.5 -37.5 -37.5 -94.5 q0 -55 39 -90 Z" /><glyph glyph-name="colon" unicode=":" d="M73 391 l0 137 l133 0 l0 -137 l-133 0 ZM73 0 l0 137 l133 0 l0 -137 l-133 0 Z" /><glyph glyph-name="semicolon" unicode=";" d="M73 391 l0 137 l133 0 l0 -137 l-133 0 ZM52 -145 l-13 51 q86 17 86 83 q0 2 -0.5 5.5 q-0.5 3.5 -0.5 5.5 l-51 0 l0 137 l133 0 l0 -116 q0 -81 -38 -120.5 q-38 -39.5 -116 -45.5 Z" /><glyph glyph-name="less" unicode="&lt;" d="M547 77 l-477 221 l0 108 l477 221 l0 -115 l-357 -159 l357 -160 l0 -116 Z" /><glyph glyph-name="equal" unicode="=" d="M86 421 l0 112 l468 0 l0 -112 l-468 0 ZM86 171 l0 112 l468 0 l0 -112 l-468 0 Z" /><glyph glyph-name="greater" unicode="&gt;" d="M93 77 l0 115 l357 159 l-357 160 l0 116 l477 -221 l0 -108 l-477 -221 Z" /><glyph glyph-name="question" unicode="?" d="M207 221 l-20 162 l5 5 q185 7 185 114 q0 43 -31 69 q-31 26 -84 26 q-89 0 -163 -79 l-75 80 q98 111 241 111 q106 0 170 -55.5 q64 -55.5 64 -149.5 q0 -89 -55 -137.5 q-55 -48.5 -146 -64.5 l-10 -81 l-81 0 ZM178 0 l0 137 l134 0 l0 -137 l-134 0 Z" /><glyph glyph-name="at" unicode="@" d="M499 -162 q-190 0 -318 127.5 q-128 127.5 -128 308.5 q0 180 127.5 309 q127.5 129 310.5 129 q90 0 171.5 -33 q81.5 -33 139 -87.5 q57.5 -54.5 91.5 -126.5 q34 -72 34 -149 q0 -120 -55.5 -184.5 q-55.5 -64.5 -138.5 -64.5 q-104 0 -148 70 q-68 -70 -155 -70 q-77 0 -129 52.5 q-52 52.5 -52 136.5 q0 104 69 177 q69 73 158 73 q93 0 141 -74 l12 60 l97 -15 l-44 -252 q-5 -30 -5 -43 q0 -33 21 -52 q21 -19 57 -19 q56 0 94 53.5 q38 53.5 38 151.5 q0 142 -115 250 q-115 108 -281 108 q-169 0 -283.5 -116.5 q-114.5 -116.5 -114.5 -283.5 q0 -168 115 -283 q115 -115 291 -115 q131 0 247 67 l18 -30 q-123 -75 -265 -75 ZM457 154 q55 0 96.5 46.5 q41.5 46.5 41.5 111.5 q0 48 -30 78 q-30 30 -75 30 q-56 0 -97.5 -46 q-41.5 -46 -41.5 -112 q0 -51 29 -79.5 q29 -28.5 77 -28.5 Z" /><glyph glyph-name="A" unicode="a" d="M30 0 l308 705 l114 0 l308 -705 l-130 0 l-71 169 l-331 0 l-72 -169 l-126 0 ZM273 278 l241 0 l-121 280 l-120 -280 Z" /><glyph glyph-name="B" unicode="b" d="M90 0 l0 700 l314 0 q121 0 183 -62 q47 -47 47 -118 q0 -104 -100 -156 q139 -47 139 -172 q0 -92 -70 -142 q-70 -50 -189 -50 l-324 0 ZM211 405 l168 0 q61 0 96.5 24.5 q35.5 24.5 35.5 72.5 q0 42 -32 65.5 q-32 23.5 -91 23.5 l-177 0 l0 -186 ZM211 109 l204 0 q64 0 99.5 25 q35.5 25 35.5 73 q0 94 -144 94 l-195 0 l0 -192 Z" /><glyph glyph-name="C" unicode="c" d="M415 -12 q-152 0 -254 104.5 q-102 104.5 -102 257.5 q0 152 102 257 q102 105 259 105 q91 0 154.5 -28 q63.5 -28 119.5 -81 l-79 -91 q-94 87 -196 87 q-100 0 -165.5 -72 q-65.5 -72 -65.5 -177 q0 -104 66 -176.5 q66 -72.5 165 -72.5 q60 0 106 22.5 q46 22.5 95 68.5 l79 -80 q-59 -62 -125 -93 q-66 -31 -159 -31 Z" /><glyph glyph-name="D" unicode="d" d="M90 0 l0 700 l261 0 q164 0 268 -99.5 q104 -99.5 104 -250.5 q0 -150 -104.5 -250 q-104.5 -100 -267.5 -100 l-261 0 ZM213 112 l138 0 q109 0 176 66.5 q67 66.5 67 171.5 q0 104 -67 171 q-67 67 -176 67 l-138 0 l0 -476 Z" /><glyph glyph-name="E" unicode="e" d="M90 0 l0 700 l519 0 l0 -110 l-396 0 l0 -182 l351 0 l0 -110 l-351 0 l0 -188 l401 0 l0 -110 l-524 0 Z" /><glyph glyph-name="F" unicode="f" d="M90 0 l0 700 l521 0 l0 -112 l-398 0 l0 -191 l353 0 l0 -112 l-353 0 l0 -285 l-123 0 Z" /><glyph glyph-name="G" unicode="g" d="M422 -12 q-162 0 -262.5 102.5 q-100.5 102.5 -100.5 259.5 q0 150 102.5 256 q102.5 106 258.5 106 q88 0 150 -23.5 q62 -23.5 119 -71.5 l-78 -93 q-44 38 -88.5 56.5 q-44.5 18.5 -107.5 18.5 q-96 0 -161.5 -73 q-65.5 -73 -65.5 -176 q0 -109 66 -179.5 q66 -70.5 172 -70.5 q98 0 169 53 l0 131 l-179 0 l0 107 l298 0 l0 -294 q-127 -109 -292 -109 Z" /><glyph glyph-name="H" unicode="h" d="M90 0 l0 700 l123 0 l0 -291 l334 0 l0 291 l123 0 l0 -700 l-123 0 l0 295 l-334 0 l0 -295 l-123 0 Z" /><glyph glyph-name="I" unicode="i" d="M97 0 l0 700 l123 0 l0 -700 l-123 0 Z" /><glyph glyph-name="J" unicode="j" d="M245 -10 q-141 0 -224 113 l81 83 q65 -82 141 -82 q51 0 81 34.5 q30 34.5 30 102.5 l0 459 l126 0 l0 -462 q0 -121 -65 -186 q-62 -62 -170 -62 Z" /><glyph glyph-name="K" unicode="k" d="M90 0 l0 700 l123 0 l0 -352 l333 352 l151 0 l-291 -301 l304 -399 l-149 0 l-239 315 l-109 -112 l0 -203 l-123 0 Z" /><glyph glyph-name="L" unicode="l" d="M90 0 l0 700 l123 0 l0 -588 l368 0 l0 -112 l-491 0 Z" /><glyph glyph-name="M" unicode="m" d="M90 0 l0 700 l131 0 l213 -331 l213 331 l131 0 l0 -700 l-123 0 l0 502 l-221 -330 l-4 0 l-219 328 l0 -500 l-121 0 Z" /><glyph glyph-name="N" unicode="n" d="M90 0 l0 700 l114 0 l375 -484 l0 484 l121 0 l0 -700 l-103 0 l-386 498 l0 -498 l-121 0 Z" /><glyph glyph-name="O" unicode="o" d="M687 94 q-104 -106 -263 -106 q-159 0 -262 105 q-103 105 -103 257 q0 150 104 256 q104 106 263 106 q159 0 262 -105 q103 -105 103 -257 q0 -150 -104 -256 ZM255.5 173.5 q67.5 -72.5 170.5 -72.5 q103 0 169.5 72 q66.5 72 66.5 177 q0 104 -67.5 176.5 q-67.5 72.5 -170.5 72.5 q-103 0 -169.5 -72 q-66.5 -72 -66.5 -177 q0 -104 67.5 -176.5 Z" /><glyph glyph-name="P" unicode="p" d="M90 0 l0 700 l276 0 q122 0 194 -64 q72 -64 72 -172 q0 -113 -79.5 -176 q-79.5 -63 -200.5 -63 l-139 0 l0 -225 l-123 0 ZM213 336 l143 0 q69 0 110 35 q41 35 41 92 q0 60 -40.5 92.5 q-40.5 32.5 -110.5 32.5 l-143 0 l0 -252 Z" /><glyph glyph-name="Q" unicode="q" d="M721 -21 l-84 75 q-93 -66 -213 -66 q-159 0 -262 105 q-103 105 -103 257 q0 150 104 256 q104 106 263 106 q159 0 262 -105 q103 -105 103 -257 q0 -121 -71 -215 l80 -68 l-79 -88 ZM426 101 q67 0 120 34 l-120 102 l79 90 l121 -110 q36 55 36 133 q0 104 -67.5 176.5 q-67.5 72.5 -170.5 72.5 q-103 0 -169.5 -72 q-66.5 -72 -66.5 -177 q0 -104 67.5 -176.5 q67.5 -72.5 170.5 -72.5 Z" /><glyph glyph-name="R" unicode="r" d="M90 0 l0 700 l312 0 q122 0 191 -60.5 q69 -60.5 69 -162.5 q0 -83 -45 -136.5 q-45 -53.5 -122 -75.5 l189 -265 l-145 0 l-174 244 l-152 0 l0 -244 l-123 0 ZM213 353 l180 0 q66 0 105 32 q39 32 39 87 q0 56 -38 86 q-38 30 -107 30 l-179 0 l0 -235 Z" /><glyph glyph-name="S" unicode="s" d="M335 -10 q-167 0 -292 112 l74 88 q105 -91 221 -91 q57 0 90.5 24.5 q33.5 24.5 33.5 65.5 q0 39 -32 62.5 q-32 23.5 -126 45.5 q-122 29 -177.5 73.5 q-55.5 44.5 -55.5 136.5 q0 90 67 146.5 q67 56.5 172 56.5 q144 0 254 -88 l-66 -93 q-97 72 -190 72 q-53 0 -83.5 -24 q-30.5 -24 -30.5 -61 q0 -41 33.5 -63.5 q33.5 -22.5 132.5 -46.5 q116 -28 170.5 -75 q54.5 -47 54.5 -132 q0 -97 -69 -153 q-69 -56 -181 -56 Z" /><glyph glyph-name="T" unicode="t" d="M262 0 l0 586 l-222 0 l0 114 l568 0 l0 -114 l-222 0 l0 -586 l-124 0 Z" /><glyph glyph-name="U" unicode="u" d="M377 -11 q-139 0 -218.5 79 q-79.5 79 -79.5 229 l0 403 l123 0 l0 -398 q0 -96 47 -148 q47 -52 130 -52 q83 0 129.5 50 q46.5 50 46.5 145 l0 403 l123 0 l0 -397 q0 -153 -80 -233.5 q-80 -80.5 -221 -80.5 Z" /><glyph glyph-name="V" unicode="v" d="M321 -5 l-291 705 l136 0 l211 -538 l210 538 l133 0 l-291 -705 l-108 0 Z" /><glyph glyph-name="W" unicode="w" d="M280 -5 l-244 705 l133 0 l167 -519 l172 521 l104 0 l172 -521 l167 519 l129 0 l-244 -705 l-106 0 l-172 503 l-172 -503 l-106 0 Z" /><glyph glyph-name="X" unicode="x" d="M37 0 l255 356 l-245 344 l145 0 l174 -251 l175 251 l141 0 l-244 -342 l254 -358 l-145 0 l-184 265 l-185 -265 l-141 0 Z" /><glyph glyph-name="Y" unicode="y" d="M296 0 l0 276 l-278 424 l145 0 l196 -310 l198 310 l141 0 l-278 -421 l0 -279 l-124 0 Z" /><glyph glyph-name="Z" unicode="z" d="M65 0 l0 91 l413 500 l-400 0 l0 109 l560 0 l0 -91 l-413 -500 l413 0 l0 -109 l-573 0 Z" /><glyph glyph-name="bracketleft" unicode="[" d="M88 -130 l0 830 l307 0 l0 -95 l-192 0 l0 -640 l192 0 l0 -95 l-307 0 Z" /><glyph glyph-name="backslash" unicode="\" d="M441 -128 l-452 926 l105 0 l452 -926 l-105 0 Z" /><glyph glyph-name="bracketright" unicode="]" d="M59 -130 l0 95 l192 0 l0 640 l-192 0 l0 95 l308 0 l0 -830 l-308 0 Z" /><glyph glyph-name="asciicircum" unicode="^" d="M56 493 l151 208 l86 0 l151 -208 l-93 0 l-102 132 l-102 -132 l-91 0 Z" /><glyph glyph-name="underscore" unicode="_" d="M-2 -160 l0 94 l604 0 l0 -94 l-604 0 Z" /><glyph glyph-name="grave" unicode="`" d="M246 595 l-122 115 l110 49 l106 -164 l-94 0 Z" /><glyph glyph-name="a" unicode="a" d="M519 0 l-120 0 l0 65 q-64 -76 -171 -76 q-79 0 -133.5 43.5 q-54.5 43.5 -54.5 121.5 q0 85 59 129 q59 44 155 44 q77 0 146 -22 l0 10 q0 55 -33.5 84 q-33.5 29 -96.5 29 q-72 0 -151 -33 l-33 97 q98 44 201 44 q115 0 173.5 -58 q58.5 -58 58.5 -165 l0 -313 ZM402 191 l0 30 q-54 21 -121 21 q-57 0 -89 -22 q-32 -22 -32 -62 q0 -36 29 -57 q29 -21 73 -21 q61 0 100.5 31 q39.5 31 39.5 80 Z" /><glyph glyph-name="b" unicode="b" d="M376 -11 q-109 0 -179 93 l0 -82 l-121 0 l0 730 l121 0 l0 -290 q70 99 179 99 q100 0 173 -74.5 q73 -74.5 73 -201.5 q0 -125 -73 -199.5 q-73 -74.5 -173 -74.5 ZM348 94 q64 0 107.5 47 q43.5 47 43.5 124 q0 75 -44 122 q-44 47 -107 47 q-63 0 -108.5 -48 q-45.5 -48 -45.5 -123 q0 -74 45.5 -121.5 q45.5 -47.5 108.5 -47.5 Z" /><glyph glyph-name="c" unicode="c" d="M320 -12 q-117 0 -195 80 q-78 80 -78 195 q0 114 78.5 195 q78.5 81 195.5 81 q128 0 211 -91 l-75 -81 q-63 66 -137 66 q-65 0 -108.5 -49.5 q-43.5 -49.5 -43.5 -120.5 q0 -72 44.5 -121 q44.5 -49 113.5 -49 q73 0 137 66 l73 -72 q-43 -48 -93.5 -73.5 q-50.5 -25.5 -122.5 -25.5 Z" /><glyph glyph-name="d" unicode="d" d="M294 -11 q-99 0 -172 74.5 q-73 74.5 -73 201.5 q0 126 72.5 200 q72.5 74 172.5 74 q108 0 180 -93 l0 284 l121 0 l0 -730 l-121 0 l0 88 q-70 -99 -180 -99 ZM215.5 141 q44.5 -47 107.5 -47 q63 0 108 48 q45 48 45 123 q0 74 -45 121.5 q-45 47.5 -108 47.5 q-64 0 -108 -46.5 q-44 -46.5 -44 -124.5 q0 -75 44.5 -122 Z" /><glyph glyph-name="e" unicode="e" d="M318 -12 q-116 0 -193.5 77 q-77.5 77 -77.5 199 q0 115 73 195 q73 80 185 80 q120 0 186.5 -81.5 q66.5 -81.5 66.5 -202.5 q0 -22 -2 -34 l-388 0 q10 -63 51 -98.5 q41 -35.5 101 -35.5 q78 0 143 63 l71 -63 q-82 -99 -216 -99 ZM167 301 l271 0 q-6 61 -41 100 q-35 39 -93 39 q-55 0 -92 -38.5 q-37 -38.5 -45 -100.5 Z" /><glyph glyph-name="f" unicode="f" d="M103 0 l0 424 l-67 0 l0 101 l67 0 l0 38 q0 88 43 131 q42 42 119 42 q51 0 98 -14 l0 -102 q-39 13 -71 13 q-70 0 -70 -80 l0 -29 l140 0 l0 -100 l-138 0 l0 -424 l-121 0 Z" /><glyph glyph-name="g" unicode="g" d="M311 -162 q-132 0 -236 63 l45 91 q90 -56 188 -56 q81 0 124 41.5 q43 41.5 43 120.5 l0 41 q-75 -97 -186 -97 q-98 0 -169 68 q-71 68 -71 181 q0 112 71.5 180 q71.5 68 168.5 68 q110 0 185 -90 l0 79 l121 0 l0 -420 q0 -132 -67 -199 q-71 -71 -217 -71 ZM321 144 q64 0 109.5 41.5 q45.5 41.5 45.5 105.5 q0 64 -45.5 105 q-45.5 41 -109.5 41 q-64 0 -107 -40.5 q-43 -40.5 -43 -106.5 q0 -64 43.5 -105 q43.5 -41 106.5 -41 Z" /><glyph glyph-name="h" unicode="h" d="M76 0 l0 730 l121 0 l0 -284 q63 93 165 93 q88 0 138 -55 q50 -55 50 -148 l0 -336 l-121 0 l0 300 q0 62 -29.5 95.5 q-29.5 33.5 -83.5 33.5 q-53 0 -86 -35 q-33 -35 -33 -96 l0 -298 l-121 0 Z" /><glyph glyph-name="i" unicode="i" d="M78 609 l0 115 l130 0 l0 -115 l-130 0 ZM83 0 l0 528 l121 0 l0 -528 l-121 0 Z" /><glyph glyph-name="j" unicode="j" d="M78 609 l0 115 l130 0 l0 -115 l-130 0 ZM50 -163 q-26 0 -58 5 l0 97 q18 -3 34 -3 q57 0 57 64 l0 528 l121 0 l0 -535 q0 -156 -154 -156 Z" /><glyph glyph-name="k" unicode="k" d="M76 0 l0 730 l121 0 l0 -436 l219 234 l147 0 l-210 -215 l217 -313 l-140 0 l-159 228 l-74 -77 l0 -151 l-121 0 Z" /><glyph glyph-name="l" unicode="l" d="M83 0 l0 730 l121 0 l0 -730 l-121 0 Z" /><glyph glyph-name="m" unicode="m" d="M76 0 l0 528 l121 0 l0 -80 q66 91 161 91 q110 0 157 -93 q71 93 179 93 q87 0 136 -53 q49 -53 49 -149 l0 -337 l-121 0 l0 300 q0 63 -28 96 q-28 33 -79 33 q-51 0 -82 -34.5 q-31 -34.5 -31 -96.5 l0 -298 l-121 0 l0 301 q0 61 -28 94.5 q-28 33.5 -79 33.5 q-51 0 -82 -35.5 q-31 -35.5 -31 -96.5 l0 -297 l-121 0 Z" /><glyph glyph-name="n" unicode="n" d="M76 0 l0 528 l121 0 l0 -82 q63 93 165 93 q88 0 138 -55 q50 -55 50 -148 l0 -336 l-121 0 l0 300 q0 62 -29.5 95.5 q-29.5 33.5 -83.5 33.5 q-53 0 -86 -35 q-33 -35 -33 -96 l0 -298 l-121 0 Z" /><glyph glyph-name="o" unicode="o" d="M327 -12 q-120 0 -200 80 q-80 80 -80 195 q0 115 81 195.5 q81 80.5 201 80.5 q120 0 200.5 -80 q80.5 -80 80.5 -196 q0 -114 -81 -194.5 q-81 -80.5 -202 -80.5 ZM329 93 q72 0 116 49 q44 49 44 121 q0 71 -46 120.5 q-46 49.5 -116 49.5 q-71 0 -115 -49 q-44 -49 -44 -121 q0 -70 46 -120 q46 -50 115 -50 Z" /><glyph glyph-name="p" unicode="p" d="M76 -160 l0 688 l121 0 l0 -88 q70 99 179 99 q100 0 173 -74.5 q73 -74.5 73 -201.5 q0 -125 -73 -199.5 q-73 -74.5 -173 -74.5 q-109 0 -179 93 l0 -242 l-121 0 ZM348 94 q64 0 107.5 47 q43.5 47 43.5 124 q0 75 -44 122 q-44 47 -107 47 q-63 0 -108.5 -48 q-45.5 -48 -45.5 -123 q0 -74 45.5 -121.5 q45.5 -47.5 108.5 -47.5 Z" /><glyph glyph-name="q" unicode="q" d="M474 -160 l0 248 q-70 -99 -180 -99 q-99 0 -172 74.5 q-73 74.5 -73 201.5 q0 126 72.5 200 q72.5 74 172.5 74 q108 0 180 -93 l0 82 l121 0 l0 -688 l-121 0 ZM215.5 141 q44.5 -47 107.5 -47 q63 0 108 48 q45 48 45 123 q0 74 -45 121.5 q-45 47.5 -108 47.5 q-64 0 -108 -46.5 q-44 -46.5 -44 -124.5 q0 -75 44.5 -122 Z" /><glyph glyph-name="r" unicode="r" d="M76 0 l0 528 l121 0 l0 -119 q56 135 187 129 l0 -128 l-7 0 q-82 0 -131 -53.5 q-49 -53.5 -49 -155.5 l0 -201 l-121 0 Z" /><glyph glyph-name="s" unicode="s" d="M257 -10 q-124 0 -224 79 l54 82 q86 -65 173 -65 q39 0 60.5 15.5 q21.5 15.5 21.5 43.5 q0 14 -7.5 24.5 q-7.5 10.5 -26.5 19.5 q-19 9 -32 13 q-13 4 -43 13 l-9 3 q-28 8 -47.5 15.5 q-19.5 7.5 -43.5 20.5 q-24 13 -39 28.5 q-15 15.5 -25 39.5 q-10 24 -10 54 q0 73 53.5 117 q53.5 44 134.5 44 q103 0 194 -60 l-48 -86 q-82 50 -149 50 q-35 0 -54.5 -15 q-19.5 -15 -19.5 -40 q0 -17 17.5 -31 q17.5 -14 35 -20.5 q17.5 -6.5 56.5 -19.5 q2 -1 5 -2 q3 -1 5 -1 q35 -11 59 -21.5 q24 -10.5 50.5 -28.5 q26.5 -18 40.5 -44.5 q14 -26.5 14 -61.5 q0 -80 -55 -123 q-55 -43 -141 -43 Z" /><glyph glyph-name="t" unicode="t" d="M253 -9 q-152 0 -152 155 l0 278 l-67 0 l0 104 l67 0 l0 145 l121 0 l0 -145 l142 0 l0 -104 l-142 0 l0 -259 q0 -66 65 -66 q39 0 75 18 l0 -99 q-48 -27 -109 -27 Z" /><glyph glyph-name="u" unicode="u" d="M258 -11 q-88 0 -138 55 q-50 55 -50 148 l0 336 l121 0 l0 -300 q0 -62 29.5 -95.5 q29.5 -33.5 83.5 -33.5 q53 0 86 35 q33 35 33 96 l0 298 l121 0 l0 -528 l-121 0 l0 82 q-63 -93 -165 -93 Z" /><glyph glyph-name="v" unicode="v" d="M243 -4 l-217 532 l130 0 l142 -388 l143 388 l127 0 l-216 -532 l-109 0 Z" /><glyph glyph-name="w" unicode="w" d="M203 -4 l-171 532 l124 0 l106 -362 l117 364 l103 0 l118 -364 l108 362 l121 0 l-173 -532 l-108 0 l-118 361 l-119 -361 l-108 0 Z" /><glyph glyph-name="x" unicode="x" d="M30 0 l194 268 l-187 260 l132 0 l122 -174 l122 174 l129 0 l-187 -257 l195 -271 l-132 0 l-130 185 l-129 -185 l-129 0 Z" /><glyph glyph-name="y" unicode="y" d="M184 -163 q-66 0 -125 32 l41 90 q37 -20 71 -20 q26 0 43 13.5 q17 13.5 32 47.5 l-220 528 l129 0 l150 -392 l137 392 l126 0 l-210 -543 q-32 -81 -71 -114.5 q-39 -33.5 -103 -33.5 Z" /><glyph glyph-name="z" unicode="z" d="M52 0 l0 83 l305 346 l-294 0 l0 99 l448 0 l0 -83 l-305 -346 l305 0 l0 -99 l-459 0 Z" /><glyph glyph-name="braceleft" unicode="{" d="M416 -141 q-130 24 -178.5 71 q-48.5 47 -48.5 129 q0 7 1 35 q1 28 1 37 q0 59 -25.5 84.5 q-25.5 25.5 -87.5 25.5 l-26 0 l0 92 l26 0 q62 0 87.5 25.5 q25.5 25.5 25.5 84.5 q0 9 -1 37 q-1 28 -1 35 q0 82 48.5 129 q48.5 47 178.5 71 l21 -80 q-86 -24 -111 -51.5 q-25 -27.5 -25 -85.5 q0 -10 1 -36.5 q1 -26.5 1 -37.5 q0 -56 -26 -88 q-26 -32 -78 -49 q53 -17 78.5 -49 q25.5 -32 25.5 -88 q0 -11 -1 -37.5 q-1 -26.5 -1 -36.5 q0 -58 25 -85.5 q25 -27.5 111 -51.5 l-21 -80 Z" /><glyph glyph-name="bar" unicode="|" d="M117 -128 l0 926 l97 0 l0 -926 l-97 0 Z" /><glyph glyph-name="braceright" unicode="}" d="M71 -141 l-21 80 q86 24 111 51.5 q25 27.5 25 85.5 q0 10 -1 36.5 q-1 26.5 -1 37.5 q0 56 26 88 q26 32 78 49 q-53 17 -78.5 49 q-25.5 32 -25.5 88 q0 11 1 37.5 q1 26.5 1 36.5 q0 58 -25 85.5 q-25 27.5 -111 51.5 l21 80 q130 -24 178.5 -71 q48.5 -47 48.5 -129 q0 -7 -1 -35 q-1 -28 -1 -37 q0 -59 25.5 -84.5 q25.5 -25.5 87.5 -25.5 l26 0 l0 -92 l-26 0 q-62 0 -87.5 -25.5 q-25.5 -25.5 -25.5 -84.5 q0 -9 1 -37 q1 -28 1 -35 q0 -82 -48.5 -129 q-48.5 -47 -178.5 -71 Z" /><glyph glyph-name="asciitilde" unicode="~" d="M126 229 l-67 21 q17 64 42.5 94 q25.5 30 69.5 30 q30 0 79 -20 q49 -20 64 -20 q21 0 32.5 11.5 q11.5 11.5 22.5 38.5 l67 -20 q-17 -64 -42.5 -94.5 q-25.5 -30.5 -69.5 -30.5 q-30 0 -79 20 q-49 20 -64 20 q-21 0 -32.5 -11.5 q-11.5 -11.5 -22.5 -38.5 Z" /><glyph glyph-name="nonbreakingspace" unicode=" " d="" /><glyph glyph-name="exclamdown" unicode="¡" d="M85 563 l0 137 l133 0 l0 -137 l-133 0 ZM80 0 l0 35 l38 444 l67 0 l37 -444 l0 -35 l-142 0 Z" /><glyph glyph-name="cent" unicode="¢" d="M210 -6 l20 102 q-79 28 -128.5 99 q-49.5 71 -49.5 160 q0 115 78 195 q78 80 195 80 l9 0 l15 76 l88 0 l-18 -89 q65 -20 118 -78 l-73 -78 q-35 35 -69 50 l-65 -326 q73 1 138 65 l70 -69 q-89 -101 -217 -101 l-6 0 l-17 -86 l-88 0 ZM255 202 l63 323 q-63 -1 -105.5 -50 q-42.5 -49 -42.5 -120 q0 -50 22.5 -91 q22.5 -41 62.5 -62 Z" /><glyph glyph-name="sterling" unicode="£" d="M63 0 l0 78 l79 24 l0 176 l-79 0 l0 104 l79 0 l0 92 q0 110 60.5 173 q60.5 63 169.5 63 q136 0 221 -112 l-94 -75 q-29 37 -57.5 55 q-28.5 18 -68.5 18 q-49 0 -78 -33.5 q-29 -33.5 -29 -91.5 l0 -89 l249 0 l0 -104 l-249 0 l0 -171 l325 0 l0 -107 l-528 0 Z" /><glyph glyph-name="currency" unicode="¤" d="M434 -12 q-109 0 -185.5 64.5 q-76.5 64.5 -105.5 172.5 l-91 0 l0 85 l77 0 q-1 13 -1 40 q0 31 2 45 l-78 0 l0 85 l94 0 q31 104 106 168 q75 64 178 64 q85 0 142.5 -34.5 q57.5 -34.5 101.5 -97.5 l-93 -69 q-34 47 -69 69 q-35 22 -85 22 q-52 0 -92.5 -32.5 q-40.5 -32.5 -61.5 -89.5 l215 0 l0 -85 l-234 0 q-2 -26 -2 -45 q0 -14 2 -40 l234 0 l0 -85 l-216 0 q21 -59 63 -93 q42 -34 100 -34 q47 0 81 23 q34 23 72 72 l88 -64 q-47 -68 -104.5 -104.5 q-57.5 -36.5 -137.5 -36.5 Z" /><glyph glyph-name="yen" unicode="¥" d="M284 0 l0 102 l-193 0 l0 89 l193 0 l0 73 l-193 0 l0 89 l159 0 l-231 347 l143 0 l183 -293 l183 293 l139 0 l-232 -347 l160 0 l0 -89 l-193 0 l0 -73 l193 0 l0 -89 l-193 0 l0 -102 l-118 0 Z" /><glyph glyph-name="brokenbar" unicode="¦" d="M53 -89 l0 250 l114 0 l0 -250 l-114 0 ZM53 411 l0 250 l114 0 l0 -250 l-114 0 Z" /><glyph glyph-name="section" unicode="§" d="M326 -10 q-141 0 -231 95 l69 68 q76 -71 161 -71 q81 0 81 51 q0 22 -28 37.5 q-28 15.5 -104 32.5 q-117 27 -166.5 60 q-49.5 33 -49.5 88 q0 88 107 116 q-55 35 -55 97 q0 67 52.5 106.5 q52.5 39.5 143.5 39.5 q141 0 231 -95 l-69 -68 q-76 71 -161 71 q-39 0 -60 -13.5 q-21 -13.5 -21 -37.5 q0 -21 27 -36.5 q27 -15.5 105 -33.5 q118 -27 167 -59.5 q49 -32.5 49 -88.5 q0 -88 -107 -116 q55 -33 55 -97 q0 -67 -52.5 -106.5 q-52.5 -39.5 -143.5 -39.5 ZM388 278 q34 0 55.5 15.5 q21.5 15.5 21.5 40.5 q0 22 -27 38 q-27 16 -90 32 q-71 18 -104 18 q-34 0 -55.5 -15.5 q-21.5 -15.5 -21.5 -40.5 q0 -22 27 -38 q27 -16 90 -32 q71 -18 104 -18 Z" /><glyph glyph-name="dieresis" unicode="¨" d="M288 595 l0 118 l123 0 l0 -118 l-123 0 ZM89 595 l0 118 l123 0 l0 -118 l-123 0 Z" /><glyph glyph-name="copyright" unicode="©" d="M671 94.5 q-106 -106.5 -257 -106.5 q-151 0 -256 106 q-105 106 -105 256 q0 149 106 255.5 q106 106.5 257 106.5 q151 0 256 -106 q105 -106 105 -256 q0 -149 -106 -255.5 ZM414 24 q138 0 231.5 95.5 q93.5 95.5 93.5 232.5 q0 135 -93 229.5 q-93 94.5 -230 94.5 q-138 0 -231.5 -95.5 q-93.5 -95.5 -93.5 -232.5 q0 -135 93 -229.5 q93 -94.5 230 -94.5 ZM419 159 q-82 0 -137 56.5 q-55 56.5 -55 139.5 q0 82 55 139 q55 57 139 57 q88 0 149 -59 l-47 -54 q-50 45 -102 45 q-51 0 -84.5 -37.5 q-33.5 -37.5 -33.5 -91.5 q0 -52 34 -89.5 q34 -37.5 84 -37.5 q54 0 104 47 l48 -47 q-65 -68 -154 -68 Z" /><glyph glyph-name="ordfeminine" unicode="ª" d="M159 403 q-44 0 -73.5 24 q-29.5 24 -29.5 68 q0 45 33 69 q33 24 87 24 q36 0 76 -11 l0 5 q0 61 -70 61 q-35 0 -83 -19 l-19 54 q53 25 111 25 q128 0 128 -122 l0 -172 l-68 0 l0 34 q-35 -40 -92 -40 ZM53 282 l0 58 l270 0 l0 -58 l-270 0 ZM177 454 q32 0 53.5 17 q21.5 17 21.5 43 l0 18 q-31 11 -63 11 q-64 0 -64 -47 q0 -19 14.5 -30.5 q14.5 -11.5 37.5 -11.5 Z" /><glyph glyph-name="guillemotleft" unicode="«" d="M461 41 l-165 219 l0 8 l165 220 l92 -47 l-132 -176 l132 -177 l-92 -47 ZM210 41 l-166 219 l0 8 l166 220 l92 -47 l-132 -176 l132 -177 l-92 -47 Z" /><glyph glyph-name="logicalnot" unicode="¬" d="M441 246 l0 173 l-359 0 l0 111 l473 0 l0 -284 l-114 0 Z" /><glyph glyph-name="uni00AD" unicode="­" d="M56 247 l0 119 l296 0 l0 -119 l-296 0 Z" /><glyph glyph-name="registered" unicode="®" d="M671 94.5 q-106 -106.5 -257 -106.5 q-151 0 -256 106 q-105 106 -105 256 q0 149 106 255.5 q106 106.5 257 106.5 q151 0 256 -106 q105 -106 105 -256 q0 -149 -106 -255.5 ZM414 24 q138 0 231.5 95.5 q93.5 95.5 93.5 232.5 q0 135 -93 229.5 q-93 94.5 -230 94.5 q-138 0 -231.5 -95.5 q-93.5 -95.5 -93.5 -232.5 q0 -135 93 -229.5 q93 -94.5 230 -94.5 ZM269 171 l0 379 l169 0 q74 0 115 -41 q31 -29 31 -81 q0 -44 -23.5 -73 q-23.5 -29 -64.5 -41 l102 -143 l-86 0 l-94 131 l-77 0 l0 -131 l-72 0 ZM341 365 l94 0 q35 0 55 16 q20 16 20 45 q0 28 -20 43.5 q-20 15.5 -55 15.5 l-94 0 l0 -120 Z" /><glyph glyph-name="macron" unicode="¯" d="M79 600 l0 89 l342 0 l0 -89 l-342 0 Z" /><glyph glyph-name="degree" unicode="°" d="M351.5 429.5 q-50.5 -48.5 -116.5 -48.5 q-66 0 -116 48.5 q-50 48.5 -50 113.5 l0 2 q0 65 50 113 q50 48 116 48 q66 0 116.5 -48 q50.5 -48 50.5 -113 l0 -2 q0 -65 -50.5 -113.5 ZM168 475.5 q27 -28.5 67 -28.5 q40 0 67.5 28.5 q27.5 28.5 27.5 67.5 l0 2 q0 39 -27 67 q-27 28 -68 28 q-40 0 -67 -28 q-27 -28 -27 -67 l0 -2 q0 -39 27 -67.5 Z" /><glyph glyph-name="plusminus" unicode="±" d="M75 16 l0 104 l490 0 l0 -104 l-490 0 ZM263 176 l0 153 l-194 0 l0 109 l194 0 l0 152 l114 0 l0 -152 l192 0 l0 -109 l-192 0 l0 -153 l-114 0 Z" /><glyph glyph-name="twosuperior" unicode="²" d="M0 0 l0 700 l500 0 l0 -700 l-500 0 ZM81 49 l339 0 l-170 255 l-169 -255 ZM49 96 l171 254 l-171 254 l0 -508 ZM450 96 l0 508 l-171 -254 l171 -254 ZM250 395 l170 255 l-339 0 l169 -255 Z" /><glyph glyph-name="threesuperior" unicode="³" d="M0 0 l0 700 l500 0 l0 -700 l-500 0 ZM81 49 l339 0 l-170 255 l-169 -255 ZM49 96 l171 254 l-171 254 l0 -508 ZM450 96 l0 508 l-171 -254 l171 -254 ZM250 395 l170 255 l-339 0 l169 -255 Z" /><glyph glyph-name="acute" unicode="´" d="M160 595 l106 164 l110 -49 l-122 -115 l-94 0 Z" /><glyph glyph-name="mu" unicode="µ" d="M75 -160 l0 688 l121 0 l0 -302 q0 -55 32 -93 q32 -38 81 -38 q54 0 88 37.5 q34 37.5 34 98.5 l0 297 l121 0 l0 -528 l-121 0 l0 83 q-54 -89 -152 -89 q-58 0 -83 36 l0 -190 l-121 0 Z" /><glyph glyph-name="paragraph" unicode="¶" d="M346 0 l0 244 l-18 0 q-128 0 -208 59.5 q-80 59.5 -80 169.5 q0 105 74.5 166 q74.5 61 196.5 61 l159 0 l0 -700 l-124 0 Z" /><glyph glyph-name="periodcentered" unicode="·" d="M68 238 l0 137 l133 0 l0 -137 l-133 0 Z" /><glyph glyph-name="cedilla" unicode="¸" d="M237 -165 l-106 44 l90 131 l91 0 l-75 -175 Z" /><glyph glyph-name="onesuperior" unicode="¹" d="M0 0 l0 700 l500 0 l0 -700 l-500 0 ZM81 49 l339 0 l-170 255 l-169 -255 ZM49 96 l171 254 l-171 254 l0 -508 ZM450 96 l0 508 l-171 -254 l171 -254 ZM250 395 l170 255 l-339 0 l169 -255 Z" /><glyph glyph-name="ordmasculine" unicode="º" d="M194 402 q-64 0 -107 44 q-43 44 -43 108 q0 63 43.5 107 q43.5 44 108.5 44 q64 0 107 -44 q43 -44 43 -108 q0 -63 -43.5 -107 q-43.5 -44 -108.5 -44 ZM51 282 l0 58 l288 0 l0 -58 l-288 0 ZM196 464 q36 0 58 26 q22 26 22 64 q0 37 -23.5 63 q-23.5 26 -58.5 26 q-36 0 -58 -26 q-22 -26 -22 -64 q0 -37 23.5 -63 q23.5 -26 58.5 -26 Z" /><glyph glyph-name="guillemotright" unicode="»" d="M396 41 l-92 46 l132 176 l-132 177 l92 48 l166 -220 l0 -8 l-166 -219 ZM145 41 l-92 46 l132 176 l-132 177 l92 48 l165 -220 l0 -8 l-165 -219 Z" /><glyph glyph-name="onequarter" unicode="¼" d="M0 0 l0 700 l500 0 l0 -700 l-500 0 ZM81 49 l339 0 l-170 255 l-169 -255 ZM49 96 l171 254 l-171 254 l0 -508 ZM450 96 l0 508 l-171 -254 l171 -254 ZM250 395 l170 255 l-339 0 l169 -255 Z" /><glyph glyph-name="onehalf" unicode="½" d="M0 0 l0 700 l500 0 l0 -700 l-500 0 ZM81 49 l339 0 l-170 255 l-169 -255 ZM49 96 l171 254 l-171 254 l0 -508 ZM450 96 l0 508 l-171 -254 l171 -254 ZM250 395 l170 255 l-339 0 l169 -255 Z" /><glyph glyph-name="threequarters" unicode="¾" d="M0 0 l0 700 l500 0 l0 -700 l-500 0 ZM81 49 l339 0 l-170 255 l-169 -255 ZM49 96 l171 254 l-171 254 l0 -508 ZM450 96 l0 508 l-171 -254 l171 -254 ZM250 395 l170 255 l-339 0 l169 -255 Z" /><glyph glyph-name="questiondown" unicode="¿" d="M229 563 l0 137 l134 0 l0 -137 l-134 0 ZM276 -9 q-106 0 -170 55.5 q-64 55.5 -64 149.5 q0 89 55 137.5 q55 48.5 146 64.5 l10 81 l81 0 l20 -162 l-5 -5 q-185 -7 -185 -114 q0 -43 31 -69 q31 -26 84 -26 q89 0 163 79 l75 -80 q-98 -111 -241 -111 Z" /><glyph glyph-name="Agrave" unicode="à" d="M30 0 l308 705 l114 0 l308 -705 l-130 0 l-71 169 l-331 0 l-72 -169 l-126 0 ZM273 278 l241 0 l-121 280 l-120 -280 ZM351 758 l-122 115 l110 49 l106 -164 l-94 0 Z" /><glyph glyph-name="Aacute" unicode="á" d="M30 0 l308 705 l114 0 l308 -705 l-130 0 l-71 169 l-331 0 l-72 -169 l-126 0 ZM273 278 l241 0 l-121 280 l-120 -280 ZM345 758 l106 164 l110 -49 l-122 -115 l-94 0 Z" /><glyph glyph-name="Acircumflex" unicode="â" d="M30 0 l308 705 l114 0 l308 -705 l-130 0 l-71 169 l-331 0 l-72 -169 l-126 0 ZM273 278 l241 0 l-121 280 l-120 -280 ZM223 757 l116 146 l112 0 l116 -146 l-96 0 l-77 67 l-77 -67 l-94 0 Z" /><glyph glyph-name="Atilde" unicode="ã" d="M30 0 l308 705 l114 0 l308 -705 l-130 0 l-71 169 l-331 0 l-72 -169 l-126 0 ZM273 278 l241 0 l-121 280 l-120 -280 ZM273 748 l-67 20 q17 64 42.5 94.5 q25.5 30.5 69.5 30.5 q30 0 79 -20 q49 -20 65 -20 q20 0 31.5 11 q11.5 11 23.5 39 l67 -21 q-17 -64 -42.5 -94 q-25.5 -30 -69.5 -30 q-30 0 -79 20 q-49 20 -65 20 q-20 0 -31.5 -11 q-11.5 -11 -23.5 -39 Z" /><glyph glyph-name="Adieresis" unicode="ä" d="M30 0 l308 705 l114 0 l308 -705 l-130 0 l-71 169 l-331 0 l-72 -169 l-126 0 ZM273 278 l241 0 l-121 280 l-120 -280 ZM433 758 l0 118 l123 0 l0 -118 l-123 0 ZM234 758 l0 118 l123 0 l0 -118 l-123 0 Z" /><glyph glyph-name="Aring" unicode="å" d="M30 0 l298 684 q-47 35 -47 89 q0 44 34.5 76.5 q34.5 32.5 79.5 32.5 q45 0 79.5 -33 q34.5 -33 34.5 -78 q0 -52 -47 -87 l298 -684 l-130 0 l-71 169 l-331 0 l-72 -169 l-126 0 ZM395 710 q26 0 44 18.5 q18 18.5 18 44.5 q0 25 -18.5 43 q-18.5 18 -43.5 18 q-26 0 -44 -18.5 q-18 -18.5 -18 -44.5 q0 -25 18.5 -43 q18.5 -18 43.5 -18 ZM273 278 l241 0 l-121 280 l-120 -280 Z" /><glyph glyph-name="AE" unicode="æ" d="M12 0 l391 700 l581 0 l0 -110 l-374 0 l0 -182 l329 0 l0 -110 l-329 0 l0 -188 l379 0 l0 -110 l-502 0 l0 169 l-255 0 l-93 -169 l-127 0 ZM291 278 l196 0 l0 315 l-20 0 l-176 -315 Z" /><glyph glyph-name="Ccedilla" unicode="ç" d="M371 -165 l-105 44 l79 116 q-126 23 -206 122 q-80 99 -80 233 q0 152 102 257 q102 105 259 105 q91 0 154.5 -28 q63.5 -28 119.5 -81 l-79 -91 q-94 87 -196 87 q-100 0 -165.5 -72 q-65.5 -72 -65.5 -177 q0 -104 66 -176.5 q66 -72.5 165 -72.5 q60 0 106 22.5 q46 22.5 95 68.5 l79 -80 q-55 -58 -116.5 -88.5 q-61.5 -30.5 -145.5 -34.5 l-66 -154 Z" /><glyph glyph-name="Egrave" unicode="è" d="M90 0 l0 700 l519 0 l0 -110 l-396 0 l0 -182 l351 0 l0 -110 l-351 0 l0 -188 l401 0 l0 -110 l-524 0 ZM327 758 l-122 115 l110 49 l106 -164 l-94 0 Z" /><glyph glyph-name="Eacute" unicode="é" d="M90 0 l0 700 l519 0 l0 -110 l-396 0 l0 -182 l351 0 l0 -110 l-351 0 l0 -188 l401 0 l0 -110 l-524 0 ZM277 758 l106 164 l110 -49 l-122 -115 l-94 0 Z" /><glyph glyph-name="Ecircumflex" unicode="ê" d="M90 0 l0 700 l519 0 l0 -110 l-396 0 l0 -182 l351 0 l0 -110 l-351 0 l0 -188 l401 0 l0 -110 l-524 0 ZM175 758 l116 146 l112 0 l116 -146 l-96 0 l-77 67 l-77 -67 l-94 0 Z" /><glyph glyph-name="Edieresis" unicode="ë" d="M90 0 l0 700 l519 0 l0 -110 l-396 0 l0 -182 l351 0 l0 -110 l-351 0 l0 -188 l401 0 l0 -110 l-524 0 ZM385 758 l0 118 l123 0 l0 -118 l-123 0 ZM186 758 l0 118 l123 0 l0 -118 l-123 0 Z" /><glyph glyph-name="Igrave" unicode="ì" d="M97 0 l0 700 l123 0 l0 -700 l-123 0 ZM116 758 l-122 115 l110 49 l106 -164 l-94 0 Z" /><glyph glyph-name="Iacute" unicode="í" d="M97 0 l0 700 l123 0 l0 -700 l-123 0 ZM108 758 l106 164 l110 -49 l-122 -115 l-94 0 Z" /><glyph glyph-name="Icircumflex" unicode="î" d="M97 0 l0 700 l123 0 l0 -700 l-123 0 ZM-13 758 l116 146 l112 0 l116 -146 l-96 0 l-77 67 l-77 -67 l-94 0 Z" /><glyph glyph-name="Idieresis" unicode="ï" d="M97 0 l0 700 l123 0 l0 -700 l-123 0 ZM197 758 l0 118 l123 0 l0 -118 l-123 0 ZM-2 758 l0 118 l123 0 l0 -118 l-123 0 Z" /><glyph glyph-name="Eth" unicode="ð" d="M120 0 l0 297 l-75 0 l0 110 l75 0 l0 293 l261 0 q164 0 268 -99.5 q104 -99.5 104 -250.5 q0 -150 -104.5 -250 q-104.5 -100 -267.5 -100 l-261 0 ZM242 112 l139 0 q109 0 176 66.5 q67 66.5 67 171.5 q0 104 -67 171 q-67 67 -176 67 l-139 0 l0 -181 l176 0 l0 -110 l-176 0 l0 -185 Z" /><glyph glyph-name="Ntilde" unicode="ñ" d="M90 0 l0 700 l114 0 l375 -484 l0 484 l121 0 l0 -700 l-103 0 l-386 498 l0 -498 l-121 0 ZM273 748 l-67 20 q17 64 42.5 94.5 q25.5 30.5 69.5 30.5 q30 0 79 -20 q49 -20 65 -20 q20 0 31.5 11 q11.5 11 23.5 39 l67 -21 q-17 -64 -42.5 -94 q-25.5 -30 -69.5 -30 q-30 0 -79 20 q-49 20 -65 20 q-20 0 -31.5 -11 q-11.5 -11 -23.5 -39 Z" /><glyph glyph-name="Ograve" unicode="ò" d="M687 94 q-104 -106 -263 -106 q-159 0 -262 105 q-103 105 -103 257 q0 150 104 256 q104 106 263 106 q159 0 262 -105 q103 -105 103 -257 q0 -150 -104 -256 ZM255.5 173.5 q67.5 -72.5 170.5 -72.5 q103 0 169.5 72 q66.5 72 66.5 177 q0 104 -67.5 176.5 q-67.5 72.5 -170.5 72.5 q-103 0 -169.5 -72 q-66.5 -72 -66.5 -177 q0 -104 67.5 -176.5 ZM374 758 l-122 115 l110 49 l106 -164 l-94 0 Z" /><glyph glyph-name="Oacute" unicode="ó" d="M687 94 q-104 -106 -263 -106 q-159 0 -262 105 q-103 105 -103 257 q0 150 104 256 q104 106 263 106 q159 0 262 -105 q103 -105 103 -257 q0 -150 -104 -256 ZM255.5 173.5 q67.5 -72.5 170.5 -72.5 q103 0 169.5 72 q66.5 72 66.5 177 q0 104 -67.5 176.5 q-67.5 72.5 -170.5 72.5 q-103 0 -169.5 -72 q-66.5 -72 -66.5 -177 q0 -104 67.5 -176.5 ZM382 758 l106 164 l110 -49 l-122 -115 l-94 0 Z" /><glyph glyph-name="Ocircumflex" unicode="ô" d="M687 94 q-104 -106 -263 -106 q-159 0 -262 105 q-103 105 -103 257 q0 150 104 256 q104 106 263 106 q159 0 262 -105 q103 -105 103 -257 q0 -150 -104 -256 ZM255.5 173.5 q67.5 -72.5 170.5 -72.5 q103 0 169.5 72 q66.5 72 66.5 177 q0 104 -67.5 176.5 q-67.5 72.5 -170.5 72.5 q-103 0 -169.5 -72 q-66.5 -72 -66.5 -177 q0 -104 67.5 -176.5 ZM253 758 l116 146 l112 0 l116 -146 l-96 0 l-77 67 l-77 -67 l-94 0 Z" /><glyph glyph-name="Otilde" unicode="õ" d="M687 94 q-104 -106 -263 -106 q-159 0 -262 105 q-103 105 -103 257 q0 150 104 256 q104 106 263 106 q159 0 262 -105 q103 -105 103 -257 q0 -150 -104 -256 ZM255.5 173.5 q67.5 -72.5 170.5 -72.5 q103 0 169.5 72 q66.5 72 66.5 177 q0 104 -67.5 176.5 q-67.5 72.5 -170.5 72.5 q-103 0 -169.5 -72 q-66.5 -72 -66.5 -177 q0 -104 67.5 -176.5 ZM303 748 l-67 20 q17 64 42.5 94.5 q25.5 30.5 69.5 30.5 q30 0 79 -20 q49 -20 65 -20 q20 0 31.5 11 q11.5 11 23.5 39 l67 -21 q-17 -64 -42.5 -94 q-25.5 -30 -69.5 -30 q-30 0 -79 20 q-49 20 -65 20 q-20 0 -31.5 -11 q-11.5 -11 -23.5 -39 Z" /><glyph glyph-name="Odieresis" unicode="ö" d="M687 94 q-104 -106 -263 -106 q-159 0 -262 105 q-103 105 -103 257 q0 150 104 256 q104 106 263 106 q159 0 262 -105 q103 -105 103 -257 q0 -150 -104 -256 ZM255.5 173.5 q67.5 -72.5 170.5 -72.5 q103 0 169.5 72 q66.5 72 66.5 177 q0 104 -67.5 176.5 q-67.5 72.5 -170.5 72.5 q-103 0 -169.5 -72 q-66.5 -72 -66.5 -177 q0 -104 67.5 -176.5 ZM463 758 l0 118 l123 0 l0 -118 l-123 0 ZM264 758 l0 118 l123 0 l0 -118 l-123 0 Z" /><glyph glyph-name="multiply" unicode="×" d="M145 91 l-79 78 l174 175 l-174 174 l79 79 l174 -175 l174 175 l79 -79 l-175 -174 l175 -175 l-79 -78 l-174 174 l-174 -174 Z" /><glyph glyph-name="Oslash" unicode="ø" d="M424 -12 q-114 0 -204 60 l-48 -53 l-121 0 l99 111 q-91 100 -91 244 q0 150 104 256 q104 106 263 106 q114 0 204 -60 l48 53 l121 0 l-99 -112 q91 -99 91 -243 q0 -150 -104 -256 q-104 -106 -263 -106 ZM232 201 l320 360 q-56 40 -128 40 q-103 0 -170.5 -72.5 q-67.5 -72.5 -67.5 -178.5 q0 -85 46 -149 ZM426 99 q103 0 170.5 72.5 q67.5 72.5 67.5 178.5 q0 85 -46 149 l-320 -360 q56 -40 128 -40 Z" /><glyph glyph-name="Ugrave" unicode="ù" d="M377 -11 q-139 0 -218.5 79 q-79.5 79 -79.5 229 l0 403 l123 0 l0 -398 q0 -96 47 -148 q47 -52 130 -52 q83 0 129.5 50 q46.5 50 46.5 145 l0 403 l123 0 l0 -397 q0 -153 -80 -233.5 q-80 -80.5 -221 -80.5 ZM341 753 l-122 115 l110 49 l106 -164 l-94 0 Z" /><glyph glyph-name="Uacute" unicode="ú" d="M377 -11 q-139 0 -218.5 79 q-79.5 79 -79.5 229 l0 403 l123 0 l0 -398 q0 -96 47 -148 q47 -52 130 -52 q83 0 129.5 50 q46.5 50 46.5 145 l0 403 l123 0 l0 -397 q0 -153 -80 -233.5 q-80 -80.5 -221 -80.5 ZM322 753 l106 164 l110 -49 l-122 -115 l-94 0 Z" /><glyph glyph-name="Ucircumflex" unicode="û" d="M377 -11 q-139 0 -218.5 79 q-79.5 79 -79.5 229 l0 403 l123 0 l0 -398 q0 -96 47 -148 q47 -52 130 -52 q83 0 129.5 50 q46.5 50 46.5 145 l0 403 l123 0 l0 -397 q0 -153 -80 -233.5 q-80 -80.5 -221 -80.5 ZM207 757 l116 146 l112 0 l116 -146 l-96 0 l-77 67 l-77 -67 l-94 0 Z" /><glyph glyph-name="Udieresis" unicode="ü" d="M377 -11 q-139 0 -218.5 79 q-79.5 79 -79.5 229 l0 403 l123 0 l0 -398 q0 -96 47 -148 q47 -52 130 -52 q83 0 129.5 50 q46.5 50 46.5 145 l0 403 l123 0 l0 -397 q0 -153 -80 -233.5 q-80 -80.5 -221 -80.5 ZM417 757 l0 118 l123 0 l0 -118 l-123 0 ZM218 757 l0 118 l123 0 l0 -118 l-123 0 Z" /><glyph glyph-name="Yacute" unicode="ý" d="M296 0 l0 276 l-278 424 l145 0 l196 -310 l198 310 l141 0 l-278 -421 l0 -279 l-124 0 ZM311 753 l106 164 l110 -49 l-122 -115 l-94 0 Z" /><glyph glyph-name="Thorn" unicode="þ" d="M90 0 l0 700 l123 0 l0 -110 l153 0 q122 0 194 -64 q72 -64 72 -171 q0 -114 -79.5 -176.5 q-79.5 -62.5 -200.5 -62.5 l-139 0 l0 -116 l-123 0 ZM213 226 l143 0 q69 0 110 35.5 q41 35.5 41 92.5 q0 60 -40.5 92.5 q-40.5 32.5 -110.5 32.5 l-143 0 l0 -253 Z" /><glyph glyph-name="germandbls" unicode="ß" d="M296 -2 l0 93 q74 2 114 30 q40 28 40 80 q0 47 -41.5 76 q-41.5 29 -112.5 38 l0 82 q113 55 113 141 q0 43 -27.5 69.5 q-27.5 26.5 -73.5 26.5 q-50 0 -81 -35 q-31 -35 -31 -93 l0 -506 l-120 0 l0 502 q0 109 64 172 q64 63 174 63 q99 0 157 -53.5 q58 -53.5 58 -136.5 q0 -110 -110 -171 q152 -51 152 -180 q0 -93 -69.5 -145.5 q-69.5 -52.5 -189.5 -52.5 l-16 0 Z" /><glyph glyph-name="agrave" unicode="à" d="M519 0 l-120 0 l0 65 q-64 -76 -171 -76 q-79 0 -133.5 43.5 q-54.5 43.5 -54.5 121.5 q0 85 59 129 q59 44 155 44 q77 0 146 -22 l0 10 q0 55 -33.5 84 q-33.5 29 -96.5 29 q-72 0 -151 -33 l-33 97 q98 44 201 44 q115 0 173.5 -58 q58.5 -58 58.5 -165 l0 -313 ZM402 191 l0 30 q-54 21 -121 21 q-57 0 -89 -22 q-32 -22 -32 -62 q0 -36 29 -57 q29 -21 73 -21 q61 0 100.5 31 q39.5 31 39.5 80 ZM257 595 l-122 115 l110 49 l106 -164 l-94 0 Z" /><glyph glyph-name="aacute" unicode="á" d="M519 0 l-120 0 l0 65 q-64 -76 -171 -76 q-79 0 -133.5 43.5 q-54.5 43.5 -54.5 121.5 q0 85 59 129 q59 44 155 44 q77 0 146 -22 l0 10 q0 55 -33.5 84 q-33.5 29 -96.5 29 q-72 0 -151 -33 l-33 97 q98 44 201 44 q115 0 173.5 -58 q58.5 -58 58.5 -165 l0 -313 ZM402 191 l0 30 q-54 21 -121 21 q-57 0 -89 -22 q-32 -22 -32 -62 q0 -36 29 -57 q29 -21 73 -21 q61 0 100.5 31 q39.5 31 39.5 80 ZM235 595 l106 164 l110 -49 l-122 -115 l-94 0 Z" /><glyph glyph-name="acircumflex" unicode="â" d="M519 0 l-120 0 l0 65 q-64 -76 -171 -76 q-79 0 -133.5 43.5 q-54.5 43.5 -54.5 121.5 q0 85 59 129 q59 44 155 44 q77 0 146 -22 l0 10 q0 55 -33.5 84 q-33.5 29 -96.5 29 q-72 0 -151 -33 l-33 97 q98 44 201 44 q115 0 173.5 -58 q58.5 -58 58.5 -165 l0 -313 ZM402 191 l0 30 q-54 21 -121 21 q-57 0 -89 -22 q-32 -22 -32 -62 q0 -36 29 -57 q29 -21 73 -21 q61 0 100.5 31 q39.5 31 39.5 80 ZM121 595 l116 146 l112 0 l116 -146 l-96 0 l-77 67 l-77 -67 l-94 0 Z" /><glyph glyph-name="atilde" unicode="ã" d="M519 0 l-120 0 l0 65 q-64 -76 -171 -76 q-79 0 -133.5 43.5 q-54.5 43.5 -54.5 121.5 q0 85 59 129 q59 44 155 44 q77 0 146 -22 l0 10 q0 55 -33.5 84 q-33.5 29 -96.5 29 q-72 0 -151 -33 l-33 97 q98 44 201 44 q115 0 173.5 -58 q58.5 -58 58.5 -165 l0 -313 ZM402 191 l0 30 q-54 21 -121 21 q-57 0 -89 -22 q-32 -22 -32 -62 q0 -36 29 -57 q29 -21 73 -21 q61 0 100.5 31 q39.5 31 39.5 80 ZM172 585 l-67 20 q17 64 42.5 94.5 q25.5 30.5 69.5 30.5 q30 0 79 -20 q49 -20 65 -20 q21 0 32 11 q11 11 23 39 l67 -21 q-17 -64 -42.5 -94 q-25.5 -30 -69.5 -30 q-30 0 -79 20 q-49 20 -65 20 q-21 0 -32 -11 q-11 -11 -23 -39 Z" /><glyph glyph-name="adieresis" unicode="ä" d="M519 0 l-120 0 l0 65 q-64 -76 -171 -76 q-79 0 -133.5 43.5 q-54.5 43.5 -54.5 121.5 q0 85 59 129 q59 44 155 44 q77 0 146 -22 l0 10 q0 55 -33.5 84 q-33.5 29 -96.5 29 q-72 0 -151 -33 l-33 97 q98 44 201 44 q115 0 173.5 -58 q58.5 -58 58.5 -165 l0 -313 ZM402 191 l0 30 q-54 21 -121 21 q-57 0 -89 -22 q-32 -22 -32 -62 q0 -36 29 -57 q29 -21 73 -21 q61 0 100.5 31 q39.5 31 39.5 80 ZM331 595 l0 118 l123 0 l0 -118 l-123 0 ZM132 595 l0 118 l123 0 l0 -118 l-123 0 Z" /><glyph glyph-name="aring" unicode="å" d="M519 0 l-120 0 l0 65 q-64 -76 -171 -76 q-79 0 -133.5 43.5 q-54.5 43.5 -54.5 121.5 q0 85 59 129 q59 44 155 44 q77 0 146 -22 l0 10 q0 55 -33.5 84 q-33.5 29 -96.5 29 q-72 0 -151 -33 l-33 97 q98 44 201 44 q115 0 173.5 -58 q58.5 -58 58.5 -165 l0 -313 ZM402 191 l0 30 q-54 21 -121 21 q-57 0 -89 -22 q-32 -22 -32 -62 q0 -36 29 -57 q29 -21 73 -21 q61 0 100.5 31 q39.5 31 39.5 80 ZM372.5 625.5 q-34.5 -32.5 -79.5 -32.5 q-45 0 -79.5 33 q-34.5 33 -34.5 78 q0 44 34.5 76.5 q34.5 32.5 79.5 32.5 q45 0 79.5 -33 q34.5 -33 34.5 -78 q0 -44 -34.5 -76.5 ZM293 641 q26 0 44 18.5 q18 18.5 18 44.5 q0 25 -18.5 43 q-18.5 18 -43.5 18 q-26 0 -44 -18.5 q-18 -18.5 -18 -44.5 q0 -25 18.5 -43 q18.5 -18 43.5 -18 Z" /><glyph glyph-name="ae" unicode="æ" d="M240 -11 q-86 0 -143 43.5 q-57 43.5 -57 121.5 q0 85 58.5 129 q58.5 44 153.5 44 q76 0 145 -22 l0 10 q0 113 -129 113 q-70 0 -149 -33 l-33 97 q98 44 199 44 q135 0 185 -87 q69 90 185 90 q118 0 184 -81.5 q66 -81.5 66 -202.5 q0 -22 -1 -34 l-388 0 q10 -63 51 -98.5 q41 -35.5 100 -35.5 q79 0 144 63 l71 -63 q-84 -99 -217 -99 q-127 0 -204 90 q-107 -89 -221 -89 ZM514 301 l272 0 q-6 61 -41 100 q-35 39 -93 39 q-55 0 -92.5 -38.5 q-37.5 -38.5 -45.5 -100.5 ZM260 80 q83 0 156 68 q-15 38 -19 76 q-51 18 -118 18 q-56 0 -87.5 -22 q-31.5 -22 -31.5 -62 q0 -36 28.5 -57 q28.5 -21 71.5 -21 Z" /><glyph glyph-name="ccedilla" unicode="ç" d="M276 -165 l-106 44 l80 118 q-90 23 -146.5 96.5 q-56.5 73.5 -56.5 169.5 q0 114 78.5 195 q78.5 81 195.5 81 q128 0 211 -91 l-75 -81 q-63 66 -137 66 q-65 0 -108.5 -49.5 q-43.5 -49.5 -43.5 -120.5 q0 -72 44.5 -121 q44.5 -49 113.5 -49 q73 0 137 66 l73 -72 q-41 -45 -86.5 -70 q-45.5 -25 -108.5 -28 l-65 -154 Z" /><glyph glyph-name="egrave" unicode="è" d="M318 -12 q-116 0 -193.5 77 q-77.5 77 -77.5 199 q0 115 73 195 q73 80 185 80 q120 0 186.5 -81.5 q66.5 -81.5 66.5 -202.5 q0 -22 -2 -34 l-388 0 q10 -63 51 -98.5 q41 -35.5 101 -35.5 q78 0 143 63 l71 -63 q-82 -99 -216 -99 ZM167 301 l271 0 q-6 61 -41 100 q-35 39 -93 39 q-55 0 -92 -38.5 q-37 -38.5 -45 -100.5 ZM261 595 l-122 115 l110 49 l106 -164 l-94 0 Z" /><glyph glyph-name="eacute" unicode="é" d="M318 -12 q-116 0 -193.5 77 q-77.5 77 -77.5 199 q0 115 73 195 q73 80 185 80 q120 0 186.5 -81.5 q66.5 -81.5 66.5 -202.5 q0 -22 -2 -34 l-388 0 q10 -63 51 -98.5 q41 -35.5 101 -35.5 q78 0 143 63 l71 -63 q-82 -99 -216 -99 ZM167 301 l271 0 q-6 61 -41 100 q-35 39 -93 39 q-55 0 -92 -38.5 q-37 -38.5 -45 -100.5 ZM249 595 l106 164 l110 -49 l-122 -115 l-94 0 Z" /><glyph glyph-name="ecircumflex" unicode="ê" d="M318 -12 q-116 0 -193.5 77 q-77.5 77 -77.5 199 q0 115 73 195 q73 80 185 80 q120 0 186.5 -81.5 q66.5 -81.5 66.5 -202.5 q0 -22 -2 -34 l-388 0 q10 -63 51 -98.5 q41 -35.5 101 -35.5 q78 0 143 63 l71 -63 q-82 -99 -216 -99 ZM167 301 l271 0 q-6 61 -41 100 q-35 39 -93 39 q-55 0 -92 -38.5 q-37 -38.5 -45 -100.5 ZM131 595 l116 146 l112 0 l116 -146 l-96 0 l-77 67 l-77 -67 l-94 0 Z" /><glyph glyph-name="edieresis" unicode="ë" d="M318 -12 q-116 0 -193.5 77 q-77.5 77 -77.5 199 q0 115 73 195 q73 80 185 80 q120 0 186.5 -81.5 q66.5 -81.5 66.5 -202.5 q0 -22 -2 -34 l-388 0 q10 -63 51 -98.5 q41 -35.5 101 -35.5 q78 0 143 63 l71 -63 q-82 -99 -216 -99 ZM167 301 l271 0 q-6 61 -41 100 q-35 39 -93 39 q-55 0 -92 -38.5 q-37 -38.5 -45 -100.5 ZM341 595 l0 118 l123 0 l0 -118 l-123 0 ZM142 595 l0 118 l123 0 l0 -118 l-123 0 Z" /><glyph glyph-name="igrave" unicode="ì" d="M83 0 l0 528 l121 0 l0 -528 l-121 0 ZM101 595 l-122 115 l110 49 l106 -164 l-94 0 Z" /><glyph glyph-name="iacute" unicode="í" d="M83 0 l0 528 l121 0 l0 -528 l-121 0 ZM91 595 l106 164 l110 -49 l-122 -115 l-94 0 Z" /><glyph glyph-name="icircumflex" unicode="î" d="M83 0 l0 528 l121 0 l0 -528 l-121 0 ZM-29 595 l116 146 l112 0 l116 -146 l-96 0 l-77 67 l-77 -67 l-94 0 Z" /><glyph glyph-name="idieresis" unicode="ï" d="M83 0 l0 528 l121 0 l0 -528 l-121 0 ZM181 595 l0 118 l123 0 l0 -118 l-123 0 ZM-18 595 l0 118 l123 0 l0 -118 l-123 0 Z" /><glyph glyph-name="eth" unicode="ð" d="M316 -12 q-115 0 -192 76 q-77 76 -77 186 q0 104 66.5 170 q66.5 66 165.5 66 q71 0 139 -41 l-105 143 l-119 -53 l-48 63 l121 53 l-58 79 l139 0 l24 -35 l99 43 l47 -63 l-102 -44 l89 -129 q46 -66 67 -122.5 q21 -56.5 21 -122.5 q0 -112 -75.5 -190.5 q-75.5 -78.5 -201.5 -78.5 ZM321 91 q68 0 110.5 45 q42.5 45 42.5 111 q0 63 -44 106.5 q-44 43.5 -113 43.5 q-68 0 -109.5 -43 q-41.5 -43 -41.5 -109 q0 -64 44 -109 q44 -45 111 -45 Z" /><glyph glyph-name="ntilde" unicode="ñ" d="M76 0 l0 528 l121 0 l0 -82 q63 93 165 93 q88 0 138 -55 q50 -55 50 -148 l0 -336 l-121 0 l0 300 q0 62 -29.5 95.5 q-29.5 33.5 -83.5 33.5 q-53 0 -86 -35 q-33 -35 -33 -96 l0 -298 l-121 0 ZM192 585 l-67 20 q17 64 42.5 94.5 q25.5 30.5 69.5 30.5 q30 0 79 -20 q49 -20 65 -20 q21 0 32 11 q11 11 23 39 l67 -21 q-17 -64 -42.5 -94 q-25.5 -30 -69.5 -30 q-30 0 -79 20 q-49 20 -65 20 q-21 0 -32 -11 q-11 -11 -23 -39 Z" /><glyph glyph-name="ograve" unicode="ò" d="M327 -12 q-120 0 -200 80 q-80 80 -80 195 q0 115 81 195.5 q81 80.5 201 80.5 q120 0 200.5 -80 q80.5 -80 80.5 -196 q0 -114 -81 -194.5 q-81 -80.5 -202 -80.5 ZM329 93 q72 0 116 49 q44 49 44 121 q0 71 -46 120.5 q-46 49.5 -116 49.5 q-71 0 -115 -49 q-44 -49 -44 -121 q0 -70 46 -120 q46 -50 115 -50 ZM281 595 l-122 115 l110 49 l106 -164 l-94 0 Z" /><glyph glyph-name="oacute" unicode="ó" d="M327 -12 q-120 0 -200 80 q-80 80 -80 195 q0 115 81 195.5 q81 80.5 201 80.5 q120 0 200.5 -80 q80.5 -80 80.5 -196 q0 -114 -81 -194.5 q-81 -80.5 -202 -80.5 ZM329 93 q72 0 116 49 q44 49 44 121 q0 71 -46 120.5 q-46 49.5 -116 49.5 q-71 0 -115 -49 q-44 -49 -44 -121 q0 -70 46 -120 q46 -50 115 -50 ZM281 595 l106 164 l110 -49 l-122 -115 l-94 0 Z" /><glyph glyph-name="ocircumflex" unicode="ô" d="M327 -12 q-120 0 -200 80 q-80 80 -80 195 q0 115 81 195.5 q81 80.5 201 80.5 q120 0 200.5 -80 q80.5 -80 80.5 -196 q0 -114 -81 -194.5 q-81 -80.5 -202 -80.5 ZM329 93 q72 0 116 49 q44 49 44 121 q0 71 -46 120.5 q-46 49.5 -116 49.5 q-71 0 -115 -49 q-44 -49 -44 -121 q0 -70 46 -120 q46 -50 115 -50 ZM156 595 l116 146 l112 0 l116 -146 l-96 0 l-77 67 l-77 -67 l-94 0 Z" /><glyph glyph-name="otilde" unicode="õ" d="M327 -12 q-120 0 -200 80 q-80 80 -80 195 q0 115 81 195.5 q81 80.5 201 80.5 q120 0 200.5 -80 q80.5 -80 80.5 -196 q0 -114 -81 -194.5 q-81 -80.5 -202 -80.5 ZM329 93 q72 0 116 49 q44 49 44 121 q0 71 -46 120.5 q-46 49.5 -116 49.5 q-71 0 -115 -49 q-44 -49 -44 -121 q0 -70 46 -120 q46 -50 115 -50 ZM206 585 l-67 20 q17 64 42.5 94.5 q25.5 30.5 69.5 30.5 q30 0 79 -20 q49 -20 65 -20 q21 0 32 11 q11 11 23 39 l67 -21 q-17 -64 -42.5 -94 q-25.5 -30 -69.5 -30 q-30 0 -79 20 q-49 20 -65 20 q-21 0 -32 -11 q-11 -11 -23 -39 Z" /><glyph glyph-name="odieresis" unicode="ö" d="M327 -12 q-120 0 -200 80 q-80 80 -80 195 q0 115 81 195.5 q81 80.5 201 80.5 q120 0 200.5 -80 q80.5 -80 80.5 -196 q0 -114 -81 -194.5 q-81 -80.5 -202 -80.5 ZM329 93 q72 0 116 49 q44 49 44 121 q0 71 -46 120.5 q-46 49.5 -116 49.5 q-71 0 -115 -49 q-44 -49 -44 -121 q0 -70 46 -120 q46 -50 115 -50 ZM366 595 l0 118 l123 0 l0 -118 l-123 0 ZM167 595 l0 118 l123 0 l0 -118 l-123 0 Z" /><glyph glyph-name="divide" unicode="÷" d="M83 299 l0 111 l473 0 l0 -111 l-473 0 ZM256 497 l0 131 l124 0 l0 -131 l-124 0 ZM256 80 l0 131 l124 0 l0 -131 l-124 0 Z" /><glyph glyph-name="oslash" unicode="ø" d="M327 -12 q-83 0 -151 43 l-34 -36 l-110 0 l80 89 q-65 76 -65 179 q0 115 81 195.5 q81 80.5 201 80.5 q84 0 151 -43 l35 38 l110 0 q-51 -57 -81 -91 q66 -74 66 -180 q0 -114 -81 -194.5 q-81 -80.5 -202 -80.5 ZM190 172 l218 240 q-37 24 -81 24 q-73 0 -117.5 -50 q-44.5 -50 -44.5 -123 q0 -50 25 -91 ZM329 91 q73 0 118 49.5 q45 49.5 45 122.5 q0 49 -25 92 l-219 -241 q35 -23 81 -23 Z" /><glyph glyph-name="ugrave" unicode="ù" d="M258 -11 q-88 0 -138 55 q-50 55 -50 148 l0 336 l121 0 l0 -300 q0 -62 29.5 -95.5 q29.5 -33.5 83.5 -33.5 q53 0 86 35 q33 35 33 96 l0 298 l121 0 l0 -528 l-121 0 l0 82 q-63 -93 -165 -93 ZM275 594 l-122 115 l110 49 l106 -164 l-94 0 Z" /><glyph glyph-name="uacute" unicode="ú" d="M258 -11 q-88 0 -138 55 q-50 55 -50 148 l0 336 l121 0 l0 -300 q0 -62 29.5 -95.5 q29.5 -33.5 83.5 -33.5 q53 0 86 35 q33 35 33 96 l0 298 l121 0 l0 -528 l-121 0 l0 82 q-63 -93 -165 -93 ZM249 594 l106 164 l110 -49 l-122 -115 l-94 0 Z" /><glyph glyph-name="ucircumflex" unicode="û" d="M258 -11 q-88 0 -138 55 q-50 55 -50 148 l0 336 l121 0 l0 -300 q0 -62 29.5 -95.5 q29.5 -33.5 83.5 -33.5 q53 0 86 35 q33 35 33 96 l0 298 l121 0 l0 -528 l-121 0 l0 82 q-63 -93 -165 -93 ZM138 595 l116 146 l112 0 l116 -146 l-96 0 l-77 67 l-77 -67 l-94 0 Z" /><glyph glyph-name="udieresis" unicode="ü" d="M258 -11 q-88 0 -138 55 q-50 55 -50 148 l0 336 l121 0 l0 -300 q0 -62 29.5 -95.5 q29.5 -33.5 83.5 -33.5 q53 0 86 35 q33 35 33 96 l0 298 l121 0 l0 -528 l-121 0 l0 82 q-63 -93 -165 -93 ZM348 595 l0 118 l123 0 l0 -118 l-123 0 ZM149 595 l0 118 l123 0 l0 -118 l-123 0 Z" /><glyph glyph-name="yacute" unicode="ý" d="M184 -163 q-66 0 -125 32 l41 90 q37 -20 71 -20 q26 0 43 13.5 q17 13.5 32 47.5 l-220 528 l129 0 l150 -392 l137 392 l126 0 l-210 -543 q-32 -81 -71 -114.5 q-39 -33.5 -103 -33.5 ZM244 594 l106 164 l110 -49 l-122 -115 l-94 0 Z" /><glyph glyph-name="thorn" unicode="þ" d="M76 -160 l0 890 l121 0 l0 -290 q70 99 179 99 q100 0 173 -74.5 q73 -74.5 73 -201.5 q0 -125 -73 -199.5 q-73 -74.5 -173 -74.5 q-109 0 -179 93 l0 -242 l-121 0 ZM348 94 q64 0 107.5 47 q43.5 47 43.5 124 q0 75 -44 122 q-44 47 -107 47 q-63 0 -108.5 -48 q-45.5 -48 -45.5 -123 q0 -74 45.5 -121.5 q45.5 -47.5 108.5 -47.5 Z" /><glyph glyph-name="ydieresis" unicode="ÿ" d="M184 -163 q-66 0 -125 32 l41 90 q37 -20 71 -20 q26 0 43 13.5 q17 13.5 32 47.5 l-220 528 l129 0 l150 -392 l137 392 l126 0 l-210 -543 q-32 -81 -71 -114.5 q-39 -33.5 -103 -33.5 ZM336 595 l0 118 l123 0 l0 -118 l-123 0 ZM137 595 l0 118 l123 0 l0 -118 l-123 0 Z" /><glyph glyph-name="dotlessi" unicode="&#x131;" d="M83 0 l0 528 l121 0 l0 -528 l-121 0 Z" /><glyph glyph-name="Lslash" unicode="&#x141;" d="M120 0 l0 278 l-75 -22 l0 114 l75 23 l0 307 l122 0 l0 -270 l202 60 l0 -114 l-202 -61 l0 -203 l369 0 l0 -112 l-491 0 Z" /><glyph glyph-name="lslash" unicode="&#x142;" d="M113 0 l0 297 l-76 -23 l0 115 l76 23 l0 318 l120 0 l0 -283 l76 23 l0 -115 l-76 -23 l0 -332 l-120 0 Z" /><glyph glyph-name="OE" unicode="&#x152;" d="M431 0 q-164 0 -268 99.5 q-104 99.5 -104 250.5 q0 150 104.5 250 q104.5 100 267.5 100 l606 0 l0 -110 l-374 0 l0 -182 l329 0 l0 -110 l-329 0 l0 -188 l379 0 l0 -110 l-611 0 ZM431 112 l109 0 l0 476 l-109 0 q-109 0 -176 -66.5 q-67 -66.5 -67 -171.5 q0 -104 67 -171 q67 -67 176 -67 Z" /><glyph glyph-name="oe" unicode="&#x153;" d="M321 -12 q-114 0 -194 80.5 q-80 80.5 -80 194.5 q0 114 81 195 q81 81 198 81 q66 0 121 -29.5 q55 -29.5 90 -79.5 q34 51 87 80 q53 29 117 29 q120 0 186 -81.5 q66 -81.5 66 -202.5 q0 -14 -2 -34 l-388 0 q10 -63 51.5 -98.5 q41.5 -35.5 100.5 -35.5 q79 0 144 63 l71 -63 q-84 -99 -216 -99 q-68 0 -125 29.5 q-57 29.5 -93 81.5 q-35 -51 -91.5 -81 q-56.5 -30 -123.5 -30 ZM602 301 l272 0 q-7 62 -41.5 100.5 q-34.5 38.5 -92.5 38.5 q-55 0 -92.5 -38.5 q-37.5 -38.5 -45.5 -100.5 ZM326 93 q70 0 113 49 q43 49 43 121 q0 71 -45 120.5 q-45 49.5 -113 49.5 q-69 0 -112.5 -49.5 q-43.5 -49.5 -43.5 -120.5 q0 -70 45 -120 q45 -50 113 -50 Z" /><glyph glyph-name="Scaron" unicode="&#x160;" d="M335 -10 q-167 0 -292 112 l74 88 q105 -91 221 -91 q57 0 90.5 24.5 q33.5 24.5 33.5 65.5 q0 39 -32 62.5 q-32 23.5 -126 45.5 q-122 29 -177.5 73.5 q-55.5 44.5 -55.5 136.5 q0 90 67 146.5 q67 56.5 172 56.5 q144 0 254 -88 l-66 -93 q-97 72 -190 72 q-53 0 -83.5 -24 q-30.5 -24 -30.5 -61 q0 -41 33.5 -63.5 q33.5 -22.5 132.5 -46.5 q116 -28 170.5 -75 q54.5 -47 54.5 -132 q0 -97 -69 -153 q-69 -56 -181 -56 ZM264 758 l-116 146 l96 0 l77 -66 l77 66 l94 0 l-116 -146 l-112 0 Z" /><glyph glyph-name="scaron" unicode="&#x161;" d="M257 -10 q-124 0 -224 79 l54 82 q86 -65 173 -65 q39 0 60.5 15.5 q21.5 15.5 21.5 43.5 q0 14 -7.5 24.5 q-7.5 10.5 -26.5 19.5 q-19 9 -32 13 q-13 4 -43 13 l-9 3 q-28 8 -47.5 15.5 q-19.5 7.5 -43.5 20.5 q-24 13 -39 28.5 q-15 15.5 -25 39.5 q-10 24 -10 54 q0 73 53.5 117 q53.5 44 134.5 44 q103 0 194 -60 l-48 -86 q-82 50 -149 50 q-35 0 -54.5 -15 q-19.5 -15 -19.5 -40 q0 -17 17.5 -31 q17.5 -14 35 -20.5 q17.5 -6.5 56.5 -19.5 q2 -1 5 -2 q3 -1 5 -1 q35 -11 59 -21.5 q24 -10.5 50.5 -28.5 q26.5 -18 40.5 -44.5 q14 -26.5 14 -61.5 q0 -80 -55 -123 q-55 -43 -141 -43 ZM198 595 l-116 146 l96 0 l77 -66 l77 66 l94 0 l-116 -146 l-112 0 Z" /><glyph glyph-name="Ydieresis" unicode="&#x178;" d="M296 0 l0 276 l-278 424 l145 0 l196 -310 l198 310 l141 0 l-278 -421 l0 -279 l-124 0 ZM396 757 l0 118 l123 0 l0 -118 l-123 0 ZM197 757 l0 118 l123 0 l0 -118 l-123 0 Z" /><glyph glyph-name="Zcaron" unicode="&#x17d;" d="M65 0 l0 91 l413 500 l-400 0 l0 109 l560 0 l0 -91 l-413 -500 l413 0 l0 -109 l-573 0 ZM299 758 l-116 146 l96 0 l77 -66 l77 66 l94 0 l-116 -146 l-112 0 Z" /><glyph glyph-name="zcaron" unicode="&#x17e;" d="M52 0 l0 83 l305 346 l-294 0 l0 99 l448 0 l0 -83 l-305 -346 l305 0 l0 -99 l-459 0 ZM232 595 l-116 146 l96 0 l77 -66 l77 66 l94 0 l-116 -146 l-112 0 Z" /><glyph glyph-name="florin" unicode="&#x192;" d="M97 -5 q-36 0 -56 5 l0 99 q17 -4 40 -4 q32 0 49 16 q17 16 24 52 l35 193 l-80 0 l0 101 l97 0 l18 93 q15 78 55.5 116.5 q40.5 38.5 119.5 38.5 q55 0 92 -12 l0 -100 q-40 10 -69 10 q-35 0 -54.5 -18.5 q-19.5 -18.5 -26.5 -59.5 l-12 -68 l127 0 l0 -101 l-145 0 l-38 -211 q-14 -79 -56.5 -114.5 q-42.5 -35.5 -119.5 -35.5 Z" /><glyph glyph-name="circumflex" unicode="&#x2c6;" d="M78 595 l116 146 l112 0 l116 -146 l-96 0 l-77 67 l-77 -67 l-94 0 Z" /><glyph glyph-name="caron" unicode="&#x2c7;" d="M194 595 l-116 146 l96 0 l77 -66 l77 66 l94 0 l-116 -146 l-112 0 Z" /><glyph glyph-name="breve" unicode="&#x2d8;" d="M369.5 632 q-46.5 -39 -119.5 -39 q-73 0 -119.5 39 q-46.5 39 -51.5 109 l83 0 q20 -63 88 -63 q68 0 88 63 l83 0 q-5 -70 -51.5 -109 Z" /><glyph glyph-name="dotaccent" unicode="&#x2d9;" d="M187 595 l0 119 l126 0 l0 -119 l-126 0 Z" /><glyph glyph-name="ring" unicode="&#x2da;" d="M329.5 625.5 q-34.5 -32.5 -79.5 -32.5 q-45 0 -79.5 33 q-34.5 33 -34.5 78 q0 44 34.5 76.5 q34.5 32.5 79.5 32.5 q45 0 79.5 -33 q34.5 -33 34.5 -78 q0 -44 -34.5 -76.5 ZM250 641 q26 0 44 18.5 q18 18.5 18 44.5 q0 25 -18.5 43 q-18.5 18 -43.5 18 q-26 0 -44 -18.5 q-18 -18.5 -18 -44.5 q0 -25 18.5 -43 q18.5 -18 43.5 -18 Z" /><glyph glyph-name="ogonek" unicode="&#x2db;" d="M366 -164 q-91 -6 -140.5 23 q-49.5 29 -49.5 85 q0 30 15 66 l86 0 q-6 -22 -6 -44 q0 -68 95 -74 l0 -56 Z" /><glyph glyph-name="tilde" unicode="&#x2dc;" d="M128 585 l-67 20 q17 64 42.5 94.5 q25.5 30.5 69.5 30.5 q30 0 79 -20 q49 -20 65 -20 q21 0 32 11 q11 11 23 39 l67 -21 q-17 -64 -42.5 -94 q-25.5 -30 -69.5 -30 q-30 0 -79 20 q-49 20 -65 20 q-21 0 -32 -11 q-11 -11 -23 -39 Z" /><glyph glyph-name="hungarumlaut" unicode="&#x2dd;" d="M238 595 l106 164 l106 -49 l-122 -115 l-90 0 ZM56 595 l104 164 l106 -49 l-120 -115 l-90 0 Z" /><glyph glyph-name="Omega" unicode="&#x3a9;" d="M68 0 l0 100 l182 0 l0 48 q-86 23 -134 95.5 q-48 72.5 -48 164.5 q0 135 94.5 218.5 q94.5 83.5 232.5 83.5 q135 0 228 -83 q93 -83 93 -218 q0 -92 -47.5 -165.5 q-47.5 -73.5 -133.5 -95.5 l0 -48 l181 0 l0 -100 l-273 0 l0 200 q74 14 112.5 68 q38.5 54 38.5 131 q0 88 -56 147 q-56 59 -144 59 q-89 0 -145.5 -60 q-56.5 -60 -56.5 -148 q0 -76 39 -130.5 q39 -54.5 111 -66.5 l0 -200 l-274 0 Z" /><glyph glyph-name="pi" unicode="&#x3c0;" d="M0 0 l0 700 l500 0 l0 -700 l-500 0 ZM81 49 l339 0 l-170 255 l-169 -255 ZM49 96 l171 254 l-171 254 l0 -508 ZM450 96 l0 508 l-171 -254 l171 -254 ZM250 395 l170 255 l-339 0 l169 -255 Z" /><glyph glyph-name="afii10023" unicode="&#x401;" d="M387 758 l0 118 l123 0 l0 -118 l-123 0 ZM188 758 l0 118 l123 0 l0 -118 l-123 0 ZM90 0 l0 700 l519 0 l0 -110 l-396 0 l0 -182 l351 0 l0 -110 l-351 0 l0 -188 l401 0 l0 -110 l-524 0 Z" /><glyph glyph-name="afii10051" unicode="&#x402;" d="M564 -16 q-54 0 -106 18 l23 108 q27 -9 58 -9 q59 0 97 29 q38 29 38 93 q0 57 -36.5 88 q-36.5 31 -100.5 31 q-103 0 -179 -68 l0 -274 l-123 0 l0 589 l-197 0 l0 111 l577 0 l0 -111 l-257 0 l0 -196 q94 67 206 67 q106 0 171.5 -62 q65.5 -62 65.5 -172 q0 -117 -65 -179.5 q-65 -62.5 -172 -62.5 Z" /><glyph glyph-name="afii10052" unicode="&#x403;" d="M233 758 l106 164 l110 -49 l-122 -115 l-94 0 ZM90 0 l0 700 l471 0 l0 -111 l-349 0 l0 -589 l-122 0 Z" /><glyph glyph-name="afii10053" unicode="&#x404;" d="M414 -12 q-152 0 -253.5 104.5 q-101.5 104.5 -101.5 257.5 q0 151 102 256.5 q102 105.5 258 105.5 q88 0 149.5 -28.5 q61.5 -28.5 118.5 -81.5 l-70 -84 q-93 83 -199 83 q-86 0 -148.5 -55 q-62.5 -55 -78.5 -141 l314 0 l0 -105 l-315 0 q14 -88 77.5 -145 q63.5 -57 150.5 -57 q62 0 108.5 22.5 q46.5 22.5 96.5 68.5 l79 -81 q-57 -60 -125 -90 q-68 -30 -163 -30 Z" /><glyph glyph-name="afii10054" unicode="&#x405;" d="M335 -10 q-167 0 -292 112 l74 88 q105 -91 221 -91 q57 0 90.5 24.5 q33.5 24.5 33.5 65.5 q0 39 -32 62.5 q-32 23.5 -126 45.5 q-122 29 -177.5 73.5 q-55.5 44.5 -55.5 136.5 q0 90 67 146.5 q67 56.5 172 56.5 q144 0 254 -88 l-66 -93 q-97 72 -190 72 q-53 0 -83.5 -24 q-30.5 -24 -30.5 -61 q0 -41 33.5 -63.5 q33.5 -22.5 132.5 -46.5 q116 -28 170.5 -75 q54.5 -47 54.5 -132 q0 -97 -69 -153 q-69 -56 -181 -56 Z" /><glyph glyph-name="afii10055" unicode="&#x406;" d="M97 0 l0 700 l123 0 l0 -700 l-123 0 Z" /><glyph glyph-name="afii10056" unicode="&#x407;" d="M197 758 l0 118 l123 0 l0 -118 l-123 0 ZM-2 758 l0 118 l123 0 l0 -118 l-123 0 ZM97 0 l0 700 l123 0 l0 -700 l-123 0 Z" /><glyph glyph-name="afii10057" unicode="&#x408;" d="M245 -10 q-141 0 -224 113 l81 83 q65 -82 141 -82 q51 0 81 34.5 q30 34.5 30 102.5 l0 459 l126 0 l0 -462 q0 -121 -65 -186 q-62 -62 -170 -62 Z" /><glyph glyph-name="afii10058" unicode="&#x409;" d="M90 -8 q-43 0 -85 11 l12 101 q18 -6 40 -6 q24 0 41.5 7.5 q17.5 7.5 37 35.5 q19.5 28 31 76.5 q11.5 48.5 19.5 135.5 q8 87 8 209 l0 138 l476 0 l0 -252 l161 0 q120 0 191 -57.5 q71 -57.5 71 -161.5 q0 -106 -71 -167.5 q-71 -61.5 -192 -61.5 l-283 0 l0 589 l-238 0 l0 -63 q0 -161 -14 -268 q-14 -107 -44 -164 q-30 -57 -68 -79.5 q-38 -22.5 -93 -22.5 ZM670 110 l158 0 q69 0 106 30.5 q37 30.5 37 89.5 q0 54 -38 82.5 q-38 28.5 -108 28.5 l-155 0 l0 -231 Z" /><glyph glyph-name="afii10059" unicode="&#x40a;" d="M90 0 l0 700 l122 0 l0 -274 l334 0 l0 274 l123 0 l0 -274 l175 0 q114 0 181 -55 q67 -55 67 -154 q0 -102 -67.5 -159.5 q-67.5 -57.5 -186.5 -57.5 l-292 0 l0 321 l-334 0 l0 -321 l-122 0 ZM669 110 l164 0 q136 0 136 111 q0 102 -138 102 l-162 0 l0 -213 Z" /><glyph glyph-name="afii10060" unicode="&#x40b;" d="M236 0 l0 589 l-198 0 l0 111 l577 0 l0 -111 l-257 0 l0 -200 q96 67 206 67 q106 0 171.5 -56.5 q65.5 -56.5 65.5 -158.5 l0 -241 l-122 0 l0 196 q0 67 -36 104.5 q-36 37.5 -101 37.5 q-107 0 -184 -70 l0 -268 l-122 0 Z" /><glyph glyph-name="afii10061" unicode="&#x40c;" d="M306 758 l106 164 l110 -49 l-122 -115 l-94 0 ZM90 0 l0 700 l123 0 l0 -352 l333 352 l151 0 l-291 -301 l304 -399 l-149 0 l-239 315 l-109 -112 l0 -203 l-123 0 Z" /><glyph glyph-name="afii10062" unicode="&#x40e;" d="M485 792.5 q-42 -37.5 -105 -37.5 q-63 0 -105 37.5 q-42 37.5 -53 102.5 l75 14 q19 -68 83 -68 q62 0 83 68 l74 -14 q-10 -65 -52 -102.5 ZM211 -11 q-72 0 -137 35 l47 92 q39 -22 86 -22 q63 0 110 76 l-292 530 l138 0 l218 -407 l192 407 l133 0 l-273 -547 q-81 -164 -222 -164 Z" /><glyph glyph-name="afii10145" unicode="&#x40f;" d="M316 -150 l0 150 l-227 0 l0 700 l122 0 l0 -589 l327 0 l0 589 l122 0 l0 -700 l-225 0 l0 -150 l-119 0 Z" /><glyph glyph-name="afii10017" unicode="&#x410;" d="M30 0 l308 705 l114 0 l308 -705 l-130 0 l-71 169 l-331 0 l-72 -169 l-126 0 ZM273 278 l241 0 l-121 280 l-120 -280 Z" /><glyph glyph-name="afii10018" unicode="&#x411;" d="M90 0 l0 700 l522 0 l0 -111 l-400 0 l0 -161 l195 0 q117 0 185.5 -56 q68.5 -56 68.5 -156 q0 -104 -69 -160 q-69 -56 -191 -56 l-311 0 ZM212 110 l162 0 q84 0 124 24.5 q40 24.5 40 86.5 q0 103 -142 103 l-184 0 l0 -214 Z" /><glyph glyph-name="afii10019" unicode="&#x412;" d="M90 0 l0 700 l314 0 q121 0 183 -62 q47 -47 47 -118 q0 -104 -100 -156 q139 -47 139 -172 q0 -92 -70 -142 q-70 -50 -189 -50 l-324 0 ZM211 405 l168 0 q61 0 96.5 24.5 q35.5 24.5 35.5 72.5 q0 42 -32 65.5 q-32 23.5 -91 23.5 l-177 0 l0 -186 ZM211 109 l204 0 q64 0 99.5 25 q35.5 25 35.5 73 q0 94 -144 94 l-195 0 l0 -192 Z" /><glyph glyph-name="afii10020" unicode="&#x413;" d="M90 0 l0 700 l471 0 l0 -111 l-349 0 l0 -589 l-122 0 Z" /><glyph glyph-name="afii10021" unicode="&#x414;" d="M10 -150 l0 260 l68 0 q89 176 89 491 l0 99 l488 0 l0 -590 l87 0 l-17 -260 l-102 0 l0 150 l-493 0 l-12 -150 l-108 0 ZM209 110 l323 0 l0 479 l-247 0 l0 -80 q0 -245 -76 -399 Z" /><glyph glyph-name="afii10022" unicode="&#x415;" d="M90 0 l0 700 l519 0 l0 -110 l-396 0 l0 -182 l351 0 l0 -110 l-351 0 l0 -188 l401 0 l0 -110 l-524 0 Z" /><glyph glyph-name="afii10024" unicode="&#x416;" d="M604 0 l-122 0 l0 186 l-110 125 l-209 -311 l-148 0 l276 402 l-262 298 l147 0 l306 -364 l0 364 l122 0 l0 -364 l306 364 l147 0 l-263 -298 l277 -402 l-148 0 l-209 311 l-110 -125 l0 -186 Z" /><glyph glyph-name="afii10025" unicode="&#x417;" d="M328 712 q108 0 177 -53 q69 -53 69 -135 q0 -113 -119 -163 q63 -19 100 -61 q37 -42 37 -107 q0 -89 -71 -147 q-71 -58 -186 -58 q-99 0 -170.5 28.5 q-71.5 28.5 -132.5 86.5 l67 85 q98 -93 233 -93 q58 0 97.5 28.5 q39.5 28.5 39.5 76.5 q0 52 -44 77 q-44 25 -116 25 l-79 0 l0 102 l78 0 q68 0 106 26.5 q38 26.5 38 75.5 q0 44 -36.5 71 q-36.5 27 -95.5 27 q-115 0 -196 -78 l-66 80 q111 106 270 106 Z" /><glyph glyph-name="afii10026" unicode="&#x418;" d="M90 0 l0 700 l121 0 l0 -511 l354 511 l115 0 l0 -700 l-121 0 l0 510 l-353 -510 l-116 0 Z" /><glyph glyph-name="afii10027" unicode="&#x419;" d="M494 792.5 q-42 -37.5 -105 -37.5 q-63 0 -105 37.5 q-42 37.5 -53 102.5 l75 14 q19 -68 83 -68 q62 0 83 68 l74 -14 q-10 -65 -52 -102.5 ZM90 0 l0 700 l121 0 l0 -511 l354 511 l115 0 l0 -700 l-121 0 l0 510 l-353 -510 l-116 0 Z" /><glyph glyph-name="afii10028" unicode="&#x41a;" d="M90 0 l0 700 l123 0 l0 -352 l333 352 l151 0 l-291 -301 l304 -399 l-149 0 l-239 315 l-109 -112 l0 -203 l-123 0 Z" /><glyph glyph-name="afii10029" unicode="&#x41b;" d="M90 -8 q-43 0 -85 11 l12 101 q18 -6 40 -6 q24 0 41.5 7.5 q17.5 7.5 37 35.5 q19.5 28 31 76.5 q11.5 48.5 19.5 135.5 q8 87 8 209 l0 138 l480 0 l0 -700 l-123 0 l0 589 l-242 0 l0 -63 q0 -163 -14 -270.5 q-14 -107.5 -44 -164 q-30 -56.5 -67.5 -78 q-37.5 -21.5 -93.5 -21.5 Z" /><glyph glyph-name="afii10030" unicode="&#x41c;" d="M90 0 l0 700 l131 0 l213 -331 l213 331 l131 0 l0 -700 l-123 0 l0 502 l-221 -330 l-4 0 l-219 328 l0 -500 l-121 0 Z" /><glyph glyph-name="afii10031" unicode="&#x41d;" d="M90 0 l0 700 l123 0 l0 -291 l334 0 l0 291 l123 0 l0 -700 l-123 0 l0 295 l-334 0 l0 -295 l-123 0 Z" /><glyph glyph-name="afii10032" unicode="&#x41e;" d="M687 94 q-104 -106 -263 -106 q-159 0 -262 105 q-103 105 -103 257 q0 150 104 256 q104 106 263 106 q159 0 262 -105 q103 -105 103 -257 q0 -150 -104 -256 ZM255.5 173.5 q67.5 -72.5 170.5 -72.5 q103 0 169.5 72 q66.5 72 66.5 177 q0 104 -67.5 176.5 q-67.5 72.5 -170.5 72.5 q-103 0 -169.5 -72 q-66.5 -72 -66.5 -177 q0 -104 67.5 -176.5 Z" /><glyph glyph-name="afii10033" unicode="&#x41f;" d="M90 0 l0 700 l571 0 l0 -700 l-123 0 l0 589 l-325 0 l0 -589 l-123 0 Z" /><glyph glyph-name="afii10034" unicode="&#x420;" d="M90 0 l0 700 l276 0 q122 0 194 -64 q72 -64 72 -172 q0 -113 -79.5 -176 q-79.5 -63 -200.5 -63 l-139 0 l0 -225 l-123 0 ZM213 336 l143 0 q69 0 110 35 q41 35 41 92 q0 60 -40.5 92.5 q-40.5 32.5 -110.5 32.5 l-143 0 l0 -252 Z" /><glyph glyph-name="afii10035" unicode="&#x421;" d="M415 -12 q-152 0 -254 104.5 q-102 104.5 -102 257.5 q0 152 102 257 q102 105 259 105 q91 0 154.5 -28 q63.5 -28 119.5 -81 l-79 -91 q-94 87 -196 87 q-100 0 -165.5 -72 q-65.5 -72 -65.5 -177 q0 -104 66 -176.5 q66 -72.5 165 -72.5 q60 0 106 22.5 q46 22.5 95 68.5 l79 -80 q-59 -62 -125 -93 q-66 -31 -159 -31 Z" /><glyph glyph-name="afii10036" unicode="&#x422;" d="M262 0 l0 586 l-222 0 l0 114 l568 0 l0 -114 l-222 0 l0 -586 l-124 0 Z" /><glyph glyph-name="afii10037" unicode="&#x423;" d="M211 -11 q-72 0 -137 35 l47 92 q39 -22 86 -22 q63 0 110 76 l-292 530 l138 0 l218 -407 l192 407 l133 0 l-273 -547 q-81 -164 -222 -164 Z" /><glyph glyph-name="afii10038" unicode="&#x424;" d="M397 -27 l0 76 q-162 0 -256 85 q-94 85 -94 222 q0 136 94 219.5 q94 83.5 256 83.5 l0 66 l122 0 l0 -66 q162 0 256 -84 q94 -84 94 -220 q0 -136 -93.5 -221 q-93.5 -85 -256.5 -85 l0 -76 l-122 0 ZM397 158 l0 391 q-104 0 -164 -52 q-60 -52 -60 -143 q0 -92 60 -144 q60 -52 164 -52 ZM519 158 q105 0 164.5 51.5 q59.5 51.5 59.5 144.5 q0 91 -60 143 q-60 52 -164 52 l0 -391 Z" /><glyph glyph-name="afii10039" unicode="&#x425;" d="M37 0 l255 356 l-245 344 l145 0 l174 -251 l175 251 l141 0 l-244 -342 l254 -358 l-145 0 l-184 265 l-185 -265 l-141 0 Z" /><glyph glyph-name="afii10040" unicode="&#x426;" d="M631 -150 l0 150 l-541 0 l0 700 l123 0 l0 -589 l328 0 l0 589 l122 0 l0 -589 l87 0 l-17 -261 l-102 0 Z" /><glyph glyph-name="afii10041" unicode="&#x427;" d="M501 0 l0 277 q-113 -59 -199 -59 q-106 0 -168.5 56.5 q-62.5 56.5 -62.5 166.5 l0 259 l123 0 l0 -228 q0 -67 33 -103.5 q33 -36.5 97 -36.5 q95 0 177 55 l0 313 l123 0 l0 -700 l-123 0 Z" /><glyph glyph-name="afii10042" unicode="&#x428;" d="M90 0 l0 700 l122 0 l0 -590 l275 0 l0 590 l123 0 l0 -590 l275 0 l0 590 l122 0 l0 -700 l-917 0 Z" /><glyph glyph-name="afii10043" unicode="&#x429;" d="M976 -150 l0 150 l-886 0 l0 700 l123 0 l0 -589 l275 0 l0 589 l122 0 l0 -589 l275 0 l0 589 l123 0 l0 -589 l86 0 l-17 -261 l-101 0 Z" /><glyph glyph-name="afii10044" unicode="&#x42a;" d="M210 0 l0 589 l-175 0 l0 111 l297 0 l0 -252 l161 0 q120 0 191.5 -57.5 q71.5 -57.5 71.5 -161.5 q0 -106 -71 -167.5 q-71 -61.5 -193 -61.5 l-282 0 ZM332 110 l158 0 q69 0 106.5 30.5 q37.5 30.5 37.5 89.5 q0 54 -38 82.5 q-38 28.5 -109 28.5 l-155 0 l0 -231 Z" /><glyph glyph-name="afii10045" unicode="&#x42b;" d="M90 0 l0 700 l122 0 l0 -252 l161 0 q120 0 191.5 -57.5 q71.5 -57.5 71.5 -161.5 q0 -106 -71 -167.5 q-71 -61.5 -193 -61.5 l-282 0 ZM212 110 l158 0 q69 0 106.5 30.5 q37.5 30.5 37.5 89.5 q0 54 -38 82.5 q-38 28.5 -108 28.5 l-156 0 l0 -231 ZM719 0 l0 700 l122 0 l0 -700 l-122 0 Z" /><glyph glyph-name="afii10046" unicode="&#x42c;" d="M90 0 l0 700 l122 0 l0 -252 l161 0 q120 0 191.5 -57.5 q71.5 -57.5 71.5 -161.5 q0 -106 -71 -167.5 q-71 -61.5 -193 -61.5 l-282 0 ZM212 110 l158 0 q69 0 106.5 30.5 q37.5 30.5 37.5 89.5 q0 54 -38 82.5 q-38 28.5 -108 28.5 l-156 0 l0 -231 Z" /><glyph glyph-name="afii10047" unicode="&#x42d;" d="M320 -12 q-95 0 -163 30 q-68 30 -125 90 l79 81 q50 -46 96.5 -68.5 q46.5 -22.5 108.5 -22.5 q88 0 151 57 q63 57 77 145 l-314 0 l0 105 l313 0 q-16 86 -78.5 141 q-62.5 55 -148.5 55 q-106 0 -199 -83 l-70 84 q56 53 118.5 81.5 q62.5 28.5 149.5 28.5 q156 0 258 -105.5 q102 -105.5 102 -256.5 q0 -153 -101.5 -257.5 q-101.5 -104.5 -253.5 -104.5 Z" /><glyph glyph-name="afii10048" unicode="&#x42e;" d="M661 -12 q-134 0 -225 87 q-91 87 -108 222 l-115 0 l0 -297 l-123 0 l0 700 l123 0 l0 -293 l116 0 q18 132 109.5 218.5 q91.5 86.5 224.5 86.5 q147 0 241.5 -104 q94.5 -104 94.5 -258 q0 -153 -95 -257.5 q-95 -104.5 -243 -104.5 ZM511.5 171.5 q59.5 -72.5 151.5 -72.5 q92 0 151 71.5 q59 71.5 59 179.5 q0 106 -60 178 q-60 72 -152 72 q-92 0 -150.5 -71 q-58.5 -71 -58.5 -179 q0 -106 59.5 -178.5 Z" /><glyph glyph-name="afii10049" unicode="&#x42f;" d="M36 0 l191 263 q-77 21 -122 75.5 q-45 54.5 -45 138.5 q0 102 70 162.5 q70 60.5 191 60.5 l311 0 l0 -700 l-122 0 l0 242 l-155 0 l-174 -242 l-145 0 ZM329 349 l181 0 l0 240 l-179 0 q-69 0 -108 -31.5 q-39 -31.5 -39 -88.5 q0 -55 39.5 -87.5 q39.5 -32.5 105.5 -32.5 Z" /><glyph glyph-name="afii10065" unicode="&#x430;" d="M519 0 l-120 0 l0 65 q-64 -76 -171 -76 q-79 0 -133.5 43.5 q-54.5 43.5 -54.5 121.5 q0 85 59 129 q59 44 155 44 q77 0 146 -22 l0 10 q0 55 -33.5 84 q-33.5 29 -96.5 29 q-72 0 -151 -33 l-33 97 q98 44 201 44 q115 0 173.5 -58 q58.5 -58 58.5 -165 l0 -313 ZM402 191 l0 30 q-54 21 -121 21 q-57 0 -89 -22 q-32 -22 -32 -62 q0 -36 29 -57 q29 -21 73 -21 q61 0 100.5 31 q39.5 31 39.5 80 Z" /><glyph glyph-name="afii10066" unicode="&#x431;" d="M334 93 q67 0 109.5 46.5 q42.5 46.5 42.5 115.5 q0 68 -44.5 115.5 q-44.5 47.5 -109.5 47.5 q-66 0 -108.5 -47 q-42.5 -47 -42.5 -116 q0 -68 44 -115 q44 -47 109 -47 ZM332 -12 q-128 0 -200 81 q-72 81 -72 227 q0 47 2.5 82.5 q2.5 35.5 9.5 77 q7 41.5 21.5 72.5 q14.5 31 37 59.5 q22.5 28.5 58 48 q35.5 19.5 82.5 29.5 l288 60 l20 -97 l-288 -63 q-72 -15 -103 -53.5 q-31 -38.5 -36 -96.5 q24 40 75.5 69.5 q51.5 29.5 127.5 29.5 q103 0 177.5 -74.5 q74.5 -74.5 74.5 -182.5 q0 -111 -78.5 -190 q-78.5 -79 -196.5 -79 Z" /><glyph glyph-name="afii10067" unicode="&#x432;" d="M76 0 l0 528 l271 0 q79 0 126.5 -35.5 q47.5 -35.5 47.5 -96.5 q0 -83 -85 -121 q109 -31 109 -132 q0 -67 -52.5 -105 q-52.5 -38 -142.5 -38 l-274 0 ZM195 96 l137 0 q43 0 66.5 18.5 q23.5 18.5 23.5 49.5 q0 30 -24.5 47 q-24.5 17 -71.5 17 l-131 0 l0 -132 ZM195 310 l124 0 q37 0 58 18 q21 18 21 47 q0 27 -19 43.5 q-19 16.5 -58 16.5 l-126 0 l0 -125 Z" /><glyph glyph-name="afii10068" unicode="&#x433;" d="M76 0 l0 528 l374 0 l0 -104 l-253 0 l0 -424 l-121 0 Z" /><glyph glyph-name="afii10069" unicode="&#x434;" d="M15 -127 l0 231 l57 0 q59 118 59 359 l0 65 l409 0 l0 -424 l75 0 l-16 -231 l-101 0 l0 127 l-370 0 l-12 -127 l-101 0 ZM196 104 l223 0 l0 320 l-174 0 l0 -70 q0 -147 -49 -250 Z" /><glyph glyph-name="afii10070" unicode="&#x435;" d="M318 -12 q-116 0 -193.5 77 q-77.5 77 -77.5 199 q0 115 73 195 q73 80 185 80 q120 0 186.5 -81.5 q66.5 -81.5 66.5 -202.5 q0 -22 -2 -34 l-388 0 q10 -63 51 -98.5 q41 -35.5 101 -35.5 q78 0 143 63 l71 -63 q-82 -99 -216 -99 ZM167 301 l271 0 q-6 61 -41 100 q-35 39 -93 39 q-55 0 -92 -38.5 q-37 -38.5 -45 -100.5 Z" /><glyph glyph-name="afii10072" unicode="&#x436;" d="M9 0 l207 306 l-199 222 l141 0 l219 -259 l0 259 l121 0 l0 -259 l220 259 l141 0 l-199 -222 l206 -306 l-136 0 l-151 225 l-81 -92 l0 -133 l-121 0 l0 133 l-81 92 l-151 -225 l-136 0 Z" /><glyph glyph-name="afii10073" unicode="&#x437;" d="M256 -12 q-136 0 -231 81 l57 80 q74 -63 166 -63 q42 0 71 20.5 q29 20.5 29 52.5 q0 30 -28 48 q-28 18 -79 18 l-65 0 l0 87 l65 0 q42 0 67.5 19.5 q25.5 19.5 25.5 49.5 q0 27 -24.5 43.5 q-24.5 16.5 -62.5 16.5 q-88 0 -150 -54 l-54 76 q87 76 215 76 q87 0 142 -40 q55 -40 55 -102 q0 -84 -83 -120 q96 -34 96 -128 q0 -68 -59 -114.5 q-59 -46.5 -153 -46.5 Z" /><glyph glyph-name="afii10074" unicode="&#x438;" d="M76 0 l0 528 l118 0 l0 -354 q166 236 250 354 l114 0 l0 -528 l-117 0 l0 352 l-251 -352 l-114 0 Z" /><glyph glyph-name="afii10075" unicode="&#x439;" d="M422.5 626.5 q-41.5 -37.5 -104.5 -37.5 q-63 0 -105 37.5 q-42 37.5 -52 101.5 l74 14 q21 -68 83 -68 q62 0 83 68 l73 -14 q-10 -64 -51.5 -101.5 ZM76 0 l0 528 l118 0 l0 -354 q166 236 250 354 l114 0 l0 -528 l-117 0 l0 352 l-251 -352 l-114 0 Z" /><glyph glyph-name="afii10076" unicode="&#x43a;" d="M76 0 l0 528 l120 0 l0 -253 l230 253 l142 0 l-205 -222 l222 -306 l-143 0 l-160 218 l-86 -91 l0 -127 l-120 0 Z" /><glyph glyph-name="afii10077" unicode="&#x43b;" d="M72 -6 q-29 0 -71 7 l9 99 q16 -4 35 -4 q21 0 34.5 6 q13.5 6 28 30.5 q14.5 24.5 22.5 69.5 q8 45 13 126.5 q5 81.5 5 199.5 l399 0 l0 -528 l-121 0 l0 424 l-165 0 q0 -113 -9 -192 q-9 -79 -23.5 -125 q-14.5 -46 -40 -71.5 q-25.5 -25.5 -51.5 -33.5 q-26 -8 -65 -8 Z" /><glyph glyph-name="afii10078" unicode="&#x43c;" d="M76 0 l0 528 l120 0 l165 -245 l166 245 l120 0 l0 -528 l-122 0 l0 352 l-166 -237 l-165 235 l0 -350 l-118 0 Z" /><glyph glyph-name="afii10079" unicode="&#x43d;" d="M76 0 l0 528 l121 0 l0 -214 l233 0 l0 214 l121 0 l0 -528 l-121 0 l0 213 l-233 0 l0 -213 l-121 0 Z" /><glyph glyph-name="afii10080" unicode="&#x43e;" d="M327 -12 q-120 0 -200 80 q-80 80 -80 195 q0 115 81 195.5 q81 80.5 201 80.5 q120 0 200.5 -80 q80.5 -80 80.5 -196 q0 -114 -81 -194.5 q-81 -80.5 -202 -80.5 ZM329 93 q72 0 116 49 q44 49 44 121 q0 71 -46 120.5 q-46 49.5 -116 49.5 q-71 0 -115 -49 q-44 -49 -44 -121 q0 -70 46 -120 q46 -50 115 -50 Z" /><glyph glyph-name="afii10081" unicode="&#x43f;" d="M76 0 l0 528 l471 0 l0 -528 l-121 0 l0 424 l-229 0 l0 -424 l-121 0 Z" /><glyph glyph-name="afii10082" unicode="&#x440;" d="M76 -160 l0 688 l121 0 l0 -88 q70 99 179 99 q100 0 173 -74.5 q73 -74.5 73 -201.5 q0 -125 -73 -199.5 q-73 -74.5 -173 -74.5 q-109 0 -179 93 l0 -242 l-121 0 ZM348 94 q64 0 107.5 47 q43.5 47 43.5 124 q0 75 -44 122 q-44 47 -107 47 q-63 0 -108.5 -48 q-45.5 -48 -45.5 -123 q0 -74 45.5 -121.5 q45.5 -47.5 108.5 -47.5 Z" /><glyph glyph-name="afii10083" unicode="&#x441;" d="M320 -12 q-117 0 -195 79.5 q-78 79.5 -78 193.5 l0 2 q0 114 78.5 195 q78.5 81 195.5 81 q128 0 211 -91 l-75 -81 q-63 66 -137 66 q-65 0 -108.5 -49 q-43.5 -49 -43.5 -119 l0 -2 q0 -72 44.5 -121 q44.5 -49 113.5 -49 q73 0 137 66 l73 -72 q-43 -48 -93.5 -73.5 q-50.5 -25.5 -122.5 -25.5 Z" /><glyph glyph-name="afii10084" unicode="&#x442;" d="M189 0 l0 424 l-170 0 l0 104 l462 0 l0 -104 l-170 0 l0 -424 l-122 0 Z" /><glyph glyph-name="afii10085" unicode="&#x443;" d="M184 -163 q-66 0 -125 32 l41 90 q37 -20 71 -20 q26 0 43 13.5 q17 13.5 32 47.5 l-220 528 l129 0 l150 -392 l137 392 l126 0 l-210 -543 q-32 -81 -71 -114.5 q-39 -33.5 -103 -33.5 Z" /><glyph glyph-name="afii10086" unicode="&#x444;" d="M384 -160 l0 198 q-48 -46 -121 -46 q-96 0 -155 72.5 q-59 72.5 -59 199.5 q0 126 59.5 199 q59.5 73 155.5 73 q69 0 120 -53 l0 217 l121 0 l0 -217 q51 53 120 53 q96 0 155.5 -73.5 q59.5 -73.5 59.5 -199.5 q0 -127 -59 -199 q-59 -72 -155 -72 q-73 0 -121 46 l0 -198 l-121 0 ZM299 93 q45 0 85 35 l0 268 q-40 37 -85 37 q-62 0 -95 -46 q-33 -46 -33 -125 q0 -80 32.5 -124.5 q32.5 -44.5 95.5 -44.5 ZM591 93 q63 0 95 44.5 q32 44.5 32 125.5 q0 78 -32.5 124 q-32.5 46 -94.5 46 q-42 0 -86 -37 l0 -268 q40 -35 86 -35 Z" /><glyph glyph-name="afii10087" unicode="&#x445;" d="M30 0 l194 268 l-187 260 l132 0 l122 -174 l122 174 l129 0 l-187 -257 l195 -271 l-132 0 l-130 185 l-129 -185 l-129 0 Z" /><glyph glyph-name="afii10088" unicode="&#x446;" d="M503 -127 l0 127 l-427 0 l0 528 l120 0 l0 -424 l228 0 l0 424 l120 0 l0 -424 l76 0 l-16 -231 l-101 0 Z" /><glyph glyph-name="afii10089" unicode="&#x447;" d="M397 0 l0 197 q-78 -40 -157 -40 q-81 0 -130.5 43.5 q-49.5 43.5 -49.5 122.5 l0 205 l121 0 l0 -176 q0 -38 24 -65 q24 -27 63 -27 q68 0 129 35 l0 233 l121 0 l0 -528 l-121 0 Z" /><glyph glyph-name="afii10090" unicode="&#x448;" d="M76 0 l0 528 l121 0 l0 -424 l195 0 l0 424 l120 0 l0 -424 l195 0 l0 424 l121 0 l0 -528 l-752 0 Z" /><glyph glyph-name="afii10091" unicode="&#x449;" d="M787 -127 l0 127 l-711 0 l0 528 l121 0 l0 -424 l195 0 l0 424 l120 0 l0 -424 l195 0 l0 424 l121 0 l0 -424 l75 0 l-15 -231 l-101 0 Z" /><glyph glyph-name="afii10092" unicode="&#x44a;" d="M163 0 l0 425 l-146 0 l0 103 l266 0 l0 -185 l122 0 q94 0 152 -42 q58 -42 58 -125 q0 -82 -54 -129 q-54 -47 -148 -47 l-250 0 ZM283 98 l115 0 q95 0 95 78 q0 35 -25 54 q-25 19 -72 19 l-113 0 l0 -151 Z" /><glyph glyph-name="afii10093" unicode="&#x44b;" d="M76 0 l0 528 l121 0 l0 -185 l111 0 q94 0 152 -42 q58 -42 58 -125 q0 -82 -54 -129 q-54 -47 -147 -47 l-241 0 ZM197 98 l104 0 q46 0 71 20 q25 20 25 58 q0 35 -25.5 54 q-25.5 19 -72.5 19 l-102 0 l0 -151 ZM598 0 l0 528 l121 0 l0 -528 l-121 0 Z" /><glyph glyph-name="afii10094" unicode="&#x44c;" d="M76 0 l0 528 l121 0 l0 -185 l121 0 q94 0 152 -42 q58 -42 58 -125 q0 -82 -54 -129 q-54 -47 -147 -47 l-251 0 ZM197 98 l114 0 q46 0 71 20 q25 20 25 58 q0 35 -25.5 54 q-25.5 19 -72.5 19 l-112 0 l0 -151 Z" /><glyph glyph-name="afii10095" unicode="&#x44d;" d="M246 -12 q-133 0 -219 98 l72 71 q66 -68 141 -68 q59 0 102 37.5 q43 37.5 54 94.5 l-207 0 l0 87 l206 0 q-11 55 -52.5 91.5 q-41.5 36.5 -97.5 36.5 q-81 0 -143 -62 l-65 75 q85 89 209 89 q117 0 195 -81 q78 -81 78 -195 q0 -114 -78.5 -194 q-78.5 -80 -194.5 -80 Z" /><glyph glyph-name="afii10096" unicode="&#x44e;" d="M545 -12 q-104 0 -173.5 63.5 q-69.5 63.5 -84.5 162.5 l-91 0 l0 -214 l-120 0 l0 528 l120 0 l0 -214 l91 0 q16 97 86.5 160.5 q70.5 63.5 173.5 63.5 q117 0 190 -79 q73 -79 73 -196 q0 -115 -74 -195 q-74 -80 -191 -80 ZM547 93 q68 0 105.5 48.5 q37.5 48.5 37.5 121.5 q0 72 -39.5 121 q-39.5 49 -105.5 49 q-68 0 -105 -48 q-37 -48 -37 -122 q0 -72 39 -121 q39 -49 105 -49 Z" /><glyph glyph-name="afii10097" unicode="&#x44f;" d="M28 0 l146 198 q-56 17 -89.5 57.5 q-33.5 40.5 -33.5 100.5 q0 78 55 125 q55 47 153 47 l265 0 l0 -528 l-121 0 l0 178 l-108 0 l-125 -178 l-142 0 ZM276 269 l127 0 l0 161 l-128 0 q-48 0 -75.5 -21.5 q-27.5 -21.5 -27.5 -58.5 q0 -38 28.5 -59.5 q28.5 -21.5 75.5 -21.5 Z" /><glyph glyph-name="afii10071" unicode="&#x451;" d="M339 595 l0 118 l123 0 l0 -118 l-123 0 ZM140 595 l0 118 l123 0 l0 -118 l-123 0 ZM318 -12 q-116 0 -193.5 77 q-77.5 77 -77.5 199 q0 115 73 195 q73 80 185 80 q120 0 186.5 -81.5 q66.5 -81.5 66.5 -202.5 q0 -22 -2 -34 l-388 0 q10 -63 51 -98.5 q41 -35.5 101 -35.5 q78 0 143 63 l71 -63 q-82 -99 -216 -99 ZM167 301 l271 0 q-6 61 -41 100 q-35 39 -93 39 q-55 0 -92 -38.5 q-37 -38.5 -45 -100.5 Z" /><glyph glyph-name="afii10099" unicode="&#x452;" d="M357 -9 q-51 0 -105 18 l21 95 q19 -8 43 -8 q51 0 83 35.5 q32 35.5 32 95.5 l0 45 q0 61 -30 95 q-30 34 -84 34 q-54 0 -87.5 -35.5 q-33.5 -35.5 -33.5 -96.5 l0 -269 l-121 0 l0 559 l-72 0 l0 88 l72 0 l0 83 l121 0 l0 -83 l180 0 l0 -88 l-180 0 l0 -142 q66 94 166 94 q89 0 139.5 -55 q50.5 -55 50.5 -148 l0 -115 q0 -93 -53 -147.5 q-53 -54.5 -142 -54.5 Z" /><glyph glyph-name="afii10100" unicode="&#x453;" d="M180 595 l106 164 l110 -49 l-122 -115 l-94 0 ZM76 0 l0 528 l374 0 l0 -104 l-253 0 l0 -424 l-121 0 Z" /><glyph glyph-name="afii10101" unicode="&#x454;" d="M320 -12 q-116 0 -194.5 80 q-78.5 80 -78.5 194 q0 114 78 195 q78 81 195 81 q124 0 209 -89 l-65 -75 q-62 62 -143 62 q-56 0 -98 -36.5 q-42 -36.5 -53 -91.5 l207 0 l0 -87 l-208 0 q12 -58 55 -95 q43 -37 102 -37 q75 0 141 68 l72 -71 q-86 -98 -219 -98 Z" /><glyph glyph-name="afii10102" unicode="&#x455;" d="M257 -10 q-124 0 -224 79 l54 82 q86 -65 173 -65 q39 0 60.5 15.5 q21.5 15.5 21.5 43.5 q0 14 -7.5 24.5 q-7.5 10.5 -26.5 19.5 q-19 9 -32 13 q-13 4 -43 13 l-9 3 q-28 8 -47.5 15.5 q-19.5 7.5 -43.5 20.5 q-24 13 -39 28.5 q-15 15.5 -25 39.5 q-10 24 -10 54 q0 73 53.5 117 q53.5 44 134.5 44 q103 0 194 -60 l-48 -86 q-82 50 -149 50 q-35 0 -54.5 -15 q-19.5 -15 -19.5 -40 q0 -17 17.5 -31 q17.5 -14 35 -20.5 q17.5 -6.5 56.5 -19.5 q2 -1 5 -2 q3 -1 5 -1 q35 -11 59 -21.5 q24 -10.5 50.5 -28.5 q26.5 -18 40.5 -44.5 q14 -26.5 14 -61.5 q0 -80 -55 -123 q-55 -43 -141 -43 Z" /><glyph glyph-name="afii10103" unicode="&#x456;" d="M78 609 l0 115 l130 0 l0 -115 l-130 0 ZM83 0 l0 528 l121 0 l0 -528 l-121 0 Z" /><glyph glyph-name="afii10104" unicode="&#x457;" d="M182 595 l0 118 l123 0 l0 -118 l-123 0 ZM-17 595 l0 118 l123 0 l0 -118 l-123 0 ZM83 0 l0 528 l121 0 l0 -528 l-121 0 Z" /><glyph glyph-name="afii10105" unicode="&#x458;" d="M78 609 l0 115 l130 0 l0 -115 l-130 0 ZM50 -163 q-26 0 -58 5 l0 97 q18 -3 34 -3 q57 0 57 64 l0 528 l121 0 l0 -535 q0 -156 -154 -156 Z" /><glyph glyph-name="afii10106" unicode="&#x459;" d="M72 -6 q-34 0 -71 7 l9 99 q16 -4 35 -4 q27 0 43 12.5 q16 12.5 31.5 54.5 q15.5 42 22 131.5 q6.5 89.5 6.5 233.5 l399 0 l0 -185 l121 0 q94 0 152 -42 q58 -42 58 -125 q0 -82 -54 -129 q-54 -47 -147 -47 l-251 0 l0 424 l-165 0 q0 -113 -9 -192 q-9 -79 -23.5 -125 q-14.5 -46 -40 -71.5 q-25.5 -25.5 -51.5 -33.5 q-26 -8 -65 -8 ZM547 98 l114 0 q46 0 71 20 q25 20 25 58 q0 35 -25.5 54 q-25.5 19 -72.5 19 l-112 0 l0 -151 Z" /><glyph glyph-name="afii10107" unicode="&#x45a;" d="M75 0 l0 528 l121 0 l0 -191 l233 0 l0 191 l121 0 l0 -191 l122 0 q94 0 151.5 -41.5 q57.5 -41.5 57.5 -124.5 q0 -81 -53.5 -126 q-53.5 -45 -147.5 -45 l-251 0 l0 242 l-233 0 l0 -242 l-121 0 ZM550 98 l115 0 q95 0 95 74 q0 71 -97 71 l-113 0 l0 -145 Z" /><glyph glyph-name="afii10108" unicode="&#x45b;" d="M75 0 l0 559 l-72 0 l0 88 l72 0 l0 83 l121 0 l0 -83 l180 0 l0 -88 l-180 0 l0 -141 q63 93 165 93 q88 0 138.5 -55 q50.5 -55 50.5 -148 l0 -308 l-121 0 l0 272 q0 62 -29.5 95.5 q-29.5 33.5 -83.5 33.5 q-54 0 -87 -35 q-33 -35 -33 -96 l0 -270 l-121 0 Z" /><glyph glyph-name="afii10109" unicode="&#x45c;" d="M241 595 l106 164 l110 -49 l-122 -115 l-94 0 ZM76 0 l0 528 l120 0 l0 -253 l230 253 l142 0 l-205 -222 l222 -306 l-143 0 l-160 218 l-86 -91 l0 -127 l-120 0 Z" /><glyph glyph-name="afii10110" unicode="&#x45e;" d="M408.5 626.5 q-41.5 -37.5 -104.5 -37.5 q-63 0 -105 37.5 q-42 37.5 -52 101.5 l74 14 q21 -68 83 -68 q62 0 83 68 l73 -14 q-10 -64 -51.5 -101.5 ZM184 -163 q-66 0 -125 32 l41 90 q37 -20 71 -20 q26 0 43 13.5 q17 13.5 32 47.5 l-220 528 l129 0 l150 -392 l137 392 l126 0 l-210 -543 q-32 -81 -71 -114.5 q-39 -33.5 -103 -33.5 Z" /><glyph glyph-name="afii10193" unicode="&#x45f;" d="M256 -127 l0 127 l-180 0 l0 528 l120 0 l0 -424 l231 0 l0 424 l120 0 l0 -528 l-176 0 l0 -127 l-115 0 Z" /><glyph glyph-name="afii10050" unicode="&#x490;" d="M90 0 l0 700 l351 0 l0 150 l103 0 l17 -261 l-349 0 l0 -589 l-122 0 Z" /><glyph glyph-name="afii10098" unicode="&#x491;" d="M76 0 l0 528 l258 0 l0 127 l101 0 l15 -231 l-253 0 l0 -424 l-121 0 Z" /><glyph glyph-name="endash" unicode="&#x2013;" d="M56 249 l0 115 l416 0 l0 -115 l-416 0 Z" /><glyph glyph-name="emdash" unicode="&#x2014;" d="M56 249 l0 115 l786 0 l0 -115 l-786 0 Z" /><glyph glyph-name="quoteleft" unicode="&#x2018;" d="M63 422 l0 117 q0 81 38 120.5 q38 39.5 116 45.5 l13 -52 q-86 -15 -86 -82 q0 -2 0.5 -5.5 q0.5 -3.5 0.5 -5.5 l51 0 l0 -138 l-133 0 Z" /><glyph glyph-name="quoteright" unicode="&#x2019;" d="M52 417 l-13 52 q86 15 86 83 q0 2 -0.5 5.5 q-0.5 3.5 -0.5 5.5 l-51 0 l0 137 l133 0 l0 -117 q0 -81 -38 -120.5 q-38 -39.5 -116 -45.5 Z" /><glyph glyph-name="quotesinglbase" unicode="&#x201a;" d="M47 -145 l-13 51 q92 18 85 94 l-51 0 l0 137 l133 0 l0 -116 q0 -81 -38 -120.5 q-38 -39.5 -116 -45.5 Z" /><glyph glyph-name="quotedblleft" unicode="&#x201c;" d="M295 422 l0 117 q0 81 38 120.5 q38 39.5 116 45.5 l13 -52 q-86 -15 -86 -84 l0 -9 l52 0 l0 -138 l-133 0 ZM63 422 l0 117 q0 81 38 120.5 q38 39.5 116 45.5 l13 -52 q-86 -15 -86 -82 q0 -2 0.5 -5.5 q0.5 -3.5 0.5 -5.5 l51 0 l0 -138 l-133 0 Z" /><glyph glyph-name="quotedblright" unicode="&#x201d;" d="M284 417 l-13 52 q86 15 86 83 q0 2 -0.5 5.5 q-0.5 3.5 -0.5 5.5 l-51 0 l0 137 l133 0 l0 -117 q0 -81 -38 -120.5 q-38 -39.5 -116 -45.5 ZM52 417 l-13 52 q86 15 86 83 q0 2 -0.5 5.5 q-0.5 3.5 -0.5 5.5 l-51 0 l0 137 l133 0 l0 -117 q0 -81 -38 -120.5 q-38 -39.5 -116 -45.5 Z" /><glyph glyph-name="quotedblbase" unicode="&#x201e;" d="M279 -145 l-13 51 q86 17 86 83 q0 2 -0.5 5.5 q-0.5 3.5 -0.5 5.5 l-51 0 l0 137 l133 0 l0 -116 q0 -81 -38 -120.5 q-38 -39.5 -116 -45.5 ZM47 -145 l-13 51 q86 17 86 83 q0 2 -0.5 5.5 q-0.5 3.5 -0.5 5.5 l-51 0 l0 137 l133 0 l0 -116 q0 -81 -38 -120.5 q-38 -39.5 -116 -45.5 Z" /><glyph glyph-name="dagger" unicode="&#x2020;" d="M169 238 l9 275 l-122 -9 l0 71 l121 -9 l-12 134 l80 0 l-12 -134 l121 9 l0 -71 l-122 9 l9 -275 l-72 0 Z" /><glyph glyph-name="daggerdbl" unicode="&#x2021;" d="M175 0 l12 134 l-121 -9 l0 71 l121 -9 l-8 163 l8 163 l-121 -9 l0 71 l121 -9 l-12 134 l80 0 l-12 -134 l121 9 l0 -71 l-121 9 l8 -163 l-8 -163 l121 9 l0 -71 l-121 9 l12 -134 l-80 0 Z" /><glyph glyph-name="bullet" unicode="&#x2022;" d="M245 211 q-58 0 -99.5 41 q-41.5 41 -41.5 101 q0 58 42 99 q42 41 99 41 q58 0 100 -41.5 q42 -41.5 42 -100.5 q0 -58 -41.5 -99 q-41.5 -41 -100.5 -41 Z" /><glyph glyph-name="ellipsis" unicode="&#x2026;" d="M594 0 l0 134 l130 0 l0 -134 l-130 0 ZM331 0 l0 134 l130 0 l0 -134 l-130 0 ZM68 0 l0 134 l130 0 l0 -134 l-130 0 Z" /><glyph glyph-name="perthousand" unicode="&#x2030;" d="M212 350 q-72 0 -118 52 q-46 52 -46 127 q0 74 46.5 126.5 q46.5 52.5 119.5 52.5 q72 0 118 -52 q46 -52 46 -127 q0 -74 -46.5 -126.5 q-46.5 -52.5 -119.5 -52.5 ZM119 0 l512 700 l99 0 l-512 -700 l-99 0 ZM1133.5 44.5 q-46.5 -52.5 -119.5 -52.5 q-73 0 -118.5 52 q-45.5 52 -45.5 127 q0 75 46.5 127 q46.5 52 119.5 52 q72 0 118 -52 q46 -52 46 -127 q0 -74 -46.5 -126.5 ZM635 -8 q-72 0 -118 52 q-46 52 -46 127 q0 74 46.5 126.5 q46.5 52.5 119.5 52.5 q72 0 118 -52 q46 -52 46 -127 q0 -74 -46.5 -126.5 q-46.5 -52.5 -119.5 -52.5 ZM214 427 q34 0 54.5 29.5 q20.5 29.5 20.5 72.5 q0 43 -22 72.5 q-22 29.5 -55 29.5 q-34 0 -54.5 -29.5 q-20.5 -29.5 -20.5 -72.5 q0 -43 22 -72.5 q22 -29.5 55 -29.5 ZM1016 69 q34 0 54.5 29.5 q20.5 29.5 20.5 72.5 q0 43 -22 72.5 q-22 29.5 -55 29.5 q-34 0 -54.5 -29.5 q-20.5 -29.5 -20.5 -72.5 q0 -43 22 -72.5 q22 -29.5 55 -29.5 ZM637 69 q34 0 54.5 29.5 q20.5 29.5 20.5 72.5 q0 43 -22 72.5 q-22 29.5 -55 29.5 q-34 0 -54.5 -29.5 q-20.5 -29.5 -20.5 -72.5 q0 -43 22 -72.5 q22 -29.5 55 -29.5 Z" /><glyph glyph-name="guilsinglleft" unicode="&#x2039;" d="M210 41 l-166 219 l0 8 l166 220 l92 -47 l-132 -176 l132 -177 l-92 -47 Z" /><glyph glyph-name="guilsinglright" unicode="&#x203a;" d="M145 41 l-92 46 l132 176 l-132 177 l92 48 l165 -220 l0 -8 l-165 -219 Z" /><glyph glyph-name="fraction" unicode="&#x2044;" d="M-70 -98 l467 856 l110 0 l-467 -856 l-110 0 Z" /><glyph glyph-name="Euro" unicode="&#x20ac;" d="M434 -12 q-109 0 -185.5 64.5 q-76.5 64.5 -105.5 172.5 l-91 0 l0 85 l77 0 q-1 13 -1 40 q0 31 2 45 l-78 0 l0 85 l94 0 q31 104 106 168 q75 64 178 64 q85 0 142.5 -34.5 q57.5 -34.5 101.5 -97.5 l-93 -69 q-34 47 -69 69 q-35 22 -85 22 q-52 0 -92.5 -32.5 q-40.5 -32.5 -61.5 -89.5 l215 0 l0 -85 l-234 0 q-2 -26 -2 -45 q0 -14 2 -40 l234 0 l0 -85 l-216 0 q21 -59 63 -93 q42 -34 100 -34 q47 0 81 23 q34 23 72 72 l88 -64 q-47 -68 -104.5 -104.5 q-57.5 -36.5 -137.5 -36.5 Z" /><glyph glyph-name="afii61352" unicode="&#x2116;" d="M78 0 l0 700 l117 0 l314 -480 l0 480 l125 0 l0 -700 l-107 0 l-324 492 l0 -492 l-125 0 ZM718 140 l0 76 l261 0 l0 -76 l-261 0 ZM954 318 q-42 -43 -105 -43 q-63 0 -104.5 42.5 q-41.5 42.5 -41.5 104.5 q0 62 42 105 q42 43 105 43 q63 0 104.5 -42.5 q41.5 -42.5 41.5 -104.5 q0 -62 -42 -105 ZM799 365.5 q20 -23.5 51 -23.5 q31 0 50 23 q19 23 19 57 q0 34 -20 57 q-20 23 -50 23 q-32 0 -51 -23 q-19 -23 -19 -57 q0 -33 20 -56.5 Z" /><glyph glyph-name="published" unicode="&#x2117;" d="M671 94.5 q-106 -106.5 -257 -106.5 q-151 0 -256 106 q-105 106 -105 256 q0 149 106 255.5 q106 106.5 257 106.5 q151 0 256 -106 q105 -106 105 -256 q0 -149 -106 -255.5 ZM414 24 q138 0 231.5 95.5 q93.5 95.5 93.5 232.5 q0 135 -93 229.5 q-93 94.5 -230 94.5 q-138 0 -231.5 -95.5 q-93.5 -95.5 -93.5 -232.5 q0 -135 93 -229.5 q93 -94.5 230 -94.5 ZM286 167 l0 380 l153 0 q68 0 107.5 -35 q39.5 -35 39.5 -95 q0 -62 -44.5 -96 q-44.5 -34 -110.5 -34 l-71 0 l0 -120 l-74 0 ZM360 352 l73 0 q36 0 57 18 q21 18 21 48 q0 30 -20.5 46.5 q-20.5 16.5 -57.5 16.5 l-73 0 l0 -129 Z" /><glyph glyph-name="trademark" unicode="&#x2122;" d="M341 392 l0 308 l63 0 l93 -146 l93 146 l61 0 l0 -308 l-57 0 l0 219 l-95 -148 l-6 0 l-95 148 l0 -219 l-57 0 ZM121 392 l0 254 l-95 0 l0 54 l249 0 l0 -54 l-95 0 l0 -254 l-59 0 Z" /><glyph glyph-name="partialdiff" unicode="&#x2202;" d="M0 0 l0 700 l500 0 l0 -700 l-500 0 ZM81 49 l339 0 l-170 255 l-169 -255 ZM49 96 l171 254 l-171 254 l0 -508 ZM450 96 l0 508 l-171 -254 l171 -254 ZM250 395 l170 255 l-339 0 l169 -255 Z" /><glyph glyph-name="Delta" unicode="&#x2206;" d="M28 0 l298 701 l115 0 l299 -701 l-712 0 ZM206 109 l357 0 l-178 436 l-179 -436 Z" /><glyph glyph-name="product" unicode="&#x220f;" d="M0 0 l0 700 l500 0 l0 -700 l-500 0 ZM81 49 l339 0 l-170 255 l-169 -255 ZM49 96 l171 254 l-171 254 l0 -508 ZM450 96 l0 508 l-171 -254 l171 -254 ZM250 395 l170 255 l-339 0 l169 -255 Z" /><glyph glyph-name="summation" unicode="&#x2211;" d="M0 0 l0 700 l500 0 l0 -700 l-500 0 ZM81 49 l339 0 l-170 255 l-169 -255 ZM49 96 l171 254 l-171 254 l0 -508 ZM450 96 l0 508 l-171 -254 l171 -254 ZM250 395 l170 255 l-339 0 l169 -255 Z" /><glyph glyph-name="minus" unicode="&#x2212;" d="M85 296 l0 112 l469 0 l0 -112 l-469 0 Z" /><glyph glyph-name="radical" unicode="&#x221a;" d="M253 -156 l-178 352 l-85 -7 l-7 80 l141 15 l129 -258 l255 767 l93 0 l-324 -949 l-24 0 Z" /><glyph glyph-name="infinity" unicode="&#x221e;" d="M218 169 q-79 0 -127 52.5 q-48 52.5 -48 132.5 q0 79 47 131 q47 52 125 52 q59 0 102 -30.5 q43 -30.5 92 -88.5 q36 41 56 60.5 q20 19.5 57.5 39 q37.5 19.5 79.5 19.5 q79 0 126 -51.5 q47 -51.5 47 -131.5 q0 -80 -46.5 -132.5 q-46.5 -52.5 -126.5 -52.5 q-94 0 -193 113 q-34 -37 -55.5 -57 q-21.5 -20 -58.5 -38 q-37 -18 -77 -18 ZM218 269 q60 0 131 83 q-79 86 -133 86 q-35 0 -56 -25 q-21 -25 -21 -60 q0 -37 21 -60.5 q21 -23.5 58 -23.5 ZM603 269 q36 0 56.5 24 q20.5 24 20.5 60 q0 37 -21.5 61 q-21.5 24 -58.5 24 q-59 0 -131 -86 q74 -83 134 -83 Z" /><glyph glyph-name="integral" unicode="&#x222b;" d="M0 0 l0 700 l500 0 l0 -700 l-500 0 ZM81 49 l339 0 l-170 255 l-169 -255 ZM49 96 l171 254 l-171 254 l0 -508 ZM450 96 l0 508 l-171 -254 l171 -254 ZM250 395 l170 255 l-339 0 l169 -255 Z" /><glyph glyph-name="approxequal" unicode="&#x2248;" d="M131 376 l-65 14 q29 150 137 150 q36 0 121.5 -26.5 q85.5 -26.5 108.5 -26.5 q59 0 77 59 l66 -14 q-29 -149 -138 -149 q-36 0 -122.5 26.5 q-86.5 26.5 -108.5 26.5 q-27 0 -47.5 -16.5 q-20.5 -16.5 -28.5 -43.5 ZM131 154 l-65 14 q29 149 137 149 q36 0 121.5 -26 q85.5 -26 108.5 -26 q59 0 77 59 l66 -15 q-29 -148 -138 -148 q-36 0 -122.5 26 q-86.5 26 -108.5 26 q-27 0 -47.5 -16 q-20.5 -16 -28.5 -43 Z" /><glyph glyph-name="notequal" unicode="&#x2260;" d="M184 59 l-81 13 l61 101 l-81 0 l0 110 l149 0 l82 137 l-231 0 l0 110 l298 0 l68 114 l81 -13 l-61 -101 l86 0 l0 -110 l-154 0 l-82 -137 l236 0 l0 -110 l-303 0 l-68 -114 Z" /><glyph glyph-name="lessequal" unicode="&#x2264;" d="M76 9 l0 105 l489 0 l0 -105 l-489 0 ZM565 151 l-489 176 l0 114 l489 176 l0 -118 l-369 -115 l369 -115 l0 -118 Z" /><glyph glyph-name="greaterequal" unicode="&#x2265;" d="M76 9 l0 105 l489 0 l0 -105 l-489 0 ZM77 151 l0 118 l368 115 l-368 115 l0 118 l488 -176 l0 -114 l-488 -176 Z" /><glyph glyph-name="lozenge" unicode="&#x25ca;" d="M267 -35 l-182 391 l182 391 l103 0 l184 -391 l-184 -391 l-103 0 ZM320 78 l119 278 q-80 184 -119 276 l-120 -276 l120 -278 Z" /><glyph glyph-name="cyrBreve" unicode="&#xf6d1;" d="M354 629.5 q-42 -37.5 -105 -37.5 q-63 0 -105 37.5 q-42 37.5 -53 102.5 l75 14 q19 -68 83 -68 q62 0 83 68 l74 -14 q-10 -65 -52 -102.5 Z" /><glyph glyph-name="cyrbreve" unicode="&#xf6d4;" d="M353.5 626.5 q-41.5 -37.5 -104.5 -37.5 q-63 0 -105 37.5 q-42 37.5 -52 101.5 l74 14 q21 -68 83 -68 q62 0 83 68 l73 -14 q-10 -64 -51.5 -101.5 Z" /><glyph glyph-name="apple" unicode="&#xf8ff;" d="M0 0 l0 700 l500 0 l0 -700 l-500 0 ZM81 49 l339 0 l-170 255 l-169 -255 ZM49 96 l171 254 l-171 254 l0 -508 ZM450 96 l0 508 l-171 -254 l171 -254 ZM250 395 l170 255 l-339 0 l169 -255 Z" /><glyph glyph-name="ff" unicode="&#xfb00;" d="M479 0 l0 424 l-67 0 l0 101 l67 0 l0 38 q0 88 43 131 q42 42 118 42 q52 0 99 -14 l0 -102 q-39 13 -71 13 q-70 0 -70 -80 l0 -29 l140 0 l0 -100 l-138 0 l0 -424 l-121 0 ZM103 0 l0 424 l-67 0 l0 101 l67 0 l0 38 q0 88 43 131 q42 42 119 42 q51 0 98 -14 l0 -102 q-39 13 -71 13 q-70 0 -70 -80 l0 -29 l140 0 l0 -100 l-138 0 l0 -424 l-121 0 Z" /><glyph glyph-name="fi" unicode="&#xfb01;" d="M454 609 l0 115 l130 0 l0 -115 l-130 0 ZM103 0 l0 424 l-67 0 l0 101 l67 0 l0 38 q0 88 43 131 q42 42 119 42 q51 0 98 -14 l0 -102 q-39 13 -71 13 q-70 0 -70 -80 l0 -29 l140 0 l0 -100 l-138 0 l0 -424 l-121 0 ZM459 0 l0 528 l121 0 l0 -528 l-121 0 Z" /><glyph glyph-name="fl" unicode="&#xfb02;" d="M103 0 l0 424 l-67 0 l0 101 l67 0 l0 38 q0 88 43 131 q42 42 119 42 q51 0 98 -14 l0 -102 q-39 13 -71 13 q-70 0 -70 -80 l0 -29 l140 0 l0 -100 l-138 0 l0 -424 l-121 0 ZM459 0 l0 730 l121 0 l0 -730 l-121 0 Z" /><glyph glyph-name="ffi" unicode="&#xfb03;" d="M830 609 l0 115 l130 0 l0 -115 l-130 0 ZM479 0 l0 424 l-67 0 l0 101 l67 0 l0 38 q0 88 43 131 q42 42 118 42 q52 0 99 -14 l0 -102 q-39 13 -71 13 q-70 0 -70 -80 l0 -29 l140 0 l0 -100 l-138 0 l0 -424 l-121 0 ZM103 0 l0 424 l-67 0 l0 101 l67 0 l0 38 q0 88 43 131 q42 42 119 42 q51 0 98 -14 l0 -102 q-39 13 -71 13 q-70 0 -70 -80 l0 -29 l140 0 l0 -100 l-138 0 l0 -424 l-121 0 ZM834 0 l0 528 l122 0 l0 -528 l-122 0 Z" /><glyph glyph-name="ffl" unicode="&#xfb04;" d="M479 0 l0 424 l-67 0 l0 101 l67 0 l0 38 q0 88 43 131 q42 42 118 42 q52 0 99 -14 l0 -102 q-39 13 -71 13 q-70 0 -70 -80 l0 -29 l140 0 l0 -100 l-138 0 l0 -424 l-121 0 ZM103 0 l0 424 l-67 0 l0 101 l67 0 l0 38 q0 88 43 131 q42 42 119 42 q51 0 98 -14 l0 -102 q-39 13 -71 13 q-70 0 -70 -80 l0 -29 l140 0 l0 -100 l-138 0 l0 -424 l-121 0 ZM834 0 l0 730 l122 0 l0 -730 l-122 0 Z" /></font>
</defs>
</svg>
