<?xml version="1.0" standalone="no"?><!DOCTYPE svg PUBLIC "-//W3C//DTD SVG 1.1//EN" "http://www.w3.org/Graphics/SVG/1.1/DTD/svg11.dtd" ><svg xmlns="http://www.w3.org/2000/svg"><metadata></metadata><defs><font id="TheHoeflerTypeFoundry,Inc: Gotham Pro Black: 2007" horiz-adv-x="1295"><font-face font-family="Gotham Pro Black" font-weight="400" font-stretch="normal" units-per-em="1000" panose-1="2 0 9 3 4 0 0 2 0 4" ascent="730" descent="-160" x-height="4" bbox="-73 -173 1260 932" underline-thickness="20" underline-position="-163" unicode-range="U+0020-fb04" /><missing-glyph horiz-adv-x="500" d="M0 0 l0 700 l500 0 l0 -700 l-500 0 ZM81 49 l339 0 l-170 255 l-169 -255 ZM49 96 l171 254 l-171 254 l0 -508 ZM450 96 l0 508 l-171 -254 l171 -254 ZM250 395 l170 255 l-339 0 l169 -255 Z" /><glyph glyph-name="space" unicode=" " d="" /><glyph glyph-name="exclam" unicode="!" d="M63 0 l0 170 l198 0 l0 -170 l-198 0 ZM112 228 l-58 387 l0 85 l216 0 l0 -85 l-58 -387 l-100 0 Z" /><glyph glyph-name="quotedbl" unicode="&quot;" d="M34 341 l22 359 l204 0 l0 -5 l-127 -354 l-99 0 ZM290 341 l23 359 l204 0 l0 -5 l-127 -354 l-100 0 Z" /><glyph glyph-name="numbersign" unicode="#" d="M84 0 l23 135 l-78 0 l0 161 l106 0 l19 112 l-92 0 l0 161 l120 0 l22 131 l145 0 l-23 -131 l127 0 l22 131 l145 0 l-22 -131 l78 0 l0 -161 l-106 0 l-19 -112 l92 0 l0 -161 l-119 0 l-24 -135 l-145 0 l24 135 l-127 0 l-23 -135 l-145 0 ZM275 292 l134 0 l20 120 l-133 0 l-21 -120 Z" /><glyph glyph-name="dollar" unicode="$" d="M295 -98 l0 100 q-154 16 -270 99 l90 133 q96 -67 186 -82 l0 120 q-126 29 -184.5 78 q-58.5 49 -58.5 140 q0 90 63 146.5 q63 56.5 176 64.5 l0 57 l104 0 l0 -60 q115 -13 211 -78 l-82 -134 q-59 42 -134 60 l0 -116 q124 -29 181.5 -79 q57.5 -50 57.5 -141 q0 -90 -63.5 -145 q-63.5 -55 -172.5 -65 l0 -98 l-104 0 ZM395 146 q67 7 67 53 q0 21 -14.5 33.5 q-14.5 12.5 -52.5 23.5 l0 -110 ZM302 447 l0 108 q-68 -6 -68 -52 q0 -20 14.5 -32.5 q14.5 -12.5 53.5 -23.5 Z" /><glyph glyph-name="percent" unicode="%" d="M112 0 l540 700 l135 0 l-540 -700 l-135 0 ZM813 45 q-51 -55 -130 -55 q-79 0 -129.5 54.5 q-50.5 54.5 -50.5 134.5 q0 79 50 133.5 q50 54.5 131 54.5 q80 0 130 -54.5 q50 -54.5 50 -134.5 q0 -78 -51 -133 ZM642 122.5 q17 -22.5 42 -22.5 q25 0 41.5 22 q16.5 22 16.5 57 q0 34 -16.5 56 q-16.5 22 -42.5 22 q-27 0 -42.5 -21.5 q-15.5 -21.5 -15.5 -57.5 q0 -33 17 -55.5 ZM215 333 q-80 0 -130 54.5 q-50 54.5 -50 134.5 q0 79 50 133.5 q50 54.5 131 54.5 q80 0 130 -54.5 q50 -54.5 50 -134.5 q0 -79 -51 -133.5 q-51 -54.5 -130 -54.5 ZM174 465 q17 -22 42 -22 q25 0 41.5 22 q16.5 22 16.5 57 q0 33 -17 55.5 q-17 22.5 -42 22.5 q-26 0 -42 -22 q-16 -22 -16 -57 q0 -34 17 -56 Z" /><glyph glyph-name="ampersand" unicode="&amp;" d="M551 -14 l-72 73 q-93 -71 -208 -71 q-110 0 -180 54.5 q-70 54.5 -70 149.5 q0 132 142 196 q-46 66 -46 136 q0 79 60 134.5 q60 55.5 160 55.5 q94 0 151 -51.5 q57 -51.5 57 -130.5 q0 -119 -137 -182 l78 -76 q31 45 66 111 l128 -64 q-49 -89 -92 -148 l94 -93 l-131 -94 ZM297 131 q38 0 83 30 l-115 117 q-50 -30 -50 -78 q0 -31 23 -50 q23 -19 59 -19 ZM317 437 q74 33 74 88 q0 25 -15 40.5 q-15 15.5 -39 15.5 q-25 0 -40.5 -17.5 q-15.5 -17.5 -15.5 -46.5 q0 -35 36 -80 Z" /><glyph glyph-name="quotesingle" unicode="&#39;" d="M34 341 l22 359 l208 0 l0 -5 l-127 -354 l-103 0 Z" /><glyph glyph-name="parenleft" unicode="(" d="M336 -141 q-146 76 -219 178.5 q-73 102.5 -73 249.5 q0 147 73 249.5 q73 102.5 219 178.5 l79 -118 q-98 -67 -141.5 -139.5 q-43.5 -72.5 -43.5 -170.5 q0 -98 43.5 -170.5 q43.5 -72.5 141.5 -139.5 l-79 -118 Z" /><glyph glyph-name="parenright" unicode=")" d="M109 -141 l-79 118 q98 67 141.5 139.5 q43.5 72.5 43.5 170.5 q0 98 -43.5 170.5 q-43.5 72.5 -141.5 139.5 l79 118 q146 -76 219 -178.5 q73 -102.5 73 -249.5 q0 -147 -73 -249.5 q-73 -102.5 -219 -178.5 Z" /><glyph glyph-name="asterisk" unicode="*" d="M160 339 l25 132 l-103 -88 l-54 92 l127 45 l-127 45 l54 93 l103 -88 l-25 132 l105 0 l-25 -132 l103 88 l54 -93 l-127 -45 l127 -45 l-54 -92 l-103 88 l25 -132 l-105 0 Z" /><glyph glyph-name="plus" unicode="+" d="M233 96 l0 172 l-169 0 l0 168 l169 0 l0 172 l174 0 l0 -172 l169 0 l0 -168 l-169 0 l0 -172 l-174 0 Z" /><glyph glyph-name="comma" unicode="," d="M35 -165 l-15 73 q100 12 100 90 l0 4 l-77 0 l0 195 l198 0 l0 -159 q0 -106 -53 -153 q-53 -47 -153 -50 Z" /><glyph glyph-name="hyphen" unicode="-" d="M40 229 l0 167 l328 0 l0 -167 l-328 0 Z" /><glyph glyph-name="period" unicode="." d="M43 0 l0 195 l198 0 l0 -195 l-198 0 Z" /><glyph glyph-name="slash" unicode="/" d="M-38 -128 l443 926 l154 0 l-443 -926 l-154 0 Z" /><glyph glyph-name="zero" unicode="0" d="M599.5 91.5 q-89.5 -105.5 -235.5 -105.5 q-146 0 -234.5 104.5 q-88.5 104.5 -88.5 259.5 q0 153 90 258.5 q90 105.5 235 105.5 q146 0 234.5 -105 q88.5 -105 88.5 -259 q0 -153 -89.5 -258.5 ZM272 211.5 q36 -53.5 94 -53.5 q58 0 93 53.5 q35 53.5 35 138.5 q0 84 -36.5 138 q-36.5 54 -93.5 54 q-58 0 -93 -53 q-35 -53 -35 -139 q0 -85 36 -138.5 Z" /><glyph glyph-name="one" unicode="1" d="M163 0 l0 524 l-118 -27 l-37 150 l205 58 l141 0 l0 -705 l-191 0 Z" /><glyph glyph-name="two" unicode="2" d="M33 0 l0 146 l262 200 q49 37 69.5 65.5 q20.5 28.5 20.5 60.5 q0 33 -21.5 52 q-21.5 19 -56.5 19 q-34 0 -65.5 -20.5 q-31.5 -20.5 -73.5 -69.5 l-131 109 q60 78 124 114 q64 36 161 36 q115 0 186.5 -62.5 q71.5 -62.5 71.5 -162.5 q0 -79 -38 -131.5 q-38 -52.5 -124 -113.5 l-120 -84 l289 0 l0 -158 l-554 0 Z" /><glyph glyph-name="three" unicode="3" d="M316 -14 q-186 0 -298 124 l122 122 q78 -80 167 -80 q41 0 65.5 19.5 q24.5 19.5 24.5 53.5 q0 34 -30 53 q-30 19 -84 19 l-82 0 l-28 101 l161 145 l-268 0 l0 157 l506 0 l0 -139 l-167 -143 q181 -40 181 -199 q0 -105 -75.5 -169 q-75.5 -64 -194.5 -64 Z" /><glyph glyph-name="four" unicode="4" d="M384 0 l0 136 l-339 0 l-32 137 l363 432 l196 0 l0 -424 l89 0 l0 -145 l-89 0 l0 -136 l-188 0 ZM217 280 l167 0 l0 201 l-167 -201 Z" /><glyph glyph-name="five" unicode="5" d="M303 -14 q-165 0 -284 111 l111 130 q90 -76 170 -76 q48 0 75.5 22.5 q27.5 22.5 27.5 61.5 q0 37 -28.5 59 q-28.5 22 -74.5 22 q-54 0 -112 -35 l-115 64 l20 355 l468 0 l0 -160 l-315 0 l-6 -106 q53 25 112 25 q102 0 171 -57.5 q69 -57.5 69 -166.5 q0 -115 -79.5 -182 q-79.5 -67 -209.5 -67 Z" /><glyph glyph-name="six" unicode="6" d="M341 -14 q-134 0 -214 80 q-86 86 -86 264 q0 171 83.5 277.5 q83.5 106.5 241.5 106.5 q130 0 233 -77 l-91 -137 q-71 53 -139 53 q-59 0 -92 -40 q-33 -40 -40 -109 q71 54 151 54 q97 0 164 -59 q67 -59 67 -161 q0 -115 -80 -183.5 q-80 -68.5 -198 -68.5 ZM261 163 q27 -26 72 -26 q45 0 71 25.5 q26 25.5 26 66.5 q0 38 -27 64 q-27 26 -72 26 q-45 0 -71 -25.5 q-26 -25.5 -26 -65.5 q0 -39 27 -65 Z" /><glyph glyph-name="seven" unicode="7" d="M62 0 l308 537 l-324 0 l0 163 l539 0 l0 -146 l-309 -554 l-214 0 Z" /><glyph glyph-name="eight" unicode="8" d="M522.5 44.5 q-80.5 -56.5 -207.5 -56.5 q-127 0 -207.5 57.5 q-80.5 57.5 -80.5 149.5 q0 117 120 168 q-96 53 -96 154 q0 85 73.5 140 q73.5 55 190.5 55 q117 0 190.5 -55.5 q73.5 -55.5 73.5 -141.5 q0 -99 -96 -152 q58 -27 89 -66.5 q31 -39.5 31 -102.5 q0 -93 -80.5 -149.5 ZM241 156 q27 -23 74 -23 q47 0 74 23.5 q27 23.5 27 57.5 q0 34 -28.5 55 q-28.5 21 -72.5 21 q-45 0 -73 -21.5 q-28 -21.5 -28 -56.5 q0 -33 27 -56 ZM252.5 438 q23.5 -22 62.5 -22 q39 0 62.5 21.5 q23.5 21.5 23.5 56.5 q0 30 -24 52 q-24 22 -62 22 q-39 0 -62.5 -21.5 q-23.5 -21.5 -23.5 -53.5 q0 -33 23.5 -55 Z" /><glyph glyph-name="nine" unicode="9" d="M297 -14 q-138 0 -244 83 l91 134 q71 -56 150 -56 q59 0 92 38.5 q33 38.5 40 107.5 q-60 -57 -148 -57 q-104 0 -169.5 60 q-65.5 60 -65.5 163 q0 115 78.5 185 q78.5 70 200.5 70 q74 0 123.5 -20 q49.5 -20 91.5 -62 q84 -82 84 -261 q0 -176 -85 -280.5 q-85 -104.5 -239 -104.5 ZM258.5 401 q27.5 -26 72.5 -26 q45 0 71.5 26 q26.5 26 26.5 67 q0 41 -27.5 68 q-27.5 27 -72.5 27 q-45 0 -71.5 -26.5 q-26.5 -26.5 -26.5 -69.5 q0 -40 27.5 -66 Z" /><glyph glyph-name="colon" unicode=":" d="M48 0 l0 195 l198 0 l0 -195 l-198 0 ZM48 346 l0 195 l198 0 l0 -195 l-198 0 Z" /><glyph glyph-name="semicolon" unicode=";" d="M40 -167 l-15 73 q100 12 100 90 l0 4 l-77 0 l0 195 l198 0 l0 -159 q0 -106 -53 -153 q-53 -47 -153 -50 ZM48 346 l0 195 l198 0 l0 -195 l-198 0 Z" /><glyph glyph-name="less" unicode="&lt;" d="M562 65 l-497 198 l0 177 l497 198 l0 -177 l-327 -109 l327 -109 l0 -178 Z" /><glyph glyph-name="equal" unicode="=" d="M74 134 l0 167 l491 0 l0 -167 l-491 0 ZM74 403 l0 167 l491 0 l0 -167 l-491 0 Z" /><glyph glyph-name="greater" unicode="&gt;" d="M78 65 l0 177 l327 109 l-327 109 l0 178 l497 -198 l0 -177 l-497 -198 Z" /><glyph glyph-name="question" unicode="?" d="M150 0 l0 170 l197 0 l0 -170 l-197 0 ZM191 228 l-25 167 l8 9 q84 7 120.5 27 q36.5 20 36.5 54 q0 26 -19.5 40.5 q-19.5 14.5 -55.5 14.5 q-72 0 -146 -66 l-100 132 q105 105 259 105 q112 0 181 -57 q69 -57 69 -155 q0 -88 -51.5 -136.5 q-51.5 -48.5 -143.5 -70.5 l-12 -64 l-121 0 Z" /><glyph glyph-name="at" unicode="@" d="M491 -162 q-192 0 -319 127 q-127 127 -127 310 q0 182 128 310.5 q128 128.5 315 128.5 q182 0 306.5 -116 q124.5 -116 124.5 -273 q0 -128 -62.5 -198 q-62.5 -70 -150.5 -70 q-110 0 -154 76 q-64 -74 -147 -74 q-79 0 -131 55.5 q-52 55.5 -52 145.5 q0 107 65.5 183.5 q65.5 76.5 155.5 76.5 q87 0 134 -74 l12 61 l155 -24 l-46 -258 q-4 -20 -4 -44 q0 -26 17.5 -42.5 q17.5 -16.5 47.5 -16.5 q51 0 84.5 53.5 q33.5 53.5 33.5 149.5 q0 142 -111 245.5 q-111 103.5 -278 103.5 q-173 0 -287 -115.5 q-114 -115.5 -114 -283.5 q0 -169 113.5 -283 q113.5 -114 290.5 -114 q131 0 245 67 l20 -32 q-123 -75 -265 -75 ZM455 194 q40 0 68 33.5 q28 33.5 28 81.5 q0 35 -20.5 55.5 q-20.5 20.5 -52.5 20.5 q-40 0 -68 -33 q-28 -33 -28 -80 q0 -37 20.5 -57.5 q20.5 -20.5 52.5 -20.5 Z" /><glyph glyph-name="A" unicode="a" d="M6 0 l298 705 l187 0 l298 -705 l-208 0 l-51 125 l-270 0 l-50 -125 l-204 0 ZM317 276 l157 0 l-78 199 l-79 -199 Z" /><glyph glyph-name="B" unicode="b" d="M62 0 l0 700 l359 0 q128 0 191 -63 q45 -45 45 -115 q0 -109 -108 -156 q68 -22 103.5 -63 q35.5 -41 35.5 -110 q0 -90 -70 -141.5 q-70 -51.5 -195 -51.5 l-361 0 ZM251 156 l150 0 q93 0 93 66 q0 63 -95 63 l-148 0 l0 -129 ZM251 421 l122 0 q92 0 92 63 q0 60 -88 60 l-126 0 l0 -123 Z" /><glyph glyph-name="C" unicode="c" d="M399 -14 q-152 0 -256.5 103.5 q-104.5 103.5 -104.5 260.5 q0 154 105.5 259 q105.5 105 263.5 105 q187 0 294 -148 l-142 -110 q-65 81 -154 81 q-73 0 -120 -54 q-47 -54 -47 -133 q0 -80 47 -133.5 q47 -53.5 120 -53.5 q51 0 87 21.5 q36 21.5 71 63.5 l146 -104 q-55 -75 -128 -116.5 q-73 -41.5 -182 -41.5 Z" /><glyph glyph-name="D" unicode="d" d="M62 0 l0 700 l270 0 q184 0 289.5 -96 q105.5 -96 105.5 -252 q0 -155 -107 -253.5 q-107 -98.5 -292 -98.5 l-266 0 ZM256 172 l79 0 q88 0 140.5 47 q52.5 47 52.5 132 q0 83 -52.5 131 q-52.5 48 -140.5 48 l-79 0 l0 -358 Z" /><glyph glyph-name="E" unicode="e" d="M62 0 l0 700 l563 0 l0 -165 l-371 0 l0 -106 l336 0 l0 -153 l-336 0 l0 -111 l376 0 l0 -165 l-568 0 Z" /><glyph glyph-name="F" unicode="f" d="M62 0 l0 700 l560 0 l0 -170 l-366 0 l0 -119 l331 0 l0 -161 l-331 0 l0 -250 l-194 0 Z" /><glyph glyph-name="G" unicode="g" d="M419 -14 q-165 0 -273 102.5 q-108 102.5 -108 261.5 q0 154 107.5 259 q107.5 105 269.5 105 q166 0 284 -102 l-114 -137 q-79 66 -169 66 q-76 0 -127.5 -56 q-51.5 -56 -51.5 -138 q0 -85 53.5 -139.5 q53.5 -54.5 136.5 -54.5 q68 0 112 29 l0 85 l-138 0 l0 142 l322 0 l0 -315 q-131 -108 -304 -108 Z" /><glyph glyph-name="H" unicode="h" d="M62 0 l0 700 l194 0 l0 -262 l249 0 l0 262 l194 0 l0 -700 l-194 0 l0 266 l-249 0 l0 -266 l-194 0 Z" /><glyph glyph-name="I" unicode="i" d="M66 0 l0 700 l195 0 l0 -700 l-195 0 Z" /><glyph glyph-name="J" unicode="j" d="M250 -12 q-160 0 -246 118 l125 118 q54 -65 109 -65 q38 0 59 25 q21 25 21 73 l0 443 l193 0 l0 -444 q0 -128 -69 -197 q-71 -71 -192 -71 Z" /><glyph glyph-name="K" unicode="k" d="M62 0 l0 700 l194 0 l0 -284 l241 284 l230 0 l-265 -301 l274 -399 l-233 0 l-176 260 l-71 -79 l0 -181 l-194 0 Z" /><glyph glyph-name="L" unicode="l" d="M62 0 l0 700 l194 0 l0 -530 l339 0 l0 -170 l-533 0 Z" /><glyph glyph-name="M" unicode="m" d="M62 0 l0 700 l205 0 l167 -271 l167 271 l205 0 l0 -700 l-193 0 l0 402 l-179 -274 l-4 0 l-178 272 l0 -400 l-190 0 Z" /><glyph glyph-name="N" unicode="n" d="M62 0 l0 700 l181 0 l288 -370 l0 370 l192 0 l0 -700 l-170 0 l-299 384 l0 -384 l-192 0 Z" /><glyph glyph-name="O" unicode="o" d="M683.5 92 q-108.5 -106 -269.5 -106 q-161 0 -268.5 105.5 q-107.5 105.5 -107.5 258.5 q0 152 108.5 258 q108.5 106 269.5 106 q161 0 268.5 -105.5 q107.5 -105.5 107.5 -258.5 q0 -152 -108.5 -258 ZM416 161 q79 0 128.5 55 q49.5 55 49.5 134 q0 78 -51 133.5 q-51 55.5 -129 55.5 q-78 0 -127.5 -55 q-49.5 -55 -49.5 -134 q0 -78 50.5 -133.5 q50.5 -55.5 128.5 -55.5 Z" /><glyph glyph-name="P" unicode="p" d="M62 0 l0 700 l300 0 q134 0 212.5 -65.5 q78.5 -65.5 78.5 -182.5 q0 -120 -83 -186 q-83 -66 -218 -66 l-96 0 l0 -200 l-194 0 ZM256 352 l92 0 q52 0 81.5 25 q29.5 25 29.5 68 q0 45 -29.5 68.5 q-29.5 23.5 -82.5 23.5 l-91 0 l0 -185 Z" /><glyph glyph-name="Q" unicode="q" d="M704 -21 l-77 69 q-95 -62 -213 -62 q-161 0 -268.5 105.5 q-107.5 105.5 -107.5 258.5 q0 152 108.5 258 q108.5 106 269.5 106 q161 0 268.5 -105.5 q107.5 -105.5 107.5 -258.5 q0 -113 -62 -201 l72 -61 l-98 -109 ZM416 158 q37 0 71 13 l-97 83 l98 110 l95 -86 q12 32 12 70 q0 79 -51 135 q-51 56 -130 56 q-78 0 -127.5 -56 q-49.5 -56 -49.5 -135 q0 -78 50.5 -134 q50.5 -56 128.5 -56 Z" /><glyph glyph-name="R" unicode="r" d="M62 0 l0 700 l331 0 q153 0 228 -75 q62 -62 62 -166 q0 -154 -144 -215 l167 -244 l-224 0 l-141 212 l-85 0 l0 -212 l-194 0 ZM256 364 l128 0 q49 0 76.5 22.5 q27.5 22.5 27.5 62.5 q0 41 -27.5 62 q-27.5 21 -77.5 21 l-127 0 l0 -168 Z" /><glyph glyph-name="S" unicode="s" d="M337 -12 q-198 0 -328 116 l108 129 q105 -84 227 -84 q80 0 80 50 q0 22 -24 36.5 q-24 14.5 -94 30.5 q-64 15 -105.5 29.5 q-41.5 14.5 -81 39 q-39.5 24.5 -58.5 62.5 q-19 38 -19 91 q0 99 73.5 161.5 q73.5 62.5 197.5 62.5 q172 0 288 -93 l-97 -137 q-98 69 -196 69 q-34 0 -52 -13 q-18 -13 -18 -34 q0 -24 24.5 -38 q24.5 -14 96.5 -30 q132 -29 196.5 -77.5 q64.5 -48.5 64.5 -142.5 q0 -106 -77 -167 q-77 -61 -206 -61 Z" /><glyph glyph-name="T" unicode="t" d="M233 0 l0 530 l-210 0 l0 170 l614 0 l0 -170 l-210 0 l0 -530 l-194 0 Z" /><glyph glyph-name="U" unicode="u" d="M377 -13 q-154 0 -239 80 q-85 80 -85 240 l0 393 l197 0 l0 -389 q0 -74 34.5 -111.5 q34.5 -37.5 94.5 -37.5 q60 0 94.5 36 q34.5 36 34.5 108 l0 394 l197 0 l0 -388 q0 -164 -86.5 -244.5 q-86.5 -80.5 -241.5 -80.5 Z" /><glyph glyph-name="V" unicode="v" d="M290 -5 l-284 705 l217 0 l159 -443 l159 443 l213 0 l-284 -705 l-180 0 Z" /><glyph glyph-name="W" unicode="w" d="M249 -5 l-234 705 l205 0 l122 -405 l135 407 l167 0 l135 -407 l122 405 l201 0 l-234 -705 l-169 0 l-141 403 l-140 -403 l-169 0 Z" /><glyph glyph-name="X" unicode="x" d="M11 0 l240 356 l-230 344 l223 0 l124 -197 l125 197 l218 0 l-230 -342 l240 -358 l-223 0 l-134 211 l-135 -211 l-218 0 Z" /><glyph glyph-name="Y" unicode="y" d="M264 0 l0 262 l-266 438 l221 0 l144 -255 l145 255 l217 0 l-266 -435 l0 -265 l-195 0 Z" /><glyph glyph-name="Z" unicode="z" d="M40 0 l0 141 l351 395 l-339 0 l0 164 l607 0 l0 -141 l-351 -395 l351 0 l0 -164 l-619 0 Z" /><glyph glyph-name="bracketleft" unicode="[" d="M66 -130 l0 830 l346 0 l0 -129 l-176 0 l0 -572 l176 0 l0 -129 l-346 0 Z" /><glyph glyph-name="backslash" unicode="\" d="M419 -128 l-443 926 l154 0 l443 -926 l-154 0 Z" /><glyph glyph-name="bracketright" unicode="]" d="M45 -130 l0 129 l176 0 l0 572 l-176 0 l0 129 l346 0 l0 -830 l-346 0 Z" /><glyph glyph-name="asciicircum" unicode="^" d="M42 493 l144 206 l128 0 l144 -206 l-133 0 l-76 97 l-76 -97 l-131 0 Z" /><glyph glyph-name="underscore" unicode="_" d="M-2 -160 l0 116 l604 0 l0 -116 l-604 0 Z" /><glyph glyph-name="grave" unicode="`" d="M235 587 l-147 128 l177 57 l104 -185 l-134 0 Z" /><glyph glyph-name="a" unicode="a" d="M206 -12 q-80 0 -131 44.5 q-51 44.5 -51 124.5 q0 82 57 126 q57 44 155 44 q71 0 130 -21 l0 9 q0 88 -108 88 q-73 0 -149 -30 l-39 134 q102 42 219 42 q140 0 206 -66 q58 -57 58 -172 l0 -311 l-188 0 l0 56 q-61 -68 -159 -68 ZM274 107 q42 0 68 24.5 q26 24.5 26 64.5 l0 25 q-33 14 -74 14 q-41 0 -64 -18.5 q-23 -18.5 -23 -50.5 q0 -27 18.5 -43 q18.5 -16 48.5 -16 Z" /><glyph glyph-name="b" unicode="b" d="M406 -12 q-98 0 -165 78 l0 -66 l-190 0 l0 730 l190 0 l0 -261 q69 84 164 84 q100 0 170 -77.5 q70 -77.5 70 -204.5 q0 -128 -69.5 -205.5 q-69.5 -77.5 -169.5 -77.5 ZM347 147 q47 0 79 35 q32 35 32 90 q0 53 -32 87.5 q-32 34.5 -79 34.5 q-46 0 -78 -35 q-32 -35 -32 -89 q0 -53 32 -88 q32 -35 78 -35 Z" /><glyph glyph-name="c" unicode="c" d="M312 -13 q-121 0 -202 82.5 q-81 82.5 -81 200.5 q0 117 82 199.5 q82 82.5 208 82.5 q155 0 231 -121 l-127 -92 q-38 53 -98 53 q-51 0 -81 -35 q-30 -35 -30 -87 q0 -53 30 -88 q30 -35 78 -35 q32 0 54.5 14 q22.5 14 47.5 43 l129 -93 q-84 -124 -241 -124 Z" /><glyph glyph-name="d" unicode="d" d="M270 -12 q-100 0 -169.5 77.5 q-69.5 77.5 -69.5 204.5 q0 128 69 205.5 q69 77.5 169 77.5 q98 0 166 -78 l0 255 l190 0 l0 -730 l-190 0 l0 72 q-69 -84 -165 -84 ZM249.5 182 q32.5 -35 78.5 -35 q46 0 78 35 q32 35 32 90 q0 53 -32 87.5 q-32 34.5 -78 34.5 q-47 0 -79 -35 q-32 -35 -32 -89 q0 -53 32.5 -88 Z" /><glyph glyph-name="e" unicode="e" d="M319 -13 q-128 0 -209 78 q-81 78 -81 205 q0 120 77 201.5 q77 81.5 196 81.5 q133 0 203 -84 q70 -84 70 -212 q0 -26 -1 -39 l-362 0 q23 -89 117 -89 q64 0 120 55 l105 -87 q-87 -110 -235 -110 ZM209 315 l188 0 q-5 45 -30 71.5 q-25 26.5 -64 26.5 q-37 0 -61.5 -26.5 q-24.5 -26.5 -32.5 -71.5 Z" /><glyph glyph-name="f" unicode="f" d="M85 0 l0 389 l-63 0 l0 149 l63 0 l0 12 q0 94 46 140 q47 47 141 47 q74 0 124 -15 l0 -134 q-35 11 -71 11 q-54 0 -54 -51 l0 -13 l124 0 l0 -146 l-121 0 l0 -389 l-189 0 Z" /><glyph glyph-name="g" unicode="g" d="M317 -162 q-150 0 -271 62 l61 126 q92 -51 189 -51 q142 0 142 133 l0 21 q-70 -81 -167 -81 q-103 0 -171.5 69 q-68.5 69 -68.5 184 q0 113 68.5 182.5 q68.5 69.5 165.5 69.5 q98 0 170 -76 l0 64 l190 0 l0 -411 q0 -146 -70 -216 q-76 -76 -238 -76 ZM328 194 q48 0 79 30 q31 30 31 77 q0 45 -31 74.5 q-31 29.5 -79 29.5 q-49 0 -80 -30 q-31 -30 -31 -77 q0 -45 31 -74.5 q31 -29.5 80 -29.5 Z" /><glyph glyph-name="h" unicode="h" d="M51 0 l0 730 l190 0 l0 -263 q67 86 162 86 q86 0 135 -53.5 q49 -53.5 49 -145.5 l0 -354 l-190 0 l0 293 q0 43 -20.5 67 q-20.5 24 -55.5 24 q-36 0 -58 -24 q-22 -24 -22 -67 l0 -293 l-190 0 Z" /><glyph glyph-name="i" unicode="i" d="M55 0 l0 541 l190 0 l0 -541 l-190 0 ZM51 590 l0 140 l198 0 l0 -140 l-198 0 Z" /><glyph glyph-name="j" unicode="j" d="M52 -163 q-24 0 -78 7 l0 126 q8 -1 25 -1 q29 0 42.5 14.5 q13.5 14.5 13.5 48.5 l0 509 l190 0 l0 -517 q0 -99 -48.5 -143 q-48.5 -44 -144.5 -44 ZM51 590 l0 140 l198 0 l0 -140 l-198 0 Z" /><glyph glyph-name="k" unicode="k" d="M51 0 l0 730 l190 0 l0 -370 l147 181 l215 0 l-188 -217 l193 -324 l-209 0 l-109 184 l-49 -57 l0 -127 l-190 0 Z" /><glyph glyph-name="l" unicode="l" d="M55 0 l0 730 l190 0 l0 -730 l-190 0 Z" /><glyph glyph-name="m" unicode="m" d="M51 0 l0 541 l190 0 l0 -74 q67 86 161 86 q110 0 156 -88 q77 88 181 88 q87 0 136 -52 q49 -52 49 -146 l0 -355 l-190 0 l0 294 q0 43 -20 66.5 q-20 23.5 -54 23.5 q-35 0 -56.5 -23.5 q-21.5 -23.5 -21.5 -66.5 l0 -294 l-190 0 l0 294 q0 43 -20 66.5 q-20 23.5 -54 23.5 q-35 0 -56 -23.5 q-21 -23.5 -21 -66.5 l0 -294 l-190 0 Z" /><glyph glyph-name="n" unicode="n" d="M51 0 l0 541 l190 0 l0 -76 q68 88 162 88 q86 0 135 -53.5 q49 -53.5 49 -145.5 l0 -354 l-190 0 l0 293 q0 43 -20.5 67 q-20.5 24 -55.5 24 q-36 0 -58 -24 q-22 -24 -22 -67 l0 -293 l-190 0 Z" /><glyph glyph-name="o" unicode="o" d="M327 -13 q-128 0 -213 82.5 q-85 82.5 -85 200.5 q0 117 85.5 200 q85.5 83 214.5 83 q128 0 213 -82.5 q85 -82.5 85 -200.5 q0 -117 -85.5 -200 q-85.5 -83 -214.5 -83 ZM329 148 q51 0 82 35 q31 35 31 87 q0 50 -33 86 q-33 36 -82 36 q-51 0 -82 -35 q-31 -35 -31 -87 q0 -50 33 -86 q33 -36 82 -36 Z" /><glyph glyph-name="p" unicode="p" d="M51 -160 l0 701 l190 0 l0 -72 q69 84 164 84 q100 0 170 -77.5 q70 -77.5 70 -204.5 q0 -128 -69.5 -205.5 q-69.5 -77.5 -169.5 -77.5 q-98 0 -165 78 l0 -226 l-190 0 ZM347 147 q47 0 79 35 q32 35 32 90 q0 53 -32 87.5 q-32 34.5 -79 34.5 q-46 0 -78 -35 q-32 -35 -32 -89 q0 -53 32 -88 q32 -35 78 -35 Z" /><glyph glyph-name="q" unicode="q" d="M435 -160 l0 232 q-69 -84 -165 -84 q-100 0 -169.5 77.5 q-69.5 77.5 -69.5 204.5 q0 128 69 205.5 q69 77.5 169 77.5 q98 0 166 -78 l0 66 l190 0 l0 -701 l-190 0 ZM249.5 182 q32.5 -35 78.5 -35 q46 0 78 35 q32 35 32 90 q0 53 -32 87.5 q-32 34.5 -78 34.5 q-47 0 -79 -35 q-32 -35 -32 -89 q0 -53 32.5 -88 Z" /><glyph glyph-name="r" unicode="r" d="M51 0 l0 541 l190 0 l0 -109 q52 123 171 118 l0 -200 l-16 0 q-155 0 -155 -182 l0 -168 l-190 0 Z" /><glyph glyph-name="s" unicode="s" d="M266 -12 q-145 0 -256 80 l71 115 q94 -62 186 -62 q48 0 48 31 q0 15 -19.5 24 q-19.5 9 -67.5 22 q-95 26 -143.5 62.5 q-48.5 36.5 -48.5 112.5 q0 84 60.5 131.5 q60.5 47.5 156.5 47.5 q125 0 223 -63 l-65 -120 q-90 50 -160 50 q-44 0 -44 -28 q0 -14 19 -23.5 q19 -9.5 69 -24.5 q46 -13 76 -25.5 q30 -12.5 59 -32.5 q29 -20 43 -48.5 q14 -28.5 14 -67.5 q0 -87 -60 -134 q-60 -47 -161 -47 Z" /><glyph glyph-name="t" unicode="t" d="M266 -11 q-182 0 -182 179 l0 220 l-64 0 l0 153 l64 0 l0 137 l190 0 l0 -137 l126 0 l0 -153 l-126 0 l0 -183 q0 -54 52 -54 q34 0 72 18 l0 -149 q-55 -31 -132 -31 Z" /><glyph glyph-name="u" unicode="u" d="M231 -12 q-86 0 -135 53 q-49 53 -49 146 l0 354 l190 0 l0 -293 q0 -43 21 -67 q21 -24 56 -24 q35 0 57 24 q22 24 22 67 l0 293 l190 0 l0 -541 l-190 0 l0 74 q-67 -86 -162 -86 Z" /><glyph glyph-name="v" unicode="v" d="M226 -4 l-216 545 l200 0 l104 -316 l104 316 l197 0 l-216 -545 l-173 0 Z" /><glyph glyph-name="w" unicode="w" d="M177 -4 l-165 545 l186 0 l71 -272 l83 274 l157 0 l84 -276 l73 274 l183 0 l-167 -545 l-164 0 l-88 281 l-90 -281 l-163 0 Z" /><glyph glyph-name="x" unicode="x" d="M8 0 l182 273 l-179 268 l205 0 l80 -133 l80 133 l201 0 l-178 -267 l182 -274 l-204 0 l-84 139 l-85 -139 l-200 0 Z" /><glyph glyph-name="y" unicode="y" d="M211 -163 q-90 0 -174 47 l59 133 q48 -29 83 -29 q28 0 44 22 l-212 531 l199 0 l108 -326 l102 326 l195 0 l-198 -528 q-36 -96 -81 -136 q-45 -40 -125 -40 Z" /><glyph glyph-name="z" unicode="z" d="M32 0 l0 125 l250 265 l-241 0 l0 151 l493 0 l0 -125 l-251 -265 l251 0 l0 -151 l-502 0 Z" /><glyph glyph-name="braceleft" unicode="{" d="M429 -141 q-146 18 -205 63 q-59 45 -59 130 q0 7 1.5 36 q1.5 29 1.5 38 q0 55 -28.5 76.5 q-28.5 21.5 -89.5 21.5 l-16 0 l0 126 l16 0 q61 0 89.5 21.5 q28.5 21.5 28.5 76.5 q0 9 -1.5 38 q-1.5 29 -1.5 36 q0 85 59 130 q59 45 205 63 l29 -111 q-77 -17 -100.5 -40.5 q-23.5 -23.5 -23.5 -72.5 q0 -8 1.5 -33.5 q1.5 -25.5 1.5 -36.5 q0 -103 -112 -134 q112 -31 112 -134 q0 -11 -1.5 -36.5 q-1.5 -25.5 -1.5 -33.5 q0 -49 23.5 -72.5 q23.5 -23.5 100.5 -40.5 l-29 -111 Z" /><glyph glyph-name="bar" unicode="|" d="M105 -128 l0 926 l145 0 l0 -926 l-145 0 Z" /><glyph glyph-name="braceright" unicode="}" d="M61 -141 l-29 111 q77 17 100.5 40.5 q23.5 23.5 23.5 72.5 q0 8 -1.5 33.5 q-1.5 25.5 -1.5 36.5 q0 103 112 134 q-112 31 -112 134 q0 11 1.5 36.5 q1.5 25.5 1.5 33.5 q0 49 -23.5 72.5 q-23.5 23.5 -100.5 40.5 l29 111 q146 -18 205 -63 q59 -45 59 -130 q0 -7 -1.5 -36 q-1.5 -29 -1.5 -38 q0 -55 28.5 -76.5 q28.5 -21.5 89.5 -21.5 l16 0 l0 -126 l-16 0 q-61 0 -89.5 -21.5 q-28.5 -21.5 -28.5 -76.5 q0 -9 1.5 -38 q1.5 -29 1.5 -36 q0 -85 -59 -130 q-59 -45 -205 -63 Z" /><glyph glyph-name="asciitilde" unicode="~" d="M133 220 l-92 25 q17 77 45.5 113 q28.5 36 78.5 36 q33 0 88 -19.5 q55 -19.5 68 -19.5 q20 0 30 10.5 q10 10.5 21 35.5 l92 -25 q-17 -77 -45.5 -113 q-28.5 -36 -78.5 -36 q-33 0 -88.5 19.5 q-55.5 19.5 -68.5 19.5 q-20 0 -29.5 -10 q-9.5 -10 -20.5 -36 Z" /><glyph glyph-name="nonbreakingspace" unicode=" " d="" /><glyph glyph-name="exclamdown" unicode="¡" d="M54 0 l0 85 l58 387 l100 0 l58 -387 l0 -85 l-216 0 ZM63 530 l0 170 l198 0 l0 -170 l-198 0 Z" /><glyph glyph-name="cent" unicode="¢" d="M202 -6 l17 98 q-84 29 -135.5 100.5 q-51.5 71.5 -51.5 162.5 q0 118 79 198 q79 80 205 83 l12 70 l115 0 l-15 -87 q81 -30 126 -97 l-116 -89 q-22 27 -47 40 l-46 -252 q53 7 95 57 l115 -84 q-79 -115 -224 -119 l-14 -81 l-115 0 ZM253 238 l45 253 q-45 -7 -73 -45.5 q-28 -38.5 -28 -90.5 q0 -83 56 -117 Z" /><glyph glyph-name="sterling" unicode="£" d="M44 0 l0 115 l75 29 l0 119 l-75 0 l0 136 l75 0 l0 51 q0 124 69 193 q69 69 191 69 q142 0 233 -101 l-118 -129 q-48 57 -102 57 q-37 0 -58.5 -24 q-21.5 -24 -21.5 -65 l0 -51 l216 0 l0 -136 l-216 0 l0 -110 l293 0 l0 -153 l-561 0 Z" /><glyph glyph-name="currency" unicode="¤" d="M421 -14 q-118 0 -197.5 64.5 q-79.5 64.5 -105.5 172.5 l-81 0 l0 104 l68 0 q-1 7 -1 23 q0 18 1 27 l-68 0 l0 104 l84 0 q28 103 106.5 168 q78.5 65 194.5 65 q152 0 240 -113 l-123 -115 q-49 62 -116 62 q-76 0 -109 -70 l156 0 l0 -101 l-178 0 q-1 -8 -1 -27 q0 -15 1 -23 l178 0 l0 -101 l-158 0 q35 -74 115 -74 q64 0 118 66 l120 -113 q-92 -119 -244 -119 Z" /><glyph glyph-name="yen" unicode="¥" d="M258 0 l0 93 l-184 0 l0 120 l184 0 l0 50 l-184 0 l0 120 l138 0 l-208 317 l220 0 l132 -230 l132 230 l216 0 l-209 -317 l139 0 l0 -120 l-184 0 l0 -50 l184 0 l0 -120 l-184 0 l0 -93 l-192 0 Z" /><glyph glyph-name="brokenbar" unicode="¦" d="M33 -89 l0 250 l157 0 l0 -250 l-157 0 ZM33 411 l0 250 l157 0 l0 -250 l-157 0 Z" /><glyph glyph-name="section" unicode="§" d="M309 -13 q-72 0 -134.5 22 q-62.5 22 -102.5 57 l77 109 q82 -59 164 -59 q54 0 54 32 q0 25 -97 46 q-111 24 -169.5 56 q-58.5 32 -58.5 91 q0 77 91 110 q-47 36 -47 101 q0 70 60 115.5 q60 45.5 171 45.5 q72 0 134.5 -22 q62.5 -22 102.5 -57 l-77 -109 q-82 59 -164 59 q-54 0 -54 -32 q0 -14 21.5 -24 q21.5 -10 75.5 -22 q54 -12 89.5 -22.5 q35.5 -10.5 70 -27.5 q34.5 -17 51.5 -41 q17 -24 17 -56 q0 -77 -91 -110 q47 -36 47 -100 q0 -70 -60 -116 q-60 -46 -171 -46 ZM387 297 q51 0 51 37 q0 27 -101 51 q-71 18 -99 18 q-51 0 -51 -37 q0 -27 101 -51 q72 -18 99 -18 Z" /><glyph glyph-name="dieresis" unicode="¨" d="M58 587 l0 143 l165 0 l0 -143 l-165 0 ZM277 587 l0 143 l165 0 l0 -143 l-165 0 Z" /><glyph glyph-name="copyright" unicode="©" d="M671 93.5 q-106 -107.5 -257 -107.5 q-151 0 -256 107 q-105 107 -105 257 q0 149 106 256.5 q106 107.5 257 107.5 q151 0 256 -107 q105 -107 105 -257 q0 -149 -106 -256.5 ZM414 26 q136 0 228.5 95.5 q92.5 95.5 92.5 230.5 q0 134 -92 228 q-92 94 -227 94 q-136 0 -228.5 -95.5 q-92.5 -95.5 -92.5 -230.5 q0 -134 92 -228 q92 -94 227 -94 ZM420 156 q-87 0 -144 57 q-57 57 -57 142 q0 83 57.5 141 q57.5 58 146.5 58 q103 0 162 -79 l-81 -64 q-37 45 -84 45 q-39 0 -64.5 -29.5 q-25.5 -29.5 -25.5 -72.5 q0 -43 25.5 -71.5 q25.5 -28.5 64.5 -28.5 q47 0 86 46 l82 -58 q-64 -86 -168 -86 Z" /><glyph glyph-name="ordfeminine" unicode="ª" d="M41 270 l0 77 l299 0 l0 -77 l-299 0 ZM144 397 q-44 0 -72 24.5 q-28 24.5 -28 68.5 q0 45 31.5 69 q31.5 24 85.5 24 q40 0 71 -11 l0 4 q0 49 -60 49 q-36 0 -82 -17 l-21 74 q56 23 120 23 q77 0 114 -37 q32 -31 32 -95 l0 -170 l-104 0 l0 32 q-33 -38 -87 -38 ZM181 463 q23 0 37.5 13.5 q14.5 13.5 14.5 35.5 l0 13 q-22 8 -41 8 q-22 0 -34.5 -10.5 q-12.5 -10.5 -12.5 -27.5 q0 -15 10 -23.5 q10 -8.5 26 -8.5 Z" /><glyph glyph-name="guillemotleft" unicode="«" d="M190 30 l-160 214 l0 48 l160 214 l137 -67 l-130 -171 l130 -170 l-137 -68 ZM465 30 l-176 234 l0 8 l176 234 l136 -67 l-130 -171 l130 -170 l-136 -68 Z" /><glyph glyph-name="logicalnot" unicode="¬" d="M391 231 l0 172 l-317 0 l0 167 l491 0 l0 -339 l-174 0 Z" /><glyph glyph-name="uni00AD" unicode="­" d="M40 229 l0 167 l328 0 l0 -167 l-328 0 Z" /><glyph glyph-name="registered" unicode="®" d="M671 93.5 q-106 -107.5 -257 -107.5 q-151 0 -256 107 q-105 107 -105 257 q0 149 106 256.5 q106 107.5 257 107.5 q151 0 256 -107 q105 -107 105 -257 q0 -149 -106 -256.5 ZM414 26 q136 0 228.5 95.5 q92.5 95.5 92.5 230.5 q0 134 -92 228 q-92 94 -227 94 q-136 0 -228.5 -95.5 q-92.5 -95.5 -92.5 -230.5 q0 -134 92 -228 q92 -94 227 -94 ZM256 168 l0 385 l179 0 q87 0 130 -43 q33 -33 33 -90 q0 -85 -79 -118 l92 -134 l-123 0 l-80 117 l-45 0 l0 -117 l-107 0 ZM363 368 l70 0 q58 0 58 47 q0 46 -59 46 l-69 0 l0 -93 Z" /><glyph glyph-name="macron" unicode="¯" d="M62 592 l0 116 l376 0 l0 -116 l-376 0 Z" /><glyph glyph-name="degree" unicode="°" d="M364 404 q-54 -52 -128 -52 q-74 0 -128 52 q-54 52 -54 126 q0 72 54.5 125 q54.5 53 127.5 53 q73 0 127.5 -53 q54.5 -53 54.5 -127 q0 -72 -54 -124 ZM176 468.5 q24 -24.5 60 -24.5 q36 0 60 25 q24 25 24 61 q0 35 -24.5 60 q-24.5 25 -59.5 25 q-35 0 -59.5 -25 q-24.5 -25 -24.5 -62 q0 -35 24 -59.5 Z" /><glyph glyph-name="plusminus" unicode="±" d="M76 -16 l0 157 l491 0 l0 -157 l-491 0 ZM233 206 l0 132 l-169 0 l0 168 l169 0 l0 132 l174 0 l0 -132 l169 0 l0 -168 l-169 0 l0 -132 l-174 0 Z" /><glyph glyph-name="twosuperior" unicode="²" d="M0 0 l0 700 l500 0 l0 -700 l-500 0 ZM81 49 l339 0 l-170 255 l-169 -255 ZM49 96 l171 254 l-171 254 l0 -508 ZM450 96 l0 508 l-171 -254 l171 -254 ZM250 395 l170 255 l-339 0 l169 -255 Z" /><glyph glyph-name="threesuperior" unicode="³" d="M0 0 l0 700 l500 0 l0 -700 l-500 0 ZM81 49 l339 0 l-170 255 l-169 -255 ZM49 96 l171 254 l-171 254 l0 -508 ZM450 96 l0 508 l-171 -254 l171 -254 ZM250 395 l170 255 l-339 0 l169 -255 Z" /><glyph glyph-name="acute" unicode="´" d="M131 587 l104 185 l177 -57 l-147 -128 l-134 0 Z" /><glyph glyph-name="mu" unicode="µ" d="M51 -160 l0 701 l190 0 l0 -293 q0 -43 21 -67 q21 -24 56 -24 q35 0 57 24 q22 24 22 67 l0 293 l190 0 l0 -541 l-190 0 l0 74 q-58 -76 -133 -76 q-7 0 -23 2 l0 -160 l-190 0 Z" /><glyph glyph-name="paragraph" unicode="¶" d="M339 0 l0 220 l-21 0 q-133 0 -214.5 62.5 q-81.5 62.5 -81.5 176.5 q0 115 79 178 q79 63 214 63 l219 0 l0 -700 l-195 0 Z" /><glyph glyph-name="periodcentered" unicode="·" d="M43 215 l0 195 l198 0 l0 -195 l-198 0 Z" /><glyph glyph-name="cedilla" unicode="¸" d="M260 -173 l-151 64 l92 124 l125 0 l-66 -188 Z" /><glyph glyph-name="onesuperior" unicode="¹" d="M0 0 l0 700 l500 0 l0 -700 l-500 0 ZM81 49 l339 0 l-170 255 l-169 -255 ZM49 96 l171 254 l-171 254 l0 -508 ZM450 96 l0 508 l-171 -254 l171 -254 ZM250 395 l170 255 l-339 0 l169 -255 Z" /><glyph glyph-name="ordmasculine" unicode="º" d="M51 270 l0 77 l288 0 l0 -77 l-288 0 ZM194 395 q-69 0 -115 44.5 q-46 44.5 -46 110.5 q0 65 46.5 110 q46.5 45 116.5 45 q69 0 115 -44.5 q46 -44.5 46 -110.5 q0 -65 -46.5 -110 q-46.5 -45 -116.5 -45 ZM152 503 q17 -19 44 -19 q27 0 43 18.5 q16 18.5 16 47.5 q0 28 -17 47.5 q-17 19.5 -44 19.5 q-27 0 -43 -19 q-16 -19 -16 -48 q0 -28 17 -47 Z" /><glyph glyph-name="guillemotright" unicode="»" d="M167 30 l-137 67 l130 171 l-130 170 l137 68 l175 -234 l0 -8 l-175 -234 ZM441 30 l-136 67 l130 171 l-130 170 l136 68 l160 -214 l0 -48 l-160 -214 Z" /><glyph glyph-name="onequarter" unicode="¼" d="M0 0 l0 700 l500 0 l0 -700 l-500 0 ZM81 49 l339 0 l-170 255 l-169 -255 ZM49 96 l171 254 l-171 254 l0 -508 ZM450 96 l0 508 l-171 -254 l171 -254 ZM250 395 l170 255 l-339 0 l169 -255 Z" /><glyph glyph-name="onehalf" unicode="½" d="M0 0 l0 700 l500 0 l0 -700 l-500 0 ZM81 49 l339 0 l-170 255 l-169 -255 ZM49 96 l171 254 l-171 254 l0 -508 ZM450 96 l0 508 l-171 -254 l171 -254 ZM250 395 l170 255 l-339 0 l169 -255 Z" /><glyph glyph-name="threequarters" unicode="¾" d="M0 0 l0 700 l500 0 l0 -700 l-500 0 ZM81 49 l339 0 l-170 255 l-169 -255 ZM49 96 l171 254 l-171 254 l0 -508 ZM450 96 l0 508 l-171 -254 l171 -254 ZM250 395 l170 255 l-339 0 l169 -255 Z" /><glyph glyph-name="questiondown" unicode="¿" d="M271 -11 q-111 0 -180 57 q-69 57 -69 155 q0 89 51 137 q51 48 144 70 l11 64 l121 0 l26 -167 l-9 -9 q-84 -7 -120.5 -27 q-36.5 -20 -36.5 -54 q0 -26 20 -40.5 q20 -14.5 56 -14.5 q71 0 145 66 l101 -132 q-105 -105 -260 -105 ZM193 530 l0 170 l198 0 l0 -170 l-198 0 Z" /><glyph glyph-name="Agrave" unicode="à" d="M6 0 l298 705 l187 0 l298 -705 l-208 0 l-51 125 l-270 0 l-50 -125 l-204 0 ZM317 276 l157 0 l-78 199 l-79 -199 ZM343 747 l-147 128 l177 57 l104 -185 l-134 0 Z" /><glyph glyph-name="Aacute" unicode="á" d="M6 0 l298 705 l187 0 l298 -705 l-208 0 l-51 125 l-270 0 l-50 -125 l-204 0 ZM317 276 l157 0 l-78 199 l-79 -199 ZM319 747 l104 185 l177 -57 l-147 -128 l-134 0 Z" /><glyph glyph-name="Acircumflex" unicode="â" d="M6 0 l298 705 l187 0 l298 -705 l-208 0 l-51 125 l-270 0 l-50 -125 l-204 0 ZM317 276 l157 0 l-78 199 l-79 -199 ZM193 747 l128 165 l154 0 l128 -165 l-122 0 l-84 61 l-84 -61 l-120 0 Z" /><glyph glyph-name="Atilde" unicode="ã" d="M6 0 l298 705 l187 0 l298 -705 l-208 0 l-51 125 l-270 0 l-50 -125 l-204 0 ZM317 276 l157 0 l-78 199 l-79 -199 ZM278 740 l-91 25 q16 77 45 113 q29 36 79 36 q34 0 89 -19.5 q55 -19.5 67 -19.5 q20 0 30 10.5 q10 10.5 21 35.5 l91 -25 q-16 -77 -45 -113 q-29 -36 -79 -36 q-33 0 -88 19.5 q-55 19.5 -68 19.5 q-20 0 -30 -10.5 q-10 -10.5 -21 -35.5 Z" /><glyph glyph-name="Adieresis" unicode="ä" d="M6 0 l298 705 l187 0 l298 -705 l-208 0 l-51 125 l-270 0 l-50 -125 l-204 0 ZM317 276 l157 0 l-78 199 l-79 -199 ZM206 747 l0 143 l165 0 l0 -143 l-165 0 ZM425 747 l0 143 l165 0 l0 -143 l-165 0 Z" /><glyph glyph-name="Aring" unicode="å" d="M6 0 l290 687 q-31 34 -31 79 q0 51 39.5 88.5 q39.5 37.5 93.5 37.5 q53 0 92.5 -37.5 q39.5 -37.5 39.5 -90.5 q0 -43 -31 -77 l290 -687 l-208 0 l-51 125 l-270 0 l-50 -125 l-204 0 ZM398 698 q27 0 46.5 20 q19.5 20 19.5 48 q0 26 -19.5 45.5 q-19.5 19.5 -46.5 19.5 q-28 0 -47.5 -19.5 q-19.5 -19.5 -19.5 -47.5 q0 -27 19.5 -46.5 q19.5 -19.5 47.5 -19.5 ZM317 276 l157 0 l-78 199 l-79 -199 Z" /><glyph glyph-name="AE" unicode="æ" d="M-5 0 l370 700 l655 0 l0 -165 l-349 0 l0 -106 l314 0 l0 -153 l-314 0 l0 -111 l354 0 l0 -165 l-543 0 l0 125 l-226 0 l-65 -125 l-196 0 ZM334 276 l148 0 l0 265 l-12 0 l-136 -265 Z" /><glyph glyph-name="Ccedilla" unicode="ç" d="M381 -173 l-151 64 l78 106 q-119 30 -194.5 126 q-75.5 96 -75.5 227 q0 154 105.5 259 q105.5 105 263.5 105 q192 0 297 -146 l-146 -113 q-66 82 -153 82 q-73 0 -120 -54 q-47 -54 -47 -133 q0 -80 47 -133.5 q47 -53.5 120 -53.5 q51 0 87 21.5 q36 21.5 71 63.5 l146 -104 q-103 -142 -272 -156 l-56 -161 Z" /><glyph glyph-name="Egrave" unicode="è" d="M62 0 l0 700 l563 0 l0 -165 l-371 0 l0 -106 l336 0 l0 -153 l-336 0 l0 -111 l376 0 l0 -165 l-568 0 ZM313 747 l-147 128 l177 57 l104 -185 l-134 0 Z" /><glyph glyph-name="Eacute" unicode="é" d="M62 0 l0 700 l563 0 l0 -165 l-371 0 l0 -106 l336 0 l0 -153 l-336 0 l0 -111 l376 0 l0 -165 l-568 0 ZM252 747 l104 185 l177 -57 l-147 -128 l-134 0 Z" /><glyph glyph-name="Ecircumflex" unicode="ê" d="M62 0 l0 700 l563 0 l0 -165 l-371 0 l0 -106 l336 0 l0 -153 l-336 0 l0 -111 l376 0 l0 -165 l-568 0 ZM140 747 l128 165 l154 0 l128 -165 l-122 0 l-84 61 l-84 -61 l-120 0 Z" /><glyph glyph-name="Edieresis" unicode="ë" d="M62 0 l0 700 l563 0 l0 -165 l-371 0 l0 -106 l336 0 l0 -153 l-336 0 l0 -111 l376 0 l0 -165 l-568 0 ZM153 747 l0 143 l165 0 l0 -143 l-165 0 ZM372 747 l0 143 l165 0 l0 -143 l-165 0 Z" /><glyph glyph-name="Igrave" unicode="ì" d="M66 0 l0 700 l195 0 l0 -700 l-195 0 ZM106 747 l-147 128 l177 57 l104 -185 l-134 0 Z" /><glyph glyph-name="Iacute" unicode="í" d="M66 0 l0 700 l195 0 l0 -700 l-195 0 ZM87 747 l104 185 l177 -57 l-147 -128 l-134 0 Z" /><glyph glyph-name="Icircumflex" unicode="î" d="M66 0 l0 700 l195 0 l0 -700 l-195 0 ZM-42 747 l128 165 l154 0 l128 -165 l-122 0 l-84 61 l-84 -61 l-120 0 Z" /><glyph glyph-name="Idieresis" unicode="ï" d="M66 0 l0 700 l195 0 l0 -700 l-195 0 ZM-29 747 l0 143 l165 0 l0 -143 l-165 0 ZM190 747 l0 143 l165 0 l0 -143 l-165 0 Z" /><glyph glyph-name="Eth" unicode="ð" d="M111 0 l0 276 l-80 0 l0 153 l80 0 l0 271 l270 0 q184 0 289.5 -96 q105.5 -96 105.5 -252 q0 -155 -107 -253.5 q-107 -98.5 -292 -98.5 l-266 0 ZM299 167 l85 0 q90 0 141.5 48.5 q51.5 48.5 51.5 135.5 q0 85 -51.5 133.5 q-51.5 48.5 -141.5 48.5 l-85 0 l0 -104 l119 0 l0 -153 l-119 0 l0 -109 Z" /><glyph glyph-name="Ntilde" unicode="ñ" d="M62 0 l0 700 l181 0 l288 -370 l0 370 l192 0 l0 -700 l-170 0 l-299 384 l0 -384 l-192 0 ZM273 740 l-91 25 q16 77 45 113 q29 36 79 36 q34 0 89 -19.5 q55 -19.5 67 -19.5 q20 0 30 10.5 q10 10.5 21 35.5 l91 -25 q-16 -77 -45 -113 q-29 -36 -79 -36 q-34 0 -89 19.5 q-55 19.5 -67 19.5 q-20 0 -30 -10.5 q-10 -10.5 -21 -35.5 Z" /><glyph glyph-name="Ograve" unicode="ò" d="M683.5 92 q-108.5 -106 -269.5 -106 q-161 0 -268.5 105.5 q-107.5 105.5 -107.5 258.5 q0 152 108.5 258 q108.5 106 269.5 106 q161 0 268.5 -105.5 q107.5 -105.5 107.5 -258.5 q0 -152 -108.5 -258 ZM416 161 q79 0 128.5 55 q49.5 55 49.5 134 q0 78 -51 133.5 q-51 55.5 -129 55.5 q-78 0 -127.5 -55 q-49.5 -55 -49.5 -134 q0 -78 50.5 -133.5 q50.5 -55.5 128.5 -55.5 ZM351 747 l-147 128 l177 57 l104 -185 l-134 0 Z" /><glyph glyph-name="Oacute" unicode="ó" d="M683.5 92 q-108.5 -106 -269.5 -106 q-161 0 -268.5 105.5 q-107.5 105.5 -107.5 258.5 q0 152 108.5 258 q108.5 106 269.5 106 q161 0 268.5 -105.5 q107.5 -105.5 107.5 -258.5 q0 -152 -108.5 -258 ZM416 161 q79 0 128.5 55 q49.5 55 49.5 134 q0 78 -51 133.5 q-51 55.5 -129 55.5 q-78 0 -127.5 -55 q-49.5 -55 -49.5 -134 q0 -78 50.5 -133.5 q50.5 -55.5 128.5 -55.5 ZM347 747 l104 185 l177 -57 l-147 -128 l-134 0 Z" /><glyph glyph-name="Ocircumflex" unicode="ô" d="M683.5 92 q-108.5 -106 -269.5 -106 q-161 0 -268.5 105.5 q-107.5 105.5 -107.5 258.5 q0 152 108.5 258 q108.5 106 269.5 106 q161 0 268.5 -105.5 q107.5 -105.5 107.5 -258.5 q0 -152 -108.5 -258 ZM416 161 q79 0 128.5 55 q49.5 55 49.5 134 q0 78 -51 133.5 q-51 55.5 -129 55.5 q-78 0 -127.5 -55 q-49.5 -55 -49.5 -134 q0 -78 50.5 -133.5 q50.5 -55.5 128.5 -55.5 ZM211 745 l128 165 l154 0 l128 -165 l-122 0 l-84 61 l-84 -61 l-120 0 Z" /><glyph glyph-name="Otilde" unicode="õ" d="M683.5 92 q-108.5 -106 -269.5 -106 q-161 0 -268.5 105.5 q-107.5 105.5 -107.5 258.5 q0 152 108.5 258 q108.5 106 269.5 106 q161 0 268.5 -105.5 q107.5 -105.5 107.5 -258.5 q0 -152 -108.5 -258 ZM416 161 q79 0 128.5 55 q49.5 55 49.5 134 q0 78 -51 133.5 q-51 55.5 -129 55.5 q-78 0 -127.5 -55 q-49.5 -55 -49.5 -134 q0 -78 50.5 -133.5 q50.5 -55.5 128.5 -55.5 ZM296 740 l-91 25 q16 77 45 113 q29 36 79 36 q33 0 88 -19.5 q55 -19.5 68 -19.5 q20 0 30 10.5 q10 10.5 21 35.5 l91 -25 q-16 -77 -45 -113 q-29 -36 -79 -36 q-33 0 -88 19.5 q-55 19.5 -68 19.5 q-20 0 -30 -10.5 q-10 -10.5 -21 -35.5 Z" /><glyph glyph-name="Odieresis" unicode="ö" d="M683.5 92 q-108.5 -106 -269.5 -106 q-161 0 -268.5 105.5 q-107.5 105.5 -107.5 258.5 q0 152 108.5 258 q108.5 106 269.5 106 q161 0 268.5 -105.5 q107.5 -105.5 107.5 -258.5 q0 -152 -108.5 -258 ZM416 161 q79 0 128.5 55 q49.5 55 49.5 134 q0 78 -51 133.5 q-51 55.5 -129 55.5 q-78 0 -127.5 -55 q-49.5 -55 -49.5 -134 q0 -78 50.5 -133.5 q50.5 -55.5 128.5 -55.5 ZM224 747 l0 143 l165 0 l0 -143 l-165 0 ZM443 747 l0 143 l165 0 l0 -143 l-165 0 Z" /><glyph glyph-name="multiply" unicode="×" d="M161 6 l-108 109 l158 158 l-158 158 l108 109 l158 -159 l159 159 l108 -109 l-158 -158 l158 -158 l-108 -109 l-159 158 l-158 -158 Z" /><glyph glyph-name="Oslash" unicode="ø" d="M414 -14 q-109 0 -198 53 l-39 -44 l-147 0 l100 112 q-92 102 -92 243 q0 152 108.5 258 q108.5 106 269.5 106 q111 0 198 -53 l39 44 l147 0 l-99 -113 q91 -101 91 -242 q0 -152 -108.5 -258 q-108.5 -106 -269.5 -106 ZM416 157 q80 0 130.5 56 q50.5 56 50.5 137 q0 54 -24 97 l-238 -271 q38 -19 81 -19 ZM258 253 l237 271 q-36 19 -81 19 q-79 0 -129.5 -56 q-50.5 -56 -50.5 -137 q0 -54 24 -97 Z" /><glyph glyph-name="Ugrave" unicode="ù" d="M377 -13 q-154 0 -239 80 q-85 80 -85 240 l0 393 l197 0 l0 -389 q0 -74 34.5 -111.5 q34.5 -37.5 94.5 -37.5 q60 0 94.5 36 q34.5 36 34.5 108 l0 394 l197 0 l0 -388 q0 -164 -86.5 -244.5 q-86.5 -80.5 -241.5 -80.5 ZM323 742 l-147 128 l177 57 l104 -185 l-134 0 Z" /><glyph glyph-name="Uacute" unicode="ú" d="M377 -13 q-154 0 -239 80 q-85 80 -85 240 l0 393 l197 0 l0 -389 q0 -74 34.5 -111.5 q34.5 -37.5 94.5 -37.5 q60 0 94.5 36 q34.5 36 34.5 108 l0 394 l197 0 l0 -388 q0 -164 -86.5 -244.5 q-86.5 -80.5 -241.5 -80.5 ZM301 742 l104 185 l177 -57 l-147 -128 l-134 0 Z" /><glyph glyph-name="Ucircumflex" unicode="û" d="M377 -13 q-154 0 -239 80 q-85 80 -85 240 l0 393 l197 0 l0 -389 q0 -74 34.5 -111.5 q34.5 -37.5 94.5 -37.5 q60 0 94.5 36 q34.5 36 34.5 108 l0 394 l197 0 l0 -388 q0 -164 -86.5 -244.5 q-86.5 -80.5 -241.5 -80.5 ZM174 747 l128 165 l154 0 l128 -165 l-122 0 l-84 61 l-84 -61 l-120 0 Z" /><glyph glyph-name="Udieresis" unicode="ü" d="M377 -13 q-154 0 -239 80 q-85 80 -85 240 l0 393 l197 0 l0 -389 q0 -74 34.5 -111.5 q34.5 -37.5 94.5 -37.5 q60 0 94.5 36 q34.5 36 34.5 108 l0 394 l197 0 l0 -388 q0 -164 -86.5 -244.5 q-86.5 -80.5 -241.5 -80.5 ZM187 747 l0 143 l165 0 l0 -143 l-165 0 ZM406 747 l0 143 l165 0 l0 -143 l-165 0 Z" /><glyph glyph-name="Yacute" unicode="ý" d="M264 0 l0 262 l-266 438 l221 0 l144 -255 l145 255 l217 0 l-266 -435 l0 -265 l-195 0 ZM281 745 l104 185 l177 -57 l-147 -128 l-134 0 Z" /><glyph glyph-name="Thorn" unicode="þ" d="M62 0 l0 700 l194 0 l0 -100 l106 0 q134 0 212.5 -64.5 q78.5 -64.5 78.5 -180.5 q0 -121 -83 -185.5 q-83 -64.5 -218 -64.5 l-96 0 l0 -105 l-194 0 ZM256 260 l92 0 q52 0 81.5 25 q29.5 25 29.5 68 q0 44 -29.5 67.5 q-29.5 23.5 -82.5 23.5 l-91 0 l0 -184 Z" /><glyph glyph-name="germandbls" unicode="ß" d="M338 -4 q-20 0 -31 1 l0 136 q54 3 83.5 24.5 q29.5 21.5 29.5 58.5 q0 35 -30.5 55.5 q-30.5 20.5 -82.5 25.5 l0 101 q82 41 82 109 q0 33 -19.5 53 q-19.5 20 -49.5 20 q-36 0 -58 -25.5 q-22 -25.5 -22 -71.5 l0 -483 l-189 0 l0 479 q0 119 71 189.5 q71 70.5 201 70.5 q114 0 182 -60 q68 -60 68 -151 q0 -111 -104 -164 q59 -19 99 -61.5 q40 -42.5 40 -110.5 q0 -91 -74.5 -143.5 q-74.5 -52.5 -195.5 -52.5 Z" /><glyph glyph-name="agrave" unicode="à" d="M206 -12 q-80 0 -131 44.5 q-51 44.5 -51 124.5 q0 82 57 126 q57 44 155 44 q71 0 130 -21 l0 9 q0 88 -108 88 q-73 0 -149 -30 l-39 134 q102 42 219 42 q140 0 206 -66 q58 -57 58 -172 l0 -311 l-188 0 l0 56 q-61 -68 -159 -68 ZM274 107 q42 0 68 24.5 q26 24.5 26 64.5 l0 25 q-33 14 -74 14 q-41 0 -64 -18.5 q-23 -18.5 -23 -50.5 q0 -27 18.5 -43 q18.5 -16 48.5 -16 ZM252 589 l-147 128 l177 57 l104 -185 l-134 0 Z" /><glyph glyph-name="aacute" unicode="á" d="M206 -12 q-80 0 -131 44.5 q-51 44.5 -51 124.5 q0 82 57 126 q57 44 155 44 q71 0 130 -21 l0 9 q0 88 -108 88 q-73 0 -149 -30 l-39 134 q102 42 219 42 q140 0 206 -66 q58 -57 58 -172 l0 -311 l-188 0 l0 56 q-61 -68 -159 -68 ZM274 107 q42 0 68 24.5 q26 24.5 26 64.5 l0 25 q-33 14 -74 14 q-41 0 -64 -18.5 q-23 -18.5 -23 -50.5 q0 -27 18.5 -43 q18.5 -16 48.5 -16 ZM216 589 l104 185 l177 -57 l-147 -128 l-134 0 Z" /><glyph glyph-name="acircumflex" unicode="â" d="M206 -12 q-80 0 -131 44.5 q-51 44.5 -51 124.5 q0 82 57 126 q57 44 155 44 q71 0 130 -21 l0 9 q0 88 -108 88 q-73 0 -149 -30 l-39 134 q102 42 219 42 q140 0 206 -66 q58 -57 58 -172 l0 -311 l-188 0 l0 56 q-61 -68 -159 -68 ZM274 107 q42 0 68 24.5 q26 24.5 26 64.5 l0 25 q-33 14 -74 14 q-41 0 -64 -18.5 q-23 -18.5 -23 -50.5 q0 -27 18.5 -43 q18.5 -16 48.5 -16 ZM92 587 l128 165 l154 0 l128 -165 l-122 0 l-84 61 l-84 -61 l-120 0 Z" /><glyph glyph-name="atilde" unicode="ã" d="M206 -12 q-80 0 -131 44.5 q-51 44.5 -51 124.5 q0 82 57 126 q57 44 155 44 q71 0 130 -21 l0 9 q0 88 -108 88 q-73 0 -149 -30 l-39 134 q102 42 219 42 q140 0 206 -66 q58 -57 58 -172 l0 -311 l-188 0 l0 56 q-61 -68 -159 -68 ZM274 107 q42 0 68 24.5 q26 24.5 26 64.5 l0 25 q-33 14 -74 14 q-41 0 -64 -18.5 q-23 -18.5 -23 -50.5 q0 -27 18.5 -43 q18.5 -16 48.5 -16 ZM179 580 l-91 25 q16 77 45 113 q29 36 79 36 q34 0 89 -19.5 q55 -19.5 67 -19.5 q20 0 30 10.5 q10 10.5 21 35.5 l91 -25 q-16 -77 -45 -113 q-29 -36 -79 -36 q-34 0 -89 19.5 q-55 19.5 -67 19.5 q-20 0 -30 -10.5 q-10 -10.5 -21 -35.5 Z" /><glyph glyph-name="adieresis" unicode="ä" d="M206 -12 q-80 0 -131 44.5 q-51 44.5 -51 124.5 q0 82 57 126 q57 44 155 44 q71 0 130 -21 l0 9 q0 88 -108 88 q-73 0 -149 -30 l-39 134 q102 42 219 42 q140 0 206 -66 q58 -57 58 -172 l0 -311 l-188 0 l0 56 q-61 -68 -159 -68 ZM274 107 q42 0 68 24.5 q26 24.5 26 64.5 l0 25 q-33 14 -74 14 q-41 0 -64 -18.5 q-23 -18.5 -23 -50.5 q0 -27 18.5 -43 q18.5 -16 48.5 -16 ZM105 589 l0 143 l165 0 l0 -143 l-165 0 ZM324 589 l0 143 l165 0 l0 -143 l-165 0 Z" /><glyph glyph-name="aring" unicode="å" d="M206 -12 q-80 0 -131 44.5 q-51 44.5 -51 124.5 q0 82 57 126 q57 44 155 44 q71 0 130 -21 l0 9 q0 88 -108 88 q-73 0 -149 -30 l-39 134 q102 42 219 42 q140 0 206 -66 q58 -57 58 -172 l0 -311 l-188 0 l0 56 q-61 -68 -159 -68 ZM274 107 q42 0 68 24.5 q26 24.5 26 64.5 l0 25 q-33 14 -74 14 q-41 0 -64 -18.5 q-23 -18.5 -23 -50.5 q0 -27 18.5 -43 q18.5 -16 48.5 -16 ZM390 629 q-40 -38 -93 -38 q-53 0 -93 38.5 q-40 38.5 -40 90.5 q0 51 40 88.5 q40 37.5 93 37.5 q53 0 93 -37.5 q40 -37.5 40 -90.5 q0 -51 -40 -89 ZM249.5 671.5 q19.5 -19.5 47.5 -19.5 q28 0 47.5 20 q19.5 20 19.5 48 q0 26 -19.5 45.5 q-19.5 19.5 -47.5 19.5 q-28 0 -47.5 -19.5 q-19.5 -19.5 -19.5 -47.5 q0 -27 19.5 -46.5 Z" /><glyph glyph-name="ae" unicode="æ" d="M225 -12 q-88 0 -144.5 44 q-56.5 44 -56.5 125 q0 82 57 126 q57 44 155 44 q71 0 130 -21 l0 9 q0 88 -108 88 q-73 0 -149 -30 l-39 134 q102 42 219 42 q122 0 183 -61 q68 65 169 65 q130 0 199.5 -84.5 q69.5 -84.5 69.5 -211.5 q0 -13 -2 -39 l-362 0 q24 -89 117 -89 q64 0 120 55 l105 -87 q-87 -110 -234 -110 q-131 0 -212 81 q-105 -80 -217 -80 ZM277 109 q54 0 109 44 q-15 35 -19 68 q-33 14 -73 14 q-41 0 -64 -18.5 q-23 -18.5 -23 -50.5 q0 -26 19.5 -41.5 q19.5 -15.5 50.5 -15.5 ZM544 315 l188 0 q-5 45 -30.5 71.5 q-25.5 26.5 -64.5 26.5 q-37 0 -61.5 -26.5 q-24.5 -26.5 -31.5 -71.5 Z" /><glyph glyph-name="ccedilla" unicode="ç" d="M292 -173 l-151 64 l81 110 q-87 28 -140 101.5 q-53 73.5 -53 167.5 q0 117 82 199.5 q82 82.5 208 82.5 q155 0 231 -121 l-129 -96 q-41 57 -101 57 q-45 0 -75.5 -35.5 q-30.5 -35.5 -30.5 -86.5 q0 -53 30 -88 q30 -35 78 -35 q56 0 104 56 l127 -92 q-75 -110 -204 -122 l-57 -162 Z" /><glyph glyph-name="egrave" unicode="è" d="M319 -13 q-128 0 -209 78 q-81 78 -81 205 q0 120 77 201.5 q77 81.5 196 81.5 q133 0 203 -84 q70 -84 70 -212 q0 -26 -1 -39 l-362 0 q23 -89 117 -89 q64 0 120 55 l105 -87 q-87 -110 -235 -110 ZM209 315 l188 0 q-5 45 -30 71.5 q-25 26.5 -64 26.5 q-37 0 -61.5 -26.5 q-24.5 -26.5 -32.5 -71.5 ZM244 589 l-147 128 l177 57 l104 -185 l-134 0 Z" /><glyph glyph-name="eacute" unicode="é" d="M319 -13 q-128 0 -209 78 q-81 78 -81 205 q0 120 77 201.5 q77 81.5 196 81.5 q133 0 203 -84 q70 -84 70 -212 q0 -26 -1 -39 l-362 0 q23 -89 117 -89 q64 0 120 55 l105 -87 q-87 -110 -235 -110 ZM209 315 l188 0 q-5 45 -30 71.5 q-25 26.5 -64 26.5 q-37 0 -61.5 -26.5 q-24.5 -26.5 -32.5 -71.5 ZM228 589 l104 185 l177 -57 l-147 -128 l-134 0 Z" /><glyph glyph-name="ecircumflex" unicode="ê" d="M319 -13 q-128 0 -209 78 q-81 78 -81 205 q0 120 77 201.5 q77 81.5 196 81.5 q133 0 203 -84 q70 -84 70 -212 q0 -26 -1 -39 l-362 0 q23 -89 117 -89 q64 0 120 55 l105 -87 q-87 -110 -235 -110 ZM209 315 l188 0 q-5 45 -30 71.5 q-25 26.5 -64 26.5 q-37 0 -61.5 -26.5 q-24.5 -26.5 -32.5 -71.5 ZM98 585 l128 165 l154 0 l128 -165 l-122 0 l-84 61 l-84 -61 l-120 0 Z" /><glyph glyph-name="edieresis" unicode="ë" d="M319 -13 q-128 0 -209 78 q-81 78 -81 205 q0 120 77 201.5 q77 81.5 196 81.5 q133 0 203 -84 q70 -84 70 -212 q0 -26 -1 -39 l-362 0 q23 -89 117 -89 q64 0 120 55 l105 -87 q-87 -110 -235 -110 ZM209 315 l188 0 q-5 45 -30 71.5 q-25 26.5 -64 26.5 q-37 0 -61.5 -26.5 q-24.5 -26.5 -32.5 -71.5 ZM111 587 l0 143 l165 0 l0 -143 l-165 0 ZM330 587 l0 143 l165 0 l0 -143 l-165 0 Z" /><glyph glyph-name="igrave" unicode="ì" d="M55 0 l0 541 l190 0 l0 -541 l-190 0 ZM95 587 l-147 128 l177 57 l104 -185 l-134 0 Z" /><glyph glyph-name="iacute" unicode="í" d="M55 0 l0 541 l190 0 l0 -541 l-190 0 ZM73 587 l104 185 l177 -57 l-147 -128 l-134 0 Z" /><glyph glyph-name="icircumflex" unicode="î" d="M55 0 l0 541 l190 0 l0 -541 l-190 0 ZM-54 587 l128 165 l154 0 l128 -165 l-122 0 l-84 61 l-84 -61 l-120 0 Z" /><glyph glyph-name="idieresis" unicode="ï" d="M55 0 l0 541 l190 0 l0 -541 l-190 0 ZM-41 587 l0 143 l165 0 l0 -143 l-165 0 ZM178 587 l0 143 l165 0 l0 -143 l-165 0 Z" /><glyph glyph-name="eth" unicode="ð" d="M321 -13 q-126 0 -207.5 75.5 q-81.5 75.5 -81.5 188.5 q0 97 65.5 161.5 q65.5 64.5 172.5 64.5 q64 0 108 -27 l-80 107 l-115 -44 l-65 89 l117 40 l-64 88 l202 0 l21 -30 l99 37 l64 -89 l-103 -35 l64 -90 q54 -78 75.5 -135 q21.5 -57 21.5 -129 q0 -116 -81 -194 q-81 -78 -213 -78 ZM325 146 q49 0 78 29.5 q29 29.5 29 74.5 q0 42 -30.5 72 q-30.5 30 -78.5 30 q-49 0 -78.5 -29 q-29.5 -29 -29.5 -74 q0 -43 31 -73 q31 -30 79 -30 Z" /><glyph glyph-name="ntilde" unicode="ñ" d="M51 0 l0 541 l190 0 l0 -76 q68 88 162 88 q86 0 135 -53.5 q49 -53.5 49 -145.5 l0 -354 l-190 0 l0 293 q0 43 -20.5 67 q-20.5 24 -55.5 24 q-36 0 -58 -24 q-22 -24 -22 -67 l0 -293 l-190 0 ZM202 580 l-91 25 q16 77 45 113 q29 36 79 36 q33 0 88 -19.5 q55 -19.5 68 -19.5 q20 0 30 10.5 q10 10.5 21 35.5 l91 -25 q-16 -77 -45 -113 q-29 -36 -79 -36 q-33 0 -88 19.5 q-55 19.5 -68 19.5 q-20 0 -30 -10.5 q-10 -10.5 -21 -35.5 Z" /><glyph glyph-name="ograve" unicode="ò" d="M327 -13 q-128 0 -213 82.5 q-85 82.5 -85 200.5 q0 117 85.5 200 q85.5 83 214.5 83 q128 0 213 -82.5 q85 -82.5 85 -200.5 q0 -117 -85.5 -200 q-85.5 -83 -214.5 -83 ZM329 148 q51 0 82 35 q31 35 31 87 q0 50 -33 86 q-33 36 -82 36 q-51 0 -82 -35 q-31 -35 -31 -87 q0 -50 33 -86 q33 -36 82 -36 ZM267 589 l-147 128 l177 57 l104 -185 l-134 0 Z" /><glyph glyph-name="oacute" unicode="ó" d="M327 -13 q-128 0 -213 82.5 q-85 82.5 -85 200.5 q0 117 85.5 200 q85.5 83 214.5 83 q128 0 213 -82.5 q85 -82.5 85 -200.5 q0 -117 -85.5 -200 q-85.5 -83 -214.5 -83 ZM329 148 q51 0 82 35 q31 35 31 87 q0 50 -33 86 q-33 36 -82 36 q-51 0 -82 -35 q-31 -35 -31 -87 q0 -50 33 -86 q33 -36 82 -36 ZM255 589 l104 185 l177 -57 l-147 -128 l-134 0 Z" /><glyph glyph-name="ocircumflex" unicode="ô" d="M327 -13 q-128 0 -213 82.5 q-85 82.5 -85 200.5 q0 117 85.5 200 q85.5 83 214.5 83 q128 0 213 -82.5 q85 -82.5 85 -200.5 q0 -117 -85.5 -200 q-85.5 -83 -214.5 -83 ZM329 148 q51 0 82 35 q31 35 31 87 q0 50 -33 86 q-33 36 -82 36 q-51 0 -82 -35 q-31 -35 -31 -87 q0 -50 33 -86 q33 -36 82 -36 ZM123 585 l128 165 l154 0 l128 -165 l-122 0 l-84 61 l-84 -61 l-120 0 Z" /><glyph glyph-name="otilde" unicode="õ" d="M327 -13 q-128 0 -213 82.5 q-85 82.5 -85 200.5 q0 117 85.5 200 q85.5 83 214.5 83 q128 0 213 -82.5 q85 -82.5 85 -200.5 q0 -117 -85.5 -200 q-85.5 -83 -214.5 -83 ZM329 148 q51 0 82 35 q31 35 31 87 q0 50 -33 86 q-33 36 -82 36 q-51 0 -82 -35 q-31 -35 -31 -87 q0 -50 33 -86 q33 -36 82 -36 ZM208 580 l-91 25 q16 77 45 113 q29 36 79 36 q33 0 88 -19.5 q55 -19.5 68 -19.5 q20 0 30 10.5 q10 10.5 21 35.5 l91 -25 q-16 -77 -45 -113 q-29 -36 -79 -36 q-34 0 -88.5 19.5 q-54.5 19.5 -67.5 19.5 q-20 0 -30 -10.5 q-10 -10.5 -21 -35.5 Z" /><glyph glyph-name="odieresis" unicode="ö" d="M327 -13 q-128 0 -213 82.5 q-85 82.5 -85 200.5 q0 117 85.5 200 q85.5 83 214.5 83 q128 0 213 -82.5 q85 -82.5 85 -200.5 q0 -117 -85.5 -200 q-85.5 -83 -214.5 -83 ZM329 148 q51 0 82 35 q31 35 31 87 q0 50 -33 86 q-33 36 -82 36 q-51 0 -82 -35 q-31 -35 -31 -87 q0 -50 33 -86 q33 -36 82 -36 ZM136 587 l0 143 l165 0 l0 -143 l-165 0 ZM355 587 l0 143 l165 0 l0 -143 l-165 0 Z" /><glyph glyph-name="divide" unicode="÷" d="M228 34 l0 175 l178 0 l0 -175 l-178 0 ZM74 271 l0 167 l491 0 l0 -167 l-491 0 ZM228 500 l0 175 l178 0 l0 -175 l-178 0 Z" /><glyph glyph-name="oslash" unicode="ø" d="M327 -13 q-82 0 -152 38 l-28 -30 l-133 0 l83 92 q-68 77 -68 183 q0 117 85.5 200 q85.5 83 214.5 83 q83 0 151 -38 l29 31 l133 0 q-63 -69 -83 -92 q68 -77 68 -184 q0 -117 -85.5 -200 q-85.5 -83 -214.5 -83 ZM329 140 q54 0 87.5 37.5 q33.5 37.5 33.5 92.5 q0 25 -10 52 l-155 -174 q21 -8 44 -8 ZM216 218 l156 173 q-19 9 -45 9 q-54 0 -87.5 -37.5 q-33.5 -37.5 -33.5 -92.5 q0 -25 10 -52 Z" /><glyph glyph-name="ugrave" unicode="ù" d="M231 -12 q-86 0 -135 53 q-49 53 -49 146 l0 354 l190 0 l0 -293 q0 -43 21 -67 q21 -24 56 -24 q35 0 57 24 q22 24 22 67 l0 293 l190 0 l0 -541 l-190 0 l0 74 q-67 -86 -162 -86 ZM272 587 l-147 128 l177 57 l104 -185 l-134 0 Z" /><glyph glyph-name="uacute" unicode="ú" d="M231 -12 q-86 0 -135 53 q-49 53 -49 146 l0 354 l190 0 l0 -293 q0 -43 21 -67 q21 -24 56 -24 q35 0 57 24 q22 24 22 67 l0 293 l190 0 l0 -541 l-190 0 l0 74 q-67 -86 -162 -86 ZM228 587 l104 185 l177 -57 l-147 -128 l-134 0 Z" /><glyph glyph-name="ucircumflex" unicode="û" d="M231 -12 q-86 0 -135 53 q-49 53 -49 146 l0 354 l190 0 l0 -293 q0 -43 21 -67 q21 -24 56 -24 q35 0 57 24 q22 24 22 67 l0 293 l190 0 l0 -541 l-190 0 l0 74 q-67 -86 -162 -86 ZM112 587 l128 165 l154 0 l128 -165 l-122 0 l-84 61 l-84 -61 l-120 0 Z" /><glyph glyph-name="udieresis" unicode="ü" d="M231 -12 q-86 0 -135 53 q-49 53 -49 146 l0 354 l190 0 l0 -293 q0 -43 21 -67 q21 -24 56 -24 q35 0 57 24 q22 24 22 67 l0 293 l190 0 l0 -541 l-190 0 l0 74 q-67 -86 -162 -86 ZM125 587 l0 143 l165 0 l0 -143 l-165 0 ZM344 587 l0 143 l165 0 l0 -143 l-165 0 Z" /><glyph glyph-name="yacute" unicode="ý" d="M211 -163 q-90 0 -174 47 l59 133 q48 -29 83 -29 q28 0 44 22 l-212 531 l199 0 l108 -326 l102 326 l195 0 l-198 -528 q-36 -96 -81 -136 q-45 -40 -125 -40 ZM226 587 l104 185 l177 -57 l-147 -128 l-134 0 Z" /><glyph glyph-name="thorn" unicode="þ" d="M51 -160 l0 890 l190 0 l0 -261 q69 84 164 84 q100 0 170 -77.5 q70 -77.5 70 -204.5 q0 -128 -69.5 -205.5 q-69.5 -77.5 -169.5 -77.5 q-98 0 -165 78 l0 -226 l-190 0 ZM347 147 q47 0 79 35 q32 35 32 90 q0 53 -32 87.5 q-32 34.5 -79 34.5 q-46 0 -78 -35 q-32 -35 -32 -89 q0 -53 32 -88 q32 -35 78 -35 Z" /><glyph glyph-name="ydieresis" unicode="ÿ" d="M211 -163 q-90 0 -174 47 l59 133 q48 -29 83 -29 q28 0 44 22 l-212 531 l199 0 l108 -326 l102 326 l195 0 l-198 -528 q-36 -96 -81 -136 q-45 -40 -125 -40 ZM120 587 l0 143 l165 0 l0 -143 l-165 0 ZM339 587 l0 143 l165 0 l0 -143 l-165 0 Z" /><glyph glyph-name="dotlessi" unicode="&#x131;" d="M55 0 l0 541 l190 0 l0 -541 l-190 0 Z" /><glyph glyph-name="Lslash" unicode="&#x141;" d="M107 0 l0 245 l-76 -22 l0 173 l76 22 l0 282 l193 0 l0 -224 l177 52 l0 -174 l-177 -52 l0 -132 l338 0 l0 -170 l-531 0 Z" /><glyph glyph-name="lslash" unicode="&#x142;" d="M106 0 l0 264 l-82 -24 l0 170 l82 24 l0 296 l189 0 l0 -242 l82 24 l0 -171 l-82 -24 l0 -317 l-189 0 Z" /><glyph glyph-name="OE" unicode="&#x152;" d="M433 0 q-184 0 -289.5 96 q-105.5 96 -105.5 252 q0 156 107 254 q107 98 292 98 l598 0 l0 -165 l-349 0 l0 -106 l314 0 l0 -153 l-314 0 l0 -111 l354 0 l0 -165 l-607 0 ZM428 169 l66 0 l0 362 l-66 0 q-87 0 -139 -48.5 q-52 -48.5 -52 -133.5 q0 -83 52.5 -131.5 q52.5 -48.5 138.5 -48.5 Z" /><glyph glyph-name="oe" unicode="&#x153;" d="M320 -13 q-122 0 -206.5 82.5 q-84.5 82.5 -84.5 200.5 q0 117 85.5 200 q85.5 83 209.5 83 q122 0 200 -81 q73 81 189 81 q131 0 200.5 -84.5 q69.5 -84.5 69.5 -211.5 q0 -13 -2 -39 l-361 0 q23 -89 116 -89 q65 0 121 55 l105 -87 q-88 -110 -232 -110 q-130 0 -208 81 q-79 -81 -202 -81 ZM326 148 q50 0 80.5 35 q30.5 35 30.5 87 q0 50 -32 86 q-32 36 -81 36 q-49 0 -79.5 -35.5 q-30.5 -35.5 -30.5 -86.5 q0 -50 32 -86 q32 -36 80 -36 ZM617 315 l188 0 q-5 45 -30 71.5 q-25 26.5 -64 26.5 q-37 0 -61.5 -26.5 q-24.5 -26.5 -32.5 -71.5 Z" /><glyph glyph-name="Scaron" unicode="&#x160;" d="M337 -12 q-198 0 -328 116 l108 129 q105 -84 227 -84 q80 0 80 50 q0 22 -24 36.5 q-24 14.5 -94 30.5 q-64 15 -105.5 29.5 q-41.5 14.5 -81 39 q-39.5 24.5 -58.5 62.5 q-19 38 -19 91 q0 99 73.5 161.5 q73.5 62.5 197.5 62.5 q172 0 288 -93 l-97 -137 q-98 69 -196 69 q-34 0 -52 -13 q-18 -13 -18 -34 q0 -24 24.5 -38 q24.5 -14 96.5 -30 q132 -29 196.5 -77.5 q64.5 -48.5 64.5 -142.5 q0 -106 -77 -167 q-77 -61 -206 -61 ZM243 747 l-128 165 l122 0 l84 -61 l84 61 l120 0 l-128 -165 l-154 0 Z" /><glyph glyph-name="scaron" unicode="&#x161;" d="M266 -12 q-145 0 -256 80 l71 115 q94 -62 186 -62 q48 0 48 31 q0 15 -19.5 24 q-19.5 9 -67.5 22 q-95 26 -143.5 62.5 q-48.5 36.5 -48.5 112.5 q0 84 60.5 131.5 q60.5 47.5 156.5 47.5 q125 0 223 -63 l-65 -120 q-90 50 -160 50 q-44 0 -44 -28 q0 -14 19 -23.5 q19 -9.5 69 -24.5 q46 -13 76 -25.5 q30 -12.5 59 -32.5 q29 -20 43 -48.5 q14 -28.5 14 -67.5 q0 -87 -60 -134 q-60 -47 -161 -47 ZM182 587 l-128 165 l122 0 l84 -61 l84 61 l120 0 l-128 -165 l-154 0 Z" /><glyph glyph-name="Ydieresis" unicode="&#x178;" d="M264 0 l0 262 l-266 438 l221 0 l144 -255 l145 255 l217 0 l-266 -435 l0 -265 l-195 0 ZM170 747 l0 143 l165 0 l0 -143 l-165 0 ZM389 747 l0 143 l165 0 l0 -143 l-165 0 Z" /><glyph glyph-name="Zcaron" unicode="&#x17d;" d="M40 0 l0 141 l351 395 l-339 0 l0 164 l607 0 l0 -141 l-351 -395 l351 0 l0 -164 l-619 0 ZM277 747 l-128 165 l122 0 l84 -61 l84 61 l120 0 l-128 -165 l-154 0 Z" /><glyph glyph-name="zcaron" unicode="&#x17e;" d="M32 0 l0 125 l250 265 l-241 0 l0 151 l493 0 l0 -125 l-251 -265 l251 0 l0 -151 l-502 0 ZM207 587 l-128 165 l122 0 l84 -61 l84 61 l120 0 l-128 -165 l-154 0 Z" /><glyph glyph-name="florin" unicode="&#x192;" d="M111 -10 q-42 0 -86 10 l0 138 q29 -6 47 -6 q32 0 47 14.5 q15 14.5 22 50.5 l23 132 l-61 0 l0 144 l86 0 l13 65 q16 88 69 130 q53 42 149 42 q64 0 110 -13 l0 -140 q-36 9 -67 9 q-35 0 -53.5 -14.5 q-18.5 -14.5 -24.5 -48.5 l-5 -30 l114 0 l0 -144 l-140 0 l-28 -157 q-17 -99 -67 -140.5 q-50 -41.5 -148 -41.5 Z" /><glyph glyph-name="circumflex" unicode="&#x2c6;" d="M45 587 l128 165 l154 0 l128 -165 l-122 0 l-84 61 l-84 -61 l-120 0 Z" /><glyph glyph-name="caron" unicode="&#x2c7;" d="M173 587 l-128 165 l122 0 l84 -61 l84 61 l120 0 l-128 -165 l-154 0 Z" /><glyph glyph-name="breve" unicode="&#x2d8;" d="M387 629 q-53 -44 -137 -44 q-84 0 -137 44 q-53 44 -60 123 l111 0 q20 -58 86 -58 q66 0 86 58 l111 0 q-7 -79 -60 -123 Z" /><glyph glyph-name="dotaccent" unicode="&#x2d9;" d="M165 587 l0 143 l170 0 l0 -143 l-170 0 Z" /><glyph glyph-name="ring" unicode="&#x2da;" d="M343 629 q-40 -38 -93 -38 q-53 0 -93 38.5 q-40 38.5 -40 90.5 q0 51 40 88.5 q40 37.5 93 37.5 q53 0 93 -37.5 q40 -37.5 40 -90.5 q0 -51 -40 -89 ZM202.5 671.5 q19.5 -19.5 47.5 -19.5 q28 0 47.5 20 q19.5 20 19.5 48 q0 26 -19.5 45.5 q-19.5 19.5 -47.5 19.5 q-28 0 -47.5 -19.5 q-19.5 -19.5 -19.5 -47.5 q0 -27 19.5 -46.5 Z" /><glyph glyph-name="ogonek" unicode="&#x2db;" d="M326 -167 q-82 0 -125 28.5 q-43 28.5 -43 80.5 q0 34 19 68 l122 0 q-5 -18 -5 -34 q0 -57 87 -58 l0 -82 q-30 -3 -55 -3 Z" /><glyph glyph-name="tilde" unicode="&#x2dc;" d="M130 580 l-91 25 q16 77 45 113 q29 36 79 36 q33 0 88 -19.5 q55 -19.5 68 -19.5 q20 0 30 10.5 q10 10.5 21 35.5 l91 -25 q-16 -77 -45 -113 q-29 -36 -79 -36 q-33 0 -88 19.5 q-55 19.5 -68 19.5 q-20 0 -30 -10.5 q-10 -10.5 -21 -35.5 Z" /><glyph glyph-name="hungarumlaut" unicode="&#x2dd;" d="M30 588 l99 184 l156 -54 l30 54 l166 -57 l-143 -127 l-123 0 l59 108 l-120 -108 l-124 0 Z" /><glyph glyph-name="Omega" unicode="&#x3a9;" d="M51 0 l0 145 l173 0 l0 19 q-84 22 -128.5 91.5 q-44.5 69.5 -44.5 159.5 q0 143 96 221 q96 78 243 78 q143 0 239.5 -79.5 q96.5 -79.5 96.5 -218.5 q0 -88 -45.5 -161.5 q-45.5 -73.5 -127.5 -90.5 l0 -19 l172 0 l0 -145 l-302 0 l0 242 q62 9 94.5 57.5 q32.5 48.5 32.5 109.5 q0 67 -43.5 112.5 q-43.5 45.5 -117.5 45.5 q-74 0 -117 -47.5 q-43 -47.5 -43 -115.5 q0 -60 31.5 -106.5 q31.5 -46.5 92.5 -55.5 l0 -242 l-302 0 Z" /><glyph glyph-name="pi" unicode="&#x3c0;" d="M0 0 l0 700 l500 0 l0 -700 l-500 0 ZM81 49 l339 0 l-170 255 l-169 -255 ZM49 96 l171 254 l-171 254 l0 -508 ZM450 96 l0 508 l-171 -254 l171 -254 ZM250 395 l170 255 l-339 0 l169 -255 Z" /><glyph glyph-name="afii10023" unicode="&#x401;" d="M62 0 l0 700 l563 0 l0 -165 l-371 0 l0 -106 l336 0 l0 -153 l-336 0 l0 -111 l376 0 l0 -165 l-568 0 ZM159 747 l0 143 l165 0 l0 -143 l-165 0 ZM378 747 l0 143 l165 0 l0 -143 l-165 0 Z" /><glyph glyph-name="afii10051" unicode="&#x402;" d="M566 -67 q-63 0 -113 13 l21 168 q12 -2 39 -2 q95 0 95 84 q0 39 -25.5 62 q-25.5 23 -72.5 23 q-71 0 -113 -38 l0 -243 l-194 0 l0 530 l-180 0 l0 170 l614 0 l0 -170 l-240 0 l0 -115 q77 45 169 45 q111 0 177.5 -65 q66.5 -65 66.5 -195 q0 -132 -66.5 -199.5 q-66.5 -67.5 -177.5 -67.5 Z" /><glyph glyph-name="afii10052" unicode="&#x403;" d="M62 0 l0 700 l504 0 l0 -170 l-310 0 l0 -530 l-194 0 ZM207 747 l104 185 l177 -57 l-147 -128 l-134 0 Z" /><glyph glyph-name="afii10053" unicode="&#x404;" d="M399 -14 q-152 0 -256.5 103.5 q-104.5 103.5 -104.5 260.5 q0 154 105.5 259 q105.5 105 263.5 105 q173 0 281 -131 l-131 -112 q-62 70 -152 70 q-57 0 -99 -33 q-42 -33 -61 -86 l227 0 l0 -137 l-230 0 q17 -57 60 -92 q43 -35 103 -35 q87 0 155 76 l141 -100 q-112 -148 -302 -148 Z" /><glyph glyph-name="afii10054" unicode="&#x405;" d="M337 -12 q-198 0 -328 116 l108 129 q105 -84 227 -84 q80 0 80 50 q0 22 -24 36.5 q-24 14.5 -94 30.5 q-64 15 -105.5 29.5 q-41.5 14.5 -81 39 q-39.5 24.5 -58.5 62.5 q-19 38 -19 91 q0 99 73.5 161.5 q73.5 62.5 197.5 62.5 q172 0 288 -93 l-97 -137 q-98 69 -196 69 q-34 0 -52 -13 q-18 -13 -18 -34 q0 -24 24.5 -38 q24.5 -14 96.5 -30 q132 -29 196.5 -77.5 q64.5 -48.5 64.5 -142.5 q0 -106 -77 -167 q-77 -61 -206 -61 Z" /><glyph glyph-name="afii10055" unicode="&#x406;" d="M66 0 l0 700 l195 0 l0 -700 l-195 0 Z" /><glyph glyph-name="afii10056" unicode="&#x407;" d="M66 0 l0 700 l195 0 l0 -700 l-195 0 ZM-28 747 l0 143 l165 0 l0 -143 l-165 0 ZM191 747 l0 143 l165 0 l0 -143 l-165 0 Z" /><glyph glyph-name="afii10057" unicode="&#x408;" d="M250 -12 q-160 0 -246 118 l125 118 q54 -65 109 -65 q38 0 59 25 q21 25 21 73 l0 443 l193 0 l0 -444 q0 -128 -69 -197 q-71 -71 -192 -71 Z" /><glyph glyph-name="afii10058" unicode="&#x409;" d="M102 -10 q-68 0 -116 16 l13 149 q18 -4 45 -4 q20 0 33 6 q13 6 28.5 31.5 q15.5 25.5 24.5 72 q9 46.5 15 133 q6 86.5 6 209.5 l0 97 l538 0 l0 -220 l106 0 q131 0 211 -61.5 q80 -61.5 80 -176.5 q0 -113 -76 -177.5 q-76 -64.5 -205 -64.5 l-310 0 l0 530 l-163 0 l0 -27 q0 -125 -11 -217 q-11 -92 -30.5 -148.5 q-19.5 -56.5 -49.5 -90 q-30 -33.5 -62.5 -45.5 q-32.5 -12 -76.5 -12 ZM689 163 l101 0 q49 0 75.5 21.5 q26.5 21.5 26.5 62.5 q0 37 -27 59 q-27 22 -74 22 l-102 0 l0 -165 Z" /><glyph glyph-name="afii10059" unicode="&#x40a;" d="M62 0 l0 700 l194 0 l0 -246 l249 0 l0 246 l194 0 l0 -246 l116 0 q127 0 204 -57.5 q77 -57.5 77 -167.5 q0 -108 -73 -168.5 q-73 -60.5 -198 -60.5 l-320 0 l0 282 l-249 0 l0 -282 l-194 0 ZM699 163 l111 0 q44 0 68 19 q24 19 24 55 q0 33 -24.5 52 q-24.5 19 -66.5 19 l-112 0 l0 -145 Z" /><glyph glyph-name="afii10060" unicode="&#x40b;" d="M203 0 l0 530 l-180 0 l0 170 l614 0 l0 -170 l-240 0 l0 -115 q77 45 169 45 q109 0 176.5 -60.5 q67.5 -60.5 67.5 -168.5 l0 -231 l-194 0 l0 150 q0 131 -96 131 q-81 0 -123 -38 l0 -243 l-194 0 Z" /><glyph glyph-name="afii10061" unicode="&#x40c;" d="M62 0 l0 700 l194 0 l0 -284 l241 284 l230 0 l-265 -301 l274 -399 l-233 0 l-176 260 l-71 -79 l0 -181 l-194 0 ZM294 747 l104 185 l177 -57 l-147 -128 l-134 0 Z" /><glyph glyph-name="afii10062" unicode="&#x40e;" d="M226 -10 q-89 0 -168 47 l76 140 q36 -24 79 -24 q35 0 61 30 l-274 517 l216 0 l159 -329 l150 329 l211 0 l-273 -534 q-48 -95 -102.5 -135.5 q-54.5 -40.5 -134.5 -40.5 ZM375 745 q-72 0 -118.5 40 q-46.5 40 -57.5 113 l106 19 q22 -60 70 -60 q49 0 71 60 l106 -19 q-11 -73 -57.5 -113 q-46.5 -40 -119.5 -40 Z" /><glyph glyph-name="afii10145" unicode="&#x40f;" d="M280 -140 l0 140 l-218 0 l0 700 l194 0 l0 -530 l239 0 l0 530 l194 0 l0 -700 l-223 0 l0 -140 l-186 0 Z" /><glyph glyph-name="afii10017" unicode="&#x410;" d="M6 0 l298 705 l187 0 l298 -705 l-208 0 l-51 125 l-270 0 l-50 -125 l-204 0 ZM317 276 l157 0 l-78 199 l-79 -199 Z" /><glyph glyph-name="afii10018" unicode="&#x411;" d="M62 0 l0 700 l563 0 l0 -165 l-369 0 l0 -81 l135 0 q127 0 204 -57.5 q77 -57.5 77 -167.5 q0 -108 -73 -168.5 q-73 -60.5 -198 -60.5 l-339 0 ZM256 163 l130 0 q44 0 68 19 q24 19 24 55 q0 33 -24.5 52 q-24.5 19 -66.5 19 l-131 0 l0 -145 Z" /><glyph glyph-name="afii10019" unicode="&#x412;" d="M62 0 l0 700 l359 0 q128 0 191 -63 q45 -45 45 -115 q0 -109 -108 -156 q68 -22 103.5 -63 q35.5 -41 35.5 -110 q0 -90 -70 -141.5 q-70 -51.5 -195 -51.5 l-361 0 ZM251 156 l150 0 q93 0 93 66 q0 63 -95 63 l-148 0 l0 -129 ZM251 421 l122 0 q92 0 92 63 q0 60 -88 60 l-126 0 l0 -123 Z" /><glyph glyph-name="afii10020" unicode="&#x413;" d="M62 0 l0 700 l504 0 l0 -170 l-310 0 l0 -530 l-194 0 Z" /><glyph glyph-name="afii10021" unicode="&#x414;" d="M10 -140 l0 310 l62 0 q38 102 54.5 213 q16.5 111 16.5 299 l0 18 l533 0 l0 -530 l79 0 l-22 -310 l-164 0 l0 140 l-372 0 l-13 -140 l-174 0 ZM275 170 l207 0 l0 360 l-152 0 l0 -7 q0 -188 -55 -353 Z" /><glyph glyph-name="afii10022" unicode="&#x415;" d="M62 0 l0 700 l563 0 l0 -165 l-371 0 l0 -106 l336 0 l0 -153 l-336 0 l0 -111 l376 0 l0 -165 l-568 0 Z" /><glyph glyph-name="afii10024" unicode="&#x416;" d="M-6 0 l258 405 l-249 295 l227 0 l221 -284 l0 284 l194 0 l0 -284 l221 284 l227 0 l-249 -295 l258 -405 l-230 0 l-160 264 l-67 -78 l0 -186 l-194 0 l0 186 l-67 78 l-160 -264 l-230 0 Z" /><glyph glyph-name="afii10025" unicode="&#x417;" d="M332 -13 q-111 0 -183 29.5 q-72 29.5 -138 87.5 l101 129 q83 -83 197 -83 q52 0 79.5 19 q27.5 19 27.5 50 q0 62 -112 62 l-73 0 l0 144 l71 0 q99 0 99 64 q0 27 -24 44 q-24 17 -64 17 q-45 0 -96 -19.5 q-51 -19.5 -84 -49.5 l-96 114 q121 119 293 119 q116 0 189 -53.5 q73 -53.5 73 -135.5 q0 -110 -105 -159 q123 -42 123 -162 q0 -95 -75.5 -156 q-75.5 -61 -202.5 -61 Z" /><glyph glyph-name="afii10026" unicode="&#x418;" d="M62 0 l0 700 l192 0 l0 -394 l271 394 l181 0 l0 -700 l-192 0 l0 394 l-271 -394 l-181 0 Z" /><glyph glyph-name="afii10027" unicode="&#x419;" d="M62 0 l0 700 l192 0 l0 -394 l271 394 l181 0 l0 -700 l-192 0 l0 394 l-271 -394 l-181 0 ZM390 745 q-72 0 -118.5 40 q-46.5 40 -57.5 113 l106 19 q22 -60 70 -60 q49 0 71 60 l106 -19 q-11 -73 -57.5 -113 q-46.5 -40 -119.5 -40 Z" /><glyph glyph-name="afii10028" unicode="&#x41a;" d="M62 0 l0 700 l194 0 l0 -284 l241 284 l230 0 l-265 -301 l274 -399 l-233 0 l-176 260 l-71 -79 l0 -181 l-194 0 Z" /><glyph glyph-name="afii10029" unicode="&#x41b;" d="M102 -10 q-68 0 -116 16 l13 149 q18 -4 45 -4 q20 0 33 6 q13 6 28.5 31.5 q15.5 25.5 24.5 72 q9 46.5 15 133 q6 86.5 6 209.5 l0 97 l538 0 l0 -700 l-194 0 l0 530 l-163 0 l0 -27 q0 -125 -11 -217 q-11 -92 -30.5 -148.5 q-19.5 -56.5 -49.5 -90 q-30 -33.5 -62.5 -45.5 q-32.5 -12 -76.5 -12 Z" /><glyph glyph-name="afii10030" unicode="&#x41c;" d="M62 0 l0 700 l205 0 l167 -271 l167 271 l205 0 l0 -700 l-193 0 l0 402 l-179 -274 l-4 0 l-178 272 l0 -400 l-190 0 Z" /><glyph glyph-name="afii10031" unicode="&#x41d;" d="M62 0 l0 700 l194 0 l0 -262 l249 0 l0 262 l194 0 l0 -700 l-194 0 l0 266 l-249 0 l0 -266 l-194 0 Z" /><glyph glyph-name="afii10032" unicode="&#x41e;" d="M683.5 92 q-108.5 -106 -269.5 -106 q-161 0 -268.5 105.5 q-107.5 105.5 -107.5 258.5 q0 152 108.5 258 q108.5 106 269.5 106 q161 0 268.5 -105.5 q107.5 -105.5 107.5 -258.5 q0 -152 -108.5 -258 ZM416 161 q79 0 128.5 55 q49.5 55 49.5 134 q0 78 -51 133.5 q-51 55.5 -129 55.5 q-78 0 -127.5 -55 q-49.5 -55 -49.5 -134 q0 -78 50.5 -133.5 q50.5 -55.5 128.5 -55.5 Z" /><glyph glyph-name="afii10033" unicode="&#x41f;" d="M62 0 l0 700 l627 0 l0 -700 l-194 0 l0 530 l-239 0 l0 -530 l-194 0 Z" /><glyph glyph-name="afii10034" unicode="&#x420;" d="M62 0 l0 700 l300 0 q134 0 212.5 -65.5 q78.5 -65.5 78.5 -182.5 q0 -120 -83 -186 q-83 -66 -218 -66 l-96 0 l0 -200 l-194 0 ZM256 352 l92 0 q52 0 81.5 25 q29.5 25 29.5 68 q0 45 -29.5 68.5 q-29.5 23.5 -82.5 23.5 l-91 0 l0 -185 Z" /><glyph glyph-name="afii10035" unicode="&#x421;" d="M399 -14 q-152 0 -256.5 103.5 q-104.5 103.5 -104.5 260.5 q0 154 105.5 259 q105.5 105 263.5 105 q187 0 294 -148 l-142 -110 q-65 81 -154 81 q-73 0 -120 -54 q-47 -54 -47 -133 q0 -80 47 -133.5 q47 -53.5 120 -53.5 q51 0 87 21.5 q36 21.5 71 63.5 l146 -104 q-55 -75 -128 -116.5 q-73 -41.5 -182 -41.5 Z" /><glyph glyph-name="afii10036" unicode="&#x422;" d="M233 0 l0 530 l-210 0 l0 170 l614 0 l0 -170 l-210 0 l0 -530 l-194 0 Z" /><glyph glyph-name="afii10037" unicode="&#x423;" d="M226 -10 q-89 0 -168 47 l76 140 q36 -24 79 -24 q35 0 61 30 l-274 517 l216 0 l159 -329 l150 329 l211 0 l-273 -534 q-48 -95 -102.5 -135.5 q-54.5 -40.5 -134.5 -40.5 Z" /><glyph glyph-name="afii10038" unicode="&#x424;" d="M381 -30 l0 78 q-166 0 -260.5 87.5 q-94.5 87.5 -94.5 226.5 q0 136 95 221 q95 85 260 85 l0 62 l195 0 l0 -62 q165 0 260 -85 q95 -85 95 -221 q0 -139 -94.5 -226.5 q-94.5 -87.5 -260.5 -87.5 l0 -78 l-195 0 ZM381 220 l0 276 q-70 0 -113 -36.5 q-43 -36.5 -43 -100.5 q0 -66 42.5 -102.5 q42.5 -36.5 113.5 -36.5 ZM576 220 q71 0 113.5 36.5 q42.5 36.5 42.5 102.5 q0 64 -43 100.5 q-43 36.5 -113 36.5 l0 -276 Z" /><glyph glyph-name="afii10039" unicode="&#x425;" d="M11 0 l240 356 l-230 344 l223 0 l124 -197 l125 197 l218 0 l-230 -342 l240 -358 l-223 0 l-134 211 l-135 -211 l-218 0 Z" /><glyph glyph-name="afii10040" unicode="&#x426;" d="M582 -140 l0 140 l-520 0 l0 700 l194 0 l0 -530 l239 0 l0 530 l194 0 l0 -530 l79 0 l-22 -310 l-164 0 Z" /><glyph glyph-name="afii10041" unicode="&#x427;" d="M455 0 l0 245 q-77 -45 -179 -45 q-110 0 -172 62 q-62 62 -62 172 l0 266 l194 0 l0 -211 q0 -57 22.5 -83.5 q22.5 -26.5 73.5 -26.5 q76 0 123 38 l0 283 l194 0 l0 -700 l-194 0 Z" /><glyph glyph-name="afii10042" unicode="&#x428;" d="M62 0 l0 700 l194 0 l0 -530 l199 0 l0 530 l194 0 l0 -530 l199 0 l0 530 l194 0 l0 -700 l-980 0 Z" /><glyph glyph-name="afii10043" unicode="&#x429;" d="M935 -140 l0 140 l-873 0 l0 700 l194 0 l0 -530 l199 0 l0 530 l194 0 l0 -530 l199 0 l0 530 l194 0 l0 -530 l79 0 l-22 -310 l-164 0 Z" /><glyph glyph-name="afii10044" unicode="&#x42a;" d="M179 0 l0 530 l-159 0 l0 170 l353 0 l0 -220 l106 0 q131 0 211 -61.5 q80 -61.5 80 -176.5 q0 -113 -76 -177.5 q-76 -64.5 -205 -64.5 l-310 0 ZM373 163 l101 0 q49 0 75.5 21.5 q26.5 21.5 26.5 62.5 q0 37 -27 59 q-27 22 -74 22 l-102 0 l0 -165 Z" /><glyph glyph-name="afii10045" unicode="&#x42b;" d="M62 0 l0 700 l194 0 l0 -220 l106 0 q131 0 211 -61.5 q80 -61.5 80 -176.5 q0 -113 -76 -177.5 q-76 -64.5 -205 -64.5 l-310 0 ZM256 163 l101 0 q49 0 75.5 21.5 q26.5 21.5 26.5 62.5 q0 37 -27 59 q-27 22 -74 22 l-102 0 l0 -165 ZM735 0 l0 700 l194 0 l0 -700 l-194 0 Z" /><glyph glyph-name="afii10046" unicode="&#x42c;" d="M62 0 l0 700 l194 0 l0 -220 l106 0 q131 0 211 -61.5 q80 -61.5 80 -176.5 q0 -113 -76 -177.5 q-76 -64.5 -205 -64.5 l-310 0 ZM256 163 l101 0 q49 0 75.5 21.5 q26.5 21.5 26.5 62.5 q0 37 -27 59 q-27 22 -74 22 l-102 0 l0 -165 Z" /><glyph glyph-name="afii10047" unicode="&#x42d;" d="M330 -14 q-190 0 -302 148 l141 100 q68 -76 155 -76 q59 0 102 35 q43 35 60 92 l-229 0 l0 137 l227 0 q-19 53 -61 86 q-42 33 -99 33 q-90 0 -152 -70 l-131 112 q108 131 281 131 q158 0 263.5 -105 q105.5 -105 105.5 -259 q0 -157 -104.5 -260.5 q-104.5 -103.5 -256.5 -103.5 Z" /><glyph glyph-name="afii10048" unicode="&#x42e;" d="M684 -14 q-132 0 -226.5 78.5 q-94.5 78.5 -120.5 201.5 l-81 0 l0 -266 l-194 0 l0 700 l194 0 l0 -262 l82 0 q28 121 122.5 198.5 q94.5 77.5 225.5 77.5 q155 0 255 -105 q100 -105 100 -259 q0 -152 -101 -258 q-101 -106 -256 -106 ZM571.5 215 q44.5 -55 114.5 -55 q70 0 114 54 q44 54 44 136 q0 80 -45 135 q-45 55 -115 55 q-70 0 -113.5 -54.5 q-43.5 -54.5 -43.5 -135.5 q0 -80 44.5 -135 Z" /><glyph glyph-name="afii10049" unicode="&#x42f;" d="M30 0 l167 244 q-144 61 -144 217 q0 117 81.5 178 q81.5 61 208.5 61 l331 0 l0 -700 l-194 0 l0 212 l-85 0 l-141 -212 l-224 0 ZM352 361 l128 0 l0 174 l-127 0 q-49 0 -77 -23 q-28 -23 -28 -65 q0 -39 27.5 -62.5 q27.5 -23.5 76.5 -23.5 Z" /><glyph glyph-name="afii10065" unicode="&#x430;" d="M206 -12 q-80 0 -131 44.5 q-51 44.5 -51 124.5 q0 82 57 126 q57 44 155 44 q71 0 130 -21 l0 9 q0 88 -108 88 q-73 0 -149 -30 l-39 134 q102 42 219 42 q140 0 206 -66 q58 -57 58 -172 l0 -311 l-188 0 l0 56 q-61 -68 -159 -68 ZM274 107 q42 0 68 24.5 q26 24.5 26 64.5 l0 25 q-33 14 -74 14 q-41 0 -64 -18.5 q-23 -18.5 -23 -50.5 q0 -27 18.5 -43 q18.5 -16 48.5 -16 Z" /><glyph glyph-name="afii10066" unicode="&#x431;" d="M337 -13 q-289 0 -289 335 q0 53 4.5 96 q4.5 43 19.5 91.5 q15 48.5 40.5 83 q25.5 34.5 70.5 61.5 q45 27 106 37 l276 45 l23 -147 l-284 -52 q-44 -8 -73 -30.5 q-29 -22.5 -38 -41.5 q-9 -19 -10 -37 q15 25 64.5 52.5 q49.5 27.5 121.5 27.5 q106 0 182 -68.5 q76 -68.5 76 -177.5 q0 -115 -83 -195 q-83 -80 -207 -80 ZM339 148 q46 0 74.5 32 q28.5 32 28.5 80 q0 46 -30 79 q-30 33 -75 33 q-46 0 -74.5 -32 q-28.5 -32 -28.5 -80 q0 -46 30 -79 q30 -33 75 -33 Z" /><glyph glyph-name="afii10067" unicode="&#x432;" d="M51 0 l0 541 l321 0 q99 0 148 -49 q35 -33 35 -88 q0 -84 -84 -121 q52 -17 77.5 -48.5 q25.5 -31.5 25.5 -85.5 q0 -70 -54 -109.5 q-54 -39.5 -151 -39.5 l-318 0 ZM236 123 l78 0 q33 0 51.5 13.5 q18.5 13.5 18.5 37.5 q0 22 -18.5 36 q-18.5 14 -53.5 14 l-76 0 l0 -101 ZM236 326 l64 0 q32 0 50 13 q18 13 18 35 q0 21 -17 33.5 q-17 12.5 -48 12.5 l-67 0 l0 -94 Z" /><glyph glyph-name="afii10068" unicode="&#x433;" d="M51 0 l0 541 l408 0 l0 -153 l-218 0 l0 -388 l-190 0 Z" /><glyph glyph-name="afii10069" unicode="&#x434;" d="M10 -110 l0 263 l50 0 q25 72 36.5 151 q11.5 79 11.5 211 l0 26 l482 0 l0 -388 l63 0 l-18 -263 l-162 0 l0 110 l-283 0 l-10 -110 l-170 0 ZM254 153 l145 0 l0 237 l-110 0 l0 -9 q-3 -120 -35 -228 Z" /><glyph glyph-name="afii10070" unicode="&#x435;" d="M319 -13 q-128 0 -209 78 q-81 78 -81 205 q0 120 77 201.5 q77 81.5 196 81.5 q133 0 203 -84 q70 -84 70 -212 q0 -26 -1 -39 l-362 0 q23 -89 117 -89 q64 0 120 55 l105 -87 q-87 -110 -235 -110 ZM209 315 l188 0 q-5 45 -30 71.5 q-25 26.5 -64 26.5 q-37 0 -61.5 -26.5 q-24.5 -26.5 -32.5 -71.5 Z" /><glyph glyph-name="afii10072" unicode="&#x436;" d="M-5 0 l190 319 l-185 222 l215 0 l147 -201 l0 201 l190 0 l0 -201 l147 201 l215 0 l-186 -222 l191 -319 l-209 0 l-110 185 l-48 -58 l0 -127 l-190 0 l0 127 l-49 58 l-109 -185 l-209 0 Z" /><glyph glyph-name="afii10073" unicode="&#x437;" d="M244 -14 q-81 0 -132.5 16.5 q-51.5 16.5 -106.5 58.5 l75 118 q31 -24 79.5 -39 q48.5 -15 82.5 -15 q77 0 77 43 q0 45 -75 45 l-68 0 l0 119 l67 0 q63 0 63 46 q0 15 -17 26 q-17 11 -48 11 q-36 0 -78 -15.5 q-42 -15.5 -68 -38.5 l-76 104 q95 88 246 88 q108 0 168 -41 q60 -41 60 -106 q0 -86 -86 -123 q101 -35 101 -126 q0 -77 -65.5 -124 q-65.5 -47 -198.5 -47 Z" /><glyph glyph-name="afii10074" unicode="&#x438;" d="M51 0 l0 541 l184 0 l0 -271 l180 271 l175 0 l0 -541 l-184 0 l0 271 l-180 -271 l-175 0 Z" /><glyph glyph-name="afii10075" unicode="&#x439;" d="M51 0 l0 541 l184 0 l0 -271 l180 271 l175 0 l0 -541 l-184 0 l0 271 l-180 -271 l-175 0 ZM436.5 624 q-43.5 -39 -111.5 -39 q-68 0 -111.5 39 q-43.5 39 -53.5 110 l99 18 q20 -58 66 -58 q46 0 66 58 l99 -18 q-10 -71 -53.5 -110 Z" /><glyph glyph-name="afii10076" unicode="&#x43a;" d="M51 0 l0 541 l190 0 l0 -201 l147 201 l215 0 l-185 -222 l190 -319 l-209 0 l-103 173 l-55 -66 l0 -107 l-190 0 Z" /><glyph glyph-name="afii10077" unicode="&#x43b;" d="M160 1 q-28 -8 -66 -8 q-38 0 -84 8 l8 147 q21 -3 31 -3 q13 0 21 3.5 q8 3.5 18.5 19.5 q10.5 16 16.5 46 q6 30 10.5 86.5 q4.5 56.5 4.5 136.5 l0 104 l467 0 l0 -541 l-190 0 l0 390 l-100 0 l0 -14 q0 -96 -10.5 -165.5 q-10.5 -69.5 -27.5 -111 q-17 -41.5 -44 -66 q-27 -24.5 -55 -32.5 Z" /><glyph glyph-name="afii10078" unicode="&#x43c;" d="M51 0 l0 541 l193 0 l125 -187 l126 187 l193 0 l0 -541 l-190 0 l0 267 l-132 -184 l-128 180 l0 -263 l-187 0 Z" /><glyph glyph-name="afii10079" unicode="&#x43d;" d="M51 0 l0 541 l190 0 l0 -192 l156 0 l0 192 l190 0 l0 -541 l-190 0 l0 196 l-156 0 l0 -196 l-190 0 Z" /><glyph glyph-name="afii10080" unicode="&#x43e;" d="M327 -13 q-128 0 -213 82.5 q-85 82.5 -85 200.5 q0 117 85.5 200 q85.5 83 214.5 83 q128 0 213 -82.5 q85 -82.5 85 -200.5 q0 -117 -85.5 -200 q-85.5 -83 -214.5 -83 ZM329 148 q51 0 82 35 q31 35 31 87 q0 50 -33 86 q-33 36 -82 36 q-51 0 -82 -35 q-31 -35 -31 -87 q0 -50 33 -86 q33 -36 82 -36 Z" /><glyph glyph-name="afii10081" unicode="&#x43f;" d="M51 0 l0 541 l528 0 l0 -541 l-190 0 l0 388 l-148 0 l0 -388 l-190 0 Z" /><glyph glyph-name="afii10082" unicode="&#x440;" d="M51 -160 l0 701 l190 0 l0 -72 q69 84 164 84 q100 0 170 -77.5 q70 -77.5 70 -204.5 q0 -128 -69.5 -205.5 q-69.5 -77.5 -169.5 -77.5 q-98 0 -165 78 l0 -226 l-190 0 ZM347 147 q47 0 79 35 q32 35 32 90 q0 53 -32 87.5 q-32 34.5 -79 34.5 q-46 0 -78 -35 q-32 -35 -32 -89 q0 -53 32 -88 q32 -35 78 -35 Z" /><glyph glyph-name="afii10083" unicode="&#x441;" d="M312 -13 q-121 0 -202 82.5 q-81 82.5 -81 200.5 q0 117 82 199.5 q82 82.5 208 82.5 q155 0 231 -121 l-127 -92 q-38 53 -98 53 q-51 0 -81 -35 q-30 -35 -30 -87 q0 -53 30 -88 q30 -35 78 -35 q32 0 54.5 14 q22.5 14 47.5 43 l129 -93 q-84 -124 -241 -124 Z" /><glyph glyph-name="afii10084" unicode="&#x442;" d="M168 0 l0 388 l-158 0 l0 153 l506 0 l0 -153 l-158 0 l0 -388 l-190 0 Z" /><glyph glyph-name="afii10085" unicode="&#x443;" d="M211 -163 q-90 0 -174 47 l59 133 q48 -29 83 -29 q28 0 44 22 l-212 531 l199 0 l108 -326 l102 326 l195 0 l-198 -528 q-36 -96 -81 -136 q-45 -40 -125 -40 Z" /><glyph glyph-name="afii10086" unicode="&#x444;" d="M354 -160 l0 185 q-52 -34 -105 -34 q-98 0 -158.5 75.5 q-60.5 75.5 -60.5 206.5 q0 128 61 202.5 q61 74.5 159 74.5 q54 0 104 -39 l0 189 l190 0 l0 -189 q48 39 104 39 q98 0 159 -75 q61 -75 61 -204 q0 -130 -60.5 -205 q-60.5 -75 -158.5 -75 q-55 0 -105 34 l0 -185 l-190 0 ZM308 144 q26 0 46 10 l0 232 q-22 11 -46 11 q-45 0 -68 -35 q-23 -35 -23 -92 q0 -57 23 -91.5 q23 -34.5 68 -34.5 ZM590 144 q45 0 68 34.5 q23 34.5 23 93.5 q0 56 -23 90.5 q-23 34.5 -68 34.5 q-24 0 -46 -11 l0 -232 q20 -10 46 -10 Z" /><glyph glyph-name="afii10087" unicode="&#x445;" d="M8 0 l182 273 l-179 268 l205 0 l80 -133 l80 133 l201 0 l-178 -267 l182 -274 l-204 0 l-84 139 l-85 -139 l-200 0 Z" /><glyph glyph-name="afii10088" unicode="&#x446;" d="M462 -110 l0 110 l-411 0 l0 541 l190 0 l0 -388 l148 0 l0 388 l190 0 l0 -388 l63 0 l-18 -263 l-162 0 Z" /><glyph glyph-name="afii10089" unicode="&#x447;" d="M372 0 l0 174 q-53 -24 -134 -24 q-85 0 -138.5 48 q-53.5 48 -53.5 133 l0 210 l191 0 l0 -153 q0 -83 57 -83 q50 0 78 21 l0 215 l190 0 l0 -541 l-190 0 Z" /><glyph glyph-name="afii10090" unicode="&#x448;" d="M51 0 l0 541 l190 0 l0 -388 l133 0 l0 388 l190 0 l0 -388 l133 0 l0 388 l190 0 l0 -541 l-836 0 Z" /><glyph glyph-name="afii10091" unicode="&#x449;" d="M770 -110 l0 110 l-719 0 l0 541 l190 0 l0 -388 l133 0 l0 388 l190 0 l0 -388 l133 0 l0 388 l190 0 l0 -388 l63 0 l-18 -263 l-162 0 Z" /><glyph glyph-name="afii10092" unicode="&#x44a;" d="M136 0 l0 388 l-131 0 l0 153 l321 0 l0 -170 l92 0 q100 0 161.5 -47.5 q61.5 -47.5 61.5 -136.5 q0 -87 -58 -137 q-58 -50 -157 -50 l-290 0 ZM326 134 l59 0 q73 0 73 59 q0 26 -19.5 41 q-19.5 15 -53.5 15 l-59 0 l0 -115 Z" /><glyph glyph-name="afii10093" unicode="&#x44b;" d="M617 0 l0 541 l190 0 l0 -541 l-190 0 ZM51 0 l0 541 l190 0 l0 -170 l92 0 q100 0 161.5 -47.5 q61.5 -47.5 61.5 -136.5 q0 -87 -58 -137 q-58 -50 -157 -50 l-290 0 ZM241 134 l59 0 q73 0 73 59 q0 26 -19.5 41 q-19.5 15 -53.5 15 l-59 0 l0 -115 Z" /><glyph glyph-name="afii10094" unicode="&#x44c;" d="M51 0 l0 541 l190 0 l0 -170 l92 0 q100 0 161.5 -47.5 q61.5 -47.5 61.5 -136.5 q0 -87 -58 -137 q-58 -50 -157 -50 l-290 0 ZM241 134 l59 0 q73 0 73 59 q0 26 -19.5 41 q-19.5 15 -53.5 15 l-59 0 l0 -115 Z" /><glyph glyph-name="afii10095" unicode="&#x44d;" d="M246 -13 q-152 0 -236 117 l118 87 q49 -54 108 -54 q38 0 66.5 21 q28.5 21 41.5 57 l-146 0 l0 109 l146 0 q-13 35 -41.5 56.5 q-28.5 21.5 -64.5 21.5 q-68 0 -110 -54 l-113 93 q76 111 224 111 q126 0 208 -82.5 q82 -82.5 82 -199.5 q0 -118 -81 -200.5 q-81 -82.5 -202 -82.5 Z" /><glyph glyph-name="afii10096" unicode="&#x44e;" d="M586 -13 q-107 0 -181 59 q-74 59 -98 154 l-66 0 l0 -200 l-190 0 l0 541 l190 0 l0 -196 l68 0 q26 92 100 150 q74 58 179 58 q127 0 207 -81.5 q80 -81.5 80 -201.5 q0 -118 -80.5 -200.5 q-80.5 -82.5 -208.5 -82.5 ZM588 148 q50 0 76 34.5 q26 34.5 26 87.5 q0 52 -28 87 q-28 35 -76 35 q-50 0 -76 -34.5 q-26 -34.5 -26 -87.5 q0 -52 28 -87 q28 -35 76 -35 Z" /><glyph glyph-name="afii10097" unicode="&#x44f;" d="M13 0 l127 188 q-100 48 -100 164 q0 82 50 129 q57 60 177 60 l301 0 l0 -541 l-191 0 l0 156 l-43 0 l-104 -156 l-217 0 ZM302 288 l75 0 l0 110 l-75 0 q-70 0 -70 -56 q0 -54 70 -54 Z" /><glyph glyph-name="afii10071" unicode="&#x451;" d="M319 -13 q-128 0 -209 78 q-81 78 -81 205 q0 120 77 201.5 q77 81.5 196 81.5 q133 0 203 -84 q70 -84 70 -212 q0 -26 -1 -39 l-362 0 q23 -89 117 -89 q64 0 120 55 l105 -87 q-87 -110 -235 -110 ZM209 315 l188 0 q-5 45 -30 71.5 q-25 26.5 -64 26.5 q-37 0 -61.5 -26.5 q-24.5 -26.5 -32.5 -71.5 ZM110 587 l0 143 l165 0 l0 -143 l-165 0 ZM329 587 l0 143 l165 0 l0 -143 l-165 0 Z" /><glyph glyph-name="afii10099" unicode="&#x452;" d="M403 -14 q-60 0 -107 14 l10 153 q5 -1 15 -1 q35 0 55.5 24 q20.5 24 20.5 67 q0 43 -20.5 67 q-20.5 24 -55.5 24 q-36 0 -58 -24 q-22 -24 -22 -67 l0 -243 l-190 0 l0 541 l-63 0 l0 128 l63 0 l0 61 l190 0 l0 -61 l157 0 l0 -128 l-157 0 l0 -124 q67 86 162 86 q86 0 135 -53.5 q49 -53.5 49 -145.5 l0 -119 q0 -93 -49 -146 q-49 -53 -135 -53 Z" /><glyph glyph-name="afii10100" unicode="&#x453;" d="M51 0 l0 541 l408 0 l0 -153 l-218 0 l0 -388 l-190 0 ZM144 587 l104 185 l177 -57 l-147 -128 l-134 0 Z" /><glyph glyph-name="afii10101" unicode="&#x454;" d="M312 -13 q-121 0 -202 82.5 q-81 82.5 -81 200.5 q0 117 82 199.5 q82 82.5 208 82.5 q148 0 224 -111 l-113 -93 q-42 54 -110 54 q-37 0 -65 -21.5 q-28 -21.5 -42 -56.5 l147 0 l0 -109 l-147 0 q13 -36 42 -57 q29 -21 67 -21 q59 0 108 54 l118 -87 q-84 -117 -236 -117 Z" /><glyph glyph-name="afii10102" unicode="&#x455;" d="M266 -12 q-145 0 -256 80 l71 115 q94 -62 186 -62 q48 0 48 31 q0 15 -19.5 24 q-19.5 9 -67.5 22 q-95 26 -143.5 62.5 q-48.5 36.5 -48.5 112.5 q0 84 60.5 131.5 q60.5 47.5 156.5 47.5 q125 0 223 -63 l-65 -120 q-90 50 -160 50 q-44 0 -44 -28 q0 -14 19 -23.5 q19 -9.5 69 -24.5 q46 -13 76 -25.5 q30 -12.5 59 -32.5 q29 -20 43 -48.5 q14 -28.5 14 -67.5 q0 -87 -60 -134 q-60 -47 -161 -47 Z" /><glyph glyph-name="afii10103" unicode="&#x456;" d="M55 0 l0 541 l190 0 l0 -541 l-190 0 ZM51 590 l0 140 l198 0 l0 -140 l-198 0 Z" /><glyph glyph-name="afii10104" unicode="&#x457;" d="M-42 587 l0 143 l165 0 l0 -143 l-165 0 ZM177 587 l0 143 l165 0 l0 -143 l-165 0 ZM55 0 l0 541 l190 0 l0 -541 l-190 0 Z" /><glyph glyph-name="afii10105" unicode="&#x458;" d="M52 -163 q-24 0 -78 7 l0 126 q8 -1 25 -1 q29 0 42.5 14.5 q13.5 14.5 13.5 48.5 l0 509 l190 0 l0 -517 q0 -99 -48.5 -143 q-48.5 -44 -144.5 -44 ZM51 590 l0 140 l198 0 l0 -140 l-198 0 Z" /><glyph glyph-name="afii10106" unicode="&#x459;" d="M397 0 l0 390 l-100 0 l0 -14 q0 -96 -10.5 -165.5 q-10.5 -69.5 -27.5 -111 q-17 -41.5 -44 -66 q-27 -24.5 -55 -32.5 q-28 -8 -66 -8 q-38 0 -84 8 l8 147 q21 -3 31 -3 q13 0 21 3.5 q8 3.5 18.5 19.5 q10.5 16 16.5 46 q6 30 10.5 86.5 q4.5 56.5 4.5 136.5 l0 104 l467 0 l0 -170 l92 0 q100 0 161.5 -47.5 q61.5 -47.5 61.5 -136.5 q0 -87 -58 -137 q-58 -50 -157 -50 l-290 0 ZM587 134 l59 0 q73 0 73 59 q0 26 -19.5 41 q-19.5 15 -53.5 15 l-59 0 l0 -115 Z" /><glyph glyph-name="afii10107" unicode="&#x45a;" d="M51 0 l0 541 l190 0 l0 -172 l156 0 l0 172 l190 0 l0 -172 l87 0 q103 0 165.5 -46.5 q62.5 -46.5 62.5 -136.5 q0 -88 -59 -137 q-59 -49 -161 -49 l-285 0 l0 226 l-156 0 l0 -226 l-190 0 ZM587 136 l59 0 q73 0 73 54 q0 51 -73 51 l-59 0 l0 -105 Z" /><glyph glyph-name="afii10108" unicode="&#x45b;" d="M51 0 l0 541 l-63 0 l0 128 l63 0 l0 61 l190 0 l0 -61 l157 0 l0 -128 l-157 0 l0 -124 q67 86 162 86 q86 0 135 -53.5 q49 -53.5 49 -145.5 l0 -304 l-190 0 l0 243 q0 43 -20.5 67 q-20.5 24 -55.5 24 q-36 0 -58 -24 q-22 -24 -22 -67 l0 -243 l-190 0 Z" /><glyph glyph-name="afii10109" unicode="&#x45c;" d="M51 0 l0 541 l190 0 l0 -201 l147 201 l215 0 l-185 -222 l190 -319 l-209 0 l-103 173 l-55 -66 l0 -107 l-190 0 ZM211 587 l104 185 l177 -57 l-147 -128 l-134 0 Z" /><glyph glyph-name="afii10110" unicode="&#x45e;" d="M211 -163 q-90 0 -174 47 l59 133 q48 -29 83 -29 q28 0 44 22 l-212 531 l199 0 l108 -326 l102 326 l195 0 l-198 -528 q-36 -96 -81 -136 q-45 -40 -125 -40 ZM429.5 624 q-43.5 -39 -111.5 -39 q-68 0 -111.5 39 q-43.5 39 -53.5 110 l99 18 q20 -58 66 -58 q46 0 66 58 l99 -18 q-10 -71 -53.5 -110 Z" /><glyph glyph-name="afii10193" unicode="&#x45f;" d="M224 -110 l0 110 l-173 0 l0 541 l190 0 l0 -388 l148 0 l0 388 l190 0 l0 -541 l-175 0 l0 -110 l-180 0 Z" /><glyph glyph-name="afii10050" unicode="&#x490;" d="M62 0 l0 700 l318 0 l0 140 l164 0 l22 -310 l-310 0 l0 -530 l-194 0 Z" /><glyph glyph-name="afii10098" unicode="&#x491;" d="M51 0 l0 541 l228 0 l0 110 l162 0 l18 -263 l-218 0 l0 -388 l-190 0 Z" /><glyph glyph-name="endash" unicode="&#x2013;" d="M40 231 l0 163 l448 0 l0 -163 l-448 0 Z" /><glyph glyph-name="emdash" unicode="&#x2014;" d="M40 231 l0 163 l818 0 l0 -163 l-818 0 Z" /><glyph glyph-name="quoteleft" unicode="&#x2018;" d="M40 343 l0 159 q0 106 52.5 153 q52.5 47 152.5 50 l16 -73 q-100 -12 -100 -88 l0 -6 l76 0 l0 -195 l-197 0 Z" /><glyph glyph-name="quoteright" unicode="&#x2019;" d="M39 338 l-16 73 q100 11 100 88 l0 6 l-76 0 l0 195 l197 0 l0 -159 q0 -106 -52.5 -153 q-52.5 -47 -152.5 -50 Z" /><glyph glyph-name="quotesinglbase" unicode="&#x201a;" d="M35 -167 l-15 73 q100 12 100 90 l0 4 l-77 0 l0 195 l198 0 l0 -159 q0 -106 -53 -153 q-53 -47 -153 -50 Z" /><glyph glyph-name="quotedblleft" unicode="&#x201c;" d="M40 343 l0 159 q0 104 52 152 q52 48 151 51 l15 -73 q-97 -12 -97 -87 l0 -7 l74 0 l0 -195 l-195 0 ZM305 343 l0 159 q0 104 52.5 152 q52.5 48 150.5 51 l16 -73 q-98 -12 -98 -89 l0 -5 l74 0 l0 -195 l-195 0 Z" /><glyph glyph-name="quotedblright" unicode="&#x201d;" d="M39 338 l-16 73 q98 11 98 89 l0 5 l-74 0 l0 195 l195 0 l0 -159 q0 -105 -52 -152.5 q-52 -47.5 -151 -50.5 ZM305 338 l-16 73 q98 11 98 89 l0 5 l-75 0 l0 195 l195 0 l0 -159 q0 -105 -52 -152.5 q-52 -47.5 -150 -50.5 Z" /><glyph glyph-name="quotedblbase" unicode="&#x201e;" d="M35 -167 l-15 73 q97 12 97 87 l0 7 l-74 0 l0 195 l195 0 l0 -159 q0 -105 -52 -152.5 q-52 -47.5 -151 -50.5 ZM301 -167 l-15 73 q97 12 97 87 l0 7 l-74 0 l0 195 l195 0 l0 -159 q0 -105 -52 -152.5 q-52 -47.5 -151 -50.5 Z" /><glyph glyph-name="dagger" unicode="&#x2020;" d="M155 223 l10 270 l-125 -13 l0 104 l124 -13 l-15 129 l112 0 l-15 -129 l124 13 l0 -104 l-125 13 l10 -270 l-100 0 Z" /><glyph glyph-name="daggerdbl" unicode="&#x2021;" d="M159 0 l15 129 l-124 -13 l0 104 l126 -13 l-13 143 l13 143 l-126 -13 l0 104 l124 -13 l-15 129 l112 0 l-15 -129 l124 13 l0 -104 l-126 13 l13 -143 l-13 -143 l126 13 l0 -104 l-124 13 l15 -129 l-112 0 Z" /><glyph glyph-name="bullet" unicode="&#x2022;" d="M369.5 232 q-49.5 -49 -119.5 -49 q-70 0 -119.5 49.5 q-49.5 49.5 -49.5 120.5 q0 70 49.5 119 q49.5 49 119.5 49 q70 0 119.5 -49.5 q49.5 -49.5 49.5 -120.5 q0 -70 -49.5 -119 Z" /><glyph glyph-name="ellipsis" unicode="&#x2026;" d="M43 0 l0 192 l194 0 l0 -192 l-194 0 ZM323 0 l0 192 l194 0 l0 -192 l-194 0 ZM603 0 l0 192 l194 0 l0 -192 l-194 0 Z" /><glyph glyph-name="perthousand" unicode="&#x2030;" d="M112 0 l540 700 l135 0 l-540 -700 l-135 0 ZM813 45 q-51 -55 -130 -55 q-79 0 -129.5 54.5 q-50.5 54.5 -50.5 134.5 q0 79 50 133.5 q50 54.5 131 54.5 q80 0 130 -54.5 q50 -54.5 50 -134.5 q0 -78 -51 -133 ZM642 122.5 q17 -22.5 42 -22.5 q25 0 41.5 22 q16.5 22 16.5 57 q0 34 -16.5 56 q-16.5 22 -42.5 22 q-27 0 -42.5 -21.5 q-15.5 -21.5 -15.5 -57.5 q0 -33 17 -55.5 ZM1209 45 q-51 -55 -130 -55 q-79 0 -129.5 54.5 q-50.5 54.5 -50.5 134.5 q0 79 50 133.5 q50 54.5 131 54.5 q80 0 130 -54.5 q50 -54.5 50 -134.5 q0 -78 -51 -133 ZM1038 122.5 q17 -22.5 42 -22.5 q25 0 41.5 22 q16.5 22 16.5 57 q0 34 -16.5 56 q-16.5 22 -42.5 22 q-27 0 -42.5 -21.5 q-15.5 -21.5 -15.5 -57.5 q0 -33 17 -55.5 ZM215 333 q-80 0 -130 54.5 q-50 54.5 -50 134.5 q0 79 50 133.5 q50 54.5 131 54.5 q80 0 130 -54.5 q50 -54.5 50 -134.5 q0 -79 -51 -133.5 q-51 -54.5 -130 -54.5 ZM174 465 q17 -22 42 -22 q25 0 41.5 22 q16.5 22 16.5 57 q0 33 -17 55.5 q-17 22.5 -42 22.5 q-26 0 -42 -22 q-16 -22 -16 -57 q0 -34 17 -56 Z" /><glyph glyph-name="guilsinglleft" unicode="&#x2039;" d="M190 30 l-160 214 l0 48 l160 214 l137 -67 l-130 -171 l130 -170 l-137 -68 Z" /><glyph glyph-name="guilsinglright" unicode="&#x203a;" d="M167 30 l-137 67 l130 171 l-130 170 l137 68 l160 -214 l0 -48 l-160 -214 Z" /><glyph glyph-name="fraction" unicode="&#x2044;" d="M-73 -98 l466 856 l158 0 l-465 -856 l-159 0 Z" /><glyph glyph-name="Euro" unicode="&#x20ac;" d="M421 -14 q-118 0 -197.5 64.5 q-79.5 64.5 -105.5 172.5 l-81 0 l0 104 l68 0 q-1 7 -1 23 q0 18 1 27 l-68 0 l0 104 l84 0 q28 103 106.5 168 q78.5 65 194.5 65 q152 0 240 -113 l-123 -115 q-49 62 -116 62 q-76 0 -109 -70 l156 0 l0 -101 l-178 0 q-1 -8 -1 -27 q0 -15 1 -23 l178 0 l0 -101 l-158 0 q35 -74 115 -74 q64 0 118 66 l120 -113 q-92 -119 -244 -119 Z" /><glyph glyph-name="afii61352" unicode="&#x2116;" d="M62 0 l0 700 l181 0 l218 -350 l0 350 l202 0 l0 -700 l-170 0 l-229 364 l0 -364 l-202 0 ZM746 110 l0 117 l302 0 l0 -117 l-302 0 ZM1012 322 q-45 -49 -116 -49 q-71 0 -115.5 48.5 q-44.5 48.5 -44.5 118.5 q0 72 44.5 121 q44.5 49 116.5 49 q71 0 115.5 -48.5 q44.5 -48.5 44.5 -118.5 q0 -72 -45 -121 ZM860.5 391 q14.5 -20 36.5 -20 q22 0 36 20 q14 20 14 51 q0 29 -14.5 49.5 q-14.5 20.5 -36.5 20.5 q-22 0 -36 -20 q-14 -20 -14 -51 q0 -30 14.5 -50 Z" /><glyph glyph-name="published" unicode="&#x2117;" d="M671 93.5 q-106 -107.5 -257 -107.5 q-151 0 -256 107 q-105 107 -105 257 q0 149 106 256.5 q106 107.5 257 107.5 q151 0 256 -107 q105 -107 105 -257 q0 -149 -106 -256.5 ZM414 26 q136 0 228.5 95.5 q92.5 95.5 92.5 230.5 q0 134 -92 228 q-92 94 -227 94 q-136 0 -228.5 -95.5 q-92.5 -95.5 -92.5 -230.5 q0 -134 92 -228 q92 -94 227 -94 ZM273 164 l0 385 l165 0 q74 0 117.5 -36.5 q43.5 -36.5 43.5 -101.5 q0 -65 -46 -101 q-46 -36 -119 -36 l-53 0 l0 -110 l-108 0 ZM381 358 l49 0 q29 0 45 13.5 q16 13.5 16 37.5 q0 50 -61 50 l-49 0 l0 -101 Z" /><glyph glyph-name="trademark" unicode="&#x2122;" d="M108 392 l0 233 l-92 0 l0 75 l270 0 l0 -75 l-92 0 l0 -233 l-86 0 ZM334 392 l0 308 l91 0 l73 -119 l74 119 l90 0 l0 -308 l-85 0 l0 180 l-78 -122 l-3 0 l-78 122 l0 -180 l-84 0 Z" /><glyph glyph-name="partialdiff" unicode="&#x2202;" d="M0 0 l0 700 l500 0 l0 -700 l-500 0 ZM81 49 l339 0 l-170 255 l-169 -255 ZM49 96 l171 254 l-171 254 l0 -508 ZM450 96 l0 508 l-171 -254 l171 -254 ZM250 395 l170 255 l-339 0 l169 -255 Z" /><glyph glyph-name="Delta" unicode="&#x2206;" d="M6 0 l284 700 l180 0 l284 -700 l-748 0 ZM284 170 l196 0 l-98 293 l-98 -293 Z" /><glyph glyph-name="product" unicode="&#x220f;" d="M0 0 l0 700 l500 0 l0 -700 l-500 0 ZM81 49 l339 0 l-170 255 l-169 -255 ZM49 96 l171 254 l-171 254 l0 -508 ZM450 96 l0 508 l-171 -254 l171 -254 ZM250 395 l170 255 l-339 0 l169 -255 Z" /><glyph glyph-name="summation" unicode="&#x2211;" d="M0 0 l0 700 l500 0 l0 -700 l-500 0 ZM81 49 l339 0 l-170 255 l-169 -255 ZM49 96 l171 254 l-171 254 l0 -508 ZM450 96 l0 508 l-171 -254 l171 -254 ZM250 395 l170 255 l-339 0 l169 -255 Z" /><glyph glyph-name="minus" unicode="&#x2212;" d="M74 269 l0 167 l491 0 l0 -167 l-491 0 Z" /><glyph glyph-name="radical" unicode="&#x221a;" d="M282 -128 l-179 351 l-106 0 l0 118 l175 0 l96 -185 l268 642 l134 0 l-388 -926 Z" /><glyph glyph-name="infinity" unicode="&#x221e;" d="M253 135 q-96 0 -152 62 q-56 62 -56 159 q0 95 54 154.5 q54 59.5 149 59.5 q64 0 107 -31.5 q43 -31.5 89 -94.5 q44 63 87.5 94.5 q43.5 31.5 109.5 31.5 q95 0 149 -59.5 q54 -59.5 54 -154.5 q0 -96 -54 -158.5 q-54 -62.5 -149 -62.5 q-108 0 -197 118 q-42 -57 -86.5 -87.5 q-44.5 -30.5 -104.5 -30.5 ZM250 273 q60 0 115 78 q-59 82 -116 82 q-33 0 -52.5 -23.5 q-19.5 -23.5 -19.5 -57.5 q0 -35 19.5 -57 q19.5 -22 53.5 -22 ZM639 273 q35 0 54 22.5 q19 22.5 19 57.5 q0 34 -21 57 q-21 23 -55 23 q-54 0 -113 -82 q55 -78 116 -78 Z" /><glyph glyph-name="integral" unicode="&#x222b;" d="M0 0 l0 700 l500 0 l0 -700 l-500 0 ZM81 49 l339 0 l-170 255 l-169 -255 ZM49 96 l171 254 l-171 254 l0 -508 ZM450 96 l0 508 l-171 -254 l171 -254 ZM250 395 l170 255 l-339 0 l169 -255 Z" /><glyph glyph-name="approxequal" unicode="&#x2248;" d="M135 122 l-99 26 q9 73 50.5 131.5 q41.5 58.5 105.5 58.5 q41 0 127 -29.5 q86 -29.5 111 -29.5 q49 0 67 53 l99 -25 q-11 -75 -50.5 -133 q-39.5 -58 -105.5 -58 q-39 0 -131 30 q-92 30 -111 30 q-21 0 -38.5 -16 q-17.5 -16 -24.5 -38 ZM135 373 l-99 26 q9 73 50.5 131.5 q41.5 58.5 105.5 58.5 q41 0 127 -29.5 q86 -29.5 111 -29.5 q49 0 67 53 l99 -25 q-11 -75 -50.5 -133 q-39.5 -58 -105.5 -58 q-39 0 -131 30 q-92 30 -111 30 q-21 0 -38.5 -16 q-17.5 -16 -24.5 -38 Z" /><glyph glyph-name="notequal" unicode="&#x2260;" d="M230 -11 l-138 68 l38 77 l-56 0 l0 167 l138 0 l50 102 l-188 0 l0 167 l270 0 l72 145 l137 -68 l-38 -77 l50 0 l0 -167 l-132 0 l-50 -102 l182 0 l0 -167 l-264 0 l-71 -145 Z" /><glyph glyph-name="lessequal" unicode="&#x2264;" d="M76 -16 l0 157 l491 0 l0 -157 l-491 0 ZM566 165 l-489 168 l0 177 l489 168 l0 -177 l-327 -79 l327 -79 l0 -178 Z" /><glyph glyph-name="greaterequal" unicode="&#x2265;" d="M77 -16 l0 157 l491 0 l0 -157 l-491 0 ZM78 165 l0 178 l327 79 l-327 79 l0 177 l489 -168 l0 -177 l-489 -168 Z" /><glyph glyph-name="lozenge" unicode="&#x25ca;" d="M248 -35 l-194 391 l196 391 l140 0 l196 -391 l-196 -391 l-142 0 ZM320 125 l104 231 l-104 231 l-105 -231 l105 -231 Z" /><glyph glyph-name="cyrBreve" unicode="&#xf6d1;" d="M250 585 q-72 0 -118.5 40 q-46.5 40 -57.5 113 l106 19 q22 -60 70 -60 q49 0 71 60 l106 -19 q-11 -73 -57.5 -113 q-46.5 -40 -119.5 -40 Z" /><glyph glyph-name="cyrbreve" unicode="&#xf6d4;" d="M361.5 624 q-43.5 -39 -111.5 -39 q-68 0 -111.5 39 q-43.5 39 -53.5 110 l99 18 q20 -58 66 -58 q46 0 66 58 l99 -18 q-10 -71 -53.5 -110 Z" /><glyph glyph-name="apple" unicode="&#xf8ff;" d="M0 0 l0 700 l500 0 l0 -700 l-500 0 ZM81 49 l339 0 l-170 255 l-169 -255 ZM49 96 l171 254 l-171 254 l0 -508 ZM450 96 l0 508 l-171 -254 l171 -254 ZM250 395 l170 255 l-339 0 l169 -255 Z" /><glyph glyph-name="ff" unicode="&#xfb00;" d="M85 0 l0 389 l-63 0 l0 149 l63 0 l0 12 q0 94 46 140 q47 47 141 47 q74 0 124 -15 l0 -134 q-35 11 -71 11 q-54 0 -54 -51 l0 -13 l124 0 l0 -146 l-121 0 l0 -389 l-189 0 ZM489 0 l0 389 l-64 0 l0 146 l64 0 l0 15 q0 94 46 140 q46 47 141 47 q74 0 124 -15 l0 -134 q-35 11 -71 11 q-54 0 -54 -51 l0 -13 l124 0 l0 -146 l-121 0 l0 -389 l-189 0 Z" /><glyph glyph-name="fi" unicode="&#xfb01;" d="M85 0 l0 389 l-63 0 l0 149 l63 0 l0 12 q0 94 46 140 q47 47 141 47 q74 0 124 -15 l0 -134 q-35 11 -71 11 q-54 0 -54 -51 l0 -13 l124 0 l0 -146 l-121 0 l0 -389 l-189 0 ZM459 0 l0 541 l190 0 l0 -541 l-190 0 ZM455 590 l0 140 l198 0 l0 -140 l-198 0 Z" /><glyph glyph-name="fl" unicode="&#xfb02;" d="M85 0 l0 389 l-63 0 l0 149 l63 0 l0 12 q0 94 46 140 q47 47 141 47 q74 0 124 -15 l0 -134 q-35 11 -71 11 q-54 0 -54 -51 l0 -13 l124 0 l0 -146 l-121 0 l0 -389 l-189 0 ZM459 0 l0 730 l190 0 l0 -730 l-190 0 Z" /><glyph glyph-name="ffi" unicode="&#xfb03;" d="M85 0 l0 389 l-63 0 l0 149 l63 0 l0 12 q0 94 46 140 q47 47 141 47 q74 0 124 -15 l0 -134 q-35 11 -71 11 q-54 0 -54 -51 l0 -13 l124 0 l0 -146 l-121 0 l0 -389 l-189 0 ZM489 0 l0 389 l-64 0 l0 146 l64 0 l0 15 q0 94 46 140 q46 47 141 47 q74 0 124 -15 l0 -134 q-35 11 -71 11 q-54 0 -54 -51 l0 -13 l124 0 l0 -146 l-121 0 l0 -389 l-189 0 ZM863 0 l0 541 l190 0 l0 -541 l-190 0 ZM859 590 l0 140 l198 0 l0 -140 l-198 0 Z" /><glyph glyph-name="ffl" unicode="&#xfb04;" d="M85 0 l0 389 l-63 0 l0 149 l63 0 l0 12 q0 94 46 140 q47 47 141 47 q74 0 124 -15 l0 -134 q-35 11 -71 11 q-54 0 -54 -51 l0 -13 l124 0 l0 -146 l-121 0 l0 -389 l-189 0 ZM489 0 l0 389 l-64 0 l0 146 l64 0 l0 15 q0 94 46 140 q46 47 141 47 q74 0 124 -15 l0 -134 q-35 11 -71 11 q-54 0 -54 -51 l0 -13 l124 0 l0 -146 l-121 0 l0 -389 l-189 0 ZM863 0 l0 730 l190 0 l0 -730 l-190 0 Z" /></font>
</defs>
</svg>
