<?xml version="1.0" encoding="iso-8859-1"?><svg width="1024" height="1024" viewBox="0 0 1024 1024" xmlns="http://www.w3.org/2000/svg" xmlns:xlink="http://www.w3.org/1999/xlink"><svg viewBox="0 0 512 512" width="512" height="512" id="svg_facebook" xmlns="http://www.w3.org/2000/svg"><path d="M452 0H60C26.916 0 0 26.916 0 60v392c0 33.084 26.916 60 60 60h392c33.084 0 60-26.916 60-60V60c0-33.084-26.916-60-60-60zm20 452c0 11.028-8.972 20-20 20H338V309h61.79L410 247h-72v-43c0-16.975 13.025-30 30-30h41v-62h-41c-50.923 0-91.978 41.25-91.978 92.174V247H216v62h60.022v163H60c-11.028 0-20-8.972-20-20V60c0-11.028 8.972-20 20-20h392c11.028 0 20 8.972 20 20v392z"/></svg><svg viewBox="0 0 512 512" width="512" height="512" id="svg_instagram" x="512" xmlns="http://www.w3.org/2000/svg"><path d="M352 0H160C71.648 0 0 71.648 0 160v192c0 88.352 71.648 160 160 160h192c88.352 0 160-71.648 160-160V160C512 71.648 440.352 0 352 0zm112 352c0 61.76-50.24 112-112 112H160c-61.76 0-112-50.24-112-112V160C48 98.24 98.24 48 160 48h192c61.76 0 112 50.24 112 112v192z"/><path d="M256 128c-70.688 0-128 57.312-128 128s57.312 128 128 128 128-57.312 128-128-57.312-128-128-128zm0 208c-44.096 0-80-35.904-80-80 0-44.128 35.904-80 80-80s80 35.872 80 80c0 44.096-35.904 80-80 80z"/><circle cx="393.6" cy="118.4" r="17.056"/></svg><svg height="512" viewBox="0 -53 384 384" width="512" id="svg_open-menu" y="512" xmlns="http://www.w3.org/2000/svg"><path d="M368 154.668H16c-8.832 0-16-7.168-16-16s7.168-16 16-16h352c8.832 0 16 7.168 16 16s-7.168 16-16 16zm0 0M368 32H16C7.168 32 0 24.832 0 16S7.168 0 16 0h352c8.832 0 16 7.168 16 16s-7.168 16-16 16zm0 0M368 277.332H16c-8.832 0-16-7.168-16-16s7.168-16 16-16h352c8.832 0 16 7.168 16 16s-7.168 16-16 16zm0 0"/></svg><svg viewBox="0 0 504 504" width="504" height="504" id="svg_viber" x="512" y="512" xmlns="http://www.w3.org/2000/svg"><path d="M377.6 0H126C56.8 0 0 56.8 0 126.4V378c0 69.2 56.8 126 126 126h251.6c69.6 0 126.4-56.8 126.4-126.4V126.4C504 56.8 447.2 0 377.6 0zM238.4 103.6c.8-12.4 12.4-8 18.4-8.8 75.2 2.4 140 70 139.2 142.8 0 7.2 2.4 17.6-8.4 17.6-10.4 0-7.6-10.8-8.8-18-10-77.2-46-113.6-124.4-125.6-6.4-.8-16.4.4-16-8zm112.4 137.2c-12 1.6-9.6-8.8-10.8-15.6-8-47.2-24.8-64.4-73.2-74.8-7.2-1.6-18.4-.4-16.4-11.2 1.6-10.4 11.6-6.8 19.2-6 48.4 5.6 88 46.8 87.6 92-.8 4.8 2.4 14-6.4 15.6zm-30-24.8c0 6.4-.8 12.4-8 13.2-5.2.8-8.4-3.6-9.2-8.8-2-19.2-12.4-30.8-32.4-34-6-.8-11.6-2.8-8.8-10.8 2-5.2 6.8-6 12-6 21.6-.4 46.4 24.8 46.4 46.4zm76 147.6c-8.4 22.8-36.8 46-61.2 45.6-3.6-.8-10.4-2-16.4-4.4C212 359.6 134 285.2 90 178.8c-14.8-35.6.8-66 38-78 6.8-2.4 13.2-2.4 20 0 16 5.6 56.4 60.4 57.2 76.4.8 12.4-8 19.2-16.4 24.8-16.4 10.8-16.4 24.4-9.2 40 15.6 34.4 42.4 58.4 77.2 73.6 12.4 5.6 24.8 5.2 33.2-7.6 15.2-22.8 34-21.6 54.4-7.6 10.4 7.2 20.8 14 30.4 21.6 13.2 10.8 30 19.6 22 41.6z"/></svg></svg>