<?xml version="1.0" standalone="no"?><!DOCTYPE svg PUBLIC "-//W3C//DTD SVG 1.1//EN" "http://www.w3.org/Graphics/SVG/1.1/DTD/svg11.dtd" ><svg xmlns="http://www.w3.org/2000/svg"><metadata></metadata><defs><font id="Linotype GmbH:Avenir Next Cyr Regular:2012" horiz-adv-x="1074"><font-face font-family="Avenir Next Cyr" font-weight="400" font-stretch="normal" units-per-em="1000" panose-1="2 11 5 3 2 2 2 2 2 4" ascent="971" descent="-254" x-height="4" bbox="-205 -250 1036 945" underline-thickness="50" underline-position="-175" unicode-range="U+0000-fb04" /><missing-glyph horiz-adv-x="512" d="M278 117 l-56 0 l0 67 l56 0 l0 -67 ZM271 234 l-46 0 l-2 17 q0 56 13 81 q15 28 46 59 q31 29 40.5 46 q9.5 17 9.5 37 q0 36 -22.5 60.5 q-22.5 24.5 -53.5 24.5 q-71 0 -82 -95 l-50 8 q7 69 43 103 q36 34 92 34 q54 0 89 -36 q35 -36 35 -95 q0 -34 -13 -60 q-13 -26 -50 -60 q-37 -33 -43 -52 q-6 -20 -6 -72 ZM50 50 l412 0 l0 617 l-412 0 l0 -617 ZM0 718 l512 0 l0 -718 l-512 0 l0 718 Z" /><glyph glyph-name=".null" unicode="" d="" /><glyph glyph-name="nonmarkingreturn" unicode="" d="" /><glyph glyph-name="space" unicode=" " d="" /><glyph glyph-name="exclam" unicode="!" d="M200 708 l0 -516 l-72 0 l0 516 l72 0 ZM202.5 86 q15.5 -16 15.5 -38 q0 -22 -15.5 -38 q-15.5 -16 -38.5 -16 q-23 0 -38.5 16 q-15.5 16 -15.5 38 q0 22 15.5 38 q15.5 16 38.5 16 q23 0 38.5 -16 Z" /><glyph glyph-name="quotedbl" unicode="&quot;" d="M100 473 l0 235 l60 0 l0 -235 l-60 0 ZM245 473 l0 235 l60 0 l0 -235 l-60 0 Z" /><glyph glyph-name="numbersign" unicode="#" d="M107 0 l30 214 l-102 0 l0 60 l110 0 l22 162 l-108 0 l0 60 l117 0 l29 212 l61 0 l-29 -212 l133 0 l29 212 l61 0 l-29 -212 l90 0 l0 -60 l-99 0 l-22 -162 l95 0 l0 -60 l-103 0 l-30 -214 l-61 0 l30 214 l-133 0 l-30 -214 l-61 0 ZM228 436 l-22 -162 l133 0 l22 162 l-133 0 Z" /><glyph glyph-name="dollar" unicode="$" d="M263 406 l0 258 q-53 -2 -88.5 -37.5 q-35.5 -35.5 -35.5 -90.5 q0 -96 124 -130 ZM311 321 l0 -275 q52 2 91.5 35 q39.5 33 39.5 101 q0 49 -35.5 84.5 q-35.5 35.5 -95.5 54.5 ZM263 46 l0 287 q-40 12 -69.5 26 q-29.5 14 -60 36.5 q-30.5 22.5 -47 56.5 q-16.5 34 -16.5 78 q0 84 55.5 135 q55.5 51 137.5 55 l0 72 l48 0 l0 -72 q51 -2 102 -22.5 q51 -20.5 83 -58.5 l-55 -42 q-46 65 -130 67 l0 -275 q45 -16 75.5 -30.5 q30.5 -14.5 62.5 -39 q32 -24.5 48.5 -60 q16.5 -35.5 16.5 -82.5 q0 -82 -58 -134.5 q-58 -52.5 -145 -54.5 l0 -72 l-48 0 l0 72 q-130 3 -211 106 l57 40 q25 -41 71 -64 q46 -23 83 -24 Z" /><glyph glyph-name="percent" unicode="%" d="M339 669.5 q51 -50.5 51 -124.5 q0 -74 -51 -124.5 q-51 -50.5 -125 -50.5 q-74 0 -125 50.5 q-51 50.5 -51 124.5 q0 74 51 124.5 q51 50.5 125 50.5 q74 0 125 -50.5 ZM296 463 q34 33 34 82 q0 49 -34 82 q-34 33 -82 33 q-48 0 -82 -33 q-34 -33 -34 -82 q0 -49 34 -82 q34 -33 82 -33 q48 0 82 33 ZM744 287.5 q51 -50.5 51 -124.5 q0 -74 -51 -124.5 q-51 -50.5 -125 -50.5 q-74 0 -125 50.5 q-51 50.5 -51 124.5 q0 74 51 124.5 q51 50.5 125 50.5 q74 0 125 -50.5 ZM701 81 q34 33 34 82 q0 49 -34 82 q-34 33 -82 33 q-48 0 -82 -33 q-34 -33 -34 -82 q0 -49 34 -82 q34 -33 82 -33 q48 0 82 33 ZM667 712 l-450 -743 l-52 27 l451 743 l51 -27 Z" /><glyph glyph-name="ampersand" unicode="&amp;" d="M659 383 l-130 -219 l159 -164 l-100 0 l-100 105 q-44 -61 -95.5 -89 q-51.5 -28 -122.5 -28 q-95 0 -158 52 q-63 52 -63 144 q0 138 164 210 q-86 88 -86 165 q0 77 50.5 122 q50.5 45 125.5 45 q73 0 122 -43 q49 -43 49 -116 q0 -63 -43.5 -106.5 q-43.5 -43.5 -115.5 -79.5 l165 -170 l98 172 l81 0 ZM404 567 q0 43 -28.5 71.5 q-28.5 28.5 -71.5 28.5 q-47 0 -77 -30 q-30 -30 -30 -79 q0 -34 25.5 -73.5 q25.5 -39.5 51.5 -60.5 q59 27 94.5 60.5 q35.5 33.5 35.5 82.5 ZM440 152 l-187 196 q-130 -58 -130 -165 q0 -59 43 -97 q43 -38 105 -38 q56 0 95 25 q39 25 74 79 Z" /><glyph glyph-name="quotesingle" unicode="&#39;" d="M100 473 l0 235 l60 0 l0 -235 l-60 0 Z" /><glyph glyph-name="parenleft" unicode="(" d="M134 509 q-36 -109 -36 -221 q0 -112 36 -221 q36 -109 96 -193 l-52 -33 q-66 87 -106 205 q-40 118 -40 242 q0 124 40 242 q40 118 106 205 l52 -33 q-60 -84 -96 -193 Z" /><glyph glyph-name="parenright" unicode=")" d="M166 67 q36 109 36 221 q0 112 -36 221 q-36 109 -96 193 l52 33 q66 -87 106 -205 q40 -118 40 -242 q0 -124 -40 -242 q-40 -118 -106 -205 l-52 33 q60 84 96 193 Z" /><glyph glyph-name="asterisk" unicode="*" d="M252 708 l0 -143 l140 45 l21 -56 l-141 -45 l90 -121 l-48 -36 l-92 124 l-92 -124 l-48 36 l90 121 l-141 45 l21 56 l140 -45 l0 143 l60 0 Z" /><glyph glyph-name="plus" unicode="+" d="M363 558 l0 -225 l225 0 l0 -60 l-225 0 l0 -225 l-60 0 l0 225 l-225 0 l0 60 l225 0 l0 225 l60 0 Z" /><glyph glyph-name="comma" unicode="," d="M183 95 l-81 -235 l-57 0 l67 235 l71 0 Z" /><glyph glyph-name="hyphen" unicode="-" d="M272 271 l0 -57 l-224 0 l0 57 l224 0 Z" /><glyph glyph-name="period" unicode="." d="M168.5 86 q15.5 -16 15.5 -38 q0 -22 -15.5 -38 q-15.5 -16 -38.5 -16 q-23 0 -38.5 16 q-15.5 16 -15.5 38 q0 22 15.5 38 q15.5 16 38.5 16 q23 0 38.5 -16 Z" /><glyph glyph-name="slash" unicode="/" d="M365 706 l-302 -724 l-58 19 l303 725 l57 -20 Z" /><glyph glyph-name="zero" unicode="0" d="M290 726 q63 0 110 -31.5 q47 -31.5 72.5 -86.5 q25.5 -55 37.5 -118.5 q12 -63.5 12 -136.5 q0 -73 -12 -136 q-12 -63 -37.5 -117.5 q-25.5 -54.5 -72.5 -86 q-47 -31.5 -110 -31.5 q-64 0 -111 31.5 q-47 31.5 -72.5 86 q-25.5 54.5 -37 117 q-11.5 62.5 -11.5 136.5 q0 58 7 109.5 q7 51.5 23.5 101 q16.5 49.5 42.5 84.5 q26 35 66.5 56.5 q40.5 21.5 92.5 21.5 ZM290 665 q-45 0 -77.5 -28 q-32.5 -28 -49.5 -76 q-17 -48 -24.5 -99 q-7.5 -51 -7.5 -109 q0 -58 7.5 -108.5 q7.5 -50.5 24.5 -98 q17 -47.5 49.5 -75 q32.5 -27.5 77.5 -27.5 q44 0 76.5 27.5 q32.5 27.5 49.5 74.5 q17 47 25 98.5 q8 51.5 8 108.5 q0 57 -8 109 q-8 52 -25 99.5 q-17 47.5 -49.5 75.5 q-32.5 28 -76.5 28 Z" /><glyph glyph-name="one" unicode="1" d="M358 708 l0 -708 l-72 0 l0 619 l-128 -109 l-44 50 l180 148 l64 0 Z" /><glyph glyph-name="two" unicode="2" d="M504 64 l0 -64 l-453 0 l0 75 l290 293 q85 87 85 162 q0 60 -40.5 97.5 q-40.5 37.5 -99.5 37.5 q-56 0 -95 -35 q-39 -35 -51 -91 l-71 14 q15 76 75 124.5 q60 48.5 142 48.5 q91 0 152 -51 q61 -51 61 -144 q0 -62 -29 -109.5 q-29 -47.5 -86 -104.5 l-255 -253 l375 0 Z" /><glyph glyph-name="three" unicode="3" d="M214 340 l0 62 l31 0 q74 0 119.5 31.5 q45.5 31.5 45.5 98.5 q0 58 -41 95.5 q-41 37.5 -99 37.5 q-92 0 -135 -83 l-61 32 q65 112 200 112 q88 0 147.5 -50.5 q59.5 -50.5 59.5 -139.5 q0 -61 -34.5 -104 q-34.5 -43 -88.5 -58 l0 -2 q63 -13 103 -60 q40 -47 40 -116 q0 -98 -66 -156 q-66 -58 -162 -58 q-77 0 -135.5 37.5 q-58.5 37.5 -88.5 107.5 l68 25 q18 -50 60 -79 q42 -29 96 -29 q64 0 110 41.5 q46 41.5 46 110.5 q0 75 -53 109.5 q-53 34.5 -131 34.5 l-31 0 Z" /><glyph glyph-name="four" unicode="4" d="M436 708 l0 -474 l104 0 l0 -63 l-104 0 l0 -171 l-70 0 l0 171 l-324 0 l0 70 l300 467 l94 0 ZM366 234 l0 393 l-2 0 l-247 -393 l249 0 Z" /><glyph glyph-name="five" unicode="5" d="M475 708 l0 -64 l-295 0 l-5 -219 q44 16 98 16 q100 0 165 -62 q65 -62 65 -160 q0 -103 -65.5 -170 q-65.5 -67 -169.5 -67 q-148 0 -212 129 l65 29 q19 -44 58 -70 q39 -26 85 -26 q72 0 119 48 q47 48 47 120 q0 77 -49.5 123.5 q-49.5 46.5 -126.5 46.5 q-74 0 -147 -39 l7 365 l361 0 Z" /><glyph glyph-name="six" unicode="6" d="M400 708 l-199 -309 l2 -2 q34 26 101 26 q93 0 154.5 -61 q61.5 -61 61.5 -157 q0 -98 -65 -160.5 q-65 -62.5 -165 -62.5 q-100 0 -165 62.5 q-65 62.5 -65 160.5 q0 88 64 192 l193 311 l83 0 ZM175 320 q-43 -45 -43 -115 q0 -70 44.5 -116 q44.5 -46 113.5 -46 q69 0 113.5 46 q44.5 46 44.5 116 q0 70 -43 115 q-43 45 -115 45 q-72 0 -115 -45 Z" /><glyph glyph-name="seven" unicode="7" d="M498 708 l0 -66 l-285 -642 l-81 0 l293 644 l-347 0 l0 64 l420 0 Z" /><glyph glyph-name="eight" unicode="8" d="M383 375 q59 -17 96.5 -68 q37.5 -51 37.5 -121 q0 -90 -66.5 -147 q-66.5 -57 -160.5 -57 q-94 0 -160.5 57 q-66.5 57 -66.5 147 q0 70 37.5 120.5 q37.5 50.5 96.5 68.5 l0 2 q-47 16 -77 60.5 q-30 44.5 -30 99.5 q0 84 58.5 136.5 q58.5 52.5 141.5 52.5 q83 0 141.5 -52.5 q58.5 -52.5 58.5 -136.5 q0 -55 -30 -99.5 q-30 -44.5 -77 -60.5 l0 -2 ZM160 533 q0 -55 37.5 -91 q37.5 -36 92.5 -36 q55 0 92.5 36 q37.5 36 37.5 91 q0 57 -37 94.5 q-37 37.5 -93 37.5 q-56 0 -93 -37.5 q-37 -37.5 -37 -94.5 ZM135 194 q0 -65 43 -108 q43 -43 112 -43 q69 0 112 43 q43 43 43 108 q0 64 -43 106 q-43 42 -112 42 q-69 0 -112 -42 q-43 -42 -43 -106 Z" /><glyph glyph-name="nine" unicode="9" d="M182 0 l199 309 l-2 2 q-34 -26 -101 -26 q-93 0 -154.5 61 q-61.5 61 -61.5 157 q0 98 65 160.5 q65 62.5 165 62.5 q100 0 165 -62.5 q65 -62.5 65 -160.5 q0 -88 -64 -192 l-193 -311 l-83 0 ZM407 388 q43 45 43 115 q0 70 -44.5 116 q-44.5 46 -113.5 46 q-69 0 -113.5 -46 q-44.5 -46 -44.5 -116 q0 -70 43 -115 q43 -45 115 -45 q72 0 115 45 Z" /><glyph glyph-name="colon" unicode=":" d="M188.5 458 q15.5 -16 15.5 -38 q0 -22 -15.5 -38 q-15.5 -16 -38.5 -16 q-23 0 -38.5 16 q-15.5 16 -15.5 38 q0 22 15.5 38 q15.5 16 38.5 16 q23 0 38.5 -16 ZM188.5 86 q15.5 -16 15.5 -38 q0 -22 -15.5 -38 q-15.5 -16 -38.5 -16 q-23 0 -38.5 16 q-15.5 16 -15.5 38 q0 22 15.5 38 q15.5 16 38.5 16 q23 0 38.5 -16 Z" /><glyph glyph-name="semicolon" unicode=";" d="M188.5 458 q15.5 -16 15.5 -38 q0 -22 -15.5 -38 q-15.5 -16 -38.5 -16 q-23 0 -38.5 16 q-15.5 16 -15.5 38 q0 22 15.5 38 q15.5 16 38.5 16 q23 0 38.5 -16 ZM199 95 l-81 -235 l-60 0 l67 235 l74 0 Z" /><glyph glyph-name="less" unicode="&lt;" d="M588 564 l0 -60 l-429 -201 l429 -201 l0 -60 l-510 238 l0 46 l510 238 Z" /><glyph glyph-name="equal" unicode="=" d="M78 408 l510 0 l0 -60 l-510 0 l0 60 ZM78 258 l510 0 l0 -60 l-510 0 l0 60 Z" /><glyph glyph-name="greater" unicode="&gt;" d="M78 504 l0 60 l510 -238 l0 -46 l-510 -238 l0 60 l429 201 l-429 201 Z" /><glyph glyph-name="question" unicode="?" d="M274 238 l0 -46 l-70 0 l0 60 q0 51 20.5 84.5 q20.5 33.5 59.5 67.5 l28 25 q58 47 58 111 q0 55 -35.5 86.5 q-35.5 31.5 -89.5 31.5 q-52 0 -86.5 -32.5 q-34.5 -32.5 -42.5 -84.5 l-68 12 q15 77 69 122 q54 45 131 45 q83 0 138.5 -47 q55.5 -47 55.5 -129 q0 -41 -14 -73 q-14 -32 -30 -49 q-16 -17 -48 -43 q-45 -37 -60.5 -63 q-15.5 -26 -15.5 -78 ZM284.5 86 q15.5 -16 15.5 -38 q0 -22 -15.5 -38 q-15.5 -16 -38.5 -16 q-23 0 -38.5 16 q-15.5 16 -15.5 38 q0 22 15.5 38 q15.5 16 38.5 16 q23 0 38.5 -16 Z" /><glyph glyph-name="at" unicode="@" d="M412 489 q-56 0 -89.5 -52 q-33.5 -52 -33.5 -116 q0 -38 18.5 -70.5 q18.5 -32.5 61.5 -32.5 q62 0 94 53.5 q32 53.5 32 114.5 q0 103 -83 103 ZM694 147 l37 -46 q-116 -119 -314 -119 q-171 0 -276.5 103.5 q-105.5 103.5 -105.5 267.5 q0 159 111.5 266 q111.5 107 270.5 107 q70 0 132.5 -20.5 q62.5 -20.5 112.5 -59 q50 -38.5 79.5 -101 q29.5 -62.5 29.5 -140.5 q0 -115 -56 -180 q-56 -65 -138 -65 q-42 0 -64.5 21 q-22.5 21 -22.5 52 l-4 0 q-12 -26 -46 -49.5 q-34 -23.5 -79 -23.5 q-67 0 -106 46 q-39 46 -39 119 q0 89 55.5 156.5 q55.5 67.5 143.5 67.5 q37 0 65 -17 q28 -17 39 -43 l4 0 l10 45 l62 0 l-40 -186 q-11 -50 -11 -80 q0 -50 49 -50 q49 0 80 51.5 q31 51.5 31 128.5 q0 126 -79.5 196 q-79.5 70 -208.5 70 q-136 0 -221 -89.5 q-85 -89.5 -85 -224.5 q0 -141 86.5 -224.5 q86.5 -83.5 227.5 -83.5 q162 0 270 105 Z" /><glyph glyph-name="A" unicode="a" d="M166 186 l-77 -186 l-79 0 l306 708 l70 0 l304 -708 l-80 0 l-78 186 l-366 0 ZM349 628 l-156 -376 l312 0 l-156 376 Z" /><glyph glyph-name="B" unicode="b" d="M94 0 l0 708 l211 0 q44 0 82 -8.5 q38 -8.5 72 -28 q34 -19.5 54 -56.5 q20 -37 20 -88 q0 -56 -34.5 -97.5 q-34.5 -41.5 -90.5 -54.5 l0 -2 q71 -8 115.5 -55 q44.5 -47 44.5 -122 q0 -89 -71 -142.5 q-71 -53.5 -193 -53.5 l-210 0 ZM166 646 l0 -248 l145 0 q61 0 105.5 30 q44.5 30 44.5 94 q0 64 -47 94 q-47 30 -123 30 l-125 0 ZM166 339 l0 -277 l134 0 q85 0 140 34 q55 34 55 104 q0 69 -47 104 q-47 35 -135 35 l-147 0 Z" /><glyph glyph-name="C" unicode="c" d="M634 150 l56 -36 q-38 -58 -106.5 -95 q-68.5 -37 -158.5 -37 q-160 0 -264.5 105.5 q-104.5 105.5 -104.5 266.5 q0 161 105 266.5 q105 105.5 264 105.5 q78 0 146.5 -30.5 q68.5 -30.5 105.5 -81.5 l-60 -44 q-25 38 -76.5 65.5 q-51.5 27.5 -114.5 27.5 q-133 0 -213.5 -90 q-80.5 -90 -80.5 -219 q0 -129 81 -219 q81 -90 213 -90 q138 0 208 105 Z" /><glyph glyph-name="D" unicode="d" d="M94 0 l0 708 l235 0 q68 0 133 -22.5 q65 -22.5 119 -65 q54 -42.5 87 -112 q33 -69.5 33 -154.5 q0 -85 -33 -154.5 q-33 -69.5 -87 -112 q-54 -42.5 -119 -65 q-65 -22.5 -133 -22.5 l-235 0 ZM166 644 l0 -580 l143 0 q77 0 138.5 24.5 q61.5 24.5 99.5 66 q38 41.5 58 92.5 q20 51 20 107 q0 56 -20 107 q-20 51 -58 92.5 q-38 41.5 -99.5 66 q-61.5 24.5 -138.5 24.5 l-143 0 Z" /><glyph glyph-name="E" unicode="e" d="M166 337 l0 -273 l379 0 l0 -64 l-451 0 l0 708 l439 0 l0 -64 l-367 0 l0 -244 l343 0 l0 -63 l-343 0 Z" /><glyph glyph-name="F" unicode="f" d="M166 335 l0 -335 l-72 0 l0 708 l427 0 l0 -64 l-355 0 l0 -246 l330 0 l0 -63 l-330 0 Z" /><glyph glyph-name="G" unicode="g" d="M681 631 l-50 -50 q-77 82 -205 82 q-132 0 -213 -90 q-81 -90 -81 -219 q0 -128 81 -218 q81 -90 213 -90 q121 0 191 46 l0 215 l-165 0 l0 63 l237 0 l0 -319 q-115 -69 -264 -69 q-160 0 -264.5 105.5 q-104.5 105.5 -104.5 266.5 q0 161 105 266.5 q105 105.5 264 105.5 q159 0 256 -95 Z" /><glyph glyph-name="H" unicode="h" d="M94 0 l0 708 l72 0 l0 -307 l386 0 l0 307 l72 0 l0 -708 l-72 0 l0 335 l-386 0 l0 -335 l-72 0 Z" /><glyph glyph-name="I" unicode="i" d="M166 708 l0 -708 l-72 0 l0 708 l72 0 Z" /><glyph glyph-name="J" unicode="j" d="M25 126 l67 18 q9 -43 39.5 -71 q30.5 -28 75.5 -28 q125 0 125 164 l0 499 l72 0 l0 -504 q0 -30 -4.5 -58.5 q-4.5 -28.5 -17.5 -59 q-13 -30.5 -33.5 -53 q-20.5 -22.5 -54.5 -37 q-34 -14.5 -79 -14.5 q-75 0 -126 40 q-51 40 -64 104 Z" /><glyph glyph-name="K" unicode="k" d="M166 708 l0 -318 l1 0 l337 318 l103 0 l-357 -321 l377 -387 l-106 0 l-354 377 l-1 0 l0 -377 l-72 0 l0 708 l72 0 Z" /><glyph glyph-name="L" unicode="l" d="M166 708 l0 -644 l330 0 l0 -64 l-402 0 l0 708 l72 0 Z" /><glyph glyph-name="M" unicode="m" d="M204 708 l240 -586 l1 0 l237 586 l110 0 l0 -708 l-72 0 l0 615 l-2 0 l-256 -615 l-38 0 l-256 615 l-2 0 l0 -615 l-72 0 l0 708 l110 0 Z" /><glyph glyph-name="N" unicode="n" d="M184 708 l412 -603 l2 0 l0 603 l72 0 l0 -708 l-90 0 l-412 609 l-2 0 l0 -609 l-72 0 l0 708 l90 0 Z" /><glyph glyph-name="O" unicode="o" d="M689 620.5 q105 -105.5 105 -266.5 q0 -161 -105 -266.5 q-105 -105.5 -264 -105.5 q-159 0 -264 105.5 q-105 105.5 -105 266.5 q0 161 105 266.5 q105 105.5 264 105.5 q159 0 264 -105.5 ZM637.5 135.5 q80.5 89.5 80.5 218.5 q0 129 -80.5 219 q-80.5 90 -212.5 90 q-132 0 -212.5 -90 q-80.5 -90 -80.5 -219 q0 -129 80.5 -218.5 q80.5 -89.5 212.5 -89.5 q132 0 212.5 89.5 Z" /><glyph glyph-name="P" unicode="p" d="M94 0 l0 708 l200 0 q111 0 175 -48 q64 -48 64 -141 q0 -93 -65 -141.5 q-65 -48.5 -176 -48.5 l-126 0 l0 -329 l-72 0 ZM166 646 l0 -256 l122 0 q84 0 128.5 33 q44.5 33 44.5 96 q0 127 -173 127 l-122 0 Z" /><glyph glyph-name="Q" unicode="q" d="M209.5 575 q-77.5 -88 -77.5 -212 q0 -124 77.5 -212 q77.5 -88 204.5 -88 q126 0 204.5 88 q78.5 88 78.5 212 q0 124 -78.5 212 q-78.5 88 -204.5 88 q-127 0 -204.5 -88 ZM819 64 l0 -64 l-405 0 q-154 0 -256 103 q-102 103 -102 260 q0 157 102 260 q102 103 256 103 q153 0 255 -103 q102 -103 102 -260 q0 -95 -42.5 -173 q-42.5 -78 -123.5 -124 l0 -2 l214 0 Z" /><glyph glyph-name="R" unicode="r" d="M166 331 l0 -331 l-72 0 l0 708 l208 0 q112 0 177 -45.5 q65 -45.5 65 -143.5 q0 -77 -50.5 -125 q-50.5 -48 -130.5 -57 l207 -337 l-88 0 l-196 331 l-120 0 ZM166 646 l0 -253 l125 0 q87 0 134 32 q47 32 47 94 q0 127 -178 127 l-128 0 Z" /><glyph glyph-name="S" unicode="s" d="M494 640 l-57 -46 q-50 71 -146 71 q-59 0 -105 -35 q-46 -35 -46 -98 q0 -26 9.5 -47 q9.5 -21 20.5 -33 q11 -12 36.5 -25 q25.5 -13 40 -18 q14.5 -5 47.5 -16 q34 -11 44.5 -14.5 q10.5 -3.5 40 -15.5 q29.5 -12 41 -20.5 q11.5 -8.5 32 -25.5 q20.5 -17 29 -34 q8.5 -17 16 -42 q7.5 -25 7.5 -55 q0 -99 -69 -151.5 q-69 -52.5 -162 -52.5 q-67 0 -126.5 27 q-59.5 27 -96.5 78 l62 46 q25 -40 67 -64.5 q42 -24.5 95 -24.5 q61 0 109 36.5 q48 36.5 48 100.5 q0 29 -10.5 51.5 q-10.5 22.5 -23.5 36.5 q-13 14 -40.5 27.5 q-27.5 13.5 -45 19.5 q-17.5 6 -53.5 17 q-42 13 -70.5 26 q-28.5 13 -58.5 35 q-30 22 -45.5 56.5 q-15.5 34.5 -15.5 80.5 q0 65 35.5 110.5 q35.5 45.5 85 65 q49.5 19.5 105.5 19.5 q67 0 120 -24.5 q53 -24.5 80 -61.5 Z" /><glyph glyph-name="T" unicode="t" d="M321 644 l0 -644 l-72 0 l0 644 l-237 0 l0 64 l546 0 l0 -64 l-237 0 Z" /><glyph glyph-name="U" unicode="u" d="M463.5 0.5 q-47.5 -18.5 -108.5 -18.5 q-61 0 -108.5 18.5 q-47.5 18.5 -76.5 46.5 q-29 28 -47.5 67 q-18.5 39 -25.5 75.5 q-7 36.5 -7 74.5 l0 444 l72 0 l0 -436 q0 -96 46.5 -161 q46.5 -65 146.5 -65 q100 0 146.5 65 q46.5 65 46.5 161 l0 436 l72 0 l0 -444 q0 -38 -7 -74.5 q-7 -36.5 -25.5 -75.5 q-18.5 -39 -47.5 -67 q-29 -28 -76.5 -46.5 Z" /><glyph glyph-name="V" unicode="v" d="M81 708 l230 -615 l2 0 l230 615 l77 0 l-271 -708 l-76 0 l-270 708 l78 0 Z" /><glyph glyph-name="W" unicode="w" d="M90 708 l175 -609 l2 0 l177 609 l86 0 l177 -609 l2 0 l173 609 l76 0 l-209 -708 l-84 0 l-178 608 l-2 0 l-178 -608 l-84 0 l-209 708 l76 0 Z" /><glyph glyph-name="X" unicode="x" d="M132 708 l194 -286 l193 286 l86 0 l-235 -337 l260 -371 l-90 0 l-216 319 l-215 -319 l-90 0 l260 372 l-237 336 l90 0 Z" /><glyph glyph-name="Y" unicode="y" d="M337 305 l0 -305 l-72 0 l0 305 l-265 403 l90 0 l213 -343 l215 343 l84 0 l-265 -403 Z" /><glyph glyph-name="Z" unicode="z" d="M535 708 l0 -60 l-413 -584 l419 0 l0 -64 l-510 0 l0 60 l414 584 l-403 0 l0 64 l493 0 Z" /><glyph glyph-name="bracketleft" unicode="[" d="M220 732 l0 -54 l-96 0 l0 -780 l96 0 l0 -54 l-162 0 l0 888 l162 0 Z" /><glyph glyph-name="backslash" unicode="\" d="M307 -18 l-302 724 l57 20 l303 -725 l-58 -19 Z" /><glyph glyph-name="bracketright" unicode="]" d="M80 -156 l0 54 l96 0 l0 780 l-96 0 l0 54 l162 0 l0 -888 l-162 0 Z" /><glyph glyph-name="asciicircum" unicode="^" d="M80 275 l229 433 l48 0 l229 -433 l-62 0 l-191 361 l-191 -361 l-62 0 Z" /><glyph glyph-name="underscore" unicode="_" d="M0 -125 l0 50 l500 0 l0 -50 l-500 0 Z" /><glyph glyph-name="grave" unicode="`" d="M122 564 l-132 144 l91 0 l100 -144 l-59 0 Z" /><glyph glyph-name="a" unicode="a" d="M385 287 l0 15 q0 121 -125 121 q-84 0 -139 -55 l-38 45 q67 67 184 67 q80 0 131 -44 q51 -44 51 -126 l0 -205 q0 -63 8 -105 l-61 0 q-7 40 -7 76 l-2 0 q-61 -88 -170 -88 q-63 0 -112.5 35.5 q-49.5 35.5 -49.5 106.5 q0 35 12 61.5 q12 26.5 36 43.5 q24 17 52 27.5 q28 10.5 69 16 q41 5.5 76.5 7 q35.5 1.5 84.5 1.5 ZM385 234 l-20 0 q-48 0 -85.5 -3.5 q-37.5 -3.5 -75 -13.5 q-37.5 -10 -58.5 -31 q-21 -21 -21 -53 q0 -46 32 -67.5 q32 -21.5 78 -21.5 q69 0 109.5 45 q40.5 45 40.5 110 l0 35 Z" /><glyph glyph-name="b" unicode="b" d="M162 79 l-2 0 l0 -79 l-68 0 l0 756 l68 0 l0 -369 l2 0 q29 44 77 68.5 q48 24.5 100 24.5 q108 0 175 -70.5 q67 -70.5 67 -175.5 q0 -105 -67 -175.5 q-67 -70.5 -175 -70.5 q-52 0 -100 24 q-48 24 -77 67 ZM461.5 99.5 q47.5 53.5 47.5 134.5 q0 81 -47.5 135 q-47.5 54 -129.5 54 q-78 0 -129 -54 q-51 -54 -51 -135 q0 -81 51 -134.5 q51 -53.5 129 -53.5 q82 0 129.5 53.5 Z" /><glyph glyph-name="c" unicode="c" d="M480 399 l-53 -38 q-17 27 -49.5 44.5 q-32.5 17.5 -70.5 17.5 q-80 0 -129.5 -53.5 q-49.5 -53.5 -49.5 -135.5 q0 -81 49 -134.5 q49 -53.5 129 -53.5 q81 0 127 61 l51 -38 q-66 -81 -178 -81 q-112 0 -181 69.5 q-69 69.5 -69 176.5 q0 107 69 176.5 q69 69.5 181 69.5 q50 0 97.5 -21 q47.5 -21 76.5 -60 Z" /><glyph glyph-name="d" unicode="d" d="M475 79 q-29 -43 -77 -67 q-48 -24 -100 -24 q-108 0 -175 70.5 q-67 70.5 -67 175.5 q0 105 67 175.5 q67 70.5 175 70.5 q52 0 100 -24.5 q48 -24.5 77 -68.5 l2 0 l0 369 l68 0 l0 -756 l-68 0 l0 79 l-2 0 ZM175.5 369 q-47.5 -54 -47.5 -135 q0 -81 47.5 -134.5 q47.5 -53.5 129.5 -53.5 q78 0 129 53.5 q51 53.5 51 134.5 q0 81 -51 135 q-51 54 -129 54 q-82 0 -129.5 -54 Z" /><glyph glyph-name="e" unicode="e" d="M128 270 l319 0 q-3 68 -43.5 110.5 q-40.5 42.5 -111.5 42.5 q-66 0 -112.5 -45.5 q-46.5 -45.5 -51.5 -107.5 ZM516 248 q0 -20 -1 -32 l-388 0 q2 -71 51 -120.5 q49 -49.5 120 -49.5 q49 0 89 23.5 q40 23.5 61 57.5 l51 -40 q-78 -99 -201 -99 q-104 0 -173 70 q-69 70 -69 176 q0 105 68 175.5 q68 70.5 168 70.5 q106 0 165 -65.5 q59 -65.5 59 -166.5 Z" /><glyph glyph-name="f" unicode="f" d="M288 468 l0 -57 l-110 0 l0 -411 l-68 0 l0 411 l-98 0 l0 57 l98 0 l0 128 q0 81 40 126.5 q40 45.5 119 45.5 q32 0 56 -7 l-12 -60 q-24 7 -47 7 q-51 0 -69.5 -31 q-18.5 -31 -18.5 -89 l0 -120 l110 0 Z" /><glyph glyph-name="g" unicode="g" d="M66 -146 l49 52 q29 -37 78 -61.5 q49 -24.5 101 -24.5 q95 0 139 51 q44 51 44 133 l0 88 l-2 0 q-26 -42 -75.5 -67 q-49.5 -25 -101.5 -25 q-108 0 -175 67 q-67 67 -67 171 q0 102 67.5 172 q67.5 70 174.5 70 q53 0 101.5 -24.5 q48.5 -24.5 75.5 -68.5 l2 0 l0 81 l68 0 l0 -464 q0 -43 -11.5 -82 q-11.5 -39 -37.5 -77.5 q-26 -38.5 -78.5 -61.5 q-52.5 -23 -126.5 -23 q-64 0 -123.5 25 q-59.5 25 -101.5 69 ZM175.5 370 q-47.5 -53 -47.5 -130 q0 -77 47.5 -129.5 q47.5 -52.5 129.5 -52.5 q79 0 129.5 50.5 q50.5 50.5 50.5 131.5 q0 75 -51.5 129 q-51.5 54 -128.5 54 q-82 0 -129.5 -53 Z" /><glyph glyph-name="h" unicode="h" d="M160 391 l2 0 q18 40 62.5 64.5 q44.5 24.5 94.5 24.5 q87 0 132.5 -52 q45.5 -52 45.5 -141 l0 -287 l-68 0 l0 259 q0 79 -28.5 121.5 q-28.5 42.5 -98.5 42.5 q-59 0 -100.5 -47.5 q-41.5 -47.5 -41.5 -135.5 l0 -240 l-68 0 l0 756 l68 0 l0 -365 Z" /><glyph glyph-name="i" unicode="i" d="M159 468 l0 -468 l-68 0 l0 468 l68 0 ZM158.5 682 q14.5 -14 14.5 -34 q0 -20 -14.5 -34 q-14.5 -14 -33.5 -14 q-19 0 -33.5 14 q-14.5 14 -14.5 34 q0 20 14.5 34 q14.5 14 33.5 14 q19 0 33.5 -14 Z" /><glyph glyph-name="j" unicode="j" d="M-27 -233 l10 57 q20 -6 43 -6 q40 0 53 25 q13 25 13 75 l0 550 l68 0 l0 -561 q0 -147 -133 -147 q-30 0 -54 7 ZM159.5 682 q14.5 -14 14.5 -34 q0 -20 -14.5 -34 q-14.5 -14 -33.5 -14 q-19 0 -33.5 14 q-14.5 14 -14.5 34 q0 20 14.5 34 q14.5 14 33.5 14 q19 0 33.5 -14 Z" /><glyph glyph-name="k" unicode="k" d="M160 756 l0 -499 l3 0 l216 211 l98 0 l-236 -214 l260 -254 l-100 0 l-238 246 l-3 0 l0 -246 l-68 0 l0 756 l68 0 Z" /><glyph glyph-name="l" unicode="l" d="M160 756 l0 -756 l-68 0 l0 756 l68 0 Z" /><glyph glyph-name="m" unicode="m" d="M157 388 q21 41 62.5 66.5 q41.5 25.5 91.5 25.5 q106 0 144 -99 q49 99 164 99 q87 0 132.5 -52 q45.5 -52 45.5 -141 l0 -287 l-68 0 l0 259 q0 164 -121 164 q-68 0 -100.5 -50.5 q-32.5 -50.5 -32.5 -123.5 l0 -249 l-68 0 l0 273 q0 74 -24.5 112 q-24.5 38 -88.5 38 q-54 0 -95 -47.5 q-41 -47.5 -41 -135.5 l0 -240 l-68 0 l0 365 q0 60 -4 103 l65 0 q4 -50 4 -80 l2 0 Z" /><glyph glyph-name="n" unicode="n" d="M86 468 l65 0 q4 -50 4 -80 l2 0 q19 40 64.5 66 q45.5 26 95.5 26 q87 0 132.5 -52 q45.5 -52 45.5 -141 l0 -287 l-68 0 l0 259 q0 79 -28.5 121.5 q-28.5 42.5 -98.5 42.5 q-59 0 -100.5 -47.5 q-41.5 -47.5 -41.5 -135.5 l0 -240 l-68 0 l0 365 q0 60 -4 103 Z" /><glyph glyph-name="o" unicode="o" d="M484.5 410 q70.5 -70 70.5 -176 q0 -106 -70.5 -176 q-70.5 -70 -179.5 -70 q-108 0 -178.5 70 q-70.5 70 -70.5 176 q0 106 70.5 176 q70.5 70 178.5 70 q109 0 179.5 -70 ZM434 99.5 q49 53.5 49 134.5 q0 81 -49 135 q-49 54 -129 54 q-79 0 -128 -54 q-49 -54 -49 -135 q0 -80 49 -134 q49 -54 128 -54 q80 0 129 53.5 Z" /><glyph glyph-name="p" unicode="p" d="M158 79 l0 -319 l-68 0 l0 708 l68 0 l0 -81 l3 0 q28 44 76 68.5 q48 24.5 100 24.5 q108 0 175 -70.5 q67 -70.5 67 -175.5 q0 -105 -67 -175.5 q-67 -70.5 -175 -70.5 q-51 0 -99 24 q-48 24 -77 67 l-3 0 ZM459.5 99.5 q47.5 53.5 47.5 134.5 q0 81 -47.5 135 q-47.5 54 -129.5 54 q-78 0 -129 -54 q-51 -54 -51 -135 q0 -81 51 -134.5 q51 -53.5 129 -53.5 q82 0 129.5 53.5 Z" /><glyph glyph-name="q" unicode="q" d="M477 79 l-3 0 q-29 -43 -77 -67 q-48 -24 -99 -24 q-108 0 -175 70.5 q-67 70.5 -67 175.5 q0 105 67 175.5 q67 70.5 175 70.5 q52 0 100 -24.5 q48 -24.5 76 -68.5 l3 0 l0 81 l68 0 l0 -708 l-68 0 l0 319 ZM175.5 369 q-47.5 -54 -47.5 -135 q0 -81 47.5 -134.5 q47.5 -53.5 129.5 -53.5 q78 0 129 53.5 q51 53.5 51 134.5 q0 81 -51 135 q-51 54 -129 54 q-82 0 -129.5 -54 Z" /><glyph glyph-name="r" unicode="r" d="M90 365 q0 60 -4 103 l65 0 q4 -50 4 -80 l2 0 q20 41 60.5 66.5 q40.5 25.5 89.5 25.5 q27 0 45 -5 l-9 -64 q-16 6 -48 6 q-59 0 -98 -44.5 q-39 -44.5 -39 -132.5 l0 -240 l-68 0 l0 365 Z" /><glyph glyph-name="s" unicode="s" d="M391 396 l-52 -39 q-15 30 -46 48 q-31 18 -69 18 q-41 0 -70 -18.5 q-29 -18.5 -29 -54.5 q0 -32 26 -50 q26 -18 86 -30 q83 -17 122.5 -50 q39.5 -33 39.5 -87 q0 -74 -51.5 -109.5 q-51.5 -35.5 -124.5 -35.5 q-123 0 -185 91 l54 40 q19 -32 54.5 -52.5 q35.5 -20.5 75.5 -20.5 q48 0 79 19.5 q31 19.5 31 62.5 q0 35 -32.5 54 q-32.5 19 -105.5 36 q-26 6 -45 13 q-19 7 -41.5 21 q-22.5 14 -35 37.5 q-12.5 23.5 -12.5 54.5 q0 67 48.5 101.5 q48.5 34.5 118.5 34.5 q50 0 96 -22.5 q46 -22.5 68 -61.5 Z" /><glyph glyph-name="t" unicode="t" d="M301 468 l0 -57 l-132 0 l0 -273 q0 -49 18 -67.5 q18 -18.5 52 -18.5 q29 0 59 15 l3 -59 q-37 -14 -80 -14 q-48 0 -84 28 q-36 28 -36 97 l0 292 l-97 0 l0 57 l97 0 l0 132 l68 0 l0 -132 l132 0 Z" /><glyph glyph-name="u" unicode="u" d="M495 0 l-65 0 q-4 50 -4 80 l-2 0 q-19 -40 -64.5 -66 q-45.5 -26 -95.5 -26 q-87 0 -132.5 52 q-45.5 52 -45.5 141 l0 287 l68 0 l0 -259 q0 -79 28.5 -121.5 q28.5 -42.5 98.5 -42.5 q59 0 100.5 47.5 q41.5 47.5 41.5 135.5 l0 240 l68 0 l0 -365 q0 -60 4 -103 Z" /><glyph glyph-name="v" unicode="v" d="M472 468 l-190 -468 l-75 0 l-191 468 l76 0 l152 -396 l2 0 l153 396 l73 0 Z" /><glyph glyph-name="w" unicode="w" d="M26 468 l73 0 l113 -380 l2 0 l126 380 l66 0 l128 -380 l2 0 l112 380 l72 0 l-148 -468 l-74 0 l-125 379 l-2 0 l-123 -379 l-74 0 l-148 468 Z" /><glyph glyph-name="x" unicode="x" d="M16 0 l184 242 l-173 226 l87 0 l128 -178 l128 178 l82 0 l-170 -223 l186 -245 l-88 0 l-139 195 l-143 -195 l-82 0 Z" /><glyph glyph-name="y" unicode="y" d="M92 468 l159 -395 l2 0 l145 395 l74 0 l-233 -589 q-23 -59 -56.5 -89 q-33.5 -30 -90.5 -30 q-31 0 -61 6 l7 62 q24 -8 50 -8 q33 0 53.5 20.5 q20.5 20.5 36.5 62.5 l38 98 l-200 467 l76 0 Z" /><glyph glyph-name="z" unicode="z" d="M401 468 l0 -48 l-280 -361 l290 0 l0 -59 l-380 0 l0 48 l279 363 l-265 0 l0 57 l356 0 Z" /><glyph glyph-name="braceleft" unicode="{" d="M0 258 l0 60 q39 0 59 29 q20 29 20 82 l0 178 q0 66 30 95.5 q30 29.5 78 29.5 l63 0 l0 -54 l-48 0 q-57 0 -57 -83 l0 -178 q0 -63 -30.5 -93.5 q-30.5 -30.5 -58.5 -34.5 l0 -2 q28 -4 58.5 -34.5 q30.5 -30.5 30.5 -93.5 l0 -178 q0 -83 57 -83 l48 0 l0 -54 l-63 0 q-48 0 -78 29.5 q-30 29.5 -30 95.5 l0 178 q0 53 -20 82 q-20 29 -59 29 Z" /><glyph glyph-name="bar" unicode="|" d="M81 750 l60 0 l0 -1000 l-60 0 l0 1000 Z" /><glyph glyph-name="braceright" unicode="}" d="M300 318 l0 -60 q-39 0 -59 -29 q-20 -29 -20 -82 l0 -178 q0 -66 -30 -95.5 q-30 -29.5 -78 -29.5 l-63 0 l0 54 l48 0 q57 0 57 83 l0 178 q0 63 30.5 93.5 q30.5 30.5 58.5 34.5 l0 2 q-28 4 -58.5 34.5 q-30.5 30.5 -30.5 93.5 l0 178 q0 83 -57 83 l-48 0 l0 54 l63 0 q48 0 78 -29.5 q30 -29.5 30 -95.5 l0 -178 q0 -53 20 -82 q20 -29 59 -29 Z" /><glyph glyph-name="asciitilde" unicode="~" d="M535 368 l42 -40 q-60 -93 -136 -93 q-55 0 -111 36 q-63 40 -103 40 q-56 0 -96 -73 l-42 40 q19 27 34.5 44 q15.5 17 43.5 33 q28 16 58 16 q57 0 110 -35 q64 -41 103 -41 q53 0 97 73 Z" /><glyph glyph-name="nonbreakingspace" unicode=" " d="" /><glyph glyph-name="exclamdown" unicode="¡" d="M200 287 l0 -516 l-72 0 l0 516 l72 0 ZM202.5 469 q15.5 -16 15.5 -38 q0 -22 -15.5 -38 q-15.5 -16 -38.5 -16 q-23 0 -38.5 16 q-15.5 16 -15.5 38 q0 22 15.5 38 q15.5 16 38.5 16 q23 0 38.5 -16 Z" /><glyph glyph-name="cent" unicode="¢" d="M298 51 l0 366 q-64 -11 -101 -61.5 q-37 -50.5 -37 -121.5 q0 -71 37 -121.5 q37 -50.5 101 -61.5 ZM346 419 l0 -370 q35 2 63 19 q28 17 44 42 l54 -41 q-63 -75 -161 -80 l0 -61 l-48 0 l0 63 q-97 10 -153.5 77.5 q-56.5 67.5 -56.5 165.5 q0 98 56.5 165.5 q56.5 67.5 153.5 77.5 l0 63 l48 0 l0 -61 q98 -5 161 -80 l-54 -41 q-16 25 -44 42 q-28 17 -63 19 Z" /><glyph glyph-name="sterling" unicode="£" d="M417 395 l0 -60 l-168 0 l0 -275 l262 0 l0 -60 l-436 0 l0 60 l102 0 l0 275 l-96 0 l0 60 l96 0 l0 93 q0 46 11 86 q11 40 34.5 75.5 q23.5 35.5 66 56 q42.5 20.5 100.5 20.5 q98 0 155 -60 l-47 -51 q-43 50 -111 50 q-42 0 -71 -18 q-29 -18 -42.5 -48.5 q-13.5 -30.5 -18.5 -58.5 q-5 -28 -5 -58 l0 -87 l168 0 Z" /><glyph glyph-name="currency" unicode="¤" d="M636 468 q51 -67 51 -159 q0 -96 -55 -164 l94 -93 l-43 -44 l-95 95 q-67 -51 -157 -51 q-90 0 -158 53 l-97 -97 q-28 30 -43 44 l96 96 q-53 64 -53 161 q0 91 50 157 l-93 92 l44 43 q13 -14 28.5 -29.5 q15.5 -15.5 34.5 -34 q19 -18.5 29 -28.5 q70 55 162 55 q93 0 160 -54 q14 13 29 28.5 q15 15.5 33.5 34 q18.5 18.5 28.5 28.5 l44 -43 l-90 -90 ZM562.5 442 q-50.5 54 -131.5 54 q-81 0 -131.5 -54 q-50.5 -54 -50.5 -133 q0 -80 50.5 -134.5 q50.5 -54.5 131.5 -54.5 q81 0 131.5 54.5 q50.5 54.5 50.5 134.5 q0 79 -50.5 133 Z" /><glyph glyph-name="yen" unicode="¥" d="M91 223 l165 0 l0 105 l-165 0 l0 54 l145 0 l-226 326 l89 0 l193 -300 l192 300 l86 0 l-224 -326 l143 0 l0 -54 l-165 0 l0 -105 l165 0 l0 -54 l-165 0 l0 -169 l-68 0 l0 169 l-165 0 l0 54 Z" /><glyph glyph-name="brokenbar" unicode="¦" d="M81 675 l60 0 l0 -350 l-60 0 l0 350 ZM81 175 l60 0 l0 -350 l-60 0 l0 350 Z" /><glyph glyph-name="section" unicode="§" d="M474 632 l-59 -30 q-10 26 -37.5 45 q-27.5 19 -70.5 19 q-49 0 -78.5 -24 q-29.5 -24 -29.5 -65 q0 -42 25.5 -65 q25.5 -23 72.5 -43 l87 -41 q103 -50 103 -142 q0 -47 -25 -82 q-25 -35 -64 -49 q71 -43 71 -125 q0 -79 -54.5 -121 q-54.5 -42 -133.5 -42 q-69 0 -122 29 q-53 29 -76 86 l66 32 q16 -44 51.5 -65.5 q35.5 -21.5 80.5 -21.5 q45 0 80.5 23 q35.5 23 35.5 75 q0 60 -75 96 l-127 61 q-45 22 -70 52.5 q-25 30.5 -25 81.5 q0 48 28.5 82.5 q28.5 34.5 75.5 49.5 q-77 46 -77 120 q0 76 52.5 117 q52.5 41 128.5 41 q64 0 107 -26.5 q43 -26.5 59 -67.5 ZM320 384 l-61 26 q-34 -4 -61.5 -26.5 q-27.5 -22.5 -27.5 -63.5 q0 -37 24.5 -57.5 q24.5 -20.5 83.5 -45.5 l66 -30 q29 7 51 30 q22 23 22 59 q0 41 -25 64.5 q-25 23.5 -72 43.5 Z" /><glyph glyph-name="dieresis" unicode="¨" d="M-12.5 611.5 q-14.5 15.5 -14.5 35.5 q0 20 14.5 35.5 q14.5 15.5 36.5 15.5 q22 0 36.5 -15.5 q14.5 -15.5 14.5 -35.5 q0 -20 -14.5 -35.5 q-14.5 -15.5 -36.5 -15.5 q-22 0 -36.5 15.5 ZM179.5 611.5 q-14.5 15.5 -14.5 35.5 q0 20 14.5 35.5 q14.5 15.5 36.5 15.5 q22 0 36.5 -15.5 q14.5 -15.5 14.5 -35.5 q0 -20 -14.5 -35.5 q-14.5 -15.5 -36.5 -15.5 q-22 0 -36.5 15.5 Z" /><glyph glyph-name="copyright" unicode="©" d="M528 258 l52 -34 q-26 -40 -70 -65.5 q-44 -25.5 -100 -25.5 q-98 0 -162 64 q-64 64 -64 162 q0 97 64 161 q64 64 162 64 q49 0 93.5 -21.5 q44.5 -21.5 68.5 -57.5 l-52 -40 q-15 24 -45 41.5 q-30 17.5 -63 17.5 q-71 0 -115 -48.5 q-44 -48.5 -44 -116.5 q0 -69 43 -117.5 q43 -48.5 114 -48.5 q73 0 118 65 ZM20 353 q0 157 111.5 267 q111.5 110 269.5 110 q157 0 268 -110 q111 -110 111 -267 q0 -156 -111 -265.5 q-111 -109.5 -268 -109.5 q-158 0 -269.5 109.5 q-111.5 109.5 -111.5 265.5 ZM80 353 q0 -132 94 -225.5 q94 -93.5 227 -93.5 q132 0 225.5 93.5 q93.5 93.5 93.5 225.5 q0 133 -93.5 227 q-93.5 94 -225.5 94 q-133 0 -227 -94 q-94 -94 -94 -227 Z" /><glyph glyph-name="ordfeminine" unicode="ª" d="M244 606 l0 8 q0 30 -20 45.5 q-20 15.5 -53 15.5 q-51 0 -83 -32 l-32 35 q47 42 120 42 q60 0 91.5 -30.5 q31.5 -30.5 31.5 -79.5 l0 -123 q0 -37 4 -56 l-52 0 q-5 22 -5 41 l-2 0 q-33 -48 -98 -48 q-42 0 -74 21 q-32 21 -32 66 q0 30 17 50.5 q17 20.5 49 29.5 q32 9 63.5 12 q31.5 3 74.5 3 ZM244 566 l-15 0 q-130 0 -130 -54 q0 -44 59 -44 q40 0 63 23 q23 23 23 60 l0 15 Z" /><glyph glyph-name="guillemotleft" unicode="«" d="M239 416 l-115 -176 l115 -176 l-47 -33 l-140 209 l140 209 l47 -33 ZM421 416 l-115 -176 l115 -176 l-47 -33 l-140 209 l140 209 l47 -33 Z" /><glyph glyph-name="logicalnot" unicode="¬" d="M588 408 l0 -278 l-60 0 l0 218 l-450 0 l0 60 l510 0 Z" /><glyph glyph-name="uni00AD" unicode="­" d="M272 271 l0 -57 l-224 0 l0 57 l224 0 Z" /><glyph glyph-name="registered" unicode="®" d="M138.5 333.5 q-66.5 65.5 -66.5 159.5 q0 94 66.5 160.5 q66.5 66.5 161.5 66.5 q95 0 161.5 -66.5 q66.5 -66.5 66.5 -160.5 q0 -94 -66.5 -159.5 q-66.5 -65.5 -161.5 -65.5 q-95 0 -161.5 65.5 ZM164 628.5 q-56 -56.5 -56 -135.5 q0 -79 56.5 -135.5 q56.5 -56.5 135.5 -56.5 q79 0 135.5 56.5 q56.5 56.5 56.5 135.5 q0 79 -56 135.5 q-56 56.5 -136 56.5 q-80 0 -136 -56.5 ZM211 366 l0 256 l90 0 q40 0 67.5 -18.5 q27.5 -18.5 27.5 -56.5 q0 -56 -59 -69 l69 -112 l-56 0 l-60 107 l-33 0 l0 -107 l-46 0 ZM257 510 l37 0 q56 0 56 38 q0 35 -51 35 l-42 0 l0 -73 Z" /><glyph glyph-name="macron" unicode="¯" d="M255 654 l0 -54 l-270 0 l0 54 l270 0 Z" /><glyph glyph-name="degree" unicode="°" d="M306.5 678 q42.5 -42 42.5 -107 q0 -65 -42.5 -107 q-42.5 -42 -106.5 -42 q-64 0 -106.5 42 q-42.5 42 -42.5 107 q0 65 42.5 107 q42.5 42 106.5 42 q64 0 106.5 -42 ZM271.5 499.5 q29.5 29.5 29.5 71.5 q0 42 -29.5 71.5 q-29.5 29.5 -71.5 29.5 q-42 0 -71.5 -29.5 q-29.5 -29.5 -29.5 -71.5 q0 -42 29.5 -71.5 q29.5 -29.5 71.5 -29.5 q42 0 71.5 29.5 Z" /><glyph glyph-name="plusminus" unicode="±" d="M78 347 l0 60 l225 0 l0 156 l60 0 l0 -156 l225 0 l0 -60 l-225 0 l0 -151 l-60 0 l0 151 l-225 0 ZM78 48 l0 60 l510 0 l0 -60 l-510 0 Z" /><glyph glyph-name="twosuperior" unicode="²" d="M319 452 l-276 0 l0 57 l167 169 q43 45 43 86 q0 28 -19 45 q-19 17 -48 17 q-28 0 -48 -19 q-20 -19 -27 -51 l-60 9 q10 51 47.5 83.5 q37.5 32.5 87.5 32.5 q56 0 93.5 -30.5 q37.5 -30.5 37.5 -86.5 q0 -27 -12 -53 q-12 -26 -24 -40 q-12 -14 -35 -37 l-128 -128 l201 0 l0 -54 Z" /><glyph glyph-name="threesuperior" unicode="³" d="M320 572 q0 -60 -40.5 -93.5 q-40.5 -33.5 -99.5 -33.5 q-102 0 -141 96 l57 19 q10 -29 32 -45 q22 -16 52 -16 q33 0 56.5 19 q23.5 19 23.5 54 q0 38 -27.5 55.5 q-27.5 17.5 -68.5 17.5 l-27 0 l0 51 l27 0 q84 0 84 70 q0 27 -20 44.5 q-20 17.5 -49 17.5 q-48 0 -75 -50 l-50 26 q44 77 127 77 q55 0 91 -29.5 q36 -29.5 36 -84.5 q0 -63 -57 -93 q69 -26 69 -102 Z" /><glyph glyph-name="acute" unicode="´" d="M250 708 l-132 -144 l-59 0 l100 144 l91 0 Z" /><glyph glyph-name="mu" unicode="µ" d="M90 468 l68 0 l0 -262 q0 -161 124 -161 q69 0 107 52 q38 52 38 128 l0 243 l68 0 l0 -373 q0 -23 5.5 -33 q5.5 -10 22.5 -10 q13 0 26 5 l3 -56 q-23 -7 -45 -7 q-73 0 -75 86 l-2 0 q-20 -41 -65 -66.5 q-45 -25.5 -94 -25.5 q-80 0 -111 48 l-2 0 l0 -276 l-68 0 l0 708 Z" /><glyph glyph-name="paragraph" unicode="¶" d="M513 708 l0 -834 l-66 0 l0 780 l-124 0 l0 -780 l-66 0 l0 442 q-91 0 -150 53.5 q-59 53.5 -59 132.5 q0 97 61 151.5 q61 54.5 167 54.5 l237 0 Z" /><glyph glyph-name="periodcentered" unicode="·" d="M168.5 352 q15.5 -16 15.5 -38 q0 -22 -15.5 -38 q-15.5 -16 -38.5 -16 q-23 0 -38.5 16 q-15.5 16 -15.5 38 q0 22 15.5 38 q15.5 16 38.5 16 q23 0 38.5 -16 Z" /><glyph glyph-name="cedilla" unicode="¸" d="M156 0 l-47 -75 q13 4 35 4 q33 0 57.5 -19 q24.5 -19 24.5 -53 q0 -46 -35 -66.5 q-35 -20.5 -83 -20.5 q-51 0 -94 20 l16 36 q31 -14 72 -14 q21 0 42.5 11 q21.5 11 21.5 33 q0 39 -54 39 q-22 0 -43 -8 l-18 15 l62 98 l43 0 Z" /><glyph glyph-name="onesuperior" unicode="¹" d="M171 452 l0 346 l-64 -57 l-38 41 l112 92 l51 0 l0 -422 l-61 0 Z" /><glyph glyph-name="ordmasculine" unicode="º" d="M332 572 q0 -64 -43 -106 q-43 -42 -109 -42 q-66 0 -109 42 q-43 42 -43 106 q0 65 43 106.5 q43 41.5 109 41.5 q66 0 109 -41.5 q43 -41.5 43 -106.5 ZM274 572 q0 43 -25 72.5 q-25 29.5 -69 29.5 q-44 0 -69 -29.5 q-25 -29.5 -25 -72.5 q0 -42 25 -72 q25 -30 69 -30 q44 0 69 30 q25 30 25 72 Z" /><glyph glyph-name="guillemotright" unicode="»" d="M243 64 l115 176 l-115 176 l47 33 l140 -209 l-140 -209 l-47 33 ZM61 64 l115 176 l-115 176 l47 33 l140 -209 l-140 -209 l-47 33 Z" /><glyph glyph-name="onequarter" unicode="¼" d="M723 422 l0 -270 l60 0 l0 -54 l-60 0 l0 -98 l-55 0 l0 98 l-188 0 l0 52 l175 272 l68 0 ZM668 340 l-3 0 l-122 -188 l125 0 l0 188 ZM232 708 l0 -422 l-61 0 l0 346 l-64 -57 l-38 41 l112 92 l51 0 ZM667 712 l-450 -743 l-52 27 l451 743 l51 -27 Z" /><glyph glyph-name="onehalf" unicode="½" d="M786 54 l0 -54 l-276 0 l0 57 l167 169 q43 45 43 86 q0 28 -19 45 q-19 17 -48 17 q-28 0 -48 -19 q-20 -19 -27 -51 l-60 9 q10 51 47.5 83.5 q37.5 32.5 87.5 32.5 q56 0 93.5 -30.5 q37.5 -30.5 37.5 -86.5 q0 -27 -12 -53 q-12 -26 -24 -40 q-12 -14 -35 -37 l-128 -128 l201 0 ZM667 712 l-450 -743 l-52 27 l451 743 l51 -27 ZM232 708 l0 -422 l-61 0 l0 346 l-64 -57 l-38 41 l112 92 l51 0 Z" /><glyph glyph-name="threequarters" unicode="¾" d="M723 422 l0 -270 l60 0 l0 -54 l-60 0 l0 -98 l-55 0 l0 98 l-188 0 l0 52 l175 272 l68 0 ZM668 340 l-3 0 l-122 -188 l125 0 l0 188 ZM137 484 l0 51 l27 0 q84 0 84 70 q0 27 -20 44.5 q-20 17.5 -49 17.5 q-48 0 -75 -50 l-50 26 q44 77 127 77 q55 0 91 -29.5 q36 -29.5 36 -84.5 q0 -63 -57 -93 q69 -26 69 -102 q0 -60 -40.5 -93.5 q-40.5 -33.5 -99.5 -33.5 q-102 0 -141 96 l57 19 q10 -29 32 -45 q22 -16 52 -16 q33 0 56.5 19 q23.5 19 23.5 54 q0 38 -27.5 55.5 q-27.5 17.5 -68.5 17.5 l-27 0 ZM667 712 l-450 -743 l-52 27 l451 743 l51 -27 Z" /><glyph glyph-name="questiondown" unicode="¿" d="M214 241 l0 46 l70 0 l0 -60 q0 -51 -20.5 -84.5 q-20.5 -33.5 -59.5 -67.5 l-28 -25 q-58 -47 -58 -111 q0 -55 35.5 -86.5 q35.5 -31.5 89.5 -31.5 q52 0 86.5 32.5 q34.5 32.5 42.5 84.5 l68 -12 q-15 -77 -69 -122 q-54 -45 -131 -45 q-83 0 -138.5 47 q-55.5 47 -55.5 129 q0 41 14 73 q14 32 30 49 q16 17 48 43 q45 37 60.5 63 q15.5 26 15.5 78 ZM203.5 393 q-15.5 16 -15.5 38 q0 22 15.5 38 q15.5 16 38.5 16 q23 0 38.5 -16 q15.5 -16 15.5 -38 q0 -22 -15.5 -38 q-15.5 -16 -38.5 -16 q-23 0 -38.5 16 Z" /><glyph glyph-name="Agrave" unicode="à" d="M166 186 l-77 -186 l-79 0 l306 708 l70 0 l304 -708 l-80 0 l-78 186 l-366 0 ZM349 628 l-156 -376 l312 0 l-156 376 ZM324 764 l-132 144 l91 0 l100 -144 l-59 0 Z" /><glyph glyph-name="Aacute" unicode="á" d="M166 186 l-77 -186 l-79 0 l306 708 l70 0 l304 -708 l-80 0 l-78 186 l-366 0 ZM349 628 l-156 -376 l312 0 l-156 376 ZM511 908 l-132 -144 l-59 0 l100 144 l91 0 Z" /><glyph glyph-name="Acircumflex" unicode="â" d="M166 186 l-77 -186 l-79 0 l306 708 l70 0 l304 -708 l-80 0 l-78 186 l-366 0 ZM349 628 l-156 -376 l312 0 l-156 376 ZM389 908 l109 -144 l-66 0 l-83 108 l-83 -108 l-66 0 l109 144 l80 0 Z" /><glyph glyph-name="Atilde" unicode="ã" d="M166 186 l-77 -186 l-79 0 l306 708 l70 0 l304 -708 l-80 0 l-78 186 l-366 0 ZM349 628 l-156 -376 l312 0 l-156 376 ZM231 776 l-43 0 q18 104 92 104 q27 0 73 -23 q50 -23 67 -23 q37 0 49 50 l43 0 q-18 -104 -92 -104 q-29 0 -73 23 q-44 23 -67 23 q-37 0 -49 -50 Z" /><glyph glyph-name="Adieresis" unicode="ä" d="M166 186 l-77 -186 l-79 0 l306 708 l70 0 l304 -708 l-80 0 l-78 186 l-366 0 ZM349 628 l-156 -376 l312 0 l-156 376 ZM218.5 811.5 q-14.5 15.5 -14.5 35.5 q0 20 14.5 35.5 q14.5 15.5 36.5 15.5 q22 0 36.5 -15.5 q14.5 -15.5 14.5 -35.5 q0 -20 -14.5 -35.5 q-14.5 -15.5 -36.5 -15.5 q-22 0 -36.5 15.5 ZM410.5 811.5 q-14.5 15.5 -14.5 35.5 q0 20 14.5 35.5 q14.5 15.5 36.5 15.5 q22 0 36.5 -15.5 q14.5 -15.5 14.5 -35.5 q0 -20 -14.5 -35.5 q-14.5 -15.5 -36.5 -15.5 q-22 0 -36.5 15.5 Z" /><glyph glyph-name="Aring" unicode="å" d="M166 186 l-77 -186 l-79 0 l306 708 l70 0 l304 -708 l-80 0 l-78 186 l-366 0 ZM349 628 l-156 -376 l312 0 l-156 376 ZM417.5 917.5 q28.5 -27.5 28.5 -67.5 q0 -40 -28.5 -67.5 q-28.5 -27.5 -67.5 -27.5 q-39 0 -67.5 27.5 q-28.5 27.5 -28.5 67.5 q0 40 28.5 67.5 q28.5 27.5 67.5 27.5 q39 0 67.5 -27.5 ZM392.5 808 q17.5 17 17.5 42 q0 25 -17.5 42 q-17.5 17 -42.5 17 q-25 0 -42.5 -17 q-17.5 -17 -17.5 -42 q0 -25 17.5 -42 q17.5 -17 42.5 -17 q25 0 42.5 17 Z" /><glyph glyph-name="AE" unicode="æ" d="M591 337 l0 -273 l345 0 l0 -64 l-417 0 l0 198 l-298 0 l-128 -198 l-82 0 l461 708 l452 0 l0 -64 l-333 0 l0 -244 l309 0 l0 -63 l-309 0 ZM258 261 l261 0 l0 383 l-14 0 l-247 -383 Z" /><glyph glyph-name="Ccedilla" unicode="ç" d="M634 150 l56 -36 q-38 -58 -106.5 -95 q-68.5 -37 -158.5 -37 l-35 -57 q13 4 35 4 q33 0 57.5 -19 q24.5 -19 24.5 -53 q0 -46 -35 -66.5 q-35 -20.5 -83 -20.5 q-51 0 -94 20 l16 36 q31 -14 72 -14 q21 0 42.5 11 q21.5 11 21.5 33 q0 39 -54 39 q-22 0 -43 -8 l-18 15 l52 82 q-145 14 -236.5 117 q-91.5 103 -91.5 253 q0 161 105 266.5 q105 105.5 264 105.5 q78 0 146.5 -30.5 q68.5 -30.5 105.5 -81.5 l-60 -44 q-25 38 -76.5 65.5 q-51.5 27.5 -114.5 27.5 q-133 0 -213.5 -90 q-80.5 -90 -80.5 -219 q0 -129 81 -219 q81 -90 213 -90 q138 0 208 105 Z" /><glyph glyph-name="Egrave" unicode="è" d="M166 337 l0 -273 l379 0 l0 -64 l-451 0 l0 708 l439 0 l0 -64 l-367 0 l0 -244 l343 0 l0 -63 l-343 0 ZM316 764 l-132 144 l91 0 l100 -144 l-59 0 Z" /><glyph glyph-name="Eacute" unicode="é" d="M166 337 l0 -273 l379 0 l0 -64 l-451 0 l0 708 l439 0 l0 -64 l-367 0 l0 -244 l343 0 l0 -63 l-343 0 ZM456 908 l-132 -144 l-59 0 l100 144 l91 0 Z" /><glyph glyph-name="Ecircumflex" unicode="ê" d="M166 337 l0 -273 l379 0 l0 -64 l-451 0 l0 708 l439 0 l0 -64 l-367 0 l0 -244 l343 0 l0 -63 l-343 0 ZM356 908 l109 -144 l-66 0 l-83 108 l-83 -108 l-66 0 l109 144 l80 0 Z" /><glyph glyph-name="Edieresis" unicode="ë" d="M166 337 l0 -273 l379 0 l0 -64 l-451 0 l0 708 l439 0 l0 -64 l-367 0 l0 -244 l343 0 l0 -63 l-343 0 ZM183.5 811.5 q-14.5 15.5 -14.5 35.5 q0 20 14.5 35.5 q14.5 15.5 36.5 15.5 q22 0 36.5 -15.5 q14.5 -15.5 14.5 -35.5 q0 -20 -14.5 -35.5 q-14.5 -15.5 -36.5 -15.5 q-22 0 -36.5 15.5 ZM375.5 811.5 q-14.5 15.5 -14.5 35.5 q0 20 14.5 35.5 q14.5 15.5 36.5 15.5 q22 0 36.5 -15.5 q14.5 -15.5 14.5 -35.5 q0 -20 -14.5 -35.5 q-14.5 -15.5 -36.5 -15.5 q-22 0 -36.5 15.5 Z" /><glyph glyph-name="Igrave" unicode="ì" d="M166 708 l0 -708 l-72 0 l0 708 l72 0 ZM106 764 l-132 144 l91 0 l100 -144 l-59 0 Z" /><glyph glyph-name="Iacute" unicode="í" d="M166 708 l0 -708 l-72 0 l0 708 l72 0 ZM285 908 l-132 -144 l-59 0 l100 144 l91 0 Z" /><glyph glyph-name="Icircumflex" unicode="î" d="M166 708 l0 -708 l-72 0 l0 708 l72 0 ZM170 908 l109 -144 l-66 0 l-83 108 l-83 -108 l-66 0 l109 144 l80 0 Z" /><glyph glyph-name="Idieresis" unicode="ï" d="M166 708 l0 -708 l-72 0 l0 708 l72 0 ZM-2.5 811.5 q-14.5 15.5 -14.5 35.5 q0 20 14.5 35.5 q14.5 15.5 36.5 15.5 q22 0 36.5 -15.5 q14.5 -15.5 14.5 -35.5 q0 -20 -14.5 -35.5 q-14.5 -15.5 -36.5 -15.5 q-22 0 -36.5 15.5 ZM189.5 811.5 q-14.5 15.5 -14.5 35.5 q0 20 14.5 35.5 q14.5 15.5 36.5 15.5 q22 0 36.5 -15.5 q14.5 -15.5 14.5 -35.5 q0 -20 -14.5 -35.5 q-14.5 -15.5 -36.5 -15.5 q-22 0 -36.5 15.5 Z" /><glyph glyph-name="Eth" unicode="ð" d="M86 0 l0 347 l-73 0 l0 54 l73 0 l0 307 l235 0 q68 0 133 -22.5 q65 -22.5 119 -65 q54 -42.5 87 -112 q33 -69.5 33 -154.5 q0 -85 -33 -154.5 q-33 -69.5 -87 -112 q-54 -42.5 -119 -65 q-65 -22.5 -133 -22.5 l-235 0 ZM158 347 l0 -281 l140 0 q78 0 140 24 q62 24 100 65 q38 41 57.5 92 q19.5 51 19.5 107 q0 56 -19.5 107 q-19.5 51 -57.5 92 q-38 41 -100 65 q-62 24 -140 24 l-140 0 l0 -241 l258 0 l0 -54 l-258 0 Z" /><glyph glyph-name="Ntilde" unicode="ñ" d="M184 708 l412 -603 l2 0 l0 603 l72 0 l0 -708 l-90 0 l-412 609 l-2 0 l0 -609 l-72 0 l0 708 l90 0 ZM266 776 l-43 0 q18 104 92 104 q27 0 73 -23 q50 -23 67 -23 q37 0 49 50 l43 0 q-18 -104 -92 -104 q-29 0 -73 23 q-44 23 -67 23 q-37 0 -49 -50 Z" /><glyph glyph-name="Ograve" unicode="ò" d="M689 620.5 q105 -105.5 105 -266.5 q0 -161 -105 -266.5 q-105 -105.5 -264 -105.5 q-159 0 -264 105.5 q-105 105.5 -105 266.5 q0 161 105 266.5 q105 105.5 264 105.5 q159 0 264 -105.5 ZM637.5 135.5 q80.5 89.5 80.5 218.5 q0 129 -80.5 219 q-80.5 90 -212.5 90 q-132 0 -212.5 -90 q-80.5 -90 -80.5 -219 q0 -129 80.5 -218.5 q80.5 -89.5 212.5 -89.5 q132 0 212.5 89.5 ZM439 764 l-132 144 l91 0 l100 -144 l-59 0 Z" /><glyph glyph-name="Oacute" unicode="ó" d="M689 620.5 q105 -105.5 105 -266.5 q0 -161 -105 -266.5 q-105 -105.5 -264 -105.5 q-159 0 -264 105.5 q-105 105.5 -105 266.5 q0 161 105 266.5 q105 105.5 264 105.5 q159 0 264 -105.5 ZM637.5 135.5 q80.5 89.5 80.5 218.5 q0 129 -80.5 219 q-80.5 90 -212.5 90 q-132 0 -212.5 -90 q-80.5 -90 -80.5 -219 q0 -129 80.5 -218.5 q80.5 -89.5 212.5 -89.5 q132 0 212.5 89.5 ZM558 908 l-132 -144 l-59 0 l100 144 l91 0 Z" /><glyph glyph-name="Ocircumflex" unicode="ô" d="M689 620.5 q105 -105.5 105 -266.5 q0 -161 -105 -266.5 q-105 -105.5 -264 -105.5 q-159 0 -264 105.5 q-105 105.5 -105 266.5 q0 161 105 266.5 q105 105.5 264 105.5 q159 0 264 -105.5 ZM637.5 135.5 q80.5 89.5 80.5 218.5 q0 129 -80.5 219 q-80.5 90 -212.5 90 q-132 0 -212.5 -90 q-80.5 -90 -80.5 -219 q0 -129 80.5 -218.5 q80.5 -89.5 212.5 -89.5 q132 0 212.5 89.5 ZM465 908 l109 -144 l-66 0 l-83 108 l-83 -108 l-66 0 l109 144 l80 0 Z" /><glyph glyph-name="Otilde" unicode="õ" d="M689 620.5 q105 -105.5 105 -266.5 q0 -161 -105 -266.5 q-105 -105.5 -264 -105.5 q-159 0 -264 105.5 q-105 105.5 -105 266.5 q0 161 105 266.5 q105 105.5 264 105.5 q159 0 264 -105.5 ZM637.5 135.5 q80.5 89.5 80.5 218.5 q0 129 -80.5 219 q-80.5 90 -212.5 90 q-132 0 -212.5 -90 q-80.5 -90 -80.5 -219 q0 -129 80.5 -218.5 q80.5 -89.5 212.5 -89.5 q132 0 212.5 89.5 ZM306 776 l-43 0 q18 104 92 104 q27 0 73 -23 q50 -23 67 -23 q37 0 49 50 l43 0 q-18 -104 -92 -104 q-29 0 -73 23 q-44 23 -67 23 q-37 0 -49 -50 Z" /><glyph glyph-name="Odieresis" unicode="ö" d="M689 620.5 q105 -105.5 105 -266.5 q0 -161 -105 -266.5 q-105 -105.5 -264 -105.5 q-159 0 -264 105.5 q-105 105.5 -105 266.5 q0 161 105 266.5 q105 105.5 264 105.5 q159 0 264 -105.5 ZM637.5 135.5 q80.5 89.5 80.5 218.5 q0 129 -80.5 219 q-80.5 90 -212.5 90 q-132 0 -212.5 -90 q-80.5 -90 -80.5 -219 q0 -129 80.5 -218.5 q80.5 -89.5 212.5 -89.5 q132 0 212.5 89.5 ZM292.5 811.5 q-14.5 15.5 -14.5 35.5 q0 20 14.5 35.5 q14.5 15.5 36.5 15.5 q22 0 36.5 -15.5 q14.5 -15.5 14.5 -35.5 q0 -20 -14.5 -35.5 q-14.5 -15.5 -36.5 -15.5 q-22 0 -36.5 15.5 ZM484.5 811.5 q-14.5 15.5 -14.5 35.5 q0 20 14.5 35.5 q14.5 15.5 36.5 15.5 q22 0 36.5 -15.5 q14.5 -15.5 14.5 -35.5 q0 -20 -14.5 -35.5 q-14.5 -15.5 -36.5 -15.5 q-22 0 -36.5 15.5 Z" /><glyph glyph-name="multiply" unicode="×" d="M174 505 l159 -159 l158 159 l43 -42 l-159 -160 l159 -159 l-43 -43 l-158 159 l-159 -159 l-42 43 l159 159 l-159 160 l42 42 Z" /><glyph glyph-name="Oslash" unicode="ø" d="M774 692 l-76 -82 q96 -102 96 -256 q0 -161 -105 -266.5 q-105 -105.5 -264 -105.5 q-138 0 -236 81 l-76 -81 l-37 34 l76 82 q-96 102 -96 256 q0 161 105 266.5 q105 105.5 264 105.5 q136 0 236 -81 l76 81 l37 -34 ZM651 558 l-415 -445 q76 -67 189 -67 q133 0 213 89.5 q80 89.5 80 218.5 q0 122 -67 204 ZM201 150 l415 445 q-74 68 -191 68 q-133 0 -213 -90 q-80 -90 -80 -219 q0 -123 69 -204 Z" /><glyph glyph-name="Ugrave" unicode="ù" d="M463.5 0.5 q-47.5 -18.5 -108.5 -18.5 q-61 0 -108.5 18.5 q-47.5 18.5 -76.5 46.5 q-29 28 -47.5 67 q-18.5 39 -25.5 75.5 q-7 36.5 -7 74.5 l0 444 l72 0 l0 -436 q0 -96 46.5 -161 q46.5 -65 146.5 -65 q100 0 146.5 65 q46.5 65 46.5 161 l0 436 l72 0 l0 -444 q0 -38 -7 -74.5 q-7 -36.5 -25.5 -75.5 q-18.5 -39 -47.5 -67 q-29 -28 -76.5 -46.5 ZM356 764 l-132 144 l91 0 l100 -144 l-59 0 Z" /><glyph glyph-name="Uacute" unicode="ú" d="M463.5 0.5 q-47.5 -18.5 -108.5 -18.5 q-61 0 -108.5 18.5 q-47.5 18.5 -76.5 46.5 q-29 28 -47.5 67 q-18.5 39 -25.5 75.5 q-7 36.5 -7 74.5 l0 444 l72 0 l0 -436 q0 -96 46.5 -161 q46.5 -65 146.5 -65 q100 0 146.5 65 q46.5 65 46.5 161 l0 436 l72 0 l0 -444 q0 -38 -7 -74.5 q-7 -36.5 -25.5 -75.5 q-18.5 -39 -47.5 -67 q-29 -28 -76.5 -46.5 ZM497 908 l-132 -144 l-59 0 l100 144 l91 0 Z" /><glyph glyph-name="Ucircumflex" unicode="û" d="M463.5 0.5 q-47.5 -18.5 -108.5 -18.5 q-61 0 -108.5 18.5 q-47.5 18.5 -76.5 46.5 q-29 28 -47.5 67 q-18.5 39 -25.5 75.5 q-7 36.5 -7 74.5 l0 444 l72 0 l0 -436 q0 -96 46.5 -161 q46.5 -65 146.5 -65 q100 0 146.5 65 q46.5 65 46.5 161 l0 436 l72 0 l0 -444 q0 -38 -7 -74.5 q-7 -36.5 -25.5 -75.5 q-18.5 -39 -47.5 -67 q-29 -28 -76.5 -46.5 ZM395 908 l109 -144 l-66 0 l-83 108 l-83 -108 l-66 0 l109 144 l80 0 Z" /><glyph glyph-name="Udieresis" unicode="ü" d="M463.5 0.5 q-47.5 -18.5 -108.5 -18.5 q-61 0 -108.5 18.5 q-47.5 18.5 -76.5 46.5 q-29 28 -47.5 67 q-18.5 39 -25.5 75.5 q-7 36.5 -7 74.5 l0 444 l72 0 l0 -436 q0 -96 46.5 -161 q46.5 -65 146.5 -65 q100 0 146.5 65 q46.5 65 46.5 161 l0 436 l72 0 l0 -444 q0 -38 -7 -74.5 q-7 -36.5 -25.5 -75.5 q-18.5 -39 -47.5 -67 q-29 -28 -76.5 -46.5 ZM223.5 811.5 q-14.5 15.5 -14.5 35.5 q0 20 14.5 35.5 q14.5 15.5 36.5 15.5 q22 0 36.5 -15.5 q14.5 -15.5 14.5 -35.5 q0 -20 -14.5 -35.5 q-14.5 -15.5 -36.5 -15.5 q-22 0 -36.5 15.5 ZM415.5 811.5 q-14.5 15.5 -14.5 35.5 q0 20 14.5 35.5 q14.5 15.5 36.5 15.5 q22 0 36.5 -15.5 q14.5 -15.5 14.5 -35.5 q0 -20 -14.5 -35.5 q-14.5 -15.5 -36.5 -15.5 q-22 0 -36.5 15.5 Z" /><glyph glyph-name="Yacute" unicode="ý" d="M337 305 l0 -305 l-72 0 l0 305 l-265 403 l90 0 l213 -343 l215 343 l84 0 l-265 -403 ZM466 908 l-132 -144 l-59 0 l100 144 l91 0 Z" /><glyph glyph-name="Thorn" unicode="þ" d="M94 0 l0 708 l72 0 l0 -155 l128 0 q111 0 175 -48 q64 -48 64 -141 q0 -93 -65 -141.5 q-65 -48.5 -176 -48.5 l-126 0 l0 -174 l-72 0 ZM166 489 l0 -252 l116 0 q173 0 173 127 q0 125 -173 125 l-116 0 Z" /><glyph glyph-name="germandbls" unicode="ß" d="M156 542 l0 -542 l-68 0 l0 544 q0 42 10 79.5 q10 37.5 32.5 71 q22.5 33.5 65.5 53.5 q43 20 102 20 q79 0 135.5 -48 q56.5 -48 56.5 -129 q0 -117 -116 -159 l0 -2 q76 -9 123.5 -65.5 q47.5 -56.5 47.5 -141.5 q0 -107 -65.5 -171 q-65.5 -64 -174.5 -64 q-28 0 -55 5 l0 57 q26 -4 48 -4 q80 0 128 47.5 q48 47.5 48 130.5 q0 85 -52 130 q-52 45 -141 45 l-9 0 l0 60 l8 0 q64 0 102.5 31.5 q38.5 31.5 38.5 94.5 q0 58 -36 90.5 q-36 32.5 -90 32.5 q-42 0 -71 -15.5 q-29 -15.5 -43 -42 q-14 -26.5 -19.5 -52.5 q-5.5 -26 -5.5 -56 Z" /><glyph glyph-name="agrave" unicode="à" d="M385 287 l0 15 q0 121 -125 121 q-84 0 -139 -55 l-38 45 q67 67 184 67 q80 0 131 -44 q51 -44 51 -126 l0 -205 q0 -63 8 -105 l-61 0 q-7 40 -7 76 l-2 0 q-61 -88 -170 -88 q-63 0 -112.5 35.5 q-49.5 35.5 -49.5 106.5 q0 35 12 61.5 q12 26.5 36 43.5 q24 17 52 27.5 q28 10.5 69 16 q41 5.5 76.5 7 q35.5 1.5 84.5 1.5 ZM385 234 l-20 0 q-48 0 -85.5 -3.5 q-37.5 -3.5 -75 -13.5 q-37.5 -10 -58.5 -31 q-21 -21 -21 -53 q0 -46 32 -67.5 q32 -21.5 78 -21.5 q69 0 109.5 45 q40.5 45 40.5 110 l0 35 ZM276 564 l-132 144 l91 0 l100 -144 l-59 0 Z" /><glyph glyph-name="aacute" unicode="á" d="M385 287 l0 15 q0 121 -125 121 q-84 0 -139 -55 l-38 45 q67 67 184 67 q80 0 131 -44 q51 -44 51 -126 l0 -205 q0 -63 8 -105 l-61 0 q-7 40 -7 76 l-2 0 q-61 -88 -170 -88 q-63 0 -112.5 35.5 q-49.5 35.5 -49.5 106.5 q0 35 12 61.5 q12 26.5 36 43.5 q24 17 52 27.5 q28 10.5 69 16 q41 5.5 76.5 7 q35.5 1.5 84.5 1.5 ZM385 234 l-20 0 q-48 0 -85.5 -3.5 q-37.5 -3.5 -75 -13.5 q-37.5 -10 -58.5 -31 q-21 -21 -21 -53 q0 -46 32 -67.5 q32 -21.5 78 -21.5 q69 0 109.5 45 q40.5 45 40.5 110 l0 35 ZM406 708 l-132 -144 l-59 0 l100 144 l91 0 Z" /><glyph glyph-name="acircumflex" unicode="â" d="M385 287 l0 15 q0 121 -125 121 q-84 0 -139 -55 l-38 45 q67 67 184 67 q80 0 131 -44 q51 -44 51 -126 l0 -205 q0 -63 8 -105 l-61 0 q-7 40 -7 76 l-2 0 q-61 -88 -170 -88 q-63 0 -112.5 35.5 q-49.5 35.5 -49.5 106.5 q0 35 12 61.5 q12 26.5 36 43.5 q24 17 52 27.5 q28 10.5 69 16 q41 5.5 76.5 7 q35.5 1.5 84.5 1.5 ZM385 234 l-20 0 q-48 0 -85.5 -3.5 q-37.5 -3.5 -75 -13.5 q-37.5 -10 -58.5 -31 q-21 -21 -21 -53 q0 -46 32 -67.5 q32 -21.5 78 -21.5 q69 0 109.5 45 q40.5 45 40.5 110 l0 35 ZM309 708 l109 -144 l-66 0 l-83 108 l-83 -108 l-66 0 l109 144 l80 0 Z" /><glyph glyph-name="atilde" unicode="ã" d="M385 287 l0 15 q0 121 -125 121 q-84 0 -139 -55 l-38 45 q67 67 184 67 q80 0 131 -44 q51 -44 51 -126 l0 -205 q0 -63 8 -105 l-61 0 q-7 40 -7 76 l-2 0 q-61 -88 -170 -88 q-63 0 -112.5 35.5 q-49.5 35.5 -49.5 106.5 q0 35 12 61.5 q12 26.5 36 43.5 q24 17 52 27.5 q28 10.5 69 16 q41 5.5 76.5 7 q35.5 1.5 84.5 1.5 ZM385 234 l-20 0 q-48 0 -85.5 -3.5 q-37.5 -3.5 -75 -13.5 q-37.5 -10 -58.5 -31 q-21 -21 -21 -53 q0 -46 32 -67.5 q32 -21.5 78 -21.5 q69 0 109.5 45 q40.5 45 40.5 110 l0 35 ZM146 576 l-43 0 q18 104 92 104 q27 0 73 -23 q50 -23 67 -23 q37 0 49 50 l43 0 q-18 -104 -92 -104 q-29 0 -73 23 q-44 23 -67 23 q-37 0 -49 -50 Z" /><glyph glyph-name="adieresis" unicode="ä" d="M385 287 l0 15 q0 121 -125 121 q-84 0 -139 -55 l-38 45 q67 67 184 67 q80 0 131 -44 q51 -44 51 -126 l0 -205 q0 -63 8 -105 l-61 0 q-7 40 -7 76 l-2 0 q-61 -88 -170 -88 q-63 0 -112.5 35.5 q-49.5 35.5 -49.5 106.5 q0 35 12 61.5 q12 26.5 36 43.5 q24 17 52 27.5 q28 10.5 69 16 q41 5.5 76.5 7 q35.5 1.5 84.5 1.5 ZM385 234 l-20 0 q-48 0 -85.5 -3.5 q-37.5 -3.5 -75 -13.5 q-37.5 -10 -58.5 -31 q-21 -21 -21 -53 q0 -46 32 -67.5 q32 -21.5 78 -21.5 q69 0 109.5 45 q40.5 45 40.5 110 l0 35 ZM133.5 611.5 q-14.5 15.5 -14.5 35.5 q0 20 14.5 35.5 q14.5 15.5 36.5 15.5 q22 0 36.5 -15.5 q14.5 -15.5 14.5 -35.5 q0 -20 -14.5 -35.5 q-14.5 -15.5 -36.5 -15.5 q-22 0 -36.5 15.5 ZM325.5 611.5 q-14.5 15.5 -14.5 35.5 q0 20 14.5 35.5 q14.5 15.5 36.5 15.5 q22 0 36.5 -15.5 q14.5 -15.5 14.5 -35.5 q0 -20 -14.5 -35.5 q-14.5 -15.5 -36.5 -15.5 q-22 0 -36.5 15.5 Z" /><glyph glyph-name="aring" unicode="å" d="M385 287 l0 15 q0 121 -125 121 q-84 0 -139 -55 l-38 45 q67 67 184 67 q80 0 131 -44 q51 -44 51 -126 l0 -205 q0 -63 8 -105 l-61 0 q-7 40 -7 76 l-2 0 q-61 -88 -170 -88 q-63 0 -112.5 35.5 q-49.5 35.5 -49.5 106.5 q0 35 12 61.5 q12 26.5 36 43.5 q24 17 52 27.5 q28 10.5 69 16 q41 5.5 76.5 7 q35.5 1.5 84.5 1.5 ZM385 234 l-20 0 q-48 0 -85.5 -3.5 q-37.5 -3.5 -75 -13.5 q-37.5 -10 -58.5 -31 q-21 -21 -21 -53 q0 -46 32 -67.5 q32 -21.5 78 -21.5 q69 0 109.5 45 q40.5 45 40.5 110 l0 35 ZM332.5 717.5 q28.5 -27.5 28.5 -67.5 q0 -40 -28.5 -67.5 q-28.5 -27.5 -67.5 -27.5 q-39 0 -67.5 27.5 q-28.5 27.5 -28.5 67.5 q0 40 28.5 67.5 q28.5 27.5 67.5 27.5 q39 0 67.5 -27.5 ZM307.5 608 q17.5 17 17.5 42 q0 25 -17.5 42 q-17.5 17 -42.5 17 q-25 0 -42.5 -17 q-17.5 -17 -17.5 -42 q0 -25 17.5 -42 q17.5 -17 42.5 -17 q25 0 42.5 17 Z" /><glyph glyph-name="ae" unicode="æ" d="M814 248 q0 -23 -1 -32 l-370 0 q2 -71 48.5 -121 q46.5 -50 114.5 -50 q47 0 84.5 23.5 q37.5 23.5 58.5 57.5 l49 -39 q-75 -99 -192 -99 q-65 0 -113.5 29 q-48.5 29 -72.5 80 q-46 -109 -195 -109 q-69 0 -119 34 q-50 34 -50 103 q0 38 19 66 q19 28 47.5 43 q28.5 15 74.5 23.5 q46 8.5 86.5 10.5 q40.5 2 96.5 2 l0 15 q0 63 -30.5 100.5 q-30.5 37.5 -89.5 37.5 q-84 0 -144 -55 l-39 44 q31 30 83 49 q52 19 110 19 q56 0 96.5 -26 q40.5 -26 57.5 -72 q28 45 75 71.5 q47 26.5 102 26.5 q101 0 157 -65.5 q56 -65.5 56 -166.5 ZM446 270 l299 0 q0 68 -39 110.5 q-39 42.5 -105 42.5 q-61 0 -107 -46 q-46 -46 -48 -107 ZM380 216 l-20 0 q-53 0 -89 -3 q-36 -3 -72.5 -11.5 q-36.5 -8.5 -54.5 -27.5 q-18 -19 -18 -48 q0 -83 111 -83 q70 0 106.5 37.5 q36.5 37.5 36.5 101.5 l0 34 Z" /><glyph glyph-name="ccedilla" unicode="ç" d="M480 399 l-53 -38 q-17 27 -49.5 44.5 q-32.5 17.5 -70.5 17.5 q-80 0 -129.5 -53.5 q-49.5 -53.5 -49.5 -135.5 q0 -81 49 -134.5 q49 -53.5 129 -53.5 q81 0 127 61 l51 -38 q-64 -78 -172 -81 l-39 -63 q13 4 35 4 q33 0 57.5 -19 q24.5 -19 24.5 -53 q0 -46 -35 -66.5 q-35 -20.5 -83 -20.5 q-51 0 -94 20 l16 36 q31 -14 72 -14 q21 0 42.5 11 q21.5 11 21.5 33 q0 39 -54 39 q-22 0 -43 -8 l-18 15 l55 88 q-97 11 -155.5 78.5 q-58.5 67.5 -58.5 165.5 q0 107 69 176.5 q69 69.5 181 69.5 q50 0 97.5 -21 q47.5 -21 76.5 -60 Z" /><glyph glyph-name="egrave" unicode="è" d="M128 270 l319 0 q-3 68 -43.5 110.5 q-40.5 42.5 -111.5 42.5 q-66 0 -112.5 -45.5 q-46.5 -45.5 -51.5 -107.5 ZM516 248 q0 -20 -1 -32 l-388 0 q2 -71 51 -120.5 q49 -49.5 120 -49.5 q49 0 89 23.5 q40 23.5 61 57.5 l51 -40 q-78 -99 -201 -99 q-104 0 -173 70 q-69 70 -69 176 q0 105 68 175.5 q68 70.5 168 70.5 q106 0 165 -65.5 q59 -65.5 59 -166.5 ZM282 564 l-132 144 l91 0 l100 -144 l-59 0 Z" /><glyph glyph-name="eacute" unicode="é" d="M128 270 l319 0 q-3 68 -43.5 110.5 q-40.5 42.5 -111.5 42.5 q-66 0 -112.5 -45.5 q-46.5 -45.5 -51.5 -107.5 ZM516 248 q0 -20 -1 -32 l-388 0 q2 -71 51 -120.5 q49 -49.5 120 -49.5 q49 0 89 23.5 q40 23.5 61 57.5 l51 -40 q-78 -99 -201 -99 q-104 0 -173 70 q-69 70 -69 176 q0 105 68 175.5 q68 70.5 168 70.5 q106 0 165 -65.5 q59 -65.5 59 -166.5 ZM442 708 l-132 -144 l-59 0 l100 144 l91 0 Z" /><glyph glyph-name="ecircumflex" unicode="ê" d="M128 270 l319 0 q-3 68 -43.5 110.5 q-40.5 42.5 -111.5 42.5 q-66 0 -112.5 -45.5 q-46.5 -45.5 -51.5 -107.5 ZM516 248 q0 -20 -1 -32 l-388 0 q2 -71 51 -120.5 q49 -49.5 120 -49.5 q49 0 89 23.5 q40 23.5 61 57.5 l51 -40 q-78 -99 -201 -99 q-104 0 -173 70 q-69 70 -69 176 q0 105 68 175.5 q68 70.5 168 70.5 q106 0 165 -65.5 q59 -65.5 59 -166.5 ZM339 708 l109 -144 l-66 0 l-83 108 l-83 -108 l-66 0 l109 144 l80 0 Z" /><glyph glyph-name="edieresis" unicode="ë" d="M128 270 l319 0 q-3 68 -43.5 110.5 q-40.5 42.5 -111.5 42.5 q-66 0 -112.5 -45.5 q-46.5 -45.5 -51.5 -107.5 ZM516 248 q0 -20 -1 -32 l-388 0 q2 -71 51 -120.5 q49 -49.5 120 -49.5 q49 0 89 23.5 q40 23.5 61 57.5 l51 -40 q-78 -99 -201 -99 q-104 0 -173 70 q-69 70 -69 176 q0 105 68 175.5 q68 70.5 168 70.5 q106 0 165 -65.5 q59 -65.5 59 -166.5 ZM166.5 611.5 q-14.5 15.5 -14.5 35.5 q0 20 14.5 35.5 q14.5 15.5 36.5 15.5 q22 0 36.5 -15.5 q14.5 -15.5 14.5 -35.5 q0 -20 -14.5 -35.5 q-14.5 -15.5 -36.5 -15.5 q-22 0 -36.5 15.5 ZM358.5 611.5 q-14.5 15.5 -14.5 35.5 q0 20 14.5 35.5 q14.5 15.5 36.5 15.5 q22 0 36.5 -15.5 q14.5 -15.5 14.5 -35.5 q0 -20 -14.5 -35.5 q-14.5 -15.5 -36.5 -15.5 q-22 0 -36.5 15.5 Z" /><glyph glyph-name="igrave" unicode="ì" d="M159 468 l0 -468 l-68 0 l0 468 l68 0 ZM99 564 l-132 144 l91 0 l100 -144 l-59 0 Z" /><glyph glyph-name="iacute" unicode="í" d="M159 468 l0 -468 l-68 0 l0 468 l68 0 ZM282 708 l-132 -144 l-59 0 l100 144 l91 0 Z" /><glyph glyph-name="icircumflex" unicode="î" d="M159 468 l0 -468 l-68 0 l0 468 l68 0 ZM167 708 l109 -144 l-66 0 l-83 108 l-83 -108 l-66 0 l109 144 l80 0 Z" /><glyph glyph-name="idieresis" unicode="ï" d="M159 468 l0 -468 l-68 0 l0 468 l68 0 ZM-6.5 611.5 q-14.5 15.5 -14.5 35.5 q0 20 14.5 35.5 q14.5 15.5 36.5 15.5 q22 0 36.5 -15.5 q14.5 -15.5 14.5 -35.5 q0 -20 -14.5 -35.5 q-14.5 -15.5 -36.5 -15.5 q-22 0 -36.5 15.5 ZM185.5 611.5 q-14.5 15.5 -14.5 35.5 q0 20 14.5 35.5 q14.5 15.5 36.5 15.5 q22 0 36.5 -15.5 q14.5 -15.5 14.5 -35.5 q0 -20 -14.5 -35.5 q-14.5 -15.5 -36.5 -15.5 q-22 0 -36.5 15.5 Z" /><glyph glyph-name="eth" unicode="ð" d="M168.5 367 q-48.5 -53 -48.5 -133 q0 -80 48.5 -133 q48.5 -53 127.5 -53 q80 0 128.5 53 q48.5 53 48.5 133 q0 80 -48.5 133 q-48.5 53 -128.5 53 q-79 0 -127.5 -53 ZM455 714 l-103 -54 q86 -80 139.5 -187 q53.5 -107 53.5 -221 q0 -48 -13.5 -92.5 q-13.5 -44.5 -41.5 -84 q-28 -39.5 -78 -63.5 q-50 -24 -116 -24 q-108 0 -178 70 q-70 70 -70 176 q0 106 70 176 q70 70 178 70 q80 0 150 -58 l2 2 q-57 120 -156 205 l-112 -57 l-36 36 l110 56 q-29 28 -100 77 l59 37 q60 -44 100 -82 l102 53 l40 -35 Z" /><glyph glyph-name="ntilde" unicode="ñ" d="M86 468 l65 0 q4 -50 4 -80 l2 0 q19 40 64.5 66 q45.5 26 95.5 26 q87 0 132.5 -52 q45.5 -52 45.5 -141 l0 -287 l-68 0 l0 259 q0 79 -28.5 121.5 q-28.5 42.5 -98.5 42.5 q-59 0 -100.5 -47.5 q-41.5 -47.5 -41.5 -135.5 l0 -240 l-68 0 l0 365 q0 60 -4 103 ZM174 576 l-43 0 q18 104 92 104 q27 0 73 -23 q50 -23 67 -23 q37 0 49 50 l43 0 q-18 -104 -92 -104 q-29 0 -73 23 q-44 23 -67 23 q-37 0 -49 -50 Z" /><glyph glyph-name="ograve" unicode="ò" d="M484.5 410 q70.5 -70 70.5 -176 q0 -106 -70.5 -176 q-70.5 -70 -179.5 -70 q-108 0 -178.5 70 q-70.5 70 -70.5 176 q0 106 70.5 176 q70.5 70 178.5 70 q109 0 179.5 -70 ZM434 99.5 q49 53.5 49 134.5 q0 81 -49 135 q-49 54 -129 54 q-79 0 -128 -54 q-49 -54 -49 -135 q0 -80 49 -134 q49 -54 128 -54 q80 0 129 53.5 ZM285 564 l-132 144 l91 0 l100 -144 l-59 0 Z" /><glyph glyph-name="oacute" unicode="ó" d="M484.5 410 q70.5 -70 70.5 -176 q0 -106 -70.5 -176 q-70.5 -70 -179.5 -70 q-108 0 -178.5 70 q-70.5 70 -70.5 176 q0 106 70.5 176 q70.5 70 178.5 70 q109 0 179.5 -70 ZM434 99.5 q49 53.5 49 134.5 q0 81 -49 135 q-49 54 -129 54 q-79 0 -128 -54 q-49 -54 -49 -135 q0 -80 49 -134 q49 -54 128 -54 q80 0 129 53.5 ZM455 708 l-132 -144 l-59 0 l100 144 l91 0 Z" /><glyph glyph-name="ocircumflex" unicode="ô" d="M484.5 410 q70.5 -70 70.5 -176 q0 -106 -70.5 -176 q-70.5 -70 -179.5 -70 q-108 0 -178.5 70 q-70.5 70 -70.5 176 q0 106 70.5 176 q70.5 70 178.5 70 q109 0 179.5 -70 ZM434 99.5 q49 53.5 49 134.5 q0 81 -49 135 q-49 54 -129 54 q-79 0 -128 -54 q-49 -54 -49 -135 q0 -80 49 -134 q49 -54 128 -54 q80 0 129 53.5 ZM345 708 l109 -144 l-66 0 l-83 108 l-83 -108 l-66 0 l109 144 l80 0 Z" /><glyph glyph-name="otilde" unicode="õ" d="M484.5 410 q70.5 -70 70.5 -176 q0 -106 -70.5 -176 q-70.5 -70 -179.5 -70 q-108 0 -178.5 70 q-70.5 70 -70.5 176 q0 106 70.5 176 q70.5 70 178.5 70 q109 0 179.5 -70 ZM434 99.5 q49 53.5 49 134.5 q0 81 -49 135 q-49 54 -129 54 q-79 0 -128 -54 q-49 -54 -49 -135 q0 -80 49 -134 q49 -54 128 -54 q80 0 129 53.5 ZM186 576 l-43 0 q18 104 92 104 q27 0 73 -23 q50 -23 67 -23 q37 0 49 50 l43 0 q-18 -104 -92 -104 q-29 0 -73 23 q-44 23 -67 23 q-37 0 -49 -50 Z" /><glyph glyph-name="odieresis" unicode="ö" d="M484.5 410 q70.5 -70 70.5 -176 q0 -106 -70.5 -176 q-70.5 -70 -179.5 -70 q-108 0 -178.5 70 q-70.5 70 -70.5 176 q0 106 70.5 176 q70.5 70 178.5 70 q109 0 179.5 -70 ZM434 99.5 q49 53.5 49 134.5 q0 81 -49 135 q-49 54 -129 54 q-79 0 -128 -54 q-49 -54 -49 -135 q0 -80 49 -134 q49 -54 128 -54 q80 0 129 53.5 ZM172.5 611.5 q-14.5 15.5 -14.5 35.5 q0 20 14.5 35.5 q14.5 15.5 36.5 15.5 q22 0 36.5 -15.5 q14.5 -15.5 14.5 -35.5 q0 -20 -14.5 -35.5 q-14.5 -15.5 -36.5 -15.5 q-22 0 -36.5 15.5 ZM364.5 611.5 q-14.5 15.5 -14.5 35.5 q0 20 14.5 35.5 q14.5 15.5 36.5 15.5 q22 0 36.5 -15.5 q14.5 -15.5 14.5 -35.5 q0 -20 -14.5 -35.5 q-14.5 -15.5 -36.5 -15.5 q-22 0 -36.5 15.5 Z" /><glyph glyph-name="divide" unicode="÷" d="M588 333 l0 -60 l-510 0 l0 60 l510 0 ZM371.5 503 q15.5 -16 15.5 -38 q0 -22 -15.5 -38 q-15.5 -16 -38.5 -16 q-23 0 -38.5 16 q-15.5 16 -15.5 38 q0 22 15.5 38 q15.5 16 38.5 16 q23 0 38.5 -16 ZM371.5 179 q15.5 -16 15.5 -38 q0 -22 -15.5 -38 q-15.5 -16 -38.5 -16 q-23 0 -38.5 16 q-15.5 16 -15.5 38 q0 22 15.5 38 q15.5 16 38.5 16 q23 0 38.5 -16 Z" /><glyph glyph-name="oslash" unicode="ø" d="M450 351 l-262 -269 q49 -39 115 -39 q82 0 132.5 54.5 q50.5 54.5 50.5 136.5 q0 74 -36 117 ZM159 116 l262 269 q-40 40 -116 40 q-81 0 -130.5 -54.5 q-49.5 -54.5 -49.5 -136.5 q0 -73 34 -118 ZM561 465 l-66 -68 q60 -68 60 -163 q0 -106 -71 -176 q-71 -70 -180 -70 q-92 0 -157 52 l-67 -68 l-32 31 l66 68 q-58 67 -58 163 q0 106 70 176 q70 70 178 70 q91 0 159 -52 l66 68 l32 -31 Z" /><glyph glyph-name="ugrave" unicode="ù" d="M495 0 l-65 0 q-4 50 -4 80 l-2 0 q-19 -40 -64.5 -66 q-45.5 -26 -95.5 -26 q-87 0 -132.5 52 q-45.5 52 -45.5 141 l0 287 l68 0 l0 -259 q0 -79 28.5 -121.5 q28.5 -42.5 98.5 -42.5 q59 0 100.5 47.5 q41.5 47.5 41.5 135.5 l0 240 l68 0 l0 -365 q0 -60 4 -103 ZM277 564 l-132 144 l91 0 l100 -144 l-59 0 Z" /><glyph glyph-name="uacute" unicode="ú" d="M495 0 l-65 0 q-4 50 -4 80 l-2 0 q-19 -40 -64.5 -66 q-45.5 -26 -95.5 -26 q-87 0 -132.5 52 q-45.5 52 -45.5 141 l0 287 l68 0 l0 -259 q0 -79 28.5 -121.5 q28.5 -42.5 98.5 -42.5 q59 0 100.5 47.5 q41.5 47.5 41.5 135.5 l0 240 l68 0 l0 -365 q0 -60 4 -103 ZM432 708 l-132 -144 l-59 0 l100 144 l91 0 Z" /><glyph glyph-name="ucircumflex" unicode="û" d="M495 0 l-65 0 q-4 50 -4 80 l-2 0 q-19 -40 -64.5 -66 q-45.5 -26 -95.5 -26 q-87 0 -132.5 52 q-45.5 52 -45.5 141 l0 287 l68 0 l0 -259 q0 -79 28.5 -121.5 q28.5 -42.5 98.5 -42.5 q59 0 100.5 47.5 q41.5 47.5 41.5 135.5 l0 240 l68 0 l0 -365 q0 -60 4 -103 ZM329 708 l109 -144 l-66 0 l-83 108 l-83 -108 l-66 0 l109 144 l80 0 Z" /><glyph glyph-name="udieresis" unicode="ü" d="M495 0 l-65 0 q-4 50 -4 80 l-2 0 q-19 -40 -64.5 -66 q-45.5 -26 -95.5 -26 q-87 0 -132.5 52 q-45.5 52 -45.5 141 l0 287 l68 0 l0 -259 q0 -79 28.5 -121.5 q28.5 -42.5 98.5 -42.5 q59 0 100.5 47.5 q41.5 47.5 41.5 135.5 l0 240 l68 0 l0 -365 q0 -60 4 -103 ZM156.5 611.5 q-14.5 15.5 -14.5 35.5 q0 20 14.5 35.5 q14.5 15.5 36.5 15.5 q22 0 36.5 -15.5 q14.5 -15.5 14.5 -35.5 q0 -20 -14.5 -35.5 q-14.5 -15.5 -36.5 -15.5 q-22 0 -36.5 15.5 ZM348.5 611.5 q-14.5 15.5 -14.5 35.5 q0 20 14.5 35.5 q14.5 15.5 36.5 15.5 q22 0 36.5 -15.5 q14.5 -15.5 14.5 -35.5 q0 -20 -14.5 -35.5 q-14.5 -15.5 -36.5 -15.5 q-22 0 -36.5 15.5 Z" /><glyph glyph-name="yacute" unicode="ý" d="M92 468 l159 -395 l2 0 l145 395 l74 0 l-233 -589 q-23 -59 -56.5 -89 q-33.5 -30 -90.5 -30 q-31 0 -61 6 l7 62 q24 -8 50 -8 q33 0 53.5 20.5 q20.5 20.5 36.5 62.5 l38 98 l-200 467 l76 0 ZM399 708 l-132 -144 l-59 0 l100 144 l91 0 Z" /><glyph glyph-name="thorn" unicode="þ" d="M334 -12 q-53 0 -99.5 23 q-46.5 23 -74.5 68 l-2 0 l0 -319 l-66 0 l0 996 l66 0 l0 -369 l2 0 q29 45 75.5 69 q46.5 24 98.5 24 q104 0 173.5 -70 q69.5 -70 69.5 -176 q0 -106 -69.5 -176 q-69.5 -70 -173.5 -70 ZM456.5 101 q48.5 53 48.5 133 q0 80 -48.5 133 q-48.5 53 -128.5 53 q-79 0 -127.5 -53 q-48.5 -53 -48.5 -133 q0 -80 48.5 -133 q48.5 -53 127.5 -53 q80 0 128.5 53 Z" /><glyph glyph-name="ydieresis" unicode="ÿ" d="M92 468 l159 -395 l2 0 l145 395 l74 0 l-233 -589 q-23 -59 -56.5 -89 q-33.5 -30 -90.5 -30 q-31 0 -61 6 l7 62 q24 -8 50 -8 q33 0 53.5 20.5 q20.5 20.5 36.5 62.5 l38 98 l-200 467 l76 0 ZM119.5 611.5 q-14.5 15.5 -14.5 35.5 q0 20 14.5 35.5 q14.5 15.5 36.5 15.5 q22 0 36.5 -15.5 q14.5 -15.5 14.5 -35.5 q0 -20 -14.5 -35.5 q-14.5 -15.5 -36.5 -15.5 q-22 0 -36.5 15.5 ZM311.5 611.5 q-14.5 15.5 -14.5 35.5 q0 20 14.5 35.5 q14.5 15.5 36.5 15.5 q22 0 36.5 -15.5 q14.5 -15.5 14.5 -35.5 q0 -20 -14.5 -35.5 q-14.5 -15.5 -36.5 -15.5 q-22 0 -36.5 15.5 Z" /><glyph glyph-name="Amacron" unicode="&#x100;" d="M166 186 l-77 -186 l-79 0 l306 708 l70 0 l304 -708 l-80 0 l-78 186 l-366 0 ZM349 628 l-156 -376 l312 0 l-156 376 ZM486 854 l0 -54 l-270 0 l0 54 l270 0 Z" /><glyph glyph-name="amacron" unicode="&#x101;" d="M385 287 l0 15 q0 121 -125 121 q-84 0 -139 -55 l-38 45 q67 67 184 67 q80 0 131 -44 q51 -44 51 -126 l0 -205 q0 -63 8 -105 l-61 0 q-7 40 -7 76 l-2 0 q-61 -88 -170 -88 q-63 0 -112.5 35.5 q-49.5 35.5 -49.5 106.5 q0 35 12 61.5 q12 26.5 36 43.5 q24 17 52 27.5 q28 10.5 69 16 q41 5.5 76.5 7 q35.5 1.5 84.5 1.5 ZM385 234 l-20 0 q-48 0 -85.5 -3.5 q-37.5 -3.5 -75 -13.5 q-37.5 -10 -58.5 -31 q-21 -21 -21 -53 q0 -46 32 -67.5 q32 -21.5 78 -21.5 q69 0 109.5 45 q40.5 45 40.5 110 l0 35 ZM405 654 l0 -54 l-270 0 l0 54 l270 0 Z" /><glyph glyph-name="Abreve" unicode="&#x102;" d="M166 186 l-77 -186 l-79 0 l306 708 l70 0 l304 -708 l-80 0 l-78 186 l-366 0 ZM349 628 l-156 -376 l312 0 l-156 376 ZM454 908 l44 0 q-4 -61 -44.5 -96.5 q-40.5 -35.5 -102.5 -35.5 q-62 0 -102.5 35.5 q-40.5 35.5 -44.5 96.5 l44 0 q6 -38 35 -58 q29 -20 68 -20 q39 0 68 20 q29 20 35 58 Z" /><glyph glyph-name="abreve" unicode="&#x103;" d="M385 287 l0 15 q0 121 -125 121 q-84 0 -139 -55 l-38 45 q67 67 184 67 q80 0 131 -44 q51 -44 51 -126 l0 -205 q0 -63 8 -105 l-61 0 q-7 40 -7 76 l-2 0 q-61 -88 -170 -88 q-63 0 -112.5 35.5 q-49.5 35.5 -49.5 106.5 q0 35 12 61.5 q12 26.5 36 43.5 q24 17 52 27.5 q28 10.5 69 16 q41 5.5 76.5 7 q35.5 1.5 84.5 1.5 ZM385 234 l-20 0 q-48 0 -85.5 -3.5 q-37.5 -3.5 -75 -13.5 q-37.5 -10 -58.5 -31 q-21 -21 -21 -53 q0 -46 32 -67.5 q32 -21.5 78 -21.5 q69 0 109.5 45 q40.5 45 40.5 110 l0 35 ZM376 708 l44 0 q-4 -61 -44.5 -96.5 q-40.5 -35.5 -102.5 -35.5 q-62 0 -102.5 35.5 q-40.5 35.5 -44.5 96.5 l44 0 q6 -38 35 -58 q29 -20 68 -20 q39 0 68 20 q29 20 35 58 Z" /><glyph glyph-name="Aogonek" unicode="&#x104;" d="M682 -147 l19 -40 q-38 -36 -90 -36 q-36 0 -63 24 q-27 24 -27 61 q0 66 89 138 l-78 186 l-366 0 l-77 -186 l-79 0 l306 708 l70 0 l304 -708 l-32 0 q-41 -41 -59 -67.5 q-18 -26.5 -18 -53.5 q0 -21 14.5 -34.5 q14.5 -13.5 35.5 -13.5 q31 0 51 22 ZM349 628 l-156 -376 l312 0 l-156 376 Z" /><glyph glyph-name="aogonek" unicode="&#x105;" d="M470 -147 l19 -40 q-38 -36 -90 -36 q-37 0 -63.5 24 q-26.5 24 -26.5 61 q0 66 89 138 l-2 0 q-7 40 -7 76 l-2 0 q-61 -88 -170 -88 q-63 0 -112.5 35.5 q-49.5 35.5 -49.5 106.5 q0 35 12 61.5 q12 26.5 36 43.5 q24 17 52 27.5 q28 10.5 69 16 q41 5.5 76.5 7 q35.5 1.5 84.5 1.5 l0 15 q0 121 -125 121 q-84 0 -139 -55 l-38 45 q67 67 184 67 q80 0 131 -44 q51 -44 51 -126 l0 -205 q0 -63 8 -105 l-11 0 q-41 -41 -59 -67.5 q-18 -26.5 -18 -53.5 q0 -21 14.5 -34.5 q14.5 -13.5 35.5 -13.5 q31 0 51 22 ZM385 234 l-20 0 q-48 0 -85.5 -3.5 q-37.5 -3.5 -75 -13.5 q-37.5 -10 -58.5 -31 q-21 -21 -21 -53 q0 -46 32 -67.5 q32 -21.5 78 -21.5 q69 0 109.5 45 q40.5 45 40.5 110 l0 35 Z" /><glyph glyph-name="Cacute" unicode="&#x106;" d="M634 150 l56 -36 q-38 -58 -106.5 -95 q-68.5 -37 -158.5 -37 q-160 0 -264.5 105.5 q-104.5 105.5 -104.5 266.5 q0 161 105 266.5 q105 105.5 264 105.5 q78 0 146.5 -30.5 q68.5 -30.5 105.5 -81.5 l-60 -44 q-25 38 -76.5 65.5 q-51.5 27.5 -114.5 27.5 q-133 0 -213.5 -90 q-80.5 -90 -80.5 -219 q0 -129 81 -219 q81 -90 213 -90 q138 0 208 105 ZM560 908 l-132 -144 l-59 0 l100 144 l91 0 Z" /><glyph glyph-name="cacute" unicode="&#x107;" d="M480 399 l-53 -38 q-17 27 -49.5 44.5 q-32.5 17.5 -70.5 17.5 q-80 0 -129.5 -53.5 q-49.5 -53.5 -49.5 -135.5 q0 -81 49 -134.5 q49 -53.5 129 -53.5 q81 0 127 61 l51 -38 q-66 -81 -178 -81 q-112 0 -181 69.5 q-69 69.5 -69 176.5 q0 107 69 176.5 q69 69.5 181 69.5 q50 0 97.5 -21 q47.5 -21 76.5 -60 ZM441 708 l-132 -144 l-59 0 l100 144 l91 0 Z" /><glyph glyph-name="Ccircumflex" unicode="&#x108;" d="M634 150 l56 -36 q-38 -58 -106.5 -95 q-68.5 -37 -158.5 -37 q-160 0 -264.5 105.5 q-104.5 105.5 -104.5 266.5 q0 161 105 266.5 q105 105.5 264 105.5 q78 0 146.5 -30.5 q68.5 -30.5 105.5 -81.5 l-60 -44 q-25 38 -76.5 65.5 q-51.5 27.5 -114.5 27.5 q-133 0 -213.5 -90 q-80.5 -90 -80.5 -219 q0 -129 81 -219 q81 -90 213 -90 q138 0 208 105 ZM464 908 l109 -144 l-66 0 l-83 108 l-83 -108 l-66 0 l109 144 l80 0 Z" /><glyph glyph-name="ccircumflex" unicode="&#x109;" d="M480 399 l-53 -38 q-17 27 -49.5 44.5 q-32.5 17.5 -70.5 17.5 q-80 0 -129.5 -53.5 q-49.5 -53.5 -49.5 -135.5 q0 -81 49 -134.5 q49 -53.5 129 -53.5 q81 0 127 61 l51 -38 q-66 -81 -178 -81 q-112 0 -181 69.5 q-69 69.5 -69 176.5 q0 107 69 176.5 q69 69.5 181 69.5 q50 0 97.5 -21 q47.5 -21 76.5 -60 ZM343 708 l109 -144 l-66 0 l-83 108 l-83 -108 l-66 0 l109 144 l80 0 Z" /><glyph glyph-name="Cdotaccent" unicode="&#x10a;" d="M634 150 l56 -36 q-38 -58 -106.5 -95 q-68.5 -37 -158.5 -37 q-160 0 -264.5 105.5 q-104.5 105.5 -104.5 266.5 q0 161 105 266.5 q105 105.5 264 105.5 q78 0 146.5 -30.5 q68.5 -30.5 105.5 -81.5 l-60 -44 q-25 38 -76.5 65.5 q-51.5 27.5 -114.5 27.5 q-133 0 -213.5 -90 q-80.5 -90 -80.5 -219 q0 -129 81 -219 q81 -90 213 -90 q138 0 208 105 ZM448.5 882 q14.5 -14 14.5 -34 q0 -20 -14.5 -34 q-14.5 -14 -33.5 -14 q-19 0 -33.5 14 q-14.5 14 -14.5 34 q0 20 14.5 34 q14.5 14 33.5 14 q19 0 33.5 -14 Z" /><glyph glyph-name="cdotaccent" unicode="&#x10b;" d="M480 399 l-53 -38 q-17 27 -49.5 44.5 q-32.5 17.5 -70.5 17.5 q-80 0 -129.5 -53.5 q-49.5 -53.5 -49.5 -135.5 q0 -81 49 -134.5 q49 -53.5 129 -53.5 q81 0 127 61 l51 -38 q-66 -81 -178 -81 q-112 0 -181 69.5 q-69 69.5 -69 176.5 q0 107 69 176.5 q69 69.5 181 69.5 q50 0 97.5 -21 q47.5 -21 76.5 -60 ZM328.5 682 q14.5 -14 14.5 -34 q0 -20 -14.5 -34 q-14.5 -14 -33.5 -14 q-19 0 -33.5 14 q-14.5 14 -14.5 34 q0 20 14.5 34 q14.5 14 33.5 14 q19 0 33.5 -14 Z" /><glyph glyph-name="Ccaron" unicode="&#x10c;" d="M634 150 l56 -36 q-38 -58 -106.5 -95 q-68.5 -37 -158.5 -37 q-160 0 -264.5 105.5 q-104.5 105.5 -104.5 266.5 q0 161 105 266.5 q105 105.5 264 105.5 q78 0 146.5 -30.5 q68.5 -30.5 105.5 -81.5 l-60 -44 q-25 38 -76.5 65.5 q-51.5 27.5 -114.5 27.5 q-133 0 -213.5 -90 q-80.5 -90 -80.5 -219 q0 -129 81 -219 q81 -90 213 -90 q138 0 208 105 ZM572 908 l-109 -144 l-80 0 l-109 144 l66 0 l83 -108 l83 108 l66 0 Z" /><glyph glyph-name="ccaron" unicode="&#x10d;" d="M480 399 l-53 -38 q-17 27 -49.5 44.5 q-32.5 17.5 -70.5 17.5 q-80 0 -129.5 -53.5 q-49.5 -53.5 -49.5 -135.5 q0 -81 49 -134.5 q49 -53.5 129 -53.5 q81 0 127 61 l51 -38 q-66 -81 -178 -81 q-112 0 -181 69.5 q-69 69.5 -69 176.5 q0 107 69 176.5 q69 69.5 181 69.5 q50 0 97.5 -21 q47.5 -21 76.5 -60 ZM453 708 l-109 -144 l-80 0 l-109 144 l66 0 l83 -108 l83 108 l66 0 Z" /><glyph glyph-name="Dcaron" unicode="&#x10e;" d="M94 0 l0 708 l235 0 q68 0 133 -22.5 q65 -22.5 119 -65 q54 -42.5 87 -112 q33 -69.5 33 -154.5 q0 -85 -33 -154.5 q-33 -69.5 -87 -112 q-54 -42.5 -119 -65 q-65 -22.5 -133 -22.5 l-235 0 ZM166 644 l0 -580 l143 0 q77 0 138.5 24.5 q61.5 24.5 99.5 66 q38 41.5 58 92.5 q20 51 20 107 q0 56 -20 107 q-20 51 -58 92.5 q-38 41.5 -99.5 66 q-61.5 24.5 -138.5 24.5 l-143 0 ZM496 908 l-109 -144 l-80 0 l-109 144 l66 0 l83 -108 l83 108 l66 0 Z" /><glyph glyph-name="dcaron" unicode="&#x10f;" d="M475 79 q-29 -43 -77 -67 q-48 -24 -100 -24 q-108 0 -175 70.5 q-67 70.5 -67 175.5 q0 105 67 175.5 q67 70.5 175 70.5 q52 0 100 -24.5 q48 -24.5 77 -68.5 l2 0 l0 369 l68 0 l0 -756 l-68 0 l0 79 l-2 0 ZM175.5 369 q-47.5 -54 -47.5 -135 q0 -81 47.5 -134.5 q47.5 -53.5 129.5 -53.5 q78 0 129 53.5 q51 53.5 51 134.5 q0 81 -51 135 q-51 54 -129 54 q-82 0 -129.5 -54 ZM734 708 l-76 -185 l-57 0 l62 185 l71 0 Z" /><glyph glyph-name="Dcroat" unicode="&#x110;" d="M86 0 l0 347 l-73 0 l0 54 l73 0 l0 307 l235 0 q68 0 133 -22.5 q65 -22.5 119 -65 q54 -42.5 87 -112 q33 -69.5 33 -154.5 q0 -85 -33 -154.5 q-33 -69.5 -87 -112 q-54 -42.5 -119 -65 q-65 -22.5 -133 -22.5 l-235 0 ZM158 347 l0 -281 l140 0 q78 0 140 24 q62 24 100 65 q38 41 57.5 92 q19.5 51 19.5 107 q0 56 -19.5 107 q-19.5 51 -57.5 92 q-38 41 -100 65 q-62 24 -140 24 l-140 0 l0 -241 l258 0 l0 -54 l-258 0 Z" /><glyph glyph-name="dcroat" unicode="&#x111;" d="M321 620 l156 0 l0 136 l68 0 l0 -136 l56 0 l0 -50 l-56 0 l0 -570 l-68 0 l0 79 l-2 0 q-29 -43 -77 -67 q-48 -24 -100 -24 q-108 0 -175 70.5 q-67 70.5 -67 175.5 q0 105 67 175.5 q67 70.5 175 70.5 q52 0 100 -24.5 q48 -24.5 77 -68.5 l2 0 l0 183 l-156 0 l0 50 ZM175.5 369 q-47.5 -54 -47.5 -135 q0 -81 47.5 -134.5 q47.5 -53.5 129.5 -53.5 q78 0 129 53.5 q51 53.5 51 134.5 q0 81 -51 135 q-51 54 -129 54 q-82 0 -129.5 -54 Z" /><glyph glyph-name="Emacron" unicode="&#x112;" d="M166 337 l0 -273 l379 0 l0 -64 l-451 0 l0 708 l439 0 l0 -64 l-367 0 l0 -244 l343 0 l0 -63 l-343 0 ZM452 854 l0 -54 l-270 0 l0 54 l270 0 Z" /><glyph glyph-name="emacron" unicode="&#x113;" d="M128 270 l319 0 q-3 68 -43.5 110.5 q-40.5 42.5 -111.5 42.5 q-66 0 -112.5 -45.5 q-46.5 -45.5 -51.5 -107.5 ZM516 248 q0 -20 -1 -32 l-388 0 q2 -71 51 -120.5 q49 -49.5 120 -49.5 q49 0 89 23.5 q40 23.5 61 57.5 l51 -40 q-78 -99 -201 -99 q-104 0 -173 70 q-69 70 -69 176 q0 105 68 175.5 q68 70.5 168 70.5 q106 0 165 -65.5 q59 -65.5 59 -166.5 ZM431 654 l0 -54 l-270 0 l0 54 l270 0 Z" /><glyph glyph-name="Ebreve" unicode="&#x114;" d="M166 337 l0 -273 l379 0 l0 -64 l-451 0 l0 708 l439 0 l0 -64 l-367 0 l0 -244 l343 0 l0 -63 l-343 0 ZM419 908 l44 0 q-4 -61 -44.5 -96.5 q-40.5 -35.5 -102.5 -35.5 q-62 0 -102.5 35.5 q-40.5 35.5 -44.5 96.5 l44 0 q6 -38 35 -58 q29 -20 68 -20 q39 0 68 20 q29 20 35 58 Z" /><glyph glyph-name="ebreve" unicode="&#x115;" d="M128 270 l319 0 q-3 68 -43.5 110.5 q-40.5 42.5 -111.5 42.5 q-66 0 -112.5 -45.5 q-46.5 -45.5 -51.5 -107.5 ZM516 248 q0 -20 -1 -32 l-388 0 q2 -71 51 -120.5 q49 -49.5 120 -49.5 q49 0 89 23.5 q40 23.5 61 57.5 l51 -40 q-78 -99 -201 -99 q-104 0 -173 70 q-69 70 -69 176 q0 105 68 175.5 q68 70.5 168 70.5 q106 0 165 -65.5 q59 -65.5 59 -166.5 ZM397 708 l44 0 q-4 -61 -44.5 -96.5 q-40.5 -35.5 -102.5 -35.5 q-62 0 -102.5 35.5 q-40.5 35.5 -44.5 96.5 l44 0 q6 -38 35 -58 q29 -20 68 -20 q39 0 68 20 q29 20 35 58 Z" /><glyph glyph-name="Edotaccent" unicode="&#x116;" d="M166 337 l0 -273 l379 0 l0 -64 l-451 0 l0 708 l439 0 l0 -64 l-367 0 l0 -244 l343 0 l0 -63 l-343 0 ZM354.5 882 q14.5 -14 14.5 -34 q0 -20 -14.5 -34 q-14.5 -14 -33.5 -14 q-19 0 -33.5 14 q-14.5 14 -14.5 34 q0 20 14.5 34 q14.5 14 33.5 14 q19 0 33.5 -14 Z" /><glyph glyph-name="edotaccent" unicode="&#x117;" d="M128 270 l319 0 q-3 68 -43.5 110.5 q-40.5 42.5 -111.5 42.5 q-66 0 -112.5 -45.5 q-46.5 -45.5 -51.5 -107.5 ZM516 248 q0 -20 -1 -32 l-388 0 q2 -71 51 -120.5 q49 -49.5 120 -49.5 q49 0 89 23.5 q40 23.5 61 57.5 l51 -40 q-78 -99 -201 -99 q-104 0 -173 70 q-69 70 -69 176 q0 105 68 175.5 q68 70.5 168 70.5 q106 0 165 -65.5 q59 -65.5 59 -166.5 ZM327.5 682 q14.5 -14 14.5 -34 q0 -20 -14.5 -34 q-14.5 -14 -33.5 -14 q-19 0 -33.5 14 q-14.5 14 -14.5 34 q0 20 14.5 34 q14.5 14 33.5 14 q19 0 33.5 -14 Z" /><glyph glyph-name="Eogonek" unicode="&#x118;" d="M553 -147 l19 -40 q-38 -36 -90 -36 q-36 0 -63 24 q-27 24 -27 61 q0 66 89 138 l-387 0 l0 708 l439 0 l0 -64 l-367 0 l0 -244 l343 0 l0 -63 l-343 0 l0 -273 l379 0 l0 -64 l-16 0 q-41 -41 -59 -67.5 q-18 -26.5 -18 -53.5 q0 -21 14.5 -34.5 q14.5 -13.5 35.5 -13.5 q31 0 51 22 Z" /><glyph glyph-name="eogonek" unicode="&#x119;" d="M380 -147 l19 -40 q-38 -36 -90 -36 q-37 0 -63.5 24 q-26.5 24 -26.5 61 q0 62 74 126 q-102 2 -169.5 71.5 q-67.5 69.5 -67.5 174.5 q0 105 68 175.5 q68 70.5 168 70.5 q106 0 165 -65.5 q59 -65.5 59 -166.5 q0 -20 -1 -32 l-388 0 q2 -71 51 -120.5 q49 -49.5 120 -49.5 q49 0 89 23.5 q40 23.5 61 57.5 l51 -40 q-61 -78 -151 -94 q-36 -37 -52.5 -62.5 q-16.5 -25.5 -16.5 -51.5 q0 -21 14.5 -34.5 q14.5 -13.5 35.5 -13.5 q31 0 51 22 ZM128 270 l319 0 q-3 68 -43.5 110.5 q-40.5 42.5 -111.5 42.5 q-66 0 -112.5 -45.5 q-46.5 -45.5 -51.5 -107.5 Z" /><glyph glyph-name="Ecaron" unicode="&#x11a;" d="M166 337 l0 -273 l379 0 l0 -64 l-451 0 l0 708 l439 0 l0 -64 l-367 0 l0 -244 l343 0 l0 -63 l-343 0 ZM466 908 l-109 -144 l-80 0 l-109 144 l66 0 l83 -108 l83 108 l66 0 Z" /><glyph glyph-name="ecaron" unicode="&#x11b;" d="M128 270 l319 0 q-3 68 -43.5 110.5 q-40.5 42.5 -111.5 42.5 q-66 0 -112.5 -45.5 q-46.5 -45.5 -51.5 -107.5 ZM516 248 q0 -20 -1 -32 l-388 0 q2 -71 51 -120.5 q49 -49.5 120 -49.5 q49 0 89 23.5 q40 23.5 61 57.5 l51 -40 q-78 -99 -201 -99 q-104 0 -173 70 q-69 70 -69 176 q0 105 68 175.5 q68 70.5 168 70.5 q106 0 165 -65.5 q59 -65.5 59 -166.5 ZM443 708 l-109 -144 l-80 0 l-109 144 l66 0 l83 -108 l83 108 l66 0 Z" /><glyph glyph-name="Gcircumflex" unicode="&#x11c;" d="M681 631 l-50 -50 q-77 82 -205 82 q-132 0 -213 -90 q-81 -90 -81 -219 q0 -128 81 -218 q81 -90 213 -90 q121 0 191 46 l0 215 l-165 0 l0 63 l237 0 l0 -319 q-115 -69 -264 -69 q-160 0 -264.5 105.5 q-104.5 105.5 -104.5 266.5 q0 161 105 266.5 q105 105.5 264 105.5 q159 0 256 -95 ZM470 908 l109 -144 l-66 0 l-83 108 l-83 -108 l-66 0 l109 144 l80 0 Z" /><glyph glyph-name="gcircumflex" unicode="&#x11d;" d="M66 -146 l49 52 q29 -37 78 -61.5 q49 -24.5 101 -24.5 q95 0 139 51 q44 51 44 133 l0 88 l-2 0 q-26 -42 -75.5 -67 q-49.5 -25 -101.5 -25 q-108 0 -175 67 q-67 67 -67 171 q0 102 67.5 172 q67.5 70 174.5 70 q53 0 101.5 -24.5 q48.5 -24.5 75.5 -68.5 l2 0 l0 81 l68 0 l0 -464 q0 -43 -11.5 -82 q-11.5 -39 -37.5 -77.5 q-26 -38.5 -78.5 -61.5 q-52.5 -23 -126.5 -23 q-64 0 -123.5 25 q-59.5 25 -101.5 69 ZM175.5 370 q-47.5 -53 -47.5 -130 q0 -77 47.5 -129.5 q47.5 -52.5 129.5 -52.5 q79 0 129.5 50.5 q50.5 50.5 50.5 131.5 q0 75 -51.5 129 q-51.5 54 -128.5 54 q-82 0 -129.5 -53 ZM348 708 l109 -144 l-66 0 l-83 108 l-83 -108 l-66 0 l109 144 l80 0 Z" /><glyph glyph-name="Gbreve" unicode="&#x11e;" d="M681 631 l-50 -50 q-77 82 -205 82 q-132 0 -213 -90 q-81 -90 -81 -219 q0 -128 81 -218 q81 -90 213 -90 q121 0 191 46 l0 215 l-165 0 l0 63 l237 0 l0 -319 q-115 -69 -264 -69 q-160 0 -264.5 105.5 q-104.5 105.5 -104.5 266.5 q0 161 105 266.5 q105 105.5 264 105.5 q159 0 256 -95 ZM529 908 l44 0 q-4 -61 -44.5 -96.5 q-40.5 -35.5 -102.5 -35.5 q-62 0 -102.5 35.5 q-40.5 35.5 -44.5 96.5 l44 0 q6 -38 35 -58 q29 -20 68 -20 q39 0 68 20 q29 20 35 58 Z" /><glyph glyph-name="gbreve" unicode="&#x11f;" d="M66 -146 l49 52 q29 -37 78 -61.5 q49 -24.5 101 -24.5 q95 0 139 51 q44 51 44 133 l0 88 l-2 0 q-26 -42 -75.5 -67 q-49.5 -25 -101.5 -25 q-108 0 -175 67 q-67 67 -67 171 q0 102 67.5 172 q67.5 70 174.5 70 q53 0 101.5 -24.5 q48.5 -24.5 75.5 -68.5 l2 0 l0 81 l68 0 l0 -464 q0 -43 -11.5 -82 q-11.5 -39 -37.5 -77.5 q-26 -38.5 -78.5 -61.5 q-52.5 -23 -126.5 -23 q-64 0 -123.5 25 q-59.5 25 -101.5 69 ZM175.5 370 q-47.5 -53 -47.5 -130 q0 -77 47.5 -129.5 q47.5 -52.5 129.5 -52.5 q79 0 129.5 50.5 q50.5 50.5 50.5 131.5 q0 75 -51.5 129 q-51.5 54 -128.5 54 q-82 0 -129.5 -53 ZM413 708 l44 0 q-4 -61 -44.5 -96.5 q-40.5 -35.5 -102.5 -35.5 q-62 0 -102.5 35.5 q-40.5 35.5 -44.5 96.5 l44 0 q6 -38 35 -58 q29 -20 68 -20 q39 0 68 20 q29 20 35 58 Z" /><glyph glyph-name="Gdotaccent" unicode="&#x120;" d="M681 631 l-50 -50 q-77 82 -205 82 q-132 0 -213 -90 q-81 -90 -81 -219 q0 -128 81 -218 q81 -90 213 -90 q121 0 191 46 l0 215 l-165 0 l0 63 l237 0 l0 -319 q-115 -69 -264 -69 q-160 0 -264.5 105.5 q-104.5 105.5 -104.5 266.5 q0 161 105 266.5 q105 105.5 264 105.5 q159 0 256 -95 ZM458.5 882 q14.5 -14 14.5 -34 q0 -20 -14.5 -34 q-14.5 -14 -33.5 -14 q-19 0 -33.5 14 q-14.5 14 -14.5 34 q0 20 14.5 34 q14.5 14 33.5 14 q19 0 33.5 -14 Z" /><glyph glyph-name="gdotaccent" unicode="&#x121;" d="M66 -146 l49 52 q29 -37 78 -61.5 q49 -24.5 101 -24.5 q95 0 139 51 q44 51 44 133 l0 88 l-2 0 q-26 -42 -75.5 -67 q-49.5 -25 -101.5 -25 q-108 0 -175 67 q-67 67 -67 171 q0 102 67.5 172 q67.5 70 174.5 70 q53 0 101.5 -24.5 q48.5 -24.5 75.5 -68.5 l2 0 l0 81 l68 0 l0 -464 q0 -43 -11.5 -82 q-11.5 -39 -37.5 -77.5 q-26 -38.5 -78.5 -61.5 q-52.5 -23 -126.5 -23 q-64 0 -123.5 25 q-59.5 25 -101.5 69 ZM175.5 370 q-47.5 -53 -47.5 -130 q0 -77 47.5 -129.5 q47.5 -52.5 129.5 -52.5 q79 0 129.5 50.5 q50.5 50.5 50.5 131.5 q0 75 -51.5 129 q-51.5 54 -128.5 54 q-82 0 -129.5 -53 ZM340.5 682 q14.5 -14 14.5 -34 q0 -20 -14.5 -34 q-14.5 -14 -33.5 -14 q-19 0 -33.5 14 q-14.5 14 -14.5 34 q0 20 14.5 34 q14.5 14 33.5 14 q19 0 33.5 -14 Z" /><glyph glyph-name="Gcommaaccent" unicode="&#x122;" d="M681 631 l-50 -50 q-77 82 -205 82 q-132 0 -213 -90 q-81 -90 -81 -219 q0 -128 81 -218 q81 -90 213 -90 q121 0 191 46 l0 215 l-165 0 l0 63 l237 0 l0 -319 q-115 -69 -264 -69 q-160 0 -264.5 105.5 q-104.5 105.5 -104.5 266.5 q0 161 105 266.5 q105 105.5 264 105.5 q159 0 256 -95 ZM476 -45 l-76 -185 l-57 0 l62 185 l71 0 Z" /><glyph glyph-name="gcommaaccent" unicode="&#x123;" d="M66 -146 l49 52 q29 -37 78 -61.5 q49 -24.5 101 -24.5 q95 0 139 51 q44 51 44 133 l0 88 l-2 0 q-26 -42 -75.5 -67 q-49.5 -25 -101.5 -25 q-108 0 -175 67 q-67 67 -67 171 q0 102 67.5 172 q67.5 70 174.5 70 q53 0 101.5 -24.5 q48.5 -24.5 75.5 -68.5 l2 0 l0 81 l68 0 l0 -464 q0 -43 -11.5 -82 q-11.5 -39 -37.5 -77.5 q-26 -38.5 -78.5 -61.5 q-52.5 -23 -126.5 -23 q-64 0 -123.5 25 q-59.5 25 -101.5 69 ZM175.5 370 q-47.5 -53 -47.5 -130 q0 -77 47.5 -129.5 q47.5 -52.5 129.5 -52.5 q79 0 129.5 50.5 q50.5 50.5 50.5 131.5 q0 75 -51.5 129 q-51.5 54 -128.5 54 q-82 0 -129.5 -53 ZM281 564 l76 185 l57 0 l-62 -185 l-71 0 Z" /><glyph glyph-name="Hcircumflex" unicode="&#x124;" d="M94 0 l0 708 l72 0 l0 -307 l386 0 l0 307 l72 0 l0 -708 l-72 0 l0 335 l-386 0 l0 -335 l-72 0 ZM398 908 l109 -144 l-66 0 l-83 108 l-83 -108 l-66 0 l109 144 l80 0 Z" /><glyph glyph-name="hcircumflex" unicode="&#x125;" d="M160 391 l2 0 q18 40 62.5 64.5 q44.5 24.5 94.5 24.5 q87 0 132.5 -52 q45.5 -52 45.5 -141 l0 -287 l-68 0 l0 259 q0 79 -28.5 121.5 q-28.5 42.5 -98.5 42.5 q-59 0 -100.5 -47.5 q-41.5 -47.5 -41.5 -135.5 l0 -240 l-68 0 l0 756 l68 0 l0 -365 ZM328 940 l109 -144 l-66 0 l-83 108 l-83 -108 l-66 0 l109 144 l80 0 Z" /><glyph glyph-name="Hbar" unicode="&#x126;" d="M94 0 l0 708 l72 0 l0 -158 l386 0 l0 158 l72 0 l0 -708 l-72 0 l0 335 l-386 0 l0 -335 l-72 0 ZM166 401 l386 0 l0 99 l-386 0 l0 -99 Z" /><glyph glyph-name="hbar" unicode="&#x127;" d="M38 620 l54 0 l0 136 l68 0 l0 -136 l158 0 l0 -50 l-158 0 l0 -179 l2 0 q18 40 62.5 64.5 q44.5 24.5 94.5 24.5 q87 0 132.5 -52 q45.5 -52 45.5 -141 l0 -287 l-68 0 l0 259 q0 79 -28.5 121.5 q-28.5 42.5 -98.5 42.5 q-59 0 -100.5 -47.5 q-41.5 -47.5 -41.5 -135.5 l0 -240 l-68 0 l0 570 l-54 0 l0 50 Z" /><glyph glyph-name="Itilde" unicode="&#x128;" d="M166 708 l0 -708 l-72 0 l0 708 l72 0 ZM12 776 l-43 0 q18 104 92 104 q27 0 73 -23 q50 -23 67 -23 q37 0 49 50 l43 0 q-18 -104 -92 -104 q-29 0 -73 23 q-44 23 -67 23 q-37 0 -49 -50 Z" /><glyph glyph-name="itilde" unicode="&#x129;" d="M159 468 l0 -468 l-68 0 l0 468 l68 0 ZM8 576 l-43 0 q18 104 92 104 q27 0 73 -23 q50 -23 67 -23 q37 0 49 50 l43 0 q-18 -104 -92 -104 q-29 0 -73 23 q-44 23 -67 23 q-37 0 -49 -50 Z" /><glyph glyph-name="Imacron" unicode="&#x12a;" d="M166 708 l0 -708 l-72 0 l0 708 l72 0 ZM266 854 l0 -54 l-270 0 l0 54 l270 0 Z" /><glyph glyph-name="imacron" unicode="&#x12b;" d="M159 468 l0 -468 l-68 0 l0 468 l68 0 ZM261 654 l0 -54 l-270 0 l0 54 l270 0 Z" /><glyph glyph-name="Ibreve" unicode="&#x12c;" d="M166 708 l0 -708 l-72 0 l0 708 l72 0 ZM233 908 l44 0 q-4 -61 -44.5 -96.5 q-40.5 -35.5 -102.5 -35.5 q-62 0 -102.5 35.5 q-40.5 35.5 -44.5 96.5 l44 0 q6 -38 35 -58 q29 -20 68 -20 q39 0 68 20 q29 20 35 58 Z" /><glyph glyph-name="ibreve" unicode="&#x12d;" d="M159 468 l0 -468 l-68 0 l0 468 l68 0 ZM228 708 l44 0 q-4 -61 -44.5 -96.5 q-40.5 -35.5 -102.5 -35.5 q-62 0 -102.5 35.5 q-40.5 35.5 -44.5 96.5 l44 0 q6 -38 35 -58 q29 -20 68 -20 q39 0 68 20 q29 20 35 58 Z" /><glyph glyph-name="Iogonek" unicode="&#x12e;" d="M184 -147 l19 -40 q-38 -36 -90 -36 q-37 0 -63.5 24 q-26.5 24 -26.5 61 q0 66 89 138 l-18 0 l0 708 l72 0 l0 -708 l-6 0 q-41 -41 -59 -67.5 q-18 -26.5 -18 -53.5 q0 -21 14.5 -34.5 q14.5 -13.5 35.5 -13.5 q31 0 51 22 Z" /><glyph glyph-name="iogonek" unicode="&#x12f;" d="M179 -147 l19 -40 q-38 -36 -90 -36 q-36 0 -63 24 q-27 24 -27 61 q0 66 89 138 l-16 0 l0 468 l68 0 l0 -468 l-4 0 q-41 -41 -59 -67.5 q-18 -26.5 -18 -53.5 q0 -21 14.5 -34.5 q14.5 -13.5 35.5 -13.5 q31 0 51 22 ZM158.5 682 q14.5 -14 14.5 -34 q0 -20 -14.5 -34 q-14.5 -14 -33.5 -14 q-19 0 -33.5 14 q-14.5 14 -14.5 34 q0 20 14.5 34 q14.5 14 33.5 14 q19 0 33.5 -14 Z" /><glyph glyph-name="Idotaccent" unicode="&#x130;" d="M166 708 l0 -708 l-72 0 l0 708 l72 0 ZM164.5 882 q14.5 -14 14.5 -34 q0 -20 -14.5 -34 q-14.5 -14 -33.5 -14 q-19 0 -33.5 14 q-14.5 14 -14.5 34 q0 20 14.5 34 q14.5 14 33.5 14 q19 0 33.5 -14 Z" /><glyph glyph-name="dotlessi" unicode="&#x131;" d="M159 468 l0 -468 l-68 0 l0 468 l68 0 Z" /><glyph glyph-name="IJ" unicode="&#x132;" d="M166 708 l0 -708 l-72 0 l0 708 l72 0 ZM267 126 l67 18 q9 -43 39.5 -71 q30.5 -28 75.5 -28 q125 0 125 164 l0 499 l72 0 l0 -504 q0 -30 -4.5 -58.5 q-4.5 -28.5 -17.5 -59 q-13 -30.5 -33.5 -53 q-20.5 -22.5 -54.5 -37 q-34 -14.5 -79 -14.5 q-75 0 -126 40 q-51 40 -64 104 Z" /><glyph glyph-name="ij" unicode="&#x133;" d="M159 468 l0 -468 l-68 0 l0 468 l68 0 ZM158.5 682 q14.5 -14 14.5 -34 q0 -20 -14.5 -34 q-14.5 -14 -33.5 -14 q-19 0 -33.5 14 q-14.5 14 -14.5 34 q0 20 14.5 34 q14.5 14 33.5 14 q19 0 33.5 -14 ZM220 -233 l10 57 q20 -6 43 -6 q40 0 53 25 q13 25 13 75 l0 550 l68 0 l0 -561 q0 -147 -133 -147 q-30 0 -54 7 ZM406.5 682 q14.5 -14 14.5 -34 q0 -20 -14.5 -34 q-14.5 -14 -33.5 -14 q-19 0 -33.5 14 q-14.5 14 -14.5 34 q0 20 14.5 34 q14.5 14 33.5 14 q19 0 33.5 -14 Z" /><glyph glyph-name="Jcircumflex" unicode="&#x134;" d="M25 126 l67 18 q9 -43 39.5 -71 q30.5 -28 75.5 -28 q125 0 125 164 l0 499 l72 0 l0 -504 q0 -30 -4.5 -58.5 q-4.5 -28.5 -17.5 -59 q-13 -30.5 -33.5 -53 q-20.5 -22.5 -54.5 -37 q-34 -14.5 -79 -14.5 q-75 0 -126 40 q-51 40 -64 104 ZM407 908 l109 -144 l-66 0 l-83 108 l-83 -108 l-66 0 l109 144 l80 0 Z" /><glyph glyph-name="jcircumflex" unicode="&#x135;" d="M-27 -233 l10 57 q20 -6 43 -6 q40 0 53 25 q13 25 13 75 l0 550 l68 0 l0 -561 q0 -147 -133 -147 q-30 0 -54 7 ZM166 708 l109 -144 l-66 0 l-83 108 l-83 -108 l-66 0 l109 144 l80 0 Z" /><glyph glyph-name="Kcommaaccent" unicode="&#x136;" d="M166 708 l0 -318 l1 0 l337 318 l103 0 l-357 -321 l377 -387 l-106 0 l-354 377 l-1 0 l0 -377 l-72 0 l0 708 l72 0 ZM388 -45 l-76 -185 l-57 0 l62 185 l71 0 Z" /><glyph glyph-name="kcommaaccent" unicode="&#x137;" d="M160 756 l0 -499 l3 0 l216 211 l98 0 l-236 -214 l260 -254 l-100 0 l-238 246 l-3 0 l0 -246 l-68 0 l0 756 l68 0 ZM329 -45 l-76 -185 l-57 0 l62 185 l71 0 Z" /><glyph glyph-name="kgreenlandic" unicode="&#x138;" d="M160 468 l0 -211 l3 0 l216 211 l98 0 l-236 -214 l260 -254 l-100 0 l-238 246 l-3 0 l0 -246 l-68 0 l0 468 l68 0 Z" /><glyph glyph-name="Lacute" unicode="&#x139;" d="M166 708 l0 -644 l330 0 l0 -64 l-402 0 l0 708 l72 0 ZM291 908 l-132 -144 l-59 0 l100 144 l91 0 Z" /><glyph glyph-name="lacute" unicode="&#x13a;" d="M160 756 l0 -756 l-68 0 l0 756 l68 0 ZM285 936 l-132 -144 l-59 0 l100 144 l91 0 Z" /><glyph glyph-name="Lcommaaccent" unicode="&#x13b;" d="M166 708 l0 -644 l330 0 l0 -64 l-402 0 l0 708 l72 0 ZM347 -45 l-76 -185 l-57 0 l62 185 l71 0 Z" /><glyph glyph-name="lcommaaccent" unicode="&#x13c;" d="M160 756 l0 -756 l-68 0 l0 756 l68 0 ZM179 -45 l-76 -185 l-57 0 l62 185 l71 0 Z" /><glyph glyph-name="Lcaron" unicode="&#x13d;" d="M166 708 l0 -644 l330 0 l0 -64 l-402 0 l0 708 l72 0 ZM376 708 l-76 -185 l-57 0 l62 185 l71 0 Z" /><glyph glyph-name="lcaron" unicode="&#x13e;" d="M160 756 l0 -756 l-68 0 l0 756 l68 0 ZM350 708 l-76 -185 l-57 0 l62 185 l71 0 Z" /><glyph glyph-name="Ldot" unicode="&#x13f;" d="M166 708 l0 -644 l330 0 l0 -64 l-402 0 l0 708 l72 0 ZM362.5 462 q14.5 -14 14.5 -34 q0 -20 -14.5 -34 q-14.5 -14 -33.5 -14 q-19 0 -33.5 14 q-14.5 14 -14.5 34 q0 20 14.5 34 q14.5 14 33.5 14 q19 0 33.5 -14 Z" /><glyph glyph-name="ldot" unicode="&#x140;" d="M160 756 l0 -756 l-68 0 l0 756 l68 0 ZM297.5 492 q14.5 -14 14.5 -34 q0 -20 -14.5 -34 q-14.5 -14 -33.5 -14 q-19 0 -33.5 14 q-14.5 14 -14.5 34 q0 20 14.5 34 q14.5 14 33.5 14 q19 0 33.5 -14 Z" /><glyph glyph-name="Lslash" unicode="&#x141;" d="M166 708 l0 -346 l216 186 l0 -70 l-216 -186 l0 -228 l330 0 l0 -64 l-402 0 l0 242 l-82 -70 l0 70 l82 70 l0 396 l72 0 Z" /><glyph glyph-name="lslash" unicode="&#x142;" d="M158 756 l0 -298 l81 84 l0 -73 l-81 -83 l0 -386 l-66 0 l0 331 l-81 -83 l0 73 l81 82 l0 353 l66 0 Z" /><glyph glyph-name="Nacute" unicode="&#x143;" d="M184 708 l412 -603 l2 0 l0 603 l72 0 l0 -708 l-90 0 l-412 609 l-2 0 l0 -609 l-72 0 l0 708 l90 0 ZM535 908 l-132 -144 l-59 0 l100 144 l91 0 Z" /><glyph glyph-name="nacute" unicode="&#x144;" d="M86 468 l65 0 q4 -50 4 -80 l2 0 q19 40 64.5 66 q45.5 26 95.5 26 q87 0 132.5 -52 q45.5 -52 45.5 -141 l0 -287 l-68 0 l0 259 q0 79 -28.5 121.5 q-28.5 42.5 -98.5 42.5 q-59 0 -100.5 -47.5 q-41.5 -47.5 -41.5 -135.5 l0 -240 l-68 0 l0 365 q0 60 -4 103 ZM439 708 l-132 -144 l-59 0 l100 144 l91 0 Z" /><glyph glyph-name="Ncommaaccent" unicode="&#x145;" d="M184 708 l412 -603 l2 0 l0 603 l72 0 l0 -708 l-90 0 l-412 609 l-2 0 l0 -609 l-72 0 l0 708 l90 0 ZM425 -45 l-76 -185 l-57 0 l62 185 l71 0 Z" /><glyph glyph-name="ncommaaccent" unicode="&#x146;" d="M86 468 l65 0 q4 -50 4 -80 l2 0 q19 40 64.5 66 q45.5 26 95.5 26 q87 0 132.5 -52 q45.5 -52 45.5 -141 l0 -287 l-68 0 l0 259 q0 79 -28.5 121.5 q-28.5 42.5 -98.5 42.5 q-59 0 -100.5 -47.5 q-41.5 -47.5 -41.5 -135.5 l0 -240 l-68 0 l0 365 q0 60 -4 103 ZM342 -45 l-76 -185 l-57 0 l62 185 l71 0 Z" /><glyph glyph-name="Ncaron" unicode="&#x147;" d="M184 708 l412 -603 l2 0 l0 603 l72 0 l0 -708 l-90 0 l-412 609 l-2 0 l0 -609 l-72 0 l0 708 l90 0 ZM532 908 l-109 -144 l-80 0 l-109 144 l66 0 l83 -108 l83 108 l66 0 Z" /><glyph glyph-name="ncaron" unicode="&#x148;" d="M86 468 l65 0 q4 -50 4 -80 l2 0 q19 40 64.5 66 q45.5 26 95.5 26 q87 0 132.5 -52 q45.5 -52 45.5 -141 l0 -287 l-68 0 l0 259 q0 79 -28.5 121.5 q-28.5 42.5 -98.5 42.5 q-59 0 -100.5 -47.5 q-41.5 -47.5 -41.5 -135.5 l0 -240 l-68 0 l0 365 q0 60 -4 103 ZM442 708 l-109 -144 l-80 0 l-109 144 l66 0 l83 -108 l83 108 l66 0 Z" /><glyph glyph-name="napostrophe" unicode="&#x149;" d="M86 468 l65 0 q4 -50 4 -80 l2 0 q19 40 64.5 66 q45.5 26 95.5 26 q87 0 132.5 -52 q45.5 -52 45.5 -141 l0 -287 l-68 0 l0 259 q0 79 -28.5 121.5 q-28.5 42.5 -98.5 42.5 q-59 0 -100.5 -47.5 q-41.5 -47.5 -41.5 -135.5 l0 -240 l-68 0 l0 365 q0 60 -4 103 ZM106 756 l-76 -185 l-57 0 l62 185 l71 0 Z" /><glyph glyph-name="Eng" unicode="&#x14a;" d="M94 0 l0 708 l90 0 l412 -584 l2 0 l0 584 l72 0 l0 -801 q0 -147 -133 -147 q-30 0 -54 7 l10 57 q19 -6 43 -6 q40 0 53 25 q13 25 13 75 l0 72 l-434 619 l-2 0 l0 -609 l-72 0 Z" /><glyph glyph-name="eng" unicode="&#x14b;" d="M308 -233 l10 57 q20 -6 43 -6 q40 0 53 25 q13 25 13 75 l0 341 q0 79 -28.5 121.5 q-28.5 42.5 -98.5 42.5 q-59 0 -100.5 -47.5 q-41.5 -47.5 -41.5 -135.5 l0 -240 l-68 0 l0 365 q0 60 -4 103 l65 0 q4 -50 4 -80 l2 0 q19 40 64.5 66 q45.5 26 95.5 26 q87 0 132.5 -52 q45.5 -52 45.5 -141 l0 -380 q0 -147 -133 -147 q-30 0 -54 7 Z" /><glyph glyph-name="Omacron" unicode="&#x14c;" d="M689 620.5 q105 -105.5 105 -266.5 q0 -161 -105 -266.5 q-105 -105.5 -264 -105.5 q-159 0 -264 105.5 q-105 105.5 -105 266.5 q0 161 105 266.5 q105 105.5 264 105.5 q159 0 264 -105.5 ZM637.5 135.5 q80.5 89.5 80.5 218.5 q0 129 -80.5 219 q-80.5 90 -212.5 90 q-132 0 -212.5 -90 q-80.5 -90 -80.5 -219 q0 -129 80.5 -218.5 q80.5 -89.5 212.5 -89.5 q132 0 212.5 89.5 ZM564 854 l0 -54 l-270 0 l0 54 l270 0 Z" /><glyph glyph-name="omacron" unicode="&#x14d;" d="M484.5 410 q70.5 -70 70.5 -176 q0 -106 -70.5 -176 q-70.5 -70 -179.5 -70 q-108 0 -178.5 70 q-70.5 70 -70.5 176 q0 106 70.5 176 q70.5 70 178.5 70 q109 0 179.5 -70 ZM434 99.5 q49 53.5 49 134.5 q0 81 -49 135 q-49 54 -129 54 q-79 0 -128 -54 q-49 -54 -49 -135 q0 -80 49 -134 q49 -54 128 -54 q80 0 129 53.5 ZM442 654 l0 -54 l-270 0 l0 54 l270 0 Z" /><glyph glyph-name="Obreve" unicode="&#x14e;" d="M689 620.5 q105 -105.5 105 -266.5 q0 -161 -105 -266.5 q-105 -105.5 -264 -105.5 q-159 0 -264 105.5 q-105 105.5 -105 266.5 q0 161 105 266.5 q105 105.5 264 105.5 q159 0 264 -105.5 ZM637.5 135.5 q80.5 89.5 80.5 218.5 q0 129 -80.5 219 q-80.5 90 -212.5 90 q-132 0 -212.5 -90 q-80.5 -90 -80.5 -219 q0 -129 80.5 -218.5 q80.5 -89.5 212.5 -89.5 q132 0 212.5 89.5 ZM531 908 l44 0 q-4 -61 -44.5 -96.5 q-40.5 -35.5 -102.5 -35.5 q-62 0 -102.5 35.5 q-40.5 35.5 -44.5 96.5 l44 0 q6 -38 35 -58 q29 -20 68 -20 q39 0 68 20 q29 20 35 58 Z" /><glyph glyph-name="obreve" unicode="&#x14f;" d="M484.5 410 q70.5 -70 70.5 -176 q0 -106 -70.5 -176 q-70.5 -70 -179.5 -70 q-108 0 -178.5 70 q-70.5 70 -70.5 176 q0 106 70.5 176 q70.5 70 178.5 70 q109 0 179.5 -70 ZM434 99.5 q49 53.5 49 134.5 q0 81 -49 135 q-49 54 -129 54 q-79 0 -128 -54 q-49 -54 -49 -135 q0 -80 49 -134 q49 -54 128 -54 q80 0 129 53.5 ZM410 708 l44 0 q-4 -61 -44.5 -96.5 q-40.5 -35.5 -102.5 -35.5 q-62 0 -102.5 35.5 q-40.5 35.5 -44.5 96.5 l44 0 q6 -38 35 -58 q29 -20 68 -20 q39 0 68 20 q29 20 35 58 Z" /><glyph glyph-name="Ohungarumlaut" unicode="&#x150;" d="M689 620.5 q105 -105.5 105 -266.5 q0 -161 -105 -266.5 q-105 -105.5 -264 -105.5 q-159 0 -264 105.5 q-105 105.5 -105 266.5 q0 161 105 266.5 q105 105.5 264 105.5 q159 0 264 -105.5 ZM637.5 135.5 q80.5 89.5 80.5 218.5 q0 129 -80.5 219 q-80.5 90 -212.5 90 q-132 0 -212.5 -90 q-80.5 -90 -80.5 -219 q0 -129 80.5 -218.5 q80.5 -89.5 212.5 -89.5 q132 0 212.5 89.5 ZM501 908 l-133 -144 l-59 0 l101 144 l91 0 ZM671 908 l-132 -144 l-59 0 l100 144 l91 0 Z" /><glyph glyph-name="ohungarumlaut" unicode="&#x151;" d="M484.5 410 q70.5 -70 70.5 -176 q0 -106 -70.5 -176 q-70.5 -70 -179.5 -70 q-108 0 -178.5 70 q-70.5 70 -70.5 176 q0 106 70.5 176 q70.5 70 178.5 70 q109 0 179.5 -70 ZM434 99.5 q49 53.5 49 134.5 q0 81 -49 135 q-49 54 -129 54 q-79 0 -128 -54 q-49 -54 -49 -135 q0 -80 49 -134 q49 -54 128 -54 q80 0 129 53.5 ZM388 708 l-133 -144 l-59 0 l101 144 l91 0 ZM558 708 l-132 -144 l-59 0 l100 144 l91 0 Z" /><glyph glyph-name="OE" unicode="&#x152;" d="M443 708 l490 0 l0 -64 l-333 0 l0 -244 l309 0 l0 -63 l-309 0 l0 -273 l345 0 l0 -64 l-502 0 q-68 0 -133 22.5 q-65 22.5 -119 65 q-54 42.5 -87 112 q-33 69.5 -33 154.5 q0 85 33 154.5 q33 69.5 87 112 q54 42.5 119 65 q65 22.5 133 22.5 ZM463 644 q-77 0 -138.5 -24.5 q-61.5 -24.5 -99.5 -66 q-38 -41.5 -58 -92.5 q-20 -51 -20 -107 q0 -56 20 -107 q20 -51 58 -92.5 q38 -41.5 99.5 -66 q61.5 -24.5 138.5 -24.5 l65 0 l0 580 l-65 0 Z" /><glyph glyph-name="oe" unicode="&#x153;" d="M713 480 q107 0 166 -65.5 q59 -65.5 59 -166.5 q0 -20 -1 -32 l-390 0 q2 -71 51.5 -120.5 q49.5 -49.5 121.5 -49.5 q49 0 89 23.5 q40 23.5 61 57.5 l51 -40 q-78 -99 -202 -99 q-67 0 -120 30 q-53 30 -84 84 q-32 -54 -86.5 -84 q-54.5 -30 -124.5 -30 q-108 0 -178 70 q-70 70 -70 176 q0 106 70 176 q70 70 178 70 q70 0 124 -30 q54 -30 86 -84 q31 53 83 83.5 q52 30.5 116 30.5 ZM483 234 q0 81 -49.5 135 q-49.5 54 -129.5 54 q-79 0 -128.5 -54.5 q-49.5 -54.5 -49.5 -134.5 q0 -80 49 -134 q49 -54 129 -54 q80 0 129.5 54 q49.5 54 49.5 134 ZM550 270 l319 0 q-3 68 -43.5 110.5 q-40.5 42.5 -111.5 42.5 q-66 0 -112.5 -45.5 q-46.5 -45.5 -51.5 -107.5 Z" /><glyph glyph-name="Racute" unicode="&#x154;" d="M166 331 l0 -331 l-72 0 l0 708 l208 0 q112 0 177 -45.5 q65 -45.5 65 -143.5 q0 -77 -50.5 -125 q-50.5 -48 -130.5 -57 l207 -337 l-88 0 l-196 331 l-120 0 ZM166 646 l0 -253 l125 0 q87 0 134 32 q47 32 47 94 q0 127 -178 127 l-128 0 ZM422 908 l-132 -144 l-59 0 l100 144 l91 0 Z" /><glyph glyph-name="racute" unicode="&#x155;" d="M90 365 q0 60 -4 103 l65 0 q4 -50 4 -80 l2 0 q20 41 60.5 66.5 q40.5 25.5 89.5 25.5 q27 0 45 -5 l-9 -64 q-16 6 -48 6 q-59 0 -98 -44.5 q-39 -44.5 -39 -132.5 l0 -240 l-68 0 l0 365 ZM307 708 l-132 -144 l-59 0 l100 144 l91 0 Z" /><glyph glyph-name="Rcommaaccent" unicode="&#x156;" d="M166 331 l0 -331 l-72 0 l0 708 l208 0 q112 0 177 -45.5 q65 -45.5 65 -143.5 q0 -77 -50.5 -125 q-50.5 -48 -130.5 -57 l207 -337 l-88 0 l-196 331 l-120 0 ZM166 646 l0 -253 l125 0 q87 0 134 32 q47 32 47 94 q0 127 -178 127 l-128 0 ZM366 -45 l-76 -185 l-57 0 l62 185 l71 0 Z" /><glyph glyph-name="rcommaaccent" unicode="&#x157;" d="M90 365 q0 60 -4 103 l65 0 q4 -50 4 -80 l2 0 q20 41 60.5 66.5 q40.5 25.5 89.5 25.5 q27 0 45 -5 l-9 -64 q-16 6 -48 6 q-59 0 -98 -44.5 q-39 -44.5 -39 -132.5 l0 -240 l-68 0 l0 365 ZM176 -45 l-76 -185 l-57 0 l62 185 l71 0 Z" /><glyph glyph-name="Rcaron" unicode="&#x158;" d="M166 331 l0 -331 l-72 0 l0 708 l208 0 q112 0 177 -45.5 q65 -45.5 65 -143.5 q0 -77 -50.5 -125 q-50.5 -48 -130.5 -57 l207 -337 l-88 0 l-196 331 l-120 0 ZM166 646 l0 -253 l125 0 q87 0 134 32 q47 32 47 94 q0 127 -178 127 l-128 0 ZM437 908 l-109 -144 l-80 0 l-109 144 l66 0 l83 -108 l83 108 l66 0 Z" /><glyph glyph-name="rcaron" unicode="&#x159;" d="M90 365 q0 60 -4 103 l65 0 q4 -50 4 -80 l2 0 q20 41 60.5 66.5 q40.5 25.5 89.5 25.5 q27 0 45 -5 l-9 -64 q-16 6 -48 6 q-59 0 -98 -44.5 q-39 -44.5 -39 -132.5 l0 -240 l-68 0 l0 365 ZM364 708 l-109 -144 l-80 0 l-109 144 l66 0 l83 -108 l83 108 l66 0 Z" /><glyph glyph-name="Sacute" unicode="&#x15a;" d="M494 640 l-57 -46 q-50 71 -146 71 q-59 0 -105 -35 q-46 -35 -46 -98 q0 -26 9.5 -47 q9.5 -21 20.5 -33 q11 -12 36.5 -25 q25.5 -13 40 -18 q14.5 -5 47.5 -16 q34 -11 44.5 -14.5 q10.5 -3.5 40 -15.5 q29.5 -12 41 -20.5 q11.5 -8.5 32 -25.5 q20.5 -17 29 -34 q8.5 -17 16 -42 q7.5 -25 7.5 -55 q0 -99 -69 -151.5 q-69 -52.5 -162 -52.5 q-67 0 -126.5 27 q-59.5 27 -96.5 78 l62 46 q25 -40 67 -64.5 q42 -24.5 95 -24.5 q61 0 109 36.5 q48 36.5 48 100.5 q0 29 -10.5 51.5 q-10.5 22.5 -23.5 36.5 q-13 14 -40.5 27.5 q-27.5 13.5 -45 19.5 q-17.5 6 -53.5 17 q-42 13 -70.5 26 q-28.5 13 -58.5 35 q-30 22 -45.5 56.5 q-15.5 34.5 -15.5 80.5 q0 65 35.5 110.5 q35.5 45.5 85 65 q49.5 19.5 105.5 19.5 q67 0 120 -24.5 q53 -24.5 80 -61.5 ZM434 908 l-132 -144 l-59 0 l100 144 l91 0 Z" /><glyph glyph-name="sacute" unicode="&#x15b;" d="M391 396 l-52 -39 q-15 30 -46 48 q-31 18 -69 18 q-41 0 -70 -18.5 q-29 -18.5 -29 -54.5 q0 -32 26 -50 q26 -18 86 -30 q83 -17 122.5 -50 q39.5 -33 39.5 -87 q0 -74 -51.5 -109.5 q-51.5 -35.5 -124.5 -35.5 q-123 0 -185 91 l54 40 q19 -32 54.5 -52.5 q35.5 -20.5 75.5 -20.5 q48 0 79 19.5 q31 19.5 31 62.5 q0 35 -32.5 54 q-32.5 19 -105.5 36 q-26 6 -45 13 q-19 7 -41.5 21 q-22.5 14 -35 37.5 q-12.5 23.5 -12.5 54.5 q0 67 48.5 101.5 q48.5 34.5 118.5 34.5 q50 0 96 -22.5 q46 -22.5 68 -61.5 ZM380 708 l-132 -144 l-59 0 l100 144 l91 0 Z" /><glyph glyph-name="Scircumflex" unicode="&#x15c;" d="M494 640 l-57 -46 q-50 71 -146 71 q-59 0 -105 -35 q-46 -35 -46 -98 q0 -26 9.5 -47 q9.5 -21 20.5 -33 q11 -12 36.5 -25 q25.5 -13 40 -18 q14.5 -5 47.5 -16 q34 -11 44.5 -14.5 q10.5 -3.5 40 -15.5 q29.5 -12 41 -20.5 q11.5 -8.5 32 -25.5 q20.5 -17 29 -34 q8.5 -17 16 -42 q7.5 -25 7.5 -55 q0 -99 -69 -151.5 q-69 -52.5 -162 -52.5 q-67 0 -126.5 27 q-59.5 27 -96.5 78 l62 46 q25 -40 67 -64.5 q42 -24.5 95 -24.5 q61 0 109 36.5 q48 36.5 48 100.5 q0 29 -10.5 51.5 q-10.5 22.5 -23.5 36.5 q-13 14 -40.5 27.5 q-27.5 13.5 -45 19.5 q-17.5 6 -53.5 17 q-42 13 -70.5 26 q-28.5 13 -58.5 35 q-30 22 -45.5 56.5 q-15.5 34.5 -15.5 80.5 q0 65 35.5 110.5 q35.5 45.5 85 65 q49.5 19.5 105.5 19.5 q67 0 120 -24.5 q53 -24.5 80 -61.5 ZM333 908 l109 -144 l-66 0 l-83 108 l-83 -108 l-66 0 l109 144 l80 0 Z" /><glyph glyph-name="scircumflex" unicode="&#x15d;" d="M391 396 l-52 -39 q-15 30 -46 48 q-31 18 -69 18 q-41 0 -70 -18.5 q-29 -18.5 -29 -54.5 q0 -32 26 -50 q26 -18 86 -30 q83 -17 122.5 -50 q39.5 -33 39.5 -87 q0 -74 -51.5 -109.5 q-51.5 -35.5 -124.5 -35.5 q-123 0 -185 91 l54 40 q19 -32 54.5 -52.5 q35.5 -20.5 75.5 -20.5 q48 0 79 19.5 q31 19.5 31 62.5 q0 35 -32.5 54 q-32.5 19 -105.5 36 q-26 6 -45 13 q-19 7 -41.5 21 q-22.5 14 -35 37.5 q-12.5 23.5 -12.5 54.5 q0 67 48.5 101.5 q48.5 34.5 118.5 34.5 q50 0 96 -22.5 q46 -22.5 68 -61.5 ZM270 708 l109 -144 l-66 0 l-83 108 l-83 -108 l-66 0 l109 144 l80 0 Z" /><glyph glyph-name="Scedilla" unicode="&#x15e;" d="M494 640 l-57 -46 q-50 71 -146 71 q-59 0 -105 -35 q-46 -35 -46 -98 q0 -26 9.5 -47 q9.5 -21 20.5 -33 q11 -12 36.5 -25 q25.5 -13 40 -18 q14.5 -5 47.5 -16 q34 -11 44.5 -14.5 q10.5 -3.5 40 -15.5 q29.5 -12 41 -20.5 q11.5 -8.5 32 -25.5 q20.5 -17 29 -34 q8.5 -17 16 -42 q7.5 -25 7.5 -55 q0 -92 -59.5 -144 q-59.5 -52 -145.5 -59 l-36 -58 q13 4 35 4 q33 0 57.5 -19 q24.5 -19 24.5 -53 q0 -46 -35 -66.5 q-35 -20.5 -83 -20.5 q-51 0 -94 20 l16 36 q31 -14 72 -14 q21 0 42.5 11 q21.5 11 21.5 33 q0 39 -54 39 q-22 0 -43 -8 l-18 15 l51 81 q-62 3 -117 29.5 q-55 26.5 -89 74.5 l62 46 q25 -40 67 -64.5 q42 -24.5 95 -24.5 q61 0 109 36.5 q48 36.5 48 100.5 q0 29 -10.5 51.5 q-10.5 22.5 -23.5 36.5 q-13 14 -40.5 27.5 q-27.5 13.5 -45 19.5 q-17.5 6 -53.5 17 q-42 13 -70.5 26 q-28.5 13 -58.5 35 q-30 22 -45.5 56.5 q-15.5 34.5 -15.5 80.5 q0 65 35.5 110.5 q35.5 45.5 85 65 q49.5 19.5 105.5 19.5 q67 0 120 -24.5 q53 -24.5 80 -61.5 Z" /><glyph glyph-name="scedilla" unicode="&#x15f;" d="M391 396 l-52 -39 q-15 30 -46 48 q-31 18 -69 18 q-41 0 -70 -18.5 q-29 -18.5 -29 -54.5 q0 -32 26 -50 q26 -18 86 -30 q83 -17 122.5 -50 q39.5 -33 39.5 -87 q0 -66 -42 -101 q-42 -35 -106 -42 l-40 -65 q13 4 35 4 q33 0 57.5 -19 q24.5 -19 24.5 -53 q0 -46 -35 -66.5 q-35 -20.5 -83 -20.5 q-51 0 -94 20 l16 36 q31 -14 72 -14 q21 0 42.5 11 q21.5 11 21.5 33 q0 39 -54 39 q-22 0 -43 -8 l-18 15 l54 87 q-113 7 -169 90 l54 40 q19 -32 54.5 -52.5 q35.5 -20.5 75.5 -20.5 q48 0 79 19.5 q31 19.5 31 62.5 q0 35 -32.5 54 q-32.5 19 -105.5 36 q-26 6 -45 13 q-19 7 -41.5 21 q-22.5 14 -35 37.5 q-12.5 23.5 -12.5 54.5 q0 67 48.5 101.5 q48.5 34.5 118.5 34.5 q50 0 96 -22.5 q46 -22.5 68 -61.5 Z" /><glyph glyph-name="Scaron" unicode="&#x160;" d="M494 640 l-57 -46 q-50 71 -146 71 q-59 0 -105 -35 q-46 -35 -46 -98 q0 -26 9.5 -47 q9.5 -21 20.5 -33 q11 -12 36.5 -25 q25.5 -13 40 -18 q14.5 -5 47.5 -16 q34 -11 44.5 -14.5 q10.5 -3.5 40 -15.5 q29.5 -12 41 -20.5 q11.5 -8.5 32 -25.5 q20.5 -17 29 -34 q8.5 -17 16 -42 q7.5 -25 7.5 -55 q0 -99 -69 -151.5 q-69 -52.5 -162 -52.5 q-67 0 -126.5 27 q-59.5 27 -96.5 78 l62 46 q25 -40 67 -64.5 q42 -24.5 95 -24.5 q61 0 109 36.5 q48 36.5 48 100.5 q0 29 -10.5 51.5 q-10.5 22.5 -23.5 36.5 q-13 14 -40.5 27.5 q-27.5 13.5 -45 19.5 q-17.5 6 -53.5 17 q-42 13 -70.5 26 q-28.5 13 -58.5 35 q-30 22 -45.5 56.5 q-15.5 34.5 -15.5 80.5 q0 65 35.5 110.5 q35.5 45.5 85 65 q49.5 19.5 105.5 19.5 q67 0 120 -24.5 q53 -24.5 80 -61.5 ZM435 908 l-109 -144 l-80 0 l-109 144 l66 0 l83 -108 l83 108 l66 0 Z" /><glyph glyph-name="scaron" unicode="&#x161;" d="M391 396 l-52 -39 q-15 30 -46 48 q-31 18 -69 18 q-41 0 -70 -18.5 q-29 -18.5 -29 -54.5 q0 -32 26 -50 q26 -18 86 -30 q83 -17 122.5 -50 q39.5 -33 39.5 -87 q0 -74 -51.5 -109.5 q-51.5 -35.5 -124.5 -35.5 q-123 0 -185 91 l54 40 q19 -32 54.5 -52.5 q35.5 -20.5 75.5 -20.5 q48 0 79 19.5 q31 19.5 31 62.5 q0 35 -32.5 54 q-32.5 19 -105.5 36 q-26 6 -45 13 q-19 7 -41.5 21 q-22.5 14 -35 37.5 q-12.5 23.5 -12.5 54.5 q0 67 48.5 101.5 q48.5 34.5 118.5 34.5 q50 0 96 -22.5 q46 -22.5 68 -61.5 ZM379 708 l-109 -144 l-80 0 l-109 144 l66 0 l83 -108 l83 108 l66 0 Z" /><glyph glyph-name="uni0162" unicode="&#x162;" d="M321 644 l0 -644 l-72 0 l0 644 l-237 0 l0 64 l546 0 l0 -64 l-237 0 ZM338 -45 l-76 -185 l-57 0 l62 185 l71 0 Z" /><glyph glyph-name="uni0163" unicode="&#x163;" d="M301 468 l0 -57 l-132 0 l0 -273 q0 -49 18 -67.5 q18 -18.5 52 -18.5 q29 0 59 15 l3 -59 q-37 -14 -80 -14 q-48 0 -84 28 q-36 28 -36 97 l0 292 l-97 0 l0 57 l97 0 l0 132 l68 0 l0 -132 l132 0 ZM250 -45 l-76 -185 l-57 0 l62 185 l71 0 Z" /><glyph glyph-name="Tcaron" unicode="&#x164;" d="M321 644 l0 -644 l-72 0 l0 644 l-237 0 l0 64 l546 0 l0 -64 l-237 0 ZM434 908 l-109 -144 l-80 0 l-109 144 l66 0 l83 -108 l83 108 l66 0 Z" /><glyph glyph-name="tcaron" unicode="&#x165;" d="M301 468 l0 -57 l-132 0 l0 -273 q0 -49 18 -67.5 q18 -18.5 52 -18.5 q29 0 59 15 l3 -59 q-37 -14 -80 -14 q-48 0 -84 28 q-36 28 -36 97 l0 292 l-97 0 l0 57 l97 0 l0 132 l68 0 l0 -132 l132 0 ZM358 731 l-76 -185 l-57 0 l62 185 l71 0 Z" /><glyph glyph-name="Tbar" unicode="&#x166;" d="M73 543 l176 0 l0 101 l-237 0 l0 64 l546 0 l0 -64 l-237 0 l0 -101 l166 0 l0 -50 l-166 0 l0 -493 l-72 0 l0 493 l-176 0 l0 50 Z" /><glyph glyph-name="tbar" unicode="&#x167;" d="M12 314 l89 0 l0 97 l-97 0 l0 57 l97 0 l0 132 l68 0 l0 -132 l132 0 l0 -57 l-132 0 l0 -97 l123 0 l0 -50 l-123 0 l0 -126 q0 -49 18 -67.5 q18 -18.5 52 -18.5 q29 0 59 15 l3 -59 q-37 -14 -80 -14 q-48 0 -84 28 q-36 28 -36 97 l0 145 l-89 0 l0 50 Z" /><glyph glyph-name="Utilde" unicode="&#x168;" d="M463.5 0.5 q-47.5 -18.5 -108.5 -18.5 q-61 0 -108.5 18.5 q-47.5 18.5 -76.5 46.5 q-29 28 -47.5 67 q-18.5 39 -25.5 75.5 q-7 36.5 -7 74.5 l0 444 l72 0 l0 -436 q0 -96 46.5 -161 q46.5 -65 146.5 -65 q100 0 146.5 65 q46.5 65 46.5 161 l0 436 l72 0 l0 -444 q0 -38 -7 -74.5 q-7 -36.5 -25.5 -75.5 q-18.5 -39 -47.5 -67 q-29 -28 -76.5 -46.5 ZM236 776 l-43 0 q18 104 92 104 q27 0 73 -23 q50 -23 67 -23 q37 0 49 50 l43 0 q-18 -104 -92 -104 q-29 0 -73 23 q-44 23 -67 23 q-37 0 -49 -50 Z" /><glyph glyph-name="utilde" unicode="&#x169;" d="M495 0 l-65 0 q-4 50 -4 80 l-2 0 q-19 -40 -64.5 -66 q-45.5 -26 -95.5 -26 q-87 0 -132.5 52 q-45.5 52 -45.5 141 l0 287 l68 0 l0 -259 q0 -79 28.5 -121.5 q28.5 -42.5 98.5 -42.5 q59 0 100.5 47.5 q41.5 47.5 41.5 135.5 l0 240 l68 0 l0 -365 q0 -60 4 -103 ZM172 576 l-43 0 q18 104 92 104 q27 0 73 -23 q50 -23 67 -23 q37 0 49 50 l43 0 q-18 -104 -92 -104 q-29 0 -73 23 q-44 23 -67 23 q-37 0 -49 -50 Z" /><glyph glyph-name="Umacron" unicode="&#x16a;" d="M463.5 0.5 q-47.5 -18.5 -108.5 -18.5 q-61 0 -108.5 18.5 q-47.5 18.5 -76.5 46.5 q-29 28 -47.5 67 q-18.5 39 -25.5 75.5 q-7 36.5 -7 74.5 l0 444 l72 0 l0 -436 q0 -96 46.5 -161 q46.5 -65 146.5 -65 q100 0 146.5 65 q46.5 65 46.5 161 l0 436 l72 0 l0 -444 q0 -38 -7 -74.5 q-7 -36.5 -25.5 -75.5 q-18.5 -39 -47.5 -67 q-29 -28 -76.5 -46.5 ZM491 854 l0 -54 l-270 0 l0 54 l270 0 Z" /><glyph glyph-name="umacron" unicode="&#x16b;" d="M495 0 l-65 0 q-4 50 -4 80 l-2 0 q-19 -40 -64.5 -66 q-45.5 -26 -95.5 -26 q-87 0 -132.5 52 q-45.5 52 -45.5 141 l0 287 l68 0 l0 -259 q0 -79 28.5 -121.5 q28.5 -42.5 98.5 -42.5 q59 0 100.5 47.5 q41.5 47.5 41.5 135.5 l0 240 l68 0 l0 -365 q0 -60 4 -103 ZM425 654 l0 -54 l-270 0 l0 54 l270 0 Z" /><glyph glyph-name="Ubreve" unicode="&#x16c;" d="M463.5 0.5 q-47.5 -18.5 -108.5 -18.5 q-61 0 -108.5 18.5 q-47.5 18.5 -76.5 46.5 q-29 28 -47.5 67 q-18.5 39 -25.5 75.5 q-7 36.5 -7 74.5 l0 444 l72 0 l0 -436 q0 -96 46.5 -161 q46.5 -65 146.5 -65 q100 0 146.5 65 q46.5 65 46.5 161 l0 436 l72 0 l0 -444 q0 -38 -7 -74.5 q-7 -36.5 -25.5 -75.5 q-18.5 -39 -47.5 -67 q-29 -28 -76.5 -46.5 ZM458 908 l44 0 q-4 -61 -44.5 -96.5 q-40.5 -35.5 -102.5 -35.5 q-62 0 -102.5 35.5 q-40.5 35.5 -44.5 96.5 l44 0 q6 -38 35 -58 q29 -20 68 -20 q39 0 68 20 q29 20 35 58 Z" /><glyph glyph-name="ubreve" unicode="&#x16d;" d="M495 0 l-65 0 q-4 50 -4 80 l-2 0 q-19 -40 -64.5 -66 q-45.5 -26 -95.5 -26 q-87 0 -132.5 52 q-45.5 52 -45.5 141 l0 287 l68 0 l0 -259 q0 -79 28.5 -121.5 q28.5 -42.5 98.5 -42.5 q59 0 100.5 47.5 q41.5 47.5 41.5 135.5 l0 240 l68 0 l0 -365 q0 -60 4 -103 ZM395 708 l44 0 q-4 -61 -44.5 -96.5 q-40.5 -35.5 -102.5 -35.5 q-62 0 -102.5 35.5 q-40.5 35.5 -44.5 96.5 l44 0 q6 -38 35 -58 q29 -20 68 -20 q39 0 68 20 q29 20 35 58 Z" /><glyph glyph-name="Uring" unicode="&#x16e;" d="M463.5 0.5 q-47.5 -18.5 -108.5 -18.5 q-61 0 -108.5 18.5 q-47.5 18.5 -76.5 46.5 q-29 28 -47.5 67 q-18.5 39 -25.5 75.5 q-7 36.5 -7 74.5 l0 444 l72 0 l0 -436 q0 -96 46.5 -161 q46.5 -65 146.5 -65 q100 0 146.5 65 q46.5 65 46.5 161 l0 436 l72 0 l0 -444 q0 -38 -7 -74.5 q-7 -36.5 -25.5 -75.5 q-18.5 -39 -47.5 -67 q-29 -28 -76.5 -46.5 ZM424.5 917.5 q28.5 -27.5 28.5 -67.5 q0 -40 -28.5 -67.5 q-28.5 -27.5 -67.5 -27.5 q-39 0 -67.5 27.5 q-28.5 27.5 -28.5 67.5 q0 40 28.5 67.5 q28.5 27.5 67.5 27.5 q39 0 67.5 -27.5 ZM399.5 808 q17.5 17 17.5 42 q0 25 -17.5 42 q-17.5 17 -42.5 17 q-25 0 -42.5 -17 q-17.5 -17 -17.5 -42 q0 -25 17.5 -42 q17.5 -17 42.5 -17 q25 0 42.5 17 Z" /><glyph glyph-name="uring" unicode="&#x16f;" d="M495 0 l-65 0 q-4 50 -4 80 l-2 0 q-19 -40 -64.5 -66 q-45.5 -26 -95.5 -26 q-87 0 -132.5 52 q-45.5 52 -45.5 141 l0 287 l68 0 l0 -259 q0 -79 28.5 -121.5 q28.5 -42.5 98.5 -42.5 q59 0 100.5 47.5 q41.5 47.5 41.5 135.5 l0 240 l68 0 l0 -365 q0 -60 4 -103 ZM357.5 717.5 q28.5 -27.5 28.5 -67.5 q0 -40 -28.5 -67.5 q-28.5 -27.5 -67.5 -27.5 q-39 0 -67.5 27.5 q-28.5 27.5 -28.5 67.5 q0 40 28.5 67.5 q28.5 27.5 67.5 27.5 q39 0 67.5 -27.5 ZM332.5 608 q17.5 17 17.5 42 q0 25 -17.5 42 q-17.5 17 -42.5 17 q-25 0 -42.5 -17 q-17.5 -17 -17.5 -42 q0 -25 17.5 -42 q17.5 -17 42.5 -17 q25 0 42.5 17 Z" /><glyph glyph-name="Uhungarumlaut" unicode="&#x170;" d="M463.5 0.5 q-47.5 -18.5 -108.5 -18.5 q-61 0 -108.5 18.5 q-47.5 18.5 -76.5 46.5 q-29 28 -47.5 67 q-18.5 39 -25.5 75.5 q-7 36.5 -7 74.5 l0 444 l72 0 l0 -436 q0 -96 46.5 -161 q46.5 -65 146.5 -65 q100 0 146.5 65 q46.5 65 46.5 161 l0 436 l72 0 l0 -444 q0 -38 -7 -74.5 q-7 -36.5 -25.5 -75.5 q-18.5 -39 -47.5 -67 q-29 -28 -76.5 -46.5 ZM425 908 l-133 -144 l-59 0 l101 144 l91 0 ZM595 908 l-132 -144 l-59 0 l100 144 l91 0 Z" /><glyph glyph-name="uhungarumlaut" unicode="&#x171;" d="M495 0 l-65 0 q-4 50 -4 80 l-2 0 q-19 -40 -64.5 -66 q-45.5 -26 -95.5 -26 q-87 0 -132.5 52 q-45.5 52 -45.5 141 l0 287 l68 0 l0 -259 q0 -79 28.5 -121.5 q28.5 -42.5 98.5 -42.5 q59 0 100.5 47.5 q41.5 47.5 41.5 135.5 l0 240 l68 0 l0 -365 q0 -60 4 -103 ZM362 708 l-133 -144 l-59 0 l101 144 l91 0 ZM532 708 l-132 -144 l-59 0 l100 144 l91 0 Z" /><glyph glyph-name="Uogonek" unicode="&#x172;" d="M355 -18 q-61 0 -108.5 18.5 q-47.5 18.5 -76.5 46.5 q-29 28 -47.5 67 q-18.5 39 -25.5 75.5 q-7 36.5 -7 74.5 l0 444 l72 0 l0 -436 q0 -96 46.5 -161 q46.5 -65 146.5 -65 q100 0 146.5 65 q46.5 65 46.5 161 l0 436 l72 0 l0 -444 q0 -44 -9.5 -85 q-9.5 -41 -31.5 -82 q-22 -41 -64 -70.5 q-42 -29.5 -99 -39.5 q-34 -34 -49 -58.5 q-15 -24.5 -15 -49.5 q0 -21 14.5 -34.5 q14.5 -13.5 35.5 -13.5 q31 0 51 22 l19 -40 q-38 -36 -90 -36 q-36 0 -63 24 q-27 24 -27 61 q0 60 68 120 l-5 0 Z" /><glyph glyph-name="uogonek" unicode="&#x173;" d="M503 -147 l19 -40 q-38 -36 -90 -36 q-36 0 -63 24 q-27 24 -27 61 q0 66 89 138 l-1 0 q-4 50 -4 80 l-2 0 q-19 -40 -64.5 -66 q-45.5 -26 -95.5 -26 q-87 0 -132.5 52 q-45.5 52 -45.5 141 l0 287 l68 0 l0 -259 q0 -79 28.5 -121.5 q28.5 -42.5 98.5 -42.5 q59 0 100.5 47.5 q41.5 47.5 41.5 135.5 l0 240 l68 0 l0 -365 q0 -60 4 -103 l-16 0 q-41 -41 -59 -67.5 q-18 -26.5 -18 -53.5 q0 -21 14.5 -34.5 q14.5 -13.5 35.5 -13.5 q31 0 51 22 Z" /><glyph glyph-name="Wcircumflex" unicode="&#x174;" d="M90 708 l175 -609 l2 0 l177 609 l86 0 l177 -609 l2 0 l173 609 l76 0 l-209 -708 l-84 0 l-178 608 l-2 0 l-178 -608 l-84 0 l-209 708 l76 0 ZM526 908 l109 -144 l-66 0 l-83 108 l-83 -108 l-66 0 l109 144 l80 0 Z" /><glyph glyph-name="wcircumflex" unicode="&#x175;" d="M26 468 l73 0 l113 -380 l2 0 l126 380 l66 0 l128 -380 l2 0 l112 380 l72 0 l-148 -468 l-74 0 l-125 379 l-2 0 l-123 -379 l-74 0 l-148 468 ZM412 708 l109 -144 l-66 0 l-83 108 l-83 -108 l-66 0 l109 144 l80 0 Z" /><glyph glyph-name="Ycircumflex" unicode="&#x176;" d="M337 305 l0 -305 l-72 0 l0 305 l-265 403 l90 0 l213 -343 l215 343 l84 0 l-265 -403 ZM343 908 l109 -144 l-66 0 l-83 108 l-83 -108 l-66 0 l109 144 l80 0 Z" /><glyph glyph-name="ycircumflex" unicode="&#x177;" d="M92 468 l159 -395 l2 0 l145 395 l74 0 l-233 -589 q-23 -59 -56.5 -89 q-33.5 -30 -90.5 -30 q-31 0 -61 6 l7 62 q24 -8 50 -8 q33 0 53.5 20.5 q20.5 20.5 36.5 62.5 l38 98 l-200 467 l76 0 ZM292 708 l109 -144 l-66 0 l-83 108 l-83 -108 l-66 0 l109 144 l80 0 Z" /><glyph glyph-name="Ydieresis" unicode="&#x178;" d="M337 305 l0 -305 l-72 0 l0 305 l-265 403 l90 0 l213 -343 l215 343 l84 0 l-265 -403 ZM170.5 811.5 q-14.5 15.5 -14.5 35.5 q0 20 14.5 35.5 q14.5 15.5 36.5 15.5 q22 0 36.5 -15.5 q14.5 -15.5 14.5 -35.5 q0 -20 -14.5 -35.5 q-14.5 -15.5 -36.5 -15.5 q-22 0 -36.5 15.5 ZM362.5 811.5 q-14.5 15.5 -14.5 35.5 q0 20 14.5 35.5 q14.5 15.5 36.5 15.5 q22 0 36.5 -15.5 q14.5 -15.5 14.5 -35.5 q0 -20 -14.5 -35.5 q-14.5 -15.5 -36.5 -15.5 q-22 0 -36.5 15.5 Z" /><glyph glyph-name="Zacute" unicode="&#x179;" d="M535 708 l0 -60 l-413 -584 l419 0 l0 -64 l-510 0 l0 60 l414 584 l-403 0 l0 64 l493 0 ZM431 908 l-132 -144 l-59 0 l100 144 l91 0 Z" /><glyph glyph-name="zacute" unicode="&#x17a;" d="M401 468 l0 -48 l-280 -361 l290 0 l0 -59 l-380 0 l0 48 l279 363 l-265 0 l0 57 l356 0 ZM373 708 l-132 -144 l-59 0 l100 144 l91 0 Z" /><glyph glyph-name="Zdotaccent" unicode="&#x17b;" d="M535 708 l0 -60 l-413 -584 l419 0 l0 -64 l-510 0 l0 60 l414 584 l-403 0 l0 64 l493 0 ZM318.5 882 q14.5 -14 14.5 -34 q0 -20 -14.5 -34 q-14.5 -14 -33.5 -14 q-19 0 -33.5 14 q-14.5 14 -14.5 34 q0 20 14.5 34 q14.5 14 33.5 14 q19 0 33.5 -14 Z" /><glyph glyph-name="zdotaccent" unicode="&#x17c;" d="M401 468 l0 -48 l-280 -361 l290 0 l0 -59 l-380 0 l0 48 l279 363 l-265 0 l0 57 l356 0 ZM255.5 682 q14.5 -14 14.5 -34 q0 -20 -14.5 -34 q-14.5 -14 -33.5 -14 q-19 0 -33.5 14 q-14.5 14 -14.5 34 q0 20 14.5 34 q14.5 14 33.5 14 q19 0 33.5 -14 Z" /><glyph glyph-name="Zcaron" unicode="&#x17d;" d="M535 708 l0 -60 l-413 -584 l419 0 l0 -64 l-510 0 l0 60 l414 584 l-403 0 l0 64 l493 0 ZM436 908 l-109 -144 l-80 0 l-109 144 l66 0 l83 -108 l83 108 l66 0 Z" /><glyph glyph-name="zcaron" unicode="&#x17e;" d="M401 468 l0 -48 l-280 -361 l290 0 l0 -59 l-380 0 l0 48 l279 363 l-265 0 l0 57 l356 0 ZM374 708 l-109 -144 l-80 0 l-109 144 l66 0 l83 -108 l83 108 l66 0 Z" /><glyph glyph-name="florin" unicode="&#x192;" d="M442 419 l0 -54 l-119 0 l-67 -352 q-13 -67 -47.5 -109.5 q-34.5 -42.5 -107.5 -42.5 q-47 0 -78 18 l27 55 q24 -13 53 -13 q42 0 59.5 28.5 q17.5 28.5 26.5 77.5 l63 338 l-108 0 l0 54 l119 0 l27 144 q29 157 152 157 q55 0 95 -29 l-34 -48 q-24 17 -57 17 q-71 0 -90 -116 l-22 -125 l108 0 Z" /><glyph glyph-name="Scommaaccent" unicode="&#x218;" d="M494 640 l-57 -46 q-50 71 -146 71 q-59 0 -105 -35 q-46 -35 -46 -98 q0 -26 9.5 -47 q9.5 -21 20.5 -33 q11 -12 36.5 -25 q25.5 -13 40 -18 q14.5 -5 47.5 -16 q34 -11 44.5 -14.5 q10.5 -3.5 40 -15.5 q29.5 -12 41 -20.5 q11.5 -8.5 32 -25.5 q20.5 -17 29 -34 q8.5 -17 16 -42 q7.5 -25 7.5 -55 q0 -99 -69 -151.5 q-69 -52.5 -162 -52.5 q-67 0 -126.5 27 q-59.5 27 -96.5 78 l62 46 q25 -40 67 -64.5 q42 -24.5 95 -24.5 q61 0 109 36.5 q48 36.5 48 100.5 q0 29 -10.5 51.5 q-10.5 22.5 -23.5 36.5 q-13 14 -40.5 27.5 q-27.5 13.5 -45 19.5 q-17.5 6 -53.5 17 q-42 13 -70.5 26 q-28.5 13 -58.5 35 q-30 22 -45.5 56.5 q-15.5 34.5 -15.5 80.5 q0 65 35.5 110.5 q35.5 45.5 85 65 q49.5 19.5 105.5 19.5 q67 0 120 -24.5 q53 -24.5 80 -61.5 ZM338 -45 l-76 -185 l-57 0 l62 185 l71 0 Z" /><glyph glyph-name="scommaaccent" unicode="&#x219;" d="M391 396 l-52 -39 q-15 30 -46 48 q-31 18 -69 18 q-41 0 -70 -18.5 q-29 -18.5 -29 -54.5 q0 -32 26 -50 q26 -18 86 -30 q83 -17 122.5 -50 q39.5 -33 39.5 -87 q0 -74 -51.5 -109.5 q-51.5 -35.5 -124.5 -35.5 q-123 0 -185 91 l54 40 q19 -32 54.5 -52.5 q35.5 -20.5 75.5 -20.5 q48 0 79 19.5 q31 19.5 31 62.5 q0 35 -32.5 54 q-32.5 19 -105.5 36 q-26 6 -45 13 q-19 7 -41.5 21 q-22.5 14 -35 37.5 q-12.5 23.5 -12.5 54.5 q0 67 48.5 101.5 q48.5 34.5 118.5 34.5 q50 0 96 -22.5 q46 -22.5 68 -61.5 ZM273 -45 l-76 -185 l-57 0 l62 185 l71 0 Z" /><glyph glyph-name="uni021A" unicode="&#x21a;" d="M321 644 l0 -644 l-72 0 l0 644 l-237 0 l0 64 l546 0 l0 -64 l-237 0 ZM338 -45 l-76 -185 l-57 0 l62 185 l71 0 Z" /><glyph glyph-name="uni021B" unicode="&#x21b;" d="M301 468 l0 -57 l-132 0 l0 -273 q0 -49 18 -67.5 q18 -18.5 52 -18.5 q29 0 59 15 l3 -59 q-37 -14 -80 -14 q-48 0 -84 28 q-36 28 -36 97 l0 292 l-97 0 l0 57 l97 0 l0 132 l68 0 l0 -132 l132 0 ZM250 -45 l-76 -185 l-57 0 l62 185 l71 0 Z" /><glyph glyph-name="dotlessj" unicode="&#x237;" d="M-27 -233 l10 57 q20 -6 43 -6 q40 0 53 25 q13 25 13 75 l0 550 l68 0 l0 -561 q0 -147 -133 -147 q-30 0 -54 7 Z" /><glyph glyph-name="circumflex" unicode="&#x2c6;" d="M160 708 l109 -144 l-66 0 l-83 108 l-83 -108 l-66 0 l109 144 l80 0 Z" /><glyph glyph-name="caron" unicode="&#x2c7;" d="M269 708 l-109 -144 l-80 0 l-109 144 l66 0 l83 -108 l83 108 l66 0 Z" /><glyph glyph-name="uni02C9" unicode="&#x2c9;" d="M255 854 l0 -54 l-270 0 l0 54 l270 0 Z" /><glyph glyph-name="breve" unicode="&#x2d8;" d="M223 708 l44 0 q-4 -61 -44.5 -96.5 q-40.5 -35.5 -102.5 -35.5 q-62 0 -102.5 35.5 q-40.5 35.5 -44.5 96.5 l44 0 q6 -38 35 -58 q29 -20 68 -20 q39 0 68 20 q29 20 35 58 Z" /><glyph glyph-name="dotaccent" unicode="&#x2d9;" d="M153.5 682 q14.5 -14 14.5 -34 q0 -20 -14.5 -34 q-14.5 -14 -33.5 -14 q-19 0 -33.5 14 q-14.5 14 -14.5 34 q0 20 14.5 34 q14.5 14 33.5 14 q19 0 33.5 -14 Z" /><glyph glyph-name="ring" unicode="&#x2da;" d="M187.5 717.5 q28.5 -27.5 28.5 -67.5 q0 -40 -28.5 -67.5 q-28.5 -27.5 -67.5 -27.5 q-39 0 -67.5 27.5 q-28.5 27.5 -28.5 67.5 q0 40 28.5 67.5 q28.5 27.5 67.5 27.5 q39 0 67.5 -27.5 ZM162.5 608 q17.5 17 17.5 42 q0 25 -17.5 42 q-17.5 17 -42.5 17 q-25 0 -42.5 -17 q-17.5 -17 -17.5 -42 q0 -25 17.5 -42 q17.5 -17 42.5 -17 q25 0 42.5 17 Z" /><glyph glyph-name="ogonek" unicode="&#x2db;" d="M191 -147 l19 -40 q-38 -36 -90 -36 q-36 0 -63 24 q-27 24 -27 61 q0 66 89 138 l48 0 q-41 -41 -59 -67.5 q-18 -26.5 -18 -53.5 q0 -21 14.5 -34.5 q14.5 -13.5 35.5 -13.5 q31 0 51 22 Z" /><glyph glyph-name="tilde" unicode="&#x2dc;" d="M1 576 l-43 0 q18 104 92 104 q27 0 73 -23 q50 -23 67 -23 q37 0 49 50 l43 0 q-18 -104 -92 -104 q-29 0 -73 23 q-44 23 -67 23 q-37 0 -49 -50 Z" /><glyph glyph-name="hungarumlaut" unicode="&#x2dd;" d="M131 708 l-133 -144 l-59 0 l101 144 l91 0 ZM301 708 l-132 -144 l-59 0 l100 144 l91 0 Z" /><glyph glyph-name="uni0394" unicode="&#x394;" d="M673 0 l-648 0 l0 49 l290 659 l70 0 l288 -659 l0 -49 ZM587 65 l-239 562 l-238 -562 l477 0 Z" /><glyph glyph-name="uni03A9" unicode="&#x3a9;" d="M387 663 q-118 0 -184.5 -73.5 q-66.5 -73.5 -66.5 -183.5 q0 -99 51.5 -164 q51.5 -65 139.5 -87 l0 -155 l-260 0 l0 60 l202 0 l0 46 q-98 31 -153.5 110.5 q-55.5 79.5 -55.5 188.5 q0 147 94 234 q94 87 233 87 q141 0 233.5 -88 q92.5 -88 92.5 -233 q0 -109 -55 -188.5 q-55 -79.5 -154 -110.5 l0 -46 l202 0 l0 -60 l-260 0 l0 155 q90 22 140.5 87.5 q50.5 65.5 50.5 163.5 q0 108 -65.5 182.5 q-65.5 74.5 -184.5 74.5 Z" /><glyph glyph-name="uni03BC" unicode="&#x3bc;" d="M90 468 l68 0 l0 -262 q0 -161 124 -161 q69 0 107 52 q38 52 38 128 l0 243 l68 0 l0 -373 q0 -23 5.5 -33 q5.5 -10 22.5 -10 q13 0 26 5 l3 -56 q-23 -7 -45 -7 q-73 0 -75 86 l-2 0 q-20 -41 -65 -66.5 q-45 -25.5 -94 -25.5 q-80 0 -111 48 l-2 0 l0 -276 l-68 0 l0 708 Z" /><glyph glyph-name="pi" unicode="&#x3c0;" d="M476 408 l0 -295 q0 -61 50 -61 q17 0 37 5 l3 -56 q-28 -7 -50 -7 q-65 0 -86 29.5 q-21 29.5 -21 95.5 l0 289 l-183 0 l-62 -408 l-68 0 l65 408 l-121 0 l0 60 l556 0 l0 -60 l-120 0 Z" /><glyph glyph-name="uni0400" unicode="&#x400;" d="M94 0 l0 708 l439 0 l0 -64 l-367 0 l0 -244 l343 0 l0 -63 l-343 0 l0 -273 l379 0 l0 -64 l-451 0 ZM316 764 l-132 144 l91 0 l100 -144 l-59 0 Z" /><glyph glyph-name="uni0401" unicode="&#x401;" d="M94 0 l0 708 l439 0 l0 -64 l-367 0 l0 -244 l343 0 l0 -63 l-343 0 l0 -273 l379 0 l0 -64 l-451 0 ZM183.5 811.5 q-14.5 15.5 -14.5 35.5 q0 20 14.5 35.5 q14.5 15.5 36.5 15.5 q22 0 36.5 -15.5 q14.5 -15.5 14.5 -35.5 q0 -20 -14.5 -35.5 q-14.5 -15.5 -36.5 -15.5 q-22 0 -36.5 15.5 ZM375.5 811.5 q-14.5 15.5 -14.5 35.5 q0 20 14.5 35.5 q14.5 15.5 36.5 15.5 q22 0 36.5 -15.5 q14.5 -15.5 14.5 -35.5 q0 -20 -14.5 -35.5 q-14.5 -15.5 -36.5 -15.5 q-22 0 -36.5 15.5 Z" /><glyph glyph-name="uni0402" unicode="&#x402;" d="M498 -9 q-45 0 -83 8 l11 63 q30 -7 66 -7 q88 0 136 36.5 q48 36.5 48 109.5 q0 73 -48.5 112.5 q-48.5 39.5 -143.5 39.5 q-104 0 -163 -24 l0 -329 l-72 0 l0 644 l-237 0 l0 64 l546 0 l0 -64 l-237 0 l0 -251 q77 22 167 22 q122 0 191.5 -54.5 q69.5 -54.5 69.5 -158.5 q0 -104 -67.5 -157.5 q-67.5 -53.5 -183.5 -53.5 Z" /><glyph glyph-name="uni0403" unicode="&#x403;" d="M94 0 l0 708 l402 0 l0 -64 l-330 0 l0 -644 l-72 0 ZM439 908 l-132 -144 l-59 0 l100 144 l91 0 Z" /><glyph glyph-name="uni0404" unicode="&#x404;" d="M425 -18 q-160 0 -264.5 105.5 q-104.5 105.5 -104.5 266.5 q0 161 105 266.5 q105 105.5 264 105.5 q78 0 146.5 -30.5 q68.5 -30.5 105.5 -81.5 l-60 -44 q-25 38 -76.5 65.5 q-51.5 27.5 -114.5 27.5 q-120 0 -198 -75 q-78 -75 -93 -188 l355 0 l0 -63 l-357 0 q5 -123 85.5 -207.5 q80.5 -84.5 207.5 -84.5 q138 0 208 105 l56 -36 q-38 -58 -106.5 -95 q-68.5 -37 -158.5 -37 Z" /><glyph glyph-name="uni0405" unicode="&#x405;" d="M273 -18 q-67 0 -126.5 27 q-59.5 27 -96.5 78 l62 46 q25 -40 67 -64.5 q42 -24.5 95 -24.5 q61 0 109 36.5 q48 36.5 48 100.5 q0 29 -10.5 51.5 q-10.5 22.5 -23.5 36.5 q-13 14 -40.5 27.5 q-27.5 13.5 -45 19.5 q-17.5 6 -53.5 17 q-42 13 -70.5 26 q-28.5 13 -58.5 35 q-30 22 -45.5 56.5 q-15.5 34.5 -15.5 80.5 q0 65 35.5 110.5 q35.5 45.5 85 65 q49.5 19.5 105.5 19.5 q67 0 120 -24.5 q53 -24.5 80 -61.5 l-57 -46 q-50 71 -146 71 q-59 0 -105 -35 q-46 -35 -46 -98 q0 -26 9.5 -47 q9.5 -21 20.5 -33 q11 -12 36.5 -25 q25.5 -13 40 -18 q14.5 -5 47.5 -16 q34 -11 44.5 -14.5 q10.5 -3.5 40 -15.5 q29.5 -12 41 -20.5 q11.5 -8.5 32 -25.5 q20.5 -17 29 -34 q8.5 -17 16 -42 q7.5 -25 7.5 -55 q0 -99 -69 -151.5 q-69 -52.5 -162 -52.5 Z" /><glyph glyph-name="uni0406" unicode="&#x406;" d="M94 0 l0 708 l72 0 l0 -708 l-72 0 Z" /><glyph glyph-name="uni0407" unicode="&#x407;" d="M94 0 l0 708 l72 0 l0 -708 l-72 0 ZM-2.5 811.5 q-14.5 15.5 -14.5 35.5 q0 20 14.5 35.5 q14.5 15.5 36.5 15.5 q22 0 36.5 -15.5 q14.5 -15.5 14.5 -35.5 q0 -20 -14.5 -35.5 q-14.5 -15.5 -36.5 -15.5 q-22 0 -36.5 15.5 ZM189.5 811.5 q-14.5 15.5 -14.5 35.5 q0 20 14.5 35.5 q14.5 15.5 36.5 15.5 q22 0 36.5 -15.5 q14.5 -15.5 14.5 -35.5 q0 -20 -14.5 -35.5 q-14.5 -15.5 -36.5 -15.5 q-22 0 -36.5 15.5 Z" /><glyph glyph-name="uni0408" unicode="&#x408;" d="M215 -18 q-75 0 -126 40 q-51 40 -64 104 l67 18 q9 -43 39.5 -71 q30.5 -28 75.5 -28 q125 0 125 164 l0 499 l72 0 l0 -504 q0 -30 -4.5 -58.5 q-4.5 -28.5 -17.5 -59 q-13 -30.5 -33.5 -53 q-20.5 -22.5 -54.5 -37 q-34 -14.5 -79 -14.5 Z" /><glyph glyph-name="uni0409" unicode="&#x409;" d="M69 -7 q-36 0 -68 9 l13 65 q26 -8 43 -8 q61 0 96.5 48 q35.5 48 52 155.5 q16.5 107.5 16.5 292.5 l0 153 l424 0 l0 -307 l124 0 q117 0 186 -51.5 q69 -51.5 69 -149.5 q0 -98 -67.5 -149 q-67.5 -51 -185.5 -51 l-198 0 l0 645 l-282 0 l0 -126 q0 -271 -50 -398.5 q-50 -127.5 -173 -127.5 ZM646 62 l118 0 q188 0 188 137 q0 68 -48.5 104 q-48.5 36 -139.5 36 l-118 0 l0 -277 Z" /><glyph glyph-name="uni040A" unicode="&#x40a;" d="M94 0 l0 708 l72 0 l0 -307 l386 0 l0 307 l72 0 l0 -307 l124 0 q117 0 186 -51.5 q69 -51.5 69 -149.5 q0 -98 -67.5 -149 q-67.5 -51 -185.5 -51 l-198 0 l0 339 l-386 0 l0 -339 l-72 0 ZM624 62 l118 0 q188 0 188 137 q0 68 -48.5 104 q-48.5 36 -139.5 36 l-118 0 l0 -277 Z" /><glyph glyph-name="uni040B" unicode="&#x40b;" d="M249 0 l0 644 l-237 0 l0 64 l546 0 l0 -64 l-237 0 l0 -251 q77 22 164 22 q117 0 173 -47 q56 -47 56 -144 l0 -224 l-72 0 l0 217 q0 134 -154 134 q-113 0 -167 -22 l0 -329 l-72 0 Z" /><glyph glyph-name="uni040C" unicode="&#x40c;" d="M94 0 l0 708 l72 0 l0 -318 l1 0 l337 318 l103 0 l-357 -321 l377 -387 l-106 0 l-354 377 l-1 0 l0 -377 l-72 0 ZM479 908 l-132 -144 l-59 0 l100 144 l91 0 Z" /><glyph glyph-name="uni040D" unicode="&#x40d;" d="M94 0 l0 708 l72 0 l0 -596 l2 0 l390 596 l81 0 l0 -708 l-72 0 l0 602 l-2 0 l-390 -602 l-81 0 ZM356 764 l-132 144 l91 0 l100 -144 l-59 0 Z" /><glyph glyph-name="uni040E" unicode="&#x40e;" d="M128 -8 q-34 0 -63 6 l11 68 q22 -8 51 -8 q34 0 57.5 19 q23.5 19 46.5 60 l47 87 l-275 484 l84 0 l231 -411 l225 411 l79 0 l-329 -595 q-34 -60 -71 -90.5 q-37 -30.5 -94 -30.5 ZM417.5 810.5 q-39.5 -34.5 -100.5 -34.5 q-61 0 -100.5 34.5 q-39.5 34.5 -45.5 93.5 l46 9 q7 -38 34.5 -60.5 q27.5 -22.5 65.5 -22.5 q38 0 65.5 22.5 q27.5 22.5 34.5 60.5 l46 -9 q-6 -59 -45.5 -93.5 Z" /><glyph glyph-name="uni040F" unicode="&#x40f;" d="M325 -174 l0 174 l-231 0 l0 708 l72 0 l0 -644 l386 0 l0 644 l72 0 l0 -708 l-231 0 l0 -174 l-68 0 Z" /><glyph glyph-name="uni0410" unicode="&#x410;" d="M10 0 l306 708 l70 0 l304 -708 l-80 0 l-78 186 l-366 0 l-77 -186 l-79 0 ZM193 252 l312 0 l-156 376 l-156 -376 Z" /><glyph glyph-name="uni0411" unicode="&#x411;" d="M94 0 l0 708 l421 0 l0 -64 l-349 0 l0 -243 l141 0 q117 0 186 -51.5 q69 -51.5 69 -149.5 q0 -98 -67.5 -149 q-67.5 -51 -185.5 -51 l-215 0 ZM166 62 l135 0 q188 0 188 137 q0 68 -48.5 104 q-48.5 36 -139.5 36 l-135 0 l0 -277 Z" /><glyph glyph-name="uni0412" unicode="&#x412;" d="M94 0 l0 708 l211 0 q44 0 82 -8.5 q38 -8.5 72 -28 q34 -19.5 54 -56.5 q20 -37 20 -88 q0 -56 -34.5 -97.5 q-34.5 -41.5 -90.5 -54.5 l0 -2 q71 -8 115.5 -55 q44.5 -47 44.5 -122 q0 -89 -71 -142.5 q-71 -53.5 -193 -53.5 l-210 0 ZM166 62 l134 0 q85 0 140 34 q55 34 55 104 q0 69 -47 104 q-47 35 -135 35 l-147 0 l0 -277 ZM166 398 l145 0 q61 0 105.5 30 q44.5 30 44.5 94 q0 64 -47 94 q-47 30 -123 30 l-125 0 l0 -248 Z" /><glyph glyph-name="uni0413" unicode="&#x413;" d="M94 0 l0 708 l402 0 l0 -64 l-330 0 l0 -644 l-72 0 Z" /><glyph glyph-name="uni0414" unicode="&#x414;" d="M16 -174 l0 238 l57 0 q124 129 124 452 l0 192 l435 0 l0 -644 l80 0 l0 -238 l-68 0 l0 174 l-560 0 l0 -174 l-68 0 ZM164 64 l396 0 l0 580 l-293 0 l0 -128 q0 -313 -103 -452 Z" /><glyph glyph-name="uni0415" unicode="&#x415;" d="M94 0 l0 708 l439 0 l0 -64 l-367 0 l0 -244 l343 0 l0 -63 l-343 0 l0 -273 l379 0 l0 -64 l-451 0 Z" /><glyph glyph-name="uni0416" unicode="&#x416;" d="M1 0 l364 387 l-344 321 l103 0 l324 -318 l1 0 l0 318 l72 0 l0 -318 l1 0 l324 318 l103 0 l-344 -321 l364 -387 l-106 0 l-341 377 l-1 0 l0 -377 l-72 0 l0 377 l-1 0 l-341 -377 l-106 0 Z" /><glyph glyph-name="uni0417" unicode="&#x417;" d="M266 -18 q-70 0 -133 27 q-63 27 -103 78 l62 46 q25 -39 71.5 -64 q46.5 -25 103.5 -25 q69 0 121.5 42 q52.5 42 52.5 110 q0 74 -57 108.5 q-57 34.5 -140 34.5 l-41 0 l0 62 l41 0 q79 0 127 33 q48 33 48 104 q0 53 -46 90 q-46 37 -107 37 q-102 0 -153 -71 l-55 45 q28 38 81 62.5 q53 24.5 124 24.5 q102 0 163 -50 q61 -50 61 -141 q0 -61 -35.5 -104 q-35.5 -43 -92.5 -58 l0 -2 q67 -13 111 -60 q44 -47 44 -115 q0 -98 -72 -156 q-72 -58 -176 -58 Z" /><glyph glyph-name="uni0418" unicode="&#x418;" d="M94 0 l0 708 l72 0 l0 -596 l2 0 l390 596 l81 0 l0 -708 l-72 0 l0 602 l-2 0 l-390 -602 l-81 0 Z" /><glyph glyph-name="uni0419" unicode="&#x419;" d="M94 0 l0 708 l72 0 l0 -596 l2 0 l390 596 l81 0 l0 -708 l-72 0 l0 602 l-2 0 l-390 -602 l-81 0 ZM466.5 810.5 q-39.5 -34.5 -100.5 -34.5 q-61 0 -100.5 34.5 q-39.5 34.5 -45.5 93.5 l46 9 q7 -38 34.5 -60.5 q27.5 -22.5 65.5 -22.5 q38 0 65.5 22.5 q27.5 22.5 34.5 60.5 l46 -9 q-6 -59 -45.5 -93.5 Z" /><glyph glyph-name="uni041A" unicode="&#x41a;" d="M94 0 l0 708 l72 0 l0 -318 l1 0 l337 318 l103 0 l-357 -321 l377 -387 l-106 0 l-354 377 l-1 0 l0 -377 l-72 0 Z" /><glyph glyph-name="uni041B" unicode="&#x41b;" d="M69 -7 q-36 0 -68 9 l13 65 q26 -8 43 -8 q61 0 96.5 48 q35.5 48 52 155.5 q16.5 107.5 16.5 292.5 l0 153 l424 0 l0 -708 l-72 0 l0 645 l-282 0 l0 -126 q0 -271 -50 -398.5 q-50 -127.5 -173 -127.5 Z" /><glyph glyph-name="uni041C" unicode="&#x41c;" d="M94 0 l0 708 l110 0 l240 -586 l1 0 l237 586 l110 0 l0 -708 l-72 0 l0 615 l-2 0 l-256 -615 l-38 0 l-256 615 l-2 0 l0 -615 l-72 0 Z" /><glyph glyph-name="uni041D" unicode="&#x41d;" d="M94 0 l0 708 l72 0 l0 -307 l386 0 l0 307 l72 0 l0 -708 l-72 0 l0 335 l-386 0 l0 -335 l-72 0 Z" /><glyph glyph-name="uni041E" unicode="&#x41e;" d="M689 87.5 q-105 -105.5 -264 -105.5 q-159 0 -264 105.5 q-105 105.5 -105 266.5 q0 161 105 266.5 q105 105.5 264 105.5 q159 0 264 -105.5 q105 -105.5 105 -266.5 q0 -161 -105 -266.5 ZM212.5 135.5 q80.5 -89.5 212.5 -89.5 q132 0 212.5 89.5 q80.5 89.5 80.5 218.5 q0 129 -80.5 219 q-80.5 90 -212.5 90 q-132 0 -212.5 -90 q-80.5 -90 -80.5 -219 q0 -129 80.5 -218.5 Z" /><glyph glyph-name="uni041F" unicode="&#x41f;" d="M94 0 l0 708 l530 0 l0 -708 l-72 0 l0 644 l-386 0 l0 -644 l-72 0 Z" /><glyph glyph-name="uni0420" unicode="&#x420;" d="M94 0 l0 708 l200 0 q111 0 175 -48 q64 -48 64 -141 q0 -93 -65 -141.5 q-65 -48.5 -176 -48.5 l-126 0 l0 -329 l-72 0 ZM166 390 l122 0 q84 0 128.5 33 q44.5 33 44.5 96 q0 127 -173 127 l-122 0 l0 -256 Z" /><glyph glyph-name="uni0421" unicode="&#x421;" d="M425 -18 q-160 0 -264.5 105.5 q-104.5 105.5 -104.5 266.5 q0 161 105 266.5 q105 105.5 264 105.5 q78 0 146.5 -30.5 q68.5 -30.5 105.5 -81.5 l-60 -44 q-25 38 -76.5 65.5 q-51.5 27.5 -114.5 27.5 q-133 0 -213.5 -90 q-80.5 -90 -80.5 -219 q0 -129 81 -219 q81 -90 213 -90 q138 0 208 105 l56 -36 q-38 -58 -106.5 -95 q-68.5 -37 -158.5 -37 Z" /><glyph glyph-name="uni0422" unicode="&#x422;" d="M249 0 l0 644 l-237 0 l0 64 l546 0 l0 -64 l-237 0 l0 -644 l-72 0 Z" /><glyph glyph-name="uni0423" unicode="&#x423;" d="M128 -8 q-34 0 -63 6 l11 68 q22 -8 51 -8 q34 0 57.5 19 q23.5 19 46.5 60 l47 87 l-275 484 l84 0 l231 -411 l225 411 l79 0 l-329 -595 q-34 -60 -71 -90.5 q-37 -30.5 -94 -30.5 Z" /><glyph glyph-name="uni0424" unicode="&#x424;" d="M384 -19 l0 85 q-152 2 -243 85 q-91 83 -91 214 q0 134 92.5 214 q92.5 80 241.5 84 l0 63 l72 0 l0 -63 q149 -4 241.5 -84 q92.5 -80 92.5 -214 q0 -131 -91 -214 q-91 -83 -243 -85 l0 -85 l-72 0 ZM384 129 l0 471 q-122 -4 -190 -69.5 q-68 -65.5 -68 -166.5 q0 -104 66.5 -166 q66.5 -62 191.5 -69 ZM456 129 q125 7 191.5 69 q66.5 62 66.5 166 q0 101 -68 166.5 q-68 65.5 -190 69.5 l0 -471 Z" /><glyph glyph-name="uni0425" unicode="&#x425;" d="M19 0 l260 372 l-237 336 l90 0 l194 -286 l193 286 l86 0 l-235 -337 l260 -371 l-90 0 l-216 319 l-215 -319 l-90 0 Z" /><glyph glyph-name="uni0426" unicode="&#x426;" d="M636 -174 l0 174 l-542 0 l0 708 l72 0 l0 -644 l386 0 l0 644 l72 0 l0 -644 l80 0 l0 -238 l-68 0 Z" /><glyph glyph-name="uni0427" unicode="&#x427;" d="M474 0 l0 295 q-77 -22 -164 -22 q-117 0 -173 47 q-56 47 -56 144 l0 244 l72 0 l0 -237 q0 -134 154 -134 q113 0 167 22 l0 349 l72 0 l0 -708 l-72 0 Z" /><glyph glyph-name="uni0428" unicode="&#x428;" d="M94 0 l0 708 l72 0 l0 -644 l323 0 l0 644 l72 0 l0 -644 l323 0 l0 644 l72 0 l0 -708 l-862 0 Z" /><glyph glyph-name="uni0429" unicode="&#x429;" d="M968 -174 l0 174 l-874 0 l0 708 l72 0 l0 -644 l323 0 l0 644 l72 0 l0 -644 l323 0 l0 644 l72 0 l0 -644 l80 0 l0 -238 l-68 0 Z" /><glyph glyph-name="uni042A" unicode="&#x42a;" d="M194 0 l0 644 l-182 0 l0 64 l254 0 l0 -307 l124 0 q117 0 186 -51.5 q69 -51.5 69 -149.5 q0 -98 -67.5 -149 q-67.5 -51 -185.5 -51 l-198 0 ZM266 62 l118 0 q188 0 188 137 q0 68 -48.5 104 q-48.5 36 -139.5 36 l-118 0 l0 -277 Z" /><glyph glyph-name="uni042B" unicode="&#x42b;" d="M94 0 l0 708 l72 0 l0 -307 l124 0 q117 0 186 -51.5 q69 -51.5 69 -149.5 q0 -98 -67.5 -149 q-67.5 -51 -185.5 -51 l-198 0 ZM166 62 l118 0 q188 0 188 137 q0 68 -48.5 104 q-48.5 36 -139.5 36 l-118 0 l0 -277 ZM652 0 l0 708 l72 0 l0 -708 l-72 0 Z" /><glyph glyph-name="uni042C" unicode="&#x42c;" d="M94 0 l0 708 l72 0 l0 -307 l124 0 q117 0 186 -51.5 q69 -51.5 69 -149.5 q0 -98 -67.5 -149 q-67.5 -51 -185.5 -51 l-198 0 ZM166 62 l118 0 q188 0 188 137 q0 68 -48.5 104 q-48.5 36 -139.5 36 l-118 0 l0 -277 Z" /><glyph glyph-name="uni042D" unicode="&#x42d;" d="M295 -18 q-90 0 -158.5 37 q-68.5 37 -106.5 95 l56 36 q70 -105 208 -105 q127 0 207.5 84.5 q80.5 84.5 85.5 207.5 l-357 0 l0 63 l355 0 q-15 113 -93 188 q-78 75 -198 75 q-63 0 -114.5 -27.5 q-51.5 -27.5 -76.5 -65.5 l-60 44 q37 51 105.5 81.5 q68.5 30.5 146.5 30.5 q159 0 264 -105.5 q105 -105.5 105 -266.5 q0 -161 -104.5 -266.5 q-104.5 -105.5 -264.5 -105.5 Z" /><glyph glyph-name="uni042E" unicode="&#x42e;" d="M662 -18 q-147 0 -241.5 101 q-94.5 101 -100.5 254 l-154 0 l0 -337 l-72 0 l0 708 l72 0 l0 -308 l156 0 q15 142 108 234 q93 92 232 92 q151 0 246.5 -106.5 q95.5 -106.5 95.5 -265.5 q0 -159 -95.5 -265.5 q-95.5 -106.5 -246.5 -106.5 ZM662 46 q122 0 194 90.5 q72 90.5 72 217.5 q0 127 -72 218 q-72 91 -194 91 q-123 0 -194.5 -91 q-71.5 -91 -71.5 -218 q0 -127 71.5 -217.5 q71.5 -90.5 194.5 -90.5 Z" /><glyph glyph-name="uni042F" unicode="&#x42f;" d="M39 0 l192 313 q-83 15 -129.5 64.5 q-46.5 49.5 -46.5 130.5 q0 98 67.5 149 q67.5 51 185.5 51 l198 0 l0 -708 l-72 0 l0 307 l-125 0 l-182 -307 l-88 0 ZM316 369 l118 0 l0 277 l-118 0 q-188 0 -188 -137 q0 -68 48.5 -104 q48.5 -36 139.5 -36 Z" /><glyph glyph-name="uni0430" unicode="&#x430;" d="M217 -12 q-63 0 -112.5 35.5 q-49.5 35.5 -49.5 106.5 q0 35 12 61.5 q12 26.5 36 43.5 q24 17 52 27.5 q28 10.5 69 16 q41 5.5 76.5 7 q35.5 1.5 84.5 1.5 l0 15 q0 121 -125 121 q-84 0 -139 -55 l-38 45 q67 67 184 67 q80 0 131 -44 q51 -44 51 -126 l0 -205 q0 -63 8 -105 l-61 0 q-7 40 -7 76 l-2 0 q-61 -88 -170 -88 ZM235 44 q69 0 109.5 45 q40.5 45 40.5 110 l0 35 l-20 0 q-48 0 -85.5 -3.5 q-37.5 -3.5 -75 -13.5 q-37.5 -10 -58.5 -31 q-21 -21 -21 -53 q0 -46 32 -67.5 q32 -21.5 78 -21.5 Z" /><glyph glyph-name="uni0431" unicode="&#x431;" d="M313 -12 q-140 0 -204 98 q-44 67 -44 221 q0 94 7.5 155.5 q7.5 61.5 29 117.5 q21.5 56 65.5 86.5 q44 30.5 112 38.5 l142 17 q36 4 56.5 14 q20.5 10 27.5 32 l49 -15 q-11 -40 -36.5 -59.5 q-25.5 -19.5 -75.5 -26.5 l-133 -17 q-104 -13 -145 -71.5 q-41 -58.5 -43 -217.5 l3 0 q59 119 206 119 q103 0 168 -69.5 q65 -69.5 65 -176.5 q0 -106 -70.5 -176 q-70.5 -70 -179.5 -70 ZM313 46 q80 0 129 53.5 q49 53.5 49 134.5 q0 81 -49 135 q-49 54 -129 54 q-79 0 -128 -54 q-49 -54 -49 -135 q0 -80 49 -134 q49 -54 128 -54 Z" /><glyph glyph-name="uni0432" unicode="&#x432;" d="M90 0 l0 468 l219 0 q64 0 107.5 -28 q43.5 -28 43.5 -92 q0 -37 -22.5 -64.5 q-22.5 -27.5 -59.5 -35.5 l0 -1 q47 -5 76 -36 q29 -31 29 -81 q0 -59 -47 -94.5 q-47 -35.5 -127 -35.5 l-219 0 ZM158 58 l143 0 q49 0 80.5 19 q31.5 19 31.5 59 q0 79 -104 79 l-151 0 l0 -157 ZM158 271 l149 0 q35 0 60.5 17 q25.5 17 25.5 53 q0 71 -98 71 l-137 0 l0 -141 Z" /><glyph glyph-name="uni0433" unicode="&#x433;" d="M90 0 l0 468 l310 0 l0 -57 l-242 0 l0 -411 l-68 0 Z" /><glyph glyph-name="uni0434" unicode="&#x434;" d="M24 -152 l0 211 l54 0 q75 96 75 285 l0 124 l340 0 l0 -409 l75 0 l0 -211 l-63 0 l0 152 l-418 0 l0 -152 l-63 0 ZM155 59 l271 0 l0 352 l-207 0 l0 -86 q0 -151 -64 -266 Z" /><glyph glyph-name="uni0435" unicode="&#x435;" d="M298 -12 q-104 0 -173 70 q-69 70 -69 176 q0 105 68 175.5 q68 70.5 168 70.5 q106 0 165 -65.5 q59 -65.5 59 -166.5 q0 -20 -1 -32 l-388 0 q2 -71 51 -120.5 q49 -49.5 120 -49.5 q49 0 89 23.5 q40 23.5 61 57.5 l51 -40 q-78 -99 -201 -99 ZM128 270 l319 0 q-3 68 -43.5 110.5 q-40.5 42.5 -111.5 42.5 q-66 0 -112.5 -45.5 q-46.5 -45.5 -51.5 -107.5 Z" /><glyph glyph-name="uni0436" unicode="&#x436;" d="M9 0 l245 244 l-221 224 l98 0 l204 -221 l3 0 l0 221 l68 0 l0 -221 l3 0 l204 221 l98 0 l-221 -224 l245 -244 l-100 0 l-226 236 l-3 0 l0 -236 l-68 0 l0 236 l-3 0 l-226 -236 l-100 0 Z" /><glyph glyph-name="uni0437" unicode="&#x437;" d="M230 -12 q-137 0 -200 92 l56 40 q18 -32 58 -53 q40 -21 85 -21 q48 0 81.5 20.5 q33.5 20.5 33.5 66.5 q0 42 -40.5 62.5 q-40.5 20.5 -98.5 20.5 l-32 0 l0 54 l30 0 q56 0 90.5 20 q34.5 20 34.5 63 q0 70 -109 70 q-36 0 -69 -18 q-33 -18 -51 -47 l-53 38 q23 39 70 61.5 q47 22.5 105 22.5 q77 0 126 -33.5 q49 -33.5 49 -92.5 q0 -39 -27.5 -68.5 q-27.5 -29.5 -70.5 -38.5 l0 -2 q51 -8 82.5 -39 q31.5 -31 31.5 -76 q0 -66 -50.5 -104 q-50.5 -38 -131.5 -38 Z" /><glyph glyph-name="uni0438" unicode="&#x438;" d="M90 0 l0 468 l68 0 l0 -374 l1 0 l277 374 l74 0 l0 -468 l-67 0 l0 378 l-2 0 l-277 -378 l-74 0 Z" /><glyph glyph-name="uni0439" unicode="&#x439;" d="M90 0 l0 468 l68 0 l0 -374 l1 0 l277 374 l74 0 l0 -468 l-67 0 l0 378 l-2 0 l-277 -378 l-74 0 ZM396.5 610.5 q-39.5 -34.5 -100.5 -34.5 q-61 0 -100.5 34.5 q-39.5 34.5 -45.5 93.5 l46 9 q7 -38 34.5 -60.5 q27.5 -22.5 65.5 -22.5 q38 0 65.5 22.5 q27.5 22.5 34.5 60.5 l46 -9 q-6 -59 -45.5 -93.5 Z" /><glyph glyph-name="uni043A" unicode="&#x43a;" d="M92 0 l0 468 l68 0 l0 -221 l3 0 l216 221 l98 0 l-236 -224 l260 -244 l-100 0 l-238 236 l-3 0 l0 -236 l-68 0 Z" /><glyph glyph-name="uni043B" unicode="&#x43b;" d="M60 -5 q-29 0 -51 6 l8 59 q15 -5 32 -5 q55 0 81.5 58.5 q26.5 58.5 26.5 196.5 l0 158 l335 0 l0 -468 l-68 0 l0 411 l-201 0 l0 -125 q0 -141 -37.5 -216 q-37.5 -75 -125.5 -75 Z" /><glyph glyph-name="uni043C" unicode="&#x43c;" d="M90 0 l0 468 l98 0 l173 -367 l1 0 l172 367 l98 0 l0 -468 l-68 0 l0 387 l-2 0 l-184 -387 l-35 0 l-184 387 l-1 0 l0 -387 l-68 0 Z" /><glyph glyph-name="uni043D" unicode="&#x43d;" d="M90 0 l0 468 l68 0 l0 -196 l269 0 l0 196 l68 0 l0 -468 l-68 0 l0 215 l-269 0 l0 -215 l-68 0 Z" /><glyph glyph-name="uni043E" unicode="&#x43e;" d="M305 -12 q-108 0 -178.5 70 q-70.5 70 -70.5 176 q0 106 70.5 176 q70.5 70 178.5 70 q109 0 179.5 -70 q70.5 -70 70.5 -176 q0 -106 -70.5 -176 q-70.5 -70 -179.5 -70 ZM305 46 q80 0 129 53.5 q49 53.5 49 134.5 q0 81 -49 135 q-49 54 -129 54 q-79 0 -128 -54 q-49 -54 -49 -135 q0 -80 49 -134 q49 -54 128 -54 Z" /><glyph glyph-name="uni043F" unicode="&#x43f;" d="M90 0 l0 468 l398 0 l0 -468 l-68 0 l0 411 l-262 0 l0 -411 l-68 0 Z" /><glyph glyph-name="uni0440" unicode="&#x440;" d="M90 -240 l0 708 l68 0 l0 -81 l3 0 q28 44 76 68.5 q48 24.5 100 24.5 q108 0 175 -70.5 q67 -70.5 67 -175.5 q0 -105 -67 -175.5 q-67 -70.5 -175 -70.5 q-51 0 -99 24 q-48 24 -77 67 l-3 0 l0 -319 l-68 0 ZM330 46 q82 0 129.5 53.5 q47.5 53.5 47.5 134.5 q0 81 -47.5 135 q-47.5 54 -129.5 54 q-78 0 -129 -54 q-51 -54 -51 -135 q0 -81 51 -134.5 q51 -53.5 129 -53.5 Z" /><glyph glyph-name="uni0441" unicode="&#x441;" d="M484 69 q-66 -81 -178 -81 q-112 0 -181 69.5 q-69 69.5 -69 176.5 q0 107 69 176.5 q69 69.5 181 69.5 q50 0 97.5 -21 q47.5 -21 76.5 -60 l-53 -38 q-17 27 -49.5 44.5 q-32.5 17.5 -70.5 17.5 q-80 0 -129.5 -53.5 q-49.5 -53.5 -49.5 -135.5 q0 -81 49 -134.5 q49 -53.5 129 -53.5 q81 0 127 61 l51 -38 Z" /><glyph glyph-name="uni0442" unicode="&#x442;" d="M189 0 l0 411 l-169 0 l0 57 l406 0 l0 -57 l-169 0 l0 -411 l-68 0 Z" /><glyph glyph-name="uni0443" unicode="&#x443;" d="M92 -240 q-31 0 -61 6 l7 62 q24 -8 50 -8 q33 0 53.5 20.5 q20.5 20.5 36.5 62.5 l38 98 l-200 467 l76 0 l159 -395 l2 0 l145 395 l74 0 l-233 -589 q-23 -59 -56.5 -89 q-33.5 -30 -90.5 -30 Z" /><glyph glyph-name="uni0444" unicode="&#x444;" d="M322 -240 l0 226 q-126 0 -199 66 q-73 66 -73 180 q0 113 73 179.5 q73 66.5 199 66.5 l0 278 l68 0 l0 -278 q126 0 199 -66.5 q73 -66.5 73 -179.5 q0 -114 -73 -180 q-73 -66 -199 -66 l0 -226 l-68 0 ZM322 44 l0 377 q-96 -1 -148 -50.5 q-52 -49.5 -52 -137.5 q0 -91 51.5 -140 q51.5 -49 148.5 -49 ZM390 44 q97 0 148.5 49 q51.5 49 51.5 140 q0 88 -52 137.5 q-52 49.5 -148 50.5 l0 -377 Z" /><glyph glyph-name="uni0445" unicode="&#x445;" d="M16 0 l184 242 l-173 226 l87 0 l128 -178 l128 178 l82 0 l-170 -223 l186 -245 l-88 0 l-139 195 l-143 -195 l-82 0 Z" /><glyph glyph-name="uni0446" unicode="&#x446;" d="M500 -152 l0 152 l-410 0 l0 468 l68 0 l0 -409 l262 0 l0 409 l68 0 l0 -409 l75 0 l0 -211 l-63 0 Z" /><glyph glyph-name="uni0447" unicode="&#x447;" d="M369 0 l0 192 q-62 -18 -137 -18 q-158 0 -158 150 l0 144 l68 0 l0 -136 q0 -59 26 -80 q26 -21 80 -21 q56 0 121 17 l0 220 l68 0 l0 -468 l-68 0 Z" /><glyph glyph-name="uni0448" unicode="&#x448;" d="M90 0 l0 468 l68 0 l0 -409 l227 0 l0 409 l68 0 l0 -409 l227 0 l0 409 l68 0 l0 -468 l-658 0 Z" /><glyph glyph-name="uni0449" unicode="&#x449;" d="M760 -152 l0 152 l-670 0 l0 468 l68 0 l0 -409 l227 0 l0 409 l68 0 l0 -409 l227 0 l0 409 l68 0 l0 -409 l75 0 l0 -211 l-63 0 Z" /><glyph glyph-name="uni044A" unicode="&#x44a;" d="M160 0 l0 411 l-140 0 l0 57 l208 0 l0 -176 l113 0 q87 0 135.5 -38 q48.5 -38 48.5 -109 q0 -70 -47.5 -107.5 q-47.5 -37.5 -135.5 -37.5 l-182 0 ZM228 59 l121 0 q106 0 106 86 q0 90 -106 90 l-121 0 l0 -176 Z" /><glyph glyph-name="uni044B" unicode="&#x44b;" d="M90 0 l0 468 l68 0 l0 -176 l113 0 q87 0 135.5 -38 q48.5 -38 48.5 -109 q0 -70 -47.5 -107.5 q-47.5 -37.5 -135.5 -37.5 l-182 0 ZM158 59 l121 0 q106 0 106 86 q0 90 -106 90 l-121 0 l0 -176 ZM547 0 l0 468 l68 0 l0 -468 l-68 0 Z" /><glyph glyph-name="uni044C" unicode="&#x44c;" d="M90 0 l0 468 l68 0 l0 -176 l113 0 q87 0 135.5 -38 q48.5 -38 48.5 -109 q0 -70 -47.5 -107.5 q-47.5 -37.5 -135.5 -37.5 l-182 0 ZM158 59 l121 0 q106 0 106 86 q0 90 -106 90 l-121 0 l0 -176 Z" /><glyph glyph-name="uni044D" unicode="&#x44d;" d="M197 -12 q-117 0 -181 79 l49 40 q50 -63 132 -63 q77 0 125.5 48 q48.5 48 53.5 123 l-225 0 l0 57 l223 0 q-11 69 -58 111 q-47 42 -118 42 q-78 0 -132 -63 l-46 42 q60 76 179 76 q113 0 180.5 -68 q67.5 -68 67.5 -178 q0 -110 -68.5 -178 q-68.5 -68 -181.5 -68 Z" /><glyph glyph-name="uni044E" unicode="&#x44e;" d="M504 -12 q-100 0 -166.5 63.5 q-66.5 63.5 -73.5 163.5 l-106 0 l0 -215 l-68 0 l0 468 l68 0 l0 -196 l108 0 q13 92 78.5 150 q65.5 58 159.5 58 q105 0 172.5 -70 q67.5 -70 67.5 -176 q0 -106 -67.5 -176 q-67.5 -70 -172.5 -70 ZM382 99.5 q46 -53.5 122 -53.5 q76 0 122 53.5 q46 53.5 46 134.5 q0 81 -46 135 q-46 54 -122 54 q-76 0 -122 -54 q-46 -54 -46 -135 q0 -81 46 -134.5 Z" /><glyph glyph-name="uni044F" unicode="&#x44f;" d="M60 0 l125 190 q-54 12 -84.5 46.5 q-30.5 34.5 -30.5 89.5 q0 68 48 105 q48 37 130 37 l201 0 l0 -468 l-68 0 l0 184 l-123 0 l-115 -184 l-83 0 ZM252 242 l129 0 l0 169 l-129 0 q-113 0 -113 -85 q0 -84 113 -84 Z" /><glyph glyph-name="uni0450" unicode="&#x450;" d="M298 -12 q-104 0 -173 70 q-69 70 -69 176 q0 105 68 175.5 q68 70.5 168 70.5 q106 0 165 -65.5 q59 -65.5 59 -166.5 q0 -20 -1 -32 l-388 0 q2 -71 51 -120.5 q49 -49.5 120 -49.5 q49 0 89 23.5 q40 23.5 61 57.5 l51 -40 q-78 -99 -201 -99 ZM128 270 l319 0 q-3 68 -43.5 110.5 q-40.5 42.5 -111.5 42.5 q-66 0 -112.5 -45.5 q-46.5 -45.5 -51.5 -107.5 ZM282 564 l-132 144 l91 0 l100 -144 l-59 0 Z" /><glyph glyph-name="uni0451" unicode="&#x451;" d="M298 -12 q-104 0 -173 70 q-69 70 -69 176 q0 105 68 175.5 q68 70.5 168 70.5 q106 0 165 -65.5 q59 -65.5 59 -166.5 q0 -20 -1 -32 l-388 0 q2 -71 51 -120.5 q49 -49.5 120 -49.5 q49 0 89 23.5 q40 23.5 61 57.5 l51 -40 q-78 -99 -201 -99 ZM128 270 l319 0 q-3 68 -43.5 110.5 q-40.5 42.5 -111.5 42.5 q-66 0 -112.5 -45.5 q-46.5 -45.5 -51.5 -107.5 ZM166.5 611.5 q-14.5 15.5 -14.5 35.5 q0 20 14.5 35.5 q14.5 15.5 36.5 15.5 q22 0 36.5 -15.5 q14.5 -15.5 14.5 -35.5 q0 -20 -14.5 -35.5 q-14.5 -15.5 -36.5 -15.5 q-22 0 -36.5 15.5 ZM358.5 611.5 q-14.5 15.5 -14.5 35.5 q0 20 14.5 35.5 q14.5 15.5 36.5 15.5 q22 0 36.5 -15.5 q14.5 -15.5 14.5 -35.5 q0 -20 -14.5 -35.5 q-14.5 -15.5 -36.5 -15.5 q-22 0 -36.5 15.5 Z" /><glyph glyph-name="uni0452" unicode="&#x452;" d="M343 -240 q-37 0 -61 7 l12 60 q24 -7 47 -7 q51 0 69.5 31 q18.5 31 18.5 89 l0 319 q0 79 -28.5 121.5 q-28.5 42.5 -98.5 42.5 q-59 0 -100.5 -47.5 q-41.5 -47.5 -41.5 -135.5 l0 -240 l-68 0 l0 570 l-84 0 l0 50 l84 0 l0 136 l68 0 l0 -136 l158 0 l0 -50 l-158 0 l0 -179 l2 0 q18 40 62.5 64.5 q44.5 24.5 94.5 24.5 q87 0 132.5 -52 q45.5 -52 45.5 -141 l0 -355 q0 -81 -39.5 -126.5 q-39.5 -45.5 -114.5 -45.5 Z" /><glyph glyph-name="uni0453" unicode="&#x453;" d="M90 0 l0 468 l310 0 l0 -57 l-242 0 l0 -411 l-68 0 ZM384 708 l-132 -144 l-59 0 l100 144 l91 0 Z" /><glyph glyph-name="uni0454" unicode="&#x454;" d="M306 -12 q-113 0 -181.5 68 q-68.5 68 -68.5 178 q0 110 67.5 178 q67.5 68 180.5 68 q119 0 179 -76 l-46 -42 q-54 63 -132 63 q-71 0 -118 -42 q-47 -42 -58 -111 l243 0 l0 -57 l-245 0 q5 -75 53.5 -123 q48.5 -48 125.5 -48 q82 0 132 63 l49 -40 q-64 -79 -181 -79 Z" /><glyph glyph-name="uni0455" unicode="&#x455;" d="M223 -12 q-123 0 -185 91 l54 40 q19 -32 54.5 -52.5 q35.5 -20.5 75.5 -20.5 q48 0 79 19.5 q31 19.5 31 62.5 q0 35 -32.5 54 q-32.5 19 -105.5 36 q-26 6 -45 13 q-19 7 -41.5 21 q-22.5 14 -35 37.5 q-12.5 23.5 -12.5 54.5 q0 67 48.5 101.5 q48.5 34.5 118.5 34.5 q50 0 96 -22.5 q46 -22.5 68 -61.5 l-52 -39 q-15 30 -46 48 q-31 18 -69 18 q-41 0 -70 -18.5 q-29 -18.5 -29 -54.5 q0 -32 26 -50 q26 -18 86 -30 q83 -17 122.5 -50 q39.5 -33 39.5 -87 q0 -74 -51.5 -109.5 q-51.5 -35.5 -124.5 -35.5 Z" /><glyph glyph-name="uni0456" unicode="&#x456;" d="M91 0 l0 468 l68 0 l0 -468 l-68 0 ZM158.5 614 q-14.5 -14 -33.5 -14 q-19 0 -33.5 14 q-14.5 14 -14.5 34 q0 20 14.5 34 q14.5 14 33.5 14 q19 0 33.5 -14 q14.5 -14 14.5 -34 q0 -20 -14.5 -34 Z" /><glyph glyph-name="uni0457" unicode="&#x457;" d="M-7.5 611.5 q-14.5 15.5 -14.5 35.5 q0 20 14.5 35.5 q14.5 15.5 36.5 15.5 q22 0 36.5 -15.5 q14.5 -15.5 14.5 -35.5 q0 -20 -14.5 -35.5 q-14.5 -15.5 -36.5 -15.5 q-22 0 -36.5 15.5 ZM184.5 611.5 q-14.5 15.5 -14.5 35.5 q0 20 14.5 35.5 q14.5 15.5 36.5 15.5 q22 0 36.5 -15.5 q14.5 -15.5 14.5 -35.5 q0 -20 -14.5 -35.5 q-14.5 -15.5 -36.5 -15.5 q-22 0 -36.5 15.5 ZM159 468 l0 -468 l-68 0 l0 468 l68 0 Z" /><glyph glyph-name="uni0458" unicode="&#x458;" d="M27 -240 q-30 0 -54 7 l10 57 q20 -6 43 -6 q40 0 53 25 q13 25 13 75 l0 550 l68 0 l0 -561 q0 -147 -133 -147 ZM159.5 614 q-14.5 -14 -33.5 -14 q-19 0 -33.5 14 q-14.5 14 -14.5 34 q0 20 14.5 34 q14.5 14 33.5 14 q19 0 33.5 -14 q14.5 -14 14.5 -34 q0 -20 -14.5 -34 Z" /><glyph glyph-name="uni0459" unicode="&#x459;" d="M60 -5 q-29 0 -51 6 l8 59 q15 -5 32 -5 q55 0 81.5 58.5 q26.5 58.5 26.5 196.5 l0 158 l335 0 l0 -176 l113 0 q87 0 135.5 -38 q48.5 -38 48.5 -109 q0 -70 -47.5 -107.5 q-47.5 -37.5 -135.5 -37.5 l-182 0 l0 411 l-201 0 l0 -125 q0 -141 -37.5 -216 q-37.5 -75 -125.5 -75 ZM492 59 l121 0 q106 0 106 86 q0 90 -106 90 l-121 0 l0 -176 Z" /><glyph glyph-name="uni045A" unicode="&#x45a;" d="M90 0 l0 468 l68 0 l0 -188 l269 0 l0 188 l68 0 l0 -188 l113 0 q88 0 136 -35.5 q48 -35.5 48 -105.5 q0 -69 -47 -104 q-47 -35 -136 -35 l-182 0 l0 223 l-269 0 l0 -223 l-68 0 ZM495 59 l121 0 q106 0 106 80 q0 84 -106 84 l-121 0 l0 -164 Z" /><glyph glyph-name="uni045B" unicode="&#x45b;" d="M92 0 l0 570 l-84 0 l0 50 l84 0 l0 136 l68 0 l0 -136 l158 0 l0 -50 l-158 0 l0 -179 l2 0 q18 40 62.5 64.5 q44.5 24.5 94.5 24.5 q87 0 132.5 -52 q45.5 -52 45.5 -141 l0 -287 l-68 0 l0 259 q0 79 -28.5 121.5 q-28.5 42.5 -98.5 42.5 q-59 0 -100.5 -47.5 q-41.5 -47.5 -41.5 -135.5 l0 -240 l-68 0 Z" /><glyph glyph-name="uni045C" unicode="&#x45c;" d="M92 0 l0 468 l68 0 l0 -221 l3 0 l216 221 l98 0 l-236 -224 l260 -244 l-100 0 l-238 236 l-3 0 l0 -236 l-68 0 ZM420 708 l-132 -144 l-59 0 l100 144 l91 0 Z" /><glyph glyph-name="uni045D" unicode="&#x45d;" d="M90 0 l0 468 l68 0 l0 -374 l1 0 l277 374 l74 0 l0 -468 l-67 0 l0 378 l-2 0 l-277 -378 l-74 0 ZM293 564 l-132 144 l91 0 l100 -144 l-59 0 Z" /><glyph glyph-name="uni045E" unicode="&#x45e;" d="M92 -240 q-31 0 -61 6 l7 62 q24 -8 50 -8 q33 0 53.5 20.5 q20.5 20.5 36.5 62.5 l38 98 l-200 467 l76 0 l159 -395 l2 0 l145 395 l74 0 l-233 -589 q-23 -59 -56.5 -89 q-33.5 -30 -90.5 -30 ZM352.5 610.5 q-39.5 -34.5 -100.5 -34.5 q-61 0 -100.5 34.5 q-39.5 34.5 -45.5 93.5 l46 9 q7 -38 34.5 -60.5 q27.5 -22.5 65.5 -22.5 q38 0 65.5 22.5 q27.5 22.5 34.5 60.5 l46 -9 q-6 -59 -45.5 -93.5 Z" /><glyph glyph-name="uni045F" unicode="&#x45f;" d="M258 -152 l0 152 l-168 0 l0 468 l68 0 l0 -409 l262 0 l0 409 l68 0 l0 -468 l-167 0 l0 -152 l-63 0 Z" /><glyph glyph-name="uni0490" unicode="&#x490;" d="M94 0 l0 708 l334 0 l0 144 l68 0 l0 -208 l-330 0 l0 -644 l-72 0 Z" /><glyph glyph-name="uni0491" unicode="&#x491;" d="M90 0 l0 468 l247 0 l0 124 l63 0 l0 -181 l-242 0 l0 -411 l-68 0 Z" /><glyph glyph-name="Wgrave" unicode="&#x1e80;" d="M90 708 l175 -609 l2 0 l177 609 l86 0 l177 -609 l2 0 l173 609 l76 0 l-209 -708 l-84 0 l-178 608 l-2 0 l-178 -608 l-84 0 l-209 708 l76 0 ZM464 764 l-132 144 l91 0 l100 -144 l-59 0 Z" /><glyph glyph-name="wgrave" unicode="&#x1e81;" d="M26 468 l73 0 l113 -380 l2 0 l126 380 l66 0 l128 -380 l2 0 l112 380 l72 0 l-148 -468 l-74 0 l-125 379 l-2 0 l-123 -379 l-74 0 l-148 468 ZM339 564 l-132 144 l91 0 l100 -144 l-59 0 Z" /><glyph glyph-name="Wacute" unicode="&#x1e82;" d="M90 708 l175 -609 l2 0 l177 609 l86 0 l177 -609 l2 0 l173 609 l76 0 l-209 -708 l-84 0 l-178 608 l-2 0 l-178 -608 l-84 0 l-209 708 l76 0 ZM643 908 l-132 -144 l-59 0 l100 144 l91 0 Z" /><glyph glyph-name="wacute" unicode="&#x1e83;" d="M26 468 l73 0 l113 -380 l2 0 l126 380 l66 0 l128 -380 l2 0 l112 380 l72 0 l-148 -468 l-74 0 l-125 379 l-2 0 l-123 -379 l-74 0 l-148 468 ZM539 708 l-132 -144 l-59 0 l100 144 l91 0 Z" /><glyph glyph-name="Wdieresis" unicode="&#x1e84;" d="M90 708 l175 -609 l2 0 l177 609 l86 0 l177 -609 l2 0 l173 609 l76 0 l-209 -708 l-84 0 l-178 608 l-2 0 l-178 -608 l-84 0 l-209 708 l76 0 ZM353.5 811.5 q-14.5 15.5 -14.5 35.5 q0 20 14.5 35.5 q14.5 15.5 36.5 15.5 q22 0 36.5 -15.5 q14.5 -15.5 14.5 -35.5 q0 -20 -14.5 -35.5 q-14.5 -15.5 -36.5 -15.5 q-22 0 -36.5 15.5 ZM545.5 811.5 q-14.5 15.5 -14.5 35.5 q0 20 14.5 35.5 q14.5 15.5 36.5 15.5 q22 0 36.5 -15.5 q14.5 -15.5 14.5 -35.5 q0 -20 -14.5 -35.5 q-14.5 -15.5 -36.5 -15.5 q-22 0 -36.5 15.5 Z" /><glyph glyph-name="wdieresis" unicode="&#x1e85;" d="M26 468 l73 0 l113 -380 l2 0 l126 380 l66 0 l128 -380 l2 0 l112 380 l72 0 l-148 -468 l-74 0 l-125 379 l-2 0 l-123 -379 l-74 0 l-148 468 ZM239.5 611.5 q-14.5 15.5 -14.5 35.5 q0 20 14.5 35.5 q14.5 15.5 36.5 15.5 q22 0 36.5 -15.5 q14.5 -15.5 14.5 -35.5 q0 -20 -14.5 -35.5 q-14.5 -15.5 -36.5 -15.5 q-22 0 -36.5 15.5 ZM431.5 611.5 q-14.5 15.5 -14.5 35.5 q0 20 14.5 35.5 q14.5 15.5 36.5 15.5 q22 0 36.5 -15.5 q14.5 -15.5 14.5 -35.5 q0 -20 -14.5 -35.5 q-14.5 -15.5 -36.5 -15.5 q-22 0 -36.5 15.5 Z" /><glyph glyph-name="Ygrave" unicode="&#x1ef2;" d="M337 305 l0 -305 l-72 0 l0 305 l-265 403 l90 0 l213 -343 l215 343 l84 0 l-265 -403 ZM284 764 l-132 144 l91 0 l100 -144 l-59 0 Z" /><glyph glyph-name="ygrave" unicode="&#x1ef3;" d="M92 468 l159 -395 l2 0 l145 395 l74 0 l-233 -589 q-23 -59 -56.5 -89 q-33.5 -30 -90.5 -30 q-31 0 -61 6 l7 62 q24 -8 50 -8 q33 0 53.5 20.5 q20.5 20.5 36.5 62.5 l38 98 l-200 467 l76 0 ZM230 564 l-132 144 l91 0 l100 -144 l-59 0 Z" /><glyph glyph-name="uni2010" unicode="&#x2010;" d="M272 271 l0 -57 l-224 0 l0 57 l224 0 Z" /><glyph glyph-name="endash" unicode="&#x2013;" d="M370 271 l0 -57 l-340 0 l0 57 l340 0 Z" /><glyph glyph-name="emdash" unicode="&#x2014;" d="M570 271 l0 -57 l-540 0 l0 57 l540 0 Z" /><glyph glyph-name="quoteleft" unicode="&#x2018;" d="M42 473 l81 235 l57 0 l-67 -235 l-71 0 Z" /><glyph glyph-name="quoteright" unicode="&#x2019;" d="M180 708 l-81 -235 l-57 0 l67 235 l71 0 Z" /><glyph glyph-name="quotesinglbase" unicode="&#x201a;" d="M180 95 l-81 -235 l-57 0 l67 235 l71 0 Z" /><glyph glyph-name="quotedblleft" unicode="&#x201c;" d="M42 473 l81 235 l57 0 l-67 -235 l-71 0 ZM207 473 l81 235 l57 0 l-67 -235 l-71 0 Z" /><glyph glyph-name="quotedblright" unicode="&#x201d;" d="M345 708 l-81 -235 l-57 0 l67 235 l71 0 ZM180 708 l-81 -235 l-57 0 l67 235 l71 0 Z" /><glyph glyph-name="quotedblbase" unicode="&#x201e;" d="M345 95 l-81 -235 l-57 0 l67 235 l71 0 ZM180 95 l-81 -235 l-57 0 l67 235 l71 0 Z" /><glyph glyph-name="dagger" unicode="&#x2020;" d="M311 708 l0 -204 l204 0 l0 -60 l-204 0 l0 -570 l-66 0 l0 570 l-204 0 l0 60 l204 0 l0 204 l66 0 Z" /><glyph glyph-name="daggerdbl" unicode="&#x2021;" d="M311 708 l0 -192 l195 0 l0 -60 l-195 0 l0 -330 l195 0 l0 -60 l-195 0 l0 -192 l-66 0 l0 192 l-195 0 l0 60 l195 0 l0 330 l-195 0 l0 60 l195 0 l0 192 l66 0 Z" /><glyph glyph-name="bullet" unicode="&#x2022;" d="M124.5 228.5 q-51.5 51.5 -51.5 125.5 q0 74 51.5 125.5 q51.5 51.5 125.5 51.5 q74 0 125.5 -51.5 q51.5 -51.5 51.5 -125.5 q0 -74 -51.5 -125.5 q-51.5 -51.5 -125.5 -51.5 q-74 0 -125.5 51.5 Z" /><glyph glyph-name="ellipsis" unicode="&#x2026;" d="M205.5 86 q15.5 -16 15.5 -38 q0 -22 -15.5 -38 q-15.5 -16 -38.5 -16 q-23 0 -38.5 16 q-15.5 16 -15.5 38 q0 22 15.5 38 q15.5 16 38.5 16 q23 0 38.5 -16 ZM538.5 86 q15.5 -16 15.5 -38 q0 -22 -15.5 -38 q-15.5 -16 -38.5 -16 q-23 0 -38.5 16 q-15.5 16 -15.5 38 q0 22 15.5 38 q15.5 16 38.5 16 q23 0 38.5 -16 ZM871.5 86 q15.5 -16 15.5 -38 q0 -22 -15.5 -38 q-15.5 -16 -38.5 -16 q-23 0 -38.5 16 q-15.5 16 -15.5 38 q0 22 15.5 38 q15.5 16 38.5 16 q23 0 38.5 -16 Z" /><glyph glyph-name="perthousand" unicode="&#x2030;" d="M286 674.5 q45 -45.5 45 -108.5 q0 -63 -45 -108.5 q-45 -45.5 -108 -45.5 q-63 0 -108 45.5 q-45 45.5 -45 108.5 q0 63 45 108.5 q45 45.5 108 45.5 q63 0 108 -45.5 ZM248 495.5 q29 29.5 29 70.5 q0 41 -29 70.5 q-29 29.5 -70 29.5 q-41 0 -70 -29.5 q-29 -29.5 -29 -70.5 q0 -41 29 -70.5 q29 -29.5 70 -29.5 q41 0 70 29.5 ZM580 250.5 q45 -45.5 45 -108.5 q0 -63 -45 -108.5 q-45 -45.5 -108 -45.5 q-63 0 -108 45.5 q-45 45.5 -45 108.5 q0 63 45 108.5 q45 45.5 108 45.5 q63 0 108 -45.5 ZM542 71.5 q29 29.5 29 70.5 q0 41 -29 70.5 q-29 29.5 -70 29.5 q-41 0 -70 -29.5 q-29 -29.5 -29 -70.5 q0 -41 29 -70.5 q29 -29.5 70 -29.5 q41 0 70 29.5 ZM930 250.5 q45 -45.5 45 -108.5 q0 -63 -45 -108.5 q-45 -45.5 -108 -45.5 q-63 0 -108 45.5 q-45 45.5 -45 108.5 q0 63 45 108.5 q45 45.5 108 45.5 q63 0 108 -45.5 ZM892 71.5 q29 29.5 29 70.5 q0 41 -29 70.5 q-29 29.5 -70 29.5 q-41 0 -70 -29.5 q-29 -29.5 -29 -70.5 q0 -41 29 -70.5 q29 -29.5 70 -29.5 q41 0 70 29.5 ZM575 712 l-450 -743 l-52 27 l451 743 l51 -27 Z" /><glyph glyph-name="guilsinglleft" unicode="&#x2039;" d="M131 240 l115 -176 l-47 -33 l-140 209 l140 209 l47 -33 l-115 -176 Z" /><glyph glyph-name="guilsinglright" unicode="&#x203a;" d="M184 240 l-115 176 l47 33 l140 -209 l-140 -209 l-47 33 l115 176 Z" /><glyph glyph-name="interrobang" unicode="&#x203d;" d="M274 192 l-68 0 l-1 345 l69 0 l-4 -166 l1 0 q10 14 49 55 q53 54 53 114 q0 56 -36.5 87.5 q-36.5 31.5 -91.5 31.5 q-53 0 -87.5 -33 q-34.5 -33 -42.5 -85 l-67 12 q15 77 69 122 q54 45 131 45 q83 0 138.5 -47 q55.5 -47 55.5 -129 q0 -53 -21.5 -89 q-21.5 -36 -66.5 -77 q-45 -41 -62.5 -67 q-17.5 -26 -17.5 -67 l0 -52 ZM284.5 86 q15.5 -16 15.5 -38 q0 -22 -15.5 -38 q-15.5 -16 -38.5 -16 q-23 0 -38.5 16 q-15.5 16 -15.5 38 q0 22 15.5 38 q15.5 16 38.5 16 q23 0 38.5 -16 Z" /><glyph glyph-name="fraction" unicode="&#x2044;" d="M297 712 l-450 -743 l-52 27 l451 743 l51 -27 Z" /><glyph glyph-name="zero.superior" unicode="&#x2070;" d="M293.5 818.5 q33.5 -62.5 33.5 -155.5 q0 -93 -33.5 -155.5 q-33.5 -62.5 -108.5 -62.5 q-40 0 -69 18.5 q-29 18.5 -44.5 50.5 q-15.5 32 -22.5 69 q-7 37 -7 80 q0 43 7 80 q7 37 22.5 69 q15.5 32 44.5 50.5 q29 18.5 69 18.5 q75 0 108.5 -62.5 ZM265 663 q0 41 -7 76.5 q-7 35.5 -25.5 62 q-18.5 26.5 -47.5 26.5 q-43 0 -62 -49 q-19 -49 -19 -116 q0 -68 19 -116 q19 -48 62 -48 q42 0 61 48.5 q19 48.5 19 115.5 Z" /><glyph glyph-name="four.superior" unicode="&#x2074;" d="M276 452 l-55 0 l0 98 l-188 0 l0 52 l175 272 l68 0 l0 -270 l60 0 l0 -54 l-60 0 l0 -98 ZM221 604 l0 189 l-3 0 l-122 -189 l125 0 Z" /><glyph glyph-name="five.superior" unicode="&#x2075;" d="M318 589 q0 -65 -39.5 -104.5 q-39.5 -39.5 -103.5 -39.5 q-48 0 -83 23.5 q-35 23.5 -51 62.5 l55 22 q26 -54 79 -54 q36 0 59 23.5 q23 23.5 23 62.5 q0 39 -24.5 63 q-24.5 24 -63.5 24 q-40 0 -95 -30 l4 232 l224 0 l0 -54 l-166 0 l-3 -105 q19 8 49 8 q61 0 98.5 -37 q37.5 -37 37.5 -97 Z" /><glyph glyph-name="six.superior" unicode="&#x2076;" d="M327 582 q0 -60 -40.5 -98.5 q-40.5 -38.5 -100.5 -38.5 q-61 0 -101.5 38.5 q-40.5 38.5 -40.5 98.5 q0 52 39 113 l112 179 l71 0 l-107 -163 l1 -1 q16 6 33 6 q58 0 96 -37.5 q38 -37.5 38 -96.5 ZM244 523 q23 24 23 59 q0 35 -22.5 58.5 q-22.5 23.5 -58.5 23.5 q-37 0 -59.5 -23.5 q-22.5 -23.5 -22.5 -58.5 q0 -36 23 -59.5 q23 -23.5 59 -23.5 q35 0 58 24 Z" /><glyph glyph-name="seven.superior" unicode="&#x2077;" d="M152 452 l-67 0 l167 368 l-191 0 l0 54 l257 0 l0 -47 l-166 -375 Z" /><glyph glyph-name="eight.superior" unicode="&#x2078;" d="M323 569 q0 -55 -40.5 -89.5 q-40.5 -34.5 -97.5 -34.5 q-57 0 -98 34.5 q-41 34.5 -41 89.5 q0 74 65 106 l0 1 q-50 29 -50 90 q0 51 36 83 q36 32 88 32 q51 0 87 -32 q36 -32 36 -83 q0 -60 -50 -90 l0 -1 q30 -14 47.5 -42 q17.5 -28 17.5 -64 ZM185 828 q-28 0 -46 -18 q-18 -18 -18 -46 q0 -27 18.5 -45 q18.5 -18 45.5 -18 q26 0 44.5 18 q18.5 18 18.5 45 q0 28 -18 46 q-18 18 -45 18 ZM241.5 626 q-21.5 21 -56.5 21 q-35 0 -57 -21 q-22 -21 -22 -53 q0 -33 21.5 -53.5 q21.5 -20.5 57.5 -20.5 q35 0 56.5 20.5 q21.5 20.5 21.5 53.5 q0 32 -21.5 53 Z" /><glyph glyph-name="nine.superior" unicode="&#x2079;" d="M326 745 q0 -52 -39 -115 l-112 -178 l-71 0 l108 164 l-1 1 q-12 -6 -34 -6 q-57 0 -95.5 38 q-38.5 38 -38.5 96 q0 59 40.5 97.5 q40.5 38.5 101.5 38.5 q61 0 101 -38.5 q40 -38.5 40 -97.5 ZM243.5 686.5 q22.5 23.5 22.5 58.5 q0 35 -23 59 q-23 24 -58 24 q-36 0 -59 -24 q-23 -24 -23 -59 q0 -35 22.5 -58.5 q22.5 -23.5 59.5 -23.5 q36 0 58.5 23.5 Z" /><glyph glyph-name="zero.inferior" unicode="&#x2080;" d="M293.5 228.5 q33.5 -62.5 33.5 -155.5 q0 -93 -33.5 -155.5 q-33.5 -62.5 -108.5 -62.5 q-40 0 -69 18.5 q-29 18.5 -44.5 50.5 q-15.5 32 -22.5 69 q-7 37 -7 80 q0 43 7 80 q7 37 22.5 69 q15.5 32 44.5 50.5 q29 18.5 69 18.5 q75 0 108.5 -62.5 ZM265 73 q0 41 -7 76.5 q-7 35.5 -25.5 62 q-18.5 26.5 -47.5 26.5 q-43 0 -62 -49 q-19 -49 -19 -116 q0 -68 19 -116 q19 -48 62 -48 q42 0 61 48.5 q19 48.5 19 115.5 Z" /><glyph glyph-name="one.inferior" unicode="&#x2081;" d="M171 -138 l0 346 l-64 -57 l-38 41 l112 92 l51 0 l0 -422 l-61 0 Z" /><glyph glyph-name="two.inferior" unicode="&#x2082;" d="M319 -138 l-276 0 l0 57 l167 169 q43 45 43 86 q0 28 -19 45 q-19 17 -48 17 q-28 0 -48 -19 q-20 -19 -27 -51 l-60 9 q10 51 47.5 83.5 q37.5 32.5 87.5 32.5 q56 0 93.5 -30.5 q37.5 -30.5 37.5 -86.5 q0 -27 -12 -53 q-12 -26 -24 -40 q-12 -14 -35 -37 l-128 -128 l201 0 l0 -54 Z" /><glyph glyph-name="three.inferior" unicode="&#x2083;" d="M320 -18 q0 -60 -40.5 -93.5 q-40.5 -33.5 -99.5 -33.5 q-102 0 -141 96 l57 19 q10 -29 32 -45 q22 -16 52 -16 q33 0 56.5 19 q23.5 19 23.5 54 q0 38 -27.5 55.5 q-27.5 17.5 -68.5 17.5 l-27 0 l0 51 l27 0 q84 0 84 70 q0 27 -20 44.5 q-20 17.5 -49 17.5 q-48 0 -75 -50 l-50 26 q44 77 127 77 q55 0 91 -29.5 q36 -29.5 36 -84.5 q0 -63 -57 -93 q69 -26 69 -102 Z" /><glyph glyph-name="four.inferior" unicode="&#x2084;" d="M276 -138 l-55 0 l0 98 l-188 0 l0 52 l175 272 l68 0 l0 -270 l60 0 l0 -54 l-60 0 l0 -98 ZM221 14 l0 189 l-3 0 l-122 -189 l125 0 Z" /><glyph glyph-name="five.inferior" unicode="&#x2085;" d="M318 -1 q0 -65 -39.5 -104.5 q-39.5 -39.5 -103.5 -39.5 q-48 0 -83 23.5 q-35 23.5 -51 62.5 l55 22 q26 -54 79 -54 q36 0 59 23.5 q23 23.5 23 62.5 q0 39 -24.5 63 q-24.5 24 -63.5 24 q-40 0 -95 -30 l4 232 l224 0 l0 -54 l-166 0 l-3 -105 q19 8 49 8 q61 0 98.5 -37 q37.5 -37 37.5 -97 Z" /><glyph glyph-name="six.inferior" unicode="&#x2086;" d="M327 -8 q0 -60 -40.5 -98.5 q-40.5 -38.5 -100.5 -38.5 q-61 0 -101.5 38.5 q-40.5 38.5 -40.5 98.5 q0 52 39 113 l112 179 l71 0 l-107 -163 l1 -1 q16 6 33 6 q58 0 96 -37.5 q38 -37.5 38 -96.5 ZM244 -67 q23 24 23 59 q0 35 -22.5 58.5 q-22.5 23.5 -58.5 23.5 q-37 0 -59.5 -23.5 q-22.5 -23.5 -22.5 -58.5 q0 -36 23 -59.5 q23 -23.5 59 -23.5 q35 0 58 24 Z" /><glyph glyph-name="seven.inferior" unicode="&#x2087;" d="M152 -138 l-67 0 l167 368 l-191 0 l0 54 l257 0 l0 -47 l-166 -375 Z" /><glyph glyph-name="eight.inferior" unicode="&#x2088;" d="M323 -21 q0 -55 -40.5 -89.5 q-40.5 -34.5 -97.5 -34.5 q-57 0 -98 34.5 q-41 34.5 -41 89.5 q0 74 65 106 l0 1 q-50 29 -50 90 q0 51 36 83 q36 32 88 32 q51 0 87 -32 q36 -32 36 -83 q0 -60 -50 -90 l0 -1 q30 -14 47.5 -42 q17.5 -28 17.5 -64 ZM185 238 q-28 0 -46 -18 q-18 -18 -18 -46 q0 -27 18.5 -45 q18.5 -18 45.5 -18 q26 0 44.5 18 q18.5 18 18.5 45 q0 28 -18 46 q-18 18 -45 18 ZM241.5 36 q-21.5 21 -56.5 21 q-35 0 -57 -21 q-22 -21 -22 -53 q0 -33 21.5 -53.5 q21.5 -20.5 57.5 -20.5 q35 0 56.5 20.5 q21.5 20.5 21.5 53.5 q0 32 -21.5 53 Z" /><glyph glyph-name="nine.inferior" unicode="&#x2089;" d="M326 155 q0 -52 -39 -115 l-112 -178 l-71 0 l108 164 l-1 1 q-12 -6 -34 -6 q-57 0 -95.5 38 q-38.5 38 -38.5 96 q0 59 40.5 97.5 q40.5 38.5 101.5 38.5 q61 0 101 -38.5 q40 -38.5 40 -97.5 ZM243.5 96.5 q22.5 23.5 22.5 58.5 q0 35 -23 59 q-23 24 -58 24 q-36 0 -59 -24 q-23 -24 -23 -59 q0 -35 22.5 -58.5 q22.5 -23.5 59.5 -23.5 q36 0 58.5 23.5 Z" /><glyph glyph-name="Euro" unicode="&#x20ac;" d="M511 633 q-51 30 -127 30 q-85 0 -142.5 -51.5 q-57.5 -51.5 -78.5 -142.5 l300 0 l-18 -55 l-291 0 q-5 -33 -5 -65 q0 -25 4 -57 l256 0 l-18 -55 l-231 0 q16 -87 78 -139.5 q62 -52.5 146 -52.5 q79 0 136 40 l29 -56 q-67 -47 -174 -47 q-115 0 -191.5 75 q-76.5 75 -95.5 180 l-76 0 l20 55 l49 0 q-3 39 -3 56 q0 34 4 66 l-69 0 l20 55 l57 0 q27 121 107 189 q80 68 190 68 q88 0 149 -32 l-25 -61 Z" /><glyph glyph-name="afii61248" unicode="&#x2105;" d="M219 370 q-81 0 -130 49 q-49 49 -49 126 q0 76 49 125.5 q49 49.5 130 49.5 q86 0 131 -63 l-49 -36 q-29 44 -82 44 q-51 0 -81 -34 q-30 -34 -30 -86 q0 -52 30 -86 q30 -34 81 -34 q53 0 87 44 l48 -36 q-53 -63 -135 -63 ZM224 -31 l-52 27 l451 743 l51 -27 l-450 -743 ZM757 288.5 q50 -49.5 50 -125.5 q0 -76 -50 -125.5 q-50 -49.5 -129 -49.5 q-78 0 -128.5 49.5 q-50.5 49.5 -50.5 125.5 q0 75 50.5 125 q50.5 50 128.5 50 q79 0 129 -49.5 ZM739 163 q0 51 -30.5 85.5 q-30.5 34.5 -80.5 34.5 q-50 0 -80.5 -34.5 q-30.5 -34.5 -30.5 -85.5 q0 -52 30 -86 q30 -34 81 -34 q51 0 81 34 q30 34 30 86 Z" /><glyph glyph-name="afii61289" unicode="&#x2113;" d="M415 41 q-59 -55 -130 -55 q-57 0 -92 33 q-35 33 -35 95 l0 114 l-58 -62 l-2 0 l-26 37 l86 84 l0 259 q0 81 36.5 128 q36.5 47 92.5 47 q49 0 79.5 -34.5 q30.5 -34.5 30.5 -93.5 q0 -142 -171 -318 l0 -150 q0 -47 22 -67 q22 -20 53 -20 q46 0 88 38 l2 0 l24 -35 ZM340 588 q0 38 -15 61.5 q-15 23.5 -38 23.5 q-25 0 -43 -30 q-18 -30 -18 -86 l0 -222 q114 132 114 253 Z" /><glyph glyph-name="uni2116" unicode="&#x2116;" d="M94 0 l0 708 l95 0 l344 -603 l2 0 l0 603 l72 0 l0 -708 l-95 0 l-344 609 l-2 0 l0 -609 l-72 0 ZM716 302 l0 57 l284 0 l0 -57 l-284 0 ZM967 462 q-43 -42 -109 -42 q-66 0 -109 42 q-43 42 -43 106 q0 65 43 106.5 q43 41.5 109 41.5 q66 0 109 -41.5 q43 -41.5 43 -106.5 q0 -64 -43 -106 ZM789 496 q25 -30 69 -30 q44 0 69 30 q25 30 25 72 q0 43 -25 72.5 q-25 29.5 -69 29.5 q-44 0 -69 -29.5 q-25 -29.5 -25 -72.5 q0 -42 25 -72 Z" /><glyph glyph-name="published" unicode="&#x2117;" d="M20 353 q0 157 111.5 267 q111.5 110 269.5 110 q157 0 268 -110 q111 -110 111 -267 q0 -156 -111 -265.5 q-111 -109.5 -268 -109.5 q-158 0 -269.5 109.5 q-111.5 109.5 -111.5 265.5 ZM80 353 q0 -132 94 -225.5 q94 -93.5 227 -93.5 q132 0 225.5 93.5 q93.5 93.5 93.5 225.5 q0 133 -93.5 227 q-93.5 94 -225.5 94 q-133 0 -227 -94 q-94 -94 -94 -227 ZM277 129 l0 437 l157 0 q77 0 119 -37 q42 -37 42 -103 q0 -64 -43.5 -102.5 q-43.5 -38.5 -118.5 -38.5 l-90 0 l0 -156 l-66 0 ZM343 344 l87 0 q49 0 73.5 22 q24.5 22 24.5 60 q0 38 -24.5 59.5 q-24.5 21.5 -73.5 21.5 l-87 0 l0 -163 Z" /><glyph glyph-name="trademark" unicode="&#x2122;" d="M401 708 l0 -54 l-133 0 l0 -358 l-60 0 l0 358 l-136 0 l0 54 l329 0 ZM928 708 l0 -412 l-60 0 l0 346 l-2 0 l-139 -346 l-39 0 l-139 346 l-2 0 l0 -346 l-60 0 l0 412 l93 0 l129 -316 l129 316 l90 0 Z" /><glyph glyph-name="Omega" unicode="&#x2126;" d="M387 663 q-118 0 -184.5 -73.5 q-66.5 -73.5 -66.5 -183.5 q0 -99 51.5 -164 q51.5 -65 139.5 -87 l0 -155 l-260 0 l0 60 l202 0 l0 46 q-98 31 -153.5 110.5 q-55.5 79.5 -55.5 188.5 q0 147 94 234 q94 87 233 87 q141 0 233.5 -88 q92.5 -88 92.5 -233 q0 -109 -55 -188.5 q-55 -79.5 -154 -110.5 l0 -46 l202 0 l0 -60 l-260 0 l0 155 q90 22 140.5 87.5 q50.5 65.5 50.5 163.5 q0 108 -65.5 182.5 q-65.5 74.5 -184.5 74.5 Z" /><glyph glyph-name="estimated" unicode="&#x212e;" d="M561 259 l-404 0 l0 -181 q59 -59 145 -59 q122 0 193 120 l35 -21 q-46 -72 -98 -103.5 q-52 -31.5 -130 -31.5 q-115 0 -186.5 79 q-71.5 79 -71.5 197 q0 119 71 197.5 q71 78.5 187 78.5 q115 0 186.5 -77 q71.5 -77 72.5 -199 ZM157 295 l291 0 l0 145 q-63 60 -147 60 q-84 0 -144 -60 l0 -145 Z" /><glyph glyph-name="partialdiff" unicode="&#x2202;" d="M455 363 q0 -50 -4.5 -96 q-4.5 -46 -19.5 -99 q-15 -53 -38.5 -91 q-23.5 -38 -65.5 -63.5 q-42 -25.5 -97 -25.5 q-90 0 -144.5 66 q-54.5 66 -54.5 158 q0 90 52.5 151.5 q52.5 61.5 141.5 61.5 q97 0 166 -84 q0 9 0.5 26 q0.5 17 0.5 26 q0 46 -9 90.5 q-9 44.5 -28.5 87 q-19.5 42.5 -56 69 q-36.5 26.5 -85.5 26.5 q-52 0 -112 -46 l-36 43 q67 58 145 58 q68 0 118.5 -33 q50.5 -33 76.5 -88.5 q26 -55.5 38 -114 q12 -58.5 12 -122.5 ZM386 278 q-68 91 -155 91 q-64 0 -100.5 -46.5 q-36.5 -46.5 -36.5 -112.5 q0 -66 36.5 -117.5 q36.5 -51.5 100.5 -51.5 q41 0 72 23.5 q31 23.5 47.5 61.5 q16.5 38 25 75.5 q8.5 37.5 10.5 76.5 Z" /><glyph glyph-name="Delta" unicode="&#x2206;" d="M673 0 l-648 0 l0 49 l290 659 l70 0 l288 -659 l0 -49 ZM587 65 l-239 562 l-238 -562 l477 0 Z" /><glyph glyph-name="product" unicode="&#x220f;" d="M641 -214 l-66 0 l0 938 l-438 0 l0 -938 l-66 0 l0 1000 l570 0 l0 -1000 Z" /><glyph glyph-name="summation" unicode="&#x2211;" d="M578 -214 l-553 0 l0 55 l329 448 l-315 441 l0 56 l527 0 l0 -62 l-442 0 l309 -435 l-328 -442 l473 0 l0 -61 Z" /><glyph glyph-name="minus" unicode="&#x2212;" d="M588 333 l0 -60 l-510 0 l0 60 l510 0 Z" /><glyph glyph-name="fraction" unicode="&#x2215;" d="M297 712 l-450 -743 l-52 27 l451 743 l51 -27 Z" /><glyph glyph-name="periodcentered" unicode="&#x2219;" d="M168.5 352 q15.5 -16 15.5 -38 q0 -22 -15.5 -38 q-15.5 -16 -38.5 -16 q-23 0 -38.5 16 q-15.5 16 -15.5 38 q0 22 15.5 38 q15.5 16 38.5 16 q23 0 38.5 -16 Z" /><glyph glyph-name="radical" unicode="&#x221a;" d="M502 786 l-210 -1000 l-66 0 l-164 340 l-46 -22 l-24 50 l100 48 l158 -332 l189 916 l63 0 Z" /><glyph glyph-name="infinity" unicode="&#x221e;" d="M700 252 q0 -64 -38.5 -106 q-38.5 -42 -101.5 -42 q-36 0 -73.5 18.5 q-37.5 18.5 -59 36.5 q-21.5 18 -56.5 52 q-9 -7 -33 -28.5 q-24 -21.5 -36.5 -31 q-12.5 -9.5 -34 -23 q-21.5 -13.5 -42.5 -19 q-21 -5.5 -44 -5.5 q-62 0 -101 41.5 q-39 41.5 -39 103.5 q0 63 38 105.5 q38 42.5 100 42.5 q28 0 53.5 -8.5 q25.5 -8.5 54.5 -30.5 q29 -22 40.5 -32 q11.5 -10 43.5 -41 q5 5 22.5 21.5 q17.5 16.5 24.5 23 q7 6.5 23 20.5 q16 14 27.5 20 q11.5 6 27 14 q15.5 8 31 11 q15.5 3 31.5 3 q63 0 102.5 -41.5 q39.5 -41.5 39.5 -104.5 ZM643 249 q0 40 -22 66 q-22 26 -61 26 q-9 0 -18.5 -1.5 q-9.5 -1.5 -19 -6 q-9.5 -4.5 -17.5 -8.5 q-8 -4 -18.5 -11.5 q-10.5 -7.5 -16.5 -11.5 q-6 -4 -17 -14 q-11 -10 -15 -13.5 q-4 -3.5 -15.5 -14 q-11.5 -10.5 -13.5 -12.5 q33 -29 47.5 -41 q14.5 -12 46.5 -28.5 q32 -16.5 60 -16.5 q37 0 58.5 24.5 q21.5 24.5 21.5 62.5 ZM333 249 q-3 2 -18 15 q-15 13 -21 18 q-6 5 -20.5 16.5 q-14.5 11.5 -24 17 q-9.5 5.5 -22.5 12 q-13 6.5 -25 9.5 q-12 3 -24 3 q-37 0 -58.5 -26.5 q-21.5 -26.5 -21.5 -63.5 q0 -39 22.5 -63.5 q22.5 -24.5 61.5 -24.5 q62 0 151 87 Z" /><glyph glyph-name="integral" unicode="&#x222b;" d="M406 736 q0 -16 -10.5 -25 q-10.5 -9 -26.5 -9 q-20 0 -32.5 20 q-12.5 20 -19.5 20 q-10 0 -17 -9.5 q-7 -9.5 -10.5 -25.5 q-3.5 -16 -5.5 -34 q-2 -18 -2.5 -39 q-0.5 -21 0 -36.5 q0.5 -15.5 1 -30 q0.5 -14.5 0.5 -16.5 l0 -504 q0 -122 -16 -173 q-28 -87 -106 -87 q-24 0 -42 12 q-18 12 -18 35 q0 13 9.5 22.5 q9.5 9.5 23.5 9.5 q15 0 23.5 -9.5 q8.5 -9.5 14 -19 q5.5 -9.5 12.5 -9.5 q32 0 32 159 l1 21 l0 495 q0 8 -1 43.5 q-1 35.5 0 53.5 q1 18 3.5 52 q2.5 34 10.5 53 q8 19 20.5 40 q12.5 21 34.5 31 q22 10 51 10 q27 0 48.5 -12.5 q21.5 -12.5 21.5 -37.5 Z" /><glyph glyph-name="approxequal" unicode="&#x2248;" d="M596 402 q-6 -58 -37 -97.5 q-31 -39.5 -86 -39.5 q-48 0 -145 37 q-98 36 -133 36 q-32 0 -53 -23.5 q-21 -23.5 -26 -56.5 l-45 0 q8 60 38 99.5 q30 39.5 86 39.5 q45 0 143 -36 q97 -37 136 -37 q62 0 79 78 l43 0 ZM596 232 q-7 -59 -37.5 -98.5 q-30.5 -39.5 -86.5 -39.5 q-49 0 -144 37 q-98 36 -133 36 q-32 0 -53 -23.5 q-21 -23.5 -26 -56.5 l-45 0 q9 60 38 100 q29 40 85 40 q44 0 144 -36 q95 -37 136 -37 q61 0 78 78 l44 0 Z" /><glyph glyph-name="notequal" unicode="&#x2260;" d="M584 120 l-287 0 l-76 -144 l-52 27 l62 117 l-149 0 l0 60 l181 0 l68 130 l-249 0 l0 60 l282 0 l77 147 l52 -28 l-63 -119 l154 0 l0 -60 l-186 0 l-69 -130 l255 0 l0 -60 Z" /><glyph glyph-name="lessequal" unicode="&#x2264;" d="M584 108 l-502 188 l0 65 l502 189 l0 -65 l-419 -157 l419 -155 l0 -65 ZM584 6 l-502 0 l0 59 l502 0 l0 -59 Z" /><glyph glyph-name="greaterequal" unicode="&#x2265;" d="M584 296 l-502 -188 l0 65 l420 155 l-420 157 l0 65 l502 -189 l0 -65 ZM584 6 l-502 0 l0 59 l502 0 l0 -59 Z" /><glyph glyph-name="lozenge" unicode="&#x25ca;" d="M498 356 l-171 -391 l-63 0 l-169 391 l169 391 l63 0 l171 -391 ZM433 356 l-137 325 l-136 -325 l136 -325 l137 325 Z" /><glyph glyph-name="fi" unicode="&#xf001;" d="M288 468 l0 -57 l-110 0 l0 -411 l-68 0 l0 411 l-98 0 l0 57 l98 0 l0 128 q0 81 40 126.5 q40 45.5 119 45.5 q32 0 56 -7 l-12 -60 q-24 7 -47 7 q-51 0 -69.5 -31 q-18.5 -31 -18.5 -89 l0 -120 l110 0 ZM453 468 l0 -468 l-68 0 l0 468 l68 0 ZM452.5 682 q14.5 -14 14.5 -34 q0 -20 -14.5 -34 q-14.5 -14 -33.5 -14 q-19 0 -33.5 14 q-14.5 14 -14.5 34 q0 20 14.5 34 q14.5 14 33.5 14 q19 0 33.5 -14 Z" /><glyph glyph-name="fl" unicode="&#xf002;" d="M288 468 l0 -57 l-110 0 l0 -411 l-68 0 l0 411 l-98 0 l0 57 l98 0 l0 128 q0 81 40 126.5 q40 45.5 119 45.5 q32 0 56 -7 l-12 -60 q-24 7 -47 7 q-51 0 -69.5 -31 q-18.5 -31 -18.5 -89 l0 -120 l110 0 ZM452 756 l0 -756 l-68 0 l0 756 l68 0 Z" /><glyph glyph-name="uniF8FF" unicode="&#xf8ff;" d="M278 117 l-56 0 l0 67 l56 0 l0 -67 ZM271 234 l-46 0 l-2 17 q0 56 13 81 q15 28 46 59 q31 29 40.5 46 q9.5 17 9.5 37 q0 36 -22.5 60.5 q-22.5 24.5 -53.5 24.5 q-71 0 -82 -95 l-50 8 q7 69 43 103 q36 34 92 34 q54 0 89 -36 q35 -36 35 -95 q0 -34 -13 -60 q-13 -26 -50 -60 q-37 -33 -43 -52 q-6 -20 -6 -72 ZM50 50 l412 0 l0 617 l-412 0 l0 -617 ZM0 718 l512 0 l0 -718 l-512 0 l0 718 Z" /><glyph glyph-name="f_f" unicode="&#xfb00;" d="M565 468 l0 -57 l-110 0 l0 -411 l-68 0 l0 411 l-209 0 l0 -411 l-68 0 l0 411 l-98 0 l0 57 l98 0 l0 128 q0 81 40 126.5 q40 45.5 119 45.5 q32 0 56 -7 l-12 -60 q-24 7 -47 7 q-51 0 -69.5 -31 q-18.5 -31 -18.5 -89 l0 -120 l209 0 l0 128 q0 81 40 126.5 q40 45.5 119 45.5 q32 0 56 -7 l-12 -60 q-24 7 -47 7 q-51 0 -69.5 -31 q-18.5 -31 -18.5 -89 l0 -120 l110 0 Z" /><glyph glyph-name="fi" unicode="&#xfb01;" d="M452 468 l0 -468 l-68 0 l0 468 l68 0 ZM452.5 682 q14.5 -14 14.5 -34 q0 -20 -14.5 -34 q-14.5 -14 -33.5 -14 q-19 0 -33.5 14 q-14.5 14 -14.5 34 q0 20 14.5 34 q14.5 14 33.5 14 q19 0 33.5 -14 ZM288 468 l0 -57 l-110 0 l0 -411 l-68 0 l0 411 l-98 0 l0 57 l98 0 l0 128 q0 81 40 126.5 q40 45.5 119 45.5 q32 0 56 -7 l-12 -60 q-24 7 -47 7 q-51 0 -69.5 -31 q-18.5 -31 -18.5 -89 l0 -120 l110 0 Z" /><glyph glyph-name="fl" unicode="&#xfb02;" d="M452 756 l0 -756 l-68 0 l0 756 l68 0 ZM288 468 l0 -57 l-110 0 l0 -411 l-68 0 l0 411 l-98 0 l0 57 l98 0 l0 128 q0 81 40 126.5 q40 45.5 119 45.5 q32 0 56 -7 l-12 -60 q-24 7 -47 7 q-51 0 -69.5 -31 q-18.5 -31 -18.5 -89 l0 -120 l110 0 Z" /><glyph glyph-name="f_f_i" unicode="&#xfb03;" d="M565 468 l0 -57 l-110 0 l0 -411 l-68 0 l0 411 l-209 0 l0 -411 l-68 0 l0 411 l-98 0 l0 57 l98 0 l0 128 q0 81 40 126.5 q40 45.5 119 45.5 q32 0 56 -7 l-12 -60 q-24 7 -47 7 q-51 0 -69.5 -31 q-18.5 -31 -18.5 -89 l0 -120 l209 0 l0 128 q0 81 40 126.5 q40 45.5 119 45.5 q32 0 56 -7 l-12 -60 q-24 7 -47 7 q-51 0 -69.5 -31 q-18.5 -31 -18.5 -89 l0 -120 l110 0 ZM730 468 l0 -468 l-68 0 l0 468 l68 0 ZM729.5 682 q14.5 -14 14.5 -34 q0 -20 -14.5 -34 q-14.5 -14 -33.5 -14 q-19 0 -33.5 14 q-14.5 14 -14.5 34 q0 20 14.5 34 q14.5 14 33.5 14 q19 0 33.5 -14 Z" /><glyph glyph-name="f_f_l" unicode="&#xfb04;" d="M729 756 l0 -756 l-68 0 l0 756 l68 0 ZM565 468 l0 -57 l-110 0 l0 -411 l-68 0 l0 411 l-209 0 l0 -411 l-68 0 l0 411 l-98 0 l0 57 l98 0 l0 128 q0 81 40 126.5 q40 45.5 119 45.5 q32 0 56 -7 l-12 -60 q-24 7 -47 7 q-51 0 -69.5 -31 q-18.5 -31 -18.5 -89 l0 -120 l209 0 l0 128 q0 81 40 126.5 q40 45.5 119 45.5 q32 0 56 -7 l-12 -60 q-24 7 -47 7 q-51 0 -69.5 -31 q-18.5 -31 -18.5 -89 l0 -120 l110 0 Z" /></font>
</defs>
</svg>
