<svg xmlns="http://www.w3.org/2000/svg" width="587.815" height="23.219"><path data-name="Вкладываем эмоции в рекламный продукт" d="M6.907 19.757a6.742 6.742 0 004.1-1.131 3.647 3.647 0 001.529-3.1q0-2.793-3.324-3.79a3.672 3.672 0 002.46-3.59 3.522 3.522 0 00-1-2.526 5.411 5.411 0 00-4.056-1.374h-6.6v15.513h6.892zm-5.163-7.048h4.9a5.653 5.653 0 013.07.687 2.218 2.218 0 011.052 1.973 2.419 2.419 0 01-1.019 2.072 4.66 4.66 0 01-2.793.742H1.747v-5.474zm0-6.892h4.72a4.15 4.15 0 012.537.676 2.191 2.191 0 01.9 1.851 2.45 2.45 0 01-.975 2.083 4.222 4.222 0 01-2.593.731H1.746V5.817zm16.022 13.94V15.59l3.3-3.346 5.961 7.513h2.194l-6.936-8.732 6.648-6.781h-2.258l-8.908 9.263V4.244h-1.752v15.513h1.751zm15.3-.056a3.15 3.15 0 001.241-1.008 6.22 6.22 0 001.041-2.094 20.179 20.179 0 00.665-3.624 50.368 50.368 0 00.255-5.451V5.839h6.6v13.918h1.751V4.244H34.586v2.814a50.58 50.58 0 01-.233 5.219 22.734 22.734 0 01-.543 3.347 5.36 5.36 0 01-.8 1.795 2.36 2.36 0 01-.842.8 2.082 2.082 0 01-.8.144 3.407 3.407 0 01-1.374-.221l-.354 1.418a5.552 5.552 0 002.017.377 3.937 3.937 0 001.411-.237zm16.41.056l1.839-4.1h8.443l1.818 4.1h1.883L56.39 4.133h-1.64l-7.069 15.624h1.794zm6.072-13.585l3.523 7.911h-7.069zM66.03 23.214l.31-3.457h12.588v3.457h1.462l.266-5.053H78.64V4.244H68.49v2.7q0 7.469-2.349 11.214h-1.6v5.053h1.485zm3.59-9.463a30.719 30.719 0 00.554-5.895V5.839h6.715v12.322h-8.774a13.737 13.737 0 001.507-4.41zm19.546 6.006a6.265 6.265 0 004.2-1.33 4.5 4.5 0 001.563-3.612 3.863 3.863 0 00-1.673-3.435 7.637 7.637 0 00-4.355-1.131h-3.926v-6h-1.75v15.513h5.939zm-4.189-7.934h4.034a5.251 5.251 0 013.069.776 2.594 2.594 0 011.1 2.26 2.934 2.934 0 01-1.075 2.46 4.723 4.723 0 01-2.98.842h-4.15v-6.338zm13.7 7.934V4.244h-1.751v15.513h1.749zm11.28 0a6.746 6.746 0 004.1-1.131 3.647 3.647 0 001.529-3.1q0-2.793-3.325-3.79a3.672 3.672 0 002.46-3.59 3.518 3.518 0 00-1-2.526 5.407 5.407 0 00-4.055-1.374h-6.6v15.513h6.892zm-5.164-7.048h4.9a5.649 5.649 0 013.069.687 2.217 2.217 0 011.053 1.973 2.417 2.417 0 01-1.02 2.072 4.655 4.655 0 01-2.792.742h-5.208v-5.474zm0-6.892h4.72a4.152 4.152 0 012.538.676 2.193 2.193 0 01.9 1.851 2.45 2.45 0 01-.975 2.083 4.219 4.219 0 01-2.592.731h-4.588V5.817zm14.294 13.94l1.839-4.1h8.444l1.817 4.1h1.884l-7.07-15.624h-1.64l-7.069 15.624h1.8zm6.072-13.585l3.524 7.911h-7.07zm22.294 13.585v-1.6h-9.578v-5.429h8.466v-1.6h-8.466v-5.3h9.463v-1.6h-11.211v15.513h11.324zm5.23 0V7.213l5.649 8.287h.089l5.651-8.311v12.566h1.75V4.244h-1.773l-5.651 8.465-5.651-8.465h-1.772v15.513h1.707zm41.263-2.05a8.4 8.4 0 00-.022-11.391 7.439 7.439 0 00-5.607-2.338 7.57 7.57 0 00-3.291.643 10.53 10.53 0 00-2.67 1.9l1.108 1.2a6.975 6.975 0 014.875-2.149 5.585 5.585 0 014 1.573 6.367 6.367 0 011.939 3.989h-7.8v1.6h7.823a6.355 6.355 0 01-1.926 4.066 5.6 5.6 0 01-4.034 1.629 5.735 5.735 0 01-2.593-.554 9.685 9.685 0 01-2.326-1.729l-1.286 1.153a9.811 9.811 0 002.781 2.027 8.022 8.022 0 003.469.7 7.377 7.377 0 005.558-2.319zm7.646 2.05V7.213l5.649 8.287h.088l5.651-8.311v12.566h1.751V4.244h-1.773l-5.651 8.465-5.651-8.465h-1.773v15.513h1.707zM234.255 12a7.971 7.971 0 00-2.216-5.673 8.039 8.039 0 00-11.369.011 8.325 8.325 0 00-.022 11.335 8.037 8.037 0 0011.369-.011A7.936 7.936 0 00234.255 12zm-14.006 0a6.445 6.445 0 011.717-4.554 6.064 6.064 0 018.732.011 6.847 6.847 0 01.022 9.1 6.061 6.061 0 01-8.731-.011 6.407 6.407 0 01-1.74-4.543zm31.826 11.214l.266-5.053h-2.017V4.244h-1.749v13.917h-8.865V4.244h-1.755v15.513h12.654v3.457h1.466zm4.543-3.457l9.241-12.876v12.876h1.729V4.244h-1.662l-9.264 12.875V4.244h-1.75v15.513h1.706zm17.064 0l9.241-12.876v12.876h1.728V4.244h-1.662l-9.263 12.875V4.244h-1.751v15.513h1.7zm28.9 0a6.742 6.742 0 004.1-1.131 3.647 3.647 0 001.529-3.1q0-2.793-3.324-3.79a3.672 3.672 0 002.46-3.59 3.522 3.522 0 00-1-2.526 5.411 5.411 0 00-4.056-1.374h-6.6v15.513h6.884zm-5.163-7.048h4.9a5.653 5.653 0 013.07.687 2.218 2.218 0 011.052 1.973 2.419 2.419 0 01-1.019 2.072 4.66 4.66 0 01-2.793.742h-5.207v-5.474zm0-6.892h4.72a4.15 4.15 0 012.537.676 2.191 2.191 0 01.9 1.851 2.45 2.45 0 01-.975 2.083 4.222 4.222 0 01-2.593.731h-4.587V5.817zm22.67 13.94v-5.474h3.767a6.961 6.961 0 004.355-1.33 4.441 4.441 0 001.739-3.745 4.506 4.506 0 00-1.575-3.634 6.342 6.342 0 00-4.233-1.33h-5.806v15.513h1.751zm0-13.895h3.922a4.823 4.823 0 013.047.875 2.982 2.982 0 011.12 2.493 3.069 3.069 0 01-1.164 2.515 4.765 4.765 0 01-3.091.942h-3.834V5.862zm24.372 13.895v-1.6h-9.57v-5.429h8.47v-1.6h-8.47v-5.3h9.46v-1.6h-11.21v15.513h11.32zm5.28 0V15.59l3.3-3.346 5.96 7.513h2.2l-6.94-8.732 6.65-6.781h-2.26l-8.91 9.263V4.244h-1.75v15.513h1.75zm15.3-.056a3.115 3.115 0 001.24-1.008 6.183 6.183 0 001.04-2.094 19.6 19.6 0 00.67-3.624 50.494 50.494 0 00.25-5.451V5.839h6.61v13.918h1.75V4.244h-10.04v2.814a52.119 52.119 0 01-.23 5.219 22.827 22.827 0 01-.55 3.347 5.323 5.323 0 01-.79 1.795 2.375 2.375 0 01-.85.8 2.041 2.041 0 01-.79.144 3.426 3.426 0 01-1.38-.221l-.35 1.418a5.535 5.535 0 002.01.377 3.931 3.931 0 001.404-.237zm16.41.056l1.84-4.1h8.44l1.82 4.1h1.88l-7.06-15.624h-1.64l-7.07 15.624h1.79zm6.07-13.585l3.53 7.911h-7.07zm12.68 13.585V7.213l5.65 8.289h.09l5.65-8.311v12.566h1.75V4.244h-1.77l-5.65 8.465-5.65-8.465h-1.78v15.513h1.71zm19.28 0v-6.981h8.95v6.981h1.75V4.244h-1.75v6.892h-8.95V4.244h-1.75v15.513h1.75zm21.03 0a6.262 6.262 0 004.2-1.33 4.5 4.5 0 001.56-3.612 3.872 3.872 0 00-1.67-3.435 7.657 7.657 0 00-4.36-1.131h-3.92v-6h-1.75v15.513h5.94zm-4.19-7.934h4.03a5.242 5.242 0 013.07.776 2.576 2.576 0 011.1 2.26 2.951 2.951 0 01-1.07 2.46 4.729 4.729 0 01-2.98.842h-4.15v-6.338zm13.7 7.934V4.244h-1.75v15.513h1.75zm6.09 0l9.24-12.876v12.876h1.73V4.244h-1.66l-9.26 12.875V4.244h-1.76v15.513h1.71zm7.91-19.524l-1.19-.244a2.033 2.033 0 01-3.95 0l-1.2.244a3.271 3.271 0 001.07 1.961 3.279 3.279 0 004.21 0 3.208 3.208 0 001.06-1.961zm15.85 19.524V5.839h8.73v13.918h1.75V4.244h-12.23v15.513h1.75zm16.62 0v-5.474h3.77a6.952 6.952 0 004.35-1.33 4.44 4.44 0 001.74-3.745 4.531 4.531 0 00-1.57-3.634 6.35 6.35 0 00-4.24-1.33h-5.8v15.513h1.75zm0-13.895h3.92a4.832 4.832 0 013.05.875 3 3 0 011.12 2.493 3.063 3.063 0 01-1.17 2.515 4.741 4.741 0 01-3.09.942h-3.83V5.862zM524.681 12a7.962 7.962 0 00-2.22-5.673 8.041 8.041 0 00-11.37.011 8.317 8.317 0 00-.02 11.335 8.038 8.038 0 0011.37-.011 7.946 7.946 0 002.24-5.662zm-14.01 0a6.425 6.425 0 011.72-4.554 5.665 5.665 0 014.35-1.85 5.741 5.741 0 014.38 1.861 6.844 6.844 0 01.02 9.1 5.663 5.663 0 01-4.35 1.851 5.742 5.742 0 01-4.38-1.862 6.407 6.407 0 01-1.74-4.543zm16.78 11.214l.31-3.457h12.58v3.457h1.47l.26-5.053h-2.01V4.244h-10.15v2.7q0 7.469-2.35 11.214h-1.6v5.053h1.49zm3.59-9.463a30.641 30.641 0 00.55-5.895V5.839h6.72v12.322h-8.78a13.635 13.635 0 001.504-4.41zm20.624 2.749l6.14-12.255h-1.91l-4.94 10.127-5.72-10.127h-1.99l6.82 11.878c-.81 1.551-1.84 2.327-3.1 2.327a4.067 4.067 0 01-1.97-.465l-.69 1.4a5.632 5.632 0 002.62.643q2.985 0 4.74-3.524zm10.88 3.258V15.59l3.3-3.346 5.96 7.513h2.2l-6.94-8.732 6.65-6.781h-2.26l-8.91 9.263V4.244h-1.75v15.513h1.75zm20.06 0V5.839h5.2v-1.6h-12.19v1.6h5.21v13.918h1.78z" fill="#fff" fill-rule="evenodd"/></svg>